<?xml version="1.0" standalone="no"?>
<!DOCTYPE svg PUBLIC "-//W3C//DTD SVG 20010904//EN"
 "http://www.w3.org/TR/2001/REC-SVG-20010904/DTD/svg10.dtd">
<svg version="1.0" xmlns="http://www.w3.org/2000/svg"
 width="700.000000pt" height="700.000000pt" viewBox="0 0 700.000000 700.000000"
 preserveAspectRatio="xMidYMid meet">
<metadata>
Created by potrace 1.14, written by Peter Selinger 2001-2017
</metadata>
<g transform="translate(0.000000,700.000000) scale(0.100000,-0.100000)"
fill="#000000" stroke="none">
<path d="M3425 6866 c-346 -89 -613 -538 -795 -1341 -18 -77 -34 -151 -36
-165 -3 -14 -7 -36 -9 -50 -9 -44 -13 -67 -19 -101 -3 -19 -15 -92 -26 -163
-12 -70 -23 -145 -25 -165 -2 -20 -7 -56 -10 -81 -3 -25 -8 -65 -11 -90 -2
-25 -6 -58 -8 -75 -3 -16 -7 -61 -11 -100 -3 -38 -8 -88 -10 -110 -2 -22 -7
-83 -10 -135 -9 -128 -14 -182 -17 -185 -2 -1 -59 -39 -128 -85 -69 -46 -180
-124 -248 -172 -110 -79 -126 -88 -140 -75 -334 280 -554 494 -703 682 -147
185 -225 324 -245 439 -10 52 2 72 58 97 49 22 67 24 218 24 91 0 189 -3 218
-8 122 -17 130 -19 323 -62 8 -2 60 -15 115 -29 137 -35 154 -36 213 -16 183
61 205 315 36 402 -44 23 -286 86 -453 118 -492 94 -856 43 -1039 -147 -59
-61 -114 -166 -129 -248 -23 -121 9 -300 82 -455 57 -122 187 -319 284 -430
12 -14 45 -52 73 -85 115 -132 376 -383 550 -529 l57 -49 -37 -31 c-163 -136
-470 -432 -573 -551 -312 -360 -450 -637 -443 -889 8 -273 234 -477 568 -512
127 -13 323 -6 470 16 33 5 74 12 90 14 115 16 439 98 488 122 99 50 143 156
111 265 -28 92 -127 160 -224 154 -19 -2 -96 -19 -170 -38 -74 -20 -146 -38
-160 -41 -14 -2 -62 -11 -107 -20 -130 -25 -199 -31 -343 -31 -145 0 -232 19
-266 56 -39 43 13 188 129 362 41 62 83 121 94 132 10 11 36 43 58 70 61 77
357 370 485 481 199 172 643 514 668 514 4 0 8 -73 8 -162 1 -152 11 -451 19
-578 6 -96 16 -234 20 -275 2 -22 7 -76 10 -120 4 -44 8 -82 10 -85 1 -3 6
-37 9 -77 6 -62 12 -115 32 -263 8 -64 44 -274 54 -320 5 -25 12 -61 15 -80 9
-54 43 -204 71 -315 121 -470 283 -822 464 -1004 85 -86 112 -107 187 -143 90
-43 150 -56 239 -53 232 9 428 170 603 497 82 154 159 361 236 638 47 170 52
238 21 299 -66 125 -238 160 -342 69 -48 -42 -61 -71 -101 -222 -126 -478
-315 -836 -441 -836 -23 0 -106 78 -150 142 -18 25 -32 49 -32 53 0 4 -8 19
-18 33 -25 38 -88 180 -128 289 -30 84 -105 333 -118 393 -3 14 -13 57 -22 95
-8 39 -18 81 -20 95 -3 14 -10 45 -15 70 -6 25 -13 63 -15 85 -3 22 -9 56 -14
75 -5 19 -11 53 -14 75 -12 97 -17 131 -22 153 -2 12 -7 44 -9 70 -3 26 -10
79 -15 117 -5 39 -12 97 -15 130 -3 33 -7 83 -10 110 -3 28 -7 73 -9 100 -3
28 -8 97 -11 155 -4 58 -9 134 -11 170 -9 125 -12 905 -3 921 10 19 333 212
584 349 265 145 606 309 880 425 17 7 46 20 67 29 20 9 39 16 43 16 3 0 25 8
48 19 23 10 87 35 142 55 55 20 107 40 115 43 8 3 17 7 20 8 3 0 48 15 100 32
157 52 407 123 486 137 16 3 40 8 54 11 14 3 39 7 55 10 17 3 41 7 55 10 14 3
45 7 70 10 25 3 61 8 80 10 46 6 258 7 268 1 4 -2 24 -7 44 -10 51 -8 107 -36
114 -58 17 -56 -39 -199 -139 -348 -109 -164 -355 -433 -561 -615 -44 -39 -90
-79 -102 -90 -12 -11 -31 -27 -41 -35 -10 -8 -41 -35 -70 -58 l-52 -44 -129
94 c-204 146 -518 355 -593 394 -82 42 -192 21 -256 -49 -51 -55 -67 -103 -60
-175 9 -83 43 -124 171 -207 141 -91 517 -350 603 -415 158 -120 325 -253 418
-334 38 -34 88 -77 110 -96 90 -79 357 -351 430 -440 144 -175 241 -338 265
-452 17 -78 3 -99 -81 -122 -193 -54 -585 7 -1060 165 -282 94 -909 352 -894
368 6 5 77 45 200 112 89 48 296 174 389 237 83 55 104 75 125 116 62 121 -3
274 -133 311 -96 27 -152 7 -343 -126 -23 -16 -44 -29 -48 -29 -4 0 -19 -8
-33 -19 -15 -10 -49 -31 -77 -46 -27 -16 -86 -48 -130 -73 -44 -25 -182 -96
-306 -158 -124 -63 -245 -128 -267 -144 -48 -35 -102 -131 -102 -182 0 -122
50 -171 305 -297 110 -54 252 -122 315 -151 63 -28 129 -57 145 -65 306 -139
806 -319 1055 -379 8 -2 42 -11 75 -19 199 -51 444 -85 611 -85 157 1 243 14
349 52 259 94 390 313 350 586 -25 179 -149 413 -351 664 -87 108 -348 379
-474 492 -80 72 -188 165 -207 179 -12 9 -4 20 44 60 184 157 412 376 548 529
382 429 524 801 407 1071 -37 87 -97 160 -173 212 -95 66 -177 95 -329 118
-78 12 -338 13 -400 1 -14 -2 -47 -7 -75 -11 -95 -12 -120 -16 -135 -20 -8 -2
-31 -7 -50 -10 -53 -9 -212 -45 -220 -50 -4 -2 -21 -7 -38 -10 -79 -14 -546
-165 -637 -205 -11 -5 -76 -32 -145 -59 -331 -130 -824 -365 -1125 -536 -27
-15 -86 -48 -130 -73 -44 -24 -95 -54 -114 -65 l-33 -20 6 59 c4 32 9 77 11
99 11 108 24 212 30 255 2 14 7 45 10 70 3 25 8 56 10 70 2 14 11 70 20 125
93 580 273 1100 446 1289 27 30 63 59 79 64 25 9 34 7 67 -17 21 -16 47 -39
58 -52 120 -142 248 -443 335 -791 38 -151 49 -175 96 -216 113 -100 278 -71
345 60 32 62 30 114 -8 260 -19 73 -36 140 -38 148 -8 36 -85 262 -115 340
-41 106 -135 290 -194 378 -87 132 -213 247 -326 300 -85 39 -224 52 -315 28z"/>
</g>
</svg>
