<svg width="491" height="437" viewBox="0 0 491 437" fill="none" xmlns="http://www.w3.org/2000/svg">
<path d="M490.6 218.5C490.6 186 449.9 155.2 387.5 136.1C401.9 72.5 395.5 21.9 367.3 5.7C360.8 1.9 353.2 0.0999985 344.9 0.0999985V22.4C349.5 22.4 353.2 23.3 356.3 25C369.9 32.8 375.8 62.5 371.2 100.7C370.1 110.1 368.3 120 366.1 130.1C346.5 125.3 325.1 121.6 302.6 119.2C289.1 100.7 275.1 83.9 261 69.2C293.6 38.9 324.2 22.3 345 22.3V0C317.5 0 281.5 19.6 245.1 53.6C208.7 19.8 172.7 0.400002 145.2 0.400002V22.7C165.9 22.7 196.6 39.2 229.2 69.3C215.2 84 201.2 100.7 187.9 119.2C165.3 121.6 143.9 125.3 124.3 130.2C122 120.2 120.3 110.5 119.1 101.2C114.4 63 120.2 33.3 133.7 25.4C136.7 23.6 140.6 22.8 145.2 22.8V0.5C136.8 0.5 129.2 2.3 122.6 6.1C94.5 22.3 88.2 72.8 102.7 136.2C40.5 155.4 0 186.1 0 218.5C0 251 40.7 281.8 103.1 300.9C88.7 364.5 95.1 415.1 123.3 431.3C129.8 435.1 137.4 436.9 145.8 436.9C173.3 436.9 209.3 417.3 245.7 383.3C282.1 417.1 318.1 436.5 345.6 436.5C354 436.5 361.6 434.7 368.2 430.9C396.3 414.7 402.6 364.2 388.1 300.8C450.1 281.7 490.6 250.9 490.6 218.5ZM360.4 151.8C356.7 164.7 352.1 178 346.9 191.3C342.8 183.3 338.5 175.3 333.8 167.3C329.2 159.3 324.3 151.5 319.4 143.9C333.6 146 347.3 148.6 360.4 151.8ZM314.6 258.3C306.8 271.8 298.8 284.6 290.5 296.5C275.6 297.8 260.5 298.5 245.3 298.5C230.2 298.5 215.1 297.8 200.3 296.6C192 284.7 183.9 272 176.1 258.6C168.5 245.5 161.6 232.2 155.3 218.8C161.5 205.4 168.5 192 176 178.9C183.8 165.4 191.8 152.6 200.1 140.7C215 139.4 230.1 138.7 245.3 138.7C260.4 138.7 275.5 139.4 290.3 140.6C298.6 152.5 306.7 165.2 314.5 178.6C322.1 191.7 329 205 335.3 218.4C329 231.8 322.1 245.2 314.6 258.3ZM346.9 245.3C352.3 258.7 356.9 272.1 360.7 285.1C347.6 288.3 333.8 291 319.5 293.1C324.4 285.4 329.3 277.5 333.9 269.4C338.5 261.4 342.8 253.3 346.9 245.3ZM245.5 352C236.2 342.4 226.9 331.7 217.7 320C226.7 320.4 235.9 320.7 245.2 320.7C254.6 320.7 263.9 320.5 273 320C264 331.7 254.7 342.4 245.5 352ZM171.1 293.1C156.9 291 143.2 288.4 130.1 285.2C133.8 272.3 138.4 259 143.6 245.7C147.7 253.7 152 261.7 156.7 269.7C161.4 277.7 166.2 285.5 171.1 293.1ZM245 85C254.3 94.6 263.6 105.3 272.8 117C263.8 116.6 254.6 116.3 245.3 116.3C235.9 116.3 226.6 116.5 217.5 117C226.5 105.3 235.8 94.6 245 85ZM171 143.9C166.1 151.6 161.2 159.5 156.6 167.6C152 175.6 147.7 183.6 143.6 191.6C138.2 178.2 133.6 164.8 129.8 151.8C142.9 148.7 156.7 146 171 143.9ZM80.5 269.1C45.1 254 22.2 234.2 22.2 218.5C22.2 202.8 45.1 182.9 80.5 167.9C89.1 164.2 98.5 160.9 108.2 157.8C113.9 177.4 121.4 197.8 130.7 218.7C121.5 239.5 114.1 259.8 108.5 279.3C98.6 276.2 89.2 272.8 80.5 269.1ZM134.3 412C120.7 404.2 114.8 374.5 119.4 336.3C120.5 326.9 122.3 317 124.5 306.9C144.1 311.7 165.5 315.4 188 317.8C201.5 336.3 215.5 353.1 229.6 367.8C197 398.1 166.4 414.7 145.6 414.7C141.1 414.6 137.3 413.7 134.3 412ZM371.5 335.8C376.2 374 370.4 403.7 356.9 411.6C353.9 413.4 350 414.2 345.4 414.2C324.7 414.2 294 397.7 261.4 367.6C275.4 352.9 289.4 336.2 302.7 317.7C325.3 315.3 346.7 311.6 366.3 306.7C368.6 316.8 370.4 326.5 371.5 335.8ZM410 269.1C401.4 272.8 392 276.1 382.3 279.2C376.6 259.6 369.1 239.2 359.8 218.3C369 197.5 376.4 177.2 382 157.7C391.9 160.8 401.3 164.2 410.1 167.9C445.5 183 468.4 202.8 468.4 218.5C468.3 234.2 445.4 254.1 410 269.1Z" fill="#61DAFB"/>
<path d="M245.2 264.2C270.439 264.2 290.9 243.739 290.9 218.5C290.9 193.261 270.439 172.8 245.2 172.8C219.961 172.8 199.5 193.261 199.5 218.5C199.5 243.739 219.961 264.2 245.2 264.2Z" fill="#61DAFB"/>
</svg>
