<svg width="226" height="181" viewBox="0 0 226 181" fill="none" xmlns="http://www.w3.org/2000/svg">
<path d="M31.4412 107.51C68.9339 127.777 157.066 127.777 194.554 107.51L172.437 77.875L80.2256 69.4897L31.4412 107.51Z" fill="#C92424"/>
<path d="M180.834 139.131L181.915 93.3219L181.001 88.5489L187.953 78.8911C193.375 80.5039 204.461 81.0865 206.498 95.3635C208.153 106.956 192.153 129.916 184.377 140.282C183.225 141.821 180.796 141.056 180.834 139.131Z" fill="#C92424"/>
<path d="M45.1712 139.131L44.0894 93.3219L45.0032 88.5489L38.052 78.8911C32.63 80.5039 21.5435 81.0865 19.5062 95.3635C17.8511 106.956 33.8515 129.916 41.6279 140.282C42.7795 141.821 45.2038 141.056 45.1712 139.131Z" fill="#C92424"/>
<path d="M193.431 100.164C195.062 99.1063 197.151 100.868 196.843 102.789L186.946 155.254C186.573 157.557 189.351 158.894 191.006 157.244C202.116 146.137 226 123.652 226 109.454C226 85.2442 200.68 89.5697 203.617 82.2191C203.869 81.5899 204.27 81.0352 204.732 80.5412L211.091 73.7453C211.492 73.3165 211.757 72.7571 211.762 72.1652C211.771 71.0046 210.96 70.0723 209.897 69.8719L201.72 68.2964C200.396 68.0401 199.281 67.1545 198.736 65.924L198.298 64.9405C197.748 63.7099 197.836 62.2883 198.536 61.137L202.797 54.0708C203.1 53.5674 203.244 52.9614 203.128 52.3834C202.895 51.2461 201.911 50.505 200.829 50.5237L192.503 50.6821C191.156 50.7101 189.883 50.0716 189.09 48.9855L188.456 48.1139C187.664 47.0232 187.454 45.6155 187.897 44.343L190.596 36.545C190.787 35.9857 190.801 35.3704 190.568 34.8297C190.106 33.767 188.988 33.2449 187.934 33.492L179.822 35.3798C178.512 35.6827 177.132 35.3285 176.13 34.4289L175.332 33.7111C174.33 32.8115 173.836 31.4738 173.999 30.1407L175.02 21.9512C175.095 21.3639 174.978 20.7579 174.633 20.2778C173.962 19.3362 172.759 19.0566 171.775 19.518L164.232 23.0512C163.01 23.6245 161.589 23.5592 160.423 22.888L159.491 22.352C158.325 21.6761 157.56 20.4782 157.444 19.1358L156.74 10.9136C156.688 10.3263 156.451 9.75304 156.017 9.35685C155.164 8.57379 153.929 8.55044 153.066 9.203L146.423 14.223C145.346 15.034 143.942 15.2718 142.66 14.8569L141.639 14.526C140.357 14.1112 139.36 13.0951 138.968 11.8039L136.567 3.908C136.394 3.344 136.045 2.83597 135.537 2.53766C134.539 1.95036 133.327 2.18342 132.618 3.00377L127.163 9.29625C126.282 10.3124 124.958 10.8391 123.616 10.6946L122.548 10.5827C121.21 10.4429 120.021 9.65515 119.369 8.4759L115.378 1.24653C115.098 0.738466 114.655 0.318956 114.1 0.127851C113.788 0.0206453 113.471 -0.0166481 113.163 0.00665744C113.112 0.00199634 113.056 0.00199179 113 0.00199179C112.944 0.00199179 112.893 0.00199634 112.837 0.00665744C112.534 -0.0166481 112.212 0.0206453 111.9 0.127851C111.35 0.314295 110.907 0.733805 110.622 1.24653L106.631 8.4759C105.979 9.65515 104.795 10.4429 103.452 10.5827L102.384 10.6946C101.046 10.8344 99.7224 10.3124 98.8366 9.29625L93.3818 3.00377C92.6732 2.18808 91.4612 1.95036 90.4635 2.53766C89.9553 2.83597 89.601 3.344 89.4332 3.908L87.032 11.8039C86.6404 13.0951 85.6427 14.1112 84.3606 14.526L83.3396 14.8569C82.0576 15.2718 80.6544 15.0387 79.5774 14.223L72.9339 9.203C72.0714 8.55044 70.8359 8.57379 69.9828 9.35685C69.5492 9.75304 69.3069 10.3263 69.2602 10.9136L68.5561 19.1358C68.4396 20.4782 67.6752 21.6808 66.5096 22.352L65.5772 22.888C64.4117 23.5592 62.9896 23.6245 61.7681 23.0512L54.2249 19.518C53.2459 19.0612 52.0429 19.3362 51.3669 20.2778C51.0219 20.7579 50.9102 21.3639 50.9801 21.9512L52.0011 30.1407C52.169 31.4784 51.6699 32.8115 50.6676 33.7111L49.8704 34.4289C48.868 35.3285 47.4928 35.6874 46.178 35.3798L38.066 33.492C37.0124 33.2449 35.8935 33.767 35.432 34.8297C35.1989 35.3704 35.2082 35.9904 35.404 36.545L38.1034 44.343C38.5463 45.6155 38.3365 47.0232 37.5439 48.1139L36.9098 48.9855C36.1173 50.0762 34.8445 50.7101 33.4971 50.6821L25.1707 50.5237C24.0891 50.505 23.1006 51.2461 22.8722 52.3834C22.7556 52.9614 22.8956 53.5627 23.2033 54.0708L27.4644 61.137C28.1591 62.2883 28.2476 63.7099 27.7022 64.9405L27.264 65.924C26.7138 67.1545 25.5995 68.0401 24.2802 68.2964L16.1029 69.8719C15.04 70.077 14.2288 71.0092 14.2381 72.1652C14.2427 72.7571 14.5085 73.3165 14.9094 73.7453L21.2685 80.5412C21.73 81.0352 22.131 81.5899 22.3828 82.2191C25.3199 89.565 0 85.2396 0 109.454C0 123.652 23.8885 146.137 34.9937 157.244C36.644 158.894 39.4228 157.561 39.0544 155.254L29.1568 102.789C28.8444 100.868 30.933 99.1063 32.5694 100.164C69.5445 124.108 156.455 124.108 193.431 100.164Z" fill="#F74C00"/>
<path d="M88.249 106.592C96.5038 106.592 103.196 98.9918 103.196 89.6163C103.196 80.2409 96.5038 72.6407 88.249 72.6407C79.9941 72.6407 73.3022 80.2409 73.3022 89.6163C73.3022 98.9918 79.9941 106.592 88.249 106.592Z" fill="#F34626"/>
<path d="M137.751 106.592C146.006 106.592 152.698 98.9918 152.698 89.6163C152.698 80.2409 146.006 72.6407 137.751 72.6407C129.496 72.6407 122.805 80.2409 122.805 89.6163C122.805 98.9918 129.496 106.592 137.751 106.592Z" fill="#F34626"/>
<path d="M137.751 104.22C146.006 104.22 152.698 96.6192 152.698 87.2438C152.698 77.8684 146.006 70.2681 137.751 70.2681C129.496 70.2681 122.805 77.8684 122.805 87.2438C122.805 96.6192 129.496 104.22 137.751 104.22Z" fill="#C92424"/>
<path d="M88.249 104.22C96.5038 104.22 103.196 96.6192 103.196 87.2438C103.196 77.8684 96.5038 70.2681 88.249 70.2681C79.9941 70.2681 73.3022 77.8684 73.3022 87.2438C73.3022 96.6192 79.9941 104.22 88.249 104.22Z" fill="#C92424"/>
<path d="M88.249 104.22C95.9271 104.22 102.151 97.1493 102.151 88.4278C102.151 79.7062 95.9271 72.636 88.249 72.636C80.5709 72.636 74.3465 79.7062 74.3465 88.4278C74.3465 97.1493 80.5709 104.22 88.249 104.22Z" fill="#292C38"/>
<path d="M86.2717 84.0277C88.5613 81.6505 89.1108 78.4655 87.4991 76.9139C85.8875 75.3623 82.7248 76.0317 80.4353 78.4088C78.1458 80.7859 77.5964 83.9707 79.208 85.5223C80.8197 87.0739 83.9822 86.4048 86.2717 84.0277Z" fill="white"/>
<path d="M137.751 104.22C145.429 104.22 151.654 97.1493 151.654 88.4278C151.654 79.7062 145.429 72.636 137.751 72.636C130.073 72.636 123.849 79.7062 123.849 88.4278C123.849 97.1493 130.073 104.22 137.751 104.22Z" fill="#292C38"/>
<path d="M135.497 84.0272C137.786 81.6501 138.335 78.4653 136.724 76.9137C135.112 75.3621 131.95 76.0313 129.66 78.4084C127.371 80.7855 126.821 83.9705 128.433 85.5221C130.044 87.0737 133.207 86.4044 135.497 84.0272Z" fill="white"/>
<path d="M169.102 116.44C168.133 110.119 165.421 104.496 161.542 99.9728L145.73 109.875C148.405 112.014 150.358 115.083 151.037 118.713C151.4 120.661 151.358 122.585 150.978 124.408C150.819 125.175 150.152 125.722 149.372 125.778C148.761 125.825 148.145 125.897 147.524 125.998C142.273 126.849 137.748 129.467 134.457 133.145L134.452 133.141C125.139 143.543 117.485 149.577 119.037 161.711C119.102 162.225 119.593 162.575 120.104 162.492L140.329 159.212C140.836 159.13 141.312 159.473 141.394 159.979L144.677 180.219C144.759 180.725 145.241 181.077 145.746 180.986C156.476 178.976 160.533 170.471 168.046 159.601L168.04 159.597C170.843 155.535 172.336 150.528 171.934 145.225C171.614 141.008 170.143 137.157 167.857 133.948C167.514 133.47 167.457 132.852 167.651 132.301C169.373 127.37 169.946 121.965 169.102 116.44Z" fill="#F74C00"/>
<path d="M91.9182 133.593C88.7861 129.778 84.3842 126.966 79.1755 125.887C78.5638 125.76 77.9511 125.661 77.3381 125.587C76.5625 125.492 75.9201 124.916 75.7938 124.148C75.4941 122.31 75.5369 120.381 75.9839 118.456C76.8203 114.859 78.9051 111.878 81.6716 109.857L66.3068 99.2747C62.2339 103.624 59.2792 109.123 58.0353 115.397C56.9469 120.874 57.287 126.304 58.7979 131.302C58.9667 131.865 58.883 132.476 58.5204 132.939C56.0956 136.044 54.4541 139.826 53.9545 144.026C53.321 149.307 54.5928 154.379 57.2167 158.555L57.2111 158.558C64.2411 169.75 67.9222 178.425 78.5559 180.896C79.0552 181.014 79.5531 180.679 79.6572 180.177L83.8212 160.1C83.9253 159.598 84.4159 159.276 84.9181 159.38L104.981 163.539C105.488 163.644 105.989 163.315 106.081 162.806C108.152 150.754 100.767 144.396 91.9182 133.593Z" fill="#F74C00"/>
<path d="M88.249 73.1068C95.6571 73.1068 101.685 79.9818 101.685 88.4324C101.685 96.883 95.6571 103.758 88.249 103.758C80.8409 103.758 74.8127 96.883 74.8127 88.4324C74.8127 79.9818 80.8409 73.1068 88.249 73.1068ZM88.249 72.6407C80.5705 72.6407 74.3465 79.7115 74.3465 88.4324C74.3465 97.1533 80.5705 104.224 88.249 104.224C95.9275 104.224 102.151 97.1533 102.151 88.4324C102.151 79.7115 95.9275 72.6407 88.249 72.6407Z" fill="#24282D"/>
<path d="M137.751 73.1068C145.159 73.1068 151.187 79.9818 151.187 88.4324C151.187 96.883 145.159 103.758 137.751 103.758C130.343 103.758 124.315 96.883 124.315 88.4324C124.315 79.9818 130.343 73.1068 137.751 73.1068ZM137.751 72.6407C130.073 72.6407 123.849 79.7115 123.849 88.4324C123.849 97.1533 130.073 104.224 137.751 104.224C145.43 104.224 151.654 97.1533 151.654 88.4324C151.654 79.7115 145.43 72.6407 137.751 72.6407Z" fill="#24282D"/>
</svg>
