<svg width="226" height="229" viewBox="0 0 226 229" fill="none" xmlns="http://www.w3.org/2000/svg">
<path d="M94.0847 212.739C95.0759 212.979 95.879 213.699 96.2348 214.654L100.561 226.38C100.891 227.269 101.694 227.892 102.634 227.989L102.975 228.024C103.915 228.116 104.825 227.667 105.323 226.86L111.865 216.222C112.399 215.354 113.334 214.807 114.351 214.767L117.609 214.644C118.626 214.608 119.597 215.078 120.196 215.905L127.506 226.023C128.06 226.789 129 227.172 129.931 227.008L130.266 226.947C131.196 226.783 131.954 226.099 132.213 225.19L135.654 213.173C135.934 212.188 136.686 211.411 137.657 211.1L140.758 210.099C141.729 209.787 142.786 209.981 143.589 210.615L153.348 218.377C154.091 218.965 155.097 219.082 155.951 218.668L156.261 218.52C157.115 218.112 157.659 217.249 157.664 216.299L157.751 203.792C157.756 202.77 158.274 201.815 159.123 201.254L161.842 199.451C162.691 198.889 163.764 198.787 164.704 199.18L176.187 204.011C177.056 204.379 178.063 204.216 178.769 203.587L179.028 203.358C179.74 202.729 180.03 201.754 179.781 200.84L176.507 188.777C176.238 187.791 176.477 186.734 177.148 185.963L179.282 183.491C179.948 182.72 180.955 182.332 181.966 182.455L194.318 183.992C195.254 184.109 196.179 183.68 196.692 182.884L196.88 182.592C197.394 181.796 197.414 180.774 196.931 179.962L190.537 169.233C190.013 168.354 189.962 167.272 190.394 166.347L191.782 163.385C192.214 162.461 193.083 161.812 194.09 161.659L206.396 159.79C207.331 159.647 208.104 158.983 208.383 158.079L208.485 157.752C208.77 156.848 208.51 155.857 207.829 155.204L198.791 146.603C198.054 145.899 197.709 144.872 197.882 143.866L198.425 140.638C198.593 139.627 199.254 138.774 200.184 138.35L211.535 133.218C212.394 132.83 212.963 131.982 212.989 131.032L212.999 130.69C213.029 129.74 212.516 128.862 211.682 128.417L200.672 122.585C199.772 122.11 199.168 121.211 199.061 120.195L198.715 116.942C198.608 115.926 199.01 114.92 199.793 114.266L209.344 106.248C210.071 105.64 210.386 104.67 210.157 103.745L210.076 103.408C209.847 102.489 209.12 101.774 208.195 101.575L196.026 98.9449C195.03 98.7304 194.207 98.0307 193.83 97.0808L192.626 94.037C192.249 93.0871 192.366 92.0095 192.946 91.1668L199.986 80.8558C200.52 80.0745 200.566 79.053 200.098 78.2257L199.93 77.9244C199.462 77.0971 198.573 76.6119 197.627 76.6681L185.204 77.4342C184.188 77.4954 183.207 77.046 182.592 76.234L180.614 73.6294C179.994 72.8174 179.821 71.7449 180.152 70.7797L184.162 58.9416C184.467 58.0428 184.233 57.0469 183.563 56.383L183.319 56.1379C182.648 55.4689 181.656 55.2442 180.767 55.5557L169.01 59.6618C168.049 59.9988 166.981 59.8303 166.168 59.2123L163.566 57.241C162.752 56.6231 162.3 55.6425 162.356 54.6211L163.042 42.1345C163.093 41.1846 162.605 40.2909 161.781 39.8313L161.481 39.6627C160.658 39.198 159.641 39.249 158.869 39.7904L148.652 46.93C147.818 47.5122 146.746 47.6398 145.795 47.267L142.76 46.0771C141.81 45.7043 141.108 44.8821 140.89 43.8811L138.196 31.6702C137.993 30.7458 137.281 30.0156 136.361 29.796L136.025 29.7143C135.105 29.4947 134.145 29.8164 133.54 30.5467L125.615 40.1938C124.965 40.9854 123.968 41.394 122.957 41.2919L119.714 40.965C118.702 40.8629 117.802 40.2602 117.325 39.3614L111.454 28.3354C111.006 27.4978 110.127 26.9922 109.181 27.028L108.841 27.0433C107.895 27.079 107.057 27.651 106.676 28.5192L101.638 39.9538C101.226 40.8884 100.377 41.5574 99.3761 41.7362L96.1687 42.303C95.1673 42.4818 94.1406 42.1447 93.434 41.4042L84.8182 32.3801C84.1625 31.6958 83.1814 31.4455 82.2817 31.7366L81.9563 31.8439C81.0566 32.135 80.401 32.9112 80.2637 33.8509L78.4846 46.2252C78.3372 47.2364 77.7018 48.1097 76.7818 48.554L73.8437 49.9687C72.9237 50.413 71.8461 50.3619 70.9718 49.8461L60.2515 43.4929C59.4382 43.0129 58.4216 43.0384 57.6338 43.5593L57.3491 43.7483C56.5612 44.2692 56.1392 45.1987 56.2612 46.1384L57.8676 58.5382C57.9997 59.5545 57.6185 60.5657 56.8509 61.2398L54.4009 63.4C53.6333 64.0742 52.5862 64.3244 51.6001 64.0589L39.5735 60.8465C38.6585 60.6014 37.6876 60.9027 37.0725 61.6177L36.8489 61.8782C36.2288 62.5932 36.0711 63.6044 36.4422 64.4777L41.322 75.9837C41.7236 76.9234 41.627 78.0061 41.073 78.859L39.2939 81.6014C38.7398 82.4594 37.7944 82.9803 36.7778 82.9956L24.3344 83.1591C23.3889 83.1693 22.5349 83.726 22.1333 84.584L21.9859 84.8955C21.5843 85.7535 21.7013 86.7698 22.2909 87.5103L30.0782 97.2646C30.7136 98.0613 30.9169 99.1287 30.6119 100.104L29.636 103.23C29.331 104.205 28.5634 104.966 27.5875 105.252L15.6473 108.786C14.7425 109.052 14.0665 109.818 13.9089 110.752L13.8529 111.094C13.6954 112.029 14.0817 112.974 14.8492 113.525L24.9647 120.808C25.7932 121.405 26.271 122.376 26.2405 123.397L26.1388 126.671C26.1083 127.692 25.5695 128.632 24.7054 129.178L14.158 135.817C13.3599 136.323 12.9126 137.237 13.0143 138.182L13.0498 138.524C13.1514 139.469 13.7767 140.271 14.6612 140.598L26.3574 144.867C27.313 145.214 28.0349 146.021 28.2788 147.017L29.0615 150.194C29.3055 151.184 29.0413 152.236 28.355 152.992L19.9832 162.246C19.3478 162.946 19.1649 163.952 19.5156 164.835L19.6427 165.157C19.9934 166.041 20.8117 166.643 21.7521 166.715L34.165 167.654C35.1816 167.731 36.0915 168.313 36.5947 169.202L38.2011 172.052C38.7043 172.94 38.7297 174.023 38.2722 174.937L32.6909 186.116C32.269 186.964 32.3605 187.98 32.9349 188.736L33.1433 189.012C33.7177 189.768 34.6683 190.125 35.5934 189.941L47.7979 187.485C48.7942 187.286 49.8311 187.597 50.5529 188.317L52.8657 190.626C53.5875 191.346 53.9028 192.383 53.7096 193.389L51.3408 205.666C51.1629 206.595 51.5239 207.55 52.2812 208.122L52.5557 208.332C53.308 208.904 54.3246 208.991 55.1633 208.562L66.2547 202.888C67.1595 202.423 68.2421 202.443 69.1266 202.944L71.9732 204.537C72.8627 205.038 73.4473 205.947 73.5286 206.968L74.5453 219.429C74.6215 220.374 75.2314 221.196 76.1108 221.539L76.4311 221.666C77.3104 222.013 78.3117 221.825 79.003 221.181L88.1577 212.709C88.9049 212.014 89.9521 211.743 90.9382 211.983L94.0847 212.739ZM86.8463 194.339C50.2378 179.967 32.1573 138.504 46.4611 101.723C60.765 64.9424 102.035 46.7768 138.643 61.1479C175.252 75.519 193.332 116.983 179.028 153.763C164.724 190.544 123.455 208.71 86.8463 194.339Z" fill="#292C38"/>
<path d="M31.4412 107.533C68.9339 127.804 157.066 127.804 194.554 107.533L172.437 77.8918L80.2255 69.5046L31.4412 107.533Z" fill="#C92424"/>
<path d="M180.834 139.161L181.915 93.342L181.001 88.5679L187.953 78.9081C193.375 80.5212 204.461 81.104 206.498 95.384C208.153 106.979 192.153 129.944 184.377 140.313C183.225 141.851 180.796 141.087 180.834 139.161Z" fill="#C92424"/>
<path d="M45.1711 139.161L44.0894 93.342L45.0031 88.5679L38.052 78.9081C32.63 80.5212 21.5435 81.104 19.5061 95.384C17.8511 106.979 33.8515 129.944 41.6279 140.313C42.7794 141.851 45.2038 141.087 45.1711 139.161Z" fill="#C92424"/>
<path d="M193.431 100.186C195.062 99.1276 197.151 100.89 196.843 102.811L186.946 155.287C186.573 157.59 189.351 158.928 191.006 157.278C202.116 146.168 226 123.678 226 109.478C226 85.2626 200.68 89.589 203.617 82.2368C203.869 81.6075 204.27 81.0527 204.732 80.5585L211.091 73.7612C211.492 73.3323 211.757 72.7728 211.762 72.1807C211.771 71.0198 210.96 70.0874 209.897 69.8869L201.72 68.3111C200.396 68.0547 199.281 67.1689 198.736 65.9381L198.298 64.9544C197.748 63.7237 197.836 62.3017 198.536 61.1502L202.797 54.0824C203.1 53.5789 203.244 52.9728 203.128 52.3947C202.895 51.2572 201.911 50.5159 200.829 50.5345L192.503 50.693C191.156 50.721 189.883 50.0823 189.09 48.9961L188.456 48.1242C187.664 47.0333 187.454 45.6253 187.897 44.3526L190.596 36.5529C190.787 35.9934 190.801 35.378 190.568 34.8372C190.106 33.7743 188.988 33.2521 187.934 33.4992L179.822 35.3874C178.512 35.6904 177.132 35.3361 176.13 34.4363L175.332 33.7184C174.33 32.8186 173.836 31.4805 173.999 30.1472L175.02 21.9559C175.095 21.3685 174.978 20.7623 174.633 20.2821C173.962 19.3404 172.759 19.0607 171.775 19.5222L164.232 23.0561C163.01 23.6296 161.589 23.5643 160.423 22.8929L159.491 22.3568C158.325 21.6808 157.56 20.4826 157.444 19.1399L156.74 10.916C156.688 10.3286 156.451 9.75514 156.017 9.35887C155.164 8.57563 153.929 8.55228 153.066 9.20498L146.423 14.2261C145.346 15.0373 143.942 15.275 142.66 14.8601L141.639 14.5291C140.357 14.1142 139.36 13.0979 138.968 11.8065L136.567 3.90884C136.394 3.34472 136.045 2.83658 135.537 2.53821C134.539 1.95078 133.327 2.18389 132.618 3.00442L127.163 9.29826C126.282 10.3146 124.958 10.8414 123.616 10.6969L122.548 10.585C121.21 10.4451 120.021 9.65723 119.369 8.47772L115.378 1.24679C115.098 0.738625 114.655 0.319024 114.1 0.127878C113.788 0.0206497 113.471 -0.0166516 113.163 0.00665888C113.112 0.00199677 113.056 0.00199222 113 0.00199222C112.944 0.00199222 112.893 0.00199677 112.837 0.00665888C112.534 -0.0166516 112.212 0.0206497 111.9 0.127878C111.35 0.314362 110.907 0.733963 110.622 1.24679L106.631 8.47772C105.979 9.65723 104.795 10.4451 103.452 10.585L102.384 10.6969C101.046 10.8367 99.7224 10.3146 98.8366 9.29826L93.3818 3.00442C92.6732 2.18855 91.4612 1.95078 90.4635 2.53821C89.9553 2.83658 89.601 3.34472 89.4332 3.90884L87.032 11.8065C86.6404 13.0979 85.6427 14.1142 84.3606 14.5291L83.3396 14.8601C82.0576 15.275 80.6544 15.0419 79.5774 14.2261L72.9339 9.20498C72.0714 8.55228 70.8359 8.57563 69.9828 9.35887C69.5492 9.75514 69.3069 10.3286 69.2602 10.916L68.5561 19.1399C68.4396 20.4826 67.6752 21.6855 66.5096 22.3568L65.5772 22.8929C64.4117 23.5643 62.9896 23.6296 61.7681 23.0561L54.2249 19.5222C53.2459 19.0653 52.0429 19.3404 51.3669 20.2821C51.0219 20.7623 50.9102 21.3685 50.9801 21.9559L52.0011 30.1472C52.169 31.4852 51.6699 32.8186 50.6676 33.7184L49.8704 34.4363C48.868 35.3361 47.4928 35.6951 46.178 35.3874L38.066 33.4992C37.0124 33.2521 35.8935 33.7743 35.432 34.8372C35.1989 35.378 35.2082 35.9981 35.404 36.5529L38.1034 44.3526C38.5463 45.6253 38.3365 47.0333 37.5439 48.1242L36.9098 48.9961C36.1173 50.087 34.8445 50.721 33.4971 50.693L25.1707 50.5345C24.0891 50.5159 23.1006 51.2572 22.8722 52.3947C22.7556 52.9728 22.8956 53.5742 23.2033 54.0824L27.4644 61.1502C28.1591 62.3017 28.2476 63.7237 27.7022 64.9544L27.264 65.9381C26.7138 67.1689 25.5995 68.0547 24.2802 68.3111L16.1029 69.8869C15.04 70.0921 14.2288 71.0245 14.2381 72.1807C14.2427 72.7728 14.5085 73.3323 14.9094 73.7612L21.2685 80.5585C21.73 81.0527 22.131 81.6075 22.3828 82.2368C25.3199 89.5843 0 85.2579 0 109.478C0 123.678 23.8885 146.168 34.9937 157.278C36.644 158.928 39.4228 157.595 39.0544 155.287L29.1568 102.811C28.8444 100.89 30.933 99.1276 32.5694 100.186C69.5445 124.135 156.455 124.135 193.431 100.186Z" fill="#F74C00"/>
<path d="M88.249 106.615C96.5038 106.615 103.196 99.013 103.196 89.6356C103.196 80.2581 96.5038 72.6562 88.249 72.6562C79.9941 72.6562 73.3022 80.2581 73.3022 89.6356C73.3022 99.013 79.9941 106.615 88.249 106.615Z" fill="#F34626"/>
<path d="M137.751 106.615C146.006 106.615 152.698 99.013 152.698 89.6356C152.698 80.2581 146.006 72.6562 137.751 72.6562C129.496 72.6562 122.805 80.2581 122.805 89.6356C122.805 99.013 129.496 106.615 137.751 106.615Z" fill="#F34626"/>
<path d="M137.751 104.242C146.006 104.242 152.698 96.6401 152.698 87.2626C152.698 77.8852 146.006 70.2832 137.751 70.2832C129.496 70.2832 122.805 77.8852 122.805 87.2626C122.805 96.6401 129.496 104.242 137.751 104.242Z" fill="#C92424"/>
<path d="M88.249 104.242C96.5038 104.242 103.196 96.6401 103.196 87.2626C103.196 77.8852 96.5038 70.2832 88.249 70.2832C79.9941 70.2832 73.3022 77.8852 73.3022 87.2626C73.3022 96.6401 79.9941 104.242 88.249 104.242Z" fill="#C92424"/>
<path d="M88.249 104.242C95.9271 104.242 102.151 97.1702 102.151 88.4468C102.151 79.7233 95.9271 72.6516 88.249 72.6516C80.5709 72.6516 74.3464 79.7233 74.3464 88.4468C74.3464 97.1702 80.5709 104.242 88.249 104.242Z" fill="#292C38"/>
<path d="M86.2717 84.0457C88.5613 81.6681 89.1108 78.4824 87.4991 76.9305C85.8875 75.3786 82.7248 76.048 80.4353 78.4257C78.1458 80.8033 77.5964 83.9888 79.208 85.5407C80.8197 87.0926 83.9822 86.4234 86.2717 84.0457Z" fill="white"/>
<path d="M137.751 104.242C145.429 104.242 151.654 97.1702 151.654 88.4468C151.654 79.7233 145.429 72.6516 137.751 72.6516C130.073 72.6516 123.849 79.7233 123.849 88.4468C123.849 97.1702 130.073 104.242 137.751 104.242Z" fill="#292C38"/>
<path d="M135.497 84.0453C137.786 81.6677 138.335 78.4822 136.724 76.9302C135.112 75.3783 131.95 76.0476 129.66 78.4253C127.371 80.8029 126.821 83.9885 128.433 85.5405C130.044 87.0924 133.207 86.423 135.497 84.0453Z" fill="white"/>
<path d="M169.102 116.465C168.133 110.143 165.421 104.518 161.542 99.9943L145.73 109.898C148.405 112.038 150.358 115.108 151.037 118.739C151.4 120.687 151.358 122.611 150.978 124.435C150.819 125.202 150.152 125.75 149.372 125.805C148.761 125.852 148.145 125.924 147.524 126.025C142.273 126.876 137.748 129.495 134.457 133.174L134.452 133.17C125.139 143.574 117.485 149.609 119.037 161.746C119.102 162.26 119.593 162.61 120.104 162.527L140.329 159.247C140.836 159.164 141.312 159.508 141.394 160.014L144.677 180.258C144.759 180.764 145.241 181.116 145.746 181.024C156.476 179.015 160.533 170.507 168.046 159.635L168.04 159.631C170.843 155.568 172.336 150.561 171.934 145.256C171.614 141.038 170.143 137.186 167.857 133.977C167.514 133.499 167.457 132.88 167.651 132.329C169.373 127.398 169.946 121.991 169.102 116.465Z" fill="#F74C00"/>
<path d="M91.9183 133.622C88.7862 129.806 84.3842 126.994 79.1756 125.914C78.5638 125.787 77.9511 125.688 77.3381 125.614C76.5625 125.519 75.9201 124.943 75.7939 124.174C75.4942 122.336 75.537 120.407 75.984 118.481C76.8204 114.884 78.9052 111.902 81.6716 109.881L66.3069 99.2961C62.2339 103.646 59.2792 109.147 58.0353 115.421C56.947 120.9 57.2871 126.331 58.7979 131.33C58.9668 131.893 58.8831 132.504 58.5205 132.967C56.0957 136.074 54.4541 139.857 53.9545 144.057C53.3211 149.339 54.5929 154.412 57.2168 158.589L57.2112 158.592C64.2411 169.787 67.9223 178.463 78.5559 180.935C79.0552 181.053 79.5532 180.718 79.6573 180.216L83.8212 160.134C83.9253 159.632 84.416 159.31 84.9181 159.414L104.981 163.574C105.488 163.68 105.99 163.35 106.081 162.841C108.152 150.786 100.767 144.427 91.9183 133.622Z" fill="#F74C00"/>
<path d="M88.249 73.1225C95.6571 73.1225 101.685 79.999 101.685 88.4514C101.685 96.9038 95.6571 103.78 88.249 103.78C80.8409 103.78 74.8126 96.9038 74.8126 88.4514C74.8126 79.999 80.8409 73.1225 88.249 73.1225ZM88.249 72.6562C80.5705 72.6562 74.3464 79.7286 74.3464 88.4514C74.3464 97.1742 80.5705 104.247 88.249 104.247C95.9275 104.247 102.151 97.1742 102.151 88.4514C102.151 79.7286 95.9275 72.6562 88.249 72.6562Z" fill="#24282D"/>
<path d="M137.751 73.1225C145.159 73.1225 151.187 79.999 151.187 88.4514C151.187 96.9038 145.159 103.78 137.751 103.78C130.343 103.78 124.315 96.9038 124.315 88.4514C124.315 79.999 130.343 73.1225 137.751 73.1225ZM137.751 72.6562C130.073 72.6562 123.849 79.7286 123.849 88.4514C123.849 97.1742 130.073 104.247 137.751 104.247C145.43 104.247 151.654 97.1742 151.654 88.4514C151.654 79.7286 145.43 72.6562 137.751 72.6562Z" fill="#24282D"/>
</svg>
