<?xml version="1.0" standalone="no"?>
<!DOCTYPE svg PUBLIC "-//W3C//DTD SVG 20010904//EN"
 "http://www.w3.org/TR/2001/REC-SVG-20010904/DTD/svg10.dtd">
<svg version="1.0" xmlns="http://www.w3.org/2000/svg"
 width="904.000000pt" height="904.000000pt" viewBox="0 0 904.000000 904.000000"
 preserveAspectRatio="xMidYMid meet">
<metadata>
Created by potrace 1.14, written by Peter Selinger 2001-2017
</metadata>
<g transform="translate(0.000000,904.000000) scale(0.100000,-0.100000)"
fill="#000000" stroke="none">
<path d="M4457 8120 c-14 -11 -65 -91 -113 -178 -47 -86 -93 -165 -103 -176
-31 -35 -74 -50 -148 -50 -90 -1 -93 1 -250 180 -123 140 -151 162 -194 151
-50 -13 -60 -31 -118 -220 -32 -102 -66 -198 -75 -212 -32 -49 -152 -88 -219
-71 -14 3 -99 60 -188 127 -150 111 -166 120 -197 115 -44 -7 -70 -31 -77 -70
-3 -17 -12 -107 -20 -201 -11 -120 -21 -180 -33 -205 -22 -42 -100 -96 -153
-105 -49 -8 -75 0 -267 91 -86 41 -164 74 -172 74 -27 0 -79 -39 -86 -64 -3
-14 4 -108 17 -209 13 -108 19 -199 15 -221 -13 -69 -115 -156 -184 -156 -16
0 -106 18 -201 40 -94 22 -183 40 -197 40 -31 0 -84 -50 -84 -78 0 -11 27 -99
60 -195 79 -230 78 -269 -8 -360 -53 -54 -86 -60 -297 -52 -176 7 -181 7 -208
-15 -63 -50 -57 -79 55 -260 122 -197 131 -232 81 -331 -41 -79 -66 -92 -260
-128 -93 -18 -183 -37 -201 -43 -40 -12 -68 -62 -58 -102 4 -15 72 -97 153
-183 86 -93 154 -174 165 -200 38 -85 -11 -135 -210 -214 -272 -108 -420 -203
-519 -334 -93 -123 -148 -283 -159 -471 -11 -159 20 -282 116 -474 168 -334
466 -695 1069 -1295 236 -235 241 -240 282 -240 33 0 46 6 65 28 13 16 24 41
24 56 0 21 -155 864 -184 1006 -5 24 -8 28 139 -180 161 -226 169 -235 214
-235 37 0 62 17 73 50 3 8 0 249 -7 535 -7 286 -12 521 -10 523 1 1 76 -20
166 -47 90 -27 207 -60 260 -73 l96 -23 -5 -146 c-5 -156 5 -257 39 -385 19
-73 19 -77 2 -104 -116 -181 -164 -299 -183 -455 -19 -150 9 -330 73 -468 40
-85 284 -487 365 -601 131 -183 275 -305 429 -364 111 -42 128 -45 145 -24 8
9 49 185 93 397 90 438 91 441 109 448 7 3 195 -33 417 -79 222 -46 413 -83
423 -82 28 4 37 46 38 178 1 78 -5 137 -17 185 -23 95 -91 236 -164 342 -65
94 -369 463 -454 551 -109 112 -253 194 -407 232 -47 12 -102 26 -122 31 -49
13 -59 34 -61 127 l-2 77 40 -3 c22 -1 119 -11 215 -22 825 -93 1707 -91 2524
5 115 14 217 25 227 25 17 0 19 -8 19 -62 0 -83 -16 -137 -43 -148 -12 -5 -64
-16 -115 -25 -224 -37 -365 -124 -585 -360 -309 -333 -402 -451 -472 -600 -24
-49 -51 -124 -60 -165 -22 -97 -23 -296 -2 -317 12 -13 70 -6 431 53 310 51
422 65 434 57 13 -8 31 -97 84 -423 47 -291 71 -417 82 -428 14 -15 23 -14 93
7 105 30 173 62 250 117 135 96 220 198 448 534 238 352 278 451 278 695 0
112 -4 156 -21 218 -21 76 -75 198 -128 287 l-28 46 28 94 c38 134 58 292 54
439 l-3 123 125 34 c69 19 176 50 239 70 62 19 114 34 116 32 1 -2 -3 -237
-10 -523 -7 -286 -10 -527 -7 -535 11 -33 36 -50 73 -50 45 0 53 9 214 235
147 208 144 204 139 180 -29 -139 -184 -985 -184 -1005 0 -58 66 -103 121 -81
24 9 550 533 694 691 441 484 682 860 735 1144 24 131 -5 357 -63 488 -97 220
-257 348 -609 487 -130 52 -192 90 -213 132 -29 55 -4 97 165 279 82 88 152
171 156 185 9 38 -14 85 -50 100 -17 7 -109 27 -204 45 -199 37 -224 50 -264
129 -51 99 -42 132 79 329 113 183 119 212 56 262 -27 22 -32 22 -208 15 -211
-8 -244 -2 -297 52 -86 91 -87 130 -8 360 33 96 60 184 60 195 0 28 -53 78
-84 78 -14 0 -103 -18 -197 -40 -95 -22 -185 -40 -201 -40 -69 0 -171 87 -184
156 -4 22 2 113 15 221 13 101 20 195 17 209 -7 25 -59 64 -86 64 -8 0 -85
-33 -171 -74 -190 -90 -219 -99 -268 -91 -53 9 -131 63 -153 105 -12 25 -22
85 -33 205 -8 94 -17 184 -20 201 -7 39 -33 63 -77 70 -31 5 -47 -4 -197 -115
-89 -67 -174 -124 -188 -127 -67 -17 -187 22 -219 71 -9 14 -43 110 -75 212
-58 188 -69 207 -116 220 -46 11 -70 -8 -194 -151 -147 -172 -177 -192 -270
-182 -64 6 -104 23 -130 52 -10 11 -56 90 -103 176 -48 87 -99 167 -113 178
-15 12 -41 20 -63 20 -22 0 -48 -8 -63 -20z m-976 -3046 c56 -28 68 -127 26
-210 -81 -160 -274 -228 -354 -124 -36 46 -23 138 30 216 79 116 204 166 298
118z m1962 4 c37 -14 57 -56 57 -115 -1 -206 -307 -370 -385 -207 -42 88 27
233 142 301 74 43 118 48 186 21z"/>
</g>
</svg>
