<svg width="75" height="53" viewBox="0 0 75 53" fill="none" xmlns="http://www.w3.org/2000/svg">
<path d="M4.80859 41.1914C5.6582 41.1914 6.53711 40.8984 7.44531 40.3125C9.58398 38.9062 20.9512 24.3164 20.9512 22.998C20.9512 22.8223 20.8047 22.7637 20.5703 22.7637C20.2773 22.7637 17.9922 25.459 15.4141 28.6816C9.14453 36.7383 6.24414 39.9316 4.42773 39.9316C2.81641 39.9316 1.58594 37.3242 1.58594 32.666C1.58594 29.9707 1.99609 26.8652 2.78711 24.1699C4.10547 19.7168 6.39062 15.0879 8.99805 11.6309C12.3086 7.17773 16.9082 3.16406 18.7246 3.16406C19.1934 3.16406 19.3984 3.25195 19.3984 3.80859C19.3984 4.10156 19.3398 4.48242 19.252 5.06836C19.0762 6.12305 17.9043 9.81445 16.6152 13.3301C15.2383 17.168 14.5645 19.3066 14.5645 20.0391C14.5645 20.2148 14.623 20.3027 14.7109 20.3027C14.7988 20.3027 14.9453 20.2148 15.1211 20.0391C16.293 18.8379 20.6289 6.5625 20.6289 4.39453C20.6289 2.57812 20.043 1.96289 18.4316 1.96289C14.5938 1.96289 6.30273 11.1328 2.99219 19.0723C1.08789 23.6426 0.0917969 28.5352 0.0917969 32.5488C0.0917969 38.0566 1.9375 41.1914 4.80859 41.1914Z" fill="black"/>
<path d="M19.1348 44.1211C19.7793 44.1211 20.1309 43.9746 20.2773 43.5938C20.2773 43.4473 20.0723 43.3301 19.7793 43.3301C19.3691 43.3301 19.2227 43.1543 19.2227 42.0117C19.2227 41.3965 19.2812 40.5176 19.3398 39.2285C19.6914 32.7246 22.123 27.041 26.3125 22.6758C27.1621 21.8262 27.6602 21.3867 28.0117 21.3867C28.334 21.3867 28.4805 21.7383 28.627 22.4121C29.2422 25.3711 30.209 27.1289 31.7324 27.832C32.4062 28.1836 32.7871 28.3594 33.168 28.3594C34.3105 28.3594 37.416 26.1328 37.416 25.2246C37.416 25.0781 37.3574 25.0195 37.1816 24.9902C36.8594 24.9902 36.0098 25.459 35.1602 26.1035C34.2227 26.7773 33.168 27.334 32.7871 27.334C31.8203 27.334 30.9414 25.9277 30.1211 23.2031C29.7695 21.8262 29.2129 20.7422 28.7734 20.4785C28.5684 20.3613 28.3633 20.332 28.1289 20.332C27.0449 20.332 25.5801 21.416 23.793 23.584L21.8887 25.9277L22.1523 24.375C22.5918 22.1777 25.375 13.5352 27.8945 6.76758C29.125 3.36914 29.7402 1.34766 29.7402 0.644531C29.7402 0.498047 29.7109 0.439453 29.6816 0.380859C29.5352 0.234375 29.3887 0.146484 29.2129 0.146484C28.8027 0.146484 28.3926 0.703125 28.0703 1.78711C27.8359 2.49023 26.6641 5.80078 25.4336 9.11133C21.5957 19.4238 19.4277 27.4805 18.1973 35.7129C17.9043 37.7344 17.7578 39.4922 17.7578 40.8691C17.7578 42.2754 17.9043 43.3008 18.2266 43.8281C18.373 44.0332 18.7539 44.1211 19.1348 44.1211Z" fill="black"/>
<path d="M36.3613 34.0137C36.7715 34.0137 37.2109 33.4863 37.4746 32.6074C38.3828 29.5312 43.1875 21.123 44.0957 21.123C44.2715 21.123 44.4766 21.6797 44.5352 22.3242C44.6523 23.7598 46.1758 25.4297 47.4062 25.459C48.6074 25.459 50.9512 24.6387 50.9805 24.1406C50.9805 23.8184 50.4824 23.8184 49.7793 23.7891C49.1641 23.7891 48.4316 23.877 47.7578 24.0527C47.582 24.1113 47.4355 24.1113 47.2891 24.1113C46.5566 24.0234 46.0879 23.1738 45.8242 21.416C45.5605 19.4824 45.2383 19.248 44.3887 19.2188C43.5684 19.2188 42.748 20.1562 40.6387 23.1738C39.7598 24.4336 39.2324 25.166 39.0566 25.166C38.998 25.166 38.998 25.1074 38.998 24.9902C39.0566 24.4629 39.6133 22.8516 40.6387 19.8633C41.3711 17.6074 41.9277 16.4941 42.3379 16.4941H42.3965C42.8652 16.4941 43.041 15.791 43.0703 14.9414C43.0703 14.3262 42.9531 13.7109 42.6016 13.5352C42.3379 13.418 42.2207 13.3594 42.0449 13.3594C40.3164 13.3594 35.9512 27.1582 35.6289 32.6074C35.6289 33.7793 35.9805 33.9844 36.3613 34.0137Z" fill="black"/>
<path d="M56.4883 13.8867C56.8691 13.8867 57.543 13.2129 58.0996 12.0996C58.5391 11.25 58.7441 10.6055 58.7441 10.166C58.7441 8.23242 56.8691 8.99414 56.1953 10.2539C55.6094 11.3672 55.4922 13.8867 56.4883 13.8867ZM50.0137 27.627C50.0137 29.1797 50.4531 30.293 51.332 30.7031L52.3281 31.1426C52.4746 31.1426 53.207 30.791 54.0566 30.3809C55.375 29.6777 60.0332 24.6094 60.0332 23.8184C60.0332 23.6426 59.9746 23.5254 59.8281 23.5254C59.418 23.5254 58.2754 24.5215 56.3125 26.543C54.4082 28.5352 53.002 29.5312 52.1816 29.5312C51.5957 29.5312 51.3027 29.0332 51.3027 28.0664C51.3027 27.5098 51.3906 26.8066 51.5957 25.9277C52.123 23.5547 54.3203 18.1934 54.8477 18.0176C55.1113 17.9297 55.2578 17.6953 55.2578 17.4316C55.2578 16.9629 54.9941 16.6406 54.4375 16.5527C53.7344 16.5527 52.9434 17.8125 51.5371 21.2695C50.541 23.7305 50.0137 25.9277 50.0137 27.627Z" fill="black"/>
<path d="M54.1152 52.1777C56.0488 52.1777 58.334 50.7422 60.9414 47.8711C63.9004 44.5605 65.5703 40.9863 65.5703 37.8223C65.5703 35.7129 65.3359 34.9512 63.9297 32.168L62.2598 28.9453L64.1641 27.3633C67.0059 24.9023 70.9902 22.4707 72.8652 21.9434C73.9785 21.6504 74.5645 21.3574 74.5645 21.0645C74.5645 20.8301 74.3008 20.6543 73.7441 20.5664C72.3379 20.5664 68.6465 22.3828 65.3359 24.7266C63.4902 26.0742 61.8496 27.0996 61.5273 27.0996C61.2637 26.9824 61.2051 26.0449 61.2051 24.3457C61.2344 21.4746 62.2598 18.9258 64.1055 16.9336C64.8965 16.084 65.3066 15.791 65.8926 15.791C66.3027 15.791 66.8887 15.9668 67.2695 15.9668C67.5918 15.9668 67.7676 15.8789 67.7676 15.6738C67.7676 15.3223 67.123 14.502 66.2148 14.502C64.4277 14.502 61.8203 16.9629 60.6191 20.1855C60.0625 21.6797 59.7988 22.9102 59.7988 24.1406C59.7988 25.0488 59.9453 25.957 60.2383 26.9238C60.3848 27.4219 60.502 27.7734 60.502 28.0664C60.502 28.7109 60.0332 29.1504 58.6562 30.5859C53.0312 36.2988 49.8379 42.4512 49.8379 46.8164C49.8379 50.0391 51.8008 52.1777 54.1152 52.1777ZM51.127 46.8457C51.127 45 51.8301 42.7148 53.2363 40.0488C54.7598 37.1191 60.3262 30.1172 61.1172 30.1172C61.3809 30.1172 62.2012 31.2598 62.9043 32.666C63.8125 34.4238 64.2812 35.9473 64.2812 37.5C64.2812 41.4844 60.209 47.9004 57.1035 49.9219C55.9609 50.6543 54.9648 51.0352 54.1152 51.0352C52.4746 51.0352 51.127 49.4238 51.127 46.8457Z" fill="black"/>
</svg>
