<svg xmlns="http://www.w3.org/2000/svg" width="323" height="286" fill="none" viewBox="0 0 323 286">
  <path fill="#511500" d="M259.45 268.51c-2.8 0-5.41-.07-7.84-.21-10.75-.59-15.42-13.81-7.58-21.19 14.07-13.23 23.66-30.19 26.79-49.67 0 0-24.14 63.73-109.63 63.73S51.56 197.44 51.56 197.44c3.13 19.48 12.72 36.44 26.79 49.67 7.84 7.37 3.17 20.59-7.58 21.19-2.43.13-5.04.21-7.84.21-28.06 0-37.02-7.45-37.02-7.45 0 16.09 16.57 24.01 37.02 24.01 20.45 0 35.92-7.41 36.96-22.45 17.55 9.56 38.63 14.92 61.3 14.92 22.67 0 43.75-5.36 61.3-14.92 1.04 15.04 17.19 22.45 36.96 22.45s37.02-7.92 37.02-24.01c0 0-8.96 7.45-37.02 7.45Z" opacity=".2"/>
  <path fill="#F70" d="M315.52 3.51c-50.83 16.47-83.61 46.69-94.48 57.87l-2.92-.67c-6.23-8.63-30.64-40.46-50.49-38.86-16.26 1.31-5.16 29.78-5.16 29.78S135.63 32.42 122.58 36c-13.04 3.57-5.02 23.95-5 24a120.9 120.9 0 0 0-12.26 5.7S69.97 23.96 6.85 3.51c0 0-14.11 58.72 19.16 110.71 4.83 7.55 12.63 13.59 22.44 18.41l.02-.02c-3.23 10.01-4.98 20.48-4.98 31.12 0 58.6 52.7 100.1 117.71 100.1 65.01 0 117.71-41.5 117.71-100.1 0-10.64-1.75-21.11-4.98-31.12l.02.02c9.81-4.82 17.61-10.86 22.44-18.41C329.65 62.23 315.55 3.51 315.55 3.51h-.03ZM104.6 66.55l.73-.86.17.6-.9.26Z"/>
  <path fill="#fff" d="m104.6 66.55.9-.25-.17-.6-.73.85Z"/>
  <path fill="#fff" d="m104.6 66.55.73-.86.17.6-.9.26Zm56.58 197.27c59.32 0 108.39-34.56 116.51-85.13-21.16-10.44-47.99-17.13-64.14-20.52-8.41-1.77-14.95-8.41-16.53-16.85-11.88-63.53-35.85-59.11-35.85-59.11s-23.97-4.42-35.85 59.11c-1.58 8.44-8.12 15.09-16.53 16.85-16.15 3.4-42.98 10.08-64.14 20.52 8.13 50.57 57.19 85.13 116.51 85.13h.02Z"/>
  <path fill="#FF4173" d="M161.18 234.78c25.66 0 21.58-33.42 21.58-33.42l-21.58-7.53-21.58 7.53s-4.08 33.42 21.58 33.42"/>
  <path fill="#fff" d="M55.09 116.57s-6.26-11.35-3.9-17.42c2.46-6.32 16.55-2.16 16.55-2.16s-6.61-12.56-2.22-19.29c3.5-5.36 22.66-.53 22.66-.53S64.34 44.3 20.36 29.84c0 0-1.02 68.03 34.74 86.71l-.01.02Zm212.19 0s6.26-11.35 3.9-17.42c-2.46-6.32-16.55-2.16-16.55-2.16s6.61-12.56 2.22-19.29c-3.5-5.36-22.66-.53-22.66-.53s23.84-32.87 67.82-47.33c0 0 1.02 68.03-34.74 86.71l.01.02Z"/>
  <path fill="#511500" d="M114.32 160.42c9.648 0 17.47-9.899 17.47-22.11s-7.822-22.11-17.47-22.11c-9.649 0-17.47 9.899-17.47 22.11s7.821 22.11 17.47 22.11Z"/>
  <path fill="#7A2106" d="M114.32 123.84c-5.03 0-9.3 4.11-10.83 9.82 0 .01 0 .03-.01.04-.78 2.99 2.4 5.48 5.15 4.06l11.13-5.73c2.28-1.17 2.68-4.34.69-5.95-1.77-1.42-3.87-2.25-6.12-2.25l-.01.01Z"/>
  <path fill="#511500" d="M208.05 160.42c9.648 0 17.47-9.899 17.47-22.11s-7.822-22.11-17.47-22.11c-9.649 0-17.47 9.899-17.47 22.11s7.821 22.11 17.47 22.11Z"/>
  <path fill="#7A2106" d="M208.05 123.84c-5.03 0-9.3 4.11-10.83 9.82 0 .01 0 .03-.01.04-.78 2.99 2.4 5.48 5.15 4.06l11.13-5.73c2.28-1.17 2.68-4.34.69-5.95-1.77-1.42-3.87-2.25-6.12-2.25l-.01.01Z"/>
  <path fill="#DCDFE2" d="M44.67 178.69c8.13 50.57 57.19 85.13 116.51 85.13 59.32 0 108.39-34.56 116.51-85.13 0 0-25.65 67.73-116.51 67.73-90.86 0-116.51-67.73-116.51-67.73Z"/>
  <path fill="#FFAA2A" d="M172.27 35.55c13.14-3.04 45.86 25.16 45.86 25.16-6.23-8.63-30.64-40.46-50.49-38.86-16.26 1.31-5.16 29.78-5.16 29.78s-3.35-13.04 9.79-16.08Z"/>
  <path fill="#FFAA2A" d="M162.48 51.63S135.64 32.42 122.59 36c-13.04 3.57-5.02 23.95-5 24 0 0-.21-10 9.89-13.79 10.11-3.79 35 5.42 35 5.42Z"/>
  <path fill="#511500" d="M20.97 27.95C48.14 36.53 72.89 53.08 91 75.13c1.97 2.45-.38 6.18-3.41 5.51-3.4-.79-7.03-1.47-10.5-1.78-2.81-.17-6.03-.5-8.5.67-2.76 3.81.28 11.82 2.24 15.85.89 1.73.2 3.85-1.53 4.73-.82.42-1.74.49-2.56.25-2.51-.69-5.44-1.2-7.94-1.2-1.61.04-3.04.12-4.07.89-.68.83-.58 1.95-.51 3.4.44 3.91 2.16 8.02 3.98 11.51 2.06 4.12-3.85 7.33-6.17 3.31-.82-1.54-1.46-2.93-2.1-4.44-5.9-13.7-2.82-24.02 13.93-21.24 1.65.27 3.16.58 4.87 1.06l-4.09 4.99c-.51-1-.88-1.84-1.27-2.76-4.07-9.4-5.61-23.79 8.37-24.12 5.95-.27 11.55.74 17.29 2.05l-3.69 5.45C77.19 68.4 67.01 58.99 56.07 50.95c-5.55-4.04-11.39-7.68-17.45-10.91-6.08-3.2-12.4-5.97-18.9-8.26-2.4-.87-1.27-4.54 1.27-3.81l-.02-.02Z"/>
  <path fill="#511500" d="M48.44 136.12c-.52 0-1.04-.12-1.54-.36-10.9-5.35-18.92-11.97-23.84-19.66C-10.62 63.46 2.85 5.15 3.44 2.69c.23-.95.84-1.76 1.69-2.24A3.49 3.49 0 0 1 7.92.17c63.38 20.53 98.6 61.52 100.07 63.26a3.492 3.492 0 0 1-.41 4.93 3.491 3.491 0 0 1-4.93-.41c-.34-.4-34.07-39.57-93.13-59.87-2.32 13.6-7.87 61.57 19.43 104.24 4.22 6.6 11.3 12.37 21.03 17.15 1.74.85 2.45 2.95 1.6 4.68a3.499 3.499 0 0 1-3.14 1.96v.01Z"/>
  <path fill="#511500" d="M161.18 267.32c-32.7 0-63.05-10.26-85.47-28.88-23.05-19.15-35.74-45.68-35.74-74.71 0-10.8 1.73-21.62 5.13-32.18a3.508 3.508 0 0 1 4.41-2.26c1.84.59 2.85 2.57 2.26 4.41-3.18 9.86-4.79 19.96-4.79 30.03 0 55.07 49.1 96.6 114.21 96.6 1.93 0 3.5 1.57 3.5 3.5s-1.57 3.5-3.5 3.5l-.01-.01ZM302.65 31.77c-12.98 4.56-25.24 11.07-36.34 19.17-9.68 7.05-18.57 15.2-26.23 24.39-1.06 1.29-2.16 2.67-3.05 3.91 0 0-3.7-5.45-3.68-5.45 6.98-1.45 21.69-4.91 26.47 2.06 4.24 7.23 1.15 15.87-2.09 22.78l-4.09-4.99c6.73-1.69 17.51-3.68 20.88 4.46 2.12 6.95-1.2 14.08-4.18 20.16-2.28 4-8.25.83-6.17-3.31.62-1.16 1.26-2.52 1.81-3.83 1.25-3.19 2.85-7.36 1.96-10.63-.1-.25-.14-.3-.3-.45-1.04-.78-2.46-.85-4.07-.89-2.51 0-5.43.51-7.94 1.2-1.88.53-3.84-.57-4.35-2.45-.52-1.8.67-3.09 1.27-4.73 1.42-3.5 2.72-7.67 2.18-11.34-.18-1.2-.87-2.48-.95-2.31-2.47-1.17-5.69-.84-8.5-.67-3.47.31-7.09.99-10.49 1.78-1.87.38-3.7-.83-4.08-2.7-.21-1.02.07-2.03.65-2.8 1.2-1.56 2.33-2.87 3.54-4.24 8.33-9.31 17.91-17.49 28.24-24.47 11.78-7.96 24.68-14.24 38.24-18.47 2.48-.71 3.73 2.88 1.25 3.82h.02Zm-83.01 34.58c-1.12 0-2.22-.54-2.9-1.54-7.77-11.45-31.73-40.85-48.82-39.47-2.71.22-3.76 1.41-4.31 2.29-3.39 5.41.5 18.55 2.13 22.73a3.5 3.5 0 0 1-1.11 4.03c-1.22.95-2.92.98-4.18.08-9.86-7.05-28.61-17.39-36.93-15.11-1.87.51-3.11 1.48-3.89 3.04-2.38 4.76.15 13.59 1.22 16.31.71 1.8-.17 3.83-1.97 4.54s-3.83-.17-4.54-1.97c-.54-1.37-5.16-13.63-.97-22.01 1.66-3.32 4.53-5.62 8.3-6.66 9.88-2.71 25.29 5.12 34.76 10.87-1.36-6.28-2.06-14.26 1.26-19.57 2.06-3.29 5.41-5.21 9.68-5.56 24.71-2 53.94 40.7 55.18 42.52 1.08 1.6.67 3.78-.93 4.86-.6.41-1.29.6-1.96.6l-.02.02Z"/>
  <path fill="#511500" d="M105.33 69.2c-1.25 0-2.46-.67-3.09-1.85-.91-1.7-.27-3.83 1.43-4.74 4.08-2.18 8.33-4.16 12.62-5.86 1.8-.72 3.83.16 4.55 1.96.71 1.8-.16 3.83-1.96 4.55-4.05 1.61-8.05 3.47-11.9 5.53-.53.28-1.09.41-1.65.41Zm168.6 66.92c-1.29 0-2.54-.72-3.14-1.96a3.49 3.49 0 0 1 1.6-4.68c9.73-4.78 16.81-10.55 21.03-17.15 27.35-42.74 21.77-90.66 19.43-104.24-50.3 17.28-82 47.98-90.67 57.16a3.496 3.496 0 0 1-4.95.14 3.496 3.496 0 0 1-.14-4.95c9.17-9.71 43.29-42.75 97.35-60.26.93-.3 1.94-.2 2.79.28a3.52 3.52 0 0 1 1.69 2.24c.59 2.46 14.07 60.77-19.61 113.41-4.92 7.69-12.94 14.31-23.84 19.66-.5.24-1.02.36-1.54.36v-.01Zm-111.775 48.387c10.683-.674 18.905-8.151 18.365-16.7-.539-8.549-9.636-14.933-20.318-14.259-10.682.674-18.904 8.151-18.365 16.7.54 8.549 9.636 14.933 20.318 14.259Z"/>
  <path fill="#7A2106" d="M164.4 170.52c4.346 0 7.87-2.373 7.87-5.3 0-2.927-3.524-5.3-7.87-5.3-4.347 0-7.87 2.373-7.87 5.3 0 2.927 3.523 5.3 7.87 5.3Z"/>
  <path fill="#511500" d="M141.34 204.87c-13.36 0-18.17-10.14-18.84-15.54a3.501 3.501 0 0 1 3.04-3.91c1.9-.23 3.67 1.12 3.91 3.04.13.95 1.62 9.41 11.91 9.41h.21c11.46-.13 16.17-11.52 16.37-12a3.503 3.503 0 0 1 6.51 2.58c-.26.66-6.58 16.25-22.8 16.43h-.3l-.01-.01Z"/>
  <path fill="#511500" d="M181.02 204.87h-.3c-16.22-.18-22.54-15.77-22.8-16.43-.16-.41-.24-.84-.24-1.28v-7.84c0-1.93 1.57-3.5 3.5-3.5s3.5 1.57 3.5 3.5v7.11c1.1 2.36 5.96 11.33 16.12 11.44h.21c10.29 0 11.77-8.46 11.91-9.44.27-1.9 2.02-3.25 3.93-3 1.91.25 3.25 1.98 3.01 3.89-.67 5.4-5.49 15.54-18.84 15.54v.01Zm-19.84 33.41c-7.45 0-13.43-2.49-17.78-7.41-9.5-10.73-7.37-29.15-7.27-29.93a3.506 3.506 0 0 1 3.9-3.05c1.92.23 3.28 1.98 3.05 3.89-.02.18-1.83 16.12 5.58 24.46 3.01 3.39 7.11 5.04 12.53 5.04 1.93 0 3.5 1.57 3.5 3.5s-1.57 3.5-3.5 3.5h-.01Z"/>
  <path fill="#511500" d="M161.18 238.28c-1.93 0-3.5-1.57-3.5-3.5s1.57-3.5 3.5-3.5c5.42 0 9.52-1.65 12.53-5.04 7.41-8.35 5.6-24.3 5.58-24.46a3.498 3.498 0 0 1 3.05-3.89 3.491 3.491 0 0 1 3.89 3.05c.09.78 2.22 19.21-7.27 29.93-4.35 4.92-10.33 7.41-17.78 7.41Zm3.5-49.76-1.21 28.69c-.18 2.9-4.4 2.9-4.59 0l-1.21-28.69c-.03-4.82 7.03-4.83 7 0h.01Zm-3.5 78.8c-1.93 0-3.5-1.57-3.5-3.5s1.57-3.5 3.5-3.5c65.11 0 114.21-41.53 114.21-96.6 0-10.07-1.61-20.17-4.79-30.03-.59-1.84.42-3.81 2.26-4.41 1.83-.59 3.81.42 4.41 2.26 3.41 10.56 5.13 21.38 5.13 32.18 0 29.03-12.69 55.56-35.74 74.71-22.41 18.63-52.77 28.88-85.47 28.88l-.01.01Z"/>
  <path fill="#fff" d="M96.09 246.3c0 17.1-17.61 25.52-39.34 25.52-21.73 0-39.34-8.42-39.34-25.52s17.61-30.97 39.34-30.97c21.73 0 39.34 13.87 39.34 30.97Z"/>
  <path fill="#DCDFE2" d="M17.4 246.3c0 17.1 17.61 25.52 39.34 25.52 21.73 0 39.34-8.42 39.34-25.52 0 0-9.52 7.91-39.34 7.91-29.82 0-39.34-7.91-39.34-7.91Z"/>
  <path fill="#511500" d="M56.75 275.32c-26.03 0-42.84-11.39-42.84-29.02 0-19.01 19.22-34.47 42.84-34.47 23.62 0 42.84 15.46 42.84 34.47 0 17.63-16.82 29.02-42.84 29.02Zm0-56.49c-19.76 0-35.84 12.32-35.84 27.47 0 10.65 9.42 22.02 35.84 22.02s35.84-11.38 35.84-22.02c0-15.15-16.08-27.47-35.84-27.47Z"/>
  <path fill="#511500" d="M43.32 246.3c-2.26 6.99-2.01 14.97 1.37 21.55a3.49 3.49 0 0 1-1.7 4.65c-1.8.84-3.96 0-4.72-1.84a33.386 33.386 0 0 1-2.59-9.94c-.43-5.03.15-10.12 1.75-14.9.18-.55.36-1.03.63-1.68a2.84 2.84 0 0 1 3.71-1.54c1.46.6 2.13 2.27 1.55 3.71v-.01Zm32.11-2.17c2.1 5.27 2.84 10.94 2.38 16.58-.33 3.43-1.21 6.76-2.59 9.94a3.507 3.507 0 0 1-4.57 1.91c-1.79-.73-2.64-2.78-1.91-4.57.8-1.74 1.61-3.48 2.04-5.38 1.39-5.37 1.06-11.24-.67-16.5-1.07-3.46 3.86-5.29 5.32-1.98Z"/>
  <path fill="#fff" d="M226.27 246.3c0 17.1 17.61 25.52 39.34 25.52 21.73 0 39.34-8.42 39.34-25.52s-17.61-30.97-39.34-30.97c-21.73 0-39.34 13.87-39.34 30.97Z"/>
  <path fill="#DCDFE2" d="M304.96 246.3c0 17.1-17.61 25.52-39.34 25.52-21.73 0-39.34-8.42-39.34-25.52 0 0 9.52 7.91 39.34 7.91 29.82 0 39.34-7.91 39.34-7.91Z"/>
  <path fill="#511500" d="M265.62 275.32c-26.03 0-42.84-11.39-42.84-29.02 0-19.01 19.22-34.47 42.84-34.47 23.62 0 42.84 15.46 42.84 34.47 0 17.63-16.82 29.02-42.84 29.02Zm0-56.49c-19.76 0-35.84 12.32-35.84 27.47 0 10.65 9.42 22.02 35.84 22.02s35.84-11.38 35.84-22.02c0-15.15-16.08-27.47-35.84-27.47Z"/>
  <path fill="#511500" d="M284.3 244.13c2.1 5.27 2.84 10.94 2.38 16.58-.33 3.43-1.21 6.76-2.59 9.94a3.507 3.507 0 0 1-4.57 1.91 3.507 3.507 0 0 1-1.91-4.57c.8-1.74 1.61-3.48 2.04-5.38 1.39-5.37 1.06-11.24-.67-16.5-1.07-3.46 3.86-5.29 5.32-1.98Zm-32.11 2.17c-2.26 6.99-2.01 14.97 1.37 21.55a3.49 3.49 0 0 1-1.7 4.65c-1.8.84-3.96 0-4.72-1.84a33.386 33.386 0 0 1-2.59-9.94c-.43-5.03.15-10.12 1.75-14.9.18-.55.36-1.03.63-1.68a2.84 2.84 0 0 1 3.71-1.54c1.46.6 2.13 2.27 1.55 3.71v-.01Z"/>
  <path fill="#511500" d="M135.36 66.42c-11.99-3.28-30.6-6.02-51.68-.66-8.18 2.08-13.94 7.36-14.92 13.6-1.87 11.88.89 30.809 36.18 33.649 35.94 2.89 43.62-17.07 44.82-30.31.65-7.15-5.16-13.75-14.4-16.29v.01Zm53.55-.22c12.26-2.71 31.08-4.55 51.63 1.81 7.97 2.47 13.24 8.01 13.65 14.28.79 11.94-3.69 30.7-39.15 31.85-36.13 1.17-41.98-19.11-41.97-32.38 0-7.16 6.4-13.48 15.85-15.56h-.01Z" opacity=".2"/>
  <path fill="#38BDF8" d="M135.36 53.68c-11.99-3.28-30.6-6.02-51.68-.66-8.18 2.08-13.94 7.36-14.92 13.6-1.87 11.88.89 30.81 36.18 33.65 35.94 2.89 43.62-17.07 44.82-30.31.65-7.15-5.16-13.75-14.4-16.29v.01Zm53.55-.22c12.26-2.71 31.08-4.55 51.63 1.81 7.97 2.47 13.24 8.01 13.65 14.28.79 11.94-3.69 30.7-39.15 31.85-36.13 1.17-41.98-19.11-41.97-32.38 0-7.16 6.4-13.48 15.85-15.56h-.01Z"/>
  <path fill="#fff" d="M86.19 69.67c3.767 0 6.82-2.212 6.82-4.94 0-2.729-3.053-4.94-6.82-4.94-3.767 0-6.82 2.211-6.82 4.94 0 2.728 3.053 4.94 6.82 4.94Z"/>
  <path fill="#85DFFF" d="M145.91 85.54s-13.73.15-18.99-6.04c-5.26-6.2.62-12.57-15.84-16.48C94.62 59.1 95.7 49.93 95.7 49.93s35.64-2.97 48.39 10.32c12.75 13.3 1.82 25.29 1.82 25.29Zm104.92 1.67s-13.73.15-18.99-6.04c-5.26-6.2.62-12.57-15.84-16.48-16.46-3.92-15.38-13.09-15.38-13.09s35.64-2.97 48.39 10.32c12.75 13.3 1.82 25.29 1.82 25.29Z"/>
  <path fill="#fff" d="M238.58 72.67c3.766 0 6.82-2.212 6.82-4.94 0-2.729-3.054-4.94-6.82-4.94-3.767 0-6.82 2.211-6.82 4.94 0 2.728 3.053 4.94 6.82 4.94Z"/>
  <path fill="#511500" d="M111.8 104.06c-2.26 0-4.64-.1-7.14-.3-16.21-1.3-27.67-6.09-34.07-14.22-4.89-6.21-6.72-14.33-5.28-23.47 1.21-7.7 7.92-14.01 17.51-16.45 21.85-5.56 41.14-2.7 53.47.68 10.96 3 17.77 11.03 16.96 19.98-1.18 12.98-8.25 33.78-41.45 33.78Zm-3.78-50.57c-7.25 0-15.16.81-23.48 2.92-6.73 1.71-11.57 5.93-12.33 10.75-1.14 7.27.16 13.34 3.86 18.05 5.15 6.54 14.95 10.43 29.14 11.57 17.47 1.4 38.79-2.16 41.06-27.14.5-5.46-4.26-10.52-11.84-12.59-6.82-1.87-15.91-3.57-26.41-3.57v.01Zm104.1 51.46c-14.56 0-25.61-3.56-32.88-10.6-6.33-6.13-9.67-14.89-9.67-25.33 0-8.9 7.47-16.53 18.59-18.98 12.61-2.78 32.11-4.71 53.42 1.88 9.42 2.92 15.59 9.58 16.11 17.4.6 9.13-1.92 17.09-7.28 23.01-7.08 7.81-18.94 12.04-35.25 12.57-1.03.03-2.04.05-3.03.05h-.01Zm-22.46-48.07c-7.71 1.7-13.1 6.7-13.1 12.15 0 5.93 1.31 14.26 7.54 20.3 6.35 6.15 16.72 9.04 30.82 8.59 14.34-.46 24.53-3.92 30.29-10.28 4.12-4.55 5.97-10.55 5.49-17.85-.32-4.78-4.71-9.16-11.2-11.17-19.85-6.14-38.06-4.33-49.84-1.73v-.01Z"/>
  <path fill="#511500" d="M149.76 72.52c-1.25 0-2.45-.67-3.09-1.84-.92-1.7-.28-3.82 1.43-4.74 14.37-7.73 26.35-.18 26.86.14a3.504 3.504 0 0 1 1.04 4.84 3.5 3.5 0 0 1-4.82 1.05c-.4-.25-9.14-5.58-19.76.13-.53.28-1.09.42-1.65.42h-.01Z"/>
</svg>
