<svg xmlns="http://www.w3.org/2000/svg" width="465" height="459" fill="none" viewBox="0 0 465 459">
  <path fill="#FFAA2A" d="M352.015 95.885c15.319 0 27.737-12.418 27.737-27.737 0-15.319-12.418-27.737-27.737-27.737-15.318 0-27.737 12.418-27.737 27.737 0 15.319 12.419 27.737 27.737 27.737Zm11.052-80.769c.559-7.778-2.207-14.314-6.179-14.6-3.972-.285-7.644 5.789-8.203 13.566-.559 7.777 2.208 14.314 6.179 14.599 3.972.285 7.644-5.788 8.203-13.565Zm-37.401 22.46c2.45-2.121 1.067-7.732-3.089-12.532s-9.512-6.97-11.961-4.849c-2.45 2.121-1.067 7.732 3.089 12.532s9.512 6.97 11.961 4.85Zm-8.929 68.779c4.8-4.156 6.971-9.511 4.85-11.961-2.122-2.45-7.732-1.067-12.532 3.09-4.8 4.156-6.971 9.511-4.85 11.961 2.122 2.45 7.732 1.066 12.532-3.09Zm76.717 9.5c2.45-2.122 1.067-7.732-3.089-12.532s-9.511-6.971-11.961-4.85c-2.45 2.122-1.067 7.732 3.089 12.532s9.512 6.971 11.961 4.85Zm1.561-77.289c4.8-4.156 6.971-9.511 4.85-11.96-2.121-2.45-7.732-1.068-12.532 3.089-4.8 4.156-6.971 9.511-4.849 11.96 2.121 2.45 7.732 1.067 12.531-3.089Zm-39.397 80.245c.558-7.778-2.208-14.314-6.18-14.599-3.971-.286-7.644 5.788-8.203 13.565-.559 7.777 2.208 14.313 6.179 14.599 3.972.285 7.645-5.788 8.204-13.565Zm62.458-47.631c.286-3.973-5.788-7.645-13.565-8.204-7.777-.559-14.313 2.208-14.599 6.18-.285 3.971 5.788 7.644 13.566 8.203 7.777.558 14.313-2.208 14.598-6.18Zm-103.687-7.45c.286-3.971-5.788-7.644-13.565-8.202-7.777-.56-14.313 2.207-14.599 6.179-.285 3.971 5.788 7.644 13.566 8.203 7.777.559 14.313-2.208 14.598-6.18Z"/>
  <path fill="#DCDFE2" d="M54.283 272.974S14.906 243.388 5.43 237.897c0 0 5.272 26.169 13.05 32.126 7.778 5.95 34.584 7.86 34.584 7.86l1.219-4.902v-.007Z"/>
  <path fill="#DCDFE2" d="M49.866 276.151s-8.627 3.835-19.11 4.704c-8.613.712-30.756-.767-30.756-.767s18.576 17.337 33.55 15.988c12.598-1.137 21.164-18.35 21.164-18.35l-4.848-1.575Z"/>
  <path fill="#DCDFE2" d="M50.9 280.389c-4.423 18.206-15.707 33.824-15.707 33.824s13.988-2.266 19.192-9.387c3.91-5.347 1.417-23.547 1.417-23.547l-4.902-.883v-.007Zm.603-5.1s-19.987-45.019-23.205-55.488c0 0 24.32 11.017 28.367 19.931 4.054 8.915-.11 35.468-.11 35.468l-5.052.089Z"/>
  <path fill="#DCDFE2" d="M55.597 271.701s5.669-7.546 8.873-17.57c2.63-8.23 6.163-30.14 6.163-30.14s12.721 21.999 8.038 36.282c-3.937 12.023-22.636 16.501-22.636 16.501l-.445-5.08.007.007Z"/>
  <path fill="#DCDFE2" d="M59.493 273.666c18.733-.219 36.487-7.71 36.487-7.71s-5.347 13.119-13.46 16.59c-6.094 2.609-23.267-3.909-23.267-3.909l.24-4.978v.007Z"/>
  <path fill="#DCDFE2" d="m61.883 279.39-.068-3.136-9.524-2.075 1.068 8.552s20.712 25.683 30.763 50.305l11.174-18.001C77.7 288.592 61.883 279.39 61.883 279.39Zm45.148-122.266s-37.548-25.745-96.576-39.706c0 0 8.757 33.818 32.92 45.93 24.163 12.105 63.663 0 63.663 0v-6.217l-.007-.007Z"/>
  <path fill="#DCDFE2" d="M100.67 161.506s-39.623 17.405-86.757 27.353c0 0 23.861 21.637 50.592 15.57 26.73-6.066 44.053-36.946 44.053-36.946l-7.895-5.97.007-.007Zm7.464-3.862s18.802-41.465 62.081-83.964c0 0 10.017 33.468-4.396 56.337-14.406 22.869-54.467 32.947-54.467 32.947l-3.218-5.32Z"/>
  <path fill="#DCDFE2" d="M111.283 161.205s43.266-1 90.181-11.941c0 0-12.461 29.702-39.254 35.522-26.785 5.82-55.549-14.824-55.549-14.824l4.622-8.75v-.007Zm-9.175-4.314s-10.88-22.458-24.902-37.377c-14.023-14.92-30.462-32.571-30.462-32.571s35.81-5.957 56.199 15.953c15.399 16.542 9.196 57.775 9.196 57.775l-10.031-3.773v-.007Z"/>
  <path fill="#DCDFE2" d="m114.132 165.936 2.909-6.813-11.153-5.032-5.211 14.632s8.128 81.109 2.198 133.002l27.052-16.104c2.719-55.454-15.795-119.685-15.795-119.685Z"/>
  <path fill="#53D5F6" d="M426.825 244.381c-3.752-13.673-14.482-38.692-43.177-42.122-39.788-4.759-63.636 22.403-72.9 31.092-9.264 8.689-32.18 23.827-49.044 23.177l8.216 34.015 71.352-10.017c1.294-19.459 6.484-35.46 36.138-42.355 19.767-4.594 35.967 3.636 44.574 9.634 2.417 1.684 5.628-.596 4.847-3.437l-.006.013Z"/>
  <path fill="#53D5F6" d="M405.702 280.533c-34.947-17.802-9.511-42.355-9.511-42.355s-19.027-8.038-39.349 8.518c-20.322 16.556-15.419 31.838-15.419 31.838l64.286 1.999h-.007Z"/>
  <path fill="#fff" d="M365.558 241.916c3.437-1.437 7.367-2.69 11.852-3.731 19.767-4.594 35.967 3.636 44.574 9.633 2.417 1.685 5.628-.595 4.847-3.437-3.752-13.673-14.481-38.692-43.176-42.122-10.606-1.267-20.082-.267-28.456 2.047 0 0-7.443 3.855-4.629 9.661 1.63 3.369 7.552 4.129 12.236 4.17 1.876.02 2.773 2.294 1.424 3.595-2.78 2.697-5.615 6.347-4.8 9.496.589 2.26 2.362 3.369 4.321 3.876 2.916.753 3.957 4.375 1.958 6.634l-.151.172v.006Z"/>
  <path fill="#53D5F6" d="M370.22 231.316c2.285-.436 3.871-2.179 3.543-3.891-.327-1.712-2.445-2.746-4.729-2.309-2.284.437-3.87 2.179-3.542 3.891.327 1.713 2.444 2.746 4.728 2.309Z"/>
  <path fill="#14BBE4" d="M305.305 237.952c-5.964 4.629-14.091 9.839-22.54 13.571l-4.369 37.843 41.801-5.868 21.219-4.957c.041-1.335.205-2.746.438-4.197.781-6.115 2.218-11.798 5.039-16.837.254-.623.404-.972.404-.972-26.627-.315-37.548-10.743-41.999-18.583h.007Zm90.88.226s-24.704-6.101-43.348 11.708l-5.539 6.642s22.006-11.291 40.637-4.238l8.25-14.112Z"/>
  <path fill="#511500" d="M341.273 282.93h-.165a2.397 2.397 0 0 1-2.232-2.547c1.171-17.542 5.163-36.899 37.987-44.526 20.979-4.875 38.131 4.176 46.484 10.003.349.247.664.13.863-.007.198-.143.417-.404.301-.821-3.759-13.694-14.098-37.138-41.15-40.377-35.378-4.231-57.665 17.501-68.374 27.95-.965.944-1.835 1.793-2.602 2.512-8.428 7.909-31.366 23.848-49.613 23.848-.39 0-.78 0-1.164-.02a2.39 2.39 0 0 1-2.3-2.486 2.386 2.386 0 0 1 2.485-2.3c15.262.575 37.261-13.098 47.319-22.534.747-.705 1.596-1.526 2.541-2.444 11.236-10.962 34.632-33.783 72.29-29.277 13.208 1.581 24.156 7.668 32.53 18.096 7.038 8.771 10.784 18.85 12.68 25.765a5.503 5.503 0 0 1-2.157 6.005c-1.93 1.362-4.43 1.376-6.367.027-7.703-5.375-23.492-13.721-42.664-9.271-26.853 6.245-32.906 19.459-34.289 40.178a2.396 2.396 0 0 1-2.39 2.239l-.013-.013Z"/>
  <path fill="#511500" d="M405.703 282.93c-.363 0-.74-.083-1.089-.261-11.667-5.943-18.233-13.344-19.527-21.992-1.952-13.057 8.969-23.766 9.435-24.218a2.4 2.4 0 0 1 3.334 3.451c-.096.096-9.626 9.49-8.024 20.089 1.061 7.018 6.764 13.215 16.96 18.405a2.397 2.397 0 0 1-1.089 4.532v-.006Zm-36.688-25.642c-3.177 6.861-3.526 15.858 1.787 21.739 2.034 2.438-1.499 5.505-3.628 3.136-6.026-7.504-5.382-18.295-.897-26.381 1.047-1.76 3.663-.315 2.738 1.506Z"/>
  <path fill="#38BDF8" d="m158.781 181.78-20.692 10.407s-7.798 33.043 20.069 45.991l-2.424 30.421s20.828 8.435 61.451 3.916c40.623-4.519 61.499-20.855 73.119-33.016l-5.211-22.93 18.268-7.1s-17.104-3.958-18.501-24.759c-1.389-20.794 6.033-30.626 6.033-30.626l-19.028 5.142-7.066 7.388a68.906 68.906 0 0 1-101.568 15.412l-4.457-.26.007.014Z"/>
  <path fill="#fff" d="M239.308 214.104s-2.506 7.333-8.025 7.128c-5.526-.205-10.77-7.169-20.356-3.937-9.586 3.232-11.352 10.654-10.695 15.152 0 0 2.335-5.635 7.669-6.573 4.649-.821 10.044 6.963 21.787 3.561 11.105-3.219 9.626-15.331 9.626-15.331h-.006Zm-7.861 20.808s-2.506 7.333-8.024 7.128c-5.526-.206-10.771-7.169-20.356-3.937-9.586 3.231-11.353 10.653-10.695 15.152 0 0 2.334-5.635 7.668-6.573 4.649-.822 10.045 6.963 21.787 3.56 11.106-3.218 9.627-15.33 9.627-15.33h-.007Z"/>
  <path fill="#F70" d="M139.698 243.738c4.67-2.383 9.408-5.067 13.858-8.039-19.205-11.537-16.775-35.611-16.775-35.611s-6.134 3.41-14.686 7.806c.185 6.895 1.02 15.419 3.677 21.465 3.094 7.046 9.366 11.736 13.926 14.379Z"/>
  <path fill="#DCDFE2" d="m94.713 237.124.103.506c2.43 11.893 15.016 18.754 26.334 14.358 5.368-2.081 11.893-4.854 18.548-8.25-4.56-2.636-10.832-7.326-13.927-14.379-2.656-6.046-3.492-14.57-3.677-21.465-4.902 2.52-10.592 5.361-16.384 8.079-8.018 3.759-12.647 12.455-10.996 21.151Z"/>
  <path fill="#F70" d="M310.749 150.537c-6.882.822-13.804 2.164-19.857 3.554-11.961 22.964-1.479 44.601-1.479 44.601 6.039-3.369 13.509-5.361 20.966-6.58-2.938-6.265-5.745-13.9-6.176-20.897-.562-9.031 3.266-16.241 6.552-20.678h-.006Z"/>
  <path fill="#DCDFE2" d="M361.594 174.008c-1.15-14.7-20.178-25.08-41.8-24.217-2.951.116-5.991.383-9.045.746-3.287 4.437-7.114 11.647-6.553 20.678.439 6.997 3.239 14.632 6.176 20.897 11.044-1.801 22.075-1.904 28.443-2.246 10.667-.575 23.93-1.151 22.772-15.858h.007Z"/>
  <path fill="#0095FF" d="M315.158 191.434s-14.899 2.615-25.744 7.264c0 0 3.129 10.367 15.597 10.613 8.422.165 10.147-17.87 10.147-17.87v-.007Z"/>
  <path fill="#F70" d="M290.297 239.5s-32.544 31.345-73.119 33.016c-40.575 1.67-61.451-3.917-61.451-3.917l11.263 63.143 118.165-42.732s9.524-18.323 5.142-49.51Z"/>
  <path fill="#fff" d="M361.594 174.008c-1.349-5.977-4.183-10.653-7.915-14.248-7.032-6.005-18.035-9.771-30.168-10.003-4.204.075-8.668.465-12.899.979-1.822 2.492-3.787 5.82-5.06 9.832 5.217-.733 11.503-1.411 18.856-1.835 24.793-1.445 37.193 15.282 37.193 15.282l-.007-.007Z"/>
  <path fill="#FFAA2A" d="m305.545 160.568-18.46 3.067 3.8-9.544 19.72-3.355-5.06 9.832Z"/>
  <path fill="#fff" d="M103.861 217.398s-12.906 8.462-9.045 20.232l2.821 6.847s-1.054-12.92 12.195-18.986l13.344-5.505c-.677-4.067-.979-8.326-1.081-12.092l-18.234 9.504Z"/>
  <path fill="#FFAA2A" d="M137.616 211.995c-1.362-6.71-.842-11.907-.842-11.907s-6.135 3.41-14.687 7.806c.103 3.766.404 8.018 1.082 12.092l14.584-6.019-.137-1.979v.007Z"/>
  <path fill="#FFA2BE" d="M119.625 238.486c2.628-1.527 3.424-5.063 1.777-7.898s-5.114-3.894-7.742-2.367c-2.629 1.528-3.425 5.064-1.778 7.898 1.648 2.835 5.114 3.895 7.743 2.367Zm-15.011-5.683a3.944 3.944 0 1 0 0-7.889 3.944 3.944 0 0 0 0 7.889Zm1.267 11.667a3.944 3.944 0 1 0 0-7.889 3.944 3.944 0 0 0 0 7.889Zm10.202 4.759a3.943 3.943 0 1 0 0-7.887 3.943 3.943 0 1 0 0 7.887Z"/>
  <path fill="#85DFFF" d="M276.836 225.757c-.37 3.061-.452 13.715-3.718 28.107 7.34-4.82 12.893-9.88 17.186-14.365l-5.211-22.93s-7.531 3.28-8.25 9.188h-.007Z"/>
  <path fill="#FFAA2A" d="M290.297 239.499s-6.244 7.073-17.241 14.605c-3.06 13.365-8.86 29.907-20.178 46.58l32.284-11.674s9.524-18.323 5.142-49.511h-.007Z"/>
  <path fill="#fff" d="M244.484 266.524s-17.481 6.361-33.345 6.361h-34.892s14.632 18.946 31.688 17.597c23.574-1.862 34.926-13.139 36.549-23.958Z"/>
  <path fill="#85DFFF" d="M285.162 171.619s-7.244-1.096-13.297 8.613c-17.391 22.041-54.618 16.844-54.618 16.844 31.647-7.778 54.618-37.843 54.618-37.843l19.028-5.142-5.731 17.528"/>
  <path fill="#511500" d="M289.413 201.095a2.395 2.395 0 0 1-2.095-1.232 2.395 2.395 0 0 1 .924-3.26c13.681-7.627 33.961-8.449 46.08-8.935 1.623-.068 3.088-.123 4.369-.192l.301-.013c6.813-.37 14.529-.788 18.097-4.855 1.718-1.958 2.41-4.71 2.122-8.408-1.013-12.961-18.651-22.834-39.315-22.013-21.027.842-47.018 9.244-47.278 9.326a2.398 2.398 0 0 1-3.02-1.534 2.39 2.39 0 0 1 1.534-3.019c1.089-.356 26.874-8.689 48.579-9.559 23.608-.952 43.054 10.661 44.286 26.423.39 4.984-.719 8.996-3.293 11.941-4.896 5.587-13.687 6.059-21.445 6.477l-.301.014c-1.301.068-2.787.13-4.43.198-11.688.473-31.256 1.26-43.937 8.333-.37.205-.767.301-1.164.301l-.014.007Z"/>
  <path fill="#511500" d="M303.361 211.865c-5.546 0-11.318-3.985-15.433-10.654-3.595-5.826-5.594-13.009-5.779-20.78-.212-9.045 2.006-18.268 6.594-27.415a2.395 2.395 0 0 1 3.218-1.069 2.403 2.403 0 0 1 1.068 3.219c-6.046 12.043-9.49 29.804-1.027 43.532 3.191 5.17 7.538 8.374 11.352 8.374 7.943 0 9.401-15.672 9.408-15.83a2.398 2.398 0 0 1 2.574-2.198 2.388 2.388 0 0 1 2.198 2.575c-.068.828-1.739 20.246-14.187 20.246h.014Z"/>
  <path fill="#511500" d="M309.948 194.583a2.398 2.398 0 0 1-2.102-1.239c-8.059-14.646-6.587-26.046-3.923-33.03 2.909-7.634 7.778-11.742 7.983-11.913a2.396 2.396 0 0 1 3.067 3.683c-.705.596-16.48 14.324-2.93 38.946a2.397 2.397 0 0 1-.945 3.252c-.37.198-.76.294-1.15.294v.007Zm23.847-23.156c5.43 4.204 6.662 11.722 5.937 18.172-.336 3.149-4.93 2.807-4.786-.363.383-2.383.636-4.944.294-7.34-.404-2.732-1.417-5.498-3.423-7.443-2.007-1.39-.131-4.354 1.971-3.026h.007Zm15.741-.027c4.013 3.574 5.088 9.298 4.841 14.419l-.192 2.116a2.4 2.4 0 0 1-4.779-.424c.014-.172.281-1.863.308-2.068.398-3.732.035-7.888-2.43-10.859-2.13-1.698.013-4.739 2.252-3.177v-.007Zm-65.004 121.479c-.322 0-.651-.069-.966-.206a2.39 2.39 0 0 1-1.225-3.156c14.495-32.9.637-71.736.5-72.126a2.369 2.369 0 0 1 .082-1.835 2.398 2.398 0 0 1 1.349-1.239l19.924-7.265a2.398 2.398 0 0 1 1.643 4.505l-17.733 6.464c2.876 9.072 11.996 43.067-1.376 73.427a2.403 2.403 0 0 1-2.198 1.431Z"/>
  <path fill="#511500" d="M198.431 275.918c-12.92 0-27.333-1.431-43.225-4.977a2.393 2.393 0 0 1-1.814-2.862 2.389 2.389 0 0 1 2.862-1.815c46.655 10.414 80.116 2.157 99.972-6.6 21.514-9.49 32.154-21.602 32.263-21.726a2.396 2.396 0 0 1 3.629 3.129c-.452.521-11.291 12.921-33.687 22.862-13.755 6.108-33.817 11.989-59.993 11.989h-.007Z"/>
  <path fill="#511500" d="M152.728 280.766a2.398 2.398 0 0 1-2.321-3.013c5.909-22.362 5.977-57.843 5.977-58.199a2.4 2.4 0 0 1 2.397-2.396 2.399 2.399 0 0 1 2.396 2.396c0 1.479-.068 36.467-6.135 59.425a2.394 2.394 0 0 1-2.314 1.787Z"/>
  <path fill="#511500" d="M158.157 240.582c-.342 0-.684-.076-1.013-.226-16.268-7.594-21.212-20.521-22.492-30.024-1.37-10.161 1.04-18.467 1.143-18.816a2.374 2.374 0 0 1 1.219-1.458l20.691-10.407a2.398 2.398 0 0 1 3.218 1.061 2.398 2.398 0 0 1-1.061 3.218l-19.726 9.921c-1.287 5.361-5.84 30.558 19.042 42.164a2.394 2.394 0 0 1 1.157 3.183 2.4 2.4 0 0 1-2.171 1.384h-.007Z"/>
  <path fill="#511500" d="M114.049 255.72c-3.642 0-7.271-.911-10.558-2.698a21.947 21.947 0 0 1-11.023-14.906c-.034-.178-.076-.362-.11-.547-1.842-9.716 3.225-19.487 12.338-23.759 15.639-7.333 30.771-15.728 30.921-15.81a2.397 2.397 0 1 1 2.328 4.19c-.15.083-15.426 8.559-31.215 15.961-7.128 3.341-11.099 10.962-9.661 18.534.027.165.062.315.096.473a17.169 17.169 0 0 0 8.627 11.66 17.19 17.19 0 0 0 14.488.945c8.62-3.348 21.164-8.846 31.948-16.049a2.395 2.395 0 0 1 2.657 3.985c-11.147 7.449-24.033 13.098-32.879 16.535a21.978 21.978 0 0 1-7.963 1.493l.006-.007Z"/>
  <path fill="#511500" d="M140.677 245.634c-.287 0-.582-.054-.869-.164-9.032-3.519-15.324-11.243-18.2-22.335-2.115-8.168-1.643-15.255-1.622-15.556a2.402 2.402 0 0 1 2.56-2.218 2.392 2.392 0 0 1 2.219 2.56c-.021.35-1.541 25.95 16.775 33.085a2.395 2.395 0 0 1-.87 4.628h.007Z"/>
  <path fill="#F70" d="M266.579 98.637s5.423-20.732 2.814-39.87c-2.609-19.137-22.472-48.709-26.984-48.709-4.512 0-20.561 25.943-18.623 52.763-6.793-4.622-13.667-8.504-17.193-8.134-8.408.87-2.321 14.228-2.321 14.228s-13.009-8.19-18.843-6.382c-4.505 1.397-5.06 9.299-5.06 9.299s-6.498 2.65-8.511 3.71l-2.013 1.062s-30.606-27.792-83.142-21.945c0 0-3.677 26.115 14.05 46.724 14.57 16.932 23.492 19.384 32.68 20.253-1.753 6.135-2.054 10.743-1.67 17.152 2.348 39.431 34.406 60.739 75.152 60.739s72.399-26.148 72.399-62.656c0-13.763-4.697-27.039-12.728-38.227l-.007-.007Z"/>
  <path fill="#fff" d="m249.591 128.175-14.269-13.557s-9.079-34.734-23.998-33.221c-14.92 1.513-14.92 51.893-14.92 51.893s-34.043 2.246-61.033 23.834c9.77 27.655 37.651 42.403 71.543 42.403 35.769 0 64.533-20.157 71.024-49.777 0 0-8.23-10.688-28.34-21.575h-.007Z"/>
  <path fill="#FF4173" d="M208.359 161.225s-8.25 15.385 2.931 18.843c17.987 5.566 22.629-19.637 22.629-19.637l-8.661-6.334s-3.355 5.875-16.892 7.135l-.007-.007Z"/>
  <path fill="#511500" d="M226.894 153.954c-.726 4.806-2.568 9.366-4.759 13.659a66.201 66.201 0 0 1-2.314 4.095 1.574 1.574 0 0 1-2.164.534 1.585 1.585 0 0 1-.589-2.068c1.315-2.657 2.451-5.402 3.341-8.216.829-2.725 1.527-5.512 1.699-8.34.095-3.444 5.155-3.102 4.779.336h.007Z"/>
  <path fill="#fff" d="M102.868 67.25s7.333 39.467 29.243 38.597c0 0-.582-4.772 8.936-3.478 0 0-3.027-9.298-1.513-12.975 1.513-3.677 14.529-3.033 14.529-3.033s-21.479-19.206-51.195-19.117v.007Z"/>
  <path fill="#FFAA2A" d="M231.509 24.56c4.142-8.805 8.784-14.495 10.9-14.495 4.512 0 24.375 29.572 26.984 48.71 2.609 19.136-2.814 39.869-2.814 39.869 3.642 5.074 6.593 10.572 8.737 16.35l-19.24-17.897s4.033-23.69 2.02-39.548c-2.02-15.858-15.44-33.865-17.008-34.598-2.164-1.007-9.579 1.609-9.579 1.609Zm-1.329 42.828s-18.261-15.214-25.224-12.318c-6.97 2.897 15.474 16.399 25.224 12.318Z"/>
  <path fill="#F95A00" d="m133.755 121.349-1.589 6.826c-1.677 12.4-.342 24.218 3.205 28.949 4.306-3.444 8.798-6.402 13.296-8.928-7.353-11.25-11.208-21.575-12.906-26.929-.322-1.014-1.767-.952-2.006.082Z"/>
  <path fill="#DCDFE2" d="M148.667 148.196c-4.498 2.533-8.99 5.484-13.296 8.928 3.539 4.724 4.238 12.824 20.999 27.867 10.387 7.497 23.451 12.174 38.083 13.845l.192.02c.643.075 1.294.13 1.951.192.808.075 1.582.137 2.314.192.226.013.445.034.671.047.548.035 1.068.069 1.568.096 1.904.096 3.821.151 5.765.151 10.421 0 20.24-1.719 29.093-4.882-47.353-.89-73.522-25.306-87.34-46.45v-.006Z"/>
  <path fill="#511500" d="M241.458 78.158c-8.141-5.47-16.008-11.571-24.382-16.583-3.198-1.767-6.539-3.958-10.093-4.28-2.341.014-2.382 2.205-2.225 4.19.206 2.075.904 4.41 1.698 6.444a2.408 2.408 0 0 1-1.225 3.17 2.426 2.426 0 0 1-2.226-.15 67.338 67.338 0 0 0-6.655-3.575c-3.115-1.37-6.614-2.95-9.86-2.622-2.622.602-3.416 4.71-3.731 7.32a2.41 2.41 0 0 1-1.479 1.992c-2.8 1.17-5.69 2.314-8.394 3.663-.391.198-1.514.8-1.918 1.013-1.965 1.027-3.231-.952-4.717-1.965-22.458-16.748-51.695-22.814-79.274-19.72l2.109-2.074c-.09.767-.15 1.712-.185 2.588-.363 9.874 1.458 19.89 5.436 28.936 2.862 6.614 7.19 12.516 12.133 17.726 5.485 5.943 11.866 10.983 19.589 13.53 2.376.958 5.053 1.157 7.655 1.499a2.397 2.397 0 0 1 2.13 2.664 2.407 2.407 0 0 1-2.664 2.102c-1.924-.226-3.766-.466-5.751-.849-5.697-1.459-11.257-4.238-15.94-7.826-3.875-2.938-7.258-6.395-10.455-9.963C91.167 94.666 85.477 80.513 84.32 66.06c-.24-2.89-.328-5.793-.205-8.696.164-1.849-.226-4.793 2.335-5.074 29.688-3.293 61.499 3.513 85.018 22.554l-2.725-.342c1.698-.924 3.602-1.87 5.354-2.609 1.794-.78 3.575-1.527 5.382-2.266l-1.486 2.054c.699-7.272 4.239-13.413 12.462-11.441 5.607 1.287 10.27 3.793 15.111 6.662l-3.458 3.02a28.698 28.698 0 0 1-.808-1.897c-.739-1.938-1.287-3.842-1.574-5.957-1.233-8.798 5.669-12.12 13.125-8.58 7.087 3.178 13.249 7.765 19.295 12.42 3.93 3.137 7.703 6.416 11.229 10.025 1.184 1.267-.404 3.245-1.897 2.239l-.02-.014Z"/>
  <path fill="#511500" d="M135.762 122.307c-2.89 10.572-1.931 21.924 1.28 32.284 10.469 33.762 48.744 45.772 80.986 41.855 33.926-3.711 62.8-30.428 58.5-66.155-1.191-10.873-5.518-21.321-11.893-30.25a2.415 2.415 0 0 1-.383-1.972c3.286-14.344 5.395-32.42.992-46.614-2.868-9.01-7.271-17.535-12.276-25.566-2.938-4.512-5.936-9.162-9.887-12.79a5.313 5.313 0 0 0-.938-.665c-.028-.013-.048-.006.137.028.212.007.349 0 .376-.027-1.999 1.3-3.423 3.54-4.813 5.566-1.671 2.581-3.143 5.354-4.451 8.203-5.155 11.338-8.072 23.998-7.216 36.453a2.4 2.4 0 0 1-4.786.35c-.911-13.366 2.15-26.683 7.641-38.803 2.342-4.881 7.052-14.358 12.208-16.35 2.821-.842 5.128 1.684 6.874 3.444 3.417 3.704 6.224 7.833 8.908 12.03 6.053 9.812 11.441 20.26 14.105 31.571 2.28 11.455 1.458 23.211-.281 34.625-.527 3.26-1.13 6.436-1.951 9.723l-.37-2.006c10.325 14.255 15.365 32.646 12.304 50.154-6.272 37.35-44.272 56.864-79.63 54.385-23.115-.993-47.511-10.038-60.979-29.839-9.853-14.509-13.502-33.844-9.01-50.832.903-3.026 5.272-1.8 4.553 1.205v-.007Zm-32.825-56.432c19.247.705 39.247 6.47 53.715 19.671 1.527 1.48.301 4.177-1.787 4.033-2.383-.192-4.91-.28-7.292-.13-1.924.171-4.136.274-5.69 1.321-1.479 2.856 1.403 7.97 3.136 10.504a2.41 2.41 0 0 1-.548 3.361c-.856.658-1.76.398-2.746.329-1.061-.075-2.17-.103-3.218-.027-1.609.137-2.992.335-3.889 1.116-.123.164-.144.191-.185.404-.212 1.513.575 2.307 1.794 4.033 1.849 2.554-1.842 5.374-3.82 2.896-.48-.651-1.007-1.335-1.52-2.198-1.158-1.794-1.726-4.464-.89-6.607 1.992-4.615 7.867-4.615 12.091-4.396.438.062.836.068 1.329.13l-2.26 3.793a25.524 25.524 0 0 1-1.143-1.739c-3.711-5.95-6.231-15.536 3.197-17.186 4.006-.787 7.895-.684 11.914-.383l-1.979 4.019c-6.47-6.45-14.666-10.983-23.136-14.33-4.327-1.65-8.791-2.993-13.351-3.945a100.223 100.223 0 0 0-13.865-1.923c-1.746-.137-1.664-2.767.137-2.746h.006Z"/>
  <path fill="#511500" d="M223.929 152.475c6.295-.397 11.141-4.801 10.823-9.835-.318-5.035-5.678-8.794-11.973-8.397-6.295.397-11.141 4.801-10.823 9.835.318 5.035 5.678 8.794 11.973 8.397Z"/>
  <path fill="#511500" d="M211.146 163.902c-9.147 0-12.44-6.943-12.899-10.64a2.397 2.397 0 1 1 4.758-.596c.089.651 1.11 6.443 8.155 6.443h.144c7.847-.089 11.071-7.887 11.208-8.216a2.402 2.402 0 0 1 4.574.377c.055.246 1.486 6.285 7.053 6.764 5.73.493 8.825-6.21 8.853-6.278a2.394 2.394 0 1 1 4.361 1.979c-.185.404-4.615 9.866-13.632 9.072-4.793-.418-7.655-3.198-9.305-5.8-2.383 3.136-6.56 6.82-13.057 6.888h-.206l-.007.007Z"/>
  <path fill="#511500" d="M216.275 183.266c-1.829 0-3.732-.301-5.704-.911-3.232-1-5.546-3.006-6.696-5.806-1.198-2.917-1.144-6.614.157-10.969.918-3.074 2.15-5.388 2.205-5.484a2.401 2.401 0 0 1 3.245-.979 2.401 2.401 0 0 1 .98 3.245c-1.137 2.129-3.739 8.511-2.15 12.379.602 1.472 1.807 2.465 3.67 3.04 3.745 1.158 6.956.884 9.811-.842 7.347-4.43 9.73-16.816 9.75-16.939a2.404 2.404 0 0 1 2.794-1.917 2.388 2.388 0 0 1 1.917 2.786c-.11.596-2.787 14.605-11.975 20.165-2.472 1.492-5.156 2.245-8.025 2.245l.021-.013Z"/>
  <path fill="#7A2106" d="M225.251 144.238c2.56 0 4.635-1.398 4.635-3.122 0-1.725-2.075-3.123-4.635-3.123-2.56 0-4.635 1.398-4.635 3.123 0 1.724 2.075 3.122 4.635 3.122Z"/>
  <path fill="#38BDF8" d="M198.164 98.89c-8.49-2.239-21.431-3.492-35.261 3.034-5.368 2.533-8.778 7.894-8.833 13.831-.116 11.29 3.608 28.88 27.915 29.051 24.759.178 28.045-19.11 27.573-31.633-.254-6.758-4.855-12.55-11.394-14.276v-.007Zm36.447-3.991c8.086-3.41 20.725-6.47 35.337-1.952 5.669 1.753 9.798 6.587 10.688 12.448 1.698 11.16.479 29.099-23.561 32.687-24.491 3.65-30.448-14.988-31.742-27.449-.698-6.731 3.04-13.112 9.278-15.734Z"/>
  <path fill="#fff" d="M165.751 117.418a4.67 4.67 0 1 0 0-9.339 4.67 4.67 0 0 0 0 9.339Z"/>
  <path fill="#85DFFF" d="M208.449 128.079s-9.333 1.116-13.523-4.334c-4.183-5.45-.808-11.852-12.393-14.365-11.592-2.513-11.749-11.208-11.749-11.208s23.985-5.313 33.961 6.278c9.976 11.592 3.704 23.629 3.704 23.629Zm71.626-5.854s-9.333 1.116-13.523-4.334c-4.183-5.45-.808-11.852-12.393-14.365-11.592-2.513-11.749-11.209-11.749-11.209s23.985-5.313 33.961 6.28c9.976 11.591 3.704 23.628 3.704 23.628Z"/>
  <path fill="#fff" d="M269.825 109.462a4.67 4.67 0 1 0 .001-9.339 4.67 4.67 0 0 0-.001 9.339Z"/>
  <path fill="#511500" d="M182.314 147.203h-.349c-9.641-.069-17.152-2.773-22.335-8.046-6.71-6.826-8.038-16.508-7.963-23.43.068-6.915 3.985-13.03 10.209-15.974 14.509-6.847 28.072-5.512 36.891-3.184 7.587 2 12.879 8.634 13.181 16.508.301 7.902-.849 18.871-8.011 26.258-5.06 5.218-12.339 7.861-21.623 7.861v.007Zm2.116-47.717c-6.19 0-13.222 1.171-20.507 4.608-4.553 2.15-7.408 6.628-7.463 11.688-.062 6.012 1.034 14.365 6.587 20.02 4.252 4.328 10.626 6.553 18.945 6.615 8.066.047 14.317-2.096 18.501-6.409 5.984-6.169 6.929-15.776 6.662-22.739-.219-5.751-4.081-10.592-9.613-12.051-3.609-.951-8.087-1.725-13.119-1.725l.007-.007Zm66.689 41.459c-6.553 0-12.099-1.74-16.549-5.19-8.128-6.307-10.805-17.008-11.62-24.875-.815-7.833 3.499-15.146 10.729-18.193 8.409-3.54 21.651-6.771 36.974-2.026 6.58 2.033 11.311 7.545 12.352 14.378 1.041 6.84 1.089 16.611-4.594 24.314-4.389 5.943-11.449 9.681-20.979 11.099-2.198.328-4.3.493-6.307.493h-.006Zm3.943-47.867c-7.874 0-14.604 1.958-19.52 4.025-5.272 2.219-8.415 7.56-7.819 13.284.719 6.936 2.999 16.316 9.791 21.581 4.745 3.677 11.208 4.937 19.212 3.745 8.23-1.225 14.228-4.327 17.83-9.209 4.71-6.381 4.615-14.803 3.711-20.746-.76-5.005-4.225-9.031-9.031-10.524-5.005-1.547-9.771-2.163-14.174-2.163v.007Z"/>
  <path fill="#511500" d="M209.182 110.476a2.401 2.401 0 0 1-1.527-4.252c5.087-4.183 10.01-4.382 13.242-3.807 3.444.609 5.683 2.171 5.929 2.349a2.398 2.398 0 0 1-2.793 3.896c-.288-.199-6.464-4.383-13.338 1.266a2.37 2.37 0 0 1-1.52.548h.007Z"/>
  <path fill="#F70" d="M146.778 395.199c35.107 0 63.567-28.46 63.567-63.567s-28.46-63.567-63.567-63.567c-35.108 0-63.568 28.46-63.568 63.567s28.46 63.567 63.568 63.567Z"/>
  <path fill="#FFAA2A" d="M139.459 282.409c35.111 0 63.567 28.463 63.567 63.567a63.512 63.512 0 0 1-3.718 21.466c6.964-10.196 11.044-22.527 11.044-35.81 0-35.111-28.462-63.567-63.567-63.567-27.572 0-51.044 17.556-59.849 42.102 11.448-16.755 30.702-27.758 52.523-27.758Z"/>
  <path fill="#511500" d="M146.778 397.602c-36.371 0-65.963-29.592-65.963-65.963 0-36.371 29.592-65.964 65.963-65.964 36.371 0 65.963 29.593 65.963 65.964 0 36.371-29.592 65.963-65.963 65.963Zm0-127.134c-33.728 0-61.17 27.443-61.17 61.171 0 33.728 27.442 61.17 61.17 61.17s61.171-27.442 61.171-61.17-27.443-61.171-61.171-61.171Z"/>
  <path fill="#511500" d="M86.696 351.556a2.394 2.394 0 0 1-2.02-3.683c8.038-12.578 22.164-22.588 40.849-28.935 18.85-6.409 40.657-8.477 63.067-5.992a163.946 163.946 0 0 1 19.891 3.444 2.402 2.402 0 0 1 1.78 2.883 2.4 2.4 0 0 1-2.883 1.78 159.944 159.944 0 0 0-19.315-3.341c-21.719-2.41-42.814-.418-60.999 5.765-17.399 5.909-31.017 15.495-38.357 26.977a2.392 2.392 0 0 1-2.02 1.109l.007-.007Z"/>
  <path fill="#511500" d="M161.65 397.506a2.394 2.394 0 0 1-1.65-.657c-20.473-19.459-45.362-50.38-47.696-87.216-1.411-22.26 6.052-35.974 6.374-36.549a2.397 2.397 0 0 1 3.259-.932 2.392 2.392 0 0 1 .932 3.253c-.069.13-7.169 13.29-5.759 34.241 1.301 19.405 10.373 49.689 46.19 83.725a2.4 2.4 0 0 1 .089 3.389 2.403 2.403 0 0 1-1.739.746Zm38.425-28.811c-.254 0-.514-.042-.767-.124-29.504-9.935-46.751-24.3-51.257-42.69-2.841-11.62-.397-24.916 7.08-38.453 5.58-10.099 11.907-16.727 12.174-17.008a2.4 2.4 0 0 1 3.389-.068 2.4 2.4 0 0 1 .069 3.389c-.301.315-24.266 25.697-18.049 51.017 4.095 16.686 20.288 29.9 48.127 39.274a2.395 2.395 0 0 1 1.507 3.033 2.4 2.4 0 0 1-2.273 1.63Zm-101.274 7.038a2.37 2.37 0 0 1-1.198-.321 2.395 2.395 0 0 1-.87-3.273c7.457-12.859 3.198-26.683 1.014-32.03-4.314-10.592-14.755-15.379-14.858-15.426a2.396 2.396 0 0 1-1.205-3.164 2.39 2.39 0 0 1 3.157-1.212c.5.219 12.283 5.574 17.343 18.001 2.444 6.005 7.216 21.554-1.308 36.248a2.388 2.388 0 0 1-2.075 1.191v-.014Z"/>
  <path fill="#FFA2BE" d="M440.649 298.335a12.166 12.166 0 0 1 7.319 5.567c.329-.609.644-1.212.938-1.794 3.554-6.915-.191-15.365-7.696-17.398-27.381-7.429-94.385-19.945-176.747 5.046-108.312 32.865-210.386 95.118-207.62 105.505.527 1.979 2.43 3.827 5.149 5.532 22.82-20.609 110.113-69.565 201.903-97.411 82.362-24.992 149.373-12.476 176.747-5.047h.007Z"/>
  <path fill="#FF4173" d="M440.649 298.335c-27.381-7.429-94.385-19.945-176.747 5.047-91.79 27.853-179.089 76.802-201.903 97.411 8.634 5.402 25.6 9.298 33.653 10.928 2.013.404 2.91 2.766 1.684 4.416-1.616 2.178-3.738 5.17-5.785 8.463-4.348 7.004-8.347 15.378-6.423 20.253.185.473.726.863 1.588 1.171 16.385 5.834 150.585-18.021 247.059-52.804 71.742-25.86 102.382-67.243 114.193-89.311a12.163 12.163 0 0 0-7.319-5.567v-.007Z"/>
  <path fill="#511500" d="M95.207 449.304c-9.825 0-11.605-1.781-12.317-3.574-3.034-7.669 5.135-21.103 12.516-31.024a.381.381 0 0 0 .054-.39.376.376 0 0 0-.294-.247c-17.261-3.492-38.322-9.483-40.643-18.192-.733-2.753.712-7.135 16.96-18.809 11.393-8.182 27.86-18.213 46.367-28.237 26.792-14.515 81.383-41.786 145.908-61.369 36.043-10.934 72.982-15.905 109.764-14.782 30.284.931 53.865 5.799 68.312 9.722a14.59 14.59 0 0 1 9.565 8.23c1.787 4.061 1.657 8.641-.37 12.578-11.852 23.054-42.745 65.697-116.453 92.263-45.326 16.337-104.142 32.085-161.355 43.197-23.978 4.656-45.902 8.087-61.718 9.648-7.052.698-12.332.986-16.303.986h.007Zm-7.963-5.629c3.704 2.075 30.544 1.075 88.702-10.421 55.837-11.037 113.064-26.449 157.015-42.293 72.16-26.012 102.279-67.518 113.816-89.949a9.8 9.8 0 0 0 .247-8.449 9.806 9.806 0 0 0-6.436-5.539c-25.211-6.847-92.776-20.055-175.426 5.026-62.889 19.082-116.425 45.635-142.738 59.767-18.446 9.907-34.42 19.507-46.19 27.764-15.44 10.839-16.898 14.639-17.035 15.194 1.15 3.553 11.455 9.448 36.926 14.597a5.175 5.175 0 0 1 3.82 3.232 5.186 5.186 0 0 1-.684 4.964c-8.799 11.818-13.352 21.746-12.01 26.107h-.007Z"/>
  <path fill="#511500" d="M77.076 392.173a2.39 2.39 0 0 1-1.978-1.041 2.4 2.4 0 0 1 .623-3.334c37.309-25.567 112.064-63.588 188.051-86.642 73.468-22.293 135.179-14.666 165.422-8.134a2.395 2.395 0 0 1 1.835 2.849 2.39 2.39 0 0 1-2.848 1.834c-29.791-6.436-90.585-13.947-163.019 8.032-75.495 22.91-149.722 60.643-186.73 86.004a2.34 2.34 0 0 1-1.356.418v.014Zm116.741-7.511-65.875 20.801s8.059 15.556 2 43.889c-.897 4.183 3.115 7.73 7.182 6.409 16.892-5.471 51.113-22.452 56.693-71.099Z"/>
  <path fill="#511500" d="M135.364 458.445c-1.938 0-3.821-.712-5.327-2.068-2.122-1.917-3.033-4.731-2.437-7.518 3.019-14.125 2.375-24.875 1.294-31.407-1.164-7.066-3.068-10.852-3.081-10.887a2.402 2.402 0 0 1 1.41-3.382l65.874-20.801a2.398 2.398 0 0 1 2.246.438c.63.514.952 1.315.856 2.123-2.499 21.759-10.845 39.65-24.82 53.187-11.612 11.249-24.635 17.042-33.523 19.918a8.137 8.137 0 0 1-2.499.397h.007Zm-4.197-51.483c2.081 5.656 5.943 20.35 1.116 42.897-.342 1.581.561 2.595.958 2.957a3.182 3.182 0 0 0 3.136.671c8.395-2.718 20.706-8.188 31.661-18.801 12.358-11.976 20.054-27.641 22.903-46.601l-59.781 18.877h.007Z"/>
  <path fill="#14BBE4" d="m377.411 331.632-38.733 16.282 13.413 49.442c12.27.411 20.246-5.751 25.32-12.694 27.86 4.197 33.461-19.137 33.461-19.137v-17.617l-33.461-16.283v.007Zm-103.17 39.48-51.523 56.261c27.257 5.416 44.464.473 55.248-7.018 43.074 7.929 51.667-25.149 51.667-25.149l2.122-24.094h-57.514Z"/>
  <path fill="#fff" d="M338.198 405.456c2.314 3.574 7.559 3.581 9.908.027 4.156-6.271 8.38-17.302 5.443-34.59-2.595-15.296 11.325-28.388 26.381-24.663 12.599 3.115 28.08 11.66 39.137 27.648 3.766 5.45 12.065 4.519 14.468-1.657 5.402-13.886 9.031-34.776-8.963-49.045-25.45-20.178-55.741-13.235-73.009-2.574-9.216 5.69-20.109 8.093-30.886 7.039-13.448-1.315-32.496-.096-51.414 11.557-30.763 18.953-38.035 69.195-75.447 92.831 0 0 44.314 1.582 65.717-32.146 19.85-31.284 60.904-21.835 78.658 5.566l.007.007Z"/>
  <path fill="#53D5F6" d="M233.015 385.621c-10.058 17.329-21.102 34.981-39.199 46.408 0 0 44.314 1.582 65.717-32.146 0 0 1.294-3.458-2.019-4.683-2.082-.767-9.374 4.156-14.523 7.942-1.664 1.219-3.93-.335-3.396-2.328 1.554-5.847 3.013-13.906.048-16.152-3.314-2.506-6.628.959-6.628.959Zm26.121-1.429c2.156-2.712 2.245-6.228.199-7.854-2.045-1.626-5.451-.746-7.606 1.966-2.156 2.711-2.245 6.228-.199 7.854 2.045 1.625 5.451.745 7.606-1.966Z"/>
  <path fill="#DCDFE2" d="M419.177 374.035c-11.057-16.083-26.6-24.676-39.246-27.805 0 0 23.896 2.342 36.295 10.414 12.4 8.073 21.192-2.882 21.192-2.882s-.377 8.565-3.622 18.219c-2.171 6.464-10.75 7.676-14.619 2.054Z"/>
  <path fill="#fff" d="M430.181 402.575c.557-4.264-1.678-8.071-4.993-8.504-3.314-.434-6.453 2.671-7.011 6.934-.557 4.263 1.678 8.071 4.993 8.504 3.314.434 6.453-2.671 7.011-6.934Zm31.889-27.426c1.351-4.082-.126-8.242-3.299-9.293-3.174-1.051-6.842 1.406-8.193 5.488-1.352 4.082.125 8.242 3.299 9.293 3.173 1.051 6.841-1.406 8.193-5.488Zm-95.285 45.055c.018-4.3-2.677-7.796-6.02-7.81-3.342-.014-6.067 3.46-6.085 7.759-.018 4.3 2.677 7.796 6.02 7.81 3.343.014 6.067-3.46 6.085-7.759Z"/>
  <path fill="#511500" d="M194.829 434.446c-.637 0-1.02-.014-1.095-.014a2.39 2.39 0 0 1-2.226-1.766 2.395 2.395 0 0 1 1.034-2.65c19.055-12.037 30.127-31.222 40.829-49.777 10.003-17.337 19.445-33.708 34.645-43.075 19.767-12.174 39.665-13.194 52.879-11.906 10.38 1.013 20.794-1.342 29.319-6.628 19.253-11.935 50.681-18.384 75.905 2.711 8.62 7.21 13.331 16.385 14.009 27.265.486 7.846-1.123 16.412-4.786 25.463a10.094 10.094 0 0 1-8.326 6.252c-3.745.383-7.354-1.294-9.449-4.396-13.084-19.404-31.078-25.601-38.206-27.36-6.244-1.541-12.797.164-17.535 4.56-4.793 4.45-7.004 10.941-5.909 17.37 1.753 10.332 1.226 19.637-1.561 27.669-1.506 4.327-5.108 7.395-9.647 8.203-4.588.821-9.093-.836-12.044-4.424-10.462-12.728-26.21-20.082-41.088-19.157-8.703.534-20.973 4.156-30.004 18.391-9.072 14.303-23.69 24.587-42.266 29.75-11.612 3.224-21.28 3.526-24.464 3.526l-.014-.007Zm117.33-104.82c-11.784 0-26.758 2.458-41.637 11.619-14.166 8.73-23.32 24.594-33.009 41.39-9.682 16.789-19.658 34.077-35.604 46.614 13.454-1.328 40.596-6.984 55.604-30.64 7.895-12.434 19.884-19.754 33.762-20.603 16.392-1.006 33.667 7.005 45.087 20.897 1.835 2.232 4.643 3.259 7.498 2.753 2.807-.5 5.032-2.39 5.964-5.06 2.526-7.258 2.985-15.769 1.369-25.293a24.024 24.024 0 0 1 7.374-21.684c5.93-5.505 14.132-7.634 21.945-5.704 7.668 1.897 27.011 8.552 41.027 29.333 1.116 1.657 2.978 2.513 4.977 2.314 2-.212 3.636-1.438 4.382-3.286 5.615-13.866 8.805-33.311-7.853-47.251-14.536-12.16-41.678-20.062-70.298-2.315-9.414 5.841-20.89 8.443-32.311 7.327a84.837 84.837 0 0 0-8.271-.404l-.006-.007Z"/>
  <path fill="#511500" d="M297.014 395.494c-2.547 15.556-15.118 28.093-29.736 33.077-8.99 3.28-18.761 3.965-28.258 3.492-5.457-.356-11.393-1.239-16.768-2.341-3.101-.685-2.239-5.245.931-4.704 20.37 3.793 44.684 3.684 59.945-12.311 4.821-5.039 8.607-11.27 10.75-17.918.589-1.849 3.389-1.253 3.136.705Z"/>
  <path fill="#511500" d="M290.516 423.949c-4.622 0-9.045-.513-12.982-1.239a2.397 2.397 0 1 1 .869-4.717c40.26 7.408 48.579-22.143 48.915-23.403a2.384 2.384 0 0 1 2.924-1.705 2.387 2.387 0 0 1 1.711 2.917c-.096.363-2.41 9.01-10.332 16.665-9.14 8.833-20.636 11.476-31.105 11.476v.006Zm96.774-57.322c-1.075 8.771-5.073 16.844-11.023 23.382-6.074 6.717-15.249 10.326-24.259 9.744a2.394 2.394 0 0 1-2.321-2.465 2.4 2.4 0 0 1 2.478-2.321c3.862 0 7.669-.576 11.14-2.041 11.106-4.519 16.789-16.193 20.445-26.956.623-2.095 3.725-1.52 3.533.664l.007-.007Z"/>
  <path fill="#511500" d="M383.86 387.565c-2.123 0-4.389-.165-6.813-.534a2.397 2.397 0 0 1-2.013-2.725 2.4 2.4 0 0 1 2.725-2.013c25.266 3.806 30.558-16.467 30.77-17.33a2.398 2.398 0 0 1 4.663 1.123c-.055.233-5.45 21.479-29.332 21.479Zm39.89 24.348a6.71 6.71 0 0 1-.91-.062c-4.622-.602-7.785-5.621-7.06-11.188.726-5.566 5.081-9.606 9.703-8.997 4.621.603 7.785 5.622 7.059 11.188-.336 2.588-1.459 4.937-3.164 6.621-1.595 1.575-3.601 2.438-5.621 2.438h-.007Zm-3.225-10.627c-.376 2.896.966 5.56 2.931 5.82 1.157.158 2.088-.582 2.547-1.034.931-.924 1.582-2.321 1.78-3.834.377-2.896-.965-5.56-2.93-5.813-1.972-.253-3.944 1.972-4.328 4.868v-.007Zm34.878-17.973a6.98 6.98 0 0 1-2.253-.363c-4.423-1.465-6.587-6.991-4.82-12.324.821-2.479 2.369-4.574 4.355-5.903 2.143-1.437 4.649-1.834 6.867-1.102 2.218.733 3.992 2.554 4.855 4.985.801 2.252.787 4.861-.028 7.34-.822 2.478-2.369 4.573-4.355 5.902-1.437.965-3.04 1.465-4.614 1.465h-.007Zm1.876-15.262c-.808 0-1.527.384-1.931.657-1.089.733-1.992 1.979-2.472 3.431-.917 2.773-.102 5.642 1.78 6.265 1.103.363 2.164-.178 2.691-.534 1.089-.733 1.993-1.979 2.472-3.431.479-1.451.507-2.992.062-4.224-.213-.603-.74-1.671-1.842-2.041a2.523 2.523 0 0 0-.76-.123Zm-96.549 62.321h-.027c-4.663-.02-8.429-4.601-8.408-10.216.014-2.608.828-5.08 2.307-6.963 1.589-2.02 3.828-3.177 6.156-3.177h.027c2.342.007 4.581 1.185 6.162 3.232 1.459 1.897 2.26 4.375 2.246 6.984-.013 2.608-.828 5.08-2.307 6.963-1.589 2.02-3.828 3.177-6.156 3.177Zm.028-15.57c-1.157 0-1.993.842-2.383 1.342-.808 1.034-1.28 2.499-1.287 4.026-.014 2.917 1.65 5.396 3.636 5.402h.006c1.158 0 1.993-.842 2.383-1.342.808-1.034 1.281-2.499 1.287-4.026.007-1.526-.452-2.999-1.253-4.039-.39-.507-1.218-1.363-2.382-1.363h-.007Z"/>
</svg>
