<svg width="86" height="91" viewBox="0 0 86 91" fill="none" xmlns="http://www.w3.org/2000/svg">
<mask id="mask0" mask-type="alpha" maskUnits="userSpaceOnUse" x="1" y="13" width="77" height="77">
<path d="M7.47289 25.1851L1.02368 21.959L13.0432 85.9631L77.9763 81.3858L73.6982 75.3694L61.607 63.2737L55.5301 58.9934L46.5994 60.1081L45.237 49.1928L37.3613 46.6486L37.4866 39.5787L23.346 43.3591L22.479 36.413L15.5329 37.28L7.47289 25.1851Z" fill="#E5E5E5"/>
</mask>
<g mask="url(#mask0)">
<path d="M20.321 25.3673L55.5944 20.9648C61.8715 20.1813 67.5951 24.6348 68.3786 30.9119L72.8487 66.7263C73.458 71.6085 69.9942 76.0602 65.1121 76.6696L24.7873 81.7026C19.9052 82.312 15.4534 78.8482 14.844 73.966L10.374 38.1516C9.5905 31.8745 14.044 26.1508 20.321 25.3673Z" fill="#FFD1E0" stroke="#FF74A1" stroke-width="2.5453"/>
<rect x="15.6536" y="23.9343" width="44.9547" height="44.9547" rx="8.90855" transform="rotate(-7.11443 15.6536 23.9343)" fill="#FFF4F8" stroke="#FF74A1" stroke-width="2.5453"/>
<path d="M24.6443 65.8711L17.1998 78.8934" stroke="#FF74A1" stroke-width="2.22714"/>
<path d="M24.6443 65.8711L17.1998 78.8934" stroke="#FF74A1" stroke-width="2.22714"/>
<path d="M61.3594 61.2891L71.7763 72.082" stroke="#FF74A1" stroke-width="2.22714"/>
</g>
<path d="M70.9002 74.6203L61.7108 63.1396L55.4571 58.9994L46.502 60.0266L45.3575 49.0749L37.7237 47.0192L37.2837 39.5321L23.014 43.8768L22.574 36.3897L17.1715 38.2098L14.0006 35.391L10.8591 33.0713" stroke="#FF74A1" stroke-width="2.5453"/>
<mask id="mask1" mask-type="alpha" maskUnits="userSpaceOnUse" x="9" y="0" width="76" height="71">
<path d="M31.7355 9.17212L12.3991 5.25376L80.5358 3.97296L81.6244 65.5933L74.8953 70.2805L65.0452 56.2993L59.7877 51.0449L50.7977 50.6195L51.3177 39.6318L43.9915 35.7812L45.3212 28.8363L30.7429 30.1486L31.0738 23.1565L24.581 22.8492C24.9592 14.8582 25.5532 12.884 31.7355 9.17212Z" fill="#E5E5E5"/>
</mask>
<g mask="url(#mask1)">
<path d="M30.8318 11.905L66.3391 13.5852C72.6578 13.8842 77.5377 19.2489 77.2387 25.5676L75.5327 61.6196C75.3002 66.5342 71.1276 70.3297 66.2131 70.0971L25.6209 68.1763C20.7063 67.9437 16.9108 63.7712 17.1434 58.8566L18.8494 22.8047C19.1484 16.4859 24.5131 11.606 30.8318 11.905Z" fill="#FFD1E0" stroke="#FF74A1" stroke-width="2.5453"/>
<rect x="26.4774" y="9.69662" width="44.9547" height="44.9547" rx="8.90855" transform="rotate(2.70923 26.4774 9.69662)" fill="#FFF4F8" stroke="#FF74A1" stroke-width="2.5453"/>
<path d="M28.1809 52.5518L18.6238 64.1129" stroke="#FF74A1" stroke-width="2.22714"/>
<path d="M28.1809 52.5518L18.6238 64.1129" stroke="#FF74A1" stroke-width="2.22714"/>
<path d="M65.1396 54.3008L73.5624 66.7128" stroke="#FF74A1" stroke-width="2.22714"/>
</g>
<path d="M24.8506 21.6562L31.3661 23.0875L30.9401 30.0924L45.4287 28.9393L44.0027 35.9547L51.5446 39.8753L50.6555 50.3852L59.6656 51.2901L66.2128 55.7212" stroke="#FF74A1" stroke-width="2.5453"/>
<path d="M8.65984 22.0191L18.2769 25.6923L18.3356 23.3189L15.0077 18.9662C13.5352 17.0403 10.7775 16.7258 8.91296 18.2223L8.65984 22.0191Z" fill="#FFD1E0" stroke="#FF74A1" stroke-width="1.3178"/>
<path d="M8.40332 18.8516V22.2711" stroke="#FF74A1" stroke-width="1.15308"/>
<mask id="mask2" mask-type="alpha" maskUnits="userSpaceOnUse" x="8" y="14" width="11" height="9">
<path d="M18.5325 22.4618L15.1129 14.1025C13.5931 14.1025 13.5931 14.1025 12.4532 14.6728C12.4532 14.6728 10.9334 15.0524 9.79359 16.1923C8.65374 17.3321 8.65374 18.6623 8.65374 18.6623L18.5325 22.4618Z" fill="#FF74A1"/>
</mask>
<g mask="url(#mask2)">
<path d="M24.6722 14.9509H14.6732C11.3981 14.9509 8.7431 17.6059 8.7431 20.881V31.4379C8.7431 33.9852 10.8081 36.0502 13.3554 36.0502H25.99C28.5373 36.0502 30.6023 33.9852 30.6023 31.4379V20.881C30.6023 17.6059 27.9473 14.9509 24.6722 14.9509Z" fill="#FFD1E0" stroke="#FF74A1" stroke-width="1.3178"/>
<rect x="-0.658902" y="0.658902" width="16.7299" height="16.7299" rx="4.61231" transform="matrix(-1 0 0 1 27.2838 13.5322)" fill="#FFF4F8" stroke="#FF74A1" stroke-width="1.3178"/>
</g>
<path d="M18.1528 22.2715L14.9232 14.1025C13.4034 14.1025 13.4034 14.1025 12.2636 14.6728C12.2636 14.6728 10.7438 15.0524 9.60393 16.1923C8.46407 17.3321 8.46407 18.6623 8.46407 18.6623L18.1528 22.2715Z" fill="#FFF4F8" stroke="#FF74A1" stroke-width="1.3178"/>
</svg>
