<svg width="554" height="132" viewBox="0 0 554 132" fill="none" xmlns="http://www.w3.org/2000/svg">
<path d="M12.7265 3.27265L119.274 3.27265C125.599 3.27265 130.727 8.40071 130.727 14.7265V50.8188C130.727 55.7389 126.739 59.7274 121.819 59.7274H10.1812C5.26115 59.7274 1.27265 55.7389 1.27265 50.8188L1.27265 14.7265C1.27265 8.40071 6.40071 3.27265 12.7265 3.27265Z" fill="#E1D3FF" stroke="#A074FF" stroke-width="2.5453"/>
<rect x="7.27265" y="1.27265" width="117.455" height="45.4547" rx="8.90855" fill="#FBF9FF" stroke="#A074FF" stroke-width="2.5453"/>
<path d="M121.137 45.8154L128.773 55.9966" stroke="#A074FF" stroke-width="2.22714"/>
<path d="M10.636 45.8154L3.00009 55.9966" stroke="#A074FF" stroke-width="2.22714"/>
<path d="M54.6492 28.7559C56.4539 28.7559 57.6023 27.8066 57.6023 26.3184C57.6023 25.2461 56.7527 24.3789 55.6394 24.3203V24.209C56.5418 24.0859 57.2156 23.3125 57.2156 22.4102C57.2156 21.0918 56.2078 20.3008 54.532 20.3008H51.1336V28.7559H54.6492ZM53.2254 21.8184H53.9109C54.6668 21.8184 55.0594 22.1465 55.0594 22.7793C55.0594 23.3359 54.6199 23.6816 53.9109 23.6816H53.2254V21.8184ZM53.2254 27.209V25.1113H53.9109C54.8836 25.1113 55.3582 25.4453 55.3582 26.1309C55.3582 26.8926 54.9305 27.209 53.9109 27.209H53.2254ZM64.9851 25.1523V23.9043C64.9851 21.543 63.7254 20.1309 61.616 20.1309C59.5066 20.1309 58.2469 21.543 58.2469 23.9043V25.1523C58.2469 27.5137 59.5066 28.9258 61.616 28.9258C63.7254 28.9258 64.9851 27.5137 64.9851 25.1523ZM61.616 27.1445C60.8015 27.1445 60.4324 26.5117 60.4324 25.1289V23.9277C60.4324 22.5449 60.8015 21.9121 61.616 21.9121C62.4305 21.9121 62.7996 22.5449 62.7996 23.9277V25.1289C62.7996 26.5117 62.4305 27.1445 61.616 27.1445ZM72.4031 25.1523V23.9043C72.4031 21.543 71.1433 20.1309 69.034 20.1309C66.9246 20.1309 65.6648 21.543 65.6648 23.9043V25.1523C65.6648 27.5137 66.9246 28.9258 69.034 28.9258C71.1433 28.9258 72.4031 27.5137 72.4031 25.1523ZM69.034 27.1445C68.2195 27.1445 67.8504 26.5117 67.8504 25.1289V23.9277C67.8504 22.5449 68.2195 21.9121 69.034 21.9121C69.8484 21.9121 70.2176 22.5449 70.2176 23.9277V25.1289C70.2176 26.5117 69.8484 27.1445 69.034 27.1445ZM73.3933 20.3008V28.7559H75.5437V26.2773H76.575C78.532 26.2773 79.7508 25.1348 79.7508 23.3008C79.7508 21.4434 78.5906 20.3008 76.7039 20.3008H73.3933ZM75.5437 21.9355H76.159C77.1433 21.9355 77.5769 22.3516 77.5769 23.2891C77.5769 24.2266 77.1433 24.6426 76.159 24.6426H75.5437V21.9355Z" fill="#A074FF"/>
<path d="M409.726 3.27265L539.273 3.27265C545.599 3.27265 550.727 8.40071 550.727 14.7265V50.8188C550.727 55.7389 546.739 59.7274 541.819 59.7274H407.181C402.261 59.7274 398.273 55.7389 398.273 50.8188V14.7265C398.273 8.40071 403.401 3.27265 409.726 3.27265Z" fill="#E1D3FF" stroke="#A074FF" stroke-width="2.5453"/>
<rect x="405.273" y="1.27265" width="139.455" height="45.4547" rx="8.90855" fill="#FBF9FF" stroke="#A074FF" stroke-width="2.5453"/>
<path d="M540 45.8154L547.636 55.9966" stroke="#A074FF" stroke-width="2.22714"/>
<path d="M407.898 45.8154L400.262 55.9966" stroke="#A074FF" stroke-width="2.22714"/>
<path d="M472.359 23.2188C470.773 23.2188 469.789 24.5078 469.781 26.5703C469.781 26.7422 469.797 26.9062 469.812 27.0859H471.977C471.977 26.1328 472.227 25.6953 472.742 25.6953C473.031 25.6953 473.234 25.8203 473.633 26.2188C474.406 26.9766 474.961 27.2578 475.688 27.2578C477.258 27.2578 478.227 25.9375 478.234 23.8828C478.234 23.7266 478.219 23.5625 478.203 23.3828H476.055C476.039 24.3203 475.797 24.7734 475.289 24.7734C475.023 24.7734 474.789 24.6406 474.406 24.2656C473.609 23.4844 473.086 23.2188 472.359 23.2188Z" fill="#A074FF"/>
<mask id="path-11-inside-1" fill="white">
<path fill-rule="evenodd" clip-rule="evenodd" d="M155.506 2.58301C148.478 2.58301 142.78 8.28085 142.78 15.3095V51.1161C142.78 56.7391 147.338 61.2973 152.961 61.2973H193V120.819C193 126.442 197.558 131 203.181 131H238.819C244.442 131 249 126.442 249 120.819V53.2328C249.144 52.55 249.22 51.8419 249.22 51.1161V15.3095C249.22 8.28085 243.522 2.58301 236.494 2.58301L155.506 2.58301Z"/>
</mask>
<path fill-rule="evenodd" clip-rule="evenodd" d="M155.506 2.58301C148.478 2.58301 142.78 8.28085 142.78 15.3095V51.1161C142.78 56.7391 147.338 61.2973 152.961 61.2973H193V120.819C193 126.442 197.558 131 203.181 131H238.819C244.442 131 249 126.442 249 120.819V53.2328C249.144 52.55 249.22 51.8419 249.22 51.1161V15.3095C249.22 8.28085 243.522 2.58301 236.494 2.58301L155.506 2.58301Z" fill="#FFDBC0"/>
<path d="M193 61.2973H195.545V58.752H193V61.2973ZM249 53.2328L246.51 52.7062L246.455 52.9666V53.2328H249ZM145.325 15.3095C145.325 9.68658 149.883 5.12831 155.506 5.12831V0.0377085C147.072 0.0377085 140.234 6.87512 140.234 15.3095H145.325ZM145.325 51.1161V15.3095H140.234V51.1161H145.325ZM152.961 58.752C148.744 58.752 145.325 55.3333 145.325 51.1161H140.234C140.234 58.1448 145.932 63.8426 152.961 63.8426V58.752ZM193 58.752H152.961V63.8426H193V58.752ZM195.545 120.819V61.2973H190.455V120.819H195.545ZM203.181 128.455C198.964 128.455 195.545 125.036 195.545 120.819H190.455C190.455 127.847 196.153 133.545 203.181 133.545V128.455ZM238.819 128.455H203.181V133.545H238.819V128.455ZM246.455 120.819C246.455 125.036 243.036 128.455 238.819 128.455V133.545C245.847 133.545 251.545 127.847 251.545 120.819H246.455ZM246.455 53.2328V120.819H251.545V53.2328H246.455ZM246.675 51.1161C246.675 51.6639 246.618 52.1955 246.51 52.7062L251.49 53.7593C251.671 52.9045 251.766 52.0199 251.766 51.1161H246.675ZM246.675 15.3095V51.1161H251.766V15.3095H246.675ZM236.494 5.12831C242.117 5.12831 246.675 9.68659 246.675 15.3095H251.766C251.766 6.87512 244.928 0.0377085 236.494 0.0377085V5.12831ZM155.506 5.12831L236.494 5.12831V0.0377085L155.506 0.0377085V5.12831Z" fill="#FFAE74" mask="url(#path-11-inside-1)"/>
<path d="M158.181 1.40937L232.843 1.40937C237.763 1.40937 241.751 5.39786 241.751 10.3179V38.0687C241.751 42.9887 237.763 46.9772 232.843 46.9772H158.181C153.261 46.9772 149.273 42.9887 149.273 38.0686V10.3179C149.273 5.39786 153.261 1.40937 158.181 1.40937Z" fill="#FFDBC0" stroke="#FFAE74" stroke-width="2.5453"/>
<mask id="path-14-inside-2" fill="white">
<path fill-rule="evenodd" clip-rule="evenodd" d="M198 50.2498C198 49.1453 197.105 48.2498 196 48.2498H158.181C152.558 48.2498 148 43.6916 148 38.0686V10.3179C148 4.69499 152.558 0.136719 158.181 0.136719L206.344 0.136719C206.454 0.136719 206.563 0.127333 206.671 0.111262C207.164 0.0379727 207.668 0 208.181 0L232.819 0C237.864 0 242.053 3.67036 242.86 8.48678C242.968 9.0808 243.024 9.69278 243.024 10.3179V38.0687C243.024 38.3048 243.016 38.5391 243 38.7713V107.819C243 113.442 238.442 118 232.819 118H208.181C202.558 118 198 113.442 198 107.819V50.2498Z"/>
</mask>
<path fill-rule="evenodd" clip-rule="evenodd" d="M198 50.2498C198 49.1453 197.105 48.2498 196 48.2498H158.181C152.558 48.2498 148 43.6916 148 38.0686V10.3179C148 4.69499 152.558 0.136719 158.181 0.136719L206.344 0.136719C206.454 0.136719 206.563 0.127333 206.671 0.111262C207.164 0.0379727 207.668 0 208.181 0L232.819 0C237.864 0 242.053 3.67036 242.86 8.48678C242.968 9.0808 243.024 9.69278 243.024 10.3179V38.0687C243.024 38.3048 243.016 38.5391 243 38.7713V107.819C243 113.442 238.442 118 232.819 118H208.181C202.558 118 198 113.442 198 107.819V50.2498Z" fill="#FFF9F5"/>
<path d="M242.86 8.48678L240.349 8.90731L240.352 8.92447L240.355 8.9416L242.86 8.48678ZM243 38.7713L240.461 38.5982L240.455 38.6846V38.7713H243ZM206.671 0.111262L206.296 -2.40635L206.296 -2.40635L206.671 0.111262ZM196 45.7045H158.181V50.7951H196V45.7045ZM158.181 45.7045C153.964 45.7045 150.545 42.2858 150.545 38.0686H145.455C145.455 45.0973 151.153 50.7951 158.181 50.7951V45.7045ZM150.545 38.0686V10.3179H145.455V38.0686H150.545ZM150.545 10.3179C150.545 6.10072 153.964 2.68202 158.181 2.68202V-2.40858C151.153 -2.40858 145.455 3.28926 145.455 10.3179H150.545ZM158.181 2.68202L206.344 2.68202V-2.40858L158.181 -2.40858V2.68202ZM207.045 2.62887C207.415 2.57396 207.794 2.5453 208.181 2.5453V-2.5453C207.542 -2.5453 206.913 -2.49801 206.296 -2.40635L207.045 2.62887ZM208.181 2.5453L232.819 2.5453V-2.5453L208.181 -2.5453V2.5453ZM232.819 2.5453C236.601 2.5453 239.745 5.29692 240.349 8.90731L245.37 8.06626C244.361 2.04379 239.128 -2.5453 232.819 -2.5453V2.5453ZM240.355 8.9416C240.436 9.38625 240.479 9.84602 240.479 10.3179H245.569C245.569 9.53954 245.499 8.77535 245.364 8.03197L240.355 8.9416ZM240.479 10.3179V38.0687H245.569V10.3179H240.479ZM240.479 38.0687C240.479 38.247 240.472 38.4236 240.461 38.5982L245.539 38.9443C245.559 38.6546 245.569 38.3626 245.569 38.0687H240.479ZM240.455 38.7713V107.819H245.545V38.7713H240.455ZM240.455 107.819C240.455 112.036 237.036 115.455 232.819 115.455V120.545C239.847 120.545 245.545 114.847 245.545 107.819H240.455ZM232.819 115.455H208.181V120.545H232.819V115.455ZM208.181 115.455C203.964 115.455 200.545 112.036 200.545 107.819H195.455C195.455 114.847 201.153 120.545 208.181 120.545V115.455ZM200.545 107.819V50.2498H195.455V107.819H200.545ZM206.344 2.68202C206.599 2.68202 206.834 2.66022 207.045 2.62887L206.296 -2.40635C206.291 -2.40556 206.309 -2.40858 206.344 -2.40858V2.68202ZM196 50.7951C195.699 50.7951 195.455 50.551 195.455 50.2498H200.545C200.545 47.7395 198.51 45.7045 196 45.7045V50.7951Z" fill="#FFAE74" mask="url(#path-14-inside-2)"/>
<path d="M239.435 114L247.07 124.181" stroke="#FFAE74" stroke-width="2.22714"/>
<path d="M203.636 114L196 124.181" stroke="#FFAE74" stroke-width="2.22714"/>
<path d="M153.677 45.9521L146.042 56.1333" stroke="#FFAE74" stroke-width="2.22714"/>
<path d="M198 48L194 61" stroke="#FFAE74" stroke-width="2.22714"/>
<path d="M189.154 28.8926V25.9863L191.791 20.4375H189.5L188.141 23.8887H188.023L186.664 20.4375H184.373L187.01 25.9863V28.8926H189.154ZM195.5 27.252C194.768 27.252 194.381 26.7305 194.381 25.7461V20.4375H192.23V25.8633C192.23 27.8848 193.432 29.0625 195.5 29.0625C197.568 29.0625 198.77 27.8848 198.77 25.8633V20.4375H196.619V25.7461C196.619 26.7305 196.232 27.252 195.5 27.252ZM199.859 20.4375V28.8926H202.01V26.4141H203.041C204.998 26.4141 206.217 25.2715 206.217 23.4375C206.217 21.5801 205.057 20.4375 203.17 20.4375H199.859ZM202.01 22.0723H202.625C203.609 22.0723 204.043 22.4883 204.043 23.4258C204.043 24.3633 203.609 24.7793 202.625 24.7793H202.01V22.0723Z" fill="#FFAE74"/>
<path d="M12.7265 73.7189H73.714C80.0398 73.7189 85.1679 78.847 85.1679 85.1728V120.979C85.1679 125.899 81.1794 129.888 76.2593 129.888H10.1812C5.26115 129.888 1.27265 125.899 1.27265 120.979L1.27265 85.1728C1.27265 78.847 6.40071 73.7189 12.7265 73.7189Z" fill="#D8F3FF" stroke="#28B3EE" stroke-width="2.5453"/>
<rect x="6.98115" y="71.2726" width="72.4786" height="45.5678" rx="8.90855" fill="#F2FBFF" stroke="#28B3EE" stroke-width="2.5453"/>
<path d="M76.655 115.815L84.2909 125.997" stroke="#28B3EE" stroke-width="2.22714"/>
<path d="M10.8979 115.815L3.26205 125.997" stroke="#28B3EE" stroke-width="2.22714"/>
<path d="M31.9258 93.9277L32.541 98.7559H34.375L35.582 90.3008H33.6602L33.4492 92.9375L33.2559 96.1719H33.1387L32.6582 92.2344H31.0879L30.6074 96.1719H30.4902L30.2969 92.9375L30.0859 90.3008H28.1641L29.3711 98.7559H31.2051L31.8203 93.9277H31.9258ZM42.6602 95.1523V93.9043C42.6602 91.543 41.4004 90.1309 39.291 90.1309C37.1816 90.1309 35.9219 91.543 35.9219 93.9043V95.1523C35.9219 97.5137 37.1816 98.9258 39.291 98.9258C41.4004 98.9258 42.6602 97.5137 42.6602 95.1523ZM39.291 97.1445C38.4766 97.1445 38.1074 96.5117 38.1074 95.1289V93.9277C38.1074 92.5449 38.4766 91.9121 39.291 91.9121C40.1055 91.9121 40.4746 92.5449 40.4746 93.9277V95.1289C40.4746 96.5117 40.1055 97.1445 39.291 97.1445ZM46.4512 95.7969L47.875 98.7559H50.2891L48.625 95.4805C49.5098 95.0938 50.0664 94.1738 50.0664 93.0898C50.0664 91.3438 48.8828 90.3008 46.9082 90.3008H43.6621V98.7559H45.8125V95.7969H46.4512ZM45.8125 91.9238H46.6035C47.3887 91.9238 47.8691 92.3691 47.8691 93.084C47.8691 93.8164 47.3828 94.2793 46.6094 94.2793H45.8125V91.9238ZM50.9512 90.3008V98.7559H53.9277C56.3008 98.7559 57.5312 97.2852 57.5312 94.4434C57.5312 91.7422 56.2773 90.3008 53.9277 90.3008H50.9512ZM53.1016 92.0293H53.5996C54.7773 92.0293 55.3398 92.8262 55.3398 94.4844C55.3398 96.2539 54.8125 97.0273 53.5996 97.0273H53.1016V92.0293Z" fill="#28B3EE"/>
<path d="M409.726 73.7189H470.714C477.04 73.7189 482.168 78.847 482.168 85.1728V120.979C482.168 125.899 478.179 129.888 473.259 129.888H407.181C402.261 129.888 398.273 125.899 398.273 120.979V85.1728C398.273 78.847 403.401 73.7189 409.726 73.7189Z" fill="#D8F3FF" stroke="#28B3EE" stroke-width="2.5453"/>
<rect x="403.981" y="71.2726" width="72.4786" height="45.5678" rx="8.90855" fill="#F2FBFF" stroke="#28B3EE" stroke-width="2.5453"/>
<path d="M473.655 115.815L481.291 125.997" stroke="#28B3EE" stroke-width="2.22714"/>
<path d="M407.898 115.815L400.262 125.997" stroke="#28B3EE" stroke-width="2.22714"/>
<path d="M433.082 97.1582C433.891 97.1582 434.547 96.4961 434.547 95.6934C434.547 94.8906 433.891 94.2285 433.082 94.2285C432.273 94.2285 431.617 94.8906 431.617 95.6934C431.617 96.4961 432.273 97.1582 433.082 97.1582ZM440.5 97.1582C441.309 97.1582 441.965 96.4961 441.965 95.6934C441.965 94.8906 441.309 94.2285 440.5 94.2285C439.691 94.2285 439.035 94.8906 439.035 95.6934C439.035 96.4961 439.691 97.1582 440.5 97.1582ZM447.918 97.1582C448.727 97.1582 449.383 96.4961 449.383 95.6934C449.383 94.8906 448.727 94.2285 447.918 94.2285C447.109 94.2285 446.453 94.8906 446.453 95.6934C446.453 96.4961 447.109 97.1582 447.918 97.1582Z" fill="#28B3EE"/>
<path d="M270.726 3.27265L305.774 3.27265C312.099 3.27265 317.227 8.40071 317.227 14.7265V50.8188C317.227 55.7389 313.239 59.7274 308.319 59.7274H268.181C263.261 59.7274 259.273 55.7389 259.273 50.8188V14.7265C259.273 8.40071 264.401 3.27265 270.726 3.27265Z" fill="#FFD1E0" stroke="#FF74A1" stroke-width="2.5453"/>
<rect x="265.273" y="1.27265" width="45.4547" height="45.4547" rx="8.90855" fill="#FFF4F8" stroke="#FF74A1" stroke-width="2.5453"/>
<path d="M307 45.8154L314.636 55.9966" stroke="#FF74A1" stroke-width="2.22714"/>
<path d="M268.898 45.8154L261.262 55.9966" stroke="#FF74A1" stroke-width="2.22714"/>
<path d="M284.738 24.1855H284.85L286.168 26.9746H288.365L285.699 21.8008H283.895L281.229 26.9746H283.432L284.738 24.1855ZM292.156 24.1855H292.268L293.586 26.9746H295.783L293.117 21.8008H291.312L288.646 26.9746H290.85L292.156 24.1855Z" fill="#FF74A1"/>
<path d="M270.726 73.2726H305.774C312.099 73.2726 317.227 78.4007 317.227 84.7265V120.819C317.227 125.739 313.239 129.727 308.319 129.727H268.181C263.261 129.727 259.273 125.739 259.273 120.819V84.7265C259.273 78.4007 264.401 73.2726 270.726 73.2726Z" fill="#E1D3FF" stroke="#A074FF" stroke-width="2.5453"/>
<rect x="265.273" y="71.2726" width="45.4547" height="45.4547" rx="8.90855" fill="#FBF9FF" stroke="#A074FF" stroke-width="2.5453"/>
<path d="M307 115.815L314.636 125.997" stroke="#A074FF" stroke-width="2.22714"/>
<path d="M268.898 115.815L261.262 125.997" stroke="#A074FF" stroke-width="2.22714"/>
<path d="M288.16 95.6523V94.4043C288.16 92.043 286.9 90.6309 284.791 90.6309C282.682 90.6309 281.422 92.043 281.422 94.4043V95.6523C281.422 98.0137 282.682 99.4258 284.791 99.4258C286.9 99.4258 288.16 98.0137 288.16 95.6523ZM284.791 97.6445C283.977 97.6445 283.607 97.0117 283.607 95.6289V94.4277C283.607 93.0449 283.977 92.4121 284.791 92.4121C285.605 92.4121 285.975 93.0449 285.975 94.4277V95.6289C285.975 97.0117 285.605 97.6445 284.791 97.6445ZM291.178 99.2559V96.8652L291.822 95.9688L293.721 99.2559H296.164L293.316 94.5332L296.064 90.8008H293.885L291.283 94.4336H291.178V90.8008H289.168V99.2559H291.178Z" fill="#A074FF"/>
<path d="M505.726 73.2726H540.774C547.099 73.2726 552.227 78.4007 552.227 84.7265V120.819C552.227 125.739 548.239 129.727 543.319 129.727H503.181C498.261 129.727 494.273 125.739 494.273 120.819V84.7265C494.273 78.4007 499.401 73.2726 505.726 73.2726Z" fill="#FFD1E0" stroke="#FF74A1" stroke-width="2.5453"/>
<rect x="500.273" y="71.2726" width="45.4547" height="45.4547" rx="8.90855" fill="#FFF4F8" stroke="#FF74A1" stroke-width="2.5453"/>
<path d="M513 93.896C513 88.9907 517.789 85 523.675 85C529.562 85 534.351 88.9907 534.351 93.896C534.351 98.8012 529.562 102.792 523.694 102.792C522.778 102.808 521.864 102.704 520.975 102.482L516.004 104.506C515.898 104.549 515.784 104.571 515.669 104.571C515.544 104.571 515.42 104.545 515.305 104.494C515.191 104.442 515.088 104.367 515.005 104.274C514.921 104.18 514.858 104.07 514.821 103.951C514.783 103.831 514.77 103.705 514.785 103.58L515.27 99.383C513.86 97.8978 513.052 95.9428 513 93.896V93.896ZM520.055 94.6646L523.642 98.312C523.651 98.3209 523.663 98.3259 523.676 98.3259C523.689 98.3259 523.701 98.3209 523.71 98.312L527.295 94.6646C527.752 94.2231 528.031 93.6299 528.081 92.9968C528.13 92.3636 527.946 91.7342 527.564 91.2272C527.328 90.9361 527.027 90.7042 526.686 90.55C526.345 90.3958 525.972 90.3236 525.598 90.3391C525.223 90.3547 524.858 90.4576 524.53 90.6396C524.203 90.8216 523.923 91.0777 523.712 91.3873C523.708 91.3932 523.703 91.398 523.696 91.4013C523.69 91.4047 523.683 91.4064 523.676 91.4064C523.669 91.4064 523.662 91.4047 523.656 91.4013C523.65 91.398 523.645 91.3932 523.641 91.3873C523.43 91.0777 523.15 90.8216 522.822 90.6396C522.495 90.4576 522.129 90.3547 521.755 90.3391C521.381 90.3236 521.008 90.3958 520.667 90.55C520.325 90.7042 520.025 90.9361 519.789 91.2272C519.406 91.7338 519.221 92.3631 519.27 92.9963C519.319 93.6296 519.598 94.223 520.055 94.6646V94.6646Z" fill="#FF74A1"/>
<path d="M542 115.815L549.636 125.997" stroke="#FF74A1" stroke-width="2.22714"/>
<path d="M503.898 115.815L496.262 125.997" stroke="#FF74A1" stroke-width="2.22714"/>
<path d="M339.726 3.27265L375.274 3.27265C381.599 3.27265 386.727 8.40071 386.727 14.7265V120.819C386.727 125.739 382.739 129.727 377.819 129.727H337.181C332.261 129.727 328.273 125.739 328.273 120.819V14.7265C328.273 8.40071 333.401 3.27265 339.726 3.27265Z" fill="#F3D4CA" stroke="#CD8B77" stroke-width="2.5453"/>
<rect x="334.273" y="1.27265" width="45.4547" height="115.455" rx="8.90855" fill="#FFF5F1" stroke="#CD8B77" stroke-width="2.5453"/>
<path d="M376 116L383.636 126.181" stroke="#CD8B77" stroke-width="2.22714"/>
<path d="M337.898 116L330.262 126.181" stroke="#CD8B77" stroke-width="2.22714"/>
<path d="M358.641 27.2559H360.732L359.238 25.4805C359.648 25.0117 359.941 24.0918 359.941 23.2715V22.8789H358.371V23.1074C358.371 23.5527 358.312 23.9102 358.219 24.0391L357.117 22.7559C358.002 22.1816 358.5 21.4199 358.5 20.6406C358.5 19.457 357.609 18.6309 356.332 18.6309C354.99 18.6309 354.053 19.457 354.053 20.6406C354.053 21.3145 354.357 21.9531 355.014 22.6445L354.645 22.8672C353.748 23.4062 353.32 24.127 353.32 25.082C353.32 26.4355 354.416 27.4258 355.922 27.4258C356.76 27.4258 357.58 27.1504 358.148 26.6875L358.641 27.2559ZM356.273 20.0605C356.637 20.0605 356.906 20.3301 356.906 20.7051C356.906 21.0801 356.654 21.4844 356.256 21.7832C355.863 21.3965 355.641 21.0039 355.641 20.7051C355.641 20.3301 355.91 20.0605 356.273 20.0605ZM355.664 23.875L355.805 23.7754L357.27 25.5156C356.982 25.7793 356.625 25.9141 356.203 25.9141C355.57 25.9141 355.113 25.4805 355.113 24.8711C355.113 24.4785 355.324 24.0918 355.664 23.875Z" fill="#CD8B77"/>
<path d="M108.726 73.7189H169.714C176.04 73.7189 181.168 78.847 181.168 85.1728V120.979C181.168 125.899 177.179 129.888 172.259 129.888H106.181C101.261 129.888 97.2726 125.899 97.2726 120.979V85.1728C97.2726 78.847 102.401 73.7189 108.726 73.7189Z" fill="#B0FFD9" stroke="#1DE384" stroke-width="2.5453"/>
<rect x="103.273" y="71.2726" width="72.4786" height="45.5678" rx="8.90855" fill="#F3FFF9" stroke="#1DE384" stroke-width="2.5453"/>
<path d="M143.8 99.2004C143.4 98.8004 143.4 98.2004 143.8 97.8004C145.4 96.2004 145.4 93.7004 143.8 92.1004C143.4 91.7004 143.4 91.1004 143.8 90.7004C144.2 90.3004 144.8 90.3004 145.2 90.7004C147.5 93.0004 147.5 96.8004 145.2 99.2004C144.9 99.6004 144.2 99.6004 143.8 99.2004Z" fill="#1DE384"/>
<path d="M142 88.0002C142 87.2002 141.1 86.7002 140.4 87.2002L134.7 91.0002H132C131.4 91.0002 131 91.4002 131 92.0002V98.0002C131 98.6002 131.4 99.0002 132 99.0002H134.7L140.4 102.8C141.1 103.2 142 102.8 142 102V88.0002Z" fill="#1DE384"/>
<path d="M172.655 115.815L180.291 125.997" stroke="#1DE384" stroke-width="2.22714"/>
<path d="M106.898 115.815L99.2621 125.997" stroke="#1DE384" stroke-width="2.22714"/>
</svg>
