<svg xmlns="http://www.w3.org/2000/svg" width="24" height="25" viewBox="0 0 24 25">
  <path fill="none" stroke="#161E2E" stroke-linecap="round" stroke-linejoin="round" stroke-width="1.8" d="M9.2,6.6 L7.6,6.6 C6.7163444,6.6 6,7.3163444 6,8.2 L6,17.8 C6,18.6836556 6.7163444,19.4 7.6,19.4 L15.6,19.4 C16.4836556,19.4 17.2,18.6836556 17.2,17.8 L17.2,8.2 C17.2,7.3163444 16.4836556,6.6 15.6,6.6 L14,6.6 M9.2,6.6 C9.2,7.4836556 9.9163444,8.2 10.8,8.2 L12.4,8.2 C13.2836556,8.2 14,7.4836556 14,6.6 M9.2,6.6 C9.2,5.7163444 9.9163444,5 10.8,5 L12.4,5 C13.2836556,5 14,5.7163444 14,6.6"/>
</svg>
