<svg width="280" height="280" viewBox="0 0 280 280" fill="none" xmlns="http://www.w3.org/2000/svg">
    <rect x="1.5" y="1.5" width="277" height="277" rx="69.5" stroke="currentColor" stroke-width="2" />
    <mask id="mask0" mask-type="alpha" maskUnits="userSpaceOnUse" x="3" y="3" width="274" height="274">
        <rect x="3" y="3" width="274" height="274" rx="68" fill="#C4C4C4" />
    </mask>
    <g mask="url(#mask0)">
        <path
            d="M147.291 144.346C147.532 143.931 147.532 136.463 147.291 136.048C147.051 135.633 140.587 131.899 140.106 131.899C139.624 131.899 133.161 135.633 132.92 136.048C132.679 136.463 132.679 143.931 132.92 144.346C133.161 144.761 139.624 148.495 140.106 148.495C140.587 148.495 147.051 144.761 147.291 144.346Z"
            stroke="currentColor" stroke-width="3" />
        <path
            d="M153.29 147.208C153.697 146.453 153.232 133.02 152.776 132.281C152.32 131.551 140.446 125.236 139.591 125.27C138.728 125.303 127.327 132.422 126.921 133.186C126.514 133.941 126.979 147.374 127.435 148.113C127.892 148.843 139.765 155.158 140.62 155.124C141.483 155.091 152.884 147.972 153.29 147.208Z"
            stroke="currentColor" stroke-width="3" />
        <path
            d="M159.48 149.69C160.028 148.57 158.709 129.203 158.012 128.166C157.315 127.129 139.881 118.59 138.637 118.673C137.4 118.756 121.278 129.585 120.731 130.705C120.183 131.825 121.502 151.192 122.199 152.229C122.896 153.266 140.33 161.804 141.574 161.721C142.81 161.638 158.933 150.81 159.48 149.69Z"
            stroke="currentColor" stroke-width="3" />
        <path
            d="M165.803 151.83C166.476 150.344 163.978 125.078 163.032 123.759C162.086 122.431 138.952 111.96 137.326 112.117C135.708 112.283 115.072 127.078 114.408 128.563C113.736 130.049 116.234 155.315 117.18 156.634C118.126 157.962 141.259 168.433 142.886 168.276C144.504 168.11 165.14 153.315 165.803 151.83Z"
            stroke="currentColor" stroke-width="3" />
        <path
            d="M172.226 153.713C173.006 151.863 169.089 120.739 167.878 119.137C166.658 117.536 137.749 105.372 135.758 105.62C133.758 105.869 108.766 124.821 107.986 126.68C107.206 128.53 111.122 159.654 112.334 161.256C113.554 162.857 142.462 175.021 144.454 174.773C146.453 174.524 171.446 155.572 172.226 153.713Z"
            stroke="currentColor" stroke-width="3" />
        <path
            d="M178.681 155.457C179.569 153.233 174.101 116.292 172.616 114.417C171.122 112.541 136.405 98.8089 134.032 99.1574C131.667 99.5059 102.41 122.706 101.53 124.938C100.642 127.162 106.11 164.103 107.596 165.978C109.089 167.853 143.806 181.586 146.18 181.237C148.544 180.889 177.802 157.689 178.681 155.457Z"
            stroke="currentColor" stroke-width="3" />
        <path
            d="M185.129 157.19C186.116 154.593 179.096 111.852 177.337 109.703C175.578 107.554 135.053 92.2533 132.314 92.7097C129.568 93.1578 96.0622 120.598 95.0831 123.203C94.0957 125.8 101.115 168.541 102.875 170.69C104.634 172.839 145.159 188.14 147.897 187.684C150.644 187.236 184.149 159.796 185.129 157.19Z"
            stroke="currentColor" stroke-width="3" />
        <path
            d="M191.518 159.058C192.605 156.087 184.174 107.53 182.15 105.099C180.117 102.676 133.849 85.6988 130.73 86.2382C127.618 86.7858 89.7809 118.366 88.694 121.337C87.607 124.307 96.0373 172.865 98.0619 175.296C100.095 177.719 146.362 194.696 149.482 194.157C152.594 193.609 190.431 162.028 191.518 159.058Z"
            stroke="currentColor" stroke-width="3" />
        <path
            d="M197.807 161.198C199.019 157.871 189.427 103.447 187.145 100.734C184.863 98.012 132.937 79.1101 129.452 79.7241C125.958 80.3381 83.624 115.86 82.4043 119.196C81.1928 122.523 90.7848 176.947 93.0667 179.66C95.3485 182.382 147.275 201.284 150.76 200.67C154.253 200.056 196.587 164.534 197.807 161.198Z"
            stroke="currentColor" stroke-width="3" />
        <path
            d="M203.939 163.762C205.3 160.078 194.936 99.7213 192.43 96.701C189.916 93.6807 132.472 72.4721 128.597 73.1359C124.722 73.7997 77.6332 112.948 76.2724 116.632C74.9116 120.316 85.2752 180.673 87.7811 183.693C90.2953 186.713 147.739 207.922 151.614 207.258C155.489 206.594 202.578 167.446 203.939 163.762Z"
            stroke="currentColor" stroke-width="3" />
        <path
            d="M209.864 166.849C211.407 162.816 200.786 96.4519 198.064 93.1079C195.343 89.7557 132.563 65.7757 128.307 66.4561C124.05 67.1365 71.883 109.521 70.348 113.545C68.8046 117.578 79.4255 183.942 82.1472 187.286C84.8688 190.638 147.648 214.618 151.905 213.937C156.162 213.257 208.329 170.873 209.864 166.849Z"
            stroke="currentColor" stroke-width="3" />
        <path
            d="M215.547 170.549C217.298 166.193 207.009 93.7304 204.113 90.038C201.217 86.3456 133.318 59.0299 128.672 59.6854C124.025 60.3492 66.4149 105.488 64.6641 109.844C62.9133 114.201 73.2023 186.663 76.0982 190.356C78.9941 194.048 146.893 221.364 151.54 220.708C156.187 220.045 213.797 174.906 215.547 170.549Z"
            stroke="currentColor" stroke-width="3" />
        <path
            d="M220.924 174.906C222.924 170.243 213.614 91.6317 210.577 87.5659C207.54 83.5001 134.804 52.2597 129.759 52.8571C124.722 53.4545 61.2954 100.817 59.2873 105.489C57.2876 110.152 66.5975 188.763 69.6344 192.829C72.6713 196.895 145.408 228.135 150.453 227.538C155.49 226.94 218.916 179.578 220.924 174.906Z"
            stroke="currentColor" stroke-width="3" />
        <path
            d="M225.944 179.942C228.234 174.988 220.592 90.1955 217.448 85.7314C214.303 81.2673 137.044 45.4964 131.609 45.9859C126.166 46.4755 56.5656 95.4976 54.2672 100.451C51.9771 105.405 59.6192 190.198 62.764 194.662C65.9087 199.126 143.168 234.897 148.602 234.407C154.046 233.918 223.646 184.896 225.944 179.942Z"
            stroke="currentColor" stroke-width="3" />
        <path
            d="M230.583 185.601C233.205 180.382 227.878 89.4241 224.667 84.5452C221.455 79.6662 140.023 38.8006 134.19 39.1408C128.356 39.481 52.251 89.5652 49.629 94.7927C47.007 100.012 52.334 190.97 55.5452 195.849C58.7564 200.728 140.189 241.594 146.022 241.253C151.855 240.913 227.961 190.829 230.583 185.601Z"
            stroke="currentColor" stroke-width="3" />
        <path
            d="M234.823 191.816C237.801 186.348 235.412 89.291 232.167 83.9805C228.923 78.6618 143.674 32.2036 137.45 32.3612C131.227 32.5106 48.3676 83.1093 45.3888 88.5774C42.4099 94.0455 44.7996 191.102 48.044 196.413C51.2883 201.732 136.538 248.19 142.761 248.032C148.984 247.883 231.844 197.284 234.823 191.816Z"
            stroke="currentColor" stroke-width="3" />
        <path
            d="M238.681 198.454C242.05 192.762 243.095 89.7142 239.851 83.9556C236.607 78.1971 147.881 25.7647 141.276 25.6983C134.662 25.6319 44.8909 76.2472 41.5304 81.9393C38.1615 87.6315 37.116 190.679 40.3604 196.438C43.6048 202.196 132.331 254.629 138.936 254.695C145.549 254.761 235.32 204.146 238.681 198.454Z"
            stroke="currentColor" stroke-width="3" />
        <path
            d="M242.216 205.383C245.983 199.492 250.837 90.5692 247.617 84.3626C244.39 78.156 152.494 19.4838 145.507 19.1768C138.521 18.8615 41.7627 69.1116 37.9956 75.0112C34.2285 80.9025 29.3744 189.825 32.5939 196.032C35.8216 202.238 127.717 260.91 134.704 261.217C141.69 261.533 238.449 211.282 242.216 205.383Z"
            stroke="currentColor" stroke-width="3" />
        <path
            d="M245.51 212.436C249.684 206.354 258.554 91.6893 255.368 85.0347C252.181 78.38 157.323 13.3685 149.963 12.7959C142.612 12.2234 38.8752 61.8761 34.7016 67.9583C30.5279 74.0404 21.6577 188.705 24.844 195.359C28.0303 202.014 122.888 267.026 130.248 267.598C137.6 268.171 241.336 218.518 245.51 212.436Z"
            stroke="currentColor" stroke-width="3" />
        <path
            d="M248.688 219.431C253.268 213.166 266.163 92.8759 263.018 85.7815C259.873 78.6787 162.152 7.36927 154.436 6.53951C146.719 5.71805 36.0955 54.6904 31.5236 60.9634C26.9433 67.2281 14.0488 187.518 17.1936 194.613C20.3384 201.715 118.059 273.025 125.776 273.855C133.493 274.676 244.116 225.704 248.688 219.431Z"
            stroke="currentColor" stroke-width="3" />
        <path
            d="M251.916 226.201C256.878 219.746 273.597 93.8965 270.494 86.3706C267.382 78.8447 166.758 1.43649 158.684 0.366106C150.611 -0.704283 33.2661 47.737 28.2959 54.1925C23.3339 60.6481 6.61427 186.498 9.71756 194.023C12.8292 201.549 113.454 278.958 121.528 280.028C129.601 281.098 246.946 232.657 251.916 226.201Z"
            stroke="currentColor" stroke-width="3" />
        <path
            d="M255.351 232.574C260.678 225.92 280.824 94.5275 277.729 86.5867C274.634 78.6376 170.915 -4.50422 162.484 -5.79035C154.054 -7.08477 30.1959 41.1657 24.8606 47.8204C19.5336 54.475 -0.612972 185.867 2.48203 193.808C5.57703 201.757 109.297 284.899 117.727 286.185C126.158 287.479 250.016 239.229 255.351 232.574Z"
            stroke="currentColor" stroke-width="3" />
        <path
            d="M259.168 238.398C264.835 231.528 287.803 94.5349 284.683 86.1875C281.563 77.8402 174.408 -10.5457 165.621 -12.0144C156.834 -13.4914 26.711 35.1159 21.0437 41.9946C15.3765 48.865 -7.59124 185.858 -4.47135 194.205C-1.35145 202.553 105.804 290.939 114.591 292.407C123.378 293.884 253.501 245.277 259.168 238.398Z"
            stroke="currentColor" stroke-width="3" />
        <path
            d="M263.532 243.535C269.498 236.407 294.499 93.7056 291.313 84.9766C288.118 76.2475 177.038 -16.7601 167.886 -18.3616C158.726 -19.963 22.6451 29.7312 16.6791 36.8589C10.7132 43.9865 -14.2874 186.688 -11.1012 195.417C-7.90659 204.146 103.173 297.154 112.325 298.756C121.486 300.357 257.566 250.663 263.532 243.535Z"
            stroke="currentColor" stroke-width="3" />
        <path
            d="M268.577 247.85C274.792 240.432 300.888 91.8552 297.569 82.7611C294.258 73.6752 178.631 -23.2157 169.098 -24.8835C159.572 -26.5596 17.8491 25.1261 11.6342 32.5441C5.41935 39.9622 -20.6766 188.539 -17.3575 197.633C-14.0468 206.719 101.58 303.61 111.114 305.277C120.64 306.954 262.362 255.268 268.577 247.85Z"
            stroke="currentColor" stroke-width="3" />
        <path
            d="M274.386 251.244C280.8 243.494 306.92 88.86 303.419 79.4256C299.909 69.9996 179.055 -29.9449 169.131 -31.621C159.215 -33.2971 12.2316 21.4006 5.8259 29.1506C-0.588135 36.9005 -26.7089 191.534 -23.2074 200.969C-19.6975 210.395 101.157 310.339 111.081 312.015C120.996 313.691 267.98 258.994 274.386 251.244Z"
            stroke="currentColor" stroke-width="3" />
        <path
            d="M281.007 253.624C287.562 245.493 312.563 84.6276 308.787 74.8862C305.02 65.1449 178.208 -36.9403 167.886 -38.5418C157.564 -40.1515 5.75123 18.6286 -0.795565 26.7685C-7.35066 34.9001 -32.3513 195.765 -28.5759 205.507C-24.8088 215.248 102.003 317.333 112.325 318.935C122.648 320.544 274.46 261.764 281.007 253.624Z"
            stroke="currentColor" stroke-width="3" />
        <path
            d="M288.425 254.945C295.047 246.382 317.74 79.1438 313.641 69.1203C309.534 59.1051 176.051 -44.1667 165.322 -45.627C154.593 -47.0791 -1.59215 16.887 -8.21362 25.4501C-14.8351 34.0132 -37.529 201.251 -33.43 211.275C-29.3227 221.29 104.161 324.561 114.889 326.022C125.618 327.474 281.804 263.508 288.425 254.945Z"
            stroke="currentColor" stroke-width="3" />
        <path
            d="M296.565 255.177C303.203 246.149 322.412 72.4557 317.915 62.1915C313.409 51.9274 172.599 -51.56 161.455 -52.7881C150.312 -54.0244 -9.71549 16.1815 -16.3536 25.2175C-22.9916 34.2453 -42.2005 207.939 -37.7032 218.203C-33.1977 228.467 107.612 331.954 118.756 333.182C129.9 334.419 289.927 264.213 296.565 255.177Z"
            stroke="currentColor" stroke-width="3" />
        <path
            d="M305.302 254.355C311.891 244.813 326.528 64.6891 321.566 54.2092C316.604 43.7377 167.928 -59.003 156.369 -59.9406C144.819 -60.8865 -18.5025 16.505 -25.0908 26.039C-31.6791 35.5812 -46.316 215.705 -41.3541 226.185C-36.3921 236.657 112.284 339.397 123.843 340.335C135.393 341.281 298.714 263.889 305.302 254.355Z"
            stroke="currentColor" stroke-width="3" />
        <path
            d="M314.488 252.555C320.968 242.481 330.071 56.0099 324.594 45.3558C319.118 34.71 162.177 -66.4127 150.221 -66.9935C138.255 -67.5827 -27.7875 17.7746 -34.2762 27.8395C-40.7567 37.9128 -49.8591 224.384 -44.3827 235.039C-38.9063 245.684 118.034 346.807 129.991 347.388C141.956 347.977 307.999 262.62 314.488 252.555Z"
            stroke="currentColor" stroke-width="3" />
        <path
            d="M323.93 249.916C330.262 239.303 333.058 46.6497 327.034 35.8545C321.01 25.0676 155.573 -73.6819 143.209 -73.8562C130.854 -74.0387 -37.3878 19.865 -43.7189 30.4776C-50.0499 41.0903 -52.8462 233.744 -46.8222 244.539C-40.7981 255.326 124.639 354.075 137.003 354.249C149.358 354.432 317.599 260.528 323.93 249.916Z"
            stroke="currentColor" stroke-width="3" />
        <path
            d="M333.456 246.647C339.604 235.478 335.563 36.8758 328.967 25.9727C322.37 15.0697 148.353 -80.7342 135.617 -80.4687C122.88 -80.2115 -47.0962 22.5873 -53.2447 33.7476C-59.3932 44.9161 -55.3523 243.519 -48.7557 254.422C-42.1591 265.325 131.858 361.129 144.595 360.863C157.331 360.606 327.307 257.807 333.456 246.647Z"
            stroke="currentColor" stroke-width="3" />
        <path
            d="M342.89 243.004C348.823 231.297 337.704 26.9851 330.527 15.9908C323.358 4.99647 140.852 -87.5299 127.751 -86.8246C114.64 -86.111 -56.738 25.6823 -62.679 37.3902C-68.6118 49.0981 -57.4931 253.41 -50.3156 264.404C-43.1465 275.398 139.359 367.925 152.461 367.219C165.571 366.506 336.949 254.712 342.89 243.004Z"
            stroke="currentColor" stroke-width="3" />
        <path
            d="M352.076 239.304C357.793 227.065 339.654 17.2603 331.921 6.18303C324.179 -4.89424 133.41 -94.085 119.951 -92.9233C106.492 -91.7617 -66.1391 28.852 -71.8644 41.091C-77.5815 53.3299 -59.4429 263.134 -51.7096 274.212C-43.9679 285.289 146.802 374.48 160.261 373.318C173.719 372.156 346.35 251.543 352.076 239.304Z"
            stroke="currentColor" stroke-width="3" />
        <path
            d="M360.896 235.877C366.422 223.132 341.637 7.98387 333.365 -3.16809C325.084 -14.3283 126.373 -100.441 112.574 -98.8558C98.7754 -97.2627 -75.1585 31.7648 -80.6847 44.5181C-86.2109 57.2632 -61.4261 272.411 -53.1534 283.563C-44.8724 294.724 153.838 380.836 167.637 379.251C181.436 377.658 355.37 248.63 360.896 235.877Z"
            stroke="currentColor" stroke-width="3" />
        <path
            d="M369.268 233.08C374.629 219.846 343.903 -0.563107 335.124 -11.8229C326.345 -23.0828 120.1 -106.673 105.961 -104.706C91.822 -102.731 -83.6885 34.0876 -89.0571 47.314C-94.4173 60.5486 -63.6913 280.957 -54.9125 292.217C-46.1337 303.477 160.111 387.067 174.25 385.1C188.389 383.126 363.9 246.307 369.268 233.08Z"
            stroke="currentColor" stroke-width="3" />
        <path
            d="M377.126 231.246C382.387 217.555 346.691 -8.15594 337.464 -19.5485C328.245 -30.9411 114.923 -112.88 100.443 -110.59C85.9641 -108.299 -91.6623 35.4644 -96.9147 49.1472C-102.175 62.8382 -66.4792 288.549 -57.2522 299.942C-48.0336 311.334 165.289 393.273 179.768 390.983C194.248 388.693 371.874 244.929 377.126 231.246Z"
            stroke="currentColor" stroke-width="3" />
        <path
            d="M384.436 230.674C389.656 216.568 350.234 -14.5778 340.625 -26.1612C331.025 -37.7363 111.131 -119.169 96.3027 -116.638C81.475 -114.107 -98.9975 35.606 -104.225 49.7202C-109.444 63.8261 -70.0224 294.972 -60.4138 306.555C-50.8135 318.131 169.081 399.563 183.909 397.032C198.736 394.502 379.209 244.788 384.436 230.674Z"
            stroke="currentColor" stroke-width="3" />
        <path
            d="M391.149 231.645C396.435 217.149 354.739 -19.6725 344.824 -31.4883C334.908 -43.3124 108.965 -125.616 93.7803 -122.936C78.5875 -120.264 -105.66 34.2535 -110.938 48.7494C-116.223 63.2452 -74.5279 300.067 -64.6123 311.882C-54.6967 323.706 171.247 406.01 186.431 403.33C201.624 400.658 385.872 246.141 391.149 231.645Z"
            stroke="currentColor" stroke-width="3" />
    </g>
</svg>