<svg xmlns="http://www.w3.org/2000/svg" xmlns:xlink="http://www.w3.org/1999/xlink" viewBox="0 0 173 173">
  <defs>
    <polygon id="john-a" points=".928 .975 83.218 .975 83.218 59 .928 59" />
  </defs>
  <g fill="none" fill-rule="evenodd" transform="translate(6 3)">
    <g transform="translate(0 88.097)">
      <path fill="#FCC9AD"
        d="M34.5045,9.5463 L21.0805,2.2243 C9.7735,-3.9427 -3.2365,6.9403 0.8365,19.1583 C3.6265,27.5283 12.5145,32.2173 20.9975,29.7923 L34.5045,25.9343" />
      <path stroke="#E06A62" stroke-linecap="round" stroke-linejoin="round" stroke-width="6.145"
        d="M34.5045,9.5463 L21.0805,2.2243 C9.7735,-3.9427 -3.2365,6.9403 0.8365,19.1583 C3.6265,27.5283 12.5145,32.2173 20.9975,29.7923 L34.5045,25.9343" />
    </g>
    <path fill="#FCC9AD"
      d="M14.6344,97.6433 L28.3934,104.3263 C29.0374,104.8103 28.6964,105.8373 27.8894,105.8373 L26.3104,105.8373 C24.0474,105.8373 22.2134,107.6713 22.2134,109.9343" />
    <path fill="#E06A62"
      d="M15.0846,96.7175 C16.3456,97.0385 17.5656,97.4435 18.7726,97.8765 C19.9816,98.3035 21.1686,98.7785 22.3466,99.2695 C23.5246,99.7615 24.6896,100.2795 25.8406,100.8275 C27.0046,101.3485 28.1276,101.9545 29.2726,102.5135 C29.3776,102.5655 29.4766,102.6235 29.5676,102.6905 L29.6026,102.7145 C30.1366,103.1025 30.5786,103.8015 30.6816,104.5185 C30.7956,105.2375 30.6256,105.9335 30.2496,106.5145 C29.8836,107.0985 29.2236,107.5565 28.5356,107.7015 C28.3606,107.7445 28.1986,107.7585 28.0316,107.7665 C27.8136,107.7755 27.8556,107.7665 27.7766,107.7665 L27.4606,107.7535 L26.2466,107.6775 C26.0096,107.6445 25.7736,107.6765 25.5356,107.7175 C25.0506,107.7915 24.5826,108.0535 24.1796,108.4225 C23.7856,108.8055 23.4736,109.3105 23.3076,109.9345 L23.2736,110.0575 C23.1176,110.6455 22.5156,110.9955 21.9276,110.8395 C21.4886,110.7225 21.1826,110.3565 21.1196,109.9345 C20.9656,108.8715 21.1706,107.6955 21.7656,106.7065 C22.3366,105.7045 23.2726,104.8925 24.3836,104.4225 C24.9396,104.1965 25.5396,104.0455 26.1476,104.0085 C26.6686,103.9695 27.0176,103.9425 27.4606,103.9205 L27.7766,103.9075 C27.9756,103.9035 27.7736,103.8925 27.6466,103.9215 C27.3656,103.9715 27.0826,104.1745 26.9346,104.3965 C26.7796,104.6215 26.7166,104.8805 26.7516,105.1835 C26.7836,105.4845 26.9876,105.8015 27.1846,105.9385 L27.5126,106.1385 C26.3646,105.5845 25.1936,105.0765 24.0646,104.4835 C22.9226,103.9175 21.7956,103.3225 20.6806,102.7005 C19.5646,102.0775 18.4596,101.4385 17.3756,100.7515 C16.2886,100.0715 15.2166,99.3625 14.1846,98.5695 C13.7246,98.2155 13.6386,97.5555 13.9916,97.0955 C14.2556,96.7525 14.6896,96.6175 15.0846,96.7175" />
    <g transform="translate(125 88.097)">
      <path fill="#FCC9AD"
        d="M0.6412,9.5463 L14.0652,2.2243 C25.3712,-3.9427 38.3812,6.9403 34.3092,19.1583 C31.5192,27.5283 22.6302,32.2173 14.1472,29.7923 L0.6412,25.9343" />
      <path stroke="#E06A62" stroke-linecap="round" stroke-linejoin="round" stroke-width="6.145"
        d="M0.6412,9.5463 L14.0652,2.2243 C25.3712,-3.9427 38.3812,6.9403 34.3092,19.1583 C31.5192,27.5283 22.6302,32.2173 14.1472,29.7923 L0.6412,25.9343" />
    </g>
    <path fill="#FCC9AD"
      d="M145.5113,97.6433 L131.7523,104.3263 C131.1073,104.8103 131.4493,105.8373 132.2563,105.8373 L133.8343,105.8373 C136.0973,105.8373 137.9313,107.6713 137.9313,109.9343" />
    <path fill="#E06A62"
      d="M145.9606,98.5691 C144.9286,99.3621 143.8566,100.0721 142.7706,100.7521 C141.6866,101.4381 140.5796,102.0781 139.4656,102.7011 C138.3506,103.3231 137.2226,103.9181 136.0796,104.4831 C134.9506,105.0771 133.7806,105.5851 132.6336,106.1381 L132.9616,105.9381 C133.1566,105.8011 133.3606,105.4841 133.3936,105.1831 C133.4296,104.8811 133.3646,104.6221 133.2116,104.3961 C133.0636,104.1741 132.7796,103.9711 132.4996,103.9221 C132.3716,103.8921 132.1706,103.9031 132.3686,103.9081 L132.6846,103.9211 C133.1286,103.9421 133.4776,103.9691 133.9986,104.0081 C134.6056,104.0461 135.2046,104.1961 135.7626,104.4231 C136.8726,104.8921 137.8096,105.7051 138.3806,106.7071 C138.9746,107.6951 139.1806,108.8721 139.0246,109.9341 C138.9376,110.5361 138.3786,110.9531 137.7756,110.8651 C137.3266,110.7991 136.9816,110.4711 136.8716,110.0581 L136.8386,109.9341 C136.6726,109.3101 136.3586,108.8051 135.9666,108.4231 C135.5636,108.0531 135.0946,107.7921 134.6096,107.7171 C134.3706,107.6761 134.1366,107.6441 133.8976,107.6771 L132.6846,107.7541 L132.3686,107.7661 C132.2896,107.7661 132.3326,107.7751 132.1126,107.7661 C131.9466,107.7581 131.7846,107.7451 131.6096,107.7021 C130.9216,107.5561 130.2626,107.0981 129.8966,106.5141 C129.5196,105.9331 129.3506,105.2371 129.4636,104.5181 C129.5666,103.8011 130.0086,103.1021 130.5436,102.7151 L130.5676,102.6971 C130.6626,102.6291 130.7716,102.5641 130.8716,102.5131 C132.0186,101.9551 133.1406,101.3481 134.3046,100.8281 C135.4556,100.2791 136.6196,99.7611 137.7986,99.2691 C138.9776,98.7781 140.1636,98.3031 141.3736,97.8771 C142.5796,97.4431 143.7996,97.0391 145.0616,96.7171 C145.6236,96.5751 146.1956,96.9151 146.3386,97.4771 C146.4446,97.8961 146.2826,98.3211 145.9606,98.5691" />
    <path fill="#FCC9AD"
      d="M80.0729,0.072 L80.0729,0.072 C43.7399,0.072 16.2159,32.879 22.5299,68.659 L32.5809,125.612 C34.1389,134.448 39.0019,142.361 46.1789,147.745 L57.9499,156.572 C64.3319,161.359 72.0939,163.946 80.0729,163.946 C88.0509,163.946 95.8129,161.359 102.1959,156.572 L113.9659,147.745 C121.1439,142.361 126.0059,134.448 127.5649,125.612 L137.6159,68.659 C143.9289,32.879 116.4059,0.072 80.0729,0.072" />
    <path stroke="#E06A62" stroke-linecap="round" stroke-linejoin="round" stroke-width="6.145"
      d="M80.0729,0.072 L80.0729,0.072 C43.7399,0.072 16.2159,32.879 22.5299,68.659 L32.5809,125.612 C34.1389,134.448 39.0019,142.361 46.1789,147.745 L57.9499,156.572 C64.3319,161.359 72.0939,163.946 80.0729,163.946 C88.0509,163.946 95.8129,161.359 102.1959,156.572 L113.9659,147.745 C121.1439,142.361 126.0059,134.448 127.5649,125.612 L137.6159,68.659 C143.9289,32.879 116.4059,0.072 80.0729,0.072 Z" />
    <g transform="translate(38 111.097)">
      <mask id="john-b" fill="#fff">
        <use xlink:href="#john-a" />
      </mask>
      <path fill="#E06A62"
        d="M76.4811,7.8383 L82.8531,34.5973 C84.1881,40.2073 81.7831,46.0423 76.8821,49.0823 C55.5611,62.3053 28.5881,62.3063 7.2671,49.0843 L7.2631,49.0813 C2.3621,46.0423 -0.0429,40.2073 1.2931,34.5973 L7.6641,7.8383 C8.6221,3.8153 12.2161,0.9753 16.3531,0.9753 L67.7931,0.9753 C71.9281,0.9753 75.5231,3.8153 76.4811,7.8383"
        mask="url(#john-b)" />
    </g>
    <path fill="#4D2A2D"
      d="M59.5358,118.8386 C60.3578,119.4366 61.1668,120.0486 61.9598,120.6766 C62.3628,120.9846 62.7478,121.3106 63.1408,121.6266 L63.7288,122.1046 C63.8888,122.2246 64.0308,122.3216 64.1888,122.4186 C64.7978,122.8156 65.4658,123.0916 66.1478,123.2256 C66.4988,123.2886 66.8098,123.3416 67.1878,123.3566 L68.6638,123.4636 C70.6728,123.5936 72.6668,123.8306 74.6688,124.0086 L80.6528,124.7336 C82.6408,125.0246 84.6338,125.2796 86.6178,125.6016 L87.3618,125.7246 C87.6238,125.7706 87.7678,125.7746 87.9768,125.8046 C88.3638,125.8466 88.7878,125.8816 89.1918,125.8776 C90.0118,125.8776 90.8388,125.8466 91.6588,125.7116 C93.2928,125.4296 94.9128,124.8876 96.4078,124.0366 C97.1818,123.6096 97.8288,123.1436 98.6008,122.5356 C99.3878,121.9016 100.1918,121.2846 101.0058,120.6786 C101.7228,120.1446 102.7358,120.2926 103.2698,121.0086 C103.7078,121.5966 103.6858,122.3846 103.2698,122.9426 C102.6628,123.7566 102.0468,124.5616 101.4128,125.3476 C100.7688,126.1646 99.9138,127.0416 99.0428,127.7726 C97.2478,129.2316 95.1288,130.3456 92.8458,130.9606 C91.7068,131.2746 90.5288,131.4776 89.3408,131.5306 C88.7418,131.5686 88.1588,131.5646 87.5448,131.5366 C87.2538,131.5186 86.8948,131.5046 86.6598,131.4776 L85.9098,131.4016 C83.9118,131.1926 81.9218,130.9176 79.9268,130.6796 L73.9608,129.8136 C71.9788,129.4606 69.9908,129.1676 68.0158,128.7686 L66.5058,128.4776 C65.8868,128.3656 65.2138,128.1976 64.6078,127.9526 C63.3788,127.4686 62.2608,126.7486 61.3228,125.8626 C61.0948,125.6406 60.8688,125.3956 60.6708,125.1626 L60.1928,124.5746 C59.8768,124.1816 59.5508,123.7966 59.2428,123.3936 C58.6148,122.6006 58.0028,121.7916 57.4048,120.9696 C56.9088,120.2886 57.0588,119.3336 57.7408,118.8386 C58.2888,118.4396 59.0158,118.4606 59.5358,118.8386" />
    <path fill="#4D2A2D"
      d="M52.8932 120.9207C53.3182 119.8107 53.9282 119.0317 54.6842 118.3307 55.4322 117.6407 56.3082 117.0997 57.2572 116.7177 59.1352 115.9477 61.3702 115.7507 63.3152 116.6607 64.0472 117.0037 64.3632 117.8747 64.0202 118.6067 63.9012 118.8597 63.7192 119.0647 63.5012 119.2077L63.3152 119.3297C62.5342 119.8407 61.8362 120.1317 61.1582 120.4737 60.4782 120.7777 59.8192 121.0657 59.1472 121.3437 58.4752 121.6177 57.7862 121.8737 57.0522 122.1157 56.3272 122.3437 55.5212 122.6087 54.6692 122.6967L54.2862 122.7357C53.5482 122.8127 52.8882 122.2757 52.8122 121.5377 52.7892 121.3227 52.8222 121.1087 52.8932 120.9207M97.5924 118.6541C98.7254 118.2961 99.7134 118.2911 100.7344 118.4451 101.7384 118.6021 102.7074 118.9521 103.5974 119.4581 105.3674 120.4491 106.9114 122.0771 107.4084 124.1661 107.5964 124.9531 107.1104 125.7421 106.3234 125.9281 106.0514 125.9941 105.7784 125.9771 105.5294 125.8961L105.3194 125.8261C104.4334 125.5321 103.7714 125.1671 103.0804 124.8481 102.4194 124.5051 101.7854 124.1681 101.1494 123.8141 100.5164 123.4591 99.8874 123.0781 99.2414 122.6551 98.6134 122.2271 97.9044 121.7611 97.3054 121.1501L97.0354 120.8741C96.5174 120.3431 96.5274 119.4931 97.0574 118.9741 97.2114 118.8231 97.3994 118.7161 97.5924 118.6541" />
    <path fill="#E06A62"
      d="M63.9811 54.0564C61.2391 55.2414 58.6841 56.5174 56.3071 58.0354 53.9321 59.5504 51.7661 61.3144 49.7931 63.2674 47.8311 65.2334 46.0851 67.4134 44.5771 69.7894 43.0701 72.1694 41.8191 74.7334 40.6741 77.4734L40.6611 77.5044C40.3151 78.3324 39.3621 78.7244 38.5341 78.3784 37.9001 78.1144 37.5231 77.4924 37.5338657 76.8454 37.5981 73.5634 38.4411 70.2844 39.8331 67.2494 41.2211 64.2104 43.1741 61.4054 45.5531 59.0274 47.9241 56.6384 50.7441 54.7034 53.7851 53.3234 56.8221 51.9414 60.1101 51.1234 63.3891 51.1003467 64.2371 51.0934 64.9291 51.7764 64.9361312 52.6234 64.9401 53.2584 64.5591 53.8054 64.0111 54.0434L63.9811 54.0564zM96.7555 51.1002658C100.0355 51.1233 103.3235 51.9413 106.3605 53.3233 109.4015 54.7043 112.2215 56.6383 114.5925 59.0273 116.9715 61.4053 118.9235 64.2103 120.3125 67.2493 121.7045 70.2843 122.5465 73.5633 122.6115 76.8453 122.6295 77.7443 121.9145 78.4863 121.0175 78.5033 120.3305 78.5173 119.7355 78.1043 119.4845 77.5073L119.4715 77.4733C118.3265 74.7333 117.0745 72.1693 115.5675 69.7893 114.0605 67.4133 112.3145 65.2333 110.3525 63.2673 108.3795 61.3143 106.2125 59.5503 103.8385 58.0353 101.4615 56.5173 98.9055 55.2413 96.1645 54.0563L96.1355 54.0433C95.3575 53.7073 94.9985 52.8033 95.3355 52.0263 95.5875 51.4433 96.1585 51.0963 96.7555 51.1002658" />
    <path fill="#FCC9AD" d="M71.0963,109.9343 C74.7943,117.3303 85.3503,117.3303 89.0483,109.9343" />
    <path fill="#E06A62"
      d="M72.2193,109.3718 C73.4293,110.5968 74.6413,111.4998 75.9613,112.0898 C77.2733,112.6808 78.6673,112.9748 80.0733,112.9828 C81.4773,112.9768 82.8733,112.6778 84.1743,112.0738 C85.4903,111.4818 86.6813,110.5618 87.8553,109.3378 L87.9243,109.2658 C88.4473,108.7208 89.3133,108.7018 89.8583,109.2248 C90.2213,109.5718 90.3503,110.0748 90.2423,110.5308 C89.7433,112.6138 88.3813,114.5608 86.5333,115.9078 C84.6823,117.2548 82.3733,117.9808 80.0733,117.979816 C77.7713,117.9838 75.4613,117.2518 73.6203,115.8928 C71.7783,114.5448 70.4363,112.5798 69.9733,110.4958 C69.8183,109.7988 70.2573,109.1078 70.9543,108.9528 C71.4023,108.8528 71.8463,108.9988 72.1493,109.2998 L72.2193,109.3718 Z" />
    <path fill="#FFF"
      d="M23.7359,90.5691 L26.2079,104.1611 C26.6529,106.6131 28.6789,108.4651 31.1609,108.6911 L36.6219,109.1881 C45.9589,110.0371 55.3599,109.8791 64.6629,108.7151 C66.6659,108.4651 68.3739,107.1461 69.1239,105.2731 L76.1519,87.7021 C76.3439,87.2211 76.0359,86.6881 75.5239,86.6151 L63.9209,84.9581 C52.2519,83.2911 40.4279,82.9881 28.6899,84.0541 C25.4459,84.3491 23.1539,87.3641 23.7359,90.5691" />
    <polygon fill="#231F20" points="19.117 86.285 19.727 91.481 24.756 92.021 25.914 85.103" />
    <path fill="#FFF"
      d="M136.4088,90.5691 L133.9378,104.1611 C133.4918,106.6131 131.4658,108.4651 128.9838,108.6911 L123.5228,109.1881 C114.1858,110.0371 104.7858,109.8791 95.4818,108.7151 C93.4798,108.4651 91.7708,107.1461 91.0218,105.2731 L83.9938,87.7021 C83.8018,87.2211 84.1098,86.6881 84.6218,86.6151 L96.2248,84.9581 C107.8938,83.2911 119.7168,82.9881 131.4558,84.0541 C134.6998,84.3491 136.9918,87.3641 136.4088,90.5691" />
    <path fill="#231F20"
      d="M131.3385,83.4177 L132.6235,83.5797 C133.1175,83.6277 133.7435,83.8237 134.2145,84.1427 C134.7035,84.4597 135.1155,84.8997 135.4005,85.4167 C135.5455,85.6727 135.6535,85.9507 135.7315,86.2357 C135.7715,86.3787 135.7975,86.5237 135.8185,86.6707 L135.8645,87.0077 L136.1835,89.5797 L136.2625,90.2227 C136.2895,90.4367 136.3175,90.6887 136.3355,90.7197 C136.3835,90.8847 136.4935,91.0277 136.6375,91.1177 C136.7085,91.1627 136.7855,91.1927 136.8655,91.2087 C136.9635,91.2247 136.9655,91.2237 137.2415,91.2187 L138.5365,91.1937 L139.1475,91.1807 C139.2235,91.1737 139.2965,91.1537 139.3635,91.1217 C139.4985,91.0547 139.6095,90.9427 139.6615,90.8097 L140.3915,88.4847 L140.5845,87.8667 L140.6815,87.5577 C140.7085,87.4567 140.7045,87.4737 140.7095,87.4267 C140.7285,87.3027 140.6865,87.1827 140.6195,87.0777 C140.5435,86.9797 140.4495,86.9027 140.3365,86.8797 C140.2915,86.8667 140.3155,86.8757 140.2095,86.8567 L139.8885,86.8147 L139.2455,86.7307 L136.6775,86.3947 L131.5575,85.7427 C128.1565,85.3497 124.7445,85.0667 121.3275,84.8967 C114.4945,84.5737 107.6465,84.5757 100.8275,85.0917 C97.4135,85.3397 94.0295,85.7067 90.6225,86.1697 C87.1275,86.6297 83.6015,86.8897 80.0725,86.8797 C76.5445,86.8667 73.0185,86.6287 69.5235,86.1657 C66.1155,85.7047 62.7315,85.3407 59.3175,85.0957 C52.4985,84.5957 45.6505,84.5767 38.8175,84.9037 C35.4015,85.0787 31.9895,85.3647 28.5905,85.7627 L23.4715,86.4187 L20.9025,86.7587 L20.2615,86.8437 L19.9405,86.8857 C19.8345,86.9037 19.8595,86.8967 19.8175,86.9077 C19.7115,86.9317 19.6195,86.9967 19.5465,87.0907 C19.4845,87.1897 19.4435,87.3047 19.4615,87.4217 C19.4675,87.4677 19.4625,87.4477 19.4895,87.5497 L19.5865,87.8577 L19.7805,88.4767 L20.5125,90.7947 C20.5625,90.9217 20.6675,91.0267 20.7935,91.0907 C20.8585,91.1207 20.9275,91.1397 20.9995,91.1457 L21.6085,91.1577 L22.9035,91.1807 C23.1815,91.1857 23.1765,91.1867 23.2705,91.1717 C23.3455,91.1557 23.4185,91.1277 23.4855,91.0857 C23.6215,91.0007 23.7255,90.8657 23.7705,90.7097 C23.7865,90.6867 23.8155,90.4327 23.8405,90.2177 L23.9195,89.5747 L24.2345,87.0037 L24.2795,86.6647 C24.3015,86.5167 24.3285,86.3687 24.3695,86.2247 C24.4465,85.9357 24.5555,85.6537 24.7025,85.3947 C24.9895,84.8707 25.4065,84.4237 25.9025,84.1017 C26.3785,83.7777 27.0165,83.5767 27.5145,83.5287 L28.7995,83.3637 C29.3035,83.2997 29.7665,83.6557 29.8305,84.1607 C29.8935,84.6507 29.5575,85.1007 29.0765,85.1867 L27.8005,85.4107 C27.4425,85.4697 27.2415,85.5627 27.0045,85.7287 C26.7845,85.8877 26.6065,86.1027 26.4915,86.3437 C26.4315,86.4617 26.3925,86.5897 26.3635,86.7187 C26.3495,86.7827 26.3425,86.8497 26.3355,86.9147 L26.3095,87.2207 L26.0865,89.8017 L26.0295,90.4467 C26.0055,90.6607 26.0145,90.8407 25.9305,91.2367 C25.7745,91.9217 25.3565,92.5427 24.7795,92.9487 C24.4925,93.1527 24.1675,93.3057 23.8235,93.3957 C23.4985,93.4897 23.0575,93.4947 22.9035,93.4947 L21.6085,93.5177 L20.9225,93.5247 C20.5635,93.5177 20.2035,93.4437 19.8685,93.3097 C19.1995,93.0377 18.6305,92.5197 18.3095,91.8627 C18.1295,91.4767 18.0985,91.3177 18.0185,91.1107 L17.8035,90.5007 L17.3725,89.2787 L17.1565,88.6677 L17.0495,88.3627 C17.0145,88.2577 16.9415,88.0317 16.9165,87.8637 C16.7735,87.1297 16.9295,86.3457 17.3115,85.7077 C17.6985,85.0737 18.3235,84.5637 19.0525,84.3517 C19.2145,84.2947 19.4555,84.2557 19.5625,84.2367 L19.8815,84.1887 L20.5225,84.0897 L23.0825,83.6967 L28.2275,82.9277 C31.6805,82.4497 35.1495,82.0857 38.6275,81.8347 C45.5855,81.3097 52.5815,81.3427 59.5455,81.7957 C63.0245,82.0217 66.5145,82.3757 69.9555,82.8177 C73.3105,83.2407 76.6925,83.4467 80.0725,83.4377 C83.4525,83.4247 86.8345,83.2387 90.1905,82.8137 C93.6315,82.3737 97.1215,82.0227 100.5995,81.7997 C107.5635,81.3617 114.5605,81.3127 121.5165,81.8427 C124.9945,82.0977 128.4635,82.4657 131.9155,82.9457 L137.0595,83.7217 L139.6195,84.1177 L140.2595,84.2167 L140.5785,84.2667 C140.6855,84.2847 140.9235,84.3237 141.0845,84.3787 C141.8045,84.5917 142.4275,85.0917 142.8135,85.7207 C143.1915,86.3537 143.3455,87.1317 143.2025,87.8587 C143.1785,88.0257 143.1055,88.2487 143.0705,88.3547 L142.9625,88.6587 L142.7455,89.2707 L142.3135,90.4907 L142.0965,91.1017 C142.0165,91.3087 141.9845,91.4677 141.8075,91.8497 C141.4885,92.4977 140.9245,93.0097 140.2635,93.2777 C139.9325,93.4107 139.5765,93.4827 139.2225,93.4907 L138.5365,93.4807 L137.2415,93.4567 C137.0865,93.4567 136.6515,93.4517 136.3305,93.3567 C135.9915,93.2697 135.6705,93.1177 135.3875,92.9167 C134.8205,92.5157 134.4085,91.9017 134.2545,91.2277 C134.1725,90.8377 134.1815,90.6557 134.1565,90.4417 L134.1015,89.7967 L133.8815,87.2157 L133.8565,86.9087 C133.8495,86.8417 133.8415,86.7737 133.8255,86.7077 C133.7975,86.5747 133.7585,86.4427 133.6955,86.3207 C133.5775,86.0727 133.3945,85.8517 133.1685,85.6877 C132.9265,85.5167 132.7145,85.4187 132.3525,85.3597 L131.0765,85.1327 C130.6055,85.0487 130.2905,84.5987 130.3745,84.1267 C130.4555,83.6697 130.8835,83.3597 131.3385,83.4177" />
    <polygon fill="#231F20" points="141.028 86.285 140.418 91.481 135.389 92.021 134.232 85.103" />
    <path fill="#231F20"
      d="M69.4274 102.1765C69.7834 100.3425 70.2954 98.5725 70.8654 96.8255 71.4284 95.0745 72.0744 93.3595 72.7534 91.6555 73.1124 90.8115 73.4494 89.9595 73.8234 89.1215 74.0904 88.5745 74.1154 88.1685 73.9974 87.6435 73.8604 87.1555 73.5504 86.6625 73.0614 86.3675 72.7004 86.0795 71.5754 85.8725 70.7404 85.5435L70.7054 85.5305C70.2244 85.3405 69.9874 84.7965 70.1764 84.3155 70.3184 83.9565 70.6564 83.7345 71.0204 83.7225 71.4834 83.7075 71.9444 83.7005 72.4024 83.7085 72.7934 83.6975 73.4914 83.7435 74.0844 83.9445 75.3014 84.3385 76.3464 85.2935 76.8784 86.5055 77.1494 87.1095 77.3144 87.7775 77.3094 88.4565 77.3224 89.1125 77.1374 89.8635 76.9424 90.3815 76.6284 91.2435 76.2804 92.0915 75.9504 92.9475 75.2564 94.6445 74.5304 96.3275 73.7184 97.9775 72.9154 99.6305 72.0544 101.2605 71.0364 102.8265 70.7704 103.2365 70.2234 103.3525 69.8134 103.0855 69.5024 102.8845 69.3624 102.5195 69.4274 102.1765M89.109 102.8269C88.077 101.2229 87.2 99.5569 86.382 97.8679 85.556 96.1809 84.814 94.4619 84.106 92.7269L83.594 91.4199 83.338 90.7649 83.212 90.4369 83.152 90.2719 83.074 90.0279C82.632 88.7139 82.784 87.1999 83.479 86.0399 84.141 84.8629 85.321 84.0019 86.6 83.7539 87.297 83.6339 87.715 83.6569 88.187 83.6469 88.657 83.6409 89.13 83.6489 89.603 83.6659 90.12 83.6819 90.525 84.1149 90.508 84.6329 90.495 85.0339 90.228 85.3679 89.869 85.4899 89.417 85.6409 88.962 85.7839 88.505 85.9139 88.053 86.0499 87.534 86.1609 87.325 86.2829 86.788 86.5209 86.422 86.9799 86.229 87.4639 86.055 87.9599 86.041 88.4709 86.249 88.9189L87.302 91.4359C87.997 93.1759 88.658 94.9289 89.235 96.7159 89.82 98.4989 90.347 100.3059 90.717 102.1769 90.813 102.6549 90.502 103.1199 90.023 103.2149 89.658 103.2869 89.299 103.1209 89.109 102.8269" />
    <path fill="#231F20"
      d="M89.109,102.8269 C87.501,99.7999 86.049,96.7089 84.657,93.5959 C83.946,92.0449 83.293,90.4699 82.607,88.9079 C82.341,88.2869 82.112,88.0379 81.78,87.8709 C81.438,87.6849 80.795,87.6019 80.083,87.5969 C79.389,87.5909 78.775,87.6919 78.4,87.8909 C78.024,88.0859 77.792,88.3489 77.537,88.9079 C76.862,90.4729 76.204,92.0459 75.499,93.5989 C74.111,96.7159 72.673,99.8109 71.087,102.8469 C70.849,103.2999 70.29,103.4749 69.837,103.2379 C69.438,103.0299 69.255,102.5719 69.378,102.1559 C70.344,98.8699 71.461,95.6439 72.627,92.4389 C73.198,90.8319 73.817,89.2429 74.419,87.6479 C74.772,86.6199 75.65,85.4479 76.809,84.8679 C77.954,84.2699 79.086,84.1639 80.087,84.1479 C81.066,84.1619 82.175,84.2369 83.36,84.8429 C83.94,85.1449 84.484,85.6049 84.878,86.1139 C85.276,86.6219 85.537,87.1619 85.727,87.6479 C86.319,89.2469 86.943,90.8339 87.508,92.4429 C88.67,95.6509 89.772,98.8819 90.717,102.1769 C90.85,102.6399 90.583,103.1229 90.12,103.2559 C89.716,103.3719 89.297,103.1829 89.109,102.8269" />
    <path fill="#4D2A2D"
      d="M55.2272 107.3298L55.2272 107.3298C52.5552 107.5378 50.0962 105.8638 49.3092 103.3018 48.4302 100.4358 48.1952 97.4128 48.6222 94.4458 49.0032 91.7928 51.1742 89.7598 53.8462 89.5528 56.5182 89.3448 58.9772 91.0178 59.7642 93.5808 60.6442 96.4458 60.8782 99.4698 60.4522 102.4358 60.0702 105.0898 57.8992 107.1228 55.2272 107.3298M104.9186 107.3298L104.9186 107.3298C107.5906 107.5378 110.0486 105.8638 110.8356 103.3018 111.7156 100.4358 111.9506 97.4128 111.5226 94.4458 111.1416 91.7928 108.9716 89.7598 106.2986 89.5528 103.6266 89.3448 101.1676 91.0178 100.3816 93.5808 99.5016 96.4458 99.2666 99.4698 99.6936 102.4358 100.0756 105.0898 102.2456 107.1228 104.9186 107.3298" />
  </g>
</svg>