<?xml version="1.0" standalone="no"?>
<!DOCTYPE svg PUBLIC "-//W3C//DTD SVG 20010904//EN"
 "http://www.w3.org/TR/2001/REC-SVG-20010904/DTD/svg10.dtd">
<svg version="1.0" xmlns="http://www.w3.org/2000/svg"
 width="512.000000pt" height="512.000000pt" viewBox="0 0 512.000000 512.000000"
 preserveAspectRatio="xMidYMid meet">
<metadata>
Created by potrace 1.14, written by Peter Selinger 2001-2017
</metadata>
<g transform="translate(0.000000,512.000000) scale(0.100000,-0.100000)"
fill="#000000" stroke="none">
<path d="M0 2734 c0 -2235 1 -2386 17 -2380 57 22 277 81 383 102 240 49 398
65 697 71 538 11 957 -49 1544 -217 297 -86 546 -139 834 -177 188 -25 719
-25 895 0 250 35 408 76 619 158 l131 51 0 2389 0 2389 -2560 0 -2560 0 0
-2386z m4280 87 c110 -37 220 -100 305 -175 51 -46 58 -56 50 -74 -13 -28
-197 -252 -207 -252 -5 0 -49 24 -99 54 -117 71 -174 90 -274 90 -134 1 -205
-54 -205 -158 0 -46 3 -53 48 -96 51 -49 82 -64 326 -154 175 -65 270 -119
346 -195 97 -99 140 -209 140 -361 0 -204 -95 -370 -270 -473 -277 -162 -659
-124 -930 93 -91 72 -126 115 -114 140 18 38 205 240 223 240 10 0 40 -17 67
-39 117 -93 243 -141 367 -141 93 0 140 16 195 65 41 37 45 46 50 96 9 116
-40 157 -328 269 -170 67 -249 106 -326 163 -139 102 -204 230 -204 402 0 219
113 393 316 486 150 69 354 76 524 20z m-982 7 c15 -15 17 -310 2 -339 -10
-18 -23 -19 -220 -19 l-210 0 0 -736 c0 -488 -3 -742 -10 -755 -10 -18 -23
-19 -198 -19 -133 0 -192 4 -200 12 -9 9 -12 190 -12 755 l0 743 -208 0 c-148
0 -211 3 -220 12 -8 8 -12 61 -12 173 0 112 4 165 12 173 17 17 1259 17 1276
0z"/>
</g>
</svg>
