<svg width="163" height="152" viewBox="0 0 163 152" fill="none" xmlns="http://www.w3.org/2000/svg">
<path d="M77.6891 4.93134C78.223 7.87448 78.2512 10.9008 77.7738 14.0104C77.3158 17.0961 76.5742 20.1883 75.5489 23.2868C74.5235 26.3854 73.417 29.4373 72.2293 32.4427C71.1868 35.1493 70.2439 37.7584 69.4007 40.2702C69.2121 40.792 69.0224 41.303 68.8317 41.8032C66.4366 48.4939 63.9278 55.1413 61.3053 61.7453C60.8046 63.0856 60.2703 64.4183 59.7025 65.7435C58.9722 67.4128 58.2873 69.0996 57.6479 70.8036C57.0064 72.4861 56.5002 74.2097 56.1293 75.9744C58.1738 75.202 60.0917 74.147 61.8831 72.8092C62.8448 72.1447 63.8216 71.5225 64.8137 70.9424C65.6389 70.4446 66.4609 69.9144 67.2796 69.3516C68.7287 68.3104 70.2622 67.4577 71.8801 66.7934C72.2699 66.7546 72.5427 66.8586 72.6986 67.1056C72.8739 67.3287 72.9225 67.5972 72.8445 67.9112C72.7859 68.2013 72.6126 68.4373 72.3245 68.6191C68.8331 70.4544 65.4964 72.5257 62.3144 74.8331C60.4126 76.1599 58.4838 77.4348 56.5279 78.6577C54.5287 79.8849 53.0805 81.593 52.1832 83.7821C51.3121 85.5748 50.4897 87.1987 49.7161 88.6537C48.7194 90.5028 47.6554 92.6647 46.5242 95.1395C44.2532 99.5651 41.5089 104.618 38.2912 110.297C35.0973 115.995 32.3 120.845 29.8992 124.846C28.1441 128.083 26.1562 131.179 23.9355 134.134C21.7149 137.09 19.4217 139.976 17.056 142.792C16.705 143.221 16.3649 143.648 16.0356 144.075C15.2665 145.136 14.0685 146.283 12.4418 147.517C10.8151 148.751 9.10724 149.719 7.31827 150.422C5.50764 151.128 3.97549 151.226 2.72181 150.717C1.44864 150.231 0.791872 148.798 0.751515 146.418C1.86887 140.074 4.15342 133.81 7.60517 127.626C11.0569 121.442 15.2211 115.494 20.0976 109.781C24.9958 104.065 30.1298 98.7419 35.4998 93.8106C40.8937 88.8988 46.0664 84.512 51.0181 80.6503C51.9669 79.8559 52.7132 78.8957 53.2572 77.7698C56.7485 69.7888 59.9443 61.6951 62.8445 53.4886C64.5763 48.7012 66.3666 43.9517 68.2154 39.2401C68.6274 37.668 69.4153 35.3696 70.5792 32.3447C71.6195 29.6165 72.6697 26.6576 73.7297 23.4681C74.8092 20.2548 75.6267 17.1551 76.182 14.169C76.7569 11.1591 76.7978 8.60704 76.3048 6.5128C75.8117 4.41856 74.5215 3.10366 72.4341 2.56808C68.8328 2.42396 65.397 3.17101 62.1265 4.80924C58.8755 6.42366 55.8105 8.47882 52.9317 10.9747C50.0529 13.4706 47.3928 15.9666 44.9514 18.4627C44.6524 18.7549 44.3535 19.0472 44.0546 19.3394C40.8399 22.4156 37.9857 25.8167 35.4919 29.5428C33.0176 33.245 31.1409 37.2377 29.8619 41.5207C28.9406 44.1277 28.3746 46.7868 28.1636 49.498C27.9743 52.207 28.2518 54.6617 28.996 56.8622C29.7618 59.0604 31.1494 60.6937 33.1587 61.762C35.1874 62.8064 37.9831 62.9871 41.5456 62.304C44.8461 61.6251 47.3931 60.6276 49.1866 59.3116C51.0018 57.9934 52.9168 56.0309 54.9316 53.4243C55.0681 53.2576 55.2251 53.0779 55.4028 52.8852C55.6736 52.5302 55.9606 52.2282 56.2639 51.9792C56.5866 51.7065 56.9602 51.6146 57.3846 51.7035C57.5687 51.7945 57.6737 51.97 57.6996 52.2298C57.7471 52.4875 57.694 52.7225 57.5402 52.9347C55.3196 55.6712 52.8684 58.1791 50.1867 60.4586C48.4863 61.8309 46.5966 62.7301 44.5176 63.156C42.4601 63.5798 40.3768 63.853 38.2675 63.9758C38.051 63.9974 37.8225 64.0092 37.5821 64.0113C34.8232 64.1988 32.5192 63.5754 30.6704 62.1412C28.8193 60.6854 27.7112 58.5649 27.3462 55.7799C26.4816 50.8357 26.821 46.0121 28.3645 41.3091C29.9295 36.6039 32.0251 32.1739 34.6511 28.0191C36.6616 25.3691 39.0143 22.5319 41.7092 19.5076C44.4042 16.4832 47.3308 13.5889 50.489 10.8245C53.6451 8.0385 56.9235 5.71055 60.324 3.84065C63.7461 1.96859 67.1681 0.862054 70.5897 0.521032C72.1728 0.385127 73.6572 0.685546 75.0429 1.42229C76.4481 2.13522 77.3301 3.3049 77.6891 4.93134ZM49.6035 85.5483C49.5582 85.0935 49.4142 84.8563 49.1717 84.8368C48.9508 84.815 48.6758 84.9081 48.3465 85.1159C48.039 85.3215 47.7444 85.5477 47.4628 85.7945C47.2418 85.9914 47.0599 86.1408 46.9169 86.2425C40.5247 91.4507 34.429 97.0011 28.6299 102.894C22.8546 108.806 17.6617 115.185 13.0512 122.031C12.516 122.806 11.6667 124.159 10.5032 126.09C9.36129 128.02 8.16952 130.216 6.92785 132.68C5.66452 135.146 4.60477 137.57 3.7486 139.952C2.87292 142.358 2.46296 144.389 2.51872 146.045C2.55497 147.726 3.28984 148.735 4.72332 149.074C7.27658 148.797 9.54097 147.817 11.5165 146.133C13.4942 144.47 15.2933 142.662 16.9137 140.707C17.0892 140.492 17.2647 140.278 17.4402 140.064C22.7998 133.712 27.5273 126.832 31.6226 119.425C32.9942 116.949 34.3214 114.574 35.6042 112.303C40.4729 103.879 44.7569 95.8406 48.456 88.1888C48.456 88.1888 48.457 88.1996 48.4592 88.2213C48.5697 88.0134 48.6813 87.8164 48.794 87.6302C49.1667 86.9807 49.4365 86.2867 49.6035 85.5483Z" fill="black"/>
<path d="M83.0727 70.1397C83.1788 70.1072 83.2968 70.0845 83.4268 70.0716C83.7906 69.9916 84.1739 69.8877 84.5767 69.7601C85.7983 69.2884 86.9397 68.6716 88.0011 67.9097C88.4711 67.5785 88.9292 67.2376 89.3755 66.8869C89.865 66.532 90.3653 66.1759 90.8765 65.8187C90.9177 65.7928 90.9578 65.756 90.9968 65.7083C91.5253 65.3057 92.0949 64.9865 92.7057 64.7507C92.9591 64.6598 93.1713 64.7042 93.3423 64.884C93.4938 65.0877 93.5046 65.3053 93.3746 65.537C93.3204 65.6517 93.2532 65.7459 93.1731 65.8195C91.4575 67.259 89.6413 68.5664 87.7244 69.7417C86.715 70.3672 85.6516 70.8887 84.534 71.3063C83.6265 71.6373 82.6943 71.7193 81.7371 71.5522C81.6917 71.5349 81.6473 71.5284 81.604 71.5327C81.2921 71.4763 80.9901 71.408 80.6978 71.3278C79.7515 71.0503 79.0176 70.4891 78.496 69.6444C78.3618 69.3953 78.2471 69.1224 78.1519 68.8257C78.0264 68.4445 77.8273 68.0926 77.5546 67.7698C77.3835 67.59 77.1724 67.5564 76.9212 67.6689C76.7111 67.7555 76.527 67.8832 76.3688 68.052C75.4828 69.0371 74.7007 70.0773 74.0225 71.1729C73.0605 72.7122 72.0022 74.1628 70.8475 75.5246C70.6547 75.7844 70.451 76.0452 70.2366 76.3072C70.0589 76.4999 69.8694 76.6828 69.6679 76.856C69.5856 76.9079 69.5141 76.9588 69.4535 77.0086C69.2715 77.1579 69.0506 77.2456 68.7907 77.2715C68.507 77.2779 68.284 77.2345 68.1216 77.1413C67.6778 76.8575 67.4419 76.4654 67.4139 75.9652C67.3901 75.727 67.4 75.4963 67.4433 75.2733C67.4433 75.2733 67.4542 75.2722 67.4758 75.2701C67.5279 74.9149 67.6147 74.5782 67.736 74.2599C69.0256 71.1788 70.7113 68.3425 72.7932 65.751C73.2633 65.2011 73.7724 64.713 74.3204 64.2866C75.0656 63.6436 75.9416 63.3267 76.9486 63.3357C77.4986 63.3683 78.0498 63.4118 78.602 63.4662C78.6453 63.4618 78.6777 63.4586 78.6994 63.4564C78.9874 63.4934 79.231 63.6331 79.4301 63.8757C79.6271 64.0967 79.731 64.3706 79.7417 64.6976C79.7134 65.0723 79.6949 65.435 79.6861 65.7858C79.6753 65.8962 79.6644 66.0067 79.6535 66.1171C79.6448 66.2492 79.6361 66.3813 79.6274 66.5134C79.6057 66.7343 79.5948 66.9541 79.5947 67.1728C79.5901 68.0044 79.8671 68.6985 80.4256 69.2552C80.9841 69.812 81.6802 70.1035 82.514 70.1297C82.5573 70.1254 82.645 70.1276 82.7771 70.1363C82.842 70.1298 82.9406 70.131 83.0727 70.1397ZM74.7389 65.8524C74.6978 65.8784 74.6458 65.9054 74.583 65.9335C74.4162 66.0158 74.2202 66.1337 73.9949 66.2874C73.0569 67.1901 72.2857 68.2293 71.6811 69.405C70.9184 70.7496 70.1892 72.1017 69.4936 73.4614C69.3658 73.7148 69.2617 73.9876 69.1815 74.2799C69.1663 74.347 69.1512 74.4142 69.136 74.4813C69.0341 74.7758 69.1282 74.9523 69.4184 75.0108C69.4617 75.0065 69.5159 75.0011 69.5808 74.9947C69.6436 74.9665 69.6945 74.9286 69.7335 74.881C70.6152 74.0714 71.3669 73.1654 71.9888 72.1629C72.8771 70.7621 73.8239 69.3992 74.8291 68.0742C75.0415 67.7906 75.23 67.4875 75.3946 67.1649C75.4445 67.0068 75.4944 66.8488 75.5442 66.6907C75.5594 66.6236 75.5746 66.5565 75.5898 66.4893C75.6158 66.3118 75.5455 66.1547 75.3788 66.0183C75.2099 65.8601 74.9966 65.8048 74.7389 65.8524Z" fill="black"/>
<path d="M101.386 51.7798C102.876 51.5875 104.007 51.7373 104.777 52.2292C105.546 52.6994 106.02 53.2864 106.199 53.9902C106.377 54.6724 106.334 55.2344 106.072 55.6761C105.83 56.0939 105.431 56.1555 104.877 55.8608C104.823 55.7569 104.769 55.6529 104.714 55.5489C104.52 55.1309 104.283 54.728 104.003 54.3403C103.744 53.9288 103.397 53.6352 102.964 53.4597C102.49 53.3101 101.995 53.2829 101.48 53.378C100.161 53.5313 98.7251 53.9369 97.1722 54.5947C95.6388 55.2287 94.5157 56.1389 93.8028 57.3254C93.2437 58.5184 93.096 59.7798 93.3598 61.1095C93.6214 62.4176 94.1104 63.5936 94.8269 64.6377C96.2208 66.5546 97.5422 68.5116 98.7911 70.5087C99.2393 70.8358 99.7254 70.8858 100.25 70.6586C100.774 70.4314 101.238 70.1554 101.643 69.8307C101.682 69.7831 101.722 69.7463 101.764 69.7203C102.238 69.4325 103.176 68.7485 104.577 67.6683C106.061 66.5362 107.691 65.3349 109.467 64.0643C111.263 62.7699 112.848 61.7808 114.224 61.0969C115.597 60.3914 116.38 60.3462 116.572 60.9613C116.7 62.4577 117.33 63.3025 118.465 63.4956C119.622 63.6865 120.804 63.5906 122.012 63.2077C123.295 62.9049 124.57 62.5372 125.839 62.1045C127.492 61.568 129.154 61.129 130.826 60.7874C131.068 60.8069 131.221 60.912 131.284 61.1026C131.368 61.291 131.366 61.4881 131.277 61.6938C131.164 61.88 131.005 62.038 130.799 62.1679C130.592 62.2761 130.381 62.3626 130.169 62.4275C130.065 62.4816 129.971 62.5238 129.887 62.5541C127.013 63.5623 124.074 64.3583 121.07 64.942C120.561 65.102 120.172 65.3704 119.903 65.7471C119.633 66.1022 119.4 66.5082 119.205 66.965C119.027 67.3764 118.813 67.7586 118.564 68.1115C117.615 69.3433 116.518 70.4041 115.273 71.2937C114.575 71.7569 113.857 71.7957 113.119 71.4099C112.379 71.0026 111.978 70.3864 111.918 69.5613C111.948 68.5521 112.156 67.5582 112.539 66.5795C112.71 66.1032 112.859 65.6181 112.985 65.1244C112.996 64.3578 112.367 64.3002 111.098 64.9516C109.848 65.5792 108.378 66.524 106.689 67.786C104.997 69.0263 103.502 70.1594 102.205 71.1855C101.189 71.9647 100.538 72.4561 100.252 72.6595C98.5711 74.2268 97.1413 76.0097 95.9626 78.0081C94.9854 79.6146 93.8653 81.1041 92.6024 82.4766C91.3567 84.0224 89.8977 85.2942 88.2256 86.2919C87.8054 86.4651 87.4644 86.4444 87.2024 86.2299C86.921 86.0392 86.75 85.7501 86.6895 85.3624C86.629 84.9748 86.7125 84.6056 86.94 84.2548C87.7785 82.7934 88.7697 81.437 89.9135 80.1857C91.0573 78.9344 92.2488 77.7221 93.4879 76.5488C94.3457 75.7197 95.1916 74.8808 96.0256 74.0322C96.5564 73.4325 96.8154 72.7396 96.8027 71.9535C96.7878 71.1458 96.6039 70.3986 96.2512 69.712C95.3508 68.1395 94.3487 66.6428 93.2447 65.2218C91.6713 62.601 91.0992 60.3725 91.5286 58.5363C91.9363 56.7022 93.0369 55.2365 94.8303 54.1391C96.6433 53.018 98.8285 52.2315 101.386 51.7798ZM117.071 66.2919C117.036 65.9454 116.878 65.6769 116.597 65.4862C116.337 65.2934 116.044 65.2023 115.717 65.213C115.387 65.2021 115.117 65.3384 114.904 65.6221C114.67 65.9078 114.419 66.3484 114.15 66.9439C113.903 67.5371 113.783 68.085 113.789 68.5874C113.815 69.066 114.124 69.3086 114.715 69.3153C115.369 69.0752 115.921 68.692 116.372 68.166C116.82 67.6182 117.053 66.9936 117.071 66.2919Z" fill="black"/>
<path d="M146.166 66.9025C144.726 66.9367 143.523 66.6082 142.557 65.9171C141.97 65.5162 141.452 65.0321 141.002 64.4646C140.675 64.0378 140.359 63.61 140.054 63.1812C139.822 62.8324 139.581 62.4956 139.329 62.1707C139.176 61.9454 139.002 61.7331 138.807 61.5339C138.757 61.4732 138.708 61.4234 138.661 61.3844C138.418 61.1461 138.088 61.015 137.67 60.991C137.274 60.9649 136.945 61.0633 136.682 61.2863C136.643 61.3339 136.594 61.3826 136.533 61.4324C136.39 61.5341 136.27 61.6445 136.172 61.7636C135.096 63.0301 134.17 64.3908 133.397 65.8458C133.124 66.3979 132.85 66.9392 132.575 67.4697C132.353 67.8854 132.143 68.3 131.944 68.7136C131.305 69.9802 130.572 71.1905 129.747 72.3445C129.513 72.6302 129.226 72.8229 128.886 72.9224C128.717 72.983 128.542 72.9786 128.36 72.9092C128.178 72.8399 128.046 72.7218 127.963 72.555C127.78 72.2453 127.703 71.9139 127.733 71.561C127.855 70.3678 128.078 69.2082 128.403 68.0822C128.633 67.3157 128.863 66.5492 129.093 65.7827C129.435 64.6112 129.779 63.4506 130.124 62.3008C130.226 62.0064 130.317 61.7129 130.397 61.4206C130.815 60.1323 131.177 58.8277 131.483 57.5068C131.6 56.9265 131.763 56.3635 131.971 55.8178C132.697 53.6677 133.234 51.4817 133.581 49.26C133.655 48.684 133.84 48.1297 134.137 47.5971C134.213 47.4802 134.347 47.4012 134.54 47.3601C134.752 47.2952 134.926 47.2887 135.063 47.3408C135.132 47.3776 135.191 47.4155 135.238 47.4545C135.286 47.4935 135.323 47.5336 135.349 47.5747C135.426 47.9169 135.483 48.2613 135.517 48.6077C135.519 48.8481 135.477 49.082 135.39 49.3093C134.909 50.6258 134.485 51.9694 134.119 53.3401C133.958 53.9247 133.797 54.4985 133.634 55.0615C132.932 57.4499 132.207 59.8296 131.459 62.2006C130.808 64.2338 130.27 66.2887 129.842 68.3653C129.805 68.6533 129.908 68.8071 130.151 68.8267C130.216 68.8202 130.28 68.8029 130.342 68.7748C130.381 68.7271 130.42 68.6795 130.459 68.6319C131.502 66.8002 132.542 64.9468 133.58 63.0718C134.232 61.9351 135.039 60.9252 136.001 60.042C136.362 59.7216 136.751 59.4532 137.167 59.2368C137.878 58.9035 138.551 58.9676 139.187 59.4291C139.545 59.7215 139.874 60.0606 140.175 60.4461C140.378 60.732 140.573 61.0407 140.759 61.3721C140.867 61.58 140.974 61.7771 141.08 61.9634C141.13 62.024 141.181 62.0955 141.233 62.1778C141.495 62.611 141.777 63.0312 142.08 63.4384C143.492 65.3099 145.393 65.8422 147.784 65.0353C148.271 64.8773 148.742 64.6663 149.197 64.4023C149.26 64.3742 149.323 64.346 149.386 64.3179C151.383 63.2878 153.338 62.1742 155.253 60.9773C156.858 59.9644 158.517 59.0554 160.23 58.2504C160.648 58.0556 161.093 57.9129 161.566 57.8221C161.802 57.7767 162.032 57.7865 162.257 57.8515C162.504 57.9144 162.652 58.0747 162.699 58.3324C162.723 58.5707 162.634 58.7764 162.433 58.9495C162.411 58.9517 162.401 58.9636 162.403 58.9852C162.323 59.0589 162.241 59.1108 162.156 59.1411C159.241 60.1752 156.491 61.543 153.904 63.2442C152.507 64.1489 151.069 64.9703 149.59 65.7082C148.86 66.0653 148.104 66.3812 147.322 66.656C146.96 66.7577 146.65 66.8215 146.39 66.8474C146.303 66.856 146.228 66.8744 146.166 66.9025Z" fill="black"/>
<path d="M77.6891 4.93134C78.223 7.87448 78.2512 10.9008 77.7738 14.0104C77.3158 17.0961 76.5742 20.1883 75.5489 23.2868C74.5235 26.3854 73.417 29.4373 72.2293 32.4427C71.1868 35.1493 70.2439 37.7584 69.4007 40.2702C69.2121 40.792 69.0224 41.303 68.8317 41.8032C66.4366 48.4939 63.9278 55.1413 61.3053 61.7453C60.8046 63.0856 60.2703 64.4183 59.7025 65.7435C58.9722 67.4128 58.2873 69.0996 57.6479 70.8036C57.0064 72.4861 56.5002 74.2097 56.1293 75.9744C58.1738 75.202 60.0917 74.147 61.8831 72.8092C62.8448 72.1447 63.8216 71.5225 64.8137 70.9424C65.6389 70.4446 66.4609 69.9144 67.2796 69.3516C68.7287 68.3104 70.2622 67.4577 71.8801 66.7934C72.2699 66.7546 72.5427 66.8586 72.6986 67.1056C72.8739 67.3287 72.9225 67.5972 72.8445 67.9112C72.7859 68.2013 72.6126 68.4373 72.3245 68.6191C68.8331 70.4544 65.4964 72.5257 62.3144 74.8331C60.4126 76.1599 58.4838 77.4348 56.5279 78.6577C54.5287 79.8849 53.0805 81.593 52.1832 83.7821C51.3121 85.5748 50.4897 87.1987 49.7161 88.6537C48.7194 90.5028 47.6554 92.6647 46.5242 95.1395C44.2532 99.5651 41.5089 104.618 38.2912 110.297C35.0973 115.995 32.3 120.845 29.8992 124.846C28.1441 128.083 26.1562 131.179 23.9355 134.134C21.7149 137.09 19.4217 139.976 17.056 142.792C16.705 143.221 16.3649 143.648 16.0356 144.075C15.2665 145.136 14.0685 146.283 12.4418 147.517C10.8151 148.751 9.10724 149.719 7.31827 150.422C5.50764 151.128 3.97549 151.226 2.72181 150.717C1.44864 150.231 0.791872 148.798 0.751515 146.418C1.86887 140.074 4.15342 133.81 7.60517 127.626C11.0569 121.442 15.2211 115.494 20.0976 109.781C24.9958 104.065 30.1298 98.7419 35.4998 93.8106C40.8937 88.8988 46.0664 84.512 51.0181 80.6503C51.9669 79.8559 52.7132 78.8957 53.2572 77.7698C56.7485 69.7888 59.9443 61.6951 62.8445 53.4886C64.5763 48.7012 66.3666 43.9517 68.2154 39.2401C68.6274 37.668 69.4153 35.3696 70.5792 32.3447C71.6195 29.6165 72.6697 26.6576 73.7297 23.4681C74.8092 20.2548 75.6267 17.1551 76.182 14.169C76.7569 11.1591 76.7978 8.60704 76.3048 6.5128C75.8117 4.41856 74.5215 3.10366 72.4341 2.56808C68.8328 2.42396 65.397 3.17101 62.1265 4.80924C58.8755 6.42366 55.8105 8.47882 52.9317 10.9747C50.0529 13.4706 47.3928 15.9666 44.9514 18.4627C44.6524 18.7549 44.3535 19.0472 44.0546 19.3394C40.8399 22.4156 37.9857 25.8167 35.4919 29.5428C33.0176 33.245 31.1409 37.2377 29.8619 41.5207C28.9406 44.1277 28.3746 46.7868 28.1636 49.498C27.9743 52.207 28.2518 54.6617 28.996 56.8622C29.7618 59.0604 31.1494 60.6937 33.1587 61.762C35.1874 62.8064 37.9831 62.9871 41.5456 62.304C44.8461 61.6251 47.3931 60.6276 49.1866 59.3116C51.0018 57.9934 52.9168 56.0309 54.9316 53.4243C55.0681 53.2576 55.2251 53.0779 55.4028 52.8852C55.6736 52.5302 55.9606 52.2282 56.2639 51.9792C56.5866 51.7065 56.9602 51.6146 57.3846 51.7035C57.5687 51.7945 57.6737 51.97 57.6996 52.2298C57.7471 52.4875 57.694 52.7225 57.5402 52.9347C55.3196 55.6712 52.8684 58.1791 50.1867 60.4586C48.4863 61.8309 46.5966 62.7301 44.5176 63.156C42.4601 63.5798 40.3768 63.853 38.2675 63.9758C38.051 63.9974 37.8225 64.0092 37.5821 64.0113C34.8232 64.1988 32.5192 63.5754 30.6704 62.1412C28.8193 60.6854 27.7112 58.5649 27.3462 55.7799C26.4816 50.8357 26.821 46.0121 28.3645 41.3091C29.9295 36.6039 32.0251 32.1739 34.6511 28.0191C36.6616 25.3691 39.0143 22.5319 41.7092 19.5076C44.4042 16.4832 47.3308 13.5889 50.489 10.8245C53.6451 8.0385 56.9235 5.71055 60.324 3.84065C63.7461 1.96859 67.1681 0.862054 70.5897 0.521032C72.1728 0.385127 73.6572 0.685546 75.0429 1.42229C76.4481 2.13522 77.3301 3.3049 77.6891 4.93134ZM49.6035 85.5483C49.5582 85.0935 49.4142 84.8563 49.1717 84.8368C48.9508 84.815 48.6758 84.9081 48.3465 85.1159C48.039 85.3215 47.7444 85.5477 47.4628 85.7945C47.2418 85.9914 47.0599 86.1408 46.9169 86.2425C40.5247 91.4507 34.429 97.0011 28.6299 102.894C22.8546 108.806 17.6617 115.185 13.0512 122.031C12.516 122.806 11.6667 124.159 10.5032 126.09C9.36129 128.02 8.16952 130.216 6.92785 132.68C5.66452 135.146 4.60477 137.57 3.7486 139.952C2.87292 142.358 2.46296 144.389 2.51872 146.045C2.55497 147.726 3.28984 148.735 4.72332 149.074C7.27658 148.797 9.54097 147.817 11.5165 146.133C13.4942 144.47 15.2933 142.662 16.9137 140.707C17.0892 140.492 17.2647 140.278 17.4402 140.064C22.7998 133.712 27.5273 126.832 31.6226 119.425C32.9942 116.949 34.3214 114.574 35.6042 112.303C40.4729 103.879 44.7569 95.8406 48.456 88.1888C48.456 88.1888 48.457 88.1996 48.4592 88.2213C48.5697 88.0134 48.6813 87.8164 48.794 87.6302C49.1667 86.9807 49.4365 86.2867 49.6035 85.5483Z" stroke="black" stroke-width="0.5"/>
<path d="M83.0727 70.1397C83.1788 70.1072 83.2968 70.0845 83.4268 70.0716C83.7906 69.9916 84.1739 69.8877 84.5767 69.7601C85.7983 69.2884 86.9397 68.6716 88.0011 67.9097C88.4711 67.5785 88.9292 67.2376 89.3755 66.8869C89.865 66.532 90.3653 66.1759 90.8765 65.8187C90.9177 65.7928 90.9578 65.756 90.9968 65.7083C91.5253 65.3057 92.0949 64.9865 92.7057 64.7507C92.9591 64.6598 93.1713 64.7042 93.3423 64.884C93.4938 65.0877 93.5046 65.3053 93.3746 65.537C93.3204 65.6517 93.2532 65.7459 93.1731 65.8195C91.4575 67.259 89.6413 68.5664 87.7244 69.7417C86.715 70.3672 85.6516 70.8887 84.534 71.3063C83.6265 71.6373 82.6943 71.7193 81.7371 71.5522C81.6917 71.5349 81.6473 71.5284 81.604 71.5327C81.2921 71.4763 80.9901 71.408 80.6978 71.3278C79.7515 71.0503 79.0176 70.4891 78.496 69.6444C78.3618 69.3953 78.2471 69.1224 78.1519 68.8257C78.0264 68.4445 77.8273 68.0926 77.5546 67.7698C77.3835 67.59 77.1724 67.5564 76.9212 67.6689C76.7111 67.7555 76.527 67.8832 76.3688 68.052C75.4828 69.0371 74.7007 70.0773 74.0225 71.1729C73.0605 72.7122 72.0022 74.1628 70.8475 75.5246C70.6547 75.7844 70.451 76.0452 70.2366 76.3072C70.0589 76.4999 69.8694 76.6828 69.6679 76.856C69.5856 76.9079 69.5141 76.9588 69.4535 77.0086C69.2715 77.1579 69.0506 77.2456 68.7907 77.2715C68.507 77.2779 68.284 77.2345 68.1216 77.1413C67.6778 76.8575 67.4419 76.4654 67.4139 75.9652C67.3901 75.727 67.4 75.4963 67.4433 75.2733C67.4433 75.2733 67.4542 75.2722 67.4758 75.2701C67.5279 74.9149 67.6147 74.5782 67.736 74.2599C69.0256 71.1788 70.7113 68.3425 72.7932 65.751C73.2633 65.2011 73.7724 64.713 74.3204 64.2866C75.0656 63.6436 75.9416 63.3267 76.9486 63.3357C77.4986 63.3683 78.0498 63.4118 78.602 63.4662C78.6453 63.4618 78.6777 63.4586 78.6994 63.4564C78.9874 63.4934 79.231 63.6331 79.4301 63.8757C79.6271 64.0967 79.731 64.3706 79.7417 64.6976C79.7134 65.0723 79.6949 65.435 79.6861 65.7858C79.6753 65.8962 79.6644 66.0067 79.6535 66.1171C79.6448 66.2492 79.6361 66.3813 79.6274 66.5134C79.6057 66.7343 79.5948 66.9541 79.5947 67.1728C79.5901 68.0044 79.8671 68.6985 80.4256 69.2552C80.9841 69.812 81.6802 70.1035 82.514 70.1297C82.5573 70.1254 82.645 70.1276 82.7771 70.1363C82.842 70.1298 82.9406 70.131 83.0727 70.1397ZM74.7389 65.8524C74.6978 65.8784 74.6458 65.9054 74.583 65.9335C74.4162 66.0158 74.2202 66.1337 73.9949 66.2874C73.0569 67.1901 72.2857 68.2293 71.6811 69.405C70.9184 70.7496 70.1892 72.1017 69.4936 73.4614C69.3658 73.7148 69.2617 73.9876 69.1815 74.2799C69.1663 74.347 69.1512 74.4142 69.136 74.4813C69.0341 74.7758 69.1282 74.9523 69.4184 75.0108C69.4617 75.0065 69.5159 75.0011 69.5808 74.9947C69.6436 74.9665 69.6945 74.9286 69.7335 74.881C70.6152 74.0714 71.3669 73.1654 71.9888 72.1629C72.8771 70.7621 73.8239 69.3992 74.8291 68.0742C75.0415 67.7906 75.23 67.4875 75.3946 67.1649C75.4445 67.0068 75.4944 66.8488 75.5442 66.6907C75.5594 66.6236 75.5746 66.5565 75.5898 66.4893C75.6158 66.3118 75.5455 66.1547 75.3788 66.0183C75.2099 65.8601 74.9966 65.8048 74.7389 65.8524Z" stroke="black" stroke-width="0.5"/>
<path d="M101.386 51.7798C102.876 51.5875 104.007 51.7373 104.777 52.2292C105.546 52.6994 106.02 53.2864 106.199 53.9902C106.377 54.6724 106.334 55.2344 106.072 55.6761C105.83 56.0939 105.431 56.1555 104.877 55.8608C104.823 55.7569 104.769 55.6529 104.714 55.5489C104.52 55.1309 104.283 54.728 104.003 54.3403C103.744 53.9288 103.397 53.6352 102.964 53.4597C102.49 53.3101 101.995 53.2829 101.48 53.378C100.161 53.5313 98.7251 53.9369 97.1722 54.5947C95.6388 55.2287 94.5157 56.1389 93.8028 57.3254C93.2437 58.5184 93.096 59.7798 93.3598 61.1095C93.6214 62.4176 94.1104 63.5936 94.8269 64.6377C96.2208 66.5546 97.5422 68.5116 98.7911 70.5087C99.2393 70.8358 99.7254 70.8858 100.25 70.6586C100.774 70.4314 101.238 70.1554 101.643 69.8307C101.682 69.7831 101.722 69.7463 101.764 69.7203C102.238 69.4325 103.176 68.7485 104.577 67.6683C106.061 66.5362 107.691 65.3349 109.467 64.0643C111.263 62.7699 112.848 61.7808 114.224 61.0969C115.597 60.3914 116.38 60.3462 116.572 60.9613C116.7 62.4577 117.33 63.3025 118.465 63.4956C119.622 63.6865 120.804 63.5906 122.012 63.2077C123.295 62.9049 124.57 62.5372 125.839 62.1045C127.492 61.568 129.154 61.129 130.826 60.7874C131.068 60.8069 131.221 60.912 131.284 61.1026C131.368 61.291 131.366 61.4881 131.277 61.6938C131.164 61.88 131.005 62.038 130.799 62.1679C130.592 62.2761 130.381 62.3626 130.169 62.4275C130.065 62.4816 129.971 62.5238 129.887 62.5541C127.013 63.5623 124.074 64.3583 121.07 64.942C120.561 65.102 120.172 65.3704 119.903 65.7471C119.633 66.1022 119.4 66.5082 119.205 66.965C119.027 67.3764 118.813 67.7586 118.564 68.1115C117.615 69.3433 116.518 70.4041 115.273 71.2937C114.575 71.7569 113.857 71.7957 113.119 71.4099C112.379 71.0026 111.978 70.3864 111.918 69.5613C111.948 68.5521 112.156 67.5582 112.539 66.5795C112.71 66.1032 112.859 65.6181 112.985 65.1244C112.996 64.3578 112.367 64.3002 111.098 64.9516C109.848 65.5792 108.378 66.524 106.689 67.786C104.997 69.0263 103.502 70.1594 102.205 71.1855C101.189 71.9647 100.538 72.4561 100.252 72.6595C98.5711 74.2268 97.1413 76.0097 95.9626 78.0081C94.9854 79.6146 93.8653 81.1041 92.6024 82.4766C91.3567 84.0224 89.8977 85.2942 88.2256 86.2919C87.8054 86.4651 87.4644 86.4444 87.2024 86.2299C86.921 86.0392 86.75 85.7501 86.6895 85.3624C86.629 84.9748 86.7125 84.6056 86.94 84.2548C87.7785 82.7934 88.7697 81.437 89.9135 80.1857C91.0573 78.9344 92.2488 77.7221 93.4879 76.5488C94.3457 75.7197 95.1916 74.8808 96.0256 74.0322C96.5564 73.4325 96.8154 72.7396 96.8027 71.9535C96.7878 71.1458 96.6039 70.3986 96.2512 69.712C95.3508 68.1395 94.3487 66.6428 93.2447 65.2218C91.6713 62.601 91.0992 60.3725 91.5286 58.5363C91.9363 56.7022 93.0369 55.2365 94.8303 54.1391C96.6433 53.018 98.8285 52.2315 101.386 51.7798ZM117.071 66.2919C117.036 65.9454 116.878 65.6769 116.597 65.4862C116.337 65.2934 116.044 65.2023 115.717 65.213C115.387 65.2021 115.117 65.3384 114.904 65.6221C114.67 65.9078 114.419 66.3484 114.15 66.9439C113.903 67.5371 113.783 68.085 113.789 68.5874C113.815 69.066 114.124 69.3086 114.715 69.3153C115.369 69.0752 115.921 68.692 116.372 68.166C116.82 67.6182 117.053 66.9936 117.071 66.2919Z" stroke="black" stroke-width="0.5"/>
<path d="M146.166 66.9025C144.726 66.9367 143.523 66.6082 142.557 65.9171C141.97 65.5162 141.452 65.0321 141.002 64.4646C140.675 64.0378 140.359 63.61 140.054 63.1812C139.822 62.8324 139.581 62.4956 139.329 62.1707C139.176 61.9454 139.002 61.7331 138.807 61.5339C138.757 61.4732 138.708 61.4234 138.661 61.3844C138.418 61.1461 138.088 61.015 137.67 60.991C137.274 60.9649 136.945 61.0633 136.682 61.2863C136.643 61.3339 136.594 61.3826 136.533 61.4324C136.39 61.5341 136.27 61.6445 136.172 61.7636C135.096 63.0301 134.17 64.3908 133.397 65.8458C133.124 66.3979 132.85 66.9392 132.575 67.4697C132.353 67.8854 132.143 68.3 131.944 68.7136C131.305 69.9802 130.572 71.1905 129.747 72.3445C129.513 72.6302 129.226 72.8229 128.886 72.9224C128.717 72.983 128.542 72.9786 128.36 72.9092C128.178 72.8399 128.046 72.7218 127.963 72.555C127.78 72.2453 127.703 71.9139 127.733 71.561C127.855 70.3678 128.078 69.2082 128.403 68.0822C128.633 67.3157 128.863 66.5492 129.093 65.7827C129.435 64.6112 129.779 63.4506 130.124 62.3008C130.226 62.0064 130.317 61.7129 130.397 61.4206C130.815 60.1323 131.177 58.8277 131.483 57.5068C131.6 56.9265 131.763 56.3635 131.971 55.8178C132.697 53.6677 133.234 51.4817 133.581 49.26C133.655 48.684 133.84 48.1297 134.137 47.5971C134.213 47.4802 134.347 47.4012 134.54 47.3601C134.752 47.2952 134.926 47.2887 135.063 47.3408C135.132 47.3776 135.191 47.4155 135.238 47.4545C135.286 47.4935 135.323 47.5336 135.349 47.5747C135.426 47.9169 135.483 48.2613 135.517 48.6077C135.519 48.8481 135.477 49.082 135.39 49.3093C134.909 50.6258 134.485 51.9694 134.119 53.3401C133.958 53.9247 133.797 54.4985 133.634 55.0615C132.932 57.4499 132.207 59.8296 131.459 62.2006C130.808 64.2338 130.27 66.2887 129.842 68.3653C129.805 68.6533 129.908 68.8071 130.151 68.8267C130.216 68.8202 130.28 68.8029 130.342 68.7748C130.381 68.7271 130.42 68.6795 130.459 68.6319C131.502 66.8002 132.542 64.9468 133.58 63.0718C134.232 61.9351 135.039 60.9252 136.001 60.042C136.362 59.7216 136.751 59.4532 137.167 59.2368C137.878 58.9035 138.551 58.9676 139.187 59.4291C139.545 59.7215 139.874 60.0606 140.175 60.4461C140.378 60.732 140.573 61.0407 140.759 61.3721C140.867 61.58 140.974 61.7771 141.08 61.9634C141.13 62.024 141.181 62.0955 141.233 62.1778C141.495 62.611 141.777 63.0312 142.08 63.4384C143.492 65.3099 145.393 65.8422 147.784 65.0353C148.271 64.8773 148.742 64.6663 149.197 64.4023C149.26 64.3742 149.323 64.346 149.386 64.3179C151.383 63.2878 153.338 62.1742 155.253 60.9773C156.858 59.9644 158.517 59.0554 160.23 58.2504C160.648 58.0556 161.093 57.9129 161.566 57.8221C161.802 57.7767 162.032 57.7865 162.257 57.8515C162.504 57.9144 162.652 58.0747 162.699 58.3324C162.723 58.5707 162.634 58.7764 162.433 58.9495C162.411 58.9517 162.401 58.9636 162.403 58.9852C162.323 59.0589 162.241 59.1108 162.156 59.1411C159.241 60.1752 156.491 61.543 153.904 63.2442C152.507 64.1489 151.069 64.9703 149.59 65.7082C148.86 66.0653 148.104 66.3812 147.322 66.656C146.96 66.7577 146.65 66.8215 146.39 66.8474C146.303 66.856 146.228 66.8744 146.166 66.9025Z" stroke="black" stroke-width="0.5"/>
</svg>
