<svg xmlns="http://www.w3.org/2000/svg" width="24" height="24" fill="none" viewBox="0 0 24 24">
  <style>
    #logo {
      fill: #333753;
    }
    @media (prefers-color-scheme: dark) {
      #logo {
        fill: #FFF;
      }
    }
  </style>
  <path id="logo" fill="#1E293B" d="m23.552 10.319-4.01-6.958a3.365 3.365 0 0 0-2.907-1.681h-3.51l8.671 15.047 1.756-3.046a3.377 3.377 0 0 0 0-3.362ZM.448 13.681l4.01 6.958a3.364 3.364 0 0 0 2.907 1.68h3.51L2.203 7.274.448 10.319a3.378 3.378 0 0 0 0 3.362ZM19.89 17.87c.511 0 1.007-.125 1.453-.363l-1.94 3.364a2.863 2.863 0 0 1-2.505 1.449 2.863 2.863 0 0 1-2.505-1.45L6.787 7.68a3.101 3.101 0 0 0-2.676-1.55 3.07 3.07 0 0 0-1.454.363L4.596 3.13a2.863 2.863 0 0 1 2.506-1.45c1.046 0 1.982.542 2.505 1.45l7.605 13.191a3.102 3.102 0 0 0 2.677 1.548Z"/>
</svg>
