<svg width="1441" height="1072" viewBox="0 0 1441 1072" fill="none" xmlns="http://www.w3.org/2000/svg">
<path d="M757.526 276.375C669.065 221.498 586.049 243.688 498.594 180.441C411.139 117.194 387.269 91.1943 267.185 48.3888C147.102 5.58324 0.00012207 -0.000125976 0.00012207 -0.000125976L5.13758e-05 808.651C5.13758e-05 808.651 284.698 839.835 404.281 891.005C523.864 942.175 636.942 912.419 742.515 964.42C848.088 1016.42 1047.23 984.537 1160.31 1028.77C1273.38 1073 1441 1072 1441 1072L1441 521.738C1441 521.738 1366.11 464.124 1257.54 454.823C1148.98 445.522 1003.7 367.997 931.647 335.93C859.597 303.863 845.986 331.251 757.526 276.375Z" fill="url(#paint0_linear)"/>
<defs>
<linearGradient id="paint0_linear" x1="1460.51" y1="1075.23" x2="98.0386" y2="-87.8274" gradientUnits="userSpaceOnUse">
<stop stop-color="#342671"/>
<stop offset="0.998885" stop-color="#453295"/>
</linearGradient>
</defs>
</svg>
