<svg width="180" height="44" viewBox="0 0 180 44" fill="none" xmlns="http://www.w3.org/2000/svg">
<path fill-rule="evenodd" clip-rule="evenodd" d="M34.8321 32.1509C34.5631 32.8344 33.9422 33.7966 33.0618 34.4745C32.5535 34.866 31.9466 35.2402 31.113 35.4871C30.2245 35.7505 29.13 35.8395 27.7677 35.8395H15.3121C13.95 35.8395 12.8555 35.7505 11.9668 35.4871C11.1332 35.2402 10.5264 34.866 10.018 34.4745C9.13768 33.7965 8.51673 32.8344 8.24767 32.1509C7.7057 30.774 7.7002 29.2116 7.7002 28.2277V15.7719C7.7002 14.788 7.7057 13.2257 8.24767 11.8487C8.51673 11.1652 9.13757 10.203 10.018 9.52515C10.5263 9.13366 11.1332 8.75944 11.9668 8.51249C12.8553 8.24915 13.9498 8.16016 15.3121 8.16016H27.7678C29.13 8.16016 30.2245 8.24915 31.1131 8.51249C31.9467 8.75944 32.5535 9.13377 33.0619 9.52515C33.9422 10.2031 34.5632 11.1652 34.8322 11.8487C35.3742 13.2257 35.3797 14.788 35.3797 15.7719V28.2277C35.3796 29.2115 35.3741 30.7738 34.8321 32.1509Z" fill="url(#paint0_linear_1002_803)"/>
<path d="M23.5475 24.0703C23.1321 23.632 22.4026 23.3511 21.5414 23.3511C20.6801 23.3511 19.9506 23.632 19.5352 24.0703C19.3185 24.299 19.2039 24.5334 19.1678 24.8673C19.0979 25.514 19.1372 26.0709 19.2129 26.9611C19.2851 27.8094 19.4222 28.9406 19.601 30.0928C19.7283 30.9127 19.8317 31.3553 19.9259 31.6722C20.0785 32.1858 20.6491 32.6349 21.5414 32.6349C22.4336 32.6349 23.0042 32.1856 23.1569 31.6722C23.251 31.3553 23.3544 30.9127 23.4817 30.0928C23.6606 28.9406 23.7976 27.8094 23.8698 26.9611C23.9456 26.0707 23.9849 25.5139 23.9149 24.8673C23.8788 24.5335 23.7642 24.299 23.5475 24.0703ZM19.2783 20.1683C19.2783 21.4193 20.2925 22.4335 21.5435 22.4335C22.7947 22.4335 23.8089 21.4193 23.8089 20.1683C23.8089 18.9171 22.7947 17.9029 21.5435 17.9029C20.2925 17.9029 19.2783 18.9171 19.2783 20.1683ZM21.5155 11.2286C16.2175 11.2436 11.8764 15.5417 11.8108 20.8393C11.7576 25.1307 14.497 28.8016 18.3223 30.1471C18.4151 30.1798 18.5094 30.1027 18.4948 30.0053C18.4446 29.6721 18.3973 29.3373 18.3538 29.0081C18.3384 28.8917 18.2643 28.7914 18.1568 28.7444C15.1334 27.4235 13.0221 24.3913 13.056 20.8789C13.1005 16.2694 16.8644 12.5116 21.4739 12.4743C26.1862 12.4362 30.0319 16.2585 30.0319 20.9621C30.0319 24.4393 27.9299 27.4344 24.93 28.7447C24.8225 28.7917 24.7488 28.8924 24.7335 29.0086C24.6901 29.3377 24.6428 29.6725 24.5927 30.0053C24.578 30.1027 24.6722 30.1798 24.7651 30.1472C28.5538 28.8146 31.2773 25.2008 31.2773 20.9622C31.2771 15.5855 26.8955 11.2132 21.5155 11.2286ZM21.3396 15.694C24.3429 15.5777 26.8232 17.9872 26.8232 20.9651C26.8232 22.4796 26.1816 23.8469 25.156 24.8098C25.069 24.8914 25.0223 25.0074 25.029 25.1265C25.0494 25.4887 25.042 25.8407 25.0179 26.2383C25.0114 26.3442 25.1302 26.4119 25.2178 26.3521C26.9376 25.1769 28.0687 23.2007 28.0687 20.9651C28.0687 17.2841 25.0026 14.3056 21.2902 14.4495C17.8401 14.5832 15.0722 17.4277 15.028 20.8802C14.999 23.1508 16.137 25.1624 17.8789 26.3523C17.9663 26.4121 18.0848 26.3443 18.0783 26.2385C18.0541 25.8407 18.0467 25.4887 18.0671 25.1265C18.0738 25.0075 18.0271 24.8915 17.9404 24.81C16.8828 23.8172 16.2334 22.3943 16.2747 20.8235C16.3476 18.0592 18.5763 15.801 21.3396 15.694Z" fill="white"/>
<path d="M50.2772 30.6045H45.0705L43.8201 34.2965H41.6147L46.5465 20.6357H48.8378L53.7695 34.2965H51.5265L50.2772 30.6045ZM45.6097 28.9007H49.7369L47.7024 22.9077H47.6454L45.6097 28.9007Z" fill="white"/>
<path d="M64.4202 29.3176C64.4202 32.4124 62.7637 34.4008 60.2641 34.4008C58.8451 34.4008 57.7181 33.766 57.1306 32.6584H57.0833V37.5913H55.0391V24.3376H57.0177V25.9941H57.0554C57.6236 24.9252 58.8354 24.2334 60.2264 24.2334C62.754 24.2334 64.4202 26.2314 64.4202 29.3176ZM62.319 29.3176C62.319 27.3013 61.2769 25.9757 59.6871 25.9757C58.1252 25.9757 57.0746 27.3292 57.0746 29.3176C57.0746 31.3242 58.1252 32.6681 59.6871 32.6681C61.2771 32.6681 62.319 31.3523 62.319 29.3176Z" fill="white"/>
<path d="M75.3816 29.3176C75.3816 32.4124 73.7251 34.4008 71.2255 34.4008C69.8065 34.4008 68.6797 33.766 68.092 32.6584H68.0447V37.5913H66.0005V24.3376H67.9792V25.9941H68.0168C68.585 24.9252 69.7968 24.2334 71.1879 24.2334C73.7156 24.2334 75.3816 26.2314 75.3816 29.3176ZM73.2805 29.3176C73.2805 27.3013 72.2385 25.9757 70.6486 25.9757C69.0868 25.9757 68.0361 27.3292 68.0361 29.3176C68.0361 31.3242 69.0868 32.6681 70.6486 32.6681C72.2385 32.6681 73.2805 31.3523 73.2805 29.3176Z" fill="white"/>
<path d="M77.0371 20.6357H79.0824V34.2965H77.0371V20.6357Z" fill="white"/>
<path d="M89.7259 31.3712C89.4509 33.1792 87.6902 34.4199 85.4376 34.4199C82.5405 34.4199 80.7422 32.4788 80.7422 29.3646C80.7422 26.2408 82.5502 24.2148 85.3516 24.2148C88.107 24.2148 89.8397 26.1076 89.8397 29.1272V29.8276H82.8058V29.9511C82.8058 31.6548 83.8758 32.7721 85.4848 32.7721C86.6203 32.7721 87.5108 32.2329 87.7847 31.3713H89.7259V31.3712ZM82.8154 28.3989H87.7944C87.7471 26.8746 86.7717 25.8712 85.3516 25.8712C83.9412 25.8712 82.9196 26.8939 82.8154 28.3989Z" fill="white"/>
<path d="M100.728 20.6357C103.378 20.6357 105.224 22.463 105.224 25.1239C105.224 27.7933 103.34 29.6291 100.661 29.6291H97.7264V34.2966H95.606V20.6357H100.728ZM97.7264 27.8502H100.16C102.005 27.8502 103.056 26.8555 103.056 25.1335C103.056 23.4105 102.005 22.4249 100.169 22.4249H97.7264V27.8502V27.8502Z" fill="white"/>
<path d="M105.971 29.3174C105.971 26.184 107.817 24.2148 110.694 24.2148C113.582 24.2148 115.419 26.1838 115.419 29.3174C115.419 32.4595 113.592 34.42 110.694 34.42C107.798 34.42 105.971 32.4596 105.971 29.3174ZM113.336 29.3174C113.336 27.1679 112.351 25.8993 110.694 25.8993C109.038 25.8993 108.053 27.1776 108.053 29.3174C108.053 31.4755 109.038 32.7345 110.694 32.7345C112.351 32.7345 113.336 31.4756 113.336 29.3174Z" fill="white"/>
<path d="M116.854 29.3176C116.854 26.241 118.548 24.2333 121.019 24.2333C122.448 24.2333 123.575 24.896 124.142 25.994H124.181V20.6357H126.235V34.2965H124.247V32.6025H124.209C123.623 33.738 122.486 34.4008 121.038 34.4008C118.548 34.4008 116.854 32.3942 116.854 29.3176ZM118.945 29.3176C118.945 31.3618 119.987 32.6681 121.577 32.6681C123.149 32.6681 124.199 31.3425 124.199 29.3176C124.199 27.3099 123.149 25.9757 121.577 25.9757C119.987 25.9758 118.945 27.2916 118.945 29.3176Z" fill="white"/>
<path d="M134.934 27.764C134.755 26.7134 133.931 25.9282 132.587 25.9282C131.015 25.9282 129.973 27.2441 129.973 29.3174C129.973 31.4379 131.025 32.7152 132.605 32.7152C133.874 32.7152 134.708 32.0814 134.934 30.9266H136.903C136.677 33.0181 135.001 34.42 132.587 34.42C129.747 34.42 127.892 32.4789 127.892 29.3174C127.892 26.2215 129.747 24.2148 132.568 24.2148C135.123 24.2148 136.714 25.824 136.885 27.7641H134.934V27.764Z" fill="white"/>
<path d="M138.156 31.4659C138.156 29.7246 139.49 28.6729 141.856 28.5311L144.583 28.3797V27.6223C144.583 26.5148 143.855 25.8896 142.615 25.8896C141.478 25.8896 140.683 26.4299 140.522 27.2914H138.61C138.667 25.4922 140.342 24.2148 142.671 24.2148C145.047 24.2148 146.618 25.5114 146.618 27.4708V34.2965H144.659V32.6582H144.612C144.034 33.7657 142.775 34.4672 141.469 34.4672C139.519 34.4673 138.156 33.2555 138.156 31.4659ZM144.583 30.5668V29.7998L142.131 29.9512C140.91 30.0275 140.219 30.5571 140.219 31.409C140.219 32.2802 140.939 32.8484 142.037 32.8484C143.467 32.8484 144.583 31.8634 144.583 30.5668Z" fill="white"/>
<path d="M152.325 24.2246C154.531 24.2246 156.112 25.445 156.159 27.2056H154.237C154.152 26.3258 153.405 25.7866 152.268 25.7866C151.161 25.7866 150.423 26.2969 150.423 27.0735C150.423 27.6697 150.915 28.0671 151.947 28.3228L153.623 28.7116C155.629 29.194 156.387 29.932 156.387 31.3907C156.387 33.189 154.683 34.42 152.25 34.42C149.902 34.42 148.321 33.2168 148.17 31.3993H150.195C150.338 32.3553 151.104 32.8667 152.344 32.8667C153.566 32.8667 154.333 32.3649 154.333 31.5701C154.333 30.9545 153.953 30.6236 152.913 30.3583L151.133 29.9233C149.333 29.4871 148.424 28.5687 148.424 27.1872C148.424 25.4266 150.006 24.2246 152.325 24.2246Z" fill="white"/>
<path d="M160.828 21.98V24.3374H162.722V25.9563H160.828V31.4466C160.828 32.2995 161.207 32.697 162.04 32.697C162.248 32.697 162.58 32.6679 162.712 32.6497V34.2588C162.486 34.3158 162.031 34.3533 161.577 34.3533C159.561 34.3533 158.774 33.596 158.774 31.6646V25.9562H157.326V24.3374H158.774V21.98H160.828Z" fill="white"/>
<path d="M168.219 24.2246C170.425 24.2246 172.006 25.445 172.053 27.2056H170.131C170.046 26.3258 169.299 25.7866 168.162 25.7866C167.055 25.7866 166.317 26.2969 166.317 27.0735C166.317 27.6697 166.809 28.0671 167.841 28.3228L169.517 28.7116C171.523 29.194 172.281 29.932 172.281 31.3907C172.281 33.189 170.577 34.42 168.144 34.42C165.796 34.42 164.215 33.2168 164.064 31.3993H166.089C166.232 32.3553 166.998 32.8667 168.238 32.8667C169.46 32.8667 170.227 32.3649 170.227 31.5701C170.227 30.9545 169.848 30.6236 168.807 30.3583L167.027 29.9233C165.227 29.4871 164.319 28.5687 164.319 27.1872C164.319 25.4266 165.9 24.2246 168.219 24.2246Z" fill="white"/>
<path d="M46.6857 16.1274H42.5918V9.56396H43.6107V15.1901H46.6857V16.1274Z" fill="white"/>
<path d="M47.8701 9.70938C47.8701 9.36783 48.1386 9.10889 48.5023 9.10889C48.8665 9.10889 49.1345 9.36783 49.1345 9.70938C49.1345 10.0456 48.8664 10.305 48.5023 10.305C48.1386 10.305 47.8701 10.0455 47.8701 9.70938ZM48.0156 11.174H48.9889V16.1272H48.0156V11.174Z" fill="white"/>
<path d="M52.3757 11.0786C53.4902 11.0786 54.2179 11.5969 54.313 12.4702H53.3762C53.2849 12.1066 52.9304 11.8746 52.3756 11.8746C51.8293 11.8746 51.4157 12.1335 51.4157 12.5202C51.4157 12.8161 51.666 13.0025 52.2025 13.1255L53.0259 13.3161C53.9675 13.5347 54.4084 13.9397 54.4084 14.6675C54.4084 15.5999 53.5398 16.223 52.3572 16.223C51.1788 16.223 50.4102 15.6907 50.3237 14.8131H51.3018C51.4248 15.195 51.7885 15.4313 52.3798 15.4313C52.9895 15.4313 53.4219 15.1585 53.4219 14.7626C53.4219 14.4672 53.1899 14.276 52.6936 14.1578L51.8294 13.9575C50.8878 13.7347 50.4512 13.3119 50.4512 12.5751C50.4512 11.6968 51.2563 11.0786 52.3757 11.0786Z" fill="white"/>
<path d="M57.0125 9.94092V11.1967H58.0857V12.02H57.0125V14.567C57.0125 15.0858 57.2262 15.313 57.7129 15.313C57.8627 15.313 57.9492 15.3039 58.0857 15.2904V16.1047C57.9267 16.1315 57.7446 16.1546 57.5534 16.1546C56.4662 16.1546 56.0344 15.7721 56.0344 14.8172V12.0199H55.2476V11.1966H56.0344V9.94092H57.0125Z" fill="white"/>
<path d="M63.5107 14.79C63.2878 15.6773 62.496 16.223 61.3638 16.223C59.9442 16.223 59.0757 15.2497 59.0757 13.6664C59.0757 12.0835 59.9625 11.0786 61.359 11.0786C62.7371 11.0786 63.5697 12.0202 63.5697 13.5756V13.9167H60.0715V13.9715C60.1037 14.8401 60.6086 15.3905 61.3906 15.3905C61.982 15.3905 62.387 15.1768 62.5691 14.79H63.5107ZM60.0716 13.1937H62.5735C62.5509 12.416 62.0777 11.9105 61.3548 11.9105C60.6313 11.9105 60.1264 12.4203 60.0716 13.1937Z" fill="white"/>
<path d="M64.8813 11.1742H65.823V11.961H65.896C66.1367 11.4105 66.628 11.0786 67.3742 11.0786C68.4796 11.0786 69.0892 11.7425 69.0892 12.9209V16.1274H68.1111V13.1663C68.1111 12.3703 67.7651 11.9745 67.0422 11.9745C66.3187 11.9745 65.8595 12.4568 65.8595 13.2297V16.1274H64.8813V11.1742Z" fill="white"/>
<path d="M73.042 13.6487C73.042 12.0518 73.9335 11.0786 75.38 11.0786C76.8216 11.0786 77.7133 12.0519 77.7133 13.6487C77.7133 15.2541 76.8264 16.223 75.38 16.223C73.9287 16.223 73.042 15.2541 73.042 13.6487ZM76.7083 13.6487C76.7083 12.5749 76.2259 11.9471 75.38 11.9471C74.5293 11.9471 74.0518 12.5749 74.0518 13.6487C74.0518 14.7309 74.5293 15.354 75.38 15.354C76.2259 15.354 76.7083 14.7267 76.7083 13.6487Z" fill="white"/>
<path d="M79.0249 11.1742H79.9665V11.961H80.0395C80.2807 11.4105 80.7716 11.0786 81.5177 11.0786C82.6231 11.0786 83.2327 11.7425 83.2327 12.9209V16.1274H82.2546V13.1663C82.2546 12.3703 81.9087 11.9745 81.1857 11.9745C80.4623 11.9745 80.003 12.4568 80.003 13.2297V16.1274H79.0249V11.1742Z" fill="white"/>
<defs>
<linearGradient id="paint0_linear_1002_803" x1="21.54" y1="8.16016" x2="21.54" y2="35.8395" gradientUnits="userSpaceOnUse">
<stop stop-color="#F452FF"/>
<stop offset="1" stop-color="#832BC1"/>
</linearGradient>
</defs>
</svg>
