<svg width="180" height="44" viewBox="0 0 180 44" fill="none" xmlns="http://www.w3.org/2000/svg">
<path d="M14.0615 19.3296C13.0818 19.3296 12.2891 20.1224 12.2891 21.1021V23.0356C12.2891 24.0153 13.0818 24.8081 14.0615 24.8081C15.0412 24.8081 15.834 24.0153 15.834 23.0356V21.1021C15.834 20.1224 15.0412 19.3296 14.0615 19.3296Z" fill="#0066D9"/>
<path d="M38.876 19.3296C37.8963 19.3296 37.1035 20.1224 37.1035 21.1021V23.0356C37.1035 24.0153 37.8963 24.8081 38.876 24.8081C39.8557 24.8081 40.6484 24.0153 40.6484 23.0356V21.1021C40.6484 20.1224 39.8557 19.3296 38.876 19.3296Z" fill="#4285F4"/>
<path d="M20.1846 25.1304C19.2049 25.1304 18.4121 25.9231 18.4121 26.9028V28.8364C18.4121 29.8161 19.2049 30.6089 20.1846 30.6089C21.1643 30.6089 21.957 29.8161 21.957 28.8364V26.9028C21.957 25.9231 21.1643 25.1304 20.1846 25.1304Z" fill="#EA4335"/>
<path d="M20.1846 13.5288C19.2049 13.5288 18.4121 14.3216 18.4121 15.3013V21.6257H18.4137C18.4363 22.5861 19.2194 23.3579 20.1846 23.3579C21.1498 23.3579 21.9329 22.5861 21.9554 21.6257H21.957V15.3013C21.957 14.3216 21.1643 13.5288 20.1846 13.5288Z" fill="#EA4335"/>
<path d="M32.7529 13.5288C31.7732 13.5288 30.9805 14.3216 30.9805 15.3013V17.2349C30.9805 18.2146 31.7732 19.0073 32.7529 19.0073C33.7326 19.0073 34.5254 18.2146 34.5254 17.2349V15.3013C34.5254 14.3216 33.7326 13.5288 32.7529 13.5288Z" fill="#34A853"/>
<path d="M26.4687 7.88916C25.4891 7.88916 24.6963 8.68193 24.6963 9.66162V11.5952C24.6963 12.5749 25.4891 13.3677 26.4687 13.3677C27.4484 13.3677 28.2412 12.5749 28.2412 11.5952V9.66162C28.2412 8.68193 27.4484 7.88916 26.4687 7.88916Z" fill="#FAB908"/>
<path d="M26.4687 30.77C25.4891 30.77 24.6963 31.5628 24.6963 32.5425V34.4761C24.6963 35.4558 25.4891 36.2485 26.4687 36.2485C27.4484 36.2485 28.2412 35.4558 28.2412 34.4761V32.5425C28.2412 31.5628 27.4484 30.77 26.4687 30.77Z" fill="#FAB908"/>
<path d="M32.7529 20.7798C31.7732 20.7798 30.9805 21.5726 30.9805 22.5522V28.8364C30.9805 29.8161 31.7732 30.6089 32.7529 30.6089C33.7326 30.6089 34.5254 29.8161 34.5254 28.8364V22.5522C34.5254 21.5726 33.7326 20.7798 32.7529 20.7798Z" fill="#34A853"/>
<path d="M28.2412 16.9126C28.2412 15.9329 27.4484 15.1401 26.4687 15.1401C25.4891 15.1401 24.6963 15.9329 24.6963 16.9126V21.21V22.9293V27.2251C24.6963 28.2048 25.4891 28.9976 26.4687 28.9976C27.4484 28.9976 28.2412 28.2048 28.2412 27.2251V22.9277V21.21V16.9126Z" fill="#FAB908"/>
<path d="M106.498 33.0225V28.3383H109.017C109.659 28.3383 110.252 28.1939 110.798 27.9052C111.343 27.6164 111.779 27.2127 112.105 26.694C112.431 26.1753 112.594 25.5898 112.594 24.9375C112.594 24.2851 112.431 23.6996 112.105 23.1809C111.779 22.6622 111.343 22.2585 110.798 21.9697C110.252 21.681 109.659 21.5366 109.017 21.5366H105.151V33.0225H106.498ZM109.049 27.0389H106.498V22.836H109.049C109.477 22.836 109.854 22.9376 110.18 23.1408C110.506 23.344 110.76 23.606 110.942 23.9268C111.124 24.2477 111.215 24.5845 111.215 24.9375C111.215 25.2904 111.124 25.6272 110.942 25.9481C110.76 26.2689 110.506 26.5309 110.18 26.7341C109.854 26.9373 109.477 27.0389 109.049 27.0389ZM117.102 33.2791C117.904 33.2791 118.626 33.0866 119.268 32.7016C119.909 32.3166 120.409 31.7926 120.767 31.1295C121.126 30.4665 121.305 29.7339 121.305 28.9318C121.305 28.1297 121.126 27.3972 120.767 26.7341C120.409 26.0711 119.909 25.547 119.268 25.162C118.626 24.777 117.904 24.5845 117.102 24.5845C116.3 24.5845 115.578 24.777 114.936 25.162C114.295 25.547 113.795 26.0711 113.436 26.7341C113.078 27.3972 112.899 28.1297 112.899 28.9318C112.899 29.7339 113.078 30.4665 113.436 31.1295C113.795 31.7926 114.295 32.3166 114.936 32.7016C115.578 33.0866 116.3 33.2791 117.102 33.2791ZM117.102 32.0439C116.599 32.0439 116.129 31.9183 115.69 31.6669C115.252 31.4156 114.902 31.0547 114.64 30.5841C114.378 30.1136 114.247 29.5628 114.247 28.9318C114.247 28.3009 114.378 27.7501 114.64 27.2795C114.902 26.809 115.252 26.448 115.69 26.1967C116.129 25.9454 116.599 25.8197 117.102 25.8197C117.605 25.8197 118.072 25.9454 118.506 26.1967C118.939 26.448 119.286 26.809 119.548 27.2795C119.81 27.7501 119.941 28.3009 119.941 28.9318C119.941 29.5628 119.81 30.1136 119.548 30.5841C119.286 31.0547 118.939 31.4156 118.506 31.6669C118.072 31.9183 117.605 32.0439 117.102 32.0439ZM126.133 33.2791C126.764 33.2791 127.326 33.1374 127.818 32.854C128.31 32.5706 128.684 32.2257 128.941 31.8193H129.005V33.0225H130.304V21.5366H128.941V24.9214L129.005 26.0604H128.941C128.684 25.6433 128.31 25.293 127.818 25.0096C127.326 24.7262 126.764 24.5845 126.133 24.5845C125.406 24.5845 124.746 24.7717 124.152 25.146C123.559 25.5203 123.091 26.039 122.749 26.702C122.406 27.3651 122.235 28.1084 122.235 28.9318C122.235 29.766 122.406 30.5119 122.749 31.1696C123.091 31.8273 123.559 32.3434 124.152 32.7177C124.746 33.092 125.406 33.2791 126.133 33.2791ZM126.294 32.0439C125.823 32.0439 125.379 31.9156 124.962 31.6589C124.545 31.4022 124.211 31.036 123.96 30.5601C123.708 30.0842 123.583 29.5414 123.583 28.9318C123.583 28.3222 123.708 27.7795 123.96 27.3036C124.211 26.8277 124.545 26.4614 124.962 26.2047C125.379 25.9481 125.823 25.8197 126.294 25.8197C126.775 25.8197 127.222 25.9481 127.633 26.2047C128.045 26.4614 128.377 26.825 128.628 27.2956C128.879 27.7661 129.005 28.3116 129.005 28.9318C129.005 29.5521 128.879 30.0975 128.628 30.5681C128.377 31.0386 128.045 31.4022 127.633 31.6589C127.222 31.9156 126.775 32.0439 126.294 32.0439ZM135.726 33.2791C136.603 33.2791 137.349 33.0706 137.964 32.6535C138.579 32.2364 139.026 31.691 139.304 31.0172L138.084 30.5039C137.881 30.9959 137.571 31.3755 137.154 31.6429C136.737 31.9102 136.24 32.0439 135.662 32.0439C135.181 32.0439 134.732 31.9129 134.315 31.6509C133.898 31.3889 133.563 31.0226 133.312 30.552C133.061 30.0815 132.935 29.5414 132.935 28.9318C132.935 28.3222 133.061 27.7822 133.312 27.3116C133.563 26.8411 133.898 26.4748 134.315 26.2128C134.732 25.9508 135.181 25.8197 135.662 25.8197C136.229 25.8197 136.713 25.9508 137.114 26.2128C137.515 26.4748 137.817 26.8571 138.02 27.3597L139.255 26.8464C138.999 26.162 138.568 25.6139 137.964 25.2021C137.36 24.7904 136.614 24.5845 135.726 24.5845C134.935 24.5845 134.224 24.7717 133.593 25.146C132.962 25.5203 132.47 26.039 132.117 26.702C131.764 27.3651 131.588 28.1084 131.588 28.9318C131.588 29.7553 131.764 30.4959 132.117 31.1536C132.47 31.8113 132.962 32.33 133.593 32.7096C134.224 33.0893 134.935 33.2791 135.726 33.2791ZM143.089 33.2791C143.678 33.2791 144.207 33.1401 144.678 32.862C145.148 32.584 145.501 32.2471 145.736 31.8514H145.8V33.0225H147.1V27.841C147.1 26.8357 146.782 26.0417 146.145 25.4588C145.509 24.876 144.635 24.5845 143.523 24.5845C142.838 24.5845 142.215 24.7236 141.654 25.0016C141.092 25.2797 140.651 25.6647 140.33 26.1566L141.357 26.9266C141.582 26.5737 141.886 26.2983 142.271 26.1005C142.656 25.9026 143.079 25.8037 143.539 25.8037C144.191 25.8037 144.731 25.9882 145.159 26.3571C145.587 26.7261 145.8 27.2154 145.8 27.825V28.3222C145.576 28.1832 145.252 28.0602 144.83 27.9533C144.408 27.8463 143.95 27.7929 143.458 27.7929C142.464 27.7929 141.64 28.0362 140.988 28.5228C140.336 29.0094 140.009 29.6858 140.009 30.552C140.009 31.0761 140.138 31.5439 140.394 31.9557C140.651 32.3674 141.015 32.6909 141.485 32.9262C141.956 33.1615 142.491 33.2791 143.089 33.2791ZM143.218 32.076C142.694 32.076 142.261 31.937 141.918 31.6589C141.576 31.3809 141.405 31.0172 141.405 30.5681C141.405 30.0761 141.595 29.6751 141.975 29.365C142.354 29.0548 142.918 28.8997 143.667 28.8997C144.084 28.8997 144.48 28.9532 144.854 29.0602C145.228 29.1671 145.544 29.3061 145.8 29.4772C145.8 29.9478 145.683 30.3809 145.448 30.7766C145.212 31.1723 144.897 31.4878 144.501 31.7231C144.105 31.9584 143.678 32.076 143.218 32.076ZM151.543 33.2791C152.142 33.2791 152.688 33.1775 153.18 32.9743C153.672 32.7711 154.062 32.4797 154.351 32.1001C154.639 31.7204 154.784 31.2793 154.784 30.7766C154.784 30.1991 154.581 29.7099 154.174 29.3088C153.768 28.9078 153.164 28.6056 152.362 28.4025L151.174 28.0977C150.704 27.98 150.351 27.8276 150.116 27.6405C149.88 27.4533 149.763 27.21 149.763 26.9106C149.763 26.5897 149.931 26.3251 150.268 26.1165C150.605 25.908 150.998 25.8037 151.447 25.8037C152.378 25.8037 153.025 26.1673 153.388 26.8945L154.575 26.3491C154.34 25.793 153.942 25.3599 153.38 25.0497C152.819 24.7396 152.18 24.5845 151.463 24.5845C150.918 24.5845 150.41 24.6808 149.939 24.8733C149.469 25.0658 149.092 25.3412 148.808 25.6994C148.525 26.0577 148.383 26.4721 148.383 26.9427C148.383 27.5522 148.592 28.0495 149.009 28.4345C149.426 28.8195 149.961 29.0922 150.613 29.2527L151.608 29.5093C152.228 29.6591 152.682 29.8382 152.971 30.0467C153.26 30.2553 153.404 30.5306 153.404 30.8729C153.404 31.2579 153.222 31.5546 152.859 31.7632C152.495 31.9717 152.057 32.076 151.543 32.076C151.062 32.076 150.621 31.9423 150.22 31.675C149.819 31.4076 149.517 31.0279 149.314 30.536L148.094 31.0814C148.34 31.7231 148.757 32.2498 149.346 32.6615C149.934 33.0733 150.666 33.2791 151.543 33.2791ZM159.115 33.1508C159.372 33.1508 159.583 33.1347 159.749 33.1027C159.914 33.0706 160.078 33.0171 160.238 32.9422V31.6108C159.949 31.7926 159.65 31.8835 159.34 31.8835C158.955 31.8835 158.661 31.7659 158.457 31.5306C158.286 31.3167 158.201 30.9852 158.201 30.536V26.0764H160.19V24.8412H158.201V22.5312H156.837V24.8412H155.409V26.0764H156.837V30.8729C156.837 31.2579 156.891 31.5841 156.998 31.8514C157.104 32.1188 157.265 32.3541 157.479 32.5572C157.671 32.7391 157.909 32.8834 158.193 32.9904C158.476 33.0973 158.784 33.1508 159.115 33.1508ZM164.633 33.2791C165.232 33.2791 165.778 33.1775 166.27 32.9743C166.762 32.7711 167.152 32.4797 167.441 32.1001C167.729 31.7204 167.874 31.2793 167.874 30.7766C167.874 30.1991 167.671 29.7099 167.264 29.3088C166.858 28.9078 166.254 28.6056 165.451 28.4025L164.264 28.0977C163.794 27.98 163.441 27.8276 163.206 27.6405C162.97 27.4533 162.853 27.21 162.853 26.9106C162.853 26.5897 163.021 26.3251 163.358 26.1165C163.695 25.908 164.088 25.8037 164.537 25.8037C165.468 25.8037 166.115 26.1673 166.478 26.8945L167.665 26.3491C167.43 25.793 167.032 25.3599 166.47 25.0497C165.909 24.7396 165.27 24.5845 164.553 24.5845C164.008 24.5845 163.5 24.6808 163.029 24.8733C162.559 25.0658 162.182 25.3412 161.898 25.6994C161.615 26.0577 161.473 26.4721 161.473 26.9427C161.473 27.5522 161.682 28.0495 162.099 28.4345C162.516 28.8195 163.051 29.0922 163.703 29.2527L164.698 29.5093C165.318 29.6591 165.772 29.8382 166.061 30.0467C166.35 30.2553 166.494 30.5306 166.494 30.8729C166.494 31.2579 166.312 31.5546 165.949 31.7632C165.585 31.9717 165.147 32.076 164.633 32.076C164.152 32.076 163.711 31.9423 163.31 31.675C162.909 31.4076 162.607 31.0279 162.404 30.536L161.184 31.0814C161.43 31.7231 161.847 32.2498 162.436 32.6615C163.024 33.0733 163.756 33.2791 164.633 33.2791Z" fill="white"/>
<path d="M85.0455 24.719C86.0561 24.719 86.8546 25.1681 87.2664 25.6672H87.3287V24.981H89.1005V32.5544C89.1005 35.6736 87.2664 36.9463 85.0954 36.9463C83.0492 36.9463 81.814 35.5738 81.3523 34.4509L82.9619 33.7772C83.2488 34.4634 83.9475 35.2744 85.0829 35.2744C86.4678 35.2744 87.3287 34.4135 87.3287 32.804V32.1926H87.2664C86.8546 32.7042 86.0561 33.1533 85.0455 33.1533C82.9369 33.1533 81.003 31.3068 81.003 28.9486C81.003 26.5655 82.9369 24.719 85.0455 24.719ZM66.7669 24.8437C69.1001 24.8437 70.9966 26.6155 70.9966 29.0609C70.9966 31.4939 69.1001 33.2781 66.7669 33.2781C64.4337 33.2781 62.5372 31.4939 62.5372 29.0609C62.5372 26.6155 64.4337 24.8437 66.7669 24.8437ZM75.9998 24.8437C78.3329 24.8437 80.2294 26.6155 80.2294 29.0609C80.2294 31.4939 78.3329 33.2781 75.9998 33.2781C73.6666 33.2781 71.7701 31.4939 71.7701 29.0609C71.7701 26.6155 73.6666 24.8437 75.9998 24.8437ZM97.0856 24.8437C99.2691 24.8437 100.342 26.578 100.691 27.5263L100.879 28.0004L95.2391 30.3336C95.6758 31.1695 96.337 31.6062 97.2853 31.6062C98.2335 31.6062 98.8823 31.1446 99.3689 30.4458L100.804 31.4066C100.33 32.0928 99.2192 33.2781 97.2853 33.2781C94.8897 33.2781 93.1055 31.419 93.1055 29.0609C93.1055 26.5531 94.9147 24.8437 97.0856 24.8437ZM55.8372 20.1025C57.8335 20.1025 59.2558 20.8886 60.3288 21.9117L59.0562 23.1718C58.2951 22.4482 57.2595 21.8867 55.8372 21.8867C53.2046 21.8867 51.1459 24.0078 51.1459 26.6404C51.1459 29.273 53.2046 31.3941 55.8372 31.3941C57.5465 31.3941 58.5197 30.7079 59.1435 30.084C59.6551 29.5725 59.992 28.8363 60.1167 27.8382H55.8372V26.054H61.8635C61.9259 26.3784 61.9633 26.7527 61.9633 27.1769C61.9633 28.5244 61.6015 30.1838 60.4162 31.3567C59.2558 32.5544 57.7836 33.1908 55.8372 33.1908C52.2189 33.1908 49.187 30.2587 49.187 26.6529C49.187 23.0346 52.2189 20.1025 55.8372 20.1025ZM92.2072 20.6016V32.9911H90.3606V20.6016H92.2072ZM66.7669 26.4907C65.4818 26.4907 64.3838 27.5263 64.3838 29.0484C64.3838 30.5581 65.4943 31.6062 66.7669 31.6062C68.0395 31.6062 69.15 30.5581 69.15 29.0484C69.15 27.5263 68.0395 26.4907 66.7669 26.4907ZM75.9998 26.4907C74.7147 26.4907 73.6167 27.5263 73.6167 29.0484C73.6167 30.5581 74.7271 31.6062 75.9998 31.6062C77.2724 31.6062 78.3828 30.5581 78.3828 29.0484C78.3828 27.5263 77.2849 26.4907 75.9998 26.4907ZM85.2077 26.3784C83.935 26.3784 82.862 27.4639 82.862 28.9486C82.862 30.4209 83.935 31.4939 85.2077 31.4939C86.4678 31.4939 87.466 30.4334 87.4535 28.9486C87.4535 27.4639 86.4678 26.3784 85.2077 26.3784ZM97.148 26.4657C96.1998 26.4657 94.8897 27.3017 94.9396 28.9237L98.7076 27.3641C98.508 26.8276 97.8842 26.4657 97.148 26.4657Z" fill="white"/>
<path opacity="0.8" d="M54.7449 15.9955V15.1101H50.8536V7.78418H49.7651V15.9955H54.7449ZM56.7256 8.86699C56.9286 8.86699 57.0828 8.8106 57.188 8.6978C57.2933 8.58501 57.3459 8.44402 57.3459 8.27483C57.3459 8.10564 57.2933 7.96277 57.188 7.84622C57.0828 7.72966 56.9286 7.67139 56.7256 7.67139C56.5226 7.67139 56.3694 7.72966 56.266 7.84622C56.1626 7.96277 56.1109 8.10564 56.1109 8.27483C56.1109 8.44402 56.1626 8.58501 56.266 8.6978C56.3694 8.8106 56.5226 8.86699 56.7256 8.86699ZM57.2388 15.9955V9.89341H56.1955V15.9955H57.2388ZM61.4415 16.1083C62.137 16.1083 62.7029 15.9438 63.139 15.6148C63.5751 15.2859 63.7932 14.8488 63.7932 14.3036C63.7932 13.9765 63.7152 13.6992 63.5592 13.4718C63.4031 13.2443 63.1634 13.0497 62.8401 12.8881C62.5168 12.7264 62.0947 12.5873 61.574 12.4707C61.0533 12.3542 60.6933 12.232 60.494 12.1042C60.2947 11.9763 60.1951 11.7865 60.1951 11.5345C60.1951 11.2676 60.3023 11.0514 60.5166 10.886C60.7309 10.7206 61.0279 10.6378 61.4076 10.6378C61.7761 10.6378 62.0816 10.7412 62.3241 10.948C62.5666 11.1548 62.6878 11.4011 62.6878 11.6868H63.7368C63.7368 11.1304 63.5216 10.6736 63.0911 10.3164C62.6606 9.9592 62.0994 9.78062 61.4076 9.78062C60.7497 9.78062 60.2092 9.95356 59.7862 10.2995C59.3633 10.6454 59.1518 11.0683 59.1518 11.5684C59.1518 11.8692 59.226 12.1286 59.3745 12.3467C59.523 12.5647 59.7524 12.7527 60.0626 12.9106C60.3728 13.0685 60.792 13.2039 61.3202 13.3167C61.8485 13.4295 62.2188 13.5639 62.4312 13.7199C62.6437 13.8759 62.7499 14.0949 62.7499 14.3769C62.7499 14.6439 62.6305 14.8572 62.3917 15.017C62.153 15.1768 61.8362 15.2567 61.4415 15.2567C61.0128 15.2567 60.6679 15.1543 60.4066 14.9494C60.1453 14.7444 60.0052 14.4672 59.9864 14.1175H58.9431C58.9431 14.4784 59.0493 14.814 59.2617 15.1242C59.4742 15.4344 59.7684 15.6759 60.1443 15.8489C60.5203 16.0218 60.9527 16.1083 61.4415 16.1083ZM67.2232 16.1083C67.4827 16.1083 67.7496 16.0707 68.0241 15.9955V15.1496C67.8135 15.1947 67.6481 15.2172 67.5278 15.2172C67.2834 15.2172 67.1104 15.1561 67.0089 15.0339C66.9074 14.9118 66.8567 14.7285 66.8567 14.4841V10.6999H67.9959V9.89341H66.8567V8.41582H65.8133V9.89341H64.7023V10.6999H65.8133V14.4841C65.8133 15.0029 65.9318 15.4033 66.1686 15.6853C66.4055 15.9673 66.757 16.1083 67.2232 16.1083ZM72.035 16.1083C73.0576 16.1083 73.8246 15.7154 74.336 14.9296L73.6987 14.4333C73.5069 14.6815 73.2832 14.8807 73.0276 15.0311C72.7719 15.1815 72.4598 15.2567 72.0914 15.2567C71.5725 15.2567 71.1449 15.0715 70.8084 14.7012C70.4719 14.3309 70.2961 13.8449 70.2811 13.2434H74.4149V12.8091C74.4149 11.8353 74.195 11.0871 73.7551 10.5645C73.3152 10.0419 72.6986 9.78062 71.9053 9.78062C71.4203 9.78062 70.97 9.91503 70.5546 10.1839C70.1391 10.4527 69.8158 10.8249 69.5846 11.3005C69.3533 11.7761 69.2377 12.3166 69.2377 12.9219V13.1136C69.2377 14.0235 69.4971 14.7501 70.016 15.2934C70.5348 15.8367 71.2078 16.1083 72.035 16.1083ZM73.3716 12.3861H70.3149C70.3826 11.8334 70.5593 11.4039 70.845 11.0975C71.1308 10.7911 71.4842 10.6378 71.9053 10.6378C72.3414 10.6378 72.6873 10.7835 72.943 11.0749C73.1986 11.3663 73.3415 11.7771 73.3716 12.3072V12.3861ZM76.9539 15.9955V11.6473C77.0968 11.3541 77.296 11.1172 77.5517 10.9367C77.8074 10.7563 78.1044 10.666 78.4427 10.666C78.8601 10.666 79.1674 10.7713 79.3648 10.9819C79.5622 11.1924 79.6628 11.5176 79.6666 11.9575V15.9955H80.7099V11.9632C80.6986 10.5081 80.0482 9.78062 78.7586 9.78062C78.0066 9.78062 77.3975 10.0739 76.9313 10.6604L76.8975 9.89341H75.9105V15.9955H76.9539ZM88.2242 16.1083C88.7731 16.1083 89.259 15.9767 89.682 15.7135C90.105 15.4503 90.4302 15.0828 90.6577 14.611C90.8851 14.1391 90.9989 13.6062 90.9989 13.0121V12.9388C90.9989 11.9838 90.7423 11.2187 90.2291 10.6435C89.7158 10.0682 89.0438 9.78062 88.2129 9.78062C87.6752 9.78062 87.1968 9.91033 86.7776 10.1698C86.3584 10.4292 86.0313 10.7976 85.7963 11.2751C85.5613 11.7526 85.4438 12.2903 85.4438 12.8881V12.9614C85.4438 13.9088 85.7004 14.6702 86.2136 15.2454C86.7268 15.8207 87.397 16.1083 88.2242 16.1083ZM88.2242 15.2567C87.6978 15.2567 87.2776 15.0518 86.9637 14.642C86.6498 14.2322 86.4928 13.6889 86.4928 13.0121C86.4928 12.2489 86.6507 11.6624 86.9665 11.2526C87.2823 10.8427 87.6978 10.6378 88.2129 10.6378C88.7392 10.6378 89.1613 10.8456 89.479 11.261C89.7967 11.6765 89.9555 12.2188 89.9555 12.8881C89.9555 13.6363 89.7995 14.2181 89.4874 14.6335C89.1754 15.049 88.7543 15.2567 88.2242 15.2567ZM93.6393 15.9955V11.6473C93.7822 11.3541 93.9815 11.1172 94.2372 10.9367C94.4928 10.7563 94.7898 10.666 95.1282 10.666C95.5456 10.666 95.8529 10.7713 96.0503 10.9819C96.2477 11.1924 96.3483 11.5176 96.352 11.9575V15.9955H97.3954V11.9632C97.3841 10.5081 96.7336 9.78062 95.444 9.78062C94.6921 9.78062 94.083 10.0739 93.6168 10.6604L93.583 9.89341H92.596V15.9955H93.6393Z" fill="white"/>
</svg>
