<svg width="180" height="44" viewBox="0 0 180 44" fill="none" xmlns="http://www.w3.org/2000/svg">
<path fill-rule="evenodd" clip-rule="evenodd" d="M97.4572 20.2581C98.0271 20.5992 98.7656 20.4098 99.1045 19.8354C99.4432 19.2618 99.2558 18.5199 98.6844 18.1788C93.9145 15.3317 86.3668 15.0641 81.8264 16.4499C81.1908 16.644 80.8325 17.319 81.025 17.958C81.2175 18.5966 81.8891 18.9572 82.5243 18.7635C86.4796 17.5564 93.3139 17.7839 97.4572 20.2581ZM97.3215 23.9228C97.6112 23.4496 97.4629 22.8291 96.9918 22.5374C93.0244 20.0857 87.2209 19.3958 82.5524 20.8202C82.0234 20.9823 81.7244 21.5441 81.8842 22.077C82.0451 22.6089 82.6049 22.9094 83.1349 22.7484C87.2216 21.501 92.4889 22.1195 95.9432 24.2546C96.4143 24.5457 97.031 24.3971 97.3215 23.9228ZM95.7487 27.4422C95.9797 27.0625 95.8608 26.5663 95.483 26.3344C92.095 24.2526 87.8949 23.7681 82.9986 24.8937C82.5665 24.9927 82.2973 25.4247 82.3961 25.8582C82.4945 26.2916 82.9241 26.5634 83.3553 26.464C87.8295 25.4363 91.6287 25.8553 94.6473 27.7103C95.0246 27.9424 95.5179 27.823 95.7487 27.4422ZM89.8539 8.7998C96.953 8.7998 102.708 14.5864 102.708 21.7246C102.708 28.8634 96.953 34.6498 89.8539 34.6498C82.755 34.6498 77 28.8634 77 21.7246C77 14.5864 82.755 8.7998 89.8539 8.7998ZM111.971 20.7318C114.675 21.393 115.777 22.4193 115.777 24.2751C115.777 26.471 114.109 27.8898 111.527 27.8898C109.701 27.8898 108.01 27.2376 106.635 26.003C106.576 25.9508 106.569 25.8607 106.62 25.8003L107.835 24.3463C107.86 24.3162 107.896 24.298 107.935 24.2947C107.972 24.2926 108.012 24.3043 108.042 24.3296C109.224 25.3589 110.28 25.7977 111.576 25.7977C112.742 25.7977 113.467 25.2902 113.467 24.4739C113.467 23.7371 113.109 23.3252 110.985 22.8333C108.49 22.2269 107.046 21.4413 107.046 19.2226C107.046 17.1537 108.72 15.7077 111.116 15.7077C112.746 15.7077 114.14 16.1934 115.378 17.1924C115.438 17.2409 115.45 17.3279 115.406 17.3912L114.322 18.9272C114.299 18.9596 114.265 18.9809 114.226 18.9868C114.187 18.993 114.148 18.9836 114.116 18.9599C113.076 18.1799 112.084 17.801 111.083 17.801C110.051 17.801 109.356 18.2998 109.356 19.0414C109.356 19.8261 109.752 20.1996 111.971 20.7318ZM123.494 23.219C123.494 21.6771 122.512 20.5584 121.159 20.5584C119.801 20.5584 118.776 21.7018 118.776 23.219C118.776 24.7363 119.801 25.8795 121.159 25.8795C122.534 25.8795 123.494 24.786 123.494 23.219ZM121.619 18.5309C123.699 18.5309 125.804 20.1411 125.804 23.219C125.804 26.2962 123.699 27.906 121.619 27.906C120.5 27.906 119.582 27.4887 118.825 26.6342V30.2199C118.825 30.3006 118.76 30.3664 118.68 30.3664H116.693C116.612 30.3664 116.547 30.3006 116.547 30.2199V18.8601C116.547 18.7794 116.612 18.7136 116.693 18.7136H118.68C118.76 18.7136 118.825 18.7794 118.825 18.8601V19.8824C119.582 18.9741 120.5 18.5309 121.619 18.5309ZM131.201 25.8959C132.639 25.8959 133.683 24.7846 133.683 23.2525C133.683 21.7254 132.602 20.5745 131.168 20.5745C129.739 20.5745 128.702 21.6867 128.702 23.219C128.702 24.745 129.776 25.8959 131.201 25.8959ZM131.201 18.5309C133.87 18.5309 135.96 20.5901 135.96 23.219C135.96 25.8567 133.856 27.9235 131.168 27.9235C128.508 27.9235 126.424 25.8715 126.424 23.2525C126.424 20.6046 128.523 18.5309 131.201 18.5309ZM141.68 18.7136C141.76 18.7136 141.825 18.7794 141.825 18.8601V20.5774C141.825 20.658 141.76 20.7237 141.68 20.7237H139.493V24.8544C139.493 25.5068 139.778 25.7977 140.415 25.7977C140.829 25.7977 141.199 25.7084 141.581 25.5147C141.626 25.4926 141.68 25.494 141.723 25.5213C141.766 25.5478 141.792 25.5954 141.792 25.6458V27.2812C141.792 27.3334 141.764 27.3825 141.719 27.408C141.161 27.7257 140.57 27.8738 139.857 27.8738C138.104 27.8738 137.215 26.9633 137.215 25.1675V20.7237H136.26C136.18 20.7237 136.115 20.658 136.115 20.5774V18.8601C136.115 18.7794 136.18 18.7136 136.26 18.7136H137.215V16.4655C137.215 16.3848 137.281 16.3192 137.361 16.3192H139.348C139.428 16.3192 139.493 16.3848 139.493 16.4655V18.7136H141.68ZM149.299 18.7224H152.693C152.754 18.7224 152.808 18.7598 152.829 18.8166L155.15 24.9073L157.269 18.8206C157.29 18.7619 157.345 18.7224 157.407 18.7224H159.476C159.524 18.7224 159.568 18.7463 159.595 18.7858C159.623 18.826 159.628 18.8767 159.611 18.9218L156.163 27.8798C155.448 29.7288 154.637 30.4162 153.17 30.4162C152.385 30.4162 151.751 30.2528 151.047 29.8699C150.98 29.8334 150.953 29.751 150.985 29.6808L151.658 28.1949C151.675 28.1577 151.706 28.1295 151.744 28.1159C151.783 28.104 151.825 28.1073 151.86 28.1269C152.237 28.3343 152.606 28.4394 152.956 28.4394C153.389 28.4394 153.706 28.2962 154.029 27.5762L151.187 20.7237H149.331V27.578C149.331 27.6588 149.266 27.7244 149.186 27.7244H147.199C147.119 27.7244 147.054 27.6588 147.054 27.578V20.7237H146.099C146.019 20.7237 145.953 20.658 145.953 20.5774V18.8513C145.953 18.7707 146.019 18.705 146.099 18.705H147.054V18.2821C147.054 16.3168 148.024 15.2775 149.859 15.2775C150.614 15.2775 151.117 15.3985 151.511 15.5161C151.573 15.5351 151.614 15.5922 151.614 15.6564V17.3403C151.614 17.3872 151.592 17.4315 151.554 17.4591C151.516 17.4867 151.469 17.494 151.423 17.4795C151.05 17.3545 150.717 17.2718 150.303 17.2718C149.608 17.2718 149.299 17.634 149.299 18.4463V18.7224ZM144.882 18.7136C144.962 18.7136 145.027 18.7794 145.027 18.8601V27.578C145.027 27.6588 144.962 27.7244 144.882 27.7244H142.894C142.814 27.7244 142.749 27.6588 142.749 27.578V18.8601C142.749 18.7794 142.814 18.7136 142.894 18.7136H144.882ZM143.898 14.7441C144.685 14.7441 145.323 15.3851 145.323 16.1767C145.323 16.9686 144.685 17.6102 143.898 17.6102C143.111 17.6102 142.472 16.9686 142.472 16.1767C142.472 15.3851 143.111 14.7441 143.898 14.7441ZM161.389 19.5809H161.025V20.0477H161.389C161.57 20.0477 161.679 19.9584 161.679 19.8141C161.679 19.6622 161.57 19.5809 161.389 19.5809ZM161.625 20.2468L162.02 20.8037H161.687L161.331 20.293H161.025V20.8037H160.745V19.3277H161.4C161.741 19.3277 161.965 19.5031 161.965 19.7985C161.965 20.0405 161.826 20.1883 161.625 20.2468ZM161.315 18.8365C160.598 18.8365 160.056 19.4091 160.056 20.1102C160.056 20.811 160.595 21.376 161.307 21.376C162.024 21.376 162.566 20.8037 162.566 20.1022C162.566 19.4014 162.028 18.8365 161.315 18.8365ZM161.307 21.5166C160.521 21.5166 159.909 20.8815 159.909 20.1102C159.909 19.3388 160.529 18.6966 161.315 18.6966C162.101 18.6966 162.713 19.3316 162.713 20.1022C162.713 20.8735 162.094 21.5166 161.307 21.5166Z" fill="#1ED760"/>
<path fill-rule="evenodd" clip-rule="evenodd" d="M20.7449 24.9193H16.5V18.2902H17.7903V23.6851H20.7449V24.9193ZM23.8221 24.9193H22.5131V18.2902H23.8221V24.9193ZM30.6766 19.8703L29.5172 20.2256C29.4518 19.861 29.1526 19.2906 28.3111 19.2906C27.6846 19.2906 27.2732 19.6927 27.2732 20.1321C27.2732 20.4968 27.507 20.7866 27.9932 20.8801L28.9188 21.0578C30.125 21.2915 30.7701 22.0769 30.7701 23.0119C30.7701 24.0311 29.9193 25.0596 28.3765 25.0596C26.6187 25.0596 25.8427 23.9282 25.7398 22.9839L26.9366 22.666C26.9927 23.3205 27.4509 23.9095 28.3859 23.9095C29.0778 23.9095 29.4611 23.5636 29.4611 23.0961C29.4611 22.7127 29.1713 22.4135 28.657 22.3107L27.7314 22.1237C26.6748 21.9086 25.9923 21.2261 25.9923 20.2256C25.9923 19.0475 27.0488 18.1499 28.3017 18.1499C29.9099 18.1499 30.527 19.1223 30.6766 19.8703ZM37.6621 19.515H35.5677V24.9193H34.268V19.515H32.1736V18.2902H37.6621V19.515ZM43.5816 24.9193H39.4302V18.2902H43.5816V19.5057H40.7205V21.0204H43.3105V22.1704H40.7205V23.7038H43.5816V24.9193ZM51.3338 24.9193H49.9781L46.9674 20.2163V24.9193H45.6771V18.2902H47.2853L50.0435 22.6753V18.2902H51.3338V24.9193ZM57.591 21.6001C57.591 23.0961 58.6382 23.8067 59.6573 23.8067C60.6858 23.8067 61.733 23.0961 61.733 21.6001C61.733 20.1041 60.6858 19.3935 59.6573 19.3935C58.6382 19.3935 57.591 20.1041 57.591 21.6001ZM56.2539 21.6094C56.2539 19.4683 57.8621 18.1499 59.6573 18.1499C61.4619 18.1499 63.0701 19.4683 63.0701 21.6094C63.0701 23.7412 61.4619 25.0596 59.6573 25.0596C57.8621 25.0596 56.2539 23.7412 56.2539 21.6094ZM70.7287 24.9193H69.373L66.3623 20.2163V24.9193H65.072V18.2902H66.6802L69.4384 22.6753V18.2902H70.7287V24.9193Z" fill="white"/>
</svg>
