<svg xmlns="http://www.w3.org/2000/svg" width="200" height="163" fill="none" viewBox="0 0 200 163">
  <g clip-path="url(#clip0_204_2002)">
    <rect width="190" height="129" x="5" y="18.027" fill="#1A81FF" opacity=".2" rx="4.512"/>
    <rect width="190" height="129" x="5" y="18.027" fill="url(#paint0_radial_204_2002)" opacity=".2" rx="4.512"/>
    <rect width="73" height="32" x="58" y="32.027" fill="url(#paint1_linear_204_2002)" rx="4.512"/>
    <path stroke="#fff" stroke-dasharray="10.53 10.53" stroke-linecap="round" stroke-linejoin="round" stroke-width="3.008" d="M137 33.027h47v29h-47zM81 106.027h65v30H81z"/>
    <rect width="44" height="30" x="58" y="69.027" fill="url(#paint2_linear_204_2002)" rx="4.512"/>
    <rect width="32" height="69" x="153" y="69.027" fill="url(#paint3_linear_204_2002)" rx="4.512"/>
    <rect width="38" height="105" x="15" y="32.027" fill="url(#paint4_linear_204_2002)" rx="4.512"/>
    <rect width="41" height="30" x="107" y="69" fill="url(#paint5_linear_204_2002)" rx="4.512"/>
    <path stroke="#3384FF" stroke-linecap="round" stroke-miterlimit="10" stroke-width="2" d="M114 92c1.68 0 1.69-2 3.37-2 1.68 0 1.69 2 3.38 2s1.68-2 3.37-2c1.69 0 1.69 2 3.37 2 1.68 0 1.69-2 3.38-2"/>
    <path fill="url(#paint6_radial_204_2002)" d="M80.195 135.334L89.5 146.5l70-17.5-11.658-22.85a3 3 0 00-2.695-1.636l-62.67.464a3 3 0 00-2.977 3v25.436c0 .702.246 1.381.695 1.92z" opacity=".4"/>
    <g filter="url(#filter0_d_204_2002)">
      <rect width="68" height="32" fill="url(#paint7_linear_204_2002)" rx="4.512" transform="rotate(7.009 -917.172 818.34) skewX(-.018)"/>
      <rect width="68" height="32" fill="#fff" fill-opacity=".1" rx="4.512" transform="rotate(7.009 -917.172 818.34) skewX(-.018)"/>
    </g>
    <path fill="url(#paint8_radial_204_2002)" d="M136.5 34l4-15 53 16.5-10 26.5h-47V34z" opacity=".4"/>
    <g filter="url(#filter1_d_204_2002)">
      <rect width="50" height="32" fill="url(#paint9_linear_204_2002)" rx="4.512" transform="rotate(-10.401 152.548 -761.545) skewX(.027)"/>
      <rect width="50" height="32" fill="#fff" fill-opacity=".1" rx="4.512" transform="rotate(-10.401 152.548 -761.545) skewX(.027)"/>
    </g>
    <rect width="17" height="33" x="58" y="104.027" fill="url(#paint10_linear_204_2002)" rx="4.512"/>
    <g>
      <circle cx="11.5" cy="23.527" r="1.5" fill="#FF5C5C"/>
      <circle cx="15.5" cy="23.527" r="1.5" fill="#FFD80E"/>
      <circle cx="19.5" cy="23.527" r="1.5" fill="#5CFFA7"/>
    </g>
    <g>
      <path stroke="#132A49" stroke-linecap="round" stroke-miterlimit="10" stroke-width="2" d="M19 156c1.69 0 1.69 2 3.37 2 1.68 0 1.69-2 3.37-2 1.68 0 1.69 2 3.38 2s1.68-2 3.37-2c1.69 0 1.69 2 3.37 2 1.68 0 1.69-2 3.38-2s1.68 2 3.37 2c1.69 0 1.69-2 3.38-2s1.69 2 3.37 2c1.68 0 1.69-2 3.38-2s1.69 2 3.38 2 1.69-2 3.37-2c1.68 0 1.69 2 3.38 2s1.69-2 3.38-2 1.69 2 3.37 2c1.68 0 1.69-2 3.38-2s1.7 2 3.39 2c1.69 0 1.69-2 3.38-2"/>
    </g>
    <g>
      <path stroke="#3384FF" stroke-linecap="round" stroke-miterlimit="10" stroke-width="2" d="M22 129c1.68 0 1.69-2 3.37-2 1.68 0 1.69 2 3.38 2s1.68-2 3.37-2c1.69 0 1.69 2 3.37 2 1.68 0 1.69-2 3.38-2s1.68 2 3.37 2c1.69 0 1.69-2 3.38-2M22 123c1.68 0 1.69-2 3.37-2 1.68 0 1.69 2 3.38 2s1.68-2 3.37-2"/>
    </g>
  </g>
  <defs>
    <linearGradient id="paint1_linear_204_2002" x1="94.5" x2="94.5" y1="32.027" y2="64.027" gradientUnits="userSpaceOnUse">
      <stop stop-color="#1A81FF"/>
      <stop offset="1" stop-color="#1A68FF"/>
    </linearGradient>
    <linearGradient id="paint2_linear_204_2002" x1="80" x2="80" y1="69.027" y2="99.027" gradientUnits="userSpaceOnUse">
      <stop stop-color="#1A81FF"/>
      <stop offset="1" stop-color="#1A68FF"/>
    </linearGradient>
    <linearGradient id="paint3_linear_204_2002" x1="169" x2="169" y1="69.027" y2="138.027" gradientUnits="userSpaceOnUse">
      <stop stop-color="#1A81FF"/>
      <stop offset="1" stop-color="#1A68FF"/>
    </linearGradient>
    <linearGradient id="paint4_linear_204_2002" x1="34" x2="34" y1="32.027" y2="137.027" gradientUnits="userSpaceOnUse">
      <stop stop-color="#1A81FF"/>
      <stop offset="1" stop-color="#1A68FF"/>
    </linearGradient>
    <linearGradient id="paint5_linear_204_2002" x1="127.5" x2="127.5" y1="69" y2="99" gradientUnits="userSpaceOnUse">
      <stop stop-color="#1A81FF"/>
      <stop offset="1" stop-color="#1A68FF"/>
    </linearGradient>
    <linearGradient id="paint7_linear_204_2002" x1="34" x2="34" y1="0" y2="32" gradientUnits="userSpaceOnUse">
      <stop stop-color="#1A81FF"/>
      <stop offset="1" stop-color="#1A68FF"/>
    </linearGradient>
    <linearGradient id="paint9_linear_204_2002" x1="25" x2="25" y1="0" y2="32" gradientUnits="userSpaceOnUse">
      <stop stop-color="#1A81FF"/>
      <stop offset="1" stop-color="#1A68FF"/>
    </linearGradient>
    <linearGradient id="paint10_linear_204_2002" x1="66.5" x2="66.5" y1="104.027" y2="137.027" gradientUnits="userSpaceOnUse">
      <stop stop-color="#1A81FF"/>
      <stop offset="1" stop-color="#1A68FF"/>
    </linearGradient>
    <radialGradient id="paint0_radial_204_2002" cx="0" cy="0" r="1" gradientTransform="matrix(0 150.989 -174.384 0 100 18.027)" gradientUnits="userSpaceOnUse">
      <stop stop-color="#9BC5FF"/>
      <stop offset=".724" stop-color="#9BC5FF" stop-opacity="0"/>
    </radialGradient>
    <radialGradient id="paint6_radial_204_2002" cx="0" cy="0" r="1" gradientTransform="matrix(2.33423 56.3774 -83.90321 3.4739 118.689 103.549)" gradientUnits="userSpaceOnUse">
      <stop offset=".297" stop-color="#fff" stop-opacity="0"/>
      <stop offset="1" stop-color="#fff"/>
    </radialGradient>
    <radialGradient id="paint8_radial_204_2002" cx="0" cy="0" r="1" gradientTransform="rotate(88.418 74.098 91.848) scale(61.3962 61.0045)" gradientUnits="userSpaceOnUse">
      <stop stop-color="#fff"/>
      <stop offset=".682" stop-color="#fff" stop-opacity="0"/>
    </radialGradient>
    <filter id="filter0_d_204_2002" width="115.493" height="84.146" x="67.042" y="95.983" color-interpolation-filters="sRGB" filterUnits="userSpaceOnUse">
      <feFlood flood-opacity="0" result="BackgroundImageFix"/>
      <feColorMatrix in="SourceAlpha" result="hardAlpha" values="0 0 0 0 0 0 0 0 0 0 0 0 0 0 0 0 0 0 127 0"/>
      <feOffset/>
      <feGaussianBlur stdDeviation="11.28"/>
      <feComposite in2="hardAlpha" operator="out"/>
      <feColorMatrix values="0 0 0 0 0 0 0 0 0 0 0 0 0 0 0 0 0 0 0.25 0"/>
      <feBlend in2="BackgroundImageFix" result="effect1_dropShadow_204_2002"/>
      <feBlend in="SourceGraphic" in2="effect1_dropShadow_204_2002" result="shape"/>
    </filter>
    <filter id="filter1_d_204_2002" width="98.61" height="84.141" x="118.18" y="-15.821" color-interpolation-filters="sRGB" filterUnits="userSpaceOnUse">
      <feFlood flood-opacity="0" result="BackgroundImageFix"/>
      <feColorMatrix in="SourceAlpha" result="hardAlpha" values="0 0 0 0 0 0 0 0 0 0 0 0 0 0 0 0 0 0 127 0"/>
      <feOffset/>
      <feGaussianBlur stdDeviation="11.28"/>
      <feComposite in2="hardAlpha" operator="out"/>
      <feColorMatrix values="0 0 0 0 0 0 0 0 0 0 0 0 0 0 0 0 0 0 0.25 0"/>
      <feBlend in2="BackgroundImageFix" result="effect1_dropShadow_204_2002"/>
      <feBlend in="SourceGraphic" in2="effect1_dropShadow_204_2002" result="shape"/>
    </filter>
    <clipPath id="clip0_204_2002">
      <path fill="#fff" d="M0 0h200v163H0z"/>
    </clipPath>
  </defs>
</svg>
