<svg xmlns="http://www.w3.org/2000/svg" width="200" height="163" fill="none" viewBox="0 0 200 163">
  <g clip-path="url(#clip0_204_1967)">
    <rect width="184" height="124" y="20.331" fill="url(#paint0_linear_204_1967)" rx="5"/>
    <rect width="180" height="120" x="2" y="22.331" fill="url(#paint1_linear_204_1967)" opacity=".5" rx="4.51"/>
    <path fill="#152B4F" d="M2 26.841a4.51 4.51 0 014.51-4.51H110v120H6.51a4.51 4.51 0 01-4.51-4.51V26.841z"/>
    <circle cx="7.5" cy="27.831" r="1.5" fill="#FF5C5C"/>
    <circle cx="11.5" cy="27.831" r="1.5" fill="#FFD80E"/>
    <circle cx="15.5" cy="27.831" r="1.5" fill="#5CFFA7"/>
    <g>
      <path stroke="#FDFDFD" stroke-linecap="round" stroke-miterlimit="10" stroke-width="1.5" d="M65 134.331c1.69 0 1.69-2 3.38-2s1.69 2 3.37 2c1.68 0 1.69-2 3.38-2s1.69 2 3.38 2 1.69-2 3.37-2c1.68 0 1.69 2 3.38 2s1.69-2 3.38-2 1.69 2 3.37 2c1.68 0 1.69-2 3.38-2s1.7 2 3.39 2c1.69 0 1.69-2 3.38-2"/>
      <path stroke="#2F415A" stroke-linecap="round" stroke-miterlimit="10" stroke-width="1.5" d="M11 93.331c1.69 0 1.69-2 3.38-2s1.69 2 3.37 2c1.68 0 1.69-2 3.38-2s1.69 2 3.38 2 1.69-2 3.37-2c1.68 0 1.69 2 3.38 2s1.69-2 3.38-2 1.69 2 3.37 2c1.68 0 1.69-2 3.38-2s1.7 2 3.39 2c1.69 0 1.69-2 3.38-2M11 103.331c1.69 0 1.69-2 3.38-2s1.69 2 3.37 2c1.68 0 1.69-2 3.38-2s1.69 2 3.38 2 1.69-2 3.37-2c1.68 0 1.69 2 3.38 2s1.69-2 3.38-2M11 98.331c1.69 0 1.69-2 3.38-2s1.69 2 3.37 2c1.68 0 1.69-2 3.38-2s1.69 2 3.38 2"/>
    </g>
    <g>
      <path fill="url(#paint2_radial_204_1967)" d="M42.473 155.701L19.4 125.779l28.168-21.7c.42-.323.952-.467 1.478-.399l20.961 2.714a2 2 0 011.743 2.019l-.435 24.122a2 2 0 01-.779 1.548l-28.063 21.618z" opacity=".3"/>
      <rect width="29.388" height="29.388" x="42.114" y="158.477" fill="url(#paint3_linear_204_1967)" rx="3" transform="rotate(-172.622 42.114 158.477)"/>
    </g>
    <rect width="63" height="63" x="115" y="75.331" fill="#152B4F" rx="4.512"/>
    <g>
      <path fill="url(#paint4_radial_204_1967)" d="M77.79 6.365l-47.606 57.88 45.09 37.039a2.005 2.005 0 001.64.42l40.829-7.674a2 2 0 001.623-1.79l4.143-47.194a1.997 1.997 0 00-.722-1.72L77.789 6.366z" opacity=".43"/>
      <rect width="56" height="56" fill="url(#paint5_linear_204_1967)" rx="3" transform="scale(-1 1) rotate(5.581 -99.303 -821.873)"/>
      <rect width="51" height="51" x="-.449" y=".546" stroke="url(#paint6_linear_204_1967)" rx="2.5" transform="scale(-1 1) rotate(5.581 -120.818 -792.6)"/>
      <path fill="#554505" d="M50.551 51.375l-1.307 2.088c-.12.197-.13.383.054.55 1.045.957 2.874 1.626 5.23 1.396 3.993-.39 6.533-2.757 6.044-7.767l-1.085-11.094c-.023-.236-.205-.377-.454-.352l-2.967.29c-.25.024-.4.198-.377.434l1.071 10.963c.262 2.675-.823 3.893-2.68 4.074-1.387.136-2.275-.36-2.921-.667-.237-.136-.487-.112-.608.085zM66.445 40.529c-.106-1.076.733-1.952 2.285-2.104 1.386-.135 2.403.242 3.86 1.106.236.136.428.09.574-.136l1.353-1.906c.174-.229.158-.386-.054-.55-1.696-1.318-3.76-2.096-6.172-1.86-3.188.312-5.854 2.532-5.542 5.731.587 6.006 9.695 4.11 10.013 7.362.128 1.312-1.093 2.278-2.73 2.438-1.69.166-3.06-.39-4.499-1.36-.24-.163-.459-.115-.607.085l-1.497 1.868c-.149.2-.13.383.026.553 1.416 1.318 3.995 2.496 6.823 2.22 3.382-.331 6.545-2.626 6.207-6.088-.623-6.373-9.725-4.133-10.04-7.36z"/>
    </g>
    <g>
      <rect width="63" height="63" x="115" y="75.331" fill="url(#paint7_radial_204_1967)" opacity=".3" rx="4.512"/>
      <path fill="#fff" d="M152.654 102.679h-12.727c-.261 0-.434.174-.434.434v2.633c0 .26.173.434.434.434h4.396v16.314c0 .26.174.434.434.434h3.095c.261 0 .434-.174.434-.434V106.18h4.368c.26 0 .434-.174.434-.434v-2.633c0-.26-.174-.434-.434-.434zm5.75 5.525c0-1.186.955-2.053 2.574-2.053 1.447 0 2.459.52 3.877 1.619.231.174.433.145.607-.086l1.591-1.938c.202-.232.202-.405 0-.608-1.62-1.62-3.674-2.69-6.19-2.69-3.327 0-6.306 2.141-6.306 5.67 0 6.624 9.603 5.524 9.603 9.111 0 1.447-1.359 2.372-3.066 2.372-1.764 0-3.124-.752-4.512-1.967-.232-.202-.463-.173-.637.029l-1.735 1.88c-.174.203-.174.405-.029.608 1.331 1.591 3.876 3.153 6.826 3.153 3.529 0 7.029-2.17 7.029-5.988 0-7.029-9.632-5.554-9.632-9.112z"/>
      <path fill="url(#paint8_radial_204_1967)" d="M167.057 50.752l26.574 38.555-36.301 24.995a1.997 1.997 0 01-1.582.302l-27.15-6.231a2 2 0 01-1.544-2.146l2.886-29.059a1.997 1.997 0 01.856-1.449l36.261-24.967z" opacity=".4"/>
      <rect width="35.588" height="35.588" x="165.082" y="49.371" fill="url(#paint9_linear_204_1967)" rx="3" transform="rotate(10.437 165.082 49.37)"/>
    </g>
  </g>
  <defs>
    <linearGradient id="paint0_linear_204_1967" x1="92" x2="92" y1="20.331" y2="144.331" gradientUnits="userSpaceOnUse">
      <stop stop-color="#1A81FF"/>
      <stop offset="1" stop-color="#1A68FF"/>
    </linearGradient>
    <linearGradient id="paint1_linear_204_1967" x1="92" x2="92" y1="22.331" y2="142.331" gradientUnits="userSpaceOnUse">
      <stop stop-color="#004EE0"/>
      <stop offset="1" stop-color="#00379F"/>
    </linearGradient>
    <linearGradient id="paint3_linear_204_1967" x1="56.808" x2="56.808" y1="158.477" y2="187.865" gradientUnits="userSpaceOnUse">
      <stop stop-color="#FFE13F"/>
      <stop offset="1" stop-color="#E7B70F"/>
    </linearGradient>
    <linearGradient id="paint5_linear_204_1967" x1="28" x2="28" y1="0" y2="56" gradientUnits="userSpaceOnUse">
      <stop stop-color="#FFE13F"/>
      <stop offset="1" stop-color="#E7B70F"/>
    </linearGradient>
    <linearGradient id="paint6_linear_204_1967" x1="26" x2="26" y1="0" y2="52" gradientUnits="userSpaceOnUse">
      <stop stop-color="#FFED8D"/>
      <stop offset="1" stop-color="#F8D531"/>
    </linearGradient>
    <linearGradient id="paint9_linear_204_1967" x1="182.876" x2="182.876" y1="49.371" y2="84.959" gradientUnits="userSpaceOnUse">
      <stop stop-color="#FFE13F"/>
      <stop offset="1" stop-color="#E7B70F"/>
    </linearGradient>
    <radialGradient id="paint2_radial_204_1967" cx="0" cy="0" r="1" gradientTransform="matrix(59.4419 -47.20943 25.15733 31.67586 27.715 144.17)" gradientUnits="userSpaceOnUse">
      <stop stop-color="#fff"/>
      <stop offset=".682" stop-color="#fff" stop-opacity="0"/>
    </radialGradient>
    <radialGradient id="paint4_radial_204_1967" cx="0" cy="0" r="1" gradientTransform="rotate(40.423 -15.282 81.232) scale(124.93 80.2265)" gradientUnits="userSpaceOnUse">
      <stop stop-color="#fff"/>
      <stop offset=".682" stop-color="#fff" stop-opacity="0"/>
    </radialGradient>
    <radialGradient id="paint7_radial_204_1967" cx="0" cy="0" r="1" gradientTransform="matrix(0 73.7386 -57.822 0 146.5 75.331)" gradientUnits="userSpaceOnUse">
      <stop stop-color="#fff"/>
      <stop offset=".724" stop-color="#fff" stop-opacity="0"/>
    </radialGradient>
    <radialGradient id="paint8_radial_204_1967" cx="0" cy="0" r="1" gradientTransform="matrix(-76.27606 54.21058 -29.04097 -40.86159 184.534 66.014)" gradientUnits="userSpaceOnUse">
      <stop stop-color="#fff"/>
      <stop offset=".682" stop-color="#fff" stop-opacity="0"/>
    </radialGradient>
    <clipPath id="clip0_204_1967">
      <path fill="#fff" d="M0 0h200v163H0z"/>
    </clipPath>
  </defs>
</svg>
