<svg xmlns="http://www.w3.org/2000/svg" width="16" height="16" fill="none" viewBox="0 0 32 32">
    <style>
      #logo {
        fill: #000;
      }
      @media (prefers-color-scheme: dark) {
        #logo {
          fill: #B9F8D7;
        }
      }
    </style>
    <path id="logo" d="M12.5885 15.8103C9.78447 17.3363 7.36791 19.4962 4.60943 21.1161C3.85712 21.5622 3.10481 21.9847 2.32969 22.3604C1.64578 22.6891 0.893453 22.8769 0.32352 22.1727C-0.246413 21.4448 0.00444048 20.6231 0.551576 20.0127C1.78264 18.651 3.05928 17.2893 4.40433 16.045C6.79805 13.8381 9.19169 11.6313 11.4487 9.28361C13.1128 7.56979 14.8682 5.97338 16.7148 4.47085C17.1935 4.07174 17.6951 3.74316 18.1054 4.28313C18.4702 4.79963 17.7407 5.03441 17.4672 5.31613C13.7056 9.2368 10.2404 13.4391 6.13681 17.3832C6.91192 17.3832 7.27673 17.0077 7.61869 16.7494C11.9502 13.2983 16.7832 10.6218 21.2515 7.38198C21.9353 6.88896 22.7334 6.46638 23.4401 7.24112C24.2379 8.10978 23.5541 8.83769 23.0069 9.42461C20.7956 11.8428 18.5159 14.1669 16.0309 16.3268C15.7346 16.585 15.3014 16.7494 15.3242 17.2658C15.233 17.2658 15.0506 17.219 15.1874 17.4302C15.233 17.3598 15.2786 17.3128 15.3014 17.2424C17.1707 16.4206 18.5615 14.8242 20.3624 13.8381C22.2318 12.8287 24.01 11.6549 25.8338 10.575C26.1073 10.4106 26.4265 10.3167 26.7229 10.2698C27.27 10.1524 27.84 10.1758 28.2048 10.6923C28.5923 11.2558 28.5239 11.8193 28.1135 12.3593C26.7912 14.0731 25.3321 15.6929 23.8047 17.2424C22.9384 18.111 22.1177 19.0502 21.1146 20.1067C22.1862 19.731 22.9158 19.097 23.7365 18.698C25.6286 17.7589 27.5663 16.8433 29.5041 16.0217C30.2108 15.7165 31.0543 15.5756 31.6471 16.3033C32.2397 17.0077 31.9891 17.8058 31.6015 18.5336C30.8264 19.9892 29.6865 21.1161 28.7063 22.3839C28.1135 23.1586 27.4752 23.863 26.7457 24.7785C27.84 25.0368 28.5923 24.3794 29.4129 24.2151C29.7093 24.1447 30.0513 23.8865 30.2565 24.2386C30.4616 24.6143 30.0741 24.7785 29.8461 24.9898C28.273 26.328 26.495 27.3844 24.7851 28.5113C24.0556 29.0044 23.1666 29.3331 22.5054 28.441C21.8899 27.6193 21.981 26.6332 22.551 25.8351C23.668 24.2621 24.9219 22.7595 26.1073 21.257C26.3125 20.9988 26.4949 20.764 26.7912 20.3883C25.3549 20.318 24.4431 21.1866 23.4401 21.7031C21.3883 22.7595 19.4733 24.1212 17.3076 24.9664C16.4641 25.2951 15.803 25.1543 15.233 24.5204C14.6175 23.8395 14.6859 23.1351 15.1874 22.3604C16.1905 20.8108 17.4671 19.5667 18.8806 18.4632C19.7013 17.8528 20.3851 17.1485 21.0919 16.4207C20.6587 16.0217 20.4536 16.4207 20.2257 16.5381C17.1936 18.5571 14.2756 20.7874 11.0611 22.5482C10.3772 22.9238 9.76169 23.3933 8.94098 23.4169C7.64153 23.4169 7.04873 22.5481 7.59588 21.3508C8.37098 19.637 9.78447 18.4867 11.1751 17.3832C11.6994 16.9606 12.315 16.6085 12.6342 15.9746C12.8393 15.9043 13.0444 15.8338 13.1128 15.5756C13.204 15.5286 13.4092 15.552 13.204 15.3643C13.1585 15.4346 13.1357 15.5051 13.0901 15.5521C12.8393 15.5051 12.6568 15.599 12.5429 15.8103H12.5885ZM21.6163 15.8103L21.8899 15.5286C21.8899 15.5286 21.9354 15.4582 21.981 15.4347C21.981 15.4817 21.9354 15.5051 21.9127 15.5521C21.8215 15.646 21.7303 15.7399 21.6392 15.8338C21.5707 15.8807 21.3428 15.7869 21.5023 16.0217L21.6163 15.8338V15.8103Z"/>
  </svg>