<svg xmlns="http://www.w3.org/2000/svg" width="24" height="24" fill="none" viewBox="0 0 24 24">
    <style>
      #logo {
        fill: #000;
      }
      @media (prefers-color-scheme: dark) {
        #logo {
          fill: #B9F8D7;
        }
      }
    </style>
    <path id="logo" d="M22.9873 6.45472C22.9833 6.4077 22.9803 6.36074 22.9613 6.31471C22.9563 6.30271 22.9463 6.29469 22.9403 6.28269C22.9273 6.25771 22.9123 6.23671 22.8953 6.2137C22.8613 6.16668 22.8233 6.12769 22.7773 6.09572C22.7653 6.0877 22.7603 6.0727 22.7473 6.06572L12.2477 0.0659854C12.0938 -0.0219951 11.9058 -0.0219951 11.7518 0.0659854L1.25223 6.06572C1.24023 6.07373 1.23522 6.0877 1.22322 6.09572C1.17522 6.12872 1.13421 6.1687 1.09924 6.21871C1.08522 6.23873 1.07126 6.25673 1.06024 6.27871C1.05326 6.29169 1.04224 6.30069 1.03624 6.31471C1.01426 6.36969 1.00723 6.42669 1.00526 6.4827C1.00526 6.4887 1.00024 6.4947 1.00024 6.5007V6.50871C1.00024 6.5097 1.00024 6.5097 1.00024 6.51073V17.4932C1.00024 17.4942 1.00024 17.4962 1.00024 17.4972V17.5002C1.00024 17.5102 1.00723 17.5192 1.00826 17.5292C1.01224 17.5992 1.02326 17.6692 1.05724 17.7332C1.05926 17.7372 1.06324 17.7382 1.06526 17.7422C1.07824 17.7652 1.10126 17.7802 1.11827 17.8012C1.15525 17.8472 1.19125 17.8922 1.24028 17.9233C1.2453 17.9263 1.24726 17.9323 1.2513 17.9343L11.7508 23.934C11.8288 23.978 11.9138 24 11.9998 24C12.0858 24 12.1708 23.978 12.2478 23.934L22.7474 17.9343C22.7524 17.9313 22.7544 17.9253 22.7594 17.9223C22.8054 17.8943 22.8374 17.8523 22.8724 17.8103C22.8924 17.7863 22.9194 17.7683 22.9344 17.7413C22.9364 17.7383 22.9394 17.7363 22.9414 17.7333C22.9684 17.6813 22.9734 17.6243 22.9814 17.5683C22.9844 17.5453 22.9994 17.5243 22.9994 17.5003V6.5007C22.9993 6.48472 22.9883 6.4707 22.9873 6.45472ZM21.3514 6.42069L17.6835 7.88762L13.6497 2.01988L21.3514 6.42069ZM11.9998 1.38293L16.5496 8.00063H7.44997L11.9998 1.38293ZM10.3469 2.02091L6.31405 7.88767L2.64717 6.42069L10.3469 2.02091ZM2.00019 7.23867L5.78602 8.7536L2.00019 15.5693V7.23867ZM6.49802 9.53356L11.1068 17.9132L2.30819 17.0752L6.49802 9.53356ZM11.4998 22.638L3.76013 18.2162L11.4998 18.9461V22.638ZM11.9998 17.4622L7.346 9.00057H16.6536L11.9998 17.4622ZM12.4997 22.638V18.9551L20.2354 18.2181L12.4997 22.638ZM12.8897 17.9222L17.5025 9.53656L21.6913 17.0762L12.8897 17.9222ZM21.9993 15.5713L18.2115 8.7536L21.9993 7.23867V15.5713Z"/>
  </svg>