<svg width="284" height="284" viewBox="0 0 284 284" fill="none" xmlns="http://www.w3.org/2000/svg">
<path fill-rule="evenodd" clip-rule="evenodd" d="M4.17421 116.94C1.87783 116.94 0.00283998 115.076 0.00283998 112.768C0.00283998 110.461 1.87768 108.586 4.17421 108.586C6.48169 108.586 8.35665 110.461 8.35665 112.768C8.35665 115.076 6.48181 116.94 4.17421 116.94ZM279.829 116.94C277.521 116.94 275.646 115.076 275.646 112.768C275.646 110.461 277.521 108.586 279.829 108.586C282.125 108.586 284 110.461 284 112.768C284 115.076 282.125 116.94 279.829 116.94ZM279.829 58.4753C277.521 58.4753 275.646 56.6004 275.646 54.2928C275.646 51.9852 277.521 50.1214 279.829 50.1214C282.125 50.1214 284 51.9851 284 54.2928C284 56.6004 282.125 58.4753 279.829 58.4753ZM279.829 175.416C277.521 175.416 275.646 173.541 275.646 171.233C275.646 168.925 277.521 167.062 279.829 167.062C282.125 167.062 284 168.925 284 171.233C284 173.541 282.125 175.416 279.829 175.416ZM279.829 233.88C277.521 233.88 275.646 232.016 275.646 229.709C275.646 227.401 277.521 225.526 279.829 225.526C282.125 225.526 284 227.401 284 229.709C284 232.016 282.125 233.88 279.829 233.88ZM167.061 4.17141C167.061 1.875 168.925 0 171.233 0C173.54 0 175.415 1.87486 175.415 4.17141C175.415 6.47892 173.54 8.35389 171.233 8.35389C168.925 8.35389 167.061 6.47903 167.061 4.17141V4.17141ZM225.525 4.17141C225.525 1.875 227.4 0 229.708 0C232.015 0 233.879 1.87486 233.879 4.17141C233.879 6.47892 232.015 8.35389 229.708 8.35389C227.4 8.35389 225.525 6.47903 225.525 4.17141V4.17141ZM108.586 4.17141C108.586 1.875 110.461 0 112.769 0C115.076 0 116.94 1.87486 116.94 4.17141C116.94 6.47892 115.076 8.35389 112.769 8.35389C110.461 8.35389 108.586 6.47903 108.586 4.17141V4.17141ZM50.1223 4.17141C50.1223 1.875 51.986 0 54.2937 0C56.6013 0 58.4761 1.87486 58.4761 4.17141C58.4761 6.47892 56.6013 8.35389 54.2937 8.35389C51.9861 8.35389 50.1223 6.47903 50.1223 4.17141V4.17141ZM167.061 279.829C167.061 277.521 168.925 275.646 171.233 275.646C173.54 275.646 175.415 277.521 175.415 279.829C175.415 282.125 173.54 284 171.233 284C168.925 284 167.061 282.125 167.061 279.829ZM225.525 279.829C225.525 277.521 227.4 275.646 229.708 275.646C232.015 275.646 233.879 277.521 233.879 279.829C233.879 282.125 232.015 284 229.708 284C227.4 284 225.525 282.125 225.525 279.829ZM108.586 279.829C108.586 277.521 110.461 275.646 112.769 275.646C115.076 275.646 116.94 277.521 116.94 279.829C116.94 282.125 115.076 284 112.769 284C110.461 284 108.586 282.125 108.586 279.829ZM50.1223 279.829C50.1223 277.521 51.986 275.646 54.2937 275.646C56.6013 275.646 58.4761 277.521 58.4761 279.829C58.4761 282.125 56.6013 284 54.2937 284C51.9861 284 50.1223 282.125 50.1223 279.829ZM4.17137 58.4753C1.87499 58.4753 0 56.6004 0 54.2928C0 51.9852 1.87484 50.1214 4.17137 50.1214C6.47885 50.1214 8.35381 51.9851 8.35381 54.2928C8.35381 56.6004 6.47897 58.4753 4.17137 58.4753V58.4753ZM4.17137 175.416C1.87499 175.416 0 173.541 0 171.233C0 168.925 1.87484 167.062 4.17137 167.062C6.47885 167.062 8.35381 168.925 8.35381 171.233C8.35381 173.541 6.47897 175.416 4.17137 175.416V175.416ZM4.17137 233.88C1.87499 233.88 0 232.016 0 229.709C0 227.401 1.87484 225.526 4.17137 225.526C6.47885 225.526 8.35381 227.401 8.35381 229.709C8.35381 232.016 6.47897 233.88 4.17137 233.88V233.88ZM54.2914 121.123C49.6764 121.123 45.9379 117.384 45.9379 112.769C45.9379 108.154 49.6764 104.416 54.2914 104.416C58.9064 104.416 62.6449 108.154 62.6449 112.769C62.6449 117.384 58.9064 121.123 54.2914 121.123V121.123ZM229.706 121.123C225.091 121.123 221.352 117.384 221.352 112.769C221.352 108.154 225.091 104.416 229.706 104.416C234.321 104.416 238.059 108.154 238.059 112.769C238.059 117.384 234.321 121.123 229.706 121.123ZM171.231 62.6472C166.616 62.6472 162.877 58.9086 162.877 54.2936C162.877 49.6786 166.616 45.94 171.231 45.94C175.846 45.94 179.584 49.6786 179.584 54.2936C179.584 58.9086 175.846 62.6472 171.231 62.6472V62.6472ZM171.231 238.063C166.616 238.063 162.877 234.325 162.877 229.71C162.877 225.095 166.616 221.356 171.231 221.356C175.846 221.356 179.584 225.095 179.584 229.71C179.584 234.325 175.846 238.063 171.231 238.063ZM112.767 62.6472C108.152 62.6472 104.413 58.9086 104.413 54.2936C104.413 49.6786 108.152 45.94 112.767 45.94C117.382 45.94 121.12 49.6786 121.12 54.2936C121.12 58.9086 117.382 62.6472 112.767 62.6472ZM171.231 125.295C164.319 125.295 158.706 119.681 158.706 112.77C158.706 105.848 164.319 100.234 171.231 100.234C178.153 100.234 183.766 105.848 183.766 112.77C183.766 119.681 178.153 125.295 171.231 125.295V125.295ZM112.767 125.295C105.844 125.295 100.231 119.681 100.231 112.77C100.231 105.848 105.844 100.234 112.767 100.234C119.678 100.234 125.292 105.848 125.292 112.77C125.292 119.681 119.678 125.295 112.767 125.295ZM171.231 183.771C164.319 183.771 158.706 178.157 158.706 171.235C158.706 164.323 164.319 158.71 171.231 158.71C178.153 158.71 183.766 164.323 183.766 171.235C183.766 178.157 178.153 183.771 171.231 183.771V183.771ZM112.767 183.771C105.844 183.771 100.231 178.157 100.231 171.235C100.231 164.323 105.844 158.71 112.767 158.71C119.678 158.71 125.292 164.323 125.292 171.235C125.292 178.157 119.678 183.771 112.767 183.771V183.771ZM112.767 238.063C108.152 238.063 104.413 234.325 104.413 229.71C104.413 225.095 108.152 221.356 112.767 221.356C117.382 221.356 121.12 225.095 121.12 229.71C121.12 234.325 117.382 238.063 112.767 238.063ZM54.2914 58.4781C51.9839 58.4781 50.12 56.6032 50.12 54.2956C50.12 51.988 51.9838 50.1242 54.2914 50.1242C56.599 50.1242 58.4738 51.988 58.4738 54.2956C58.4738 56.6033 56.599 58.4781 54.2914 58.4781ZM229.706 58.4781C227.398 58.4781 225.523 56.6032 225.523 54.2956C225.523 51.988 227.398 50.1242 229.706 50.1242C232.013 50.1242 233.877 51.988 233.877 54.2956C233.877 56.6033 232.013 58.4781 229.706 58.4781ZM54.2914 179.59C49.6764 179.59 45.9379 175.852 45.9379 171.237C45.9379 166.622 49.6764 162.883 54.2914 162.883C58.9064 162.883 62.6449 166.622 62.6449 171.237C62.6449 175.852 58.9064 179.59 54.2914 179.59ZM229.706 179.59C225.091 179.59 221.352 175.852 221.352 171.237C221.352 166.622 225.091 162.883 229.706 162.883C234.321 162.883 238.059 166.622 238.059 171.237C238.059 175.852 234.321 179.59 229.706 179.59ZM54.2914 233.883C51.9839 233.883 50.12 232.019 50.12 229.711C50.12 227.404 51.9838 225.529 54.2914 225.529C56.599 225.529 58.4738 227.404 58.4738 229.711C58.4738 232.019 56.599 233.883 54.2914 233.883ZM229.706 233.883C227.398 233.883 225.523 232.019 225.523 229.711C225.523 227.404 227.398 225.529 229.706 225.529C232.013 225.529 233.877 227.404 233.877 229.711C233.877 232.019 232.013 233.883 229.706 233.883Z" fill="white"/>
</svg>
