<svg width="203" height="252" viewBox="0 0 203 252" fill="none" xmlns="http://www.w3.org/2000/svg">
<path d="M199 188.863C193.643 200.52 191.082 205.719 184.177 216.021C174.561 230.402 160.996 248.316 144.185 248.463C129.248 248.602 125.41 238.92 105.144 239.035C84.8787 239.149 80.6443 248.639 65.7074 248.5C48.8962 248.349 36.05 232.179 26.4256 217.785C-0.479587 177.568 -3.29302 130.369 13.3017 105.276C25.0944 87.4363 43.7063 77.0115 61.1994 77.0115C79.0109 77.0115 90.2074 86.6033 104.94 86.6033C119.228 86.6033 127.933 76.9993 148.53 76.9993C164.1 76.9993 180.592 85.3211 192.348 99.7027C153.838 120.426 160.098 174.416 199 188.863Z" stroke="white" stroke-width="5" stroke-miterlimit="10" stroke-linecap="square"/>
<path d="M138.24 42.0662C146.039 32.062 151.952 17.9377 149.804 3.49902C137.068 4.36878 122.18 12.4742 113.482 23.0338C105.589 32.6174 99.0683 46.8315 101.604 60.6495C115.5 61.0865 129.885 52.785 138.24 42.0662Z" stroke="white" stroke-width="5" stroke-miterlimit="10" stroke-linecap="square"/>
</svg>
