<svg width="300" height="289" viewBox="0 0 300 289" fill="none" xmlns="http://www.w3.org/2000/svg">
<path d="M91.0843 1.19917C92.0438 0.789708 93.0085 0.389944 93.9781 0H206.022C206.992 0.389944 207.956 0.789708 208.916 1.19917H91.0843Z" fill="white"/>
<path d="M68.5382 13.1909C69.1632 12.7866 69.7915 12.3869 70.4229 11.9917H229.577C230.209 12.3869 230.837 12.7866 231.462 13.1909H68.5382Z" fill="white"/>
<path d="M53.8785 23.9834C53.4026 24.3802 52.9291 24.78 52.4583 25.1826H247.542C247.071 24.78 246.597 24.3802 246.122 23.9834H53.8785Z" fill="white"/>
<path d="M39.962 37.1743C40.3352 36.7725 40.7107 36.3728 41.0882 35.9751H258.912C259.289 36.3728 259.665 36.7725 260.038 37.1743H39.962Z" fill="white"/>
<path d="M30.8399 47.9668C30.5342 48.365 30.2305 48.7647 29.9287 49.166H118.189C119.455 48.7414 120.733 48.3415 122.021 47.9668H30.8399Z" fill="white"/>
<path d="M177.979 47.9668C179.267 48.3415 180.545 48.7414 181.811 49.166H270.071C269.77 48.7647 269.466 48.365 269.16 47.9668H177.979Z" fill="white"/>
<path d="M95.7835 59.9585H22.5253C22.2768 60.357 22.0301 60.7567 21.7853 61.1577H93.9719C94.5712 60.7516 95.1751 60.3518 95.7835 59.9585Z" fill="white"/>
<path d="M206.028 61.1577C205.429 60.7516 204.825 60.3518 204.216 59.9585H277.475C277.723 60.357 277.97 60.7567 278.215 61.1577H206.028Z" fill="white"/>
<path d="M80.6541 71.9502H15.791C15.5906 72.3489 15.3919 72.7486 15.195 73.1494H79.4295C79.8343 72.7462 80.2425 72.3465 80.6541 71.9502Z" fill="white"/>
<path d="M220.57 73.1494C220.166 72.7462 219.757 72.3465 219.346 71.9502H284.209C284.409 72.3489 284.608 72.7486 284.805 73.1494H220.57Z" fill="white"/>
<path d="M70.0363 83.9419H10.4129C10.2548 84.3408 10.0983 84.7405 9.94351 85.1411H69.1481C69.4413 84.7391 69.7374 84.3393 70.0363 83.9419Z" fill="white"/>
<path d="M230.852 85.1411C230.559 84.7391 230.263 84.3393 229.964 83.9419H289.587C289.745 84.3408 289.902 84.7405 290.057 85.1411H230.852Z" fill="white"/>
<path d="M62.2882 95.9336H6.24197C6.12202 96.3326 6.0037 96.7324 5.887 97.1328H61.6403C61.8536 96.7314 62.0696 96.3317 62.2882 95.9336Z" fill="white"/>
<path d="M238.36 97.1328C238.146 96.7314 237.93 96.3317 237.712 95.9336H293.758C293.878 96.3326 293.996 96.7324 294.113 97.1328H238.36Z" fill="white"/>
<path d="M56.7048 107.925H3.17552C3.09098 108.324 3.00802 108.724 2.92667 109.124H56.2497C56.3989 108.724 56.5506 108.324 56.7048 107.925Z" fill="white"/>
<path d="M243.75 109.124C243.601 108.724 243.449 108.324 243.295 107.925H296.824C296.909 108.324 296.992 108.724 297.073 109.124H243.75Z" fill="white"/>
<path d="M52.9191 119.917H1.14254C1.09147 120.316 1.04197 120.716 0.994055 121.116H52.6305C52.7243 120.716 52.8205 120.316 52.9191 119.917Z" fill="white"/>
<path d="M247.37 121.116C247.276 120.716 247.18 120.316 247.081 119.917H298.857C298.909 120.316 298.958 120.716 299.006 121.116H247.37Z" fill="white"/>
<path d="M50.7236 131.909H0.0944656C0.075572 132.308 0.0582427 132.708 0.0424838 133.108H50.5864C50.6297 132.707 50.6755 132.308 50.7236 131.909Z" fill="white"/>
<path d="M249.414 133.108C249.37 132.707 249.325 132.308 249.276 131.909H299.906C299.924 132.308 299.942 132.708 299.958 133.108H249.414Z" fill="white"/>
<path d="M50 143.9H0C0.0125933 144.301 0.0267565 144.7 0.0424838 145.1H50.0059C50.002 144.734 50 144.367 50 144C50 143.967 50 143.934 50 143.9Z" fill="white"/>
<path d="M249.994 145.1C249.998 144.734 250 144.367 250 144C250 143.967 250 143.934 250 143.9H300C299.996 144.022 299.992 144.144 299.988 144.266C299.979 144.544 299.968 144.822 299.958 145.1H249.994Z" fill="white"/>
<path d="M50.6998 155.892H0.855364C0.900019 156.292 0.946251 156.692 0.994055 157.091H50.8492C50.797 156.692 50.7472 156.293 50.6998 155.892Z" fill="white"/>
<path d="M249.151 157.091C249.203 156.692 249.253 156.293 249.3 155.892H299.145C299.1 156.292 299.054 156.692 299.006 157.091H249.151Z" fill="white"/>
<path d="M52.87 167.884H2.68808C2.76602 168.284 2.84555 168.684 2.92667 169.083H53.1718C53.0688 168.684 52.9682 168.285 52.87 167.884Z" fill="white"/>
<path d="M246.828 169.083C246.931 168.684 247.032 168.285 247.13 167.884H297.312C297.234 168.284 297.154 168.684 297.073 169.083H246.828Z" fill="white"/>
<path d="M56.628 179.876H5.54297C5.65603 180.276 5.7707 180.676 5.887 181.075H57.0979C56.9388 180.676 56.7821 180.276 56.628 179.876Z" fill="white"/>
<path d="M242.902 181.075C243.061 180.676 243.218 180.276 243.372 179.876H294.457C294.344 180.276 294.229 180.676 294.113 181.075H242.902Z" fill="white"/>
<path d="M62.1791 191.867H9.48601C9.63684 192.268 9.78935 192.667 9.94351 193.066H62.8448C62.6203 192.668 62.3984 192.269 62.1791 191.867Z" fill="white"/>
<path d="M237.155 193.066C237.38 192.668 237.602 192.269 237.821 191.867H290.514C290.363 192.268 290.211 192.667 290.057 193.066H237.155Z" fill="white"/>
<path d="M69.8869 203.859H14.6125C14.8049 204.26 14.9991 204.659 15.195 205.058H70.7985C70.4917 204.661 70.1878 204.261 69.8869 203.859Z" fill="white"/>
<path d="M229.202 205.058C229.508 204.661 229.812 204.261 230.113 203.859H285.388C285.195 204.26 285.001 204.659 284.805 205.058H229.202Z" fill="white"/>
<path d="M80.4478 215.851H21.0606C21.3003 216.252 21.5419 216.651 21.7853 217.05H81.708C81.2845 216.654 80.8644 216.254 80.4478 215.851Z" fill="white"/>
<path d="M218.292 217.05C218.716 216.654 219.136 216.254 219.552 215.851H278.939C278.7 216.252 278.458 216.651 278.215 217.05H218.292Z" fill="white"/>
<path d="M95.4767 227.842H29.0362C29.3317 228.244 29.6293 228.643 29.9287 229.041H97.3626C96.7292 228.649 96.1005 228.249 95.4767 227.842Z" fill="white"/>
<path d="M202.637 229.041C203.271 228.649 203.899 228.249 204.523 227.842H270.964C270.668 228.244 270.371 228.643 270.071 229.041H202.637Z" fill="white"/>
<path d="M121.345 239.834H38.86C39.2252 240.236 39.5925 240.635 39.962 241.033H125.725C124.252 240.666 122.792 240.266 121.345 239.834Z" fill="white"/>
<path d="M174.275 241.033C175.748 240.666 177.208 240.266 178.655 239.834H261.14C260.775 240.236 260.407 240.635 260.038 241.033H174.275Z" fill="white"/>
<path d="M52.4583 253.025C51.994 252.628 51.5322 252.228 51.0728 251.826H248.927C248.468 252.228 248.006 252.628 247.542 253.025H52.4583Z" fill="white"/>
<path d="M66.7133 263.817C67.3185 264.221 67.9268 264.621 68.5382 265.017H231.462C232.073 264.621 232.682 264.221 233.287 263.817H66.7133Z" fill="white"/>
<path d="M91.0843 277.008C90.1683 276.617 89.257 276.218 88.3504 275.809H211.65C210.743 276.218 209.832 276.617 208.916 277.008H91.0843Z" fill="white"/>
<path d="M150 289C156.461 289 162.827 288.592 169.074 287.801H130.926C137.173 288.592 143.539 289 150 289Z" fill="white"/>
</svg>
