<svg width="256" height="256" viewBox="0 0 256 256" fill="none" xmlns="http://www.w3.org/2000/svg">
<path fill-rule="evenodd" clip-rule="evenodd" d="M2 4C3.10457 4 4 3.10457 4 2C4 0.895431 3.10457 0 2 0C0.895431 0 0 0.895431 0 2C0 3.10457 0.895431 4 2 4ZM2 172C3.10457 172 4 171.105 4 170C4 168.895 3.10457 168 2 168C0.895431 168 0 168.895 0 170C0 171.105 0.895431 172 2 172ZM172 2C172 3.10457 171.105 4 170 4C168.895 4 168 3.10457 168 2C168 0.895431 168.895 0 170 0C171.105 0 172 0.895431 172 2ZM170 172C171.105 172 172 171.105 172 170C172 168.895 171.105 168 170 168C168.895 168 168 168.895 168 170C168 171.105 168.895 172 170 172ZM4 86C4 87.1046 3.10457 88 2 88C0.895431 88 0 87.1046 0 86C0 84.8954 0.895431 84 2 84C3.10457 84 4 84.8954 4 86ZM2 256C3.10457 256 4 255.105 4 254C4 252.895 3.10457 252 2 252C0.895431 252 0 252.895 0 254C0 255.105 0.895431 256 2 256ZM172 86C172 87.1046 171.105 88 170 88C168.895 88 168 87.1046 168 86C168 84.8954 168.895 84 170 84C171.105 84 172 84.8954 172 86ZM170 256C171.105 256 172 255.105 172 254C172 252.895 171.105 252 170 252C168.895 252 168 252.895 168 254C168 255.105 168.895 256 170 256ZM88 2C88 3.10457 87.1046 4 86 4C84.8954 4 84 3.10457 84 2C84 0.895431 84.8954 0 86 0C87.1046 0 88 0.895431 88 2ZM86 172C87.1046 172 88 171.105 88 170C88 168.895 87.1046 168 86 168C84.8954 168 84 168.895 84 170C84 171.105 84.8954 172 86 172ZM256 2C256 3.10457 255.105 4 254 4C252.895 4 252 3.10457 252 2C252 0.895431 252.895 0 254 0C255.105 0 256 0.895431 256 2ZM254 172C255.105 172 256 171.105 256 170C256 168.895 255.105 168 254 168C252.895 168 252 168.895 252 170C252 171.105 252.895 172 254 172ZM88 86C88 87.1046 87.1046 88 86 88C84.8954 88 84 87.1046 84 86C84 84.8954 84.8954 84 86 84C87.1046 84 88 84.8954 88 86ZM86 256C87.1046 256 88 255.105 88 254C88 252.895 87.1046 252 86 252C84.8954 252 84 252.895 84 254C84 255.105 84.8954 256 86 256ZM256 86C256 87.1046 255.105 88 254 88C252.895 88 252 87.1046 252 86C252 84.8954 252.895 84 254 84C255.105 84 256 84.8954 256 86ZM254 256C255.105 256 256 255.105 256 254C256 252.895 255.105 252 254 252C252.895 252 252 252.895 252 254C252 255.105 252.895 256 254 256Z" fill="white"/>
</svg>
