<svg width="372" height="161" viewBox="0 0 372 161" fill="none" xmlns="http://www.w3.org/2000/svg">
<path d="M368.751 84.679C368.751 113.314 287.041 136.507 185.876 136.507C88.0998 136.507 8.26099 114.711 3.35059 87.3676" stroke="white" stroke-width="5" stroke-miterlimit="10" stroke-linecap="round"/>
<path d="M3.00098 84.6797C3.00098 56.0748 84.7113 32.8948 185.876 32.8948C287.042 32.8948 368.752 56.2406 368.752 84.6797" stroke="white" stroke-width="5" stroke-miterlimit="10" stroke-linecap="round"/>
<path d="M3.19849 106.204C3.19849 77.5995 84.9088 54.4194 186.074 54.4194C287.239 54.4194 368.95 77.7653 368.95 106.204" stroke="white" stroke-width="5" stroke-miterlimit="10" stroke-linecap="round" stroke-dasharray="2 2"/>
<path d="M368.752 54.8279C368.752 83.4327 287.042 106.613 185.876 106.613C84.7113 106.613 3.00098 83.267 3.00098 54.8279" stroke="white" stroke-width="5" stroke-miterlimit="10" stroke-linecap="round"/>
<path d="M3.19844 54.8277C3.19844 26.1925 84.9088 3 186.074 3C287.239 3 368.751 26.0419 368.751 54.8277V106.2C368.751 134.987 287.041 158.028 185.876 158.028C84.7103 158.028 3 134.682 3 106.2L3.19844 54.8277Z" stroke="white" stroke-width="5" stroke-miterlimit="10" stroke-linecap="round"/>
</svg>
