<svg width="239" height="216" viewBox="0 0 239 216" fill="none" xmlns="http://www.w3.org/2000/svg">
<path d="M179.436 0.979344H60.316C44.3241 1.20766 29.0666 7.76924 17.9005 19.2246C6.73307 30.6799 0.568573 46.0955 0.757131 62.0874V207.334C0.737279 210.609 2.71268 213.577 5.75013 214.808C8.71828 216.029 12.123 215.315 14.3565 213.012L46.1218 180.362H179.437C195.439 180.134 210.696 173.572 221.852 162.107C233.02 150.651 239.184 135.226 238.996 119.224V62.0868C239.184 46.0949 233.02 30.6798 221.852 19.224C210.685 7.76865 195.429 1.20722 179.437 0.97876L179.436 0.979344ZM231.053 119.225C231.242 133.122 225.911 146.513 216.233 156.489C206.554 166.456 193.322 172.174 179.436 172.402H44.4334C43.3613 172.402 42.3389 172.829 41.5844 173.593L8.69845 207.333V62.0867C8.50985 48.1995 13.8404 34.7991 23.5189 24.8324C33.1974 14.866 46.4295 9.14823 60.3158 8.92003H179.436C193.323 9.14835 206.556 14.866 216.233 24.8324C225.911 34.7988 231.242 48.1997 231.053 62.0867L231.053 119.225Z" fill="white"/>
<path d="M60.3134 72.4529C52.2827 72.4529 45.0463 77.2871 41.9689 84.7123C38.9016 92.1275 40.599 100.664 46.277 106.342C51.9551 112.02 60.4921 113.718 67.9071 110.651C75.3323 107.573 80.1665 100.337 80.1665 92.3059C80.1566 81.3469 71.2722 72.4625 60.3132 72.4526L60.3134 72.4529ZM60.3134 104.218C55.4991 104.218 51.1511 101.32 49.3049 96.8626C47.4684 92.4155 48.4809 87.2934 51.8857 83.8785C55.3006 80.4738 60.4227 79.4611 64.8698 81.2976C69.3269 83.144 72.2254 87.4918 72.2254 92.3062C72.2254 98.8875 66.8947 104.218 60.3134 104.218Z" fill="white"/>
<path d="M179.436 72.4529C171.405 72.4529 164.169 77.2871 161.091 84.7123C158.024 92.1275 159.721 100.664 165.399 106.342C171.077 112.02 179.614 113.718 187.029 110.651C194.455 107.573 199.289 100.337 199.289 92.3059C199.279 81.3469 190.395 72.4625 179.435 72.4526L179.436 72.4529ZM179.436 104.218C174.621 104.218 170.273 101.32 168.427 96.8626C166.591 92.4155 167.603 87.2934 171.008 83.8785C174.423 80.4738 179.545 79.4611 183.992 81.2976C188.449 83.144 191.348 87.4918 191.348 92.3062C191.348 98.8875 186.017 104.218 179.436 104.218Z" fill="white"/>
<path d="M119.875 72.4529C111.844 72.4529 104.608 77.2871 101.53 84.7123C98.4629 92.1275 100.16 100.664 105.838 106.342C111.516 112.02 120.053 113.718 127.468 110.651C134.894 107.573 139.728 100.337 139.728 92.3059C139.718 81.3469 130.833 72.4625 119.874 72.4526L119.875 72.4529ZM119.875 104.218C115.06 104.218 110.712 101.32 108.866 96.8626C107.03 92.4155 108.042 87.2934 111.447 83.8785C114.862 80.4738 119.984 79.4611 124.431 81.2976C128.888 83.144 131.787 87.4918 131.787 92.3062C131.787 98.8875 126.456 104.218 119.875 104.218Z" fill="white"/>
</svg>
