<svg width="155" height="170" viewBox="0 0 155 170" fill="none" xmlns="http://www.w3.org/2000/svg">
<path d="M5 2.5C5 3.88071 3.88071 5 2.5 5C1.11929 5 0 3.88071 0 2.5C0 1.11929 1.11929 0 2.5 0C3.88071 0 5 1.11929 5 2.5Z" fill="white"/>
<path d="M20 2.5C20 3.88071 18.8807 5 17.5 5C16.1193 5 15 3.88071 15 2.5C15 1.11929 16.1193 0 17.5 0C18.8807 0 20 1.11929 20 2.5Z" fill="white"/>
<path d="M35 2.5C35 3.88071 33.8807 5 32.5 5C31.1193 5 30 3.88071 30 2.5C30 1.11929 31.1193 0 32.5 0C33.8807 0 35 1.11929 35 2.5Z" fill="white"/>
<path d="M50 2.5C50 3.88071 48.8807 5 47.5 5C46.1193 5 45 3.88071 45 2.5C45 1.11929 46.1193 0 47.5 0C48.8807 0 50 1.11929 50 2.5Z" fill="white"/>
<path d="M65 2.5C65 3.88071 63.8807 5 62.5 5C61.1193 5 60 3.88071 60 2.5C60 1.11929 61.1193 0 62.5 0C63.8807 0 65 1.11929 65 2.5Z" fill="white"/>
<path d="M80 2.5C80 3.88071 78.8807 5 77.5 5C76.1193 5 75 3.88071 75 2.5C75 1.11929 76.1193 0 77.5 0C78.8807 0 80 1.11929 80 2.5Z" fill="white"/>
<path d="M95 2.5C95 3.88071 93.8807 5 92.5 5C91.1193 5 90 3.88071 90 2.5C90 1.11929 91.1193 0 92.5 0C93.8807 0 95 1.11929 95 2.5Z" fill="white"/>
<path d="M110 2.5C110 3.88071 108.881 5 107.5 5C106.119 5 105 3.88071 105 2.5C105 1.11929 106.119 0 107.5 0C108.881 0 110 1.11929 110 2.5Z" fill="white"/>
<path d="M125 2.5C125 3.88071 123.881 5 122.5 5C121.119 5 120 3.88071 120 2.5C120 1.11929 121.119 0 122.5 0C123.881 0 125 1.11929 125 2.5Z" fill="white"/>
<path d="M140 2.5C140 3.88071 138.881 5 137.5 5C136.119 5 135 3.88071 135 2.5C135 1.11929 136.119 0 137.5 0C138.881 0 140 1.11929 140 2.5Z" fill="white"/>
<path d="M155 2.5C155 3.88071 153.881 5 152.5 5C151.119 5 150 3.88071 150 2.5C150 1.11929 151.119 0 152.5 0C153.881 0 155 1.11929 155 2.5Z" fill="white"/>
<path d="M5 17.5C5 18.8807 3.88071 20 2.5 20C1.11929 20 0 18.8807 0 17.5C0 16.1193 1.11929 15 2.5 15C3.88071 15 5 16.1193 5 17.5Z" fill="white"/>
<path d="M20 17.5C20 18.8807 18.8807 20 17.5 20C16.1193 20 15 18.8807 15 17.5C15 16.1193 16.1193 15 17.5 15C18.8807 15 20 16.1193 20 17.5Z" fill="white"/>
<path d="M35 17.5C35 18.8807 33.8807 20 32.5 20C31.1193 20 30 18.8807 30 17.5C30 16.1193 31.1193 15 32.5 15C33.8807 15 35 16.1193 35 17.5Z" fill="white"/>
<path d="M50 17.5C50 18.8807 48.8807 20 47.5 20C46.1193 20 45 18.8807 45 17.5C45 16.1193 46.1193 15 47.5 15C48.8807 15 50 16.1193 50 17.5Z" fill="white"/>
<path d="M65 17.5C65 18.8807 63.8807 20 62.5 20C61.1193 20 60 18.8807 60 17.5C60 16.1193 61.1193 15 62.5 15C63.8807 15 65 16.1193 65 17.5Z" fill="white"/>
<path d="M80 17.5C80 18.8807 78.8807 20 77.5 20C76.1193 20 75 18.8807 75 17.5C75 16.1193 76.1193 15 77.5 15C78.8807 15 80 16.1193 80 17.5Z" fill="white"/>
<path d="M95 17.5C95 18.8807 93.8807 20 92.5 20C91.1193 20 90 18.8807 90 17.5C90 16.1193 91.1193 15 92.5 15C93.8807 15 95 16.1193 95 17.5Z" fill="white"/>
<path d="M110 17.5C110 18.8807 108.881 20 107.5 20C106.119 20 105 18.8807 105 17.5C105 16.1193 106.119 15 107.5 15C108.881 15 110 16.1193 110 17.5Z" fill="white"/>
<path d="M125 17.5C125 18.8807 123.881 20 122.5 20C121.119 20 120 18.8807 120 17.5C120 16.1193 121.119 15 122.5 15C123.881 15 125 16.1193 125 17.5Z" fill="white"/>
<path d="M140 17.5C140 18.8807 138.881 20 137.5 20C136.119 20 135 18.8807 135 17.5C135 16.1193 136.119 15 137.5 15C138.881 15 140 16.1193 140 17.5Z" fill="white"/>
<path d="M155 17.5C155 18.8807 153.881 20 152.5 20C151.119 20 150 18.8807 150 17.5C150 16.1193 151.119 15 152.5 15C153.881 15 155 16.1193 155 17.5Z" fill="white"/>
<path d="M5 32.5C5 33.8807 3.88071 35 2.5 35C1.11929 35 0 33.8807 0 32.5C0 31.1193 1.11929 30 2.5 30C3.88071 30 5 31.1193 5 32.5Z" fill="white"/>
<path d="M20 32.5C20 33.8807 18.8807 35 17.5 35C16.1193 35 15 33.8807 15 32.5C15 31.1193 16.1193 30 17.5 30C18.8807 30 20 31.1193 20 32.5Z" fill="white"/>
<path d="M35 32.5C35 33.8807 33.8807 35 32.5 35C31.1193 35 30 33.8807 30 32.5C30 31.1193 31.1193 30 32.5 30C33.8807 30 35 31.1193 35 32.5Z" fill="white"/>
<path d="M50 32.5C50 33.8807 48.8807 35 47.5 35C46.1193 35 45 33.8807 45 32.5C45 31.1193 46.1193 30 47.5 30C48.8807 30 50 31.1193 50 32.5Z" fill="white"/>
<path d="M65 32.5C65 33.8807 63.8807 35 62.5 35C61.1193 35 60 33.8807 60 32.5C60 31.1193 61.1193 30 62.5 30C63.8807 30 65 31.1193 65 32.5Z" fill="white"/>
<path d="M80 32.5C80 33.8807 78.8807 35 77.5 35C76.1193 35 75 33.8807 75 32.5C75 31.1193 76.1193 30 77.5 30C78.8807 30 80 31.1193 80 32.5Z" fill="white"/>
<path d="M95 32.5C95 33.8807 93.8807 35 92.5 35C91.1193 35 90 33.8807 90 32.5C90 31.1193 91.1193 30 92.5 30C93.8807 30 95 31.1193 95 32.5Z" fill="white"/>
<path d="M110 32.5C110 33.8807 108.881 35 107.5 35C106.119 35 105 33.8807 105 32.5C105 31.1193 106.119 30 107.5 30C108.881 30 110 31.1193 110 32.5Z" fill="white"/>
<path d="M125 32.5C125 33.8807 123.881 35 122.5 35C121.119 35 120 33.8807 120 32.5C120 31.1193 121.119 30 122.5 30C123.881 30 125 31.1193 125 32.5Z" fill="white"/>
<path d="M140 32.5C140 33.8807 138.881 35 137.5 35C136.119 35 135 33.8807 135 32.5C135 31.1193 136.119 30 137.5 30C138.881 30 140 31.1193 140 32.5Z" fill="white"/>
<path d="M155 32.5C155 33.8807 153.881 35 152.5 35C151.119 35 150 33.8807 150 32.5C150 31.1193 151.119 30 152.5 30C153.881 30 155 31.1193 155 32.5Z" fill="white"/>
<path d="M5 47.5C5 48.8807 3.88071 50 2.5 50C1.11929 50 0 48.8807 0 47.5C0 46.1193 1.11929 45 2.5 45C3.88071 45 5 46.1193 5 47.5Z" fill="white"/>
<path d="M20 47.5C20 48.8807 18.8807 50 17.5 50C16.1193 50 15 48.8807 15 47.5C15 46.1193 16.1193 45 17.5 45C18.8807 45 20 46.1193 20 47.5Z" fill="white"/>
<path d="M35 47.5C35 48.8807 33.8807 50 32.5 50C31.1193 50 30 48.8807 30 47.5C30 46.1193 31.1193 45 32.5 45C33.8807 45 35 46.1193 35 47.5Z" fill="white"/>
<path d="M50 47.5C50 48.8807 48.8807 50 47.5 50C46.1193 50 45 48.8807 45 47.5C45 46.1193 46.1193 45 47.5 45C48.8807 45 50 46.1193 50 47.5Z" fill="white"/>
<path d="M65 47.5C65 48.8807 63.8807 50 62.5 50C61.1193 50 60 48.8807 60 47.5C60 46.1193 61.1193 45 62.5 45C63.8807 45 65 46.1193 65 47.5Z" fill="white"/>
<path d="M80 47.5C80 48.8807 78.8807 50 77.5 50C76.1193 50 75 48.8807 75 47.5C75 46.1193 76.1193 45 77.5 45C78.8807 45 80 46.1193 80 47.5Z" fill="white"/>
<path d="M95 47.5C95 48.8807 93.8807 50 92.5 50C91.1193 50 90 48.8807 90 47.5C90 46.1193 91.1193 45 92.5 45C93.8807 45 95 46.1193 95 47.5Z" fill="white"/>
<path d="M110 47.5C110 48.8807 108.881 50 107.5 50C106.119 50 105 48.8807 105 47.5C105 46.1193 106.119 45 107.5 45C108.881 45 110 46.1193 110 47.5Z" fill="white"/>
<path d="M125 47.5C125 48.8807 123.881 50 122.5 50C121.119 50 120 48.8807 120 47.5C120 46.1193 121.119 45 122.5 45C123.881 45 125 46.1193 125 47.5Z" fill="white"/>
<path d="M140 47.5C140 48.8807 138.881 50 137.5 50C136.119 50 135 48.8807 135 47.5C135 46.1193 136.119 45 137.5 45C138.881 45 140 46.1193 140 47.5Z" fill="white"/>
<path d="M155 47.5C155 48.8807 153.881 50 152.5 50C151.119 50 150 48.8807 150 47.5C150 46.1193 151.119 45 152.5 45C153.881 45 155 46.1193 155 47.5Z" fill="white"/>
<path d="M5 62.5C5 63.8807 3.88071 65 2.5 65C1.11929 65 0 63.8807 0 62.5C0 61.1193 1.11929 60 2.5 60C3.88071 60 5 61.1193 5 62.5Z" fill="white"/>
<path d="M20 62.5C20 63.8807 18.8807 65 17.5 65C16.1193 65 15 63.8807 15 62.5C15 61.1193 16.1193 60 17.5 60C18.8807 60 20 61.1193 20 62.5Z" fill="white"/>
<path d="M35 62.5C35 63.8807 33.8807 65 32.5 65C31.1193 65 30 63.8807 30 62.5C30 61.1193 31.1193 60 32.5 60C33.8807 60 35 61.1193 35 62.5Z" fill="white"/>
<path d="M50 62.5C50 63.8807 48.8807 65 47.5 65C46.1193 65 45 63.8807 45 62.5C45 61.1193 46.1193 60 47.5 60C48.8807 60 50 61.1193 50 62.5Z" fill="white"/>
<path d="M65 62.5C65 63.8807 63.8807 65 62.5 65C61.1193 65 60 63.8807 60 62.5C60 61.1193 61.1193 60 62.5 60C63.8807 60 65 61.1193 65 62.5Z" fill="white"/>
<path d="M80 62.5C80 63.8807 78.8807 65 77.5 65C76.1193 65 75 63.8807 75 62.5C75 61.1193 76.1193 60 77.5 60C78.8807 60 80 61.1193 80 62.5Z" fill="white"/>
<path d="M95 62.5C95 63.8807 93.8807 65 92.5 65C91.1193 65 90 63.8807 90 62.5C90 61.1193 91.1193 60 92.5 60C93.8807 60 95 61.1193 95 62.5Z" fill="white"/>
<path d="M110 62.5C110 63.8807 108.881 65 107.5 65C106.119 65 105 63.8807 105 62.5C105 61.1193 106.119 60 107.5 60C108.881 60 110 61.1193 110 62.5Z" fill="white"/>
<path d="M125 62.5C125 63.8807 123.881 65 122.5 65C121.119 65 120 63.8807 120 62.5C120 61.1193 121.119 60 122.5 60C123.881 60 125 61.1193 125 62.5Z" fill="white"/>
<path d="M140 62.5C140 63.8807 138.881 65 137.5 65C136.119 65 135 63.8807 135 62.5C135 61.1193 136.119 60 137.5 60C138.881 60 140 61.1193 140 62.5Z" fill="white"/>
<path d="M155 62.5C155 63.8807 153.881 65 152.5 65C151.119 65 150 63.8807 150 62.5C150 61.1193 151.119 60 152.5 60C153.881 60 155 61.1193 155 62.5Z" fill="white"/>
<path d="M5 77.5C5 78.8807 3.88071 80 2.5 80C1.11929 80 0 78.8807 0 77.5C0 76.1193 1.11929 75 2.5 75C3.88071 75 5 76.1193 5 77.5Z" fill="white"/>
<path d="M20 77.5C20 78.8807 18.8807 80 17.5 80C16.1193 80 15 78.8807 15 77.5C15 76.1193 16.1193 75 17.5 75C18.8807 75 20 76.1193 20 77.5Z" fill="white"/>
<path d="M35 77.5C35 78.8807 33.8807 80 32.5 80C31.1193 80 30 78.8807 30 77.5C30 76.1193 31.1193 75 32.5 75C33.8807 75 35 76.1193 35 77.5Z" fill="white"/>
<path d="M50 77.5C50 78.8807 48.8807 80 47.5 80C46.1193 80 45 78.8807 45 77.5C45 76.1193 46.1193 75 47.5 75C48.8807 75 50 76.1193 50 77.5Z" fill="white"/>
<path d="M65 77.5C65 78.8807 63.8807 80 62.5 80C61.1193 80 60 78.8807 60 77.5C60 76.1193 61.1193 75 62.5 75C63.8807 75 65 76.1193 65 77.5Z" fill="white"/>
<path d="M80 77.5C80 78.8807 78.8807 80 77.5 80C76.1193 80 75 78.8807 75 77.5C75 76.1193 76.1193 75 77.5 75C78.8807 75 80 76.1193 80 77.5Z" fill="white"/>
<path d="M95 77.5C95 78.8807 93.8807 80 92.5 80C91.1193 80 90 78.8807 90 77.5C90 76.1193 91.1193 75 92.5 75C93.8807 75 95 76.1193 95 77.5Z" fill="white"/>
<path d="M110 77.5C110 78.8807 108.881 80 107.5 80C106.119 80 105 78.8807 105 77.5C105 76.1193 106.119 75 107.5 75C108.881 75 110 76.1193 110 77.5Z" fill="white"/>
<path d="M125 77.5C125 78.8807 123.881 80 122.5 80C121.119 80 120 78.8807 120 77.5C120 76.1193 121.119 75 122.5 75C123.881 75 125 76.1193 125 77.5Z" fill="white"/>
<path d="M140 77.5C140 78.8807 138.881 80 137.5 80C136.119 80 135 78.8807 135 77.5C135 76.1193 136.119 75 137.5 75C138.881 75 140 76.1193 140 77.5Z" fill="white"/>
<path d="M155 77.5C155 78.8807 153.881 80 152.5 80C151.119 80 150 78.8807 150 77.5C150 76.1193 151.119 75 152.5 75C153.881 75 155 76.1193 155 77.5Z" fill="white"/>
<path d="M5 92.5C5 93.8807 3.88071 95 2.5 95C1.11929 95 0 93.8807 0 92.5C0 91.1193 1.11929 90 2.5 90C3.88071 90 5 91.1193 5 92.5Z" fill="white"/>
<path d="M20 92.5C20 93.8807 18.8807 95 17.5 95C16.1193 95 15 93.8807 15 92.5C15 91.1193 16.1193 90 17.5 90C18.8807 90 20 91.1193 20 92.5Z" fill="white"/>
<path d="M35 92.5C35 93.8807 33.8807 95 32.5 95C31.1193 95 30 93.8807 30 92.5C30 91.1193 31.1193 90 32.5 90C33.8807 90 35 91.1193 35 92.5Z" fill="white"/>
<path d="M50 92.5C50 93.8807 48.8807 95 47.5 95C46.1193 95 45 93.8807 45 92.5C45 91.1193 46.1193 90 47.5 90C48.8807 90 50 91.1193 50 92.5Z" fill="white"/>
<path d="M65 92.5C65 93.8807 63.8807 95 62.5 95C61.1193 95 60 93.8807 60 92.5C60 91.1193 61.1193 90 62.5 90C63.8807 90 65 91.1193 65 92.5Z" fill="white"/>
<path d="M80 92.5C80 93.8807 78.8807 95 77.5 95C76.1193 95 75 93.8807 75 92.5C75 91.1193 76.1193 90 77.5 90C78.8807 90 80 91.1193 80 92.5Z" fill="white"/>
<path d="M95 92.5C95 93.8807 93.8807 95 92.5 95C91.1193 95 90 93.8807 90 92.5C90 91.1193 91.1193 90 92.5 90C93.8807 90 95 91.1193 95 92.5Z" fill="white"/>
<path d="M110 92.5C110 93.8807 108.881 95 107.5 95C106.119 95 105 93.8807 105 92.5C105 91.1193 106.119 90 107.5 90C108.881 90 110 91.1193 110 92.5Z" fill="white"/>
<path d="M125 92.5C125 93.8807 123.881 95 122.5 95C121.119 95 120 93.8807 120 92.5C120 91.1193 121.119 90 122.5 90C123.881 90 125 91.1193 125 92.5Z" fill="white"/>
<path d="M140 92.5C140 93.8807 138.881 95 137.5 95C136.119 95 135 93.8807 135 92.5C135 91.1193 136.119 90 137.5 90C138.881 90 140 91.1193 140 92.5Z" fill="white"/>
<path d="M155 92.5C155 93.8807 153.881 95 152.5 95C151.119 95 150 93.8807 150 92.5C150 91.1193 151.119 90 152.5 90C153.881 90 155 91.1193 155 92.5Z" fill="white"/>
<path d="M5 107.5C5 108.881 3.88071 110 2.5 110C1.11929 110 0 108.881 0 107.5C0 106.119 1.11929 105 2.5 105C3.88071 105 5 106.119 5 107.5Z" fill="white"/>
<path d="M20 107.5C20 108.881 18.8807 110 17.5 110C16.1193 110 15 108.881 15 107.5C15 106.119 16.1193 105 17.5 105C18.8807 105 20 106.119 20 107.5Z" fill="white"/>
<path d="M35 107.5C35 108.881 33.8807 110 32.5 110C31.1193 110 30 108.881 30 107.5C30 106.119 31.1193 105 32.5 105C33.8807 105 35 106.119 35 107.5Z" fill="white"/>
<path d="M50 107.5C50 108.881 48.8807 110 47.5 110C46.1193 110 45 108.881 45 107.5C45 106.119 46.1193 105 47.5 105C48.8807 105 50 106.119 50 107.5Z" fill="white"/>
<path d="M65 107.5C65 108.881 63.8807 110 62.5 110C61.1193 110 60 108.881 60 107.5C60 106.119 61.1193 105 62.5 105C63.8807 105 65 106.119 65 107.5Z" fill="white"/>
<path d="M80 107.5C80 108.881 78.8807 110 77.5 110C76.1193 110 75 108.881 75 107.5C75 106.119 76.1193 105 77.5 105C78.8807 105 80 106.119 80 107.5Z" fill="white"/>
<path d="M95 107.5C95 108.881 93.8807 110 92.5 110C91.1193 110 90 108.881 90 107.5C90 106.119 91.1193 105 92.5 105C93.8807 105 95 106.119 95 107.5Z" fill="white"/>
<path d="M110 107.5C110 108.881 108.881 110 107.5 110C106.119 110 105 108.881 105 107.5C105 106.119 106.119 105 107.5 105C108.881 105 110 106.119 110 107.5Z" fill="white"/>
<path d="M125 107.5C125 108.881 123.881 110 122.5 110C121.119 110 120 108.881 120 107.5C120 106.119 121.119 105 122.5 105C123.881 105 125 106.119 125 107.5Z" fill="white"/>
<path d="M140 107.5C140 108.881 138.881 110 137.5 110C136.119 110 135 108.881 135 107.5C135 106.119 136.119 105 137.5 105C138.881 105 140 106.119 140 107.5Z" fill="white"/>
<path d="M155 107.5C155 108.881 153.881 110 152.5 110C151.119 110 150 108.881 150 107.5C150 106.119 151.119 105 152.5 105C153.881 105 155 106.119 155 107.5Z" fill="white"/>
<path d="M5 122.5C5 123.881 3.88071 125 2.5 125C1.11929 125 0 123.881 0 122.5C0 121.119 1.11929 120 2.5 120C3.88071 120 5 121.119 5 122.5Z" fill="white"/>
<path d="M20 122.5C20 123.881 18.8807 125 17.5 125C16.1193 125 15 123.881 15 122.5C15 121.119 16.1193 120 17.5 120C18.8807 120 20 121.119 20 122.5Z" fill="white"/>
<path d="M35 122.5C35 123.881 33.8807 125 32.5 125C31.1193 125 30 123.881 30 122.5C30 121.119 31.1193 120 32.5 120C33.8807 120 35 121.119 35 122.5Z" fill="white"/>
<path d="M50 122.5C50 123.881 48.8807 125 47.5 125C46.1193 125 45 123.881 45 122.5C45 121.119 46.1193 120 47.5 120C48.8807 120 50 121.119 50 122.5Z" fill="white"/>
<path d="M65 122.5C65 123.881 63.8807 125 62.5 125C61.1193 125 60 123.881 60 122.5C60 121.119 61.1193 120 62.5 120C63.8807 120 65 121.119 65 122.5Z" fill="white"/>
<path d="M80 122.5C80 123.881 78.8807 125 77.5 125C76.1193 125 75 123.881 75 122.5C75 121.119 76.1193 120 77.5 120C78.8807 120 80 121.119 80 122.5Z" fill="white"/>
<path d="M95 122.5C95 123.881 93.8807 125 92.5 125C91.1193 125 90 123.881 90 122.5C90 121.119 91.1193 120 92.5 120C93.8807 120 95 121.119 95 122.5Z" fill="white"/>
<path d="M110 122.5C110 123.881 108.881 125 107.5 125C106.119 125 105 123.881 105 122.5C105 121.119 106.119 120 107.5 120C108.881 120 110 121.119 110 122.5Z" fill="white"/>
<path d="M125 122.5C125 123.881 123.881 125 122.5 125C121.119 125 120 123.881 120 122.5C120 121.119 121.119 120 122.5 120C123.881 120 125 121.119 125 122.5Z" fill="white"/>
<path d="M140 122.5C140 123.881 138.881 125 137.5 125C136.119 125 135 123.881 135 122.5C135 121.119 136.119 120 137.5 120C138.881 120 140 121.119 140 122.5Z" fill="white"/>
<path d="M155 122.5C155 123.881 153.881 125 152.5 125C151.119 125 150 123.881 150 122.5C150 121.119 151.119 120 152.5 120C153.881 120 155 121.119 155 122.5Z" fill="white"/>
<path d="M5 137.5C5 138.881 3.88071 140 2.5 140C1.11929 140 0 138.881 0 137.5C0 136.119 1.11929 135 2.5 135C3.88071 135 5 136.119 5 137.5Z" fill="white"/>
<path d="M20 137.5C20 138.881 18.8807 140 17.5 140C16.1193 140 15 138.881 15 137.5C15 136.119 16.1193 135 17.5 135C18.8807 135 20 136.119 20 137.5Z" fill="white"/>
<path d="M35 137.5C35 138.881 33.8807 140 32.5 140C31.1193 140 30 138.881 30 137.5C30 136.119 31.1193 135 32.5 135C33.8807 135 35 136.119 35 137.5Z" fill="white"/>
<path d="M50 137.5C50 138.881 48.8807 140 47.5 140C46.1193 140 45 138.881 45 137.5C45 136.119 46.1193 135 47.5 135C48.8807 135 50 136.119 50 137.5Z" fill="white"/>
<path d="M65 137.5C65 138.881 63.8807 140 62.5 140C61.1193 140 60 138.881 60 137.5C60 136.119 61.1193 135 62.5 135C63.8807 135 65 136.119 65 137.5Z" fill="white"/>
<path d="M80 137.5C80 138.881 78.8807 140 77.5 140C76.1193 140 75 138.881 75 137.5C75 136.119 76.1193 135 77.5 135C78.8807 135 80 136.119 80 137.5Z" fill="white"/>
<path d="M95 137.5C95 138.881 93.8807 140 92.5 140C91.1193 140 90 138.881 90 137.5C90 136.119 91.1193 135 92.5 135C93.8807 135 95 136.119 95 137.5Z" fill="white"/>
<path d="M110 137.5C110 138.881 108.881 140 107.5 140C106.119 140 105 138.881 105 137.5C105 136.119 106.119 135 107.5 135C108.881 135 110 136.119 110 137.5Z" fill="white"/>
<path d="M125 137.5C125 138.881 123.881 140 122.5 140C121.119 140 120 138.881 120 137.5C120 136.119 121.119 135 122.5 135C123.881 135 125 136.119 125 137.5Z" fill="white"/>
<path d="M140 137.5C140 138.881 138.881 140 137.5 140C136.119 140 135 138.881 135 137.5C135 136.119 136.119 135 137.5 135C138.881 135 140 136.119 140 137.5Z" fill="white"/>
<path d="M155 137.5C155 138.881 153.881 140 152.5 140C151.119 140 150 138.881 150 137.5C150 136.119 151.119 135 152.5 135C153.881 135 155 136.119 155 137.5Z" fill="white"/>
<path d="M5 152.5C5 153.881 3.88071 155 2.5 155C1.11929 155 0 153.881 0 152.5C0 151.119 1.11929 150 2.5 150C3.88071 150 5 151.119 5 152.5Z" fill="white"/>
<path d="M20 152.5C20 153.881 18.8807 155 17.5 155C16.1193 155 15 153.881 15 152.5C15 151.119 16.1193 150 17.5 150C18.8807 150 20 151.119 20 152.5Z" fill="white"/>
<path d="M35 152.5C35 153.881 33.8807 155 32.5 155C31.1193 155 30 153.881 30 152.5C30 151.119 31.1193 150 32.5 150C33.8807 150 35 151.119 35 152.5Z" fill="white"/>
<path d="M50 152.5C50 153.881 48.8807 155 47.5 155C46.1193 155 45 153.881 45 152.5C45 151.119 46.1193 150 47.5 150C48.8807 150 50 151.119 50 152.5Z" fill="white"/>
<path d="M65 152.5C65 153.881 63.8807 155 62.5 155C61.1193 155 60 153.881 60 152.5C60 151.119 61.1193 150 62.5 150C63.8807 150 65 151.119 65 152.5Z" fill="white"/>
<path d="M80 152.5C80 153.881 78.8807 155 77.5 155C76.1193 155 75 153.881 75 152.5C75 151.119 76.1193 150 77.5 150C78.8807 150 80 151.119 80 152.5Z" fill="white"/>
<path d="M95 152.5C95 153.881 93.8807 155 92.5 155C91.1193 155 90 153.881 90 152.5C90 151.119 91.1193 150 92.5 150C93.8807 150 95 151.119 95 152.5Z" fill="white"/>
<path d="M110 152.5C110 153.881 108.881 155 107.5 155C106.119 155 105 153.881 105 152.5C105 151.119 106.119 150 107.5 150C108.881 150 110 151.119 110 152.5Z" fill="white"/>
<path d="M125 152.5C125 153.881 123.881 155 122.5 155C121.119 155 120 153.881 120 152.5C120 151.119 121.119 150 122.5 150C123.881 150 125 151.119 125 152.5Z" fill="white"/>
<path d="M140 152.5C140 153.881 138.881 155 137.5 155C136.119 155 135 153.881 135 152.5C135 151.119 136.119 150 137.5 150C138.881 150 140 151.119 140 152.5Z" fill="white"/>
<path d="M155 152.5C155 153.881 153.881 155 152.5 155C151.119 155 150 153.881 150 152.5C150 151.119 151.119 150 152.5 150C153.881 150 155 151.119 155 152.5Z" fill="white"/>
<path d="M5 167.5C5 168.881 3.88071 170 2.5 170C1.11929 170 0 168.881 0 167.5C0 166.119 1.11929 165 2.5 165C3.88071 165 5 166.119 5 167.5Z" fill="white"/>
<path d="M20 167.5C20 168.881 18.8807 170 17.5 170C16.1193 170 15 168.881 15 167.5C15 166.119 16.1193 165 17.5 165C18.8807 165 20 166.119 20 167.5Z" fill="white"/>
<path d="M35 167.5C35 168.881 33.8807 170 32.5 170C31.1193 170 30 168.881 30 167.5C30 166.119 31.1193 165 32.5 165C33.8807 165 35 166.119 35 167.5Z" fill="white"/>
<path d="M50 167.5C50 168.881 48.8807 170 47.5 170C46.1193 170 45 168.881 45 167.5C45 166.119 46.1193 165 47.5 165C48.8807 165 50 166.119 50 167.5Z" fill="white"/>
<path d="M65 167.5C65 168.881 63.8807 170 62.5 170C61.1193 170 60 168.881 60 167.5C60 166.119 61.1193 165 62.5 165C63.8807 165 65 166.119 65 167.5Z" fill="white"/>
<path d="M80 167.5C80 168.881 78.8807 170 77.5 170C76.1193 170 75 168.881 75 167.5C75 166.119 76.1193 165 77.5 165C78.8807 165 80 166.119 80 167.5Z" fill="white"/>
<path d="M95 167.5C95 168.881 93.8807 170 92.5 170C91.1193 170 90 168.881 90 167.5C90 166.119 91.1193 165 92.5 165C93.8807 165 95 166.119 95 167.5Z" fill="white"/>
<path d="M110 167.5C110 168.881 108.881 170 107.5 170C106.119 170 105 168.881 105 167.5C105 166.119 106.119 165 107.5 165C108.881 165 110 166.119 110 167.5Z" fill="white"/>
<path d="M125 167.5C125 168.881 123.881 170 122.5 170C121.119 170 120 168.881 120 167.5C120 166.119 121.119 165 122.5 165C123.881 165 125 166.119 125 167.5Z" fill="white"/>
<path d="M140 167.5C140 168.881 138.881 170 137.5 170C136.119 170 135 168.881 135 167.5C135 166.119 136.119 165 137.5 165C138.881 165 140 166.119 140 167.5Z" fill="white"/>
<path d="M155 167.5C155 168.881 153.881 170 152.5 170C151.119 170 150 168.881 150 167.5C150 166.119 151.119 165 152.5 165C153.881 165 155 166.119 155 167.5Z" fill="white"/>
</svg>
