<svg width="200" height="300" viewBox="0 0 200 300" fill="none" xmlns="http://www.w3.org/2000/svg">
<path d="M0 16.9889V26.2265L45.4256 0H29.4256L0 16.9889Z" fill="white"/>
<path d="M72.7269 0L0 41.9889V51.2265L88.7269 0H72.7269Z" fill="white"/>
<path d="M116.028 0L0 66.9889V76.2265L132.028 0H116.028Z" fill="white"/>
<path d="M159.329 0L0 91.9889V101.226L175.329 0H159.329Z" fill="white"/>
<path d="M200 1.51882L0 116.989V126.226L200 10.7564V1.51882Z" fill="white"/>
<path d="M200 26.5188L0 141.989V151.226L200 35.7564V26.5188Z" fill="white"/>
<path d="M200 51.5188L0 166.989V176.226L200 60.7564V51.5188Z" fill="white"/>
<path d="M200 76.5188L0 191.989V201.226L200 85.7564V76.5188Z" fill="white"/>
<path d="M200 101.519L0 216.989V226.226L200 110.756V101.519Z" fill="white"/>
<path d="M200 126.519L0 241.989V251.226L200 135.756V126.519Z" fill="white"/>
<path d="M200 151.519L0 266.989V276.226L200 160.756V151.519Z" fill="white"/>
<path d="M200 176.519L0 291.989V300H2.1243L200 185.756V176.519Z" fill="white"/>
<path d="M200 201.519L29.4256 300H45.4256L200 210.756V201.519Z" fill="white"/>
<path d="M200 226.519L72.7269 300H88.7269L200 235.756V226.519Z" fill="white"/>
<path d="M200 251.519L116.028 300H132.028L200 260.756V251.519Z" fill="white"/>
<path d="M200 276.519L159.329 300H175.329L200 285.756V276.519Z" fill="white"/>
</svg>
