<svg width="166" height="198" viewBox="0 0 166 198" fill="none" xmlns="http://www.w3.org/2000/svg">
<path d="M107.484 74.9503C103.703 74.9503 99.7599 74.6943 95.6547 74.1822C94.6135 74.0542 93.8283 73.1751 93.8198 72.1253C93.8027 71.0841 93.6747 46.512 111.649 29.435C123.93 17.7682 141.571 12.5962 164.036 14.0555C165.154 14.1323 166.016 15.0711 165.999 16.1891C165.981 17.3584 165.273 45.0448 145.549 62.1393C135.718 70.6568 122.94 74.9498 107.485 74.9498L107.484 74.9503ZM98.0786 70.2305C116.795 72.2191 131.842 68.4383 142.775 58.9734C158.146 45.6679 161.116 24.673 161.67 18.1184C141.435 17.2308 125.594 21.9931 114.567 32.4396C100.629 45.6599 98.4276 64.3585 98.0775 70.2314L98.0786 70.2305Z" fill="white"/>
<path d="M68.9579 98.4815C68.8726 98.4815 68.7872 98.4815 68.7019 98.4644C43.9931 95.4687 25.5768 85.7137 13.9686 69.4645C-6.34401 41.0262 1.37996 3.26061 1.72124 1.66565C1.95168 0.59882 2.9929 -0.126624 4.04267 0.0184515C33.5472 3.81642 54.2183 14.937 65.4836 33.0647C82.9541 61.195 71.4409 95.6155 70.9458 97.0663C70.647 97.9197 69.8448 98.483 68.9572 98.483L68.9579 98.4815ZM5.49384 4.44659C4.23072 12.4264 0.671821 43.6389 17.4082 67.0389C28.0339 81.8893 44.8633 90.9786 67.4637 94.0593C69.4779 86.9925 76.2628 58.3322 61.899 35.2468C51.5805 18.664 32.6086 8.31163 5.49428 4.4444L5.49384 4.44659Z" fill="white"/>
<path d="M72.1327 197.474C71.2109 197.474 70.3575 196.859 70.11 195.92C60.0134 158.633 68.5993 120.586 68.6932 120.201C72.6107 78.007 127.667 41.0258 130.005 39.4724C130.97 38.8323 132.276 39.0969 132.915 40.0613C133.556 41.0257 133.291 42.3316 132.327 42.9715C131.772 43.3385 76.6035 80.3963 72.8324 120.867C72.7044 121.507 64.3575 158.573 74.1638 194.812C74.4711 195.93 73.8054 197.082 72.6873 197.389C72.4996 197.449 72.3118 197.474 72.1326 197.474L72.1327 197.474Z" fill="white"/>
<path d="M70.3059 124.879C70.1267 124.879 69.9475 124.862 69.7682 124.811C68.6502 124.512 67.976 123.36 68.2747 122.242C77.2104 88.4442 33.9219 47.0932 33.4871 46.6846C32.6422 45.8909 32.608 44.5595 33.4017 43.7145C34.204 42.8696 35.5269 42.8269 36.3719 43.6292C38.2324 45.3873 81.9047 87.1301 72.3371 123.318C72.0811 124.248 71.2361 124.88 70.3058 124.88L70.3059 124.879Z" fill="white"/>
</svg>
