<svg width="330" height="330" viewBox="0 0 330 330" fill="none" xmlns="http://www.w3.org/2000/svg">
<path d="M206.779 59.5266C228.704 35.5101 256.904 16.7113 287.197 6.26484H41.7874C72.0663 16.711 100.266 35.5115 122.205 59.5266C149.36 49.0805 179.64 49.0805 206.793 59.5266H206.779ZM213.041 62.6646C237.058 73.1107 255.856 92.9434 267.35 115.926C298.675 86.6797 319.568 47.0018 322.691 7.32319C281.966 9.41513 242.273 31.3397 213.041 62.6646V62.6646ZM269.429 122.189C280.921 149.344 280.921 179.624 269.429 206.777C294.492 228.702 313.291 256.902 322.691 287.195V41.7855C313.291 72.0643 294.49 100.264 269.429 122.203V122.189ZM267.337 213.04C255.845 237.056 237.058 255.855 213.029 267.348C242.275 298.673 281.953 319.567 322.679 322.69C319.541 281.964 298.662 242.272 267.337 213.04V213.04ZM206.766 269.428C179.611 280.92 149.331 280.92 122.178 269.428C100.254 294.49 72.0532 313.29 41.7604 322.69H287.17C256.891 313.29 228.691 294.489 206.752 269.428H206.766ZM115.915 267.336C92.9444 255.844 73.0999 237.057 62.6534 213.027C31.3286 242.274 9.39162 281.952 7.31206 322.677C46.9907 319.539 86.6832 298.661 115.915 267.336V267.336ZM59.5271 206.764C49.081 179.61 49.081 149.33 59.5271 122.177C35.5106 100.252 16.7118 72.0519 6.26532 41.7592V287.168C16.7115 256.889 35.512 228.69 59.5271 206.75V206.764ZM62.6651 115.914C73.1112 92.9432 92.9439 73.0987 115.927 62.6522C86.6802 31.3273 47.0023 9.39037 7.32367 7.31081C9.41562 46.9894 31.3402 86.6819 62.6651 115.914ZM264.212 127.406C243.32 145.161 217.224 158.731 191.115 165.005C217.223 170.222 243.333 183.805 264.212 201.561C273.612 178.59 273.612 151.436 264.212 127.42V127.406ZM330 330H0V0H330V330ZM201.547 264.212C183.793 243.32 170.222 217.224 164.991 191.114C158.729 217.223 145.145 243.333 127.392 264.212C151.409 273.612 178.564 273.612 201.533 264.212H201.547ZM64.7411 201.547C86.6659 183.793 111.729 170.222 138.882 164.991C111.727 158.729 86.6635 145.145 64.7411 127.392C56.3871 151.409 56.3871 178.564 64.7411 201.533V201.547ZM127.406 64.7411C145.161 86.6659 158.731 111.729 165.005 138.882C170.222 111.727 183.805 86.6635 201.561 64.7411C178.59 56.3871 151.436 56.3871 127.42 64.7411H127.406ZM67.8813 121.129C93.9899 144.1 127.406 158.728 160.825 160.808C158.733 127.391 144.117 93.9732 121.147 67.8639C97.1301 78.3101 78.3313 97.1107 67.8848 121.126L67.8813 121.129ZM121.143 262.105C144.114 234.95 158.742 201.533 160.822 168.118C127.405 170.21 93.9871 185.872 67.8779 208.843C78.324 231.814 97.1246 250.615 121.14 262.105H121.143ZM262.119 208.843C234.964 185.872 201.547 170.211 168.132 168.118C170.223 201.535 185.886 234.952 208.857 262.105C231.828 250.613 250.629 231.826 262.119 208.843ZM208.857 67.8674C185.886 93.976 170.225 127.392 168.132 160.811C201.548 158.719 234.966 144.103 262.119 121.133C250.626 97.1162 231.84 78.3174 208.857 67.8709V67.8674Z" fill="white"/>
</svg>
