<svg width="60" height="260" viewBox="0 0 60 260" fill="none" xmlns="http://www.w3.org/2000/svg">
<path fill-rule="evenodd" clip-rule="evenodd" d="M5 10C7.76142 10 10 7.76142 10 5C10 2.23858 7.76142 0 5 0C2.23858 0 0 2.23858 0 5C0 7.76142 2.23858 10 5 10ZM5 60C7.76142 60 10 57.7614 10 55C10 52.2386 7.76142 50 5 50C2.23858 50 0 52.2386 0 55C0 57.7614 2.23858 60 5 60ZM10 105C10 107.761 7.76142 110 5 110C2.23858 110 0 107.761 0 105C0 102.239 2.23858 100 5 100C7.76142 100 10 102.239 10 105ZM5 160C7.76142 160 10 157.761 10 155C10 152.239 7.76142 150 5 150C2.23858 150 0 152.239 0 155C0 157.761 2.23858 160 5 160ZM10 205C10 207.761 7.76142 210 5 210C2.23858 210 0 207.761 0 205C0 202.239 2.23858 200 5 200C7.76142 200 10 202.239 10 205ZM5 260C7.76142 260 10 257.761 10 255C10 252.239 7.76142 250 5 250C2.23858 250 0 252.239 0 255C0 257.761 2.23858 260 5 260ZM60 5C60 7.76142 57.7614 10 55 10C52.2386 10 50 7.76142 50 5C50 2.23858 52.2386 0 55 0C57.7614 0 60 2.23858 60 5ZM55 60C57.7614 60 60 57.7614 60 55C60 52.2386 57.7614 50 55 50C52.2386 50 50 52.2386 50 55C50 57.7614 52.2386 60 55 60ZM60 105C60 107.761 57.7614 110 55 110C52.2386 110 50 107.761 50 105C50 102.239 52.2386 100 55 100C57.7614 100 60 102.239 60 105ZM55 160C57.7614 160 60 157.761 60 155C60 152.239 57.7614 150 55 150C52.2386 150 50 152.239 50 155C50 157.761 52.2386 160 55 160ZM60 205C60 207.761 57.7614 210 55 210C52.2386 210 50 207.761 50 205C50 202.239 52.2386 200 55 200C57.7614 200 60 202.239 60 205ZM55 260C57.7614 260 60 257.761 60 255C60 252.239 57.7614 250 55 250C52.2386 250 50 252.239 50 255C50 257.761 52.2386 260 55 260Z" fill="white"/>
</svg>
