<svg width="198" height="198" viewBox="0 0 198 198" fill="none" xmlns="http://www.w3.org/2000/svg">
<path d="M153.857 112.714C153.857 127.263 148.078 141.217 137.79 151.504C127.502 161.792 113.549 167.571 99 167.571C84.4509 167.571 70.4978 161.792 60.2101 151.504C49.9224 141.217 44.1428 127.263 44.1428 112.714" stroke="white" stroke-width="5" stroke-miterlimit="10" stroke-linecap="square"/>
<path d="M71.5714 85.2858C71.5714 81.6486 70.1265 78.1603 67.5546 75.5884C64.9826 73.0164 61.4944 71.5715 57.8571 71.5715C54.2199 71.5715 50.7316 73.0164 48.1596 75.5884C45.5877 78.1603 44.1428 81.6486 44.1428 85.2858" stroke="white" stroke-width="5" stroke-miterlimit="10" stroke-linecap="square"/>
<path d="M153.857 85.2858C153.857 81.6486 152.412 78.1603 149.84 75.5884C147.268 73.0164 143.78 71.5715 140.143 71.5715C136.505 71.5715 133.017 73.0164 130.445 75.5884C127.873 78.1603 126.428 81.6486 126.428 85.2858" stroke="white" stroke-width="5" stroke-miterlimit="10" stroke-linecap="square"/>
<path d="M99 195C152.019 195 195 152.019 195 99C195 45.9807 152.019 3 99 3C45.9807 3 3 45.9807 3 99C3 152.019 45.9807 195 99 195Z" stroke="white" stroke-width="5" stroke-miterlimit="10" stroke-linecap="square"/>
</svg>
