<svg xmlns="http://www.w3.org/2000/svg" width="157" height="109" fill="none" viewBox="0 0 157 109">
  <mask id="a" width="157" height="109" x="0" y="0" maskUnits="userSpaceOnUse" style="mask-type:alpha">
    <path fill="#fff" d="m82.74 0-4.257 4.229L74.225 0l-3.543 4.841-4.863-3.511-2.749 5.338-5.349-2.709-1.871 5.703-5.715-1.838-.961 5.925-5.926-.92-.021 6.001-6.005.02.926 5.927-5.923.958 1.837 5.717-5.705 1.871 2.708 5.355-5.339 2.739 3.513 4.866-4.843 3.545 4.229 4.258-4.229 4.254 4.843 3.54-3.513 4.869 5.339 2.743-2.708 5.354 5.705 1.868-1.837 5.721 5.923.955-.926 5.932 6.005.014.021 6.003 5.926-.923.961 5.923 5.715-1.836 1.871 5.703 5.349-2.709 2.749 5.339 4.863-3.512 3.543 4.847 4.258-4.228 4.257 4.228 3.538-4.847 4.87 3.512 2.737-5.339 5.359 2.709 1.871-5.703 5.716 1.836.956-5.923 5.929.923.022-6.003 6.001-.014-.925-5.932 5.927-.955-1.837-5.721 5.701-1.868-2.71-5.354 5.339-2.743-3.512-4.869 4.843-3.54-4.228-4.254 4.228-4.258-4.843-3.545 3.512-4.866-5.339-2.739 2.71-5.355-5.701-1.871 1.837-5.717-5.927-.958.925-5.927-6.001-.02-.022-6.001-5.929.92-.956-5.925-5.716 1.838-1.871-5.703-5.359 2.709-2.737-5.338-4.87 3.511L82.74 0Zm-6.725 11.398a.573.573 0 0 1-.051-.791c.541-.655 2.719-2.898 2.719-2.898a.583.583 0 0 1 .818.016.547.547 0 0 1-.011.792c-.618.569-2.723 2.833-2.723 2.833a.56.56 0 0 1-.409.183.499.499 0 0 1-.343-.135Zm-2.133.19a.579.579 0 0 1-.092-.789c.509-.682 2.575-3.028 2.575-3.028a.59.59 0 0 1 .818-.022.545.545 0 0 1 .031.787c-.592.603-2.581 2.966-2.581 2.966a.564.564 0 0 1-.427.203.507.507 0 0 1-.324-.117Zm4.272-.274a.572.572 0 0 1-.01-.791C78.719 9.896 81 7.762 81 7.762c.238-.218.607-.179.82.053a.548.548 0 0 1-.05.788c-.644.538-2.856 2.697-2.856 2.697a.56.56 0 0 1-.395.167.51.51 0 0 1-.365-.153Zm-6.393.569a.575.575 0 0 1-.13-.782c.475-.71 2.421-3.156 2.421-3.156a.597.597 0 0 1 .817-.06.549.549 0 0 1 .067.788c-.558.63-2.43 3.086-2.43 3.086a.549.549 0 0 1-.439.226.511.511 0 0 1-.306-.102Zm8.537-.548a.575.575 0 0 1 .025-.791c.607-.594 2.991-2.616 2.991-2.616.249-.208.617-.151.819.092a.548.548 0 0 1-.091.785c-.673.505-2.986 2.55-2.986 2.55a.543.543 0 0 1-.374.153.513.513 0 0 1-.384-.173Zm-10.642.948a.575.575 0 0 1-.167-.774c.439-.729 2.259-3.271 2.259-3.271a.601.601 0 0 1 .817-.101.548.548 0 0 1 .102.783c-.527.659-2.269 3.205-2.269 3.205a.555.555 0 0 1-.455.246.51.51 0 0 1-.287-.088Zm12.779-.82a.575.575 0 0 1 .068-.79c.633-.564 3.115-2.464 3.115-2.464a.584.584 0 0 1 .813.129.551.551 0 0 1-.133.783c-.693.469-3.107 2.397-3.107 2.397a.538.538 0 0 1-.355.137.515.515 0 0 1-.401-.192ZM67.576 12.79a.573.573 0 0 1-.205-.764c.399-.752 2.093-3.38 2.093-3.38a.594.594 0 0 1 .807-.144.548.548 0 0 1 .143.778c-.493.683-2.108 3.313-2.108 3.313a.548.548 0 0 1-.466.27.514.514 0 0 1-.264-.073Zm16.988-1.097a.575.575 0 0 1 .103-.783c.663-.532 3.239-2.307 3.239-2.307a.578.578 0 0 1 .802.171.546.546 0 0 1-.169.774c-.717.433-3.222 2.239-3.222 2.239a.535.535 0 0 1-.335.119.518.518 0 0 1-.418-.213ZM65.525 13.4a.578.578 0 0 1-.247-.754c.366-.769 1.923-3.48 1.923-3.48A.597.597 0 0 1 68 8.982c.271.161.35.507.18.769-.456.709-1.935 3.416-1.935 3.416a.55.55 0 0 1-.479.294.505.505 0 0 1-.241-.061Zm21.157-1.37a.566.566 0 0 1 .144-.778c.684-.497 3.344-2.14 3.344-2.14a.578.578 0 0 1 .793.212.542.542 0 0 1-.205.761c-.74.4-3.336 2.078-3.336 2.078a.538.538 0 0 1-.313.102.502.502 0 0 1-.427-.235Zm-23.175 2.081a.574.574 0 0 1-.284-.739c.326-.786 1.744-3.574 1.744-3.574a.597.597 0 0 1 .79-.223c.28.148.375.488.22.758-.422.731-1.765 3.51-1.765 3.51a.543.543 0 0 1-.485.319.502.502 0 0 1-.22-.051Zm25.265-1.636a.577.577 0 0 1 .186-.772c.708-.462 3.45-1.97 3.45-1.97.281-.153.633-.027.782.252a.552.552 0 0 1-.246.753c-.758.359-3.434 1.905-3.434 1.905a.54.54 0 0 1-.292.087.517.517 0 0 1-.446-.255Zm-27.247 2.451a.575.575 0 0 1-.318-.725c.285-.8 1.561-3.657 1.561-3.657.14-.28.49-.397.778-.264a.55.55 0 0 1 .259.749c-.386.747-1.587 3.591-1.587 3.591a.545.545 0 0 1-.496.345.536.536 0 0 1-.197-.039Zm29.319-1.907a.57.57 0 0 1 .222-.759c.73-.426 3.546-1.796 3.546-1.796.289-.137.632.009.766.293a.548.548 0 0 1-.282.738c-.776.323-3.526 1.731-3.526 1.731a.514.514 0 0 1-.726-.207Zm-31.255 2.817a.575.575 0 0 1-.355-.709c.244-.811 1.377-3.728 1.377-3.728a.59.59 0 0 1 .763-.304.548.548 0 0 1 .295.731c-.347.769-1.403 3.667-1.403 3.667a.535.535 0 0 1-.501.374.523.523 0 0 1-.176-.031Zm33.293-2.166a.578.578 0 0 1 .258-.749c.755-.388 3.632-1.614 3.632-1.614.298-.121.63.042.751.331a.546.546 0 0 1-.319.724c-.79.284-3.608 1.552-3.608 1.552a.55.55 0 0 1-.244.058.514.514 0 0 1-.47-.302Zm-35.181 3.174a.578.578 0 0 1-.393-.689c.207-.823 1.19-3.793 1.19-3.793a.583.583 0 0 1 .745-.343c.3.103.444.424.334.717-.311.782-1.222 3.732-1.222 3.732a.522.522 0 0 1-.654.376Zm37.185-2.422a.577.577 0 0 1 .296-.736c.774-.351 3.713-1.431 3.713-1.431.296-.1.623.073.729.371a.55.55 0 0 1-.355.708c-.805.246-3.681 1.368-3.681 1.368a.55.55 0 0 1-.218.045.515.515 0 0 1-.484-.325Zm-39.022 3.521a.575.575 0 0 1-.425-.668c.167-.829.998-3.845.998-3.845.088-.312.424-.471.726-.384a.55.55 0 0 1 .37.7c-.273.795-1.033 3.79-1.033 3.79a.519.519 0 0 1-.636.407Zm40.988-2.669a.573.573 0 0 1 .332-.719c.788-.313 3.774-1.245 3.774-1.245a.594.594 0 0 1 .712.409.55.55 0 0 1-.387.688c-.819.206-3.745 1.182-3.745 1.182a.586.586 0 0 1-.191.033.514.514 0 0 1-.495-.348Zm-42.77 3.86a.57.57 0 0 1-.454-.646c.125-.835.807-3.89.807-3.89a.575.575 0 0 1 .702-.42.55.55 0 0 1 .405.679c-.233.807-.84 3.839-.84 3.839a.523.523 0 0 1-.62.438Zm44.689-2.912a.575.575 0 0 1 .367-.7c.805-.275 3.835-1.054 3.835-1.054a.593.593 0 0 1 .688.442.545.545 0 0 1-.423.669c-.826.166-3.799.996-3.799.996a.59.59 0 0 1-.16.023.515.515 0 0 1-.508-.376Zm-46.407 4.192a.576.576 0 0 1-.487-.626c.085-.835.611-3.924.611-3.924a.578.578 0 0 1 .679-.456.55.55 0 0 1 .441.659c-.195.816-.6 3.41-.648 3.877a.521.521 0 0 1-.596.47Zm48.277-3.148a.57.57 0 0 1 .402-.682c.818-.236 3.879-.86 3.879-.86a.594.594 0 0 1 .668.475.548.548 0 0 1-.458.648c-.834.128-3.843.806-3.843.806a.572.572 0 0 1-.129.014.525.525 0 0 1-.519-.401ZM50.71 21.773a.573.573 0 0 1-.518-.598c.048-.835.417-3.949.417-3.949a.576.576 0 0 1 .658-.491.541.541 0 0 1 .465.634c-.144.832-.427 3.435-.449 3.909a.517.517 0 0 1-.519.497c-.018 0-.036 0-.054-.002Zm51.744-3.373a.573.573 0 0 1 .439-.659c.828-.197 3.441-.612 3.913-.663a.596.596 0 0 1 .647.506.553.553 0 0 1-.487.625c-.844.089-3.882.613-3.882.613a.536.536 0 0 1-.63-.422Zm-53.326 4.816a.574.574 0 0 1-.549-.573c.009-.835.223-3.964.223-3.964a.577.577 0 0 1 .628-.526.546.546 0 0 1 .499.613c-.098.842-.253 3.454-.253 3.927a.521.521 0 0 1-.524.524l-.024-.001Zm30.69 1.685.89-6.628 1.29.172 2.085 4.787h.018l.595-4.423 1.233.167-.889 6.625-1.337-.179-2.053-4.676-.018-.003-.582 4.323-1.232-.165Zm-7.802-2.678c-.23-2.125.767-3.597 2.819-3.819 2.163-.234 3.368 1.157 3.579 3.096.188 1.735-.498 3.519-2.815 3.769-.17.019-.332.028-.487.028-2.121-.001-2.942-1.649-3.096-3.074Zm32.196-2.599a.572.572 0 0 1 .469-.637c.834-.151 3.469-.442 3.941-.464a.592.592 0 0 1 .62.536.55.55 0 0 1-.517.6c-.852.047-3.906.421-3.906.421a.538.538 0 0 1-.607-.456Zm-36.557 5.277-.533-4.675 1.883-.723 2.394 6.242-1.161.447-1.886-4.918-.019.008.683 5.378-1.205.462-3.111-4.446-.019.008 1.888 4.917-1.159.446-2.397-6.242 1.874-.721 2.751 3.825.017-.008Zm-20.612-.711c-.031-.831.025-3.969.025-3.969.015-.314.277-.579.599-.559a.547.547 0 0 1 .53.587c-.054.851-.081 3.464-.057 3.937a.519.519 0 0 1-.523.547h-.003a.569.569 0 0 1-.571-.543Zm39.283 1.761 2.328-6.264 4.627 1.716-.395 1.059-3.371-1.252-.517 1.392 3.135 1.163-.393 1.06-3.138-1.165-.628 1.698 3.485 1.293-.393 1.058-4.74-1.758Zm19.58-5.016a.577.577 0 0 1 .5-.615c.837-.102 3.487-.265 3.959-.266a.594.594 0 0 1 .594.566.55.55 0 0 1-.547.572c-.856.012-3.925.227-3.925.227a.534.534 0 0 1-.581-.484Zm-60.325 4.874c-.064-.824-.17-3.964-.17-3.964a.589.589 0 0 1 .572-.591.55.55 0 0 1 .557.562c-.009.858.094 3.469.138 3.935a.516.516 0 0 1-.494.574l-.03.001a.573.573 0 0 1-.573-.517Zm61.952-3.482a.577.577 0 0 1 .531-.588c.834-.057 3.494-.089 3.965-.067a.59.59 0 0 1 .565.592.546.546 0 0 1-.572.543c-.859-.024-3.933.037-3.933.037l-.03.001a.536.536 0 0 1-.526-.518Zm-14.064 6.808 1.505-2.373.024-4.575 1.323.842-.096 3.066 2.717-1.404 1.303.827-4.144 1.968-1.502 2.365-1.13-.716ZM44.202 27.5c-.104-.819-.366-3.951-.366-3.951a.599.599 0 0 1 .539-.62.554.554 0 0 1 .588.536c.041.858.27 3.463.334 3.924a.52.52 0 0 1-.526.599.577.577 0 0 1-.569-.488Zm64.889-3.7a.576.576 0 0 1 .56-.562c.83-.009 3.485.085 3.958.13a.59.59 0 0 1 .538.62.545.545 0 0 1-.6.514c-.86-.065-3.931-.158-3.931-.158h-.001a.528.528 0 0 1-.524-.544Zm-51.824 1.701 1.182-.991.627 4.544 1.801 2.146-1.022.858-1.809-2.149-4.355-1.403 1.199-1.008 2.897 1.017-.52-3.014Zm-14.356 3.755c-.147-.813-.561-3.925-.561-3.925a.6.6 0 0 1 .508-.647.553.553 0 0 1 .612.504c.084.859.445 3.448.53 3.905a.522.522 0 0 1-.522.624.574.574 0 0 1-.567-.461Zm72.076-2.986c-.854-.108-3.918-.353-3.918-.353a.52.52 0 0 1-.494-.57.572.572 0 0 1 .583-.534c.83.036 3.474.263 3.947.328a.596.596 0 0 1 .51.646.547.547 0 0 1-.628.483Zm1.352 1.837c-.848-.15-3.896-.546-3.896-.546a.521.521 0 0 1-.467-.596.571.571 0 0 1 .61-.503c.822.079 3.455.439 3.926.524a.597.597 0 0 1 .476.669.547.547 0 0 1-.649.452Zm-74.63 2.969c-.188-.805-.755-3.895-.755-3.895a.597.597 0 0 1 .477-.668.549.549 0 0 1 .634.473c.125.853.619 3.424.724 3.872a.52.52 0 0 1-.409.638.574.574 0 0 1-.671-.42Zm75.889-1.066c-.84-.195-3.867-.741-3.867-.741a.517.517 0 0 1-.437-.616.577.577 0 0 1 .636-.472c.82.119 3.425.61 3.896.718.304.07.506.384.442.69a.544.544 0 0 1-.67.421Zm-77.003 2.944c-.226-.798-.944-3.852-.944-3.852a.594.594 0 0 1 .444-.69.545.545 0 0 1 .656.438c.168.845.914 3.833.914 3.833a.52.52 0 0 1-.376.656.575.575 0 0 1-.694-.385ZM101.99 36.6c-.379-.191-.674-.502-1.578-1.587l-1.452-1.741 5.137-4.279 1.699 2.043c.589.706.9 1.135.939 1.661.032.481-.109 1.022-.569 1.405a1.57 1.57 0 0 1-1.712.204c.472 1.094-.148 1.766-.434 2.004a2.035 2.035 0 0 1-1.274.464c-.254 0-.512-.053-.756-.174ZM53.739 54.178c0-13.842 11.219-25.06 25.058-25.06 13.842 0 25.06 11.218 25.06 25.06 0 13.839-11.218 25.059-25.06 25.059-13.839 0-25.058-11.22-25.058-25.059Zm65.021-22.207c-.828-.235-3.824-.929-3.824-.929a.52.52 0 0 1-.409-.637.576.576 0 0 1 .659-.441c.812.158 3.855.91 3.855.91a.597.597 0 0 1 .411.712.545.545 0 0 1-.692.385Zm-79.178 2.911c-.267-.783-1.138-3.797-1.138-3.797a.596.596 0 0 1 .408-.713.55.55 0 0 1 .681.406c.209.835 1.104 3.782 1.104 3.782a.518.518 0 0 1-.347.672.567.567 0 0 1-.708-.35Zm11.386-3.074.896-1.105 6.873 2.133-.925 1.14-1.539-.503-1.671 2.063.834 1.379-.904 1.112-3.564-6.219Zm68.856 2.182c-.815-.277-3.774-1.118-3.774-1.118a.52.52 0 0 1-.378-.657.574.574 0 0 1 .679-.406c.803.198 3.806 1.1 3.806 1.1a.595.595 0 0 1 .376.729.542.542 0 0 1-.523.383.576.576 0 0 1-.186-.031Zm-81.16 2.869c-.31-.769-1.326-3.735-1.326-3.735a.597.597 0 0 1 .376-.73.542.542 0 0 1 .695.37c.349 1.145 1.292 3.72 1.292 3.72a.519.519 0 0 1-.312.69.581.581 0 0 1-.2.035.561.561 0 0 1-.525-.35Zm82.12-.801c-.8-.316-3.714-1.304-3.714-1.304a.519.519 0 0 1-.345-.673.573.573 0 0 1 .7-.374c.794.237 3.747 1.29 3.747 1.29a.598.598 0 0 1 .339.746.541.541 0 0 1-.513.357.559.559 0 0 1-.214-.042Zm-82.939 2.823c-.346-.752-1.509-3.663-1.509-3.663a.597.597 0 0 1 .339-.751c.29-.113.61.041.716.339.288.809 1.473 3.648 1.473 3.648a.52.52 0 0 1-.279.705.57.57 0 0 1-.224.045.565.565 0 0 1-.516-.323Zm83.796-.708c-.785-.357-3.645-1.49-3.645-1.49a.52.52 0 0 1-.313-.689.574.574 0 0 1 .718-.336c.781.275 3.679 1.474 3.679 1.474a.599.599 0 0 1 .301.765.54.54 0 0 1-.501.328.586.586 0 0 1-.239-.052Zm-75.529 1.945 1.082-2.2c.331-.676.815-1.659 2.146-1.802.416-.046 1.115-.073 2.288.503.364.176 1.442.708 1.899 1.875.373.937-.115 1.93-.306 2.315l-1.111 2.259-5.998-2.95Zm-8.983.823c-.382-.735-1.69-3.585-1.69-3.585a.595.595 0 0 1 .302-.764.55.55 0 0 1 .732.302c.331.793 1.655 3.572 1.655 3.572a.518.518 0 0 1-.245.713.565.565 0 0 1-.754-.238Zm65.492-3.332 7.134-.735.646 1.263-4.74 5.421-.668-1.308 1.086-1.201-1.209-2.367-1.596.202-.653-1.275Zm19.769 2.72c-.766-.396-3.567-1.671-3.567-1.671a.52.52 0 0 1-.279-.705.574.574 0 0 1 .732-.3c.768.316 3.604 1.659 3.604 1.659a.594.594 0 0 1 .261.776.537.537 0 0 1-.488.306.565.565 0 0 1-.263-.065Zm-85.872 2.705c-.419-.714-1.867-3.496-1.867-3.496a.593.593 0 0 1 .261-.776.549.549 0 0 1 .747.262c.37.779 1.833 3.485 1.833 3.485a.518.518 0 0 1-.207.728.591.591 0 0 1-.278.07.565.565 0 0 1-.489-.273Zm86.509-.514c-.743-.436-3.477-1.848-3.477-1.848a.522.522 0 0 1-.242-.718.573.573 0 0 1 .746-.263c.748.354 3.513 1.836 3.513 1.836a.596.596 0 0 1 .227.789.54.54 0 0 1-.478.282.59.59 0 0 1-.289-.078Zm-87.013 2.637c-.452-.694-2.042-3.397-2.042-3.397a.599.599 0 0 1 .223-.791.552.552 0 0 1 .761.226c.409.757 2.002 3.386 2.002 3.386a.516.516 0 0 1-.169.738.584.584 0 0 1-.775-.162Zm87.543-.419c-.723-.471-3.384-2.02-3.384-2.02a.521.521 0 0 1-.205-.728.573.573 0 0 1 .758-.226c.733.391 3.418 2.011 3.418 2.011a.593.593 0 0 1 .185.8.537.537 0 0 1-.461.258.559.559 0 0 1-.311-.095Zm-17.274 1.831c-.453-1.744.514-3.261 2.531-3.783 1.799-.466 3.633.027 4.177 2.122.092.362.288 1.271-.232 2.163-.243.408-.581.669-1.001.912l-.639-1.206c.664-.345.906-.975.731-1.639-.412-1.603-2.184-1.143-2.597-1.037-.608.159-1.194.385-1.54.764-.303.328-.461.83-.312 1.406.223.862.984 1.085 1.734 1.066l-.076 1.364c-.54-.004-2.232-.027-2.776-2.132Zm-70.665.731c-.491-.669-2.209-3.292-2.209-3.292a.595.595 0 0 1 .183-.799.55.55 0 0 1 .769.188c.447.736 2.172 3.284 2.172 3.284a.519.519 0 0 1-.133.745.59.59 0 0 1-.329.099.556.556 0 0 1-.453-.225Zm88.353-.319c-.698-.505-3.276-2.188-3.276-2.188a.518.518 0 0 1-.17-.736.577.577 0 0 1 .772-.187c.708.426 3.309 2.178 3.309 2.178a.595.595 0 0 1 .145.808.529.529 0 0 1-.444.235.574.574 0 0 1-.336-.11Zm-88.642 2.48c-.525-.642-2.374-3.178-2.374-3.178a.597.597 0 0 1 .145-.807.553.553 0 0 1 .778.15c.483.714 2.334 3.17 2.334 3.17a.523.523 0 0 1-.098.752.583.583 0 0 1-.351.117.552.552 0 0 1-.434-.204Zm11.812.738c-.44-.074-1.278-.217-1.965-.6-.682-.391-1.216-1.023-1.047-2.069.17-1.044.863-1.48 1.634-1.639.782-.146 1.624-.03 2.085.044.423.069 1.262.212 1.954.606.696.384 1.238 1.019 1.07 2.064-.172 1.055-.877 1.496-1.647 1.646a4.081 4.081 0 0 1-.797.072 8.06 8.06 0 0 1-1.287-.124Zm77.135-.958c-.674-.539-3.163-2.347-3.163-2.347a.519.519 0 0 1-.132-.746.572.572 0 0 1 .775-.148c.688.465 3.2 2.343 3.2 2.343a.594.594 0 0 1 .104.814.536.536 0 0 1-.428.213.561.561 0 0 1-.356-.129Zm-89.127 2.394c-.555-.618-2.529-3.053-2.529-3.053a.597.597 0 0 1 .103-.815.55.55 0 0 1 .783.11c.519.687 2.489 3.05 2.489 3.05a.518.518 0 0 1-.059.754.592.592 0 0 1-.376.136.542.542 0 0 1-.411-.182Zm89.314-.119c-.643-.573-3.039-2.504-3.039-2.504a.518.518 0 0 1-.096-.75.574.574 0 0 1 .783-.111c.666.497 3.081 2.498 3.081 2.498a.6.6 0 0 1 .062.819.54.54 0 0 1-.416.192.559.559 0 0 1-.375-.144Zm-89.39 2.299c-.583-.588-2.677-2.924-2.677-2.924a.594.594 0 0 1 .065-.818.546.546 0 0 1 .787.071c.551.659 2.637 2.922 2.637 2.922a.52.52 0 0 1-.022.757.576.576 0 0 1-.394.155.555.555 0 0 1-.396-.163Zm72.133-3.518 6.684-.122.027 1.336-2.969.055 3.019 2.667.032 1.803-2.649-2.451-4.034 2.712-.029-1.736 3.102-1.889-1.142-1.074-2.017.036-.024-1.337Zm17.334 3.496c-.613-.602-2.911-2.648-2.911-2.648a.521.521 0 0 1-.057-.757.576.576 0 0 1 .79-.069c.637.528 2.949 2.647 2.949 2.647a.595.595 0 0 1 .02.821.536.536 0 0 1-.394.173.562.562 0 0 1-.397-.167Zm-77.733-1.012c.142-.773.745-1.271 1.548-1.289 1.225-.028 2.143.947 2.172 2.18.03 1.357-.878 2.105-1.836 2.238l-.176-1.234c.473-.067.962-.357.948-.969-.015-.651-.62-.916-1.132-.905-.544.014-1.04.331-1.026.906.008.254.066.465.106.585l-1.039-.115c-.001-.484-.22-1.056-.891-1.038-.441.01-.722.304-.712.75.008.333.213.747.907.815l-.178 1.185c-.422-.085-1.755-.322-1.793-2.012-.03-1.283.88-1.993 1.673-2.011.876-.02 1.293.687 1.411.914h.018Zm-11.7 3.215c-.613-.558-2.818-2.79-2.818-2.79a.596.596 0 0 1 .021-.819.55.55 0 0 1 .793.032c.58.632 2.774 2.79 2.774 2.79a.517.517 0 0 1 .02.756.585.585 0 0 1-.416.175.551.551 0 0 1-.374-.144Zm89.401.077c-.585-.63-2.78-2.789-2.78-2.789a.52.52 0 0 1-.017-.758.572.572 0 0 1 .79-.031c.613.561 2.816 2.791 2.816 2.791a.59.59 0 0 1-.022.817.532.532 0 0 1-.376.155.553.553 0 0 1-.411-.185Zm-.15 2.278c-.548-.663-2.635-2.925-2.635-2.925a.522.522 0 0 1 .017-.756.573.573 0 0 1 .793.006c.584.589 2.677 2.928 2.677 2.928a.592.592 0 0 1-.065.816.534.534 0 0 1-.355.136.569.569 0 0 1-.432-.205Zm-89.109-.177c-.639-.53-2.953-2.649-2.953-2.649a.597.597 0 0 1-.021-.82.552.552 0 0 1 .793-.007c.612.604 2.911 2.651 2.911 2.651a.518.518 0 0 1 .055.754.58.58 0 0 1-.435.197.542.542 0 0 1-.35-.126Zm88.851 2.442c-.519-.688-2.488-3.049-2.488-3.049a.517.517 0 0 1 .058-.754.572.572 0 0 1 .791.044c.553.617 2.529 3.054 2.529 3.054a.6.6 0 0 1-.106.814.538.538 0 0 1-.335.117.564.564 0 0 1-.449-.226Zm-88.604-.276c-.664-.495-3.081-2.498-3.081-2.498a.598.598 0 0 1-.063-.819.552.552 0 0 1 .793-.045c.642.572 3.037 2.503 3.037 2.503a.519.519 0 0 1 .099.751.586.586 0 0 1-.454.217.55.55 0 0 1-.331-.109Zm88.232 2.528c-.482-.715-2.332-3.172-2.332-3.172a.519.519 0 0 1 .098-.751.572.572 0 0 1 .785.086c.521.644 2.372 3.175 2.372 3.175a.597.597 0 0 1-.143.808.542.542 0 0 1-.317.103.56.56 0 0 1-.463-.249Zm-77.304.961-2.5-1.616 2.94-.458.762-2.877 1.347 2.654 2.97-.162-2.108 2.099 1.07 2.774-2.644-1.358-2.309 1.88.472-2.936ZM35.85 62.491c-.688-.461-3.202-2.34-3.202-2.34a.6.6 0 0 1-.101-.816.547.547 0 0 1 .785-.084c.674.539 3.164 2.348 3.164 2.348a.52.52 0 0 1 .132.745.585.585 0 0 1-.471.241.543.543 0 0 1-.307-.094Zm87.396 2.604c-.446-.737-2.173-3.281-2.173-3.281a.52.52 0 0 1 .135-.746.57.57 0 0 1 .78.125c.491.667 2.213 3.289 2.213 3.289a.596.596 0 0 1-.186.8.54.54 0 0 1-.293.087.557.557 0 0 1-.476-.274Zm-13.415-4.119.764 2.878 2.942.458-2.5 1.615.47 2.936-2.307-1.879-2.646 1.358 1.072-2.775-2.108-2.098 2.968.163 1.345-2.656Zm-73.52 3.647c-.71-.429-3.312-2.178-3.312-2.178a.6.6 0 0 1-.144-.81.547.547 0 0 1 .781-.125c.698.507 3.274 2.189 3.274 2.189a.52.52 0 0 1 .171.737.583.583 0 0 1-.486.265.548.548 0 0 1-.284-.078Zm86.339 2.675c-.407-.758-2.002-3.386-2.002-3.386a.52.52 0 0 1 .17-.738c.26-.16.607-.09.775.162.452.693 2.041 3.397 2.041 3.397a.595.595 0 0 1-.226.79.544.544 0 0 1-.758-.225Zm-85.771-.571c-.73-.39-3.416-2.009-3.416-2.009a.596.596 0 0 1-.186-.799.55.55 0 0 1 .774-.165c.723.47 3.382 2.02 3.382 2.02a.518.518 0 0 1 .204.728.578.578 0 0 1-.5.289.542.542 0 0 1-.258-.064Zm85.068 2.741c-.371-.778-1.832-3.485-1.832-3.485a.519.519 0 0 1 .206-.727.577.577 0 0 1 .767.203c.418.713 1.87 3.493 1.87 3.493a.6.6 0 0 1-.267.78.533.533 0 0 1-.243.058.56.56 0 0 1-.501-.322Zm-84.394-.666c-.748-.355-3.514-1.836-3.514-1.836a.599.599 0 0 1-.223-.792.548.548 0 0 1 .764-.2c.744.433 3.477 1.848 3.477 1.848a.52.52 0 0 1 .242.717.58.58 0 0 1-.513.315.549.549 0 0 1-.233-.052Zm83.582 2.797c-.332-.795-1.655-3.573-1.655-3.573a.52.52 0 0 1 .243-.715.575.575 0 0 1 .755.242c.383.734 1.69 3.584 1.69 3.584a.592.592 0 0 1-.302.762.536.536 0 0 1-.222.048.555.555 0 0 1-.509-.348ZM38.33 70.84c-.767-.317-3.603-1.657-3.603-1.657a.599.599 0 0 1-.263-.778.551.551 0 0 1 .757-.241c.762.396 3.563 1.672 3.563 1.672a.52.52 0 0 1 .279.703.583.583 0 0 1-.527.342.533.533 0 0 1-.206-.041Zm81.885 2.848c-.288-.811-1.473-3.652-1.473-3.652a.516.516 0 0 1 .279-.7c.28-.121.615 0 .743.275.344.752 1.507 3.665 1.507 3.665a.595.595 0 0 1-.34.75.535.535 0 0 1-.195.037.557.557 0 0 1-.521-.375Zm-81.009-.852c-.78-.279-3.679-1.475-3.679-1.475a.596.596 0 0 1-.301-.763.546.546 0 0 1 .739-.279c.785.357 3.646 1.49 3.646 1.49a.524.524 0 0 1 .314.691.584.584 0 0 1-.537.367.553.553 0 0 1-.182-.031Zm79.991 2.892c-.248-.824-1.29-3.721-1.29-3.721a.514.514 0 0 1 .312-.687.569.569 0 0 1 .724.312c.309.77 1.324 3.738 1.324 3.738a.592.592 0 0 1-.374.729.526.526 0 0 1-.172.029.55.55 0 0 1-.524-.4Zm-68.562 1.861c-1.458-2.001-.664-3.829.754-4.861 1.322-.963 3.318-1.279 4.783.729.655.901 1.246 2.252.137 3.522l-1.015-.969c.589-.763.191-1.528-.053-1.862-.344-.473-.853-.872-1.552-.864-.522.012-.995.265-1.413.568-.799.581-1.708 1.681-.758 2.984.475.652 1.209.912 1.416.977l.677-.496-.929-1.281.913-.663 1.755 2.413-2.151 1.566c-.545-.1-1.746-.638-2.564-1.763Zm-10.452-2.803c-.794-.239-3.749-1.291-3.749-1.291a.597.597 0 0 1-.339-.748.553.553 0 0 1 .729-.315c.799.32 3.712 1.308 3.712 1.308a.52.52 0 0 1 .346.675.578.578 0 0 1-.699.371Zm77.891 2.927c-.209-.833-1.105-3.78-1.105-3.78a.52.52 0 0 1 .347-.672.57.57 0 0 1 .708.349c.27.785 1.139 3.799 1.139 3.799a.595.595 0 0 1-.409.71.55.55 0 0 1-.68-.406Zm-19.23-.433 3.319-3.865.857.737-2.42 2.817 1.123.966 2.253-2.619.859.737-2.252 2.62 1.371 1.18 2.502-2.91.858.736-3.404 3.96-5.066-4.359Zm-57.591-.596c-.802-.197-3.804-1.1-3.804-1.1a.593.593 0 0 1-.375-.73.546.546 0 0 1 .708-.352c.815.276 3.775 1.12 3.775 1.12a.521.521 0 0 1 .379.657.583.583 0 0 1-.683.405Zm75.603 2.959c-.167-.845-.915-3.832-.915-3.832a.517.517 0 0 1 .376-.656.575.575 0 0 1 .693.385c.229.795.945 3.853.945 3.853a.593.593 0 0 1-.441.689.551.551 0 0 1-.658-.439Zm-74.435-1.114c-.812-.159-3.858-.91-3.858-.91a.593.593 0 0 1-.407-.711.55.55 0 0 1 .691-.388c.828.236 3.823.931 3.823.931.296.058.479.34.409.637a.578.578 0 0 1-.658.441Zm13.924 5.106c-2.162-1.797-1.081-3.095-.097-4.281l2.28-2.742 1.064.885-2.313 2.777c-.506.61-.714.861-.783 1.216-.107.531.236.962.559 1.23 1.02.848 1.538.224 2.266-.652l2.359-2.835 1.06.882-2.244 2.7c-.763.918-1.222 1.399-1.803 1.571-.172.05-.34.073-.505.073-.716 0-1.364-.424-1.843-.824Zm59.196-2.127c-.125-.854-.619-3.425-.723-3.875a.523.523 0 0 1 .408-.637.576.576 0 0 1 .672.421c.188.806.755 3.893.755 3.893a.594.594 0 0 1-.571.676.55.55 0 0 1-.541-.478Zm-21.537-.523 4.109-3.014.668.909-2.993 2.197.876 1.196 2.787-2.043.668.91-2.785 2.046 1.07 1.46 3.097-2.272.67.909-4.209 3.091-3.958-5.389Zm-50.327-.673c-.819-.118-3.425-.611-3.896-.718a.597.597 0 0 1-.443-.691.55.55 0 0 1 .672-.42c.838.193 3.864.738 3.864.738a.524.524 0 0 1 .44.618.584.584 0 0 1-.637.473Zm70.459 2.991a88.638 88.638 0 0 0-.531-3.903.52.52 0 0 1 .44-.618.576.576 0 0 1 .65.453c.148.815.562 3.928.562 3.928a.596.596 0 0 1-.571.648.552.552 0 0 1-.55-.508Zm-69.115-1.272c-.825-.079-3.451-.441-3.925-.523a.594.594 0 0 1-.476-.669.548.548 0 0 1 .649-.454c.847.151 3.896.547 3.896.547a.52.52 0 0 1 .466.596.576.576 0 0 1-.567.505l-.043-.002Zm67.622 2.998a86.258 86.258 0 0 0-.336-3.926.52.52 0 0 1 .47-.594c.3-.033.584.181.624.484.107.82.368 3.949.368 3.949a.596.596 0 0 1-.539.62l-.032.001a.552.552 0 0 1-.555-.534Zm-24.221-1.438 4.973-2.227.462 1.032-1.857.83 2.272 5.071-1.262.565-2.271-5.071-1.854.831-.463-1.031Zm-28.76 2.544 5.437-4.721 1.306.67-.607 7.203-1.348-.693.161-1.617-2.439-1.255-1.194 1.087-1.316-.674Zm51.406.54c.006-.855-.096-3.467-.143-3.934a.522.522 0 0 1 .499-.574.57.57 0 0 1 .599.515c.067.826.172 3.966.172 3.966a.59.59 0 0 1-.571.59h-.001a.549.549 0 0 1-.555-.563Zm-64.62-2.996a87.625 87.625 0 0 1-3.946-.327.595.595 0 0 1-.509-.646.55.55 0 0 1 .624-.483c.858.107 3.92.353 3.92.353a.518.518 0 0 1 .494.572.57.57 0 0 1-.569.531h-.014Zm21.21 6.228 1.646-6.479 2.825.718c.997.253 1.296.434 1.484.55.699.476.826 1.297.666 1.932-.179.707-.7 1.242-1.418 1.335a2.538 2.538 0 0 1-.793.009l-.005.019c.479.45.68.753 1.085 1.962l.487 1.474-1.608-.41-.608-1.657c-.512-1.375-.566-1.522-1.467-1.749l-.27-.07-.687 2.706-1.337-.34Zm42.28-1.076a.55.55 0 0 1-.528-.588c.053-.851.08-3.465.058-3.936a.517.517 0 0 1 .522-.548c.3-.002.563.239.573.546.031.828-.025 3.968-.025 3.968a.582.582 0 0 1-.566.559l-.034-.001Zm-22.557-.383-.916-4.368 1.256-.263 1.373 6.541-1.362.287-3.58-3.705-.019.006.894 4.265-1.259.265-1.372-6.542 1.316-.278 3.65 3.797.019-.005Zm-43.384-3.323a.594.594 0 0 1-.538-.621.547.547 0 0 1 .6-.513c.86.066 3.931.158 3.931.158a.527.527 0 0 1 .525.546.573.573 0 0 1-.556.56l-.121.001c-.945 0-3.389-.09-3.841-.131Zm30.897 6.473 2.817-6.626 1.47.03 2.612 6.742-1.517-.032-.563-1.525-2.744-.058-.596 1.502-1.479-.033Zm33.282-1.259a.552.552 0 0 1-.502-.613c.103-.841.256-3.453.256-3.927a.521.521 0 0 1 .55-.522.577.577 0 0 1 .549.572c-.012.834-.224 3.964-.224 3.964a.584.584 0 0 1-.629.526Zm-58.659-4.691c.304-.017.537.224.556.518a.575.575 0 0 1-.532.587c-.833.056-3.492.09-3.961.069a.597.597 0 0 1-.569-.593.55.55 0 0 1 .573-.544c.152.004.372.006.633.006 1.216 0 3.3-.043 3.3-.043Zm56.823 6.11a.547.547 0 0 1-.467-.638c.145-.828.429-3.433.449-3.905a.52.52 0 0 1 .575-.496.574.574 0 0 1 .516.599c-.047.835-.416 3.947-.416 3.947a.576.576 0 0 1-.657.493Zm-59.691-3.886a.547.547 0 0 1 .545-.572c.855-.013 3.925-.228 3.925-.228a.535.535 0 0 1 .581.485.573.573 0 0 1-.499.614c-.838.102-3.487.266-3.959.268h-.008a.593.593 0 0 1-.585-.567Zm57.79 5.213a.549.549 0 0 1-.439-.66c.191-.816.597-3.41.647-3.878a.52.52 0 0 1 .595-.468.573.573 0 0 1 .487.622c-.085.84-.611 3.927-.611 3.927a.577.577 0 0 1-.679.457Zm-56.075-3.652a.547.547 0 0 1 .517-.598c.853-.05 3.908-.423 3.908-.423.293-.04.56.163.604.456a.57.57 0 0 1-.469.637c-.833.15-3.468.444-3.94.465a.595.595 0 0 1-.62-.537Zm54.105 4.882a.552.552 0 0 1-.405-.681c.235-.806.842-3.838.842-3.838a.522.522 0 0 1 .617-.44.576.576 0 0 1 .457.647c-.126.837-.807 3.891-.807 3.891a.57.57 0 0 1-.562.438.633.633 0 0 1-.142-.017Zm-52.314-3.408a.547.547 0 0 1 .485-.622c.847-.09 3.883-.613 3.883-.613a.534.534 0 0 1 .629.42.574.574 0 0 1-.435.66c-.832.197-3.445.611-3.916.663a.596.596 0 0 1-.646-.508Zm50.289 4.539a.549.549 0 0 1-.37-.7c.273-.795 1.032-3.789 1.032-3.789a.522.522 0 0 1 .636-.41.575.575 0 0 1 .425.671c-.164.828-.998 3.844-.998 3.844a.573.573 0 0 1-.557.408.604.604 0 0 1-.168-.024Zm-48.427-3.154a.547.547 0 0 1 .455-.645c.835-.13 3.846-.807 3.846-.807a.529.529 0 0 1 .647.388.57.57 0 0 1-.401.681c-.817.234-3.878.858-3.878.858a.596.596 0 0 1-.669-.475Zm46.346 4.183a.544.544 0 0 1-.33-.718c.307-.782 1.217-3.732 1.217-3.732a.521.521 0 0 1 .657-.376.575.575 0 0 1 .391.689c-.207.821-1.189 3.792-1.189 3.792a.577.577 0 0 1-.55.377.6.6 0 0 1-.196-.032Zm-44.42-2.894a.55.55 0 0 1 .426-.667c.825-.166 3.799-.996 3.799-.996.283-.08.585.061.667.352a.578.578 0 0 1-.366.703c-.805.274-3.834 1.052-3.834 1.052a.599.599 0 0 1-.692-.444Zm42.29 3.817a.55.55 0 0 1-.296-.734c.348-.766 1.403-3.666 1.403-3.666a.53.53 0 0 1 .677-.342.57.57 0 0 1 .353.708c-.243.809-1.373 3.729-1.373 3.729a.58.58 0 0 1-.539.348.608.608 0 0 1-.225-.043Zm-40.3-2.624a.548.548 0 0 1 .39-.687c.821-.208 3.744-1.185 3.744-1.185.283-.099.592.03.688.317a.57.57 0 0 1-.332.718c-.787.315-3.776 1.246-3.776 1.246a.555.555 0 0 1-.145.019.605.605 0 0 1-.569-.428Zm38.128 3.439a.548.548 0 0 1-.258-.748c.385-.748 1.585-3.59 1.585-3.59a.53.53 0 0 1 .693-.308.577.577 0 0 1 .317.725c-.285.8-1.562 3.657-1.562 3.657a.585.585 0 0 1-.527.319.57.57 0 0 1-.248-.055Zm-36.079-2.349a.552.552 0 0 1 .355-.707c.806-.245 3.681-1.367 3.681-1.367a.525.525 0 0 1 .702.282.573.573 0 0 1-.299.733c-.771.351-3.704 1.429-3.704 1.429a.534.534 0 0 1-.179.03.6.6 0 0 1-.556-.4Zm33.869 3.054a.546.546 0 0 1-.222-.759c.421-.73 1.764-3.508 1.764-3.508.126-.265.433-.401.707-.269a.569.569 0 0 1 .282.738c-.325.787-1.743 3.572-1.743 3.572a.593.593 0 0 1-.788.226Zm-31.768-2.065a.544.544 0 0 1 .32-.723c.79-.285 3.607-1.551 3.607-1.551a.521.521 0 0 1 .715.242.58.58 0 0 1-.259.751c-.755.389-3.633 1.614-3.633 1.614a.559.559 0 0 1-.206.04.6.6 0 0 1-.544-.373Zm29.522 2.658a.548.548 0 0 1-.181-.769c.458-.707 1.938-3.416 1.938-3.416a.531.531 0 0 1 .72-.233.573.573 0 0 1 .243.753c-.363.771-1.918 3.481-1.918 3.481a.596.596 0 0 1-.802.184Zm-27.376-1.776a.546.546 0 0 1 .282-.738c.776-.323 3.526-1.731 3.526-1.731a.52.52 0 0 1 .727.206.572.572 0 0 1-.223.76c-.731.427-3.544 1.794-3.544 1.794a.536.536 0 0 1-.235.055.602.602 0 0 1-.533-.346Zm25.107 2.257a.549.549 0 0 1-.144-.78c.493-.684 2.108-3.313 2.108-3.313a.532.532 0 0 1 .73-.195.576.576 0 0 1 .207.764c-.401.751-2.092 3.377-2.092 3.377a.593.593 0 0 1-.809.147Zm-22.919-1.483a.554.554 0 0 1 .247-.754c.756-.36 3.431-1.905 3.431-1.905a.52.52 0 0 1 .739.17.575.575 0 0 1-.185.771c-.709.461-3.45 1.969-3.45 1.969a.55.55 0 0 1-.261.066.599.599 0 0 1-.521-.317Zm20.626 1.848a.55.55 0 0 1-.106-.783c.53-.66 2.274-3.208 2.274-3.208a.532.532 0 0 1 .737-.156.57.57 0 0 1 .17.773c-.438.73-2.261 3.271-2.261 3.271a.582.582 0 0 1-.46.218.592.592 0 0 1-.354-.115ZM66.641 99.17a.55.55 0 0 1 .208-.765c.738-.395 3.332-2.074 3.332-2.074a.516.516 0 0 1 .745.132c.169.251.107.6-.144.776-.684.498-3.345 2.141-3.345 2.141a.554.554 0 0 1-.288.081.596.596 0 0 1-.508-.291Zm16.096 1.438a.546.546 0 0 1-.064-.787c.557-.632 2.427-3.088 2.427-3.088a.53.53 0 0 1 .746-.122c.242.18.302.528.13.78-.474.708-2.423 3.153-2.423 3.153a.571.571 0 0 1-.44.198.59.59 0 0 1-.376-.134Zm-13.839-.89a.544.544 0 0 1 .169-.772c.717-.434 3.223-2.241 3.223-2.241a.52.52 0 0 1 .752.093.574.574 0 0 1-.107.786c-.656.532-3.235 2.306-3.235 2.306a.552.552 0 0 1-.309.094.594.594 0 0 1-.493-.266Zm11.525 1.027a.548.548 0 0 1-.028-.791c.589-.6 2.58-2.962 2.58-2.962a.529.529 0 0 1 .751-.085.574.574 0 0 1 .089.785c-.508.683-2.571 3.031-2.571 3.031a.6.6 0 0 1-.821.022Zm-9.247-.592a.549.549 0 0 1 .131-.78c.694-.469 3.109-2.398 3.109-2.398a.52.52 0 0 1 .755.056.574.574 0 0 1-.066.788c-.634.563-3.119 2.465-3.119 2.465a.545.545 0 0 1-.332.112.597.597 0 0 1-.478-.243Zm6.927.615a.548.548 0 0 1 .014-.79c.617-.57 2.723-2.835 2.723-2.835.197-.214.531-.254.754-.048.22.203.248.555.049.79-.542.654-2.719 2.899-2.719 2.899a.552.552 0 0 1-.394.16.611.611 0 0 1-.427-.176Zm-4.628-.296a.548.548 0 0 1 .092-.786c.669-.501 2.983-2.549 2.983-2.549a.524.524 0 0 1 .758.021.574.574 0 0 1-.024.791c-.606.596-2.994 2.615-2.994 2.615a.543.543 0 0 1-.353.128.603.603 0 0 1-.462-.22Zm2.313.207a.544.544 0 0 1 .05-.79c.643-.537 2.855-2.697 2.855-2.697a.53.53 0 0 1 .759-.013.574.574 0 0 1 .012.792c-.575.626-2.86 2.759-2.86 2.759a.542.542 0 0 1-.373.145.6.6 0 0 1-.443-.196Zm-.818-81.125c-1.517.163-1.686 1.507-1.579 2.482.079.751.299 1.16.486 1.412.265.366.782.759 1.588.672.701-.074 1.775-.577 1.569-2.498-.078-.711-.402-2.082-1.807-2.082-.082 0-.168.005-.257.014Zm27.939 12.17.931 1.121c.295.35.778.842 1.322.387.229-.189.372-.514.224-.838-.081-.187-.183-.31-.802-1.05l-.5-.597-1.175.977Zm-48.927 2.784 1.145-1.414-2.507-.848 1.362 2.262Zm46.706-.932.796.957c.182.222.545.655.733.766.45.265.788.057.948-.075.702-.586.173-1.22-.429-1.943l-.695-.833-1.353 1.128Zm-22.881 1.943-2.779.139 2.167 1.75-.727 2.683 2.329-1.522 2.331 1.522-.726-2.683 2.164-1.75-2.778-.139-.991-2.601-.99 2.601Zm9.533 2.273-1.982-1.015.803 2.077-1.578 1.57 2.226-.121 1.005 1.986.571-2.152 2.2-.343-1.872-1.209.355-2.198-1.728 1.405Zm-18.461.793-1.869 1.209 2.202.343.567 2.153 1.006-1.985 2.227.119-1.579-1.57.802-2.077-1.981 1.015-1.726-1.405.351 2.198Zm-20.897.29-.268.54 3.973 1.953.444-.9c.455-.925.766-1.683-1.163-2.631-.611-.301-1.074-.43-1.439-.43-.825 0-1.148.658-1.547 1.468Zm58.079-.343.828 1.621 1.794-1.949-2.622.328Zm24.153 1.315 3.057 1.57-3.514 4.866 4.844 3.545-4.224 4.258 4.224 4.254-4.844 3.54 3.514 4.87-3.06 1.573h26.75L141.74 54.081l15.218-14.234h-26.744ZM0 39.847l15.216 14.245L.001 68.323H26.75l-3.062-1.573 3.51-4.87-4.841-3.54 4.23-4.254-4.23-4.258 4.841-3.545-3.51-4.866 3.059-1.57H0Zm87.107 22.366h2.216l9.081-17.151-2.13-.102-9.167 17.253Zm-.238-16.589c-.618.494-.924 1.191-.924 2.091v3.181c0 .76.268 1.41.807 1.947.537.54 1.175.81 1.914.81.915 0 1.666-.234 2.257-.701.593-.47.888-1.154.888-2.056v-3.181c0-.758-.267-1.406-.794-1.946-.528-.539-1.162-.809-1.903-.809-.916 0-1.663.223-2.245.664Zm1.031 4.798v-2.313c0-.902.311-1.354.938-1.354.68 0 1.017.452 1.017 1.354v2.313c0 .904-.313 1.355-.939 1.355-.675 0-1.016-.451-1.016-1.355Zm-8.138-4.906c-1.091 0-2.025.387-2.8 1.16-.774.773-1.163 1.705-1.163 2.796v9.022c0 1.089.389 2.022 1.163 2.796.775.773 1.709 1.161 2.8 1.161h.687c1.073 0 2.002-.388 2.788-1.161.783-.774 1.176-1.707 1.176-2.796v-9.022c0-1.091-.393-2.023-1.176-2.796-.786-.773-1.715-1.16-2.788-1.16h-.687Zm-1.321 12.268v-7.682c0-1.473.626-2.209 1.876-2.209.615 0 1.029.237 1.243.709.139.301.211.798.211 1.5v7.682c0 1.474-.54 2.209-1.612 2.209-1.147 0-1.718-.735-1.718-2.209Zm-8.984-12.268a3.821 3.821 0 0 0-2.8 1.16c-.775.773-1.161 1.705-1.161 2.796v9.022c0 1.089.386 2.022 1.161 2.796.774.773 1.709 1.161 2.8 1.161h.689c1.074 0 2.002-.388 2.787-1.161.782-.774 1.177-1.707 1.177-2.796v-9.022c0-1.091-.395-2.023-1.177-2.796-.785-.773-1.713-1.16-2.787-1.16h-.689Zm-1.321 12.268v-7.682c0-1.473.627-2.209 1.878-2.209.617 0 1.03.237 1.241.709.141.301.21.798.21 1.5v7.682c0 1.474-.538 2.209-1.609 2.209-1.146 0-1.72-.735-1.72-2.209Zm-7.184-11.952-2.694 2.484v3.222l2.694-2.668v13.343h2.746V45.806l-2.746.026Zm-15.771 1.867c-.097.595.433.898 2.193 1.182 1.752.28 2.347.16 2.446-.436.096-.605-.442-.911-2.185-1.19-.593-.095-1.055-.144-1.411-.144-.693 0-.979.188-1.043.588Zm49.852 6.508c-.616.494-.924 1.182-.924 2.061v3.197c0 .74.266 1.382.792 1.929.531.546 1.161.819 1.901.819.915 0 1.671-.234 2.274-.703.599-.465.899-1.148.899-2.045v-3.197c0-.741-.269-1.383-.808-1.929-.536-.546-1.175-.82-1.915-.82-.915 0-1.655.23-2.219.688Zm1.029 4.782v-2.298c0-.899.313-1.348.938-1.348.681 0 1.017.449 1.017 1.348v2.298c0 .898-.311 1.347-.935 1.347-.678 0-1.02-.449-1.02-1.347Zm-9.253 9.06-2.225-.121 1.577 1.571-.8 2.077 1.979-1.014 1.728 1.404-.353-2.199 1.87-1.209-2.2-.342-.571-2.152-1.005 1.985Zm-17.597.167-2.202.344 1.871 1.207-.353 2.199 1.728-1.404 1.979 1.014-.802-2.076 1.579-1.572-2.224.123-1.004-1.987-.572 2.152Zm9.585 1.566-2.329-1.52.727 2.687-2.167 1.749 2.779.137.99 2.6.991-2.6 2.779-.14-2.165-1.746.729-2.687-2.334 1.52ZM63.062 84.911l1.674.86.291-2.643-1.965 1.783Zm6.883 1.599.992.252c.411.104.982.248 1.232.226.503-.036.656-.44.703-.631.069-.26.04-.537-.176-.747-.214-.209-.379-.25-1.281-.481l-1.054-.265-.416 1.646Zm7.471 2.497 1.88.042-.899-2.503-.981 2.461Z"/>
  </mask>
  <g mask="url(#a)">
    <path fill="url(#b)" fill-rule="evenodd" d="m82.74 0-4.257 4.229L74.225 0l-3.543 4.841-4.863-3.511-2.749 5.338-5.349-2.709-1.871 5.703-5.715-1.838-.961 5.925-5.926-.92-.021 6.001-6.005.02.926 5.927-5.923.958 1.837 5.717-5.705 1.871 2.708 5.355-5.339 2.739 3.513 4.866-4.843 3.545 4.229 4.258-4.229 4.254 4.843 3.54-3.513 4.869 5.339 2.743-2.708 5.354 5.705 1.868-1.837 5.721 5.923.955-.926 5.932 6.005.014.021 6.003 5.926-.923.961 5.923 5.715-1.836 1.871 5.703 5.349-2.709 2.749 5.339 4.863-3.512 3.543 4.847 4.258-4.228 4.257 4.228 3.538-4.847 4.87 3.512 2.737-5.339 5.359 2.709 1.871-5.703 5.716 1.836.956-5.923 5.929.923.022-6.003 6.001-.014-.925-5.932 5.927-.955-1.837-5.721 5.701-1.868-2.71-5.354 5.339-2.743-3.512-4.869 4.843-3.54-4.228-4.254 4.228-4.258-4.843-3.545 3.512-4.866-5.339-2.739 2.71-5.355-5.701-1.871 1.837-5.717-5.927-.958.925-5.927-6.001-.02-.022-6.001-5.929.92-.956-5.925-5.716 1.838-1.871-5.703-5.359 2.709-2.737-5.338-4.87 3.511L82.74 0Zm-6.725 11.398a.573.573 0 0 1-.051-.791c.541-.655 2.719-2.898 2.719-2.898a.583.583 0 0 1 .818.016.547.547 0 0 1-.011.792c-.618.569-2.723 2.833-2.723 2.833a.56.56 0 0 1-.409.183.499.499 0 0 1-.343-.135Zm-2.133.19a.579.579 0 0 1-.092-.789c.509-.682 2.575-3.028 2.575-3.028a.59.59 0 0 1 .818-.022.545.545 0 0 1 .031.787c-.592.603-2.581 2.966-2.581 2.966a.564.564 0 0 1-.427.203.507.507 0 0 1-.324-.117Zm4.272-.274a.572.572 0 0 1-.01-.791C78.719 9.896 81 7.762 81 7.762c.238-.218.607-.179.82.053a.548.548 0 0 1-.05.788c-.644.538-2.856 2.697-2.856 2.697a.56.56 0 0 1-.395.167.51.51 0 0 1-.365-.153Zm-6.393.569a.575.575 0 0 1-.13-.782c.475-.71 2.421-3.156 2.421-3.156a.597.597 0 0 1 .817-.06.549.549 0 0 1 .067.788c-.558.63-2.43 3.086-2.43 3.086a.549.549 0 0 1-.439.226.511.511 0 0 1-.306-.102Zm8.537-.548a.575.575 0 0 1 .025-.791c.607-.594 2.991-2.616 2.991-2.616.249-.208.617-.151.819.092a.548.548 0 0 1-.091.785c-.673.505-2.986 2.55-2.986 2.55a.543.543 0 0 1-.374.153.513.513 0 0 1-.384-.173Zm-10.642.948a.575.575 0 0 1-.167-.774c.439-.729 2.259-3.271 2.259-3.271a.601.601 0 0 1 .817-.101.548.548 0 0 1 .102.783c-.527.659-2.269 3.205-2.269 3.205a.555.555 0 0 1-.455.246.51.51 0 0 1-.287-.088Zm12.779-.82a.575.575 0 0 1 .068-.79c.633-.564 3.115-2.464 3.115-2.464a.584.584 0 0 1 .813.129.551.551 0 0 1-.133.783c-.693.469-3.107 2.397-3.107 2.397a.538.538 0 0 1-.355.137.515.515 0 0 1-.401-.192ZM67.576 12.79a.573.573 0 0 1-.205-.764c.399-.752 2.093-3.38 2.093-3.38a.594.594 0 0 1 .807-.144.548.548 0 0 1 .143.778c-.493.683-2.108 3.313-2.108 3.313a.548.548 0 0 1-.466.27.514.514 0 0 1-.264-.073Zm16.988-1.097a.575.575 0 0 1 .103-.783c.663-.532 3.239-2.307 3.239-2.307a.578.578 0 0 1 .802.171.546.546 0 0 1-.169.774c-.717.433-3.222 2.239-3.222 2.239a.535.535 0 0 1-.335.119.518.518 0 0 1-.418-.213ZM65.525 13.4a.578.578 0 0 1-.247-.754c.366-.769 1.923-3.48 1.923-3.48A.597.597 0 0 1 68 8.982c.271.161.35.507.18.769-.456.709-1.935 3.416-1.935 3.416a.55.55 0 0 1-.479.294.505.505 0 0 1-.241-.061Zm21.157-1.37a.566.566 0 0 1 .144-.778c.684-.497 3.344-2.14 3.344-2.14a.578.578 0 0 1 .793.212.542.542 0 0 1-.205.761c-.74.4-3.336 2.078-3.336 2.078a.538.538 0 0 1-.313.102.502.502 0 0 1-.427-.235Zm-23.175 2.081a.574.574 0 0 1-.284-.739c.326-.786 1.744-3.574 1.744-3.574a.597.597 0 0 1 .79-.223c.28.148.375.488.22.758-.422.731-1.765 3.51-1.765 3.51a.543.543 0 0 1-.485.319.502.502 0 0 1-.22-.051Zm25.265-1.636a.577.577 0 0 1 .186-.772c.708-.462 3.45-1.97 3.45-1.97.281-.153.633-.027.782.252a.552.552 0 0 1-.246.753c-.758.359-3.434 1.905-3.434 1.905a.54.54 0 0 1-.292.087.517.517 0 0 1-.446-.255Zm-27.247 2.451a.575.575 0 0 1-.318-.725c.285-.8 1.561-3.657 1.561-3.657.14-.28.49-.397.778-.264a.55.55 0 0 1 .259.749c-.386.747-1.587 3.591-1.587 3.591a.545.545 0 0 1-.496.345.536.536 0 0 1-.197-.039Zm29.319-1.907a.57.57 0 0 1 .222-.759c.73-.426 3.546-1.796 3.546-1.796.289-.137.632.009.766.293a.548.548 0 0 1-.282.738c-.776.323-3.526 1.731-3.526 1.731a.514.514 0 0 1-.726-.207Zm-31.255 2.817a.575.575 0 0 1-.355-.709c.244-.811 1.377-3.728 1.377-3.728a.59.59 0 0 1 .763-.304.548.548 0 0 1 .295.731c-.347.769-1.403 3.667-1.403 3.667a.535.535 0 0 1-.501.374.523.523 0 0 1-.176-.031Zm33.293-2.166a.578.578 0 0 1 .258-.749c.755-.388 3.632-1.614 3.632-1.614.298-.121.63.042.751.331a.546.546 0 0 1-.319.724c-.79.284-3.608 1.552-3.608 1.552a.55.55 0 0 1-.244.058.514.514 0 0 1-.47-.302Zm-35.181 3.174a.578.578 0 0 1-.393-.689c.207-.823 1.19-3.793 1.19-3.793a.583.583 0 0 1 .745-.343c.3.103.444.424.334.717-.311.782-1.222 3.732-1.222 3.732a.522.522 0 0 1-.654.376Zm37.185-2.422a.577.577 0 0 1 .296-.736c.774-.351 3.713-1.431 3.713-1.431.296-.1.623.073.729.371a.55.55 0 0 1-.355.708c-.805.246-3.681 1.368-3.681 1.368a.55.55 0 0 1-.218.045.515.515 0 0 1-.484-.325Zm-39.022 3.521a.575.575 0 0 1-.425-.668c.167-.829.998-3.845.998-3.845.088-.312.424-.471.726-.384a.55.55 0 0 1 .37.7c-.273.795-1.033 3.79-1.033 3.79a.519.519 0 0 1-.636.407Zm40.988-2.669a.573.573 0 0 1 .332-.719c.788-.313 3.774-1.245 3.774-1.245a.594.594 0 0 1 .712.409.55.55 0 0 1-.387.688c-.819.206-3.745 1.182-3.745 1.182a.586.586 0 0 1-.191.033.514.514 0 0 1-.495-.348Zm-42.77 3.86a.57.57 0 0 1-.454-.646c.125-.835.807-3.89.807-3.89a.575.575 0 0 1 .702-.42.55.55 0 0 1 .405.679c-.233.807-.84 3.839-.84 3.839a.523.523 0 0 1-.62.438Zm44.689-2.912a.575.575 0 0 1 .367-.7c.805-.275 3.835-1.054 3.835-1.054a.593.593 0 0 1 .688.442.545.545 0 0 1-.423.669c-.826.166-3.799.996-3.799.996a.59.59 0 0 1-.16.023.515.515 0 0 1-.508-.376Zm-46.407 4.192a.576.576 0 0 1-.487-.626c.085-.835.611-3.924.611-3.924a.578.578 0 0 1 .679-.456.55.55 0 0 1 .441.659c-.195.816-.6 3.41-.648 3.877a.521.521 0 0 1-.596.47Zm48.277-3.148a.57.57 0 0 1 .402-.682c.818-.236 3.879-.86 3.879-.86a.594.594 0 0 1 .668.475.548.548 0 0 1-.458.648c-.834.128-3.843.806-3.843.806a.572.572 0 0 1-.129.014.525.525 0 0 1-.519-.401ZM50.71 21.773a.573.573 0 0 1-.518-.598c.048-.835.417-3.949.417-3.949a.576.576 0 0 1 .658-.491.541.541 0 0 1 .465.634c-.144.832-.427 3.435-.449 3.909a.517.517 0 0 1-.519.497c-.018 0-.036 0-.054-.002Zm51.744-3.373a.573.573 0 0 1 .439-.659c.828-.197 3.441-.612 3.913-.663a.596.596 0 0 1 .647.506.553.553 0 0 1-.487.625c-.844.089-3.882.613-3.882.613a.536.536 0 0 1-.63-.422Zm-53.326 4.816a.574.574 0 0 1-.549-.573c.009-.835.223-3.964.223-3.964a.577.577 0 0 1 .628-.526.546.546 0 0 1 .499.613c-.098.842-.253 3.454-.253 3.927a.521.521 0 0 1-.524.524l-.024-.001Zm30.69 1.685.89-6.628 1.29.172 2.085 4.787h.018l.595-4.423 1.233.167-.889 6.625-1.337-.179-2.053-4.676-.018-.003-.582 4.323-1.232-.165Zm-7.802-2.678c-.23-2.125.767-3.597 2.819-3.819 2.163-.234 3.368 1.157 3.579 3.096.188 1.735-.498 3.519-2.815 3.769-.17.019-.332.028-.487.028-2.121-.001-2.942-1.649-3.096-3.074Zm32.196-2.599a.572.572 0 0 1 .469-.637c.834-.151 3.469-.442 3.941-.464a.592.592 0 0 1 .62.536.55.55 0 0 1-.517.6c-.852.047-3.906.421-3.906.421a.538.538 0 0 1-.607-.456Zm-36.557 5.277-.533-4.675 1.883-.723 2.394 6.242-1.161.447-1.886-4.918-.019.008.683 5.378-1.205.462-3.111-4.446-.019.008 1.888 4.917-1.159.446-2.397-6.242 1.874-.721 2.751 3.825.017-.008Zm-20.612-.711c-.031-.831.025-3.969.025-3.969.015-.314.277-.579.599-.559a.547.547 0 0 1 .53.587c-.054.851-.081 3.464-.057 3.937a.519.519 0 0 1-.523.547h-.003a.569.569 0 0 1-.571-.543Zm39.283 1.761 2.328-6.264 4.627 1.716-.395 1.059-3.371-1.252-.517 1.392 3.135 1.163-.393 1.06-3.138-1.165-.628 1.698 3.485 1.293-.393 1.058-4.74-1.758Zm19.58-5.016a.577.577 0 0 1 .5-.615c.837-.102 3.487-.265 3.959-.266a.594.594 0 0 1 .594.566.55.55 0 0 1-.547.572c-.856.012-3.925.227-3.925.227a.534.534 0 0 1-.581-.484Zm-60.325 4.874c-.064-.824-.17-3.964-.17-3.964a.589.589 0 0 1 .572-.591.55.55 0 0 1 .557.562c-.009.858.094 3.469.138 3.935a.516.516 0 0 1-.494.574l-.03.001a.573.573 0 0 1-.573-.517Zm61.952-3.482a.577.577 0 0 1 .531-.588c.834-.057 3.494-.089 3.965-.067a.59.59 0 0 1 .565.592.546.546 0 0 1-.572.543c-.859-.024-3.933.037-3.933.037l-.03.001a.536.536 0 0 1-.526-.518Zm-14.064 6.808 1.505-2.373.024-4.575 1.323.842-.096 3.066 2.717-1.404 1.303.827-4.144 1.968-1.502 2.365-1.13-.716ZM44.202 27.5c-.104-.819-.366-3.951-.366-3.951a.599.599 0 0 1 .539-.62.554.554 0 0 1 .588.536c.041.858.27 3.463.334 3.924a.52.52 0 0 1-.526.599.577.577 0 0 1-.569-.488Zm64.889-3.7a.576.576 0 0 1 .56-.562c.83-.009 3.485.085 3.958.13a.59.59 0 0 1 .538.62.545.545 0 0 1-.6.514c-.86-.065-3.931-.158-3.931-.158h-.001a.528.528 0 0 1-.524-.544Zm-51.824 1.701 1.182-.991.627 4.544 1.801 2.146-1.022.858-1.809-2.149-4.355-1.403 1.199-1.008 2.897 1.017-.52-3.014Zm-14.356 3.755c-.147-.813-.561-3.925-.561-3.925a.6.6 0 0 1 .508-.647.553.553 0 0 1 .612.504c.084.859.445 3.448.53 3.905a.522.522 0 0 1-.522.624.574.574 0 0 1-.567-.461Zm72.076-2.986c-.854-.108-3.918-.353-3.918-.353a.52.52 0 0 1-.494-.57.572.572 0 0 1 .583-.534c.83.036 3.474.263 3.947.328a.596.596 0 0 1 .51.646.547.547 0 0 1-.628.483Zm1.352 1.837c-.848-.15-3.896-.546-3.896-.546a.521.521 0 0 1-.467-.596.571.571 0 0 1 .61-.503c.822.079 3.455.439 3.926.524a.597.597 0 0 1 .476.669.547.547 0 0 1-.649.452Zm-74.63 2.969c-.188-.805-.755-3.895-.755-3.895a.597.597 0 0 1 .477-.668.549.549 0 0 1 .634.473c.125.853.619 3.424.724 3.872a.52.52 0 0 1-.409.638.574.574 0 0 1-.671-.42Zm75.889-1.066c-.84-.195-3.867-.741-3.867-.741a.517.517 0 0 1-.437-.616.577.577 0 0 1 .636-.472c.82.119 3.425.61 3.896.718.304.07.506.384.442.69a.544.544 0 0 1-.67.421Zm-77.003 2.944c-.226-.798-.944-3.852-.944-3.852a.594.594 0 0 1 .444-.69.545.545 0 0 1 .656.438c.168.845.914 3.833.914 3.833a.52.52 0 0 1-.376.656.575.575 0 0 1-.694-.385ZM101.99 36.6c-.379-.191-.674-.502-1.578-1.587l-1.452-1.741 5.137-4.279 1.699 2.043c.589.706.9 1.135.939 1.661.032.481-.109 1.022-.569 1.405a1.57 1.57 0 0 1-1.712.204c.472 1.094-.148 1.766-.434 2.004a2.035 2.035 0 0 1-1.274.464c-.254 0-.512-.053-.756-.174ZM53.739 54.178c0-13.842 11.219-25.06 25.058-25.06 13.842 0 25.06 11.218 25.06 25.06 0 13.839-11.218 25.059-25.06 25.059-13.839 0-25.058-11.22-25.058-25.059Zm65.021-22.207c-.828-.235-3.824-.929-3.824-.929a.52.52 0 0 1-.409-.637.576.576 0 0 1 .659-.441c.812.158 3.855.91 3.855.91a.597.597 0 0 1 .411.712.545.545 0 0 1-.692.385Zm-79.178 2.911c-.267-.783-1.138-3.797-1.138-3.797a.596.596 0 0 1 .408-.713.55.55 0 0 1 .681.406c.209.835 1.104 3.782 1.104 3.782a.518.518 0 0 1-.347.672.567.567 0 0 1-.708-.35Zm11.386-3.074.896-1.105 6.873 2.133-.925 1.14-1.539-.503-1.671 2.063.834 1.379-.904 1.112-3.564-6.219Zm68.856 2.182c-.815-.277-3.774-1.118-3.774-1.118a.52.52 0 0 1-.378-.657.574.574 0 0 1 .679-.406c.803.198 3.806 1.1 3.806 1.1a.595.595 0 0 1 .376.729.542.542 0 0 1-.523.383.576.576 0 0 1-.186-.031Zm-81.16 2.869c-.31-.769-1.326-3.735-1.326-3.735a.597.597 0 0 1 .376-.73.542.542 0 0 1 .695.37c.349 1.145 1.292 3.72 1.292 3.72a.519.519 0 0 1-.312.69.581.581 0 0 1-.2.035.561.561 0 0 1-.525-.35Zm82.12-.801c-.8-.316-3.714-1.304-3.714-1.304a.519.519 0 0 1-.345-.673.573.573 0 0 1 .7-.374c.794.237 3.747 1.29 3.747 1.29a.598.598 0 0 1 .339.746.541.541 0 0 1-.513.357.559.559 0 0 1-.214-.042Zm-82.939 2.823c-.346-.752-1.509-3.663-1.509-3.663a.597.597 0 0 1 .339-.751c.29-.113.61.041.716.339.288.809 1.473 3.648 1.473 3.648a.52.52 0 0 1-.279.705.57.57 0 0 1-.224.045.565.565 0 0 1-.516-.323Zm83.796-.708c-.785-.357-3.645-1.49-3.645-1.49a.52.52 0 0 1-.313-.689.574.574 0 0 1 .718-.336c.781.275 3.679 1.474 3.679 1.474a.599.599 0 0 1 .301.765.54.54 0 0 1-.501.328.586.586 0 0 1-.239-.052Zm-75.529 1.945 1.082-2.2c.331-.676.815-1.659 2.146-1.802.416-.046 1.115-.073 2.288.503.364.176 1.442.708 1.899 1.875.373.937-.115 1.93-.306 2.315l-1.111 2.259-5.998-2.95Zm-8.983.823c-.382-.735-1.69-3.585-1.69-3.585a.595.595 0 0 1 .302-.764.55.55 0 0 1 .732.302c.331.793 1.655 3.572 1.655 3.572a.518.518 0 0 1-.245.713.565.565 0 0 1-.754-.238Zm65.492-3.332 7.134-.735.646 1.263-4.74 5.421-.668-1.308 1.086-1.201-1.209-2.367-1.596.202-.653-1.275Zm19.769 2.72c-.766-.396-3.567-1.671-3.567-1.671a.52.52 0 0 1-.279-.705.574.574 0 0 1 .732-.3c.768.316 3.604 1.659 3.604 1.659a.594.594 0 0 1 .261.776.537.537 0 0 1-.488.306.565.565 0 0 1-.263-.065Zm-85.872 2.705c-.419-.714-1.867-3.496-1.867-3.496a.593.593 0 0 1 .261-.776.549.549 0 0 1 .747.262c.37.779 1.833 3.485 1.833 3.485a.518.518 0 0 1-.207.728.591.591 0 0 1-.278.07.565.565 0 0 1-.489-.273Zm86.509-.514c-.743-.436-3.477-1.848-3.477-1.848a.522.522 0 0 1-.242-.718.573.573 0 0 1 .746-.263c.748.354 3.513 1.836 3.513 1.836a.596.596 0 0 1 .227.789.54.54 0 0 1-.478.282.59.59 0 0 1-.289-.078Zm-87.013 2.637c-.452-.694-2.042-3.397-2.042-3.397a.599.599 0 0 1 .223-.791.552.552 0 0 1 .761.226c.409.757 2.002 3.386 2.002 3.386a.516.516 0 0 1-.169.738.584.584 0 0 1-.775-.162Zm87.543-.419c-.723-.471-3.384-2.02-3.384-2.02a.521.521 0 0 1-.205-.728.573.573 0 0 1 .758-.226c.733.391 3.418 2.011 3.418 2.011a.593.593 0 0 1 .185.8.537.537 0 0 1-.461.258.559.559 0 0 1-.311-.095Zm-17.274 1.831c-.453-1.744.514-3.261 2.531-3.783 1.799-.466 3.633.027 4.177 2.122.092.362.288 1.271-.232 2.163-.243.408-.581.669-1.001.912l-.639-1.206c.664-.345.906-.975.731-1.639-.412-1.603-2.184-1.143-2.597-1.037-.608.159-1.194.385-1.54.764-.303.328-.461.83-.312 1.406.223.862.984 1.085 1.734 1.066l-.076 1.364c-.54-.004-2.232-.027-2.776-2.132Zm-70.665.731c-.491-.669-2.209-3.292-2.209-3.292a.595.595 0 0 1 .183-.799.55.55 0 0 1 .769.188c.447.736 2.172 3.284 2.172 3.284a.519.519 0 0 1-.133.745.59.59 0 0 1-.329.099.556.556 0 0 1-.453-.225Zm88.353-.319c-.698-.505-3.276-2.188-3.276-2.188a.518.518 0 0 1-.17-.736.577.577 0 0 1 .772-.187c.708.426 3.309 2.178 3.309 2.178a.595.595 0 0 1 .145.808.529.529 0 0 1-.444.235.574.574 0 0 1-.336-.11Zm-88.642 2.48c-.525-.642-2.374-3.178-2.374-3.178a.597.597 0 0 1 .145-.807.553.553 0 0 1 .778.15c.483.714 2.334 3.17 2.334 3.17a.523.523 0 0 1-.098.752.583.583 0 0 1-.351.117.552.552 0 0 1-.434-.204Zm11.812.738c-.44-.074-1.278-.217-1.965-.6-.682-.391-1.216-1.023-1.047-2.069.17-1.044.863-1.48 1.634-1.639.782-.146 1.624-.03 2.085.044.423.069 1.262.212 1.954.606.696.384 1.238 1.019 1.07 2.064-.172 1.055-.877 1.496-1.647 1.646a4.081 4.081 0 0 1-.797.072 8.06 8.06 0 0 1-1.287-.124Zm77.135-.958c-.674-.539-3.163-2.347-3.163-2.347a.519.519 0 0 1-.132-.746.572.572 0 0 1 .775-.148c.688.465 3.2 2.343 3.2 2.343a.594.594 0 0 1 .104.814.536.536 0 0 1-.428.213.561.561 0 0 1-.356-.129Zm-89.127 2.394c-.555-.618-2.529-3.053-2.529-3.053a.597.597 0 0 1 .103-.815.55.55 0 0 1 .783.11c.519.687 2.489 3.05 2.489 3.05a.518.518 0 0 1-.059.754.592.592 0 0 1-.376.136.542.542 0 0 1-.411-.182Zm89.314-.119c-.643-.573-3.039-2.504-3.039-2.504a.518.518 0 0 1-.096-.75.574.574 0 0 1 .783-.111c.666.497 3.081 2.498 3.081 2.498a.6.6 0 0 1 .062.819.54.54 0 0 1-.416.192.559.559 0 0 1-.375-.144Zm-89.39 2.299c-.583-.588-2.677-2.924-2.677-2.924a.594.594 0 0 1 .065-.818.546.546 0 0 1 .787.071c.551.659 2.637 2.922 2.637 2.922a.52.52 0 0 1-.022.757.576.576 0 0 1-.394.155.555.555 0 0 1-.396-.163Zm72.133-3.518 6.684-.122.027 1.336-2.969.055 3.019 2.667.032 1.803-2.649-2.451-4.034 2.712-.029-1.736 3.102-1.889-1.142-1.074-2.017.036-.024-1.337Zm17.334 3.496c-.613-.602-2.911-2.648-2.911-2.648a.521.521 0 0 1-.057-.757.576.576 0 0 1 .79-.069c.637.528 2.949 2.647 2.949 2.647a.595.595 0 0 1 .02.821.536.536 0 0 1-.394.173.562.562 0 0 1-.397-.167Zm-77.733-1.012c.142-.773.745-1.271 1.548-1.289 1.225-.028 2.143.947 2.172 2.18.03 1.357-.878 2.105-1.836 2.238l-.176-1.234c.473-.067.962-.357.948-.969-.015-.651-.62-.916-1.132-.905-.544.014-1.04.331-1.026.906.008.254.066.465.106.585l-1.039-.115c-.001-.484-.22-1.056-.891-1.038-.441.01-.722.304-.712.75.008.333.213.747.907.815l-.178 1.185c-.422-.085-1.755-.322-1.793-2.012-.03-1.283.88-1.993 1.673-2.011.876-.02 1.293.687 1.411.914h.018Zm-11.7 3.215c-.613-.558-2.818-2.79-2.818-2.79a.596.596 0 0 1 .021-.819.55.55 0 0 1 .793.032c.58.632 2.774 2.79 2.774 2.79a.517.517 0 0 1 .02.756.585.585 0 0 1-.416.175.551.551 0 0 1-.374-.144Zm89.401.077c-.585-.63-2.78-2.789-2.78-2.789a.52.52 0 0 1-.017-.758.572.572 0 0 1 .79-.031c.613.561 2.816 2.791 2.816 2.791a.59.59 0 0 1-.022.817.532.532 0 0 1-.376.155.553.553 0 0 1-.411-.185Zm-.15 2.278c-.548-.663-2.635-2.925-2.635-2.925a.522.522 0 0 1 .017-.756.573.573 0 0 1 .793.006c.584.589 2.677 2.928 2.677 2.928a.592.592 0 0 1-.065.816.534.534 0 0 1-.355.136.569.569 0 0 1-.432-.205Zm-89.109-.177c-.639-.53-2.953-2.649-2.953-2.649a.597.597 0 0 1-.021-.82.552.552 0 0 1 .793-.007c.612.604 2.911 2.651 2.911 2.651a.518.518 0 0 1 .055.754.58.58 0 0 1-.435.197.542.542 0 0 1-.35-.126Zm88.851 2.442c-.519-.688-2.488-3.049-2.488-3.049a.517.517 0 0 1 .058-.754.572.572 0 0 1 .791.044c.553.617 2.529 3.054 2.529 3.054a.6.6 0 0 1-.106.814.538.538 0 0 1-.335.117.564.564 0 0 1-.449-.226Zm-88.604-.276c-.664-.495-3.081-2.498-3.081-2.498a.598.598 0 0 1-.063-.819.552.552 0 0 1 .793-.045c.642.572 3.037 2.503 3.037 2.503a.519.519 0 0 1 .099.751.586.586 0 0 1-.454.217.55.55 0 0 1-.331-.109Zm88.232 2.528c-.482-.715-2.332-3.172-2.332-3.172a.519.519 0 0 1 .098-.751.572.572 0 0 1 .785.086c.521.644 2.372 3.175 2.372 3.175a.597.597 0 0 1-.143.808.542.542 0 0 1-.317.103.56.56 0 0 1-.463-.249Zm-77.304.961-2.5-1.616 2.94-.458.762-2.877 1.347 2.654 2.97-.162-2.108 2.099 1.07 2.774-2.644-1.358-2.309 1.88.472-2.936ZM35.85 62.491c-.688-.461-3.202-2.34-3.202-2.34a.6.6 0 0 1-.101-.816.547.547 0 0 1 .785-.084c.674.539 3.164 2.348 3.164 2.348a.52.52 0 0 1 .132.745.585.585 0 0 1-.471.241.543.543 0 0 1-.307-.094Zm87.396 2.604c-.446-.737-2.173-3.281-2.173-3.281a.52.52 0 0 1 .135-.746.57.57 0 0 1 .78.125c.491.667 2.213 3.289 2.213 3.289a.596.596 0 0 1-.186.8.54.54 0 0 1-.293.087.557.557 0 0 1-.476-.274Zm-13.415-4.119.764 2.878 2.942.458-2.5 1.615.47 2.936-2.307-1.879-2.646 1.358 1.072-2.775-2.108-2.098 2.968.163 1.345-2.656Zm-73.52 3.647c-.71-.429-3.312-2.178-3.312-2.178a.6.6 0 0 1-.144-.81.547.547 0 0 1 .781-.125c.698.507 3.274 2.189 3.274 2.189a.52.52 0 0 1 .171.737.583.583 0 0 1-.486.265.548.548 0 0 1-.284-.078Zm86.339 2.675c-.407-.758-2.002-3.386-2.002-3.386a.52.52 0 0 1 .17-.738c.26-.16.607-.09.775.162.452.693 2.041 3.397 2.041 3.397a.595.595 0 0 1-.226.79.544.544 0 0 1-.758-.225Zm-85.771-.571c-.73-.39-3.416-2.009-3.416-2.009a.596.596 0 0 1-.186-.799.55.55 0 0 1 .774-.165c.723.47 3.382 2.02 3.382 2.02a.518.518 0 0 1 .204.728.578.578 0 0 1-.5.289.542.542 0 0 1-.258-.064Zm85.068 2.741c-.371-.778-1.832-3.485-1.832-3.485a.519.519 0 0 1 .206-.727.577.577 0 0 1 .767.203c.418.713 1.87 3.493 1.87 3.493a.6.6 0 0 1-.267.78.533.533 0 0 1-.243.058.56.56 0 0 1-.501-.322Zm-84.394-.666c-.748-.355-3.514-1.836-3.514-1.836a.599.599 0 0 1-.223-.792.548.548 0 0 1 .764-.2c.744.433 3.477 1.848 3.477 1.848a.52.52 0 0 1 .242.717.58.58 0 0 1-.513.315.549.549 0 0 1-.233-.052Zm83.582 2.797c-.332-.795-1.655-3.573-1.655-3.573a.52.52 0 0 1 .243-.715.575.575 0 0 1 .755.242c.383.734 1.69 3.584 1.69 3.584a.592.592 0 0 1-.302.762.536.536 0 0 1-.222.048.555.555 0 0 1-.509-.348ZM38.33 70.84c-.767-.317-3.603-1.657-3.603-1.657a.599.599 0 0 1-.263-.778.551.551 0 0 1 .757-.241c.762.396 3.563 1.672 3.563 1.672a.52.52 0 0 1 .279.703.583.583 0 0 1-.527.342.533.533 0 0 1-.206-.041Zm81.885 2.848c-.288-.811-1.473-3.652-1.473-3.652a.516.516 0 0 1 .279-.7c.28-.121.615 0 .743.275.344.752 1.507 3.665 1.507 3.665a.595.595 0 0 1-.34.75.535.535 0 0 1-.195.037.557.557 0 0 1-.521-.375Zm-81.009-.852c-.78-.279-3.679-1.475-3.679-1.475a.596.596 0 0 1-.301-.763.546.546 0 0 1 .739-.279c.785.357 3.646 1.49 3.646 1.49a.524.524 0 0 1 .314.691.584.584 0 0 1-.537.367.553.553 0 0 1-.182-.031Zm79.991 2.892c-.248-.824-1.29-3.721-1.29-3.721a.514.514 0 0 1 .312-.687.569.569 0 0 1 .724.312c.309.77 1.324 3.738 1.324 3.738a.592.592 0 0 1-.374.729.526.526 0 0 1-.172.029.55.55 0 0 1-.524-.4Zm-68.562 1.861c-1.458-2.001-.664-3.829.754-4.861 1.322-.963 3.318-1.279 4.783.729.655.901 1.246 2.252.137 3.522l-1.015-.969c.589-.763.191-1.528-.053-1.862-.344-.473-.853-.872-1.552-.864-.522.012-.995.265-1.413.568-.799.581-1.708 1.681-.758 2.984.475.652 1.209.912 1.416.977l.677-.496-.929-1.281.913-.663 1.755 2.413-2.151 1.566c-.545-.1-1.746-.638-2.564-1.763Zm-10.452-2.803c-.794-.239-3.749-1.291-3.749-1.291a.597.597 0 0 1-.339-.748.553.553 0 0 1 .729-.315c.799.32 3.712 1.308 3.712 1.308a.52.52 0 0 1 .346.675.578.578 0 0 1-.699.371Zm77.891 2.927c-.209-.833-1.105-3.78-1.105-3.78a.52.52 0 0 1 .347-.672.57.57 0 0 1 .708.349c.27.785 1.139 3.799 1.139 3.799a.595.595 0 0 1-.409.71.55.55 0 0 1-.68-.406Zm-19.23-.433 3.319-3.865.857.737-2.42 2.817 1.123.966 2.253-2.619.859.737-2.252 2.62 1.371 1.18 2.502-2.91.858.736-3.404 3.96-5.066-4.359Zm-57.591-.596c-.802-.197-3.804-1.1-3.804-1.1a.593.593 0 0 1-.375-.73.546.546 0 0 1 .708-.352c.815.276 3.775 1.12 3.775 1.12a.521.521 0 0 1 .379.657.583.583 0 0 1-.683.405Zm75.603 2.959c-.167-.845-.915-3.832-.915-3.832a.517.517 0 0 1 .376-.656.575.575 0 0 1 .693.385c.229.795.945 3.853.945 3.853a.593.593 0 0 1-.441.689.551.551 0 0 1-.658-.439Zm-74.435-1.114c-.812-.159-3.858-.91-3.858-.91a.593.593 0 0 1-.407-.711.55.55 0 0 1 .691-.388c.828.236 3.823.931 3.823.931.296.058.479.34.409.637a.578.578 0 0 1-.658.441Zm13.924 5.106c-2.162-1.797-1.081-3.095-.097-4.281l2.28-2.742 1.064.885-2.313 2.777c-.506.61-.714.861-.783 1.216-.107.531.236.962.559 1.23 1.02.848 1.538.224 2.266-.652l2.359-2.835 1.06.882-2.244 2.7c-.763.918-1.222 1.399-1.803 1.571-.172.05-.34.073-.505.073-.716 0-1.364-.424-1.843-.824Zm59.196-2.127c-.125-.854-.619-3.425-.723-3.875a.523.523 0 0 1 .408-.637.576.576 0 0 1 .672.421c.188.806.755 3.893.755 3.893a.594.594 0 0 1-.571.676.55.55 0 0 1-.541-.478Zm-21.537-.523 4.109-3.014.668.909-2.993 2.197.876 1.196 2.787-2.043.668.91-2.785 2.046 1.07 1.46 3.097-2.272.67.909-4.209 3.091-3.958-5.389Zm-50.327-.673c-.819-.118-3.425-.611-3.896-.718a.597.597 0 0 1-.443-.691.55.55 0 0 1 .672-.42c.838.193 3.864.738 3.864.738a.524.524 0 0 1 .44.618.584.584 0 0 1-.637.473Zm70.459 2.991a88.638 88.638 0 0 0-.531-3.903.52.52 0 0 1 .44-.618.576.576 0 0 1 .65.453c.148.815.562 3.928.562 3.928a.596.596 0 0 1-.571.648.552.552 0 0 1-.55-.508Zm-69.115-1.272c-.825-.079-3.451-.441-3.925-.523a.594.594 0 0 1-.476-.669.548.548 0 0 1 .649-.454c.847.151 3.896.547 3.896.547a.52.52 0 0 1 .466.596.576.576 0 0 1-.567.505l-.043-.002Zm67.622 2.998a86.258 86.258 0 0 0-.336-3.926.52.52 0 0 1 .47-.594c.3-.033.584.181.624.484.107.82.368 3.949.368 3.949a.596.596 0 0 1-.539.62l-.032.001a.552.552 0 0 1-.555-.534Zm-24.221-1.438 4.973-2.227.462 1.032-1.857.83 2.272 5.071-1.262.565-2.271-5.071-1.854.831-.463-1.031Zm-28.76 2.544 5.437-4.721 1.306.67-.607 7.203-1.348-.693.161-1.617-2.439-1.255-1.194 1.087-1.316-.674Zm51.406.54c.006-.855-.096-3.467-.143-3.934a.522.522 0 0 1 .499-.574.57.57 0 0 1 .599.515c.067.826.172 3.966.172 3.966a.59.59 0 0 1-.571.59h-.001a.549.549 0 0 1-.555-.563Zm-64.62-2.996a87.625 87.625 0 0 1-3.946-.327.595.595 0 0 1-.509-.646.55.55 0 0 1 .624-.483c.858.107 3.92.353 3.92.353a.518.518 0 0 1 .494.572.57.57 0 0 1-.569.531h-.014Zm21.21 6.228 1.646-6.479 2.825.718c.997.253 1.296.434 1.484.55.699.476.826 1.297.666 1.932-.179.707-.7 1.242-1.418 1.335a2.538 2.538 0 0 1-.793.009l-.005.019c.479.45.68.753 1.085 1.962l.487 1.474-1.608-.41-.608-1.657c-.512-1.375-.566-1.522-1.467-1.749l-.27-.07-.687 2.706-1.337-.34Zm42.28-1.076a.55.55 0 0 1-.528-.588c.053-.851.08-3.465.058-3.936a.517.517 0 0 1 .522-.548c.3-.002.563.239.573.546.031.828-.025 3.968-.025 3.968a.582.582 0 0 1-.566.559l-.034-.001Zm-22.557-.383-.916-4.368 1.256-.263 1.373 6.541-1.362.287-3.58-3.705-.019.006.894 4.265-1.259.265-1.372-6.542 1.316-.278 3.65 3.797.019-.005Zm-43.384-3.323a.594.594 0 0 1-.538-.621.547.547 0 0 1 .6-.513c.86.066 3.931.158 3.931.158a.527.527 0 0 1 .525.546.573.573 0 0 1-.556.56l-.121.001c-.945 0-3.389-.09-3.841-.131Zm30.897 6.473 2.817-6.626 1.47.03 2.612 6.742-1.517-.032-.563-1.525-2.744-.058-.596 1.502-1.479-.033Zm33.282-1.259a.552.552 0 0 1-.502-.613c.103-.841.256-3.453.256-3.927a.521.521 0 0 1 .55-.522.577.577 0 0 1 .549.572c-.012.834-.224 3.964-.224 3.964a.584.584 0 0 1-.629.526Zm-58.659-4.691c.304-.017.537.224.556.518a.575.575 0 0 1-.532.587c-.833.056-3.492.09-3.961.069a.597.597 0 0 1-.569-.593.55.55 0 0 1 .573-.544c.152.004.372.006.633.006 1.216 0 3.3-.043 3.3-.043Zm56.823 6.11a.547.547 0 0 1-.467-.638c.145-.828.429-3.433.449-3.905a.52.52 0 0 1 .575-.496.574.574 0 0 1 .516.599c-.047.835-.416 3.947-.416 3.947a.576.576 0 0 1-.657.493Zm-59.691-3.886a.547.547 0 0 1 .545-.572c.855-.013 3.925-.228 3.925-.228a.535.535 0 0 1 .581.485.573.573 0 0 1-.499.614c-.838.102-3.487.266-3.959.268h-.008a.593.593 0 0 1-.585-.567Zm57.79 5.213a.549.549 0 0 1-.439-.66c.191-.816.597-3.41.647-3.878a.52.52 0 0 1 .595-.468.573.573 0 0 1 .487.622c-.085.84-.611 3.927-.611 3.927a.577.577 0 0 1-.679.457Zm-56.075-3.652a.547.547 0 0 1 .517-.598c.853-.05 3.908-.423 3.908-.423.293-.04.56.163.604.456a.57.57 0 0 1-.469.637c-.833.15-3.468.444-3.94.465a.595.595 0 0 1-.62-.537Zm54.105 4.882a.552.552 0 0 1-.405-.681c.235-.806.842-3.838.842-3.838a.522.522 0 0 1 .617-.44.576.576 0 0 1 .457.647c-.126.837-.807 3.891-.807 3.891a.57.57 0 0 1-.562.438.633.633 0 0 1-.142-.017Zm-52.314-3.408a.547.547 0 0 1 .485-.622c.847-.09 3.883-.613 3.883-.613a.534.534 0 0 1 .629.42.574.574 0 0 1-.435.66c-.832.197-3.445.611-3.916.663a.596.596 0 0 1-.646-.508Zm50.289 4.539a.549.549 0 0 1-.37-.7c.273-.795 1.032-3.789 1.032-3.789a.522.522 0 0 1 .636-.41.575.575 0 0 1 .425.671c-.164.828-.998 3.844-.998 3.844a.573.573 0 0 1-.557.408.604.604 0 0 1-.168-.024Zm-48.427-3.154a.547.547 0 0 1 .455-.645c.835-.13 3.846-.807 3.846-.807a.529.529 0 0 1 .647.388.57.57 0 0 1-.401.681c-.817.234-3.878.858-3.878.858a.596.596 0 0 1-.669-.475Zm46.346 4.183a.544.544 0 0 1-.33-.718c.307-.782 1.217-3.732 1.217-3.732a.521.521 0 0 1 .657-.376.575.575 0 0 1 .391.689c-.207.821-1.189 3.792-1.189 3.792a.577.577 0 0 1-.55.377.6.6 0 0 1-.196-.032Zm-44.42-2.894a.55.55 0 0 1 .426-.667c.825-.166 3.799-.996 3.799-.996.283-.08.585.061.667.352a.578.578 0 0 1-.366.703c-.805.274-3.834 1.052-3.834 1.052a.599.599 0 0 1-.692-.444Zm42.29 3.817a.55.55 0 0 1-.296-.734c.348-.766 1.403-3.666 1.403-3.666a.53.53 0 0 1 .677-.342.57.57 0 0 1 .353.708c-.243.809-1.373 3.729-1.373 3.729a.58.58 0 0 1-.539.348.608.608 0 0 1-.225-.043Zm-40.3-2.624a.548.548 0 0 1 .39-.687c.821-.208 3.744-1.185 3.744-1.185.283-.099.592.03.688.317a.57.57 0 0 1-.332.718c-.787.315-3.776 1.246-3.776 1.246a.555.555 0 0 1-.145.019.605.605 0 0 1-.569-.428Zm38.128 3.439a.548.548 0 0 1-.258-.748c.385-.748 1.585-3.59 1.585-3.59a.53.53 0 0 1 .693-.308.577.577 0 0 1 .317.725c-.285.8-1.562 3.657-1.562 3.657a.585.585 0 0 1-.527.319.57.57 0 0 1-.248-.055Zm-36.079-2.349a.552.552 0 0 1 .355-.707c.806-.245 3.681-1.367 3.681-1.367a.525.525 0 0 1 .702.282.573.573 0 0 1-.299.733c-.771.351-3.704 1.429-3.704 1.429a.534.534 0 0 1-.179.03.6.6 0 0 1-.556-.4Zm33.869 3.054a.546.546 0 0 1-.222-.759c.421-.73 1.764-3.508 1.764-3.508.126-.265.433-.401.707-.269a.569.569 0 0 1 .282.738c-.325.787-1.743 3.572-1.743 3.572a.593.593 0 0 1-.788.226Zm-31.768-2.065a.544.544 0 0 1 .32-.723c.79-.285 3.607-1.551 3.607-1.551a.521.521 0 0 1 .715.242.58.58 0 0 1-.259.751c-.755.389-3.633 1.614-3.633 1.614a.559.559 0 0 1-.206.04.6.6 0 0 1-.544-.373Zm29.522 2.658a.548.548 0 0 1-.181-.769c.458-.707 1.938-3.416 1.938-3.416a.531.531 0 0 1 .72-.233.573.573 0 0 1 .243.753c-.363.771-1.918 3.481-1.918 3.481a.596.596 0 0 1-.802.184Zm-27.376-1.776a.546.546 0 0 1 .282-.738c.776-.323 3.526-1.731 3.526-1.731a.52.52 0 0 1 .727.206.572.572 0 0 1-.223.76c-.731.427-3.544 1.794-3.544 1.794a.536.536 0 0 1-.235.055.602.602 0 0 1-.533-.346Zm25.107 2.257a.549.549 0 0 1-.144-.78c.493-.684 2.108-3.313 2.108-3.313a.532.532 0 0 1 .73-.195.576.576 0 0 1 .207.764c-.401.751-2.092 3.377-2.092 3.377a.593.593 0 0 1-.809.147Zm-22.919-1.483a.554.554 0 0 1 .247-.754c.756-.36 3.431-1.905 3.431-1.905a.52.52 0 0 1 .739.17.575.575 0 0 1-.185.771c-.709.461-3.45 1.969-3.45 1.969a.55.55 0 0 1-.261.066.599.599 0 0 1-.521-.317Zm20.626 1.848a.55.55 0 0 1-.106-.783c.53-.66 2.274-3.208 2.274-3.208a.532.532 0 0 1 .737-.156.57.57 0 0 1 .17.773c-.438.73-2.261 3.271-2.261 3.271a.582.582 0 0 1-.46.218.592.592 0 0 1-.354-.115ZM66.641 99.17a.55.55 0 0 1 .208-.765c.738-.395 3.332-2.074 3.332-2.074a.516.516 0 0 1 .745.132c.169.251.107.6-.144.776-.684.498-3.345 2.141-3.345 2.141a.554.554 0 0 1-.288.081.596.596 0 0 1-.508-.291Zm16.096 1.438a.546.546 0 0 1-.064-.787c.557-.632 2.427-3.088 2.427-3.088a.53.53 0 0 1 .746-.122c.242.18.302.528.13.78-.474.708-2.423 3.153-2.423 3.153a.571.571 0 0 1-.44.198.59.59 0 0 1-.376-.134Zm-13.839-.89a.544.544 0 0 1 .169-.772c.717-.434 3.223-2.241 3.223-2.241a.52.52 0 0 1 .752.093.574.574 0 0 1-.107.786c-.656.532-3.235 2.306-3.235 2.306a.552.552 0 0 1-.309.094.594.594 0 0 1-.493-.266Zm11.525 1.027a.548.548 0 0 1-.028-.791c.589-.6 2.58-2.962 2.58-2.962a.529.529 0 0 1 .751-.085.574.574 0 0 1 .089.785c-.508.683-2.571 3.031-2.571 3.031a.6.6 0 0 1-.821.022Zm-9.247-.592a.549.549 0 0 1 .131-.78c.694-.469 3.109-2.398 3.109-2.398a.52.52 0 0 1 .755.056.574.574 0 0 1-.066.788c-.634.563-3.119 2.465-3.119 2.465a.545.545 0 0 1-.332.112.597.597 0 0 1-.478-.243Zm6.927.615a.548.548 0 0 1 .014-.79c.617-.57 2.723-2.835 2.723-2.835.197-.214.531-.254.754-.048.22.203.248.555.049.79-.542.654-2.719 2.899-2.719 2.899a.552.552 0 0 1-.394.16.611.611 0 0 1-.427-.176Zm-4.628-.296a.548.548 0 0 1 .092-.786c.669-.501 2.983-2.549 2.983-2.549a.524.524 0 0 1 .758.021.574.574 0 0 1-.024.791c-.606.596-2.994 2.615-2.994 2.615a.543.543 0 0 1-.353.128.603.603 0 0 1-.462-.22Zm2.313.207a.544.544 0 0 1 .05-.79c.643-.537 2.855-2.697 2.855-2.697a.53.53 0 0 1 .759-.013.574.574 0 0 1 .012.792c-.575.626-2.86 2.759-2.86 2.759a.542.542 0 0 1-.373.145.6.6 0 0 1-.443-.196Zm-.818-81.125c-1.517.163-1.686 1.507-1.579 2.482.079.751.299 1.16.486 1.412.265.366.782.759 1.588.672.701-.074 1.775-.577 1.569-2.498-.078-.711-.402-2.082-1.807-2.082-.082 0-.168.005-.257.014Zm27.939 12.17.931 1.121c.295.35.778.842 1.322.387.229-.189.372-.514.224-.838-.081-.187-.183-.31-.802-1.05l-.5-.597-1.175.977Zm-48.927 2.784 1.145-1.414-2.507-.848 1.362 2.262Zm46.706-.932.796.957c.182.222.545.655.733.766.45.265.788.057.948-.075.702-.586.173-1.22-.429-1.943l-.695-.833-1.353 1.128Zm-22.881 1.943-2.779.139 2.167 1.75-.727 2.683 2.329-1.522 2.331 1.522-.726-2.683 2.164-1.75-2.778-.139-.991-2.601-.99 2.601Zm9.533 2.273-1.982-1.015.803 2.077-1.578 1.57 2.226-.121 1.005 1.986.571-2.152 2.2-.343-1.872-1.209.355-2.198-1.728 1.405Zm-18.461.793-1.869 1.209 2.202.343.567 2.153 1.006-1.985 2.227.119-1.579-1.57.802-2.077-1.981 1.015-1.726-1.405.351 2.198Zm-20.897.29-.268.54 3.973 1.953.444-.9c.455-.925.766-1.683-1.163-2.631-.611-.301-1.074-.43-1.439-.43-.825 0-1.148.658-1.547 1.468Zm58.079-.343.828 1.621 1.794-1.949-2.622.328Zm24.153 1.315 3.057 1.57-3.514 4.866 4.844 3.545-4.224 4.258 4.224 4.254-4.844 3.54 3.514 4.87-3.06 1.573h26.75L141.74 54.081l15.218-14.234h-26.744ZM0 39.847l15.216 14.245L.001 68.323H26.75l-3.062-1.573 3.51-4.87-4.841-3.54 4.23-4.254-4.23-4.258 4.841-3.545-3.51-4.866 3.059-1.57H0Zm87.107 22.366h2.216l9.081-17.151-2.13-.102-9.167 17.253Zm-.238-16.589c-.618.494-.924 1.191-.924 2.091v3.181c0 .76.268 1.41.807 1.947.537.54 1.175.81 1.914.81.915 0 1.666-.234 2.257-.701.593-.47.888-1.154.888-2.056v-3.181c0-.758-.267-1.406-.794-1.946-.528-.539-1.162-.809-1.903-.809-.916 0-1.663.223-2.245.664Zm1.031 4.798v-2.313c0-.902.311-1.354.938-1.354.68 0 1.017.452 1.017 1.354v2.313c0 .904-.313 1.355-.939 1.355-.675 0-1.016-.451-1.016-1.355Zm-8.138-4.906c-1.091 0-2.025.387-2.8 1.16-.774.773-1.163 1.705-1.163 2.796v9.022c0 1.089.389 2.022 1.163 2.796.775.773 1.709 1.161 2.8 1.161h.687c1.073 0 2.002-.388 2.788-1.161.783-.774 1.176-1.707 1.176-2.796v-9.022c0-1.091-.393-2.023-1.176-2.796-.786-.773-1.715-1.16-2.788-1.16h-.687Zm-1.321 12.268v-7.682c0-1.473.626-2.209 1.876-2.209.615 0 1.029.237 1.243.709.139.301.211.798.211 1.5v7.682c0 1.474-.54 2.209-1.612 2.209-1.147 0-1.718-.735-1.718-2.209Zm-8.984-12.268a3.821 3.821 0 0 0-2.8 1.16c-.775.773-1.161 1.705-1.161 2.796v9.022c0 1.089.386 2.022 1.161 2.796.774.773 1.709 1.161 2.8 1.161h.689c1.074 0 2.002-.388 2.787-1.161.782-.774 1.177-1.707 1.177-2.796v-9.022c0-1.091-.395-2.023-1.177-2.796-.785-.773-1.713-1.16-2.787-1.16h-.689Zm-1.321 12.268v-7.682c0-1.473.627-2.209 1.878-2.209.617 0 1.03.237 1.241.709.141.301.21.798.21 1.5v7.682c0 1.474-.538 2.209-1.609 2.209-1.146 0-1.72-.735-1.72-2.209Zm-7.184-11.952-2.694 2.484v3.222l2.694-2.668v13.343h2.746V45.806l-2.746.026Zm-15.771 1.867c-.097.595.433.898 2.193 1.182 1.752.28 2.347.16 2.446-.436.096-.605-.442-.911-2.185-1.19-.593-.095-1.055-.144-1.411-.144-.693 0-.979.188-1.043.588Zm49.852 6.508c-.616.494-.924 1.182-.924 2.061v3.197c0 .74.266 1.382.792 1.929.531.546 1.161.819 1.901.819.915 0 1.671-.234 2.274-.703.599-.465.899-1.148.899-2.045v-3.197c0-.741-.269-1.383-.808-1.929-.536-.546-1.175-.82-1.915-.82-.915 0-1.655.23-2.219.688Zm1.029 4.782v-2.298c0-.899.313-1.348.938-1.348.681 0 1.017.449 1.017 1.348v2.298c0 .898-.311 1.347-.935 1.347-.678 0-1.02-.449-1.02-1.347Zm-9.253 9.06-2.225-.121 1.577 1.571-.8 2.077 1.979-1.014 1.728 1.404-.353-2.199 1.87-1.209-2.2-.342-.571-2.152-1.005 1.985Zm-17.597.167-2.202.344 1.871 1.207-.353 2.199 1.728-1.404 1.979 1.014-.802-2.076 1.579-1.572-2.224.123-1.004-1.987-.572 2.152Zm9.585 1.566-2.329-1.52.727 2.687-2.167 1.749 2.779.137.99 2.6.991-2.6 2.779-.14-2.165-1.746.729-2.687-2.334 1.52ZM63.062 84.911l1.674.86.291-2.643-1.965 1.783Zm6.883 1.599.992.252c.411.104.982.248 1.232.226.503-.036.656-.44.703-.631.069-.26.04-.537-.176-.747-.214-.209-.379-.25-1.281-.481l-1.054-.265-.416 1.646Zm7.471 2.497 1.88.042-.899-2.503-.981 2.461Z" clip-rule="evenodd"/>
  </g>
  <defs>
    <linearGradient id="b" x1="31.566" x2="95.455" y1="98.259" y2="-28.404" gradientUnits="userSpaceOnUse">
      <stop stop-color="#F4A32F"/>
      <stop offset="1" stop-color="#FFC167"/>
    </linearGradient>
  </defs>
</svg>
