<svg xmlns="http://www.w3.org/2000/svg" width="160" height="40" fill="none" viewBox="0 0 160 40">
  <path fill="#fff" d="M19.333 40a15.201 15.201 0 0 1-15.2-14.445v-.03a3.625 3.625 0 0 1-3.063-2.708c-.425-1.663-.998-4.15-1.068-6.538a3.4 3.4 0 0 1 2.016-3.216c1.241-.556 3.01-1.01 5.24-1.357 1.248-2.883 2.72-5.39 4.278-7.28C13.962 1.49 16.585 0 19.333 0c2.749 0 5.37 1.49 7.791 4.427 1.552 1.89 3.03 4.393 4.275 7.27 2.215.335 3.982.793 5.257 1.36a3.396 3.396 0 0 1 2.016 3.21c-.068 2.402-.642 4.889-1.067 6.55a3.626 3.626 0 0 1-3.066 2.71v.027a15.224 15.224 0 0 1-15.212 14.444l.006.002Z"/>
  <path fill="#FCFBFA" d="M19.324 2.53c7.042 0 12.752 15.138 12.752 22.181a12.753 12.753 0 0 1-25.505 0c.001-7.043 5.711-22.18 12.753-22.18Z"/>
  <path fill="#252526" d="m35.494 14.747-5.203 1.835s.805 2.448.813 2.466c.008.019 5.182-.667 5.182-.667l-.792-3.634Zm-32.339 0 5.203 1.835s-.805 2.448-.813 2.466c-.008.019-5.182-.667-5.182-.667l.792-3.634Z"/>
  <path fill="#E0E0E0" d="M13.97 14.312a1.622 1.622 0 0 1 1.64 1.365c.165.886.274 1.782.326 2.682.005.252-.018.504-.068.75a21.614 21.614 0 0 0-.256-1.802 1.622 1.622 0 0 0-1.64-1.365c-1.955.02-3.907.168-5.843.444.183-.57.38-1.14.591-1.706a44.136 44.136 0 0 1 5.25-.368Zm18.082 9.832c-4.593-.237-8.515-1.706-9.401-2.232-.69-.33-1.571-1.03-1.824-2.78-.17 1.929.194 3.685 2.004 4.552.133.08 3.598 1.794 9.19 2.09a12.654 12.654 0 0 0 .031-1.63Zm-25.442 0c4.592-.237 8.515-1.706 9.4-2.232.69-.33 1.572-1.03 1.824-2.78.17 1.929-.193 3.685-2.003 4.552-.134.08-3.6 1.794-9.19 2.09a12.667 12.667 0 0 1-.032-1.63Zm18.054-9.832a1.622 1.622 0 0 0-1.64 1.365 21.376 21.376 0 0 0-.325 2.682c-.005.252.018.504.068.75.065-.648.155-1.265.256-1.802a1.622 1.622 0 0 1 1.64-1.365c1.955.02 3.907.168 5.843.444-.183-.57-.38-1.14-.591-1.706a44.135 44.135 0 0 0-5.25-.368Z"/>
  <path fill="#56555C" d="M8.17 12.933c1.252-3.037 2.755-5.665 4.343-7.6 2.164-2.625 4.455-3.956 6.808-3.956 2.353 0 4.644 1.33 6.808 3.954 1.595 1.932 3.102 4.56 4.343 7.6l.06.155-.155-.021c-.442-.06-.801-.101-1.24-.156h-.055l-.021-.05c-1.409-3.288-3.813-7.583-6.92-9.377a5.623 5.623 0 0 0-2.82-.82 5.623 5.623 0 0 0-2.82.82c-3.099 1.791-5.497 6.066-6.916 9.373l-.022.05H9.51c-.442.046-.802.09-1.241.155l-.155.022.057-.15Zm24.028 9.623c-.346-.01-.695-.024-1.037-.044h-.107l-.014-.107c-.31-2.418-1.005-5.249-1.97-7.97l-.062-.203.21.028c.393.053.775.112 1.147.174l.076.013.025.072c.93 2.716 1.59 5.52 1.872 7.892l.017.155-.157-.01Z"/>
  <path fill="#252526" d="M31.061 16.43a46.148 46.148 0 0 0-.603-1.91l-.025-.072-.076-.012a33.035 33.035 0 0 0-1.148-.174l-.201-.03.07.199c.214.603.414 1.211.6 1.821.662.076 1.036.13 1.383.178Z"/>
  <path fill="#56555C" d="M6.405 22.358c.282-2.373.947-5.176 1.872-7.892l.025-.073.076-.014c.366-.062.752-.12 1.147-.173l.21-.028-.07.198c-.963 2.72-1.663 5.55-1.97 7.97l-.014.107h-.107c-.344.02-.693.034-1.038.043h-.155l.024-.138Z"/>
  <path fill="#252526" d="m8.378 14.38-.076.012-.025.073a46.173 46.173 0 0 0-.603 1.912c.647-.082.834-.073 1.376-.13.19-.62.395-1.252.62-1.87l.07-.2-.21.029c-.4.054-.786.113-1.152.173Z"/>
  <path fill="#56555C" d="M19.324 38.609a13.905 13.905 0 0 1-12.938-8.807 14.078 14.078 0 0 1-.955-5.66v-.087h.086c.453-.01.764-.023 1.086-.04h.101v.1a12.626 12.626 0 0 0 21.719 9.344 12.505 12.505 0 0 0 2.66-4.166 12.65 12.65 0 0 0 .842-5.176v-.1h.1c.452.023.763.032 1.087.04h.087v.086a14.08 14.08 0 0 1-.934 5.656 13.892 13.892 0 0 1-12.938 8.812l-.003-.002Z"/>
  <path fill="#252526" d="M6.747 25.774a13.684 13.684 0 0 1-.034-1.665v-.101h-.1c-.326.017-.636.03-1.086.04H5.44v.087c-.02.557-.007 1.115.037 1.67h.042c.419 0 .828-.018 1.218-.037l.01.006Zm26.463-1.719h-.087c-.33 0-.64-.017-1.086-.04h-.101v.1c.022.55.011 1.102-.033 1.65l1.272.055c.044-.556.057-1.113.038-1.67l-.004-.095Z"/>
  <path fill="#252526" d="M33.926 24.338c-2.659.01-5.307-.33-7.877-1.01a19.002 19.002 0 0 1-3.218-1.169l-.025-.018c-2.172-1.038-2.25-3.12-2.05-5.017.052-.48-.123-1.113-.629-1.45a1.434 1.434 0 0 0-1.591 0c-.506.335-.681.968-.63 1.446.202 1.898.116 3.98-2.049 5.017l-.025.013c-1.035.49-2.112.885-3.218 1.18a30.273 30.273 0 0 1-7.877 1.012h-.012a2.429 2.429 0 0 1-2.327-1.838c-.413-1.594-.962-3.98-1.025-6.217A2.207 2.207 0 0 1 2.679 14.2c2.99-1.326 9.043-1.825 11.624-1.791a3.334 3.334 0 0 1 2.398.991 6.445 6.445 0 0 1 2.637-.608 6.44 6.44 0 0 1 2.636.607 3.325 3.325 0 0 1 2.38-.99c1.551-.023 8.22.265 11.633 1.784a2.198 2.198 0 0 1 1.306 2.077c-.063 2.242-.62 4.64-1.019 6.23a2.429 2.429 0 0 1-2.326 1.838h-.022Zm-9.246-9.927a1.536 1.536 0 0 0-1.551 1.29 21.424 21.424 0 0 0-.326 2.669c-.013 1.023.355 1.725 1.086 2.083 2.734 1.22 5.912 1.823 9.716 1.841a.645.645 0 0 0 .62-.48c.362-1.414.849-3.514.904-5.445a.453.453 0 0 0-.27-.43c-2.594-1.166-8.154-1.565-10.18-1.534v.006ZM3.788 15.936a.453.453 0 0 0-.27.43c.056 1.926.543 4.033.904 5.444a.642.642 0 0 0 .62.481c3.807-.019 6.98-.62 9.725-1.843.732-.357 1.098-1.06 1.085-2.086a21.262 21.262 0 0 0-.327-2.666 1.536 1.536 0 0 0-1.551-1.29c-1.18-.018-7.248.22-10.186 1.53Z"/>
  <path fill="#FFFFFB" d="M56.067 22.94a5.13 5.13 0 0 1-.712 1.51 5.217 5.217 0 0 1-1.187 1.24 5.706 5.706 0 0 1-1.636.838 6.486 6.486 0 0 1-2.062.31 6.758 6.758 0 0 1-2.423-.437 5.865 5.865 0 0 1-2.016-1.285 6.167 6.167 0 0 1-1.387-2.074 7.127 7.127 0 0 1-.512-2.774 6.889 6.889 0 0 1 .5-2.672 6.225 6.225 0 0 1 1.337-2.037 6.003 6.003 0 0 1 1.936-1.3 5.81 5.81 0 0 1 2.274-.465c1.915 0 3.405.569 4.471 1.706 1.067 1.138 1.596 2.692 1.59 4.664 0 .234-.008.455-.025.663a8.254 8.254 0 0 0-.024.361h-8.794c.014.387.111.767.287 1.112a3.043 3.043 0 0 0 1.636 1.475c.376.144.774.216 1.175.213.783 0 1.395-.175 1.837-.524.44-.35.774-.818.961-1.35l2.774.825Zm-3.103-4.023a3.01 3.01 0 0 0-.187-.887 2.14 2.14 0 0 0-.5-.776 2.579 2.579 0 0 0-.85-.549 3.152 3.152 0 0 0-1.211-.212 2.777 2.777 0 0 0-1.15.225 2.831 2.831 0 0 0-.85.575 2.545 2.545 0 0 0-.75 1.63l5.498-.006Zm7.554 7.421c.1.651.43 1.245.93 1.674.5.432 1.15.648 1.95.65 1.048 0 1.855-.271 2.422-.812.567-.54.85-1.41.85-2.61v-.9a3.38 3.38 0 0 1-1.224 1.086c-.567.325-1.3.487-2.198.487a5.705 5.705 0 0 1-2.274-.45 5.417 5.417 0 0 1-1.811-1.249 5.88 5.88 0 0 1-1.2-1.886 6.615 6.615 0 0 1-.012-4.697 6.128 6.128 0 0 1 1.174-1.91 5.43 5.43 0 0 1 1.793-1.296 5.57 5.57 0 0 1 2.327-.474c.982 0 1.758.175 2.327.524.569.35.96.733 1.174 1.15V14.17h3.197v10.966a8.138 8.138 0 0 1-.363 2.436 5.428 5.428 0 0 1-3.135 3.473c-.816.357-1.798.536-2.947.536a6.98 6.98 0 0 1-2.311-.361 6.197 6.197 0 0 1-1.818-.974 5.062 5.062 0 0 1-1.249-1.424 4.609 4.609 0 0 1-.598-1.679l2.996-.806Zm3.298-3.273a2.757 2.757 0 0 0 2.086-.85c.54-.566.811-1.324.811-2.274s-.282-1.703-.848-2.258a2.815 2.815 0 0 0-2.05-.838 3.131 3.131 0 0 0-1.16.213 2.65 2.65 0 0 0-.932.62c-.27.284-.481.62-.62.986a3.49 3.49 0 0 0-.225 1.274c0 .966.275 1.728.824 2.286a2.85 2.85 0 0 0 2.114.841Zm10.673 3.273c.1.651.43 1.245.93 1.674.5.432 1.15.648 1.949.65 1.048 0 1.856-.271 2.423-.812.566-.54.85-1.41.85-2.61v-.9a3.38 3.38 0 0 1-1.224 1.086c-.567.325-1.3.487-2.198.487a5.706 5.706 0 0 1-2.274-.45 5.42 5.42 0 0 1-1.812-1.249 5.883 5.883 0 0 1-1.199-1.886 6.616 6.616 0 0 1-.012-4.697 6.128 6.128 0 0 1 1.174-1.91 5.43 5.43 0 0 1 1.792-1.296 5.57 5.57 0 0 1 2.326-.474c.983 0 1.758.175 2.327.524.569.35.96.733 1.174 1.15V14.17h3.197v10.966a8.138 8.138 0 0 1-.363 2.436 5.428 5.428 0 0 1-3.135 3.473c-.816.357-1.798.536-2.947.536a6.98 6.98 0 0 1-2.311-.361 6.197 6.197 0 0 1-1.816-.974 5.062 5.062 0 0 1-1.249-1.424 4.612 4.612 0 0 1-.6-1.679l2.998-.806Zm3.298-3.273a2.756 2.756 0 0 0 2.086-.85c.54-.566.811-1.324.811-2.274s-.283-1.703-.85-2.258a2.814 2.814 0 0 0-2.049-.838 3.134 3.134 0 0 0-1.159.217 2.65 2.65 0 0 0-.93.62c-.271.285-.482.62-.62.987a3.47 3.47 0 0 0-.226 1.274c0 .965.275 1.728.824 2.286a2.85 2.85 0 0 0 2.111.836h.002Zm11.073 3.397h-2.976V8.376h2.976v6.825a3.31 3.31 0 0 1 1.524-1.036 5.601 5.601 0 0 1 1.799-.31 4.931 4.931 0 0 1 2.035.387c.545.237 1.031.59 1.424 1.036.385.453.67.981.837 1.551.186.616.278 1.256.275 1.9v7.733h-3.323v-7.17a2.792 2.792 0 0 0-.536-1.747c-.358-.467-.937-.7-1.736-.7-.7 0-1.25.23-1.649.687a2.719 2.719 0 0 0-.65 1.706v7.224Zm21.204-3.522a5.158 5.158 0 0 1-.712 1.51 5.238 5.238 0 0 1-1.187 1.24 5.71 5.71 0 0 1-1.636.838 6.487 6.487 0 0 1-2.062.31 6.761 6.761 0 0 1-2.423-.437 5.869 5.869 0 0 1-2.016-1.285 6.167 6.167 0 0 1-1.387-2.074 7.125 7.125 0 0 1-.512-2.774 6.887 6.887 0 0 1 .5-2.672 6.226 6.226 0 0 1 1.337-2.037 6.005 6.005 0 0 1 1.936-1.3 5.809 5.809 0 0 1 2.274-.465c1.915 0 3.405.569 4.471 1.706 1.067 1.138 1.597 2.692 1.592 4.664 0 .234-.008.455-.025.663a9.724 9.724 0 0 0-.025.361h-8.795c.014.387.112.767.287 1.112a3.035 3.035 0 0 0 1.637 1.475c.375.144.773.216 1.174.213.783 0 1.395-.175 1.837-.524a2.99 2.99 0 0 0 .961-1.35l2.774.825Zm-3.098-4.017a2.998 2.998 0 0 0-.188-.887 2.136 2.136 0 0 0-.499-.775 2.574 2.574 0 0 0-.85-.55 3.153 3.153 0 0 0-1.211-.212 2.78 2.78 0 0 0-1.998.796 2.538 2.538 0 0 0-.749 1.624l5.495.005Zm4.376 4.187a3.402 3.402 0 0 1 1.073-2.572c.338-.32.731-.574 1.162-.75a6.376 6.376 0 0 1 1.436-.4l3.023-.45c.35-.05.591-.153.725-.31a.846.846 0 0 0 .2-.563 1.482 1.482 0 0 0-.512-1.125c-.342-.316-.862-.474-1.562-.474-.733 0-1.295.2-1.686.598a2.255 2.255 0 0 0-.663 1.396l-2.947-.62a4.06 4.06 0 0 1 .45-1.449 4.466 4.466 0 0 1 1.024-1.3 5.165 5.165 0 0 1 1.599-.93 6.147 6.147 0 0 1 2.198-.363 7.004 7.004 0 0 1 2.472.388c.62.216 1.187.562 1.663 1.014.422.416.741.925.931 1.486.192.571.289 1.17.287 1.773v6.05a14.693 14.693 0 0 0 .15 1.948h-3.054a6.612 6.612 0 0 1-.087-.688 9.28 9.28 0 0 1-.037-.786c-.355.52-.82.954-1.362 1.273-.591.366-1.345.55-2.26.55a4.745 4.745 0 0 1-1.762-.31 4.214 4.214 0 0 1-1.337-.824 3.497 3.497 0 0 1-.836-1.175 3.446 3.446 0 0 1-.288-1.386Zm4.921 1.225c.342.001.682-.045 1.012-.137.32-.09.615-.252.862-.474.262-.244.467-.543.599-.875.163-.435.239-.898.225-1.362v-.548l-2.774.425a2.19 2.19 0 0 0-1.086.466c-.291.24-.437.602-.437 1.085.001.369.144.722.4.987.266.29.666.436 1.199.436v-.003Zm19.926-.095c0 .413.008.826.025 1.24.016.414.041.742.074.987h-3.166a4.318 4.318 0 0 1-.087-.6 9.204 9.204 0 0 1-.037-.824c-.32.517-.773.94-1.312 1.224a4.29 4.29 0 0 1-2.136.499 5.92 5.92 0 0 1-2.423-.487 5.592 5.592 0 0 1-1.886-1.35A6.343 6.343 0 0 1 124 22.88a7.58 7.58 0 0 1-.012-5.107 6.29 6.29 0 0 1 1.211-2.037 5.916 5.916 0 0 1 5.634-1.706c.351.082.691.206 1.013.367.253.13.485.296.688.494.156.148.287.321.388.511V8.377h3.267V24.24Zm-9.293-3.948c0 1.099.288 1.957.863 2.573a2.994 2.994 0 0 0 2.167.924 3 3 0 0 0 2.166-.924c.584-.62.875-1.487.875-2.598 0-1.1-.291-1.945-.875-2.536a3.038 3.038 0 0 0-2.157-.887 3.044 3.044 0 0 0-2.152.9c-.588.6-.882 1.45-.882 2.548h-.005Zm10.999 4.88a1.236 1.236 0 0 1 .365-.902 1.19 1.19 0 0 1 .893-.373 1.276 1.276 0 0 1 1.275 1.275 1.193 1.193 0 0 1-.374.893 1.239 1.239 0 0 1-.901.365 1.24 1.24 0 0 1-1.256-1.257l-.002-.001Zm4.179-13.398a1.814 1.814 0 1 1 3.627 0 1.814 1.814 0 0 1-3.627 0Zm.289 14.674V14.847h3.049v11.6h-3.049Zm4.639-5.818c0-3.29 2.305-6.076 6.124-6.076 3.842 0 6.147 2.792 6.147 6.075 0 3.284-2.305 6.1-6.147 6.1-3.819.006-6.124-2.803-6.124-6.1Zm9.102 0c0-1.801-1.056-3.363-2.978-3.363-1.897 0-2.947 1.56-2.947 3.362 0 1.826 1.056 3.386 2.947 3.386 1.92.007 2.978-1.555 2.978-3.386Z"/>
</svg>
