<?xml version="1.0" standalone="no"?>
<!DOCTYPE svg PUBLIC "-//W3C//DTD SVG 20010904//EN"
 "http://www.w3.org/TR/2001/REC-SVG-20010904/DTD/svg10.dtd">
<svg version="1.0" xmlns="http://www.w3.org/2000/svg"
 width="515.000000pt" height="515.000000pt" viewBox="0 0 515.000000 515.000000"
 preserveAspectRatio="xMidYMid meet">
<metadata>
Created by potrace 1.14, written by Peter Selinger 2001-2017
</metadata>
<g transform="translate(0.000000,515.000000) scale(0.100000,-0.100000)"
fill="#000000" stroke="none">
<path d="M2538 5123 c-21 -5 -30 -29 -133 -368 -136 -446 -145 -475 -175 -570
-16 -49 -33 -106 -38 -125 -6 -19 -31 -102 -57 -185 -25 -82 -77 -251 -114
-375 -93 -305 -87 -293 -152 -312 -30 -9 -92 -28 -139 -43 -47 -15 -98 -30
-115 -35 -16 -4 -133 -40 -260 -79 -126 -40 -237 -74 -245 -76 -8 -2 -109 -33
-225 -68 -116 -36 -291 -90 -390 -120 -494 -152 -485 -148 -485 -187 0 -43 33
-58 365 -160 182 -56 346 -105 365 -110 19 -4 174 -51 345 -104 282 -88 775
-240 818 -252 9 -3 22 -14 27 -24 9 -17 147 -456 215 -685 13 -44 51 -168 85
-275 33 -107 63 -206 66 -219 3 -13 10 -34 16 -45 6 -12 10 -22 9 -24 -1 -1 2
-17 8 -35 24 -83 113 -375 121 -397 5 -14 21 -64 35 -113 30 -101 54 -126 99
-106 14 7 28 19 30 28 12 40 117 384 136 446 41 132 90 291 226 735 230 755
215 711 250 716 11 2 194 58 284 87 19 6 40 12 45 14 15 3 245 74 485 148 118
36 260 80 315 96 55 17 135 42 178 56 43 14 84 26 90 27 7 1 59 17 117 36 58
18 110 35 115 36 6 1 51 15 100 29 50 15 100 30 111 32 31 7 50 47 38 80 -8
24 -33 33 -329 124 -176 54 -333 103 -350 109 -16 6 -40 13 -51 16 -12 2 -154
45 -315 95 -162 50 -307 95 -324 99 -87 24 -531 163 -538 169 -4 4 -32 88 -63
187 -105 339 -246 799 -259 844 -7 25 -56 185 -108 355 -53 171 -108 351 -123
402 -16 50 -33 98 -39 106 -12 17 -43 26 -67 20z"/>
</g>
</svg>
