<svg width="100" height="94" viewBox="0 0 100 94" fill="none" xmlns="http://www.w3.org/2000/svg">
<path d="M99.999 12.3954L78.5927 0L40.5805 22.0274L21.4748 10.9607L0.0621928 23.431L0 70.3061L40.5183 93.75L61.9373 81.3421L61.9435 62.028L78.6179 71.61L78.6615 71.5851L78.6988 71.61L100 59.2706L99.999 12.3954ZM4.70168 67.5861L4.76387 28.878L19.1241 37.1998V59.2528L38.1549 70.2946L38.186 70.3133V86.9444L4.70168 67.5861ZM21.4748 16.4071L35.8787 24.7539L35.8165 24.7914L35.8352 24.8039L35.6486 24.9099L21.4749 33.1194L7.05241 24.7663L21.4748 16.4071ZM45.2884 24.7539L78.5991 5.43985L92.8973 13.7243L59.5675 33.0128L59.5364 32.9941L45.2506 24.7783L45.2884 24.7539ZM54.8973 57.9108L40.5991 66.1952L40.5929 66.189L26.2326 57.8672L40.4747 49.6201L40.5369 49.5889L54.8973 57.9108ZM57.186 37.0876V37.1936L57.2419 37.2248V53.7569L57.186 53.7257L42.8816 45.4413L42.8878 28.8469L57.186 37.0876ZM76.2486 50.9179V64.8667L64.2766 57.9297L76.2486 50.9179Z" fill="black"/>
</svg>
