<svg xmlns="http://www.w3.org/2000/svg" width="14" height="14" fill="none" viewBox="0 0 14 14">
  <mask id="a" fill="#fff">
    <path fill-rule="evenodd" d="M2.5.99A2.5 2.5 0 000 3.49v3.717a2.5 2.5 0 002.265 2.49V13.008l.798-.594 3.641-2.708h3.874a2.5 2.5 0 002.5-2.5V3.49a2.5 2.5 0 00-2.5-2.5H2.5z" clip-rule="evenodd"/>
  </mask>
  <path fill="currentColor" d="M2.265 9.696h1v-.91L2.358 8.7l-.093.995zm0 3.313h-1v1.99L2.86 13.81l-.596-.803zm.798-.594l.597.802-.597-.802zm3.641-2.708v-1h-.33l-.266.198.596.802zM1 3.49a1.5 1.5 0 011.5-1.5v-2A3.5 3.5 0 00-1 3.49h2zm0 3.718V3.49h-2v3.718h2zm1.358 1.494A1.5 1.5 0 011 7.207h-2a3.5 3.5 0 003.172 3.485L2.358 8.7zm.907 3.313V9.696h-2v2.318h2zm0 .995v-.995h-2v.995h2zm-.799-1.397l-.798.594 1.193 1.605.799-.594-1.194-1.605zm3.642-2.707l-3.642 2.707 1.194 1.605L7.3 10.51 6.108 8.905zm4.47-.198H6.704v2h3.874v-2zm1.5-1.5a1.5 1.5 0 01-1.5 1.5v2a3.5 3.5 0 003.5-3.5h-2zm0-3.718v3.718h2V3.49h-2zm-1.5-1.5a1.5 1.5 0 011.5 1.5h2a3.5 3.5 0 00-3.5-3.5v2zm-8.078 0h8.078v-2H2.5v2z" mask="url(#a)"/>
</svg>
