<svg xmlns="http://www.w3.org/2000/svg" width="15" height="13" fill="none" viewBox="0 0 15 13">
  <path stroke="currentColor" stroke-linecap="round" stroke-linejoin="round" d="M14 1.006a6.347 6.347 0 01-1.855.938 2.633 2.633 0 00-1.355-.862 2.557 2.557 0 00-1.587.099c-.507.2-.942.557-1.246 1.023a2.82 2.82 0 00-.457 1.58v.612a6.111 6.111 0 01-2.995-.695 6.372 6.372 0 01-2.323-2.082S-.182 7.136 5.136 9.59A6.697 6.697 0 011 10.815c5.318 3.065 11.818 0 11.818-7.05 0-.171-.016-.341-.047-.509A4.78 4.78 0 0014 1.006z"/>
</svg>
