<svg xmlns="http://www.w3.org/2000/svg" width="135" height="96" fill="none" viewBox="0 0 135 96">
  <path fill="#000" stroke="#000" stroke-width="2" d="M118.029 43.578c-.401-6.532-.401-13.464-.401-19.864 0-.531.136-1.198.266-1.735 0-.666 0-1.333-.135-2-.136-.666-.136-1.198-.401-1.734-.803-1.068-2.136-1.735-3.469-1.865-1.735-.265-3.469 0-5.198.136-.802 0-1.333.135-1.735.135-4.531-.135-9.197 0-13.598 0-4.266.136-8.802.136-13.068 0-19.197-.531-36.53-.932-54.265-.4h-4a110.413 110.413 0 0 0-9.469 0c-1.599.135-3.198.265-4.802.53-1.469.266-3.198.803-4.401 1.865-.401.401-.667.802-.933 1.333-1.197 2.933-.802 6.803-.53 10.266.004 1.333.14 2.802.14 4.135v2.136c0 5.864-.136 11.864-.136 17.735a145.8 145.8 0 0 1-.4 10.666c-.266 5.068-.532 10.266-.266 15.47 0 .666 0 1.599-.136 2.666-.135 3.334-.4 7.469 1.6 9.068 1.468 1.198 3.734 1.068 5.734 1.068h1.333c3.734.135 7.599.265 11.599.265 11.469 0 23.197.136 34.401.401l7.735.136c4.265.135 8.53.265 12.802.4 5.734.266 11.734.402 17.598.402 3.6 0 7.068-.136 10.667-.266h.932c2.136-.135 4.402-.266 6.266-.932 2.802-.932 3.333-2.531 3.469-4.531 0-.266.135-.401 0-.532v-.53c0-.667 0-1.47.135-2.266l.401-3.47c1.464-12.687 2.797-25.749 2.266-38.687l-.001-.001Zm-96.265-25.73c1.735 0 3.068.136 4.136 0 17.598-.53 34.932-.135 54.136.401 4.4.136 8.932 0 13.197 0 4.401-.135 9.068-.135 13.599 0 .401 0 1.068 0 2-.135 1.865-.135 5.469-.401 6.401.401.932.802.802 2.401.802 3.865v.53c-.401 2.668-1.864 4.933-4.531 6.803-1.864 1.333-3.734 2.667-5.599 4-3.864 2.802-7.734 5.599-11.734 8.266-2.266 1.468-4.532 3.067-6.933 4.666C79.64 51.843 71.64 57.176 63.77 61.577c-3.734 2-6.401.667-10-1.067-.802-.401-1.599-.802-2.401-1.198-6-2.667-11.068-5.198-15.864-8.532-2.531-1.734-4.932-3.599-7.333-5.468-3.865-2.933-7.865-6.136-12.266-8.667-.802-.531-1.599-.932-2.401-1.333-2.667-1.47-5.469-2.933-7.198-5.334-1.599-2.135-2.4-5.333-1.864-7.599.265-1.333 1.198-2.666 2.4-3.333 1.334-.802 2.933-.802 4.266-.932 3.334-.266 6.532-.136 9.865-.136.39-.13.656-.13.792-.13ZM3.097 80.244c-.265-5.067 0-10.265.266-15.197.135-3.469.401-7.068.401-10.667 0-5.864 0-11.864.136-17.734V34.51c0-1.333-.136-2.932-.266-4.53 0-.532-.136-1.069-.136-1.47.402.933.933 1.865 1.47 2.667 2 2.667 4.932 4.266 7.734 5.864.802.402 1.599.933 2.4 1.334 4.266 2.531 8.266 5.599 12 8.531 2.402 1.864 4.803 3.734 7.334 5.469 1.599 1.068 3.198 2.135 4.932 3.068-2.53 2.265-5.599 4.265-8.666 6.265-1.865 1.198-3.865 2.531-5.735 3.734-1.599 1.199-3.198 2.402-4.802 3.735-2.666 2-5.333 4.135-8.135 6l-.401.266c-2.667 1.864-6 4-8.401 6.4-.13-.66-.13-1.197-.13-1.598ZM111.228 91.85c-1.734.666-3.864.666-5.864.802h-.933c-9.333.53-18.802.135-28-.136-4.135-.135-8.53-.265-12.802-.4l-7.734-.136c-10.667-.13-21.735-.266-32.798-.266h-1.734c-4 0-7.864-.135-11.469-.265H8.425c-1.599 0-3.599 0-4.53-.667-.933-.932-.933-3.735-.933-6.136 2.401-2.932 6.401-5.599 9.599-7.734l.4-.266c2.803-1.864 5.6-4 8.266-6.135 1.6-1.198 3.198-2.401 4.803-3.6 1.734-1.332 3.734-2.53 5.598-3.733 3.198-2 6.532-4.136 9.198-6.667.136 0 .136-.136.136-.136 2.932 1.6 6 3.068 9.469 4.667.802.401 1.599.802 2.4 1.198 2.266 1.198 4.532 2.266 7.068 2.266 1.47 0 2.933-.401 4.532-1.198 3.864-2 7.599-4.401 11.333-6.802 5.599 1.864 11.333 6.932 15.864 11.067l.401.401c4.401 4 9.068 7.865 13.864 11.865 1.068.932 2.135 1.864 3.068 2.802.531.531 1.198 1.068 1.734 1.734l.136.136c1.067 1.068 2 2.265 2.265 3.734.266 1.198.136 2.531-.932 3.198-.005.136-.401.27-.938.406h.002Zm2.932-9.87-.265 2.265c-.401-.53-.933-.932-1.469-1.468l-.13.005c-.532-.531-1.198-1.068-1.735-1.6-1.067-.931-2-2-3.198-2.931a244.28 244.28 0 0 1-13.864-11.735l-.4-.4c-4.402-3.865-9.735-8.667-15.198-10.933a693.52 693.52 0 0 0 10.401-6.932c2.266-1.6 4.531-3.068 6.802-4.667 4-2.667 7.865-5.469 11.735-8.266 1.864-1.333 3.734-2.666 5.468-4 1.469-1.067 2.532-2.135 3.469-3.468 0 5.197.136 10.53.401 15.734.651 12.797-.682 25.864-2.015 38.396h-.002Z"/>
  <path fill="#000" d="M134.962 24.059c-.757 15.529-11.758 21.034-21.034 21.034-9.93 0-21.165-5.746-21.165-21.557 0-15.809 10.974-21.296 21.165-21.296 10.191 0 21.818 5.749 21.034 21.819Z"/>
  <path fill="#B8B8FF" d="M117.479 32.418a3.03 3.03 0 0 1 1.414.93c.404.458.673.942.808 1.454a1.84 1.84 0 0 1-.081 1.414c-.189.431-.619.7-1.293.808a21.7 21.7 0 0 1-4 .283c-1.373 0-2.666-.013-3.878-.04-.835 0-1.414-.256-1.738-.768a2.368 2.368 0 0 1-.283-1.656c.135-.62.472-1.172 1.011-1.657.538-.512 1.225-.768 2.06-.768V17.712c-.35.08-.7.067-1.05-.04a2.968 2.968 0 0 1-.93-.566 2.851 2.851 0 0 1-.646-.849 2.02 2.02 0 0 1-.121-1.05c.08-.593.377-1.199.889-1.818a7.243 7.243 0 0 1 1.858-1.536 5.473 5.473 0 0 1 2.141-.727c.755-.08 1.401.108 1.94.566.215.161.404.39.565.687.189.296.283.565.283.808.027 3.232.027 6.45 0 9.656v9.575h1.051Z"/>
</svg>
