<svg xmlns="http://www.w3.org/2000/svg" width="328" height="205" fill="none" viewBox="0 0 328 205">
  <rect width="313.836" height="191" x="7" y="7" fill="#27272A" rx="11.361"/>
  <circle cx="313.5" cy="14.5" r="14.5" fill="#FDE68A"/>
  <path fill="#000" d="M313.452 8c-.319 1.37-1.351 1.857-3.452 1.857v2.176h2.758v9.098h2.588V8h-1.894Z"/>
  <path fill="#000" d="M7 18.36C7 12.087 12.086 7 18.36 7h91.595v191H18.361C12.086 198 7 192.914 7 186.639V18.361Z" opacity=".6"/>
  <rect width="83.074" height="7" x="14.1" y="41" fill="#27272A" rx="3.5"/>
  <rect width="175.379" height="7" x="126.996" y="73.071" fill="#52525B" opacity=".5" rx="3.5"/>
  <rect width="127.097" height="7" x="151.137" y="85.141" fill="#52525B" opacity=".5" rx="3.5"/>
  <rect width="85.915" height="7" x="171.729" y="61" fill="#52525B" opacity=".5" rx="3.5"/>
  <rect width="32" height="7" x="198.918" y="25" fill="#52525B" opacity=".5" rx="3.5"/>
  <rect width="32" height="7" x="198.918" y="176" fill="#52525B" opacity=".5" rx="3.5"/>
  <rect width="61.773" height="7" x="14.1" y="52" fill="#27272A" rx="3.5"/>
  <path fill="#5D5D63" d="M15.7 23.9v1.15h4.132V23.9h-1.364v-3.647h1.364v-1.15h-4.133v1.15h1.364v3.646h-1.364Zm5.277 1.15h1.32v-2.045l-.11-2.088 1.678 4.132h1.79v-5.947h-1.321v2.045l.093 2.164-1.661-4.209h-1.79v5.947Zm9.307-3.11c.529-.256.878-.665.878-1.296 0-.911-.775-1.542-2.147-1.542h-2.386v5.947H29.1c1.32 0 2.198-.664 2.198-1.73 0-.68-.34-1.14-1.014-1.38Zm-1.354-1.688c.451 0 .784.24.784.606s-.324.621-.784.621h-.895v-1.226h.895Zm-.895 3.647v-1.27h1.014c.494 0 .8.24.8.64 0 .392-.314.63-.792.63h-1.022Zm6.368 1.253c1.568 0 2.616-1.159 2.616-3.076 0-1.934-1.048-3.076-2.616-3.076s-2.624 1.15-2.624 3.076c0 1.909 1.056 3.076 2.624 3.076Zm0-1.15c-.673 0-1.176-.7-1.176-1.926 0-1.227.503-1.926 1.176-1.926.665 0 1.167.682 1.167 1.926 0 1.227-.502 1.925-1.167 1.925Zm2.96 1.048h1.568l.698-1.347.333-.75.323.759.708 1.337h1.567l-1.653-3.058 1.594-2.889h-1.568l-.656 1.227-.315.75-.307-.75-.656-1.227h-1.593l1.584 2.914-1.627 3.034Z"/>
  <rect width="88" height="21" x="14" y="77" fill="#FDE68A" opacity=".1" rx="3.55"/>
  <path fill="#fff" d="M33.135 85.093h-.93l-2.536 2.834h-.035v-2.834h-.796V91h.796v-2.06l.714-.783L32.244 91h1.004l-2.307-3.388 2.194-2.52Zm2.731 5.981c.288 0 .54-.04.753-.117.213-.078.392-.178.537-.299.144-.124.255-.255.333-.394.08-.138.13-.268.147-.39h-.805a.597.597 0 0 1-.169.265.958.958 0 0 1-.333.199 1.371 1.371 0 0 1-.467.073c-.378 0-.667-.12-.866-.363a1.36 1.36 0 0 1-.299-.892v-.229h3v-.55c0-.406-.081-.76-.243-1.06a1.734 1.734 0 0 0-.67-.696 1.91 1.91 0 0 0-.979-.247c-.36 0-.683.082-.97.247-.285.161-.51.392-.674.692-.162.297-.242.652-.242 1.064v.693c0 .41.076.764.229 1.065.156.3.38.532.67.696.292.162.641.243 1.048.243Zm-1.169-2.714v-.074c0-.25.047-.47.139-.657a1.04 1.04 0 0 1 .39-.442c.167-.103.361-.155.584-.155.222 0 .415.052.58.155.167.104.297.251.389.442.092.187.138.407.138.658v.073h-2.22ZM38.995 91h.783v-2.536c0-.263.043-.5.13-.714.086-.213.218-.382.394-.506.179-.124.4-.186.666-.186.205 0 .381.04.528.12.147.082.26.203.338.364.08.159.12.358.12.597V91h.784v-3.107c0-.51-.143-.892-.428-1.143-.286-.25-.658-.376-1.117-.376-.317 0-.57.05-.757.151a1.16 1.16 0 0 0-.424.36 1.466 1.466 0 0 0-.2.389h-.043v-.827h-.774V91Zm5.509-4.54h-.701v.637h.697v2.626c0 .3.034.549.103.745.07.193.198.337.386.432.19.093.465.139.826.139a4.6 4.6 0 0 0 .558-.039v-.627l-.164.012c-.075.006-.14.01-.195.01-.277 0-.469-.046-.576-.135-.106-.092-.16-.273-.16-.541v-2.622h1.03v-.637h-1.03v-1.142h-.774v1.142Zm5.708 1.186c0-.412.062-.764.186-1.056.124-.294.301-.52.532-.675a1.43 1.43 0 0 1 .831-.238c.248 0 .47.05.667.151.199.099.36.234.484.407.124.17.2.368.225.593h.788v-.026a1.914 1.914 0 0 0-.67-1.316 2.104 2.104 0 0 0-.672-.38 2.472 2.472 0 0 0-.826-.134c-.49 0-.912.106-1.264.32-.352.21-.62.515-.805.913-.184.398-.277.876-.277 1.433v.852c0 .557.091 1.031.273 1.424.182.392.447.692.796.9.352.205.778.307 1.277.307.395 0 .75-.075 1.064-.225.318-.15.573-.356.766-.619.197-.262.31-.56.338-.895v-.026h-.788a1.12 1.12 0 0 1-.225.553c-.12.16-.28.283-.476.373a1.61 1.61 0 0 1-.675.134c-.329 0-.609-.075-.84-.225a1.435 1.435 0 0 1-.527-.662c-.121-.289-.182-.638-.182-1.048v-.835Zm4.86 2.822c0 .173.06.319.181.437a.611.611 0 0 0 .438.173.627.627 0 0 0 .45-.173.587.587 0 0 0 .181-.437.602.602 0 0 0-.181-.45.62.62 0 0 0-.45-.178c-.17 0-.316.06-.438.178a.594.594 0 0 0-.181.45Zm4.752-5.375V91h1.92c.575 0 1.054-.112 1.438-.338.386-.225.676-.556.87-.995.196-.441.294-.982.294-1.623 0-.643-.098-1.184-.294-1.623a2.065 2.065 0 0 0-.87-.99c-.384-.226-.863-.338-1.437-.338h-1.921Zm.796.697h1.069c.41 0 .75.083 1.021.25.271.168.473.419.606.754.135.334.203.753.203 1.255 0 .377-.039.706-.117.986a1.89 1.89 0 0 1-.337.701c-.15.188-.34.33-.571.424-.231.093-.5.139-.805.139h-1.07v-4.51Zm6.859.584c-.378 0-.716.082-1.013.247-.297.164-.53.396-.7.696-.171.3-.256.657-.256 1.07v.67c0 .43.084.796.25 1.1.171.3.403.527.698.683.297.156.637.234 1.021.234.378 0 .714-.078 1.008-.234a1.73 1.73 0 0 0 .701-.688c.17-.303.256-.668.256-1.095v-.675c0-.421-.085-.782-.256-1.082a1.695 1.695 0 0 0-.7-.688 2.09 2.09 0 0 0-1.009-.238Zm.004.666a1.079 1.079 0 0 1 1.03.675c.096.211.143.456.143.736v.55c0 .282-.046.53-.138.74-.09.21-.222.375-.398.493a1.1 1.1 0 0 1-.637.177c-.254 0-.47-.059-.649-.177a1.12 1.12 0 0 1-.402-.493 1.831 1.831 0 0 1-.139-.74v-.55c0-.277.048-.52.143-.731.098-.214.235-.38.411-.498.179-.121.391-.182.636-.182Zm4.821-.662c-.352 0-.66.08-.926.238a1.597 1.597 0 0 0-.619.662c-.147.283-.22.618-.22 1.004v.883c0 .384.072.718.216 1.004.144.286.346.506.606.662.262.156.571.234.926.234a1.842 1.842 0 0 0 .883-.22c.124-.07.228-.152.311-.248a.826.826 0 0 0 .174-.324h.038V91h.753v-6.219h-.783v2.341h-.039a1.038 1.038 0 0 0-.281-.398 1.231 1.231 0 0 0-.45-.255 1.8 1.8 0 0 0-.589-.09Zm.16.67a1.176 1.176 0 0 1 1.043.598c.104.185.156.397.156.636v.788c0 .271-.049.506-.147.705-.098.197-.235.35-.411.459-.173.107-.38.16-.619.16-.24 0-.446-.055-.619-.164a1.077 1.077 0 0 1-.402-.476 1.88 1.88 0 0 1-.139-.758v-.554c0-.291.046-.54.139-.748a1.07 1.07 0 0 1 .39-.476c.17-.113.373-.17.61-.17Zm5.076-.67c-.351 0-.66.08-.925.238a1.597 1.597 0 0 0-.62.662c-.147.283-.22.618-.22 1.004v.883c0 .384.072.718.216 1.004.145.286.347.506.606.662.263.156.572.234.926.234a1.837 1.837 0 0 0 .883-.22c.124-.07.228-.152.312-.248a.824.824 0 0 0 .173-.324h.039V91h.753v-6.219h-.784v2.341h-.038a1.037 1.037 0 0 0-.282-.398 1.231 1.231 0 0 0-.45-.255 1.8 1.8 0 0 0-.588-.09Zm.16.67a1.176 1.176 0 0 1 1.044.598c.104.185.156.397.156.636v.788c0 .271-.05.506-.148.705a1.11 1.11 0 0 1-.41.459c-.174.107-.38.16-.62.16s-.445-.055-.618-.164a1.077 1.077 0 0 1-.403-.476 1.88 1.88 0 0 1-.138-.758v-.554c0-.291.046-.54.138-.748a1.07 1.07 0 0 1 .39-.476c.17-.113.373-.17.61-.17Zm3.324.706c0 .297.07.527.208.688.139.162.323.285.554.368.234.081.492.15.775.208.21.04.402.085.575.134a1 1 0 0 1 .411.204c.101.089.152.219.152.389a.646.646 0 0 1-.104.36.727.727 0 0 1-.329.259c-.147.066-.34.1-.58.1a1.51 1.51 0 0 1-.524-.079.698.698 0 0 1-.315-.229.774.774 0 0 1-.139-.35h-.766c0 .27.072.502.217.692.144.188.344.33.601.428.257.099.554.148.891.148.364 0 .681-.055.953-.165.274-.11.486-.27.636-.48.153-.214.23-.472.23-.775 0-.297-.072-.528-.213-.692a1.284 1.284 0 0 0-.567-.377 4.382 4.382 0 0 0-.779-.203 29.237 29.237 0 0 1-.39-.074 1.953 1.953 0 0 1-.367-.108.75.75 0 0 1-.269-.195.5.5 0 0 1-.103-.329c0-.222.085-.392.255-.51.173-.118.392-.178.658-.178.205 0 .373.034.506.1a.743.743 0 0 1 .307.247c.07.1.109.204.117.311h.727c0-.257-.068-.479-.203-.666a1.336 1.336 0 0 0-.571-.446 2.113 2.113 0 0 0-.857-.16c-.294 0-.572.047-.831.143a1.4 1.4 0 0 0-.628.45c-.158.202-.238.464-.238.787Z"/>
  <rect width="88.045" height="15" x="14.1" y="107" fill="#27272A" rx="4"/>
  <rect width="88.045" height="15" x="14.1" y="130" fill="#27272A" rx="4"/>
  <rect width="88.045" height="15" x="14.1" y="152" fill="#27272A" rx="4"/>
  <rect width="88.045" height="15" x="14.1" y="175" fill="#27272A" rx="4"/>
  <circle cx="22.13" cy="87.944" r="2.13" fill="#FDE68A"/>
  <rect width="154" height="26" x="138" y="107" fill="#FDE68A" rx="4"/>
  <path fill="#000" d="M153.208 120.159c0-.392.052-.724.157-.994.105-.271.255-.477.451-.619.197-.146.433-.219.711-.219.243 0 .453.055.629.163.176.105.313.25.411.436.101.186.159.398.172.634h1.588v-.192a2.281 2.281 0 0 0-.228-.99 2.298 2.298 0 0 0-.588-.766 2.622 2.622 0 0 0-.883-.487 3.437 3.437 0 0 0-1.111-.173c-.643 0-1.189.131-1.639.391a2.537 2.537 0 0 0-1.02 1.111c-.233.477-.35 1.046-.35 1.705v.771c0 .656.115 1.223.345 1.7.233.477.573.846 1.02 1.106.45.261.997.391 1.644.391.534 0 1.011-.098 1.43-.295.42-.199.751-.476.995-.832.247-.358.375-.774.385-1.248v-.198h-1.588c-.013.23-.069.435-.167.614-.098.18-.237.322-.416.426a1.234 1.234 0 0 1-.629.153c-.278 0-.516-.07-.716-.208a1.307 1.307 0 0 1-.451-.614c-.102-.271-.152-.601-.152-.99v-.776Zm7.473-1.674c-.524 0-.979.108-1.365.324a2.219 2.219 0 0 0-.892.899c-.21.382-.315.827-.315 1.334v.472c0 .551.103 1.02.309 1.405.21.386.508.68.893.883.386.2.843.299 1.37.299.525 0 .978-.099 1.36-.299.386-.203.683-.497.893-.883.21-.389.315-.859.315-1.41v-.477c0-.514-.105-.963-.315-1.345a2.159 2.159 0 0 0-.893-.888c-.382-.209-.835-.314-1.36-.314Zm0 1.207c.224 0 .403.063.538.188s.234.291.294.497c.065.203.097.423.097.66v.502c0 .23-.031.448-.092.655-.057.203-.153.37-.289.502-.135.128-.318.193-.548.193-.23 0-.414-.065-.553-.193a1.15 1.15 0 0 1-.294-.507 2.284 2.284 0 0 1-.091-.65v-.502c0-.234.032-.452.096-.655a1.11 1.11 0 0 1 .299-.497.77.77 0 0 1 .543-.193Zm3.562 4.308h1.619v-2.994c0-.243.039-.451.116-.624a.92.92 0 0 1 .335-.4.893.893 0 0 1 .498-.143c.145 0 .282.033.411.097a.713.713 0 0 1 .314.309c.081.146.122.347.122.604V124h1.618v-3.582c0-.643-.162-1.123-.487-1.441-.324-.318-.759-.477-1.304-.477-.338 0-.617.057-.837.172a1.488 1.488 0 0 0-.507.406 1.605 1.605 0 0 0-.249.442h-.081v-.939h-1.568V124Zm6.738 0h1.604v-4.125h1.151v-1.213h-1.192v-.395c0-.207.059-.352.178-.437.118-.084.304-.127.558-.127.084 0 .179.004.284.011.105.006.181.013.228.02v-1.096a7.621 7.621 0 0 0-.852-.051c-.707 0-1.211.12-1.512.36-.298.237-.447.631-.447 1.183v.532h-.872v1.213h.872V124Zm3.786 0h1.618v-5.419h-1.618V124Zm-.158-6.966c0 .243.088.439.264.588.179.146.413.218.7.218.291 0 .525-.072.701-.218a.735.735 0 0 0 .263-.588.732.732 0 0 0-.269-.594c-.175-.149-.407-.223-.695-.223-.291 0-.524.074-.7.223a.74.74 0 0 0-.264.594ZM177.74 124h1.664v-2.938c0-.24.042-.45.127-.629a.903.903 0 0 1 .396-.421c.179-.102.407-.152.685-.152.122 0 .237.007.345.02.108.01.191.025.248.046v-1.375a.952.952 0 0 0-.198-.036 3.324 3.324 0 0 0-.289-.01c-.26 0-.48.052-.659.157-.18.105-.32.23-.421.376-.102.142-.17.275-.203.401h-.076v-.858h-1.619V124Zm4.252 0h1.619v-3.207c0-.226.035-.412.106-.558a.733.733 0 0 1 .294-.319.831.831 0 0 1 .416-.107.84.84 0 0 1 .396.096.672.672 0 0 1 .299.3c.075.138.112.326.112.563V124h1.543v-3.197c0-.223.037-.407.111-.553a.788.788 0 0 1 .716-.441c.148 0 .284.032.405.096a.655.655 0 0 1 .29.3c.071.135.106.318.106.548V124h1.614v-3.76c0-.527-.151-.949-.452-1.263-.298-.318-.719-.477-1.263-.477-.311 0-.58.052-.807.157-.223.102-.404.23-.543.386a1.36 1.36 0 0 0-.289.477h-.066a1.319 1.319 0 0 0-.761-.888 1.75 1.75 0 0 0-.71-.132c-.322 0-.586.056-.792.167-.203.109-.36.241-.472.396a1.496 1.496 0 0 0-.223.437h-.081v-.919h-1.568V124Zm16.318-5.419h-1.715l-1 4.1h-.066l-.969-4.1h-1.781l1.801 5.394-.02.101c-.03.233-.122.404-.274.512-.152.109-.38.163-.685.163-.081 0-.167-.004-.259-.01a1.518 1.518 0 0 1-.203-.026v1.117c.085.02.208.035.371.045.166.014.321.02.467.02.649 0 1.17-.142 1.562-.426.393-.28.712-.746.959-1.395l.127-.335c.061-.169.144-.416.249-.741l.385-1.162c.149-.449.311-.95.487-1.501.176-.552.364-1.137.564-1.756Zm2.963-.096c-.524 0-.979.108-1.365.324a2.221 2.221 0 0 0-.893.899c-.21.382-.315.827-.315 1.334v.472c0 .551.104 1.02.31 1.405.21.386.507.68.893.883.385.2.842.299 1.37.299.524 0 .977-.099 1.36-.299.385-.203.683-.497.893-.883.209-.389.314-.859.314-1.41v-.477c0-.514-.105-.963-.314-1.345a2.165 2.165 0 0 0-.893-.888c-.383-.209-.836-.314-1.36-.314Zm0 1.207c.223 0 .402.063.538.188.135.125.233.291.294.497.064.203.096.423.096.66v.502c0 .23-.03.448-.091.655-.058.203-.154.37-.289.502-.136.128-.318.193-.548.193-.23 0-.415-.065-.553-.193a1.142 1.142 0 0 1-.295-.507 2.32 2.32 0 0 1-.091-.65v-.502c0-.234.032-.452.097-.655a1.11 1.11 0 0 1 .299-.497.77.77 0 0 1 .543-.193Zm8.554-1.111h-1.613v3.151c0 .213-.044.396-.132.548a.928.928 0 0 1-.345.35.955.955 0 0 1-.467.117c-.135 0-.269-.026-.401-.076a.691.691 0 0 1-.319-.29c-.085-.142-.127-.343-.127-.603v-3.197h-1.619v3.613c0 .433.075.789.224 1.07.148.278.356.484.624.619.27.132.585.198.943.198.318 0 .586-.052.802-.157.216-.108.389-.239.518-.391.128-.152.216-.299.263-.441h.082V124h1.567v-5.419Zm1.269 5.419h1.664v-2.938c0-.24.042-.45.127-.629a.898.898 0 0 1 .396-.421c.179-.102.407-.152.685-.152.121 0 .236.007.345.02.108.01.191.025.248.046v-1.375a.952.952 0 0 0-.198-.036 3.324 3.324 0 0 0-.289-.01c-.26 0-.48.052-.659.157-.18.105-.32.23-.421.376-.102.142-.17.275-.203.401h-.077v-.858h-1.618V124Zm6.155-3.79c0 .352.076.636.228.852.156.217.364.384.624.503.261.118.548.208.863.268l.644.127c.203.037.369.095.497.173a.37.37 0 0 1 .193.345.534.534 0 0 1-.081.284.562.562 0 0 1-.254.203 1.207 1.207 0 0 1-.451.071 1.16 1.16 0 0 1-.427-.071.615.615 0 0 1-.385-.508h-1.568c0 .322.088.606.264.853.179.247.44.441.781.583.342.139.761.208 1.259.208.517 0 .955-.072 1.314-.218.362-.145.637-.353.827-.624.189-.27.284-.593.284-.969 0-.321-.07-.585-.208-.791a1.387 1.387 0 0 0-.574-.488 3.09 3.09 0 0 0-.867-.263 51.26 51.26 0 0 0-.462-.066 3.841 3.841 0 0 1-.472-.107 1.147 1.147 0 0 1-.36-.183.373.373 0 0 1-.142-.304c0-.162.063-.294.188-.396.125-.101.304-.152.538-.152.165 0 .302.029.41.086a.61.61 0 0 1 .249.213.572.572 0 0 1 .107.274h1.41c0-.358-.093-.657-.279-.898a1.65 1.65 0 0 0-.761-.548 3.168 3.168 0 0 0-1.111-.182c-.403 0-.778.057-1.126.172-.346.115-.625.3-.838.553-.209.251-.314.584-.314 1Zm10.569-1.629h-1.614v3.151c0 .213-.044.396-.132.548a.928.928 0 0 1-.345.35.952.952 0 0 1-.467.117c-.135 0-.269-.026-.4-.076a.693.693 0 0 1-.32-.29c-.085-.142-.127-.343-.127-.603v-3.197h-1.618v3.613c0 .433.074.789.223 1.07.149.278.357.484.624.619.27.132.585.198.944.198.318 0 .585-.052.801-.157.217-.108.389-.239.518-.391.128-.152.216-.299.264-.441h.081V124h1.568v-5.419Zm4.485 5.48c.416 0 .773-.098 1.071-.294.297-.197.525-.479.684-.848.159-.368.239-.812.239-1.329v-.604c0-.521-.08-.964-.239-1.329a1.834 1.834 0 0 0-.679-.842c-.295-.197-.65-.295-1.066-.295-.189 0-.369.022-.538.066a1.75 1.75 0 0 0-.451.188 1.23 1.23 0 0 0-.345.289 1.183 1.183 0 0 0-.208.376h-.081v-2.73h-1.619V124h1.608v-.842h.076c.071.186.18.346.325.482.149.135.327.24.533.314.21.071.44.107.69.107Zm-.624-1.248a.902.902 0 0 1-.523-.153 1.07 1.07 0 0 1-.345-.436 1.613 1.613 0 0 1-.121-.649v-.523c0-.267.038-.495.116-.685a.992.992 0 0 1 .34-.436.902.902 0 0 1 .523-.152c.203 0 .375.052.517.157.146.101.256.25.33.446.074.197.112.435.112.716v.401c0 .274-.038.509-.112.705a.964.964 0 0 1-.325.451.838.838 0 0 1-.512.158Zm3.455-2.603c0 .352.076.636.229.852.155.217.363.384.624.503.26.118.548.208.862.268l.645.127c.203.037.368.095.497.173a.372.372 0 0 1 .193.345.527.527 0 0 1-.082.284.559.559 0 0 1-.253.203 1.213 1.213 0 0 1-.452.071 1.15 1.15 0 0 1-.426-.071.648.648 0 0 1-.269-.208.635.635 0 0 1-.117-.3h-1.567c0 .322.088.606.263.853.18.247.44.441.782.583.341.139.761.208 1.258.208.518 0 .956-.072 1.314-.218.362-.145.638-.353.827-.624.19-.27.284-.593.284-.969 0-.321-.069-.585-.208-.791a1.378 1.378 0 0 0-.573-.488 3.098 3.098 0 0 0-.868-.263 56.41 56.41 0 0 0-.461-.066 3.841 3.841 0 0 1-.472-.107 1.125 1.125 0 0 1-.36-.183.374.374 0 0 1-.143-.304c0-.162.063-.294.188-.396.125-.101.305-.152.538-.152.166 0 .303.029.411.086a.624.624 0 0 1 .249.213.57.57 0 0 1 .106.274h1.411c0-.358-.093-.657-.279-.898a1.655 1.655 0 0 0-.761-.548 3.174 3.174 0 0 0-1.112-.182 3.57 3.57 0 0 0-1.126.172 1.82 1.82 0 0 0-.837.553c-.21.251-.315.584-.315 1Zm5.343 1.324c0 .534.1.993.299 1.375.2.382.486.677.858.883.375.206.824.309 1.344.309.504 0 .931-.084 1.279-.253.348-.173.612-.41.792-.711.182-.301.277-.649.284-1.045h-1.462a.995.995 0 0 1-.116.406.652.652 0 0 1-.269.264.966.966 0 0 1-.452.091.798.798 0 0 1-.69-.35c-.162-.237-.243-.565-.243-.984v-.513c0-.389.081-.698.243-.928a.796.796 0 0 1 .69-.345.77.77 0 0 1 .442.117.725.725 0 0 1 .269.294.966.966 0 0 1 .111.38h1.461a1.963 1.963 0 0 0-.289-1.045 1.926 1.926 0 0 0-.796-.725c-.345-.18-.761-.269-1.248-.269-.511 0-.954.103-1.33.309a2.168 2.168 0 0 0-.872.873c-.203.375-.305.818-.305 1.329v.538Zm5.845 2.466h1.664v-2.938c0-.24.043-.45.127-.629a.903.903 0 0 1 .396-.421c.179-.102.408-.152.685-.152.122 0 .237.007.345.02.108.01.191.025.249.046v-1.375a.952.952 0 0 0-.198-.036 3.34 3.34 0 0 0-.289-.01c-.261 0-.481.052-.66.157a1.3 1.3 0 0 0-.421.376 1.263 1.263 0 0 0-.203.401h-.076v-.858h-1.619V124Zm4.333 0h1.619v-5.419h-1.619V124Zm-.157-6.966c0 .243.088.439.264.588.179.146.413.218.7.218.291 0 .524-.072.7-.218a.733.733 0 0 0 .264-.588.732.732 0 0 0-.269-.594c-.176-.149-.407-.223-.695-.223-.291 0-.524.074-.7.223a.74.74 0 0 0-.264.594Zm6.327 7.027c.416 0 .773-.098 1.071-.294a1.87 1.87 0 0 0 .685-.848c.159-.368.238-.812.238-1.329v-.604c0-.517-.079-.959-.238-1.324a1.85 1.85 0 0 0-.675-.847c-.294-.197-.651-.295-1.071-.295-.189 0-.367.022-.532.066-.163.041-.311.1-.447.178a1.308 1.308 0 0 0-.573.675h-.081v-.858H253.6v7.215h1.619v-2.638h.081c.078.192.19.357.335.492.145.132.32.233.523.304.203.071.426.107.669.107Zm-.629-1.248a.877.877 0 0 1-.517-.153.99.99 0 0 1-.34-.426 1.613 1.613 0 0 1-.122-.649v-.543c0-.264.039-.489.117-.675a.954.954 0 0 1 .334-.436.88.88 0 0 1 .518-.152c.206 0 .381.052.523.157.145.101.255.25.329.446.075.193.112.43.112.711v.4c0 .278-.037.515-.112.711a.962.962 0 0 1-.324.451.848.848 0 0 1-.518.158Zm4.049-4.151h-.862v1.213h.827v2.582c0 .376.064.679.192.909.132.23.34.397.625.502.287.101.661.152 1.121.152a6.568 6.568 0 0 0 .878-.066v-1.162l-.208.016a8.16 8.16 0 0 1-.279.005c-.247 0-.432-.046-.554-.137-.118-.095-.177-.262-.177-.503v-2.298h1.187v-1.213h-1.187v-1.339h-1.563v1.339Zm3.801 5.338h1.618v-5.419h-1.618V124Zm-.158-6.966c0 .243.088.439.264.588.179.146.413.218.7.218.291 0 .525-.072.701-.218a.735.735 0 0 0 .263-.588.732.732 0 0 0-.269-.594c-.175-.149-.407-.223-.695-.223-.291 0-.524.074-.7.223a.74.74 0 0 0-.264.594Zm5.435 1.451c-.525 0-.98.108-1.365.324a2.215 2.215 0 0 0-.893.899c-.21.382-.315.827-.315 1.334v.472c0 .551.103 1.02.31 1.405.209.386.507.68.893.883.385.2.842.299 1.37.299.524 0 .977-.099 1.359-.299.386-.203.684-.497.893-.883.21-.389.315-.859.315-1.41v-.477c0-.514-.105-.963-.315-1.345a2.153 2.153 0 0 0-.893-.888c-.382-.209-.835-.314-1.359-.314Zm0 1.207c.223 0 .402.063.537.188.136.125.234.291.295.497.064.203.096.423.096.66v.502c0 .23-.03.448-.091.655-.058.203-.154.37-.29.502-.135.128-.317.193-.547.193-.23 0-.415-.065-.554-.193a1.15 1.15 0 0 1-.294-.507 2.284 2.284 0 0 1-.091-.65v-.502c0-.234.032-.452.096-.655.065-.206.164-.372.3-.497a.767.767 0 0 1 .543-.193Zm3.561 4.308h1.619v-2.994c0-.243.039-.451.117-.624a.888.888 0 0 1 .832-.543c.145 0 .282.033.411.097a.713.713 0 0 1 .314.309c.082.146.122.347.122.604V124h1.619v-3.582c0-.643-.163-1.123-.487-1.441-.325-.318-.76-.477-1.304-.477-.339 0-.618.057-.838.172a1.488 1.488 0 0 0-.507.406 1.631 1.631 0 0 0-.249.442h-.081v-.939h-1.568V124Z"/>
  <path fill="#fff" stroke="#27272A" stroke-width="2" d="m293.628 143.398 1.519-2.013 3.751 3.751a3.001 3.001 0 0 0 4.237 0 3.003 3.003 0 0 0 0-4.238l-3.751-3.75 2.014-1.52.001-.001a1.781 1.781 0 0 0-.411-3.077l-.001-.001-13.54-5.42h-.001c-1.452-.581-2.898.865-2.317 2.317v.001l5.42 13.54.001.001c.518 1.291 2.241 1.518 3.078.411v-.001Z"/>
</svg>
