<svg xmlns="http://www.w3.org/2000/svg" width="2005" height="193" fill="none" viewBox="0 0 2005 193">
  <path stroke="#223154" stroke-miterlimit="10" stroke-width=".78" d="M1049 96.49a95.483 95.483 0 0127.97-67.522A95.5 95.5 0 011144.49.999v0a95.47 95.47 0 01-7.27 36.543 95.463 95.463 0 01-20.7 30.979A95.465 95.465 0 011049 96.489v0z"/>
  <path fill="#D44B36" d="M1240 1h-95v95h95V1z"/>
  <path fill="#DA6E47" fill-rule="evenodd" d="M1239.51 48.818v-.094a48.781 48.781 0 01-32.62-14.43 48.773 48.773 0 01-14.09-32.777H1192.23A48.8 48.8 0 011145 48.744v.054a48.787 48.787 0 0132.96 14.268 48.762 48.762 0 0114.27 32.964H1192.8a48.817 48.817 0 0114.08-32.78 48.823 48.823 0 0132.63-14.432z" clip-rule="evenodd"/>
  <path fill="#EFD7B1" d="M953.562 191.499a95.49 95.49 0 01-95.49-95.49 95.49 95.49 0 0195.49 95.49zM1240.04 95.54a95.482 95.482 0 0127.97-67.523A95.482 95.482 0 011335.53.05a95.47 95.47 0 01-7.27 36.543 95.476 95.476 0 01-51.68 51.679 95.458 95.458 0 01-36.54 7.268z"/>
  <path fill="#DA6E47" d="M1049.01 95.999a95.468 95.468 0 0167.52 27.968 95.483 95.483 0 0127.97 67.522 95.499 95.499 0 01-67.52-27.968 95.483 95.483 0 01-27.97-67.522z"/>
  <path fill="#D44B36" d="M1335.49 96.02H1240v95.49h95.49V96.02z"/>
  <path fill="#DA6E47" d="M1315.91 143.759c0-15.552-12.61-28.16-28.16-28.16s-28.16 12.608-28.16 28.16c0 15.553 12.61 28.16 28.16 28.16s28.16-12.607 28.16-28.16z"/>
  <path fill="#EFD7B1" fill-rule="evenodd" d="M668.001 96.48h95.49v95.489h-95.49v-95.49zm47.75 19.59c15.553 0 28.16 12.607 28.16 28.16 0 15.552-12.607 28.16-28.16 28.16-15.552 0-28.16-12.608-28.16-28.16 0-15.553 12.608-28.16 28.16-28.16z" clip-rule="evenodd"/>
  <path fill="#D44B36" d="M1049 96.49v-.15l-95.499.15V1a95.51 95.51 0 0167.529 27.967A95.482 95.482 0 011049 96.489z"/>
  <path fill="#7BA69C" d="M953.521 191.879h.16l-.16-95.49H1049a95.472 95.472 0 01-27.97 67.516 95.481 95.481 0 01-67.509 27.974zM858.001 95.999v-.15l-95 .15v-95a94.996 94.996 0 0167.172 27.824A95.01 95.01 0 01858.001 96z"/>
  <path stroke="#223154" stroke-miterlimit="10" stroke-width=".78" d="M285.65 191.87a95.504 95.504 0 00-27.971-67.529 95.504 95.504 0 00-67.529-27.97v0"/>
  <path fill="#7BA69C" d="M95.19 1.51A95.49 95.49 0 01190.68 97v95.49A95.488 95.488 0 0195.19 97V1.51z"/>
  <path fill="#152549" d="M95.19 97.03a95.49 95.49 0 0195.49 95.49 95.487 95.487 0 01-95.49-95.49z"/>
  <path fill="#7BA69C" d="M285.65 1.71a95.487 95.487 0 01-58.948 88.221A95.487 95.487 0 01190.16 97.2V1.71h95.49z"/>
  <path fill="#EFD7B1" d="M381.17 1.73a95.486 95.486 0 0188.221 58.948 95.486 95.486 0 017.269 36.542h-95.49V1.73zM166.5 97a71.31 71.31 0 00-71.31-71.31V1.51A95.49 95.49 0 01190.65 97H166.5z"/>
  <path fill="#D44B36" d="M285.67 1.02a95.486 95.486 0 0188.248 58.964 95.495 95.495 0 017.262 36.556 95.493 95.493 0 01-88.248-58.964A95.494 95.494 0 01285.67 1.02z"/>
  <path fill="#DA6E47" d="M572.65 96.91h95.49a95.491 95.491 0 01-95.49 95.49V96.91z"/>
  <path fill="#D54D38" d="M95.16 97v95.16A95.16 95.16 0 010 97h95.16z"/>
  <path stroke="#223154" stroke-miterlimit="10" stroke-width=".78" d="M667.65 96.49a95.495 95.495 0 01-67.522-27.968A95.487 95.487 0 01572.16 1v0a95.492 95.492 0 0195.49 95.49v0z"/>
  <path fill="#EFD7B1" fill-rule="evenodd" d="M595 23.522v-.047A24.265 24.265 0 01571.77 0H571.488A24.268 24.268 0 01548 23.485v.027A24.273 24.273 0 01571.488 47H571.77A24.263 24.263 0 01595 23.522z" clip-rule="evenodd"/>
  <path fill="#EFD7B1" d="M572.65 97a95.49 95.49 0 01-95.49 95.49A95.49 95.49 0 01572.65 97z"/>
  <path fill="#DA6E47" d="M763 1a95 95 0 01-95 95 95 95 0 0195-95z"/>
  <path fill="#D44B36" d="M381.65 97v.16l95.51-.16v95.49A95.495 95.495 0 01381.65 97z"/>
  <g>
    <path stroke="#223154" stroke-miterlimit="10" stroke-width=".78" d="M1621.65.62a95.497 95.497 0 01-95.5 95.5v0"/>
    <path fill="#7BA69C" d="M1621.65 190.78c0-12.54-2.47-24.957-7.27-36.542a95.48 95.48 0 00-88.22-58.948v95.49h95.49z"/>
    <path fill="#7BA69C" d="M1431 190.49c12.61 0 25.09-2.457 36.74-7.231a95.97 95.97 0 0031.14-20.594 94.775 94.775 0 0020.81-30.82A94.04 94.04 0 001527 95.49h-96v95z"/>
    <path fill="#EFD7B1" d="M1717.17 190.76a95.472 95.472 0 0067.52-27.968 95.466 95.466 0 0020.7-30.979 95.474 95.474 0 007.27-36.543h-95.49v95.49zM1502.5 95.49c0 18.913-7.51 37.051-20.89 50.424a71.3 71.3 0 01-50.42 20.886v24.18a95.495 95.495 0 0095.46-95.49h-24.15z"/>
    <path fill="#D44B36" d="M1621.67 191.47a95.513 95.513 0 0036.56-7.266 95.476 95.476 0 0030.99-20.706 95.648 95.648 0 0020.7-30.992 95.529 95.529 0 007.26-36.556 95.532 95.532 0 00-36.56 7.266 95.508 95.508 0 00-30.99 20.706 95.67 95.67 0 00-20.7 30.992 95.529 95.529 0 00-7.26 36.556z"/>
    <path fill="#DA6E47" d="M1908.65 95.58h95.49a95.47 95.47 0 00-7.27-36.542 95.476 95.476 0 00-51.68-51.679A95.457 95.457 0 001908.65.09v95.49z"/>
    <path fill="#D54D38" d="M1431.16 95.49V.33a95.167 95.167 0 00-67.29 27.872A95.183 95.183 0 001336 95.49h95.16z"/>
    <path stroke="#223154" stroke-miterlimit="10" stroke-width=".78" d="M2003.65 96a95.48 95.48 0 00-88.22 58.948 95.465 95.465 0 00-7.27 36.542v0c25.33 0 49.61-10.06 67.52-27.968A95.483 95.483 0 002003.65 96v0z"/>
    <path fill="#EFD7B1" d="M1908.65 95.49a95.482 95.482 0 00-27.97-67.521A95.482 95.482 0 001813.16 0a95.483 95.483 0 0027.97 67.522 95.482 95.482 0 0067.52 27.968z"/>
    <path fill="#D44B36" d="M1717.65 95.49v-.16l95.51.16V0a95.512 95.512 0 00-36.55 7.263 95.342 95.342 0 00-30.98 20.699 95.49 95.49 0 00-20.71 30.981 95.49 95.49 0 00-7.27 36.547z"/>
    <path fill="#EFD7B1" fill-rule="evenodd" d="M1645 58.968v.047a24.254 24.254 0 00-16.22 7.175 24.292 24.292 0 00-7.01 16.3h-.28a24.259 24.259 0 00-7.1-16.39 24.252 24.252 0 00-16.39-7.095v-.027a24.25 24.25 0 0016.39-7.095 24.263 24.263 0 007.1-16.393h.28c.2 6.124 2.7 11.947 7.01 16.302a24.254 24.254 0 0016.22 7.176z" clip-rule="evenodd"/>
  </g>
</svg>
