<svg id="graphics" xmlns="http://www.w3.org/2000/svg" xmlns:xlink="http://www.w3.org/1999/xlink" viewBox="0 0 639.98 680"><defs><style>.cls-1,.cls-8{fill:none;}.cls-2{clip-path:url(#clip-path);}.cls-3{fill:#d44b36;}.cls-11,.cls-4{fill:#7ba69c;}.cls-5{fill:#152549;}.cls-6{fill:#da6e47;}.cls-10,.cls-7{fill:#efd7b1;}.cls-8{stroke:#223154;stroke-miterlimit:10;stroke-width:0.78px;}.cls-9{fill:#d54d38;}.cls-10,.cls-11{fill-rule:evenodd;}</style><clipPath id="clip-path"><rect class="cls-1" x="0.24" y="-0.29" width="640" height="680"/></clipPath></defs><g class="cls-2"><path class="cls-3" d="M479.59,148.92h129a0,0,0,0,1,0,0v129a0,0,0,0,1,0,0h0a129,129,0,0,1-129-129v0A0,0,0,0,1,479.59,148.92Z" transform="translate(330.66 757.47) rotate(-90)"/><path class="cls-4" d="M620.19,4.66h0a0,0,0,0,1,0,0v95.49a95.49,95.49,0,0,1-95.49,95.49h0a0,0,0,0,1,0,0V100.15A95.49,95.49,0,0,1,620.19,4.66Z" transform="translate(672.59 -472.29) rotate(90)"/><path class="cls-5" d="M667.94,52.4h0a0,0,0,0,1,0,0v0a95.49,95.49,0,0,1-95.49,95.49h0a0,0,0,0,1,0,0v0A95.49,95.49,0,0,1,667.94,52.4Z" transform="translate(720.34 -520.04) rotate(90)"/><path class="cls-3" d="M381.46,52.4H477a0,0,0,0,1,0,0v0a95.49,95.49,0,0,1-95.49,95.49h0a0,0,0,0,1,0,0V52.4A0,0,0,0,1,381.46,52.4Z" transform="translate(858.41 200.3) rotate(-180)"/><path class="cls-6" d="M477-43.1h95.49a0,0,0,0,1,0,0v0A95.49,95.49,0,0,1,477,52.39h0a0,0,0,0,1,0,0V-43.1A0,0,0,0,1,477-43.1Z"/><rect class="cls-3" x="572.44" y="243.39" width="95.49" height="95.49" transform="translate(911.32 -329.06) rotate(90)"/><rect class="cls-3" x="572.44" y="-42.61" width="95.49" height="95.49" transform="translate(625.32 -615.06) rotate(90)"/><circle class="cls-6" cx="620.19" cy="291.13" r="28.16"/><rect class="cls-3" x="285.59" y="338.88" width="95.49" height="95.49" transform="translate(-53.29 719.97) rotate(-90)"/><circle class="cls-6" cx="333.19" cy="387.13" r="28.16"/><path class="cls-7" d="M572.44,123.72A71.32,71.32,0,0,1,501.13,52.4H477a95.5,95.5,0,0,0,95.49,95.5Z"/><path class="cls-7" d="M477,147.9h0a0,0,0,0,1,0,0v0a95.49,95.49,0,0,1-95.49,95.49h0a0,0,0,0,1,0,0v0A95.49,95.49,0,0,1,477,147.9Z" transform="translate(858.41 391.28) rotate(-180)"/><rect class="cls-5" x="476.95" y="529.86" width="95.49" height="95.49" transform="translate(1102.31 52.91) rotate(90)"/><path class="cls-4" d="M429.21,291.13h0a95.49,95.49,0,0,1,95.49,95.49v95.49a0,0,0,0,1,0,0h0a95.49,95.49,0,0,1-95.49-95.49V291.13a0,0,0,0,1,0,0Z" transform="translate(863.58 -90.33) rotate(90)"/><path class="cls-5" d="M381.46,338.88h0A95.49,95.49,0,0,1,477,434.37v0a0,0,0,0,1,0,0h0a95.49,95.49,0,0,1-95.49-95.49v0A0,0,0,0,1,381.46,338.88Z" transform="translate(815.83 -42.58) rotate(90)"/><path class="cls-4" d="M429.21,577.13h0a95.49,95.49,0,0,1,95.49,95.49v95.49a0,0,0,0,1,0,0h0a95.49,95.49,0,0,1-95.49-95.49V577.13A0,0,0,0,1,429.21,577.13Z" transform="matrix(0, -1, 1, 0, -195.67, 1149.58)"/><path class="cls-5" d="M477,624.88h0a95.49,95.49,0,0,1,95.49,95.49v0a0,0,0,0,1,0,0h0A95.49,95.49,0,0,1,477,624.88v0A0,0,0,0,1,477,624.88Z" transform="translate(-147.93 1197.32) rotate(-90)"/><path class="cls-8" d="M477,338.88h0a95.49,95.49,0,0,0-95.49,95.49h0"/><path class="cls-4" d="M572.75,529.86h0a95.49,95.49,0,0,1,95.49,95.49v0a0,0,0,0,1,0,0H572.75a0,0,0,0,1,0,0V529.86A0,0,0,0,1,572.75,529.86Z" transform="translate(1198.11 -42.89) rotate(90)"/><path class="cls-3" d="M572.44,338.88h0a95.49,95.49,0,0,1,95.49,95.49v0a0,0,0,0,1,0,0H572.44a0,0,0,0,1,0,0V338.88A0,0,0,0,1,572.44,338.88Z"/><path class="cls-6" d="M477,434.37h0a95.49,95.49,0,0,1,95.49,95.49v0a0,0,0,0,1,0,0H477a0,0,0,0,1,0,0V434.37A0,0,0,0,1,477,434.37Z" transform="translate(1049.4 964.24) rotate(180)"/><rect class="cls-5" x="381.46" y="434.37" width="95.49" height="95.49" transform="translate(911.32 52.91) rotate(90)"/><rect class="cls-3" x="381.46" y="529.86" width="95.49" height="95.49" transform="translate(1006.82 148.4) rotate(90)"/><circle class="cls-6" cx="429.21" cy="577.61" r="28.16"/><path class="cls-7" d="M477,410.19a71.31,71.31,0,0,0,71.31-71.31h24.18A95.49,95.49,0,0,1,477,434.37h0Z"/><path class="cls-7" d="M572.44,434.37h0a95.49,95.49,0,0,1,95.49,95.49v0a0,0,0,0,1,0,0h0a95.49,95.49,0,0,1-95.49-95.49v0a0,0,0,0,1,0,0Z" transform="translate(1102.31 -138.07) rotate(90)"/><rect class="cls-5" x="190.59" y="338.88" width="95.49" height="95.49" transform="translate(-148.29 624.97) rotate(-90)"/><path class="cls-4" d="M238.34,482.12h0a95.49,95.49,0,0,1,95.49,95.49V673.1a0,0,0,0,1,0,0h0a95.49,95.49,0,0,1-95.49-95.49V482.12A0,0,0,0,1,238.34,482.12Z" transform="translate(-291.52 863.7) rotate(-90)"/><path class="cls-5" d="M286.09,529.86h0a95.49,95.49,0,0,1,95.49,95.49v0a0,0,0,0,1,0,0h0a95.49,95.49,0,0,1-95.49-95.49v0A0,0,0,0,1,286.09,529.86Z" transform="matrix(0, -1, 1, 0, -243.78, 911.44)"/><path class="cls-4" d="M94.8,338.88h0a95.49,95.49,0,0,1,95.49,95.49v0a0,0,0,0,1,0,0H94.8a0,0,0,0,1,0,0V338.88A0,0,0,0,1,94.8,338.88Z" transform="translate(-244.08 529.17) rotate(-90)"/><path class="cls-3" d="M-.2,433.88h0a95.49,95.49,0,0,1,95.49,95.49v0a0,0,0,0,1,0,0H-.2a0,0,0,0,1,0,0V433.88A0,0,0,0,1-.2,433.88Z" transform="translate(-434.08 529.17) rotate(-90)"/><path class="cls-3" d="M95.1,529.86h0a95.49,95.49,0,0,1,95.49,95.49v0a0,0,0,0,1,0,0H95.1a0,0,0,0,1,0,0V529.86A0,0,0,0,1,95.1,529.86Z" transform="translate(285.7 1155.22) rotate(180)"/><path class="cls-6" d="M190.59,434.37h0a95.49,95.49,0,0,1,95.49,95.49v0a0,0,0,0,1,0,0H190.59a0,0,0,0,1,0,0V434.37A0,0,0,0,1,190.59,434.37Z"/><path class="cls-7" d="M286.09,554a71.32,71.32,0,0,0-71.32,71.32H190.59a95.5,95.5,0,0,1,95.5-95.5h0Z"/><path class="cls-7" d="M95.1,434.37h0a95.49,95.49,0,0,1,95.49,95.49v0a0,0,0,0,1,0,0h0A95.49,95.49,0,0,1,95.1,434.37v0A0,0,0,0,1,95.1,434.37Z" transform="translate(-339.27 624.97) rotate(-90)"/><rect class="cls-5" x="190.59" y="52.4" width="95.49" height="95.49" transform="translate(138.19 338.49) rotate(-90)"/><path class="cls-4" d="M238.34,195.64h0a0,0,0,0,1,0,0v95.49a95.49,95.49,0,0,1-95.49,95.49h0a0,0,0,0,1,0,0V291.13A95.49,95.49,0,0,1,238.34,195.64Z" transform="translate(-100.54 481.73) rotate(-90)"/><path class="cls-5" d="M190.59,243.39h0a0,0,0,0,1,0,0v0A95.49,95.49,0,0,1,95.1,338.88h0a0,0,0,0,1,0,0v0a95.49,95.49,0,0,1,95.49-95.49Z" transform="translate(-148.29 433.98) rotate(-90)"/><path class="cls-4" d="M429.34-90.36h0a0,0,0,0,1,0,0V5.13a95.49,95.49,0,0,1-95.49,95.49h0a0,0,0,0,1,0,0V5.13A95.49,95.49,0,0,1,429.34-90.36Z" transform="translate(376.46 386.73) rotate(-90)"/><path class="cls-5" d="M381.59-42.61h0a0,0,0,0,1,0,0v0A95.49,95.49,0,0,1,286.1,52.88h0a0,0,0,0,1,0,0v0A95.49,95.49,0,0,1,381.59-42.61Z" transform="translate(328.71 338.98) rotate(-90)"/><path class="cls-8" d="M190.59,338.88h0A95.49,95.49,0,0,1,95.1,243.39h0"/><path class="cls-4" d="M286,52.4h95.49a0,0,0,0,1,0,0v0A95.49,95.49,0,0,1,286,147.9h0a0,0,0,0,1,0,0V52.4a0,0,0,0,1,0,0Z" transform="translate(233.59 433.89) rotate(-90)"/><path class="cls-9" d="M286.09,625.39h95.16a0,0,0,0,1,0,0v0a95.16,95.16,0,0,1-95.16,95.16h0a0,0,0,0,1,0,0V625.39A0,0,0,0,1,286.09,625.39Z"/><path class="cls-6" d="M190.59,147.9h95.49a0,0,0,0,1,0,0v0a95.49,95.49,0,0,1-95.49,95.49h0a0,0,0,0,1,0,0V147.9A0,0,0,0,1,190.59,147.9Z" transform="translate(476.68 391.28) rotate(180)"/><rect class="cls-7" x="95.1" y="147.9" width="95.49" height="95.49" transform="translate(-52.79 338.49) rotate(-90)"/><rect class="cls-3" x="190.5" y="52.4" width="95.49" height="95.49" transform="translate(138.09 338.39) rotate(-90)"/><path class="cls-7" d="M190.59,267.57a71.31,71.31,0,0,1,71.32,71.31h24.18a95.5,95.5,0,0,0-95.5-95.49h0Z"/><path class="cls-7" d="M261.93,338.2a71.69,71.69,0,0,1-71.69,71.7v24.3h0a96,96,0,0,0,96-96H261.93Z"/><path class="cls-7" d="M381.58,147.9h0a0,0,0,0,1,0,0v0a95.49,95.49,0,0,1-95.49,95.49h0a0,0,0,0,1,0,0v0A95.49,95.49,0,0,1,381.58,147.9Z" transform="translate(138.19 529.47) rotate(-90)"/><path class="cls-7" d="M190.58-43.1h0a0,0,0,0,1,0,0v0A95.49,95.49,0,0,1,95.09,52.39h0a0,0,0,0,1,0,0v0A95.49,95.49,0,0,1,190.58-43.1Z" transform="translate(138.19 147.47) rotate(-90)"/><path class="cls-10" d="M381.15,624.71h.18a98.1,98.1,0,0,1,94.9-93.91c0-.36,0-.72,0-1.09v-.05a98.09,98.09,0,0,1-94.94-94.95h-.11a98.1,98.1,0,0,1-94.95,94.95v.05c0,.37,0,.73,0,1.09A98.09,98.09,0,0,1,381.15,624.71Z"/><path class="cls-11" d="M142.7,242.71h.09a49,49,0,0,1,47.45-47v-.57a49,49,0,0,1-47.47-47.48h-.05a49.07,49.07,0,0,1-47.48,47.48v0c0,.18,0,.36,0,.55A49.05,49.05,0,0,1,142.7,242.71Z"/><path class="cls-3" d="M286.09,338.88h.15l-.15-95.49h95.49A95.49,95.49,0,0,1,286.09,338.88Z"/><path class="cls-4" d="M381.09,243.39v.15l95.49-.15v95.49h0A95.49,95.49,0,0,1,381.09,243.39Z"/></g></svg>