<svg xmlns="http://www.w3.org/2000/svg" fill="none" viewBox="0 0 383 764" preserveAspectRatio="xMidYMid meet">
  <g >
    <path stroke="#223154" stroke-miterlimit="10" stroke-width=".78" d="M191.39 381a95.494 95.494 0 0167.522 27.968 95.494 95.494 0 0127.968 67.522v0a95.483 95.483 0 01-67.522-27.968A95.494 95.494 0 01191.39 381v0z"/>
    <path fill="#DA6E47" d="M191.26 190.03H95.77a95.49 95.49 0 0195.49-95.46v95.46z"/>
    <path fill="#EFD7B1" d="M95.77 285.56a95.495 95.495 0 0127.968-67.522 95.494 95.494 0 0167.522-27.968 95.49 95.49 0 01-95.49 95.49zM191.73 572.04a95.494 95.494 0 0167.522 27.968 95.495 95.495 0 0127.968 67.522 95.483 95.483 0 01-67.522-27.968 95.488 95.488 0 01-27.968-67.522z"/>
    <path fill="#DA6E47" d="M191.27 381.01a95.494 95.494 0 01-27.968 67.522A95.494 95.494 0 0195.78 476.5a95.494 95.494 0 0127.968-67.522 95.494 95.494 0 0167.522-27.968z"/>
    <path fill="#EED5AD" d="M382.27 381.01a95.494 95.494 0 01-27.968 67.522A95.494 95.494 0 01286.78 476.5a95.494 95.494 0 0127.968-67.522 95.494 95.494 0 0167.522-27.968z"/>
    <path fill="#DA6E47" d="M95.75 572a95.5 95.5 0 01-67.528-27.965A95.486 95.486 0 01.25 476.51h95.5V572z"/>
    <path fill="#152549" d="M191.85 571.99v-95.36H95.76v95.36h96.09z"/>
    <path fill="#D44B36" d="M191.25 667.49V572H95.76v95.49h95.49z"/>
    <path fill="#DA6E47" d="M143.51 647.91c15.552 0 28.16-12.608 28.16-28.16s-12.608-28.16-28.16-28.16-28.16 12.608-28.16 28.16 12.608 28.16 28.16 28.16z"/>
    <path fill="#EFD7B1" d="M95.79 476.49V381H.3v95.49h95.49z"/>
    <path fill="#152549" d="M48.04 456.91c15.552 0 28.16-12.608 28.16-28.16s-12.608-28.16-28.16-28.16-28.16 12.608-28.16 28.16 12.608 28.16 28.16 28.16z"/>
    <path fill="#D44B36" d="M95.79 190.49V95H.3v95.49h95.49z"/>
    <path fill="#DA6E47" d="M48.04 170.91c15.552 0 28.16-12.608 28.16-28.16s-12.608-28.16-28.16-28.16-28.16 12.608-28.16 28.16 12.608 28.16 28.16 28.16z"/>
    <path fill="#EFD7B1" d="M190.79 95.49V0H95.3v95.49h95.49z"/>
    <path fill="#152549" d="M143.04 75.91c15.552 0 28.16-12.608 28.16-28.16s-12.608-28.16-28.16-28.16-28.16 12.608-28.16 28.16 12.608 28.16 28.16 28.16z"/>
    <path fill="#D44B36" d="M286.95 476.78h-95.49v95.49h95.49v-95.49z"/>
    <path fill="#EFD7B1" fill-rule="evenodd" d="M95.45 666.85h.19a98.093 98.093 0 0194.89-93.91V571.8a98.1 98.1 0 01-94.93-94.95h-.11A98.099 98.099 0 01.55 571.8V572.94a98.09 98.09 0 0194.9 93.91z" clip-rule="evenodd"/>
    <path fill="#D44B36" d="M191.39 381h.15l-.15-95.5h95.49a95.498 95.498 0 01-95.49 95.5zM.39 381h.15l-.15-95.5h95.49A95.5 95.5 0 01.39 381z"/>
    <path fill="#7BA69C" d="M95.39 285.52v.16l95.49-.16V381a95.502 95.502 0 01-95.49-95.48zM.39 667.52v.16l95.49-.16V763A95.502 95.502 0 01.39 667.52zM191.39 190h.15l-.15-95.5h95.49a95.498 95.498 0 01-95.49 95.5z"/>
    <path stroke="#223154" stroke-miterlimit="10" stroke-width=".78" d="M.39 190a95.487 95.487 0 0188.221 58.948 95.486 95.486 0 017.269 36.542v0A95.493 95.493 0 01.39 190v0z"/>
  </g>
</svg>
