<svg xmlns="http://www.w3.org/2000/svg" fill="none" viewBox="0 0 382 764" preserveAspectRatio="xMidYMid meet">
  <g>
    <path fill="#D44B36" d="M285.5 190.98v95.49h95.49v-95.49H285.5z"/>
    <path fill="#DA6E47" d="M333.1 267.4c15.552 0 28.16-12.608 28.16-28.16s-12.608-28.16-28.16-28.16-28.16 12.608-28.16 28.16 12.608 28.16 28.16 28.16z"/>
    <path stroke="#223154" stroke-miterlimit="10" stroke-width=".78" d="M285.87 478a95.504 95.504 0 00-67.529 27.971A95.504 95.504 0 00190.37 573.5v0"/>
    <path fill="#152549" d="M190.5 381.98v95.49h95.49v-95.49H190.5z"/>
    <path fill="#7BA69C" d="M95.51 668.46A95.491 95.491 0 01191 572.97h95.49A95.491 95.491 0 01191 668.46H95.51z"/>
    <path fill="#152549" d="M191.03 668.46a95.49 95.49 0 0195.49-95.49 95.495 95.495 0 01-27.968 67.522 95.494 95.494 0 01-67.522 27.968z"/>
    <path fill="#7BA69C" d="M285.73 191.48a95.49 95.49 0 0195.49-95.49v95.49h-95.49zM95.71 478a95.483 95.483 0 0167.522 27.968A95.488 95.488 0 01191.2 573.49H95.71V478z"/>
    <path fill="#EFD7B1" d="M95.73 382.48a95.488 95.488 0 0195.49-95.49v95.49H95.73z"/>
    <path fill="#D44B36" d="M95.52 668.43A95.493 95.493 0 01.03 572.94h95.49v95.49z"/>
    <path fill="#DA6E47" d="M285.51 573.48a95.483 95.483 0 0167.532 27.979A95.486 95.486 0 01381 669h-95.49v-95.52z"/>
    <path fill="#EFD7B1" d="M191 597.15a71.31 71.31 0 00-71.31 71.31H95.51A95.49 95.49 0 01191 573v24.15z"/>
    <path fill="#D44B36" d="M95.02 477.98a95.493 95.493 0 0158.964-88.248 95.493 95.493 0 0136.556-7.262 95.47 95.47 0 01-7.266 36.555A95.476 95.476 0 0195.02 477.98z"/>
    <path fill="#7BA69C" d="M190.02.5h95.49a95.486 95.486 0 0167.522 27.968A95.493 95.493 0 01381 95.99h-95.49A95.492 95.492 0 01190.02.5z"/>
    <path fill="#152549" d="M191.01.49A95.49 95.49 0 01286.52 96 95.49 95.49 0 01191.01.49z"/>
    <path fill="#DA6E47" d="M190.91 191V95.51a95.499 95.499 0 0167.522 27.968A95.488 95.488 0 01286.4 191h-95.49z"/>
    <path fill="#D54D38" d="M191 668.49h95.16A95.16 95.16 0 01191 763.65v-95.16z"/>
    <path stroke="#223154" stroke-miterlimit="10" stroke-width=".78" d="M190.49 96a95.483 95.483 0 01-27.968 67.522A95.488 95.488 0 0195 191.49v0a95.494 95.494 0 0127.968-67.522A95.494 95.494 0 01190.49 96v0z"/>
    <path fill="#EFD7B1" d="M380.8 453.13a71.312 71.312 0 01-71.31-71.31h-24.18a95.494 95.494 0 0058.948 88.221 95.483 95.483 0 0036.542 7.269v-24.18z"/>
    <path fill="#EFD7B1" d="M309.46 382.49a71.702 71.702 0 0171.7-71.69v-24.31a95.996 95.996 0 00-67.882 28.118 95.996 95.996 0 00-28.118 67.882h24.3zM191 191a95.494 95.494 0 0167.522 27.968 95.494 95.494 0 0127.968 67.522 95.494 95.494 0 01-67.522-27.968A95.494 95.494 0 01191 191z"/>
    <path fill="#DA6E47" d="M0 0a95.49 95.49 0 0195.49 95.49A95.49 95.49 0 010 0z"/>
    <path fill="#EFD7B1" d="M286.02 478v95.49h95.49V478h-95.49z"/>
    <path fill="#7BA69C" fill-rule="evenodd" d="M333.61 572.82h.09a49.002 49.002 0 0147.45-47v-.54a49.06 49.06 0 01-47.48-47.47h-.05a48.999 48.999 0 01-47.47 47.47v.57a49 49 0 0147.46 46.97z" clip-rule="evenodd"/>
    <path fill="#D44B36" d="M191 382h.16l-.16-95.51h95.49a95.478 95.478 0 01-27.961 67.535A95.495 95.495 0 01191 382z"/>
  </g>
</svg>
