<svg xmlns="http://www.w3.org/2000/svg" viewBox="0 0 52 33">
    <path fill="none" stroke="white" stroke-width=".7"
        d="M22.1818197 1.83472768C21.8568197 2.42949342 21.443972 3.02078185 21.1777934 3.64182871 20.4698505 5.29369547 22.6785987 1.845123 22.7891404 1.63988873 23.6380789.0632415898 22.3938256-.601546112 21.1289647.663314796 18.3335401 3.45873939 16.8389574 7.34307321 15.2207656 10.8684026 13.1663366 15.3440981 11.0701067 19.8435125 8.67779339 24.1496252 7.55107304 26.1777731 5.05158549 31.263754 2.2813073 31.5715871-.248341307 31.8526999-.173707339 27.0943177.181709938 25.7121435.639140392 23.9332269 1.35791784 22.4149985 2.42779339 20.9270044 6.98401594 14.5900718 14.6947773 12.1189517 21.8613952 10.0383148M27.2735474 8.04911275C26.4785621 5.91836604 20.2892136 11.5447204 21.8613952 12.7238565 22.9126397 13.5122899 26.4173615 9.1019678 26.9395064 8.23168961 27.0674713 8.01862226 27.5059779 7.77257541 27.3302824 7.59691655 27.2325518 7.49925916 27.1264025 7.78443485 27.0370906 7.88988873 26.684748 8.30636018 23.5351872 12.8703426 25.328196 12.8703426 26.0958388 12.8703426 28.4481448 9.786082 28.8925079 9.20822695 29.5081741 8.40815374 30.3745723 7.20065008 30.3573688 7.20628698 30.0228154 7.3178536 29.575524 7.94248756 29.5275738 8.28051831 29.4474127 8.83996194 30.5916294 8.55207761 30.2600042 9.9894861 30.1769149 10.3484905 29.3214976 12.6453426 29.7717173 12.8703426 30.518789 13.2439151 34.2537817 10.1139737 34.8496821 9.64768522 35.7113219 8.97341729 36.7138842 8.47341729 37.5352605 7.74340264 37.541849 7.73765594 37.8793307 7.46829283 37.7794039 7.40160177 37.2270613 7.03340996 33.3566367 10.5503207 33.7266953 11.84494 33.9686426 12.6921947 36.3163732 9.63575257 36.6073688 9.25705565 36.8767685 8.90698244 37.1688622 8.56752417 37.3888476 8.18286092 37.4144698 8.13816838 37.473767 7.99995462 37.4375298 8.03637483 36.6450701 8.82876136 35.0996821 11.1360088 35.7384083 12.2856428 36.370912 13.4240029 38.5268417 11.7605696 39.0488036 11.4055183 40.4272809 10.4681098 48.1798432 3.56638947 48.1798432 2.1770044 48.1798432 1.97305125 47.7951433 2.33447146 47.6425079 2.46993998 47.0143966 3.02839532 46.4466807 3.70328551 45.8848212 4.32543046 44.3463878 6.02879796 42.8013659 7.7758331 41.5392868 9.69651392 40.9979252 10.5200864 40.5125665 11.3344715 40.0253776 12.1867409 39.9459486 12.3259429 39.7168124 12.7395593 39.8302824 12.6261991 40.405319 12.0509795 40.7889208 11.2345813 41.3438256 10.6242592 41.7105899 10.2207819 42.0378227 9.93454466 42.4668124 9.59885652 42.9148359 9.24834408 43.0228154 9.16148464 43.541117 8.96408346 45.8851872 8.07111128 44.0674713 11.3759429 43.9803556 12.3332269 43.9671785 12.482019 43.9986572 12.7489663 44.2244991 12.7238565 45.1600774 12.61994 49.2779398 9.29380528 50.7190086 8.57345389"
        transform="translate(.633 .52)" />
</svg>