<svg width="180" height="180" viewBox="0 0 180 180" fill="none" xmlns="http://www.w3.org/2000/svg">
<rect width="180" height="180" rx="90" fill="#FEDCBE" fill-opacity="0.1"/>
<path d="M48 74.1429L85.1985 98.9419C88.3656 101.053 92.4915 101.053 95.6586 98.9419L132.857 74.1429M57.4286 126H123.429C128.636 126 132.857 121.779 132.857 116.571V69.4286C132.857 64.2213 128.636 60 123.429 60H57.4286C52.2213 60 48 64.2213 48 69.4286V116.571C48 121.779 52.2213 126 57.4286 126Z" stroke="#DDE4FE" stroke-width="5" stroke-linecap="round" stroke-linejoin="round"/>
<circle opacity="0.98" cx="128" cy="65" r="25" fill="#FEBA77"/>
<path fill-rule="evenodd" clip-rule="evenodd" d="M139.498 56.527C139.819 56.8646 140 57.3224 140 57.7997C140 58.277 139.819 58.7348 139.498 59.0723L125.771 73.473C125.449 73.8104 125.013 74 124.558 74C124.103 74 123.667 73.8104 123.345 73.473L116.482 66.2727C116.169 65.9332 115.996 65.4785 116 65.0065C116.004 64.5345 116.184 64.083 116.503 63.7493C116.821 63.4155 117.251 63.2262 117.701 63.2221C118.151 63.218 118.584 63.3994 118.908 63.7273L124.558 69.655L137.071 56.527C137.393 56.1896 137.83 56 138.285 56C138.74 56 139.176 56.1896 139.498 56.527Z" fill="white"/>
</svg>
