<svg xmlns="http://www.w3.org/2000/svg" width="321" height="198" fill="none" viewBox="0 0 321 198">
  <g filter="url(#a)">
    <rect width="313.836" height="191" y="7" fill="#1E293B" rx="11.361"/>
  </g>
  <circle cx="306.5" cy="14.5" r="14.5" fill="#F43F5E"/>
  <path fill="#fff" d="M306.452 8c-.319 1.37-1.351 1.857-3.452 1.857v2.176h2.758v9.098h2.588V8h-1.894Z"/>
  <path fill="#0F172A" stroke="#1E293B" stroke-width=".71" d="M.355 18.36c0-6.078 4.927-11.005 11.006-11.005H102.6v190.29H11.36c-6.078 0-11.005-4.927-11.005-11.006V18.361Z"/>
  <rect width="83.074" height="7.1" x="7.101" y="41.792" fill="#1E293B" opacity=".5" rx="3.55"/>
  <rect width="175.379" height="7.1" x="119.996" y="77.071" fill="#334155" opacity=".5" rx="3.55"/>
  <rect width="127.097" height="7.1" x="144.138" y="89.141" fill="#334155" opacity=".5" rx="3.55"/>
  <rect width="85.915" height="7.1" x="164.729" y="65" fill="#334155" opacity=".5" rx="3.55"/>
  <rect width="32" height="7" x="191.918" y="25" fill="#334155" opacity=".5" rx="3.5"/>
  <rect width="32" height="7" x="191.918" y="176" fill="#334155" opacity=".5" rx="3.5"/>
  <rect width="61.773" height="7.1" x="7.101" y="52.442" fill="#1E293B" opacity=".3" rx="3.55"/>
  <path fill="#334155" d="M11.965 21.106v5.965h1.168v-5.965h-1.168Zm6.231 0v4.022l-.247-.41-2.445-3.612h-1.159v5.965h1.167v-3.997l.23.392 2.454 3.605h1.176v-5.965h-1.176Zm2.381 0v5.965h2.173c.613 0 1.1-.162 1.465-.478.367-.323.554-.75.554-1.278 0-.639-.332-1.116-.852-1.346.35-.273.52-.656.52-1.159 0-1.056-.758-1.704-1.96-1.704h-1.9Zm2.173 3.468c.511 0 .8.256.8.699 0 .443-.297.707-.8.707h-1.005v-1.406h1.005Zm-.273-2.377c.477 0 .759.247.759.698 0 .401-.282.657-.75.657h-.741v-1.355h.732Zm5.988-1.201c-.904 0-1.645.29-2.224.877-.58.58-.87 1.312-.87 2.207 0 .895.29 1.636.87 2.224.579.588 1.32.877 2.224.877.894 0 1.635-.29 2.215-.877.58-.588.869-1.33.869-2.224 0-.895-.29-1.627-.87-2.207-.579-.588-1.32-.878-2.214-.878Zm0 1.09c.553 0 1.005.188 1.346.562.349.375.52.852.52 1.432 0 .588-.171 1.065-.52 1.448-.341.375-.793.563-1.346.563-.563 0-1.014-.188-1.364-.563-.34-.383-.511-.86-.511-1.448 0-.58.17-1.057.511-1.432.35-.375.801-.562 1.364-.562Zm7.394-.98-1.372 2.07-1.372-2.07h-1.38l1.951 2.94-2.002 3.025h1.372l1.431-2.156 1.432 2.156h1.38l-2.01-3.025 1.95-2.94h-1.38Z" opacity=".7"/>
  <mask id="b" fill="#fff">
    <path d="M7.1 80.844a3.55 3.55 0 0 1 3.55-3.55h80.944a3.55 3.55 0 0 1 3.55 3.55v13.49a3.55 3.55 0 0 1-3.55 3.55H10.65a3.55 3.55 0 0 1-3.55-3.55v-13.49Z"/>
  </mask>
  <path fill="#1E293B" d="M7.1 80.844a3.55 3.55 0 0 1 3.55-3.55h80.944a3.55 3.55 0 0 1 3.55 3.55v13.49a3.55 3.55 0 0 1-3.55 3.55H10.65a3.55 3.55 0 0 1-3.55-3.55v-13.49Z"/>
  <path fill="#1E293B" d="M10.65 78.004h80.944v-1.42H10.65v1.42Zm83.784 2.84v13.49h1.42v-13.49h-1.42Zm-2.84 16.33H10.65v1.42h80.944v-1.42ZM7.81 94.335v-13.49H6.39v13.49h1.42Zm2.84 2.84a2.84 2.84 0 0 1-2.84-2.84H6.39a4.26 4.26 0 0 0 4.26 4.26v-1.42Zm83.784-2.84a2.84 2.84 0 0 1-2.84 2.84v1.42a4.26 4.26 0 0 0 4.26-4.26h-1.42Zm-2.84-16.33a2.84 2.84 0 0 1 2.84 2.84h1.42a4.26 4.26 0 0 0-4.26-4.26v1.42Zm-80.944-1.42a4.26 4.26 0 0 0-4.26 4.26h1.42a2.84 2.84 0 0 1 2.84-2.84v-1.42Z" mask="url(#b)"/>
  <rect width="87.335" height="14.201" x="7.456" y="107.47" fill="#1E293B" stroke="#1E293B" stroke-width=".71" opacity=".5" rx="3.195"/>
  <rect width="87.335" height="14.201" x="7.456" y="130.191" fill="#1E293B" stroke="#1E293B" stroke-width=".71" opacity=".5" rx="3.195"/>
  <rect width="87.335" height="14.201" x="7.456" y="152.913" fill="#1E293B" stroke="#1E293B" stroke-width=".71" opacity=".5" rx="3.195"/>
  <rect width="87.335" height="14.201" x="7.456" y="175.634" fill="#1E293B" stroke="#1E293B" stroke-width=".71" opacity=".5" rx="3.195"/>
  <circle cx="17.041" cy="87.944" r="2.13" fill="#22D3EE"/>
  <rect width="99.405" height="25.653" x="158.339" y="107" fill="url(#c)" rx="2.672"/>
  <path fill="#A5F3FC" fill-rule="evenodd" d="m263.855 136.03 4.564 4.564a2.004 2.004 0 0 1 0 2.824 2.003 2.003 0 0 1-2.823 0l-4.563-4.564-2.212 2.931a.783.783 0 0 1-1.352-.18l-5.42-13.541c-.255-.636.381-1.272 1.017-1.018l13.541 5.42a.783.783 0 0 1 .18 1.353l-2.931 2.211h-.001Z" clip-rule="evenodd"/>
  <path fill="#A5F3FC" d="M245.195 121.19a.704.704 0 1 1 .995-.997l4.32 4.319a.704.704 0 1 1-.997.996l-4.318-4.318Zm7.006-3.486a.704.704 0 1 1 1.408 0v6.106a.703.703 0 1 1-1.408 0v-6.106Zm7.421 2.489a.704.704 0 1 1 .996.997l-4.318 4.318a.704.704 0 0 1-.996-.996l4.318-4.319Zm-16.917 8.417a.705.705 0 1 1 0-1.41h6.106a.705.705 0 1 1 0 1.41h-6.106Zm3.485 7.008a.703.703 0 1 1-.995-.997l4.318-4.318a.706.706 0 0 1 .997.997l-4.32 4.318Z"/>
  <path fill="#fff" d="M193.023 116.591c-1.06 0-1.933.354-2.619 1.07-.675.707-1.018 1.601-1.018 2.692 0 1.091.343 1.995 1.018 2.712.686.717 1.559 1.07 2.629 1.07 1.818 0 2.951-.925 3.356-2.546h-1.506c-.281.811-.904 1.216-1.85 1.216-.644 0-1.164-.229-1.569-.686-.395-.467-.592-1.049-.592-1.766 0-.707.197-1.289.592-1.746.405-.457.925-.686 1.559-.686.904 0 1.486.385 1.766 1.154h1.569c-.405-1.528-1.548-2.484-3.335-2.484Zm6.736 2.026c-.8 0-1.455.26-1.974.769-.52.51-.779 1.164-.779 1.975 0 .81.259 1.475.779 1.984.519.51 1.174.769 1.974.769s1.465-.259 1.985-.769c.53-.509.79-1.174.79-1.984 0-.811-.26-1.465-.79-1.975-.52-.509-1.185-.769-1.985-.769Zm.011 1.227c.82 0 1.361.633 1.361 1.517 0 .873-.561 1.517-1.361 1.517-.406 0-.728-.146-.988-.426-.259-.291-.384-.655-.384-1.091 0-.437.125-.8.384-1.081.26-.291.582-.436.988-.436Zm6.501-1.227c-.665 0-1.143.271-1.424.801l-.104-.686h-1.153V124h1.34v-2.785c0-.831.385-1.288.935-1.288.499 0 .749.311.749.945V124h1.361v-3.419c0-1.215-.592-1.964-1.704-1.964Zm5.213-2.317c-1.236 0-1.88.645-1.88 1.881v.551h-.852v1.226h.852V124h1.361v-4.042h1.133v-1.226h-1.133v-.52c0-.488.197-.727.592-.727.177 0 .364.041.541.114v-1.205a2.028 2.028 0 0 0-.614-.094Zm1.486 2.432V124h1.351v-5.268h-1.351Zm.676-2.349a.806.806 0 0 0-.821.801c0 .457.364.8.821.8.457 0 .821-.343.821-.8a.812.812 0 0 0-.821-.801Zm4.968 2.297c-.831 0-1.341.363-1.538.893l-.125-.841h-1.163V124h1.35v-2.681c.021-.447.167-.769.426-.977.271-.207.624-.311 1.05-.311v-1.351Zm6.672-.063c-.706 0-1.257.385-1.517.925-.259-.613-.769-.925-1.506-.925-.655 0-1.123.271-1.403.801l-.104-.686h-1.153V124h1.34v-2.785c0-.841.384-1.288.925-1.288.488 0 .738.311.738.945V124h1.35v-2.847c.011-.8.395-1.226.925-1.226.489 0 .738.311.738.945V124h1.351v-3.419c0-1.215-.593-1.964-1.684-1.964Z"/>
  <defs>
    <linearGradient id="c" x1="208.041" x2="208.041" y1="107" y2="132.653" gradientUnits="userSpaceOnUse">
      <stop stop-color="#25B6D9"/>
      <stop offset="1" stop-color="#0891B2"/>
    </linearGradient>
    <filter id="a" width="316.676" height="193.84" x="-1.42" y="5.58" color-interpolation-filters="sRGB" filterUnits="userSpaceOnUse">
      <feFlood flood-opacity="0" result="BackgroundImageFix"/>
      <feGaussianBlur in="BackgroundImage" stdDeviation=".71"/>
      <feComposite in2="SourceAlpha" operator="in" result="effect1_backgroundBlur_142_278"/>
      <feBlend in="SourceGraphic" in2="effect1_backgroundBlur_142_278" result="shape"/>
    </filter>
  </defs>
</svg>
