<svg xmlns="http://www.w3.org/2000/svg" width="238" height="163" fill="none" viewBox="0 0 238 163">
  <g clip-path="url(#clip0_204_2065)">
    <path fill="url(#paint0_radial_204_2065)" d="M147.954 62.5l31-15.5 21 14-12.5 7.5-1.5 14.5-26.5 17.5-11.5-1.5V62.5z" opacity=".2"/>
    <path fill="url(#paint1_linear_204_2065)" fill-rule="evenodd" d="M190.17 48.137l-9.924-1.231a2 2 0 00-2.231 1.739l-1.231 9.923-1.477 11.91-1.231 9.923a2 2 0 001.738 2.231l7.94.985a2 2 0 002.231-1.739l1.231-9.924 1.477-11.908 9.924 1.23a2 2 0 002.231-1.738l.985-7.939a2 2 0 00-1.739-2.231l-9.924-1.231z" clip-rule="evenodd"/>
    <rect width="102" height="102" x="65.954" y="28" fill="#1A81FF" opacity=".2" rx="3"/>
    <rect width="102" height="102" x="65.954" y="28" fill="url(#paint2_radial_204_2065)" opacity=".2" rx="4.512"/>
    <rect width="68" height="68" x="81.253" y="46.791" fill="url(#paint3_linear_204_2065)" rx="3.29" transform="rotate(-2.944 81.253 46.791)"/>
    <path fill="#fff" d="M125.641 79.283l-13.495.694c-.276.014-.45.208-.436.484l.144 2.79c.014.277.207.451.483.437l4.662-.24.89 17.298c.014.276.207.45.483.436l3.282-.169c.276-.014.45-.207.436-.483l-.889-17.298 4.631-.238c.276-.014.45-.207.436-.484l-.144-2.79c-.014-.276-.207-.45-.483-.437zm6.398 5.544c-.065-1.257.9-2.229 2.617-2.317 1.534-.08 2.636.418 4.198 1.506.255.171.468.13.64-.125l1.581-2.142c.202-.256.192-.44-.033-.644-1.806-1.63-4.042-2.652-6.71-2.515-3.527.182-6.569 2.614-6.377 6.355.361 7.024 10.483 5.334 10.679 9.137.079 1.534-1.312 2.59-3.122 2.683-1.87.096-3.353-.628-4.891-1.84-.257-.202-.5-.159-.673.065l-1.738 2.089c-.173.224-.162.438.002.645 1.498 1.614 4.282 3.132 7.41 2.971 3.742-.193 7.335-2.684 7.126-6.732-.383-7.453-10.515-5.363-10.709-9.135z"/>
    <rect width="95" height="95" x="69.454" y="31.5" stroke="#1B7AFF" stroke-dasharray="2 5" stroke-linecap="square" opacity=".5" rx="1.5"/>
    <path fill="url(#paint4_linear_204_2065)" fill-rule="evenodd" d="M156.607 17.636a2 2 0 012.124-1.868l7.984.513a2 2 0 011.868 2.124l-.513 7.984a2 2 0 001.868 2.124l7.983.512a2 2 0 011.868 2.124l-.512 7.984A2 2 0 01177.153 41l-9.98-.641-11.975-.77-9.98-.64a2 2 0 01-1.867-2.124l.512-7.983a2 2 0 012.124-1.868l7.984.512a2 2 0 002.124-1.867l.512-7.984z" clip-rule="evenodd"/>
    <path fill="url(#paint5_linear_204_2065)" fill-rule="evenodd" d="M162.892 157.374a2.001 2.001 0 01-1.798 2.184l-7.962.772a2 2 0 01-2.184-1.797l-.773-7.963a2 2 0 00-2.183-1.798l-7.963.773a2 2 0 01-2.184-1.798l-.772-7.962a2 2 0 011.797-2.184l9.953-.966 11.944-1.158 9.954-.966a1.999 1.999 0 012.183 1.798l.773 7.962a2 2 0 01-1.798 2.184l-7.962.773a2 2 0 00-1.798 2.183l.773 7.963z" clip-rule="evenodd"/>
    <path fill="url(#paint6_linear_204_2065)" fill-rule="evenodd" d="M85.923 20.934l-.592-9.982a2 2 0 00-2.115-1.878l-9.983.592-11.979.71-9.982.592a2 2 0 00-1.878 2.115l.474 7.986a2 2 0 002.114 1.878l9.983-.592 11.979-.71.592 9.982a2 2 0 002.115 1.878l7.986-.474a2 2 0 001.878-2.114l-.592-9.983z" clip-rule="evenodd"/>
    <g filter="url(#filter0_d_204_2065)">
      <rect width="12" height="12" x="155.954" y="92" fill="url(#paint7_linear_204_2065)" rx="2"/>
    </g>
    <g filter="url(#filter1_d_204_2065)">
      <rect width="12" height="12" x="107.405" y="19.605" fill="url(#paint8_linear_204_2065)" rx="2" transform="rotate(-5.516 107.405 19.605)"/>
    </g>
    <g filter="url(#filter2_d_204_2065)" opacity=".6">
      <rect width="12" height="12" x="128.954" fill="url(#paint9_linear_204_2065)" rx="2"/>
    </g>
    <g filter="url(#filter3_d_204_2065)" opacity=".6">
      <rect width="12" height="12" x="96.839" y="151.377" fill="url(#paint10_linear_204_2065)" rx="2" transform="rotate(-11.99 96.839 151.377)"/>
    </g>
    <g filter="url(#filter4_d_204_2065)" opacity=".6">
      <rect width="12" height="12" x="198.954" y="72" fill="url(#paint11_linear_204_2065)" rx="2"/>
    </g>
    <g filter="url(#filter5_d_204_2065)" opacity=".6">
      <rect width="12" height="12" x="189.954" y="130" fill="url(#paint12_linear_204_2065)" rx="2"/>
    </g>
    <g filter="url(#filter6_d_204_2065)" opacity=".6">
      <rect width="12" height="12" x="13.954" y="96" fill="url(#paint13_linear_204_2065)" rx="2"/>
    </g>
    <g filter="url(#filter7_d_204_2065)">
      <rect width="12" height="12" x="56.954" y="139" fill="url(#paint14_linear_204_2065)" rx="2"/>
    </g>
    <g filter="url(#filter8_d_204_2065)">
      <rect width="12" height="12" x="219.123" y="85.024" fill="url(#paint15_linear_204_2065)" rx="2" transform="rotate(10.295 219.123 85.024)"/>
    </g>
    <path fill="url(#paint16_linear_204_2065)" fill-rule="evenodd" d="M187.954 105v10a2 2 0 002 2h32a2 2 0 002-2v-8a2 2 0 00-2-2h-22V95a2 2 0 00-2-2h-8a2 2 0 00-2 2v10z" clip-rule="evenodd"/>
    <path fill="url(#paint17_linear_204_2065)" fill-rule="evenodd" d="M2.283 43.425L.381 33.607a2 2 0 011.582-2.344l9.818-1.902 11.78-2.283 9.818-1.903a2 2 0 012.344 1.583l1.522 7.854a2 2 0 01-1.583 2.344l-9.817 1.902-11.781 2.284 1.902 9.817a2 2 0 01-1.583 2.344L6.53 54.825a2 2 0 01-2.343-1.583l-1.903-9.817z" clip-rule="evenodd"/>
    <path fill="url(#paint18_linear_204_2065)" fill-rule="evenodd" d="M46.806 132.904l9.947-1.029a2 2 0 001.784-2.195l-1.03-9.947-1.234-11.936-1.029-9.947a2 2 0 00-2.195-1.783l-7.958.823a2 2 0 00-1.783 2.195l1.029 9.947 1.235 11.936-9.947 1.029a2 2 0 00-1.784 2.195l.823 7.958a2 2 0 002.195 1.783l9.947-1.029z" clip-rule="evenodd"/>
    <g filter="url(#filter9_d_204_2065)">
      <path fill="url(#paint19_linear_204_2065)" fill-rule="evenodd" d="M31.626 48.47a2 2 0 012.195-1.785l7.957.82a2 2 0 011.785 2.194l-1.025 9.948-1.23 11.936-1.026 9.948a2 2 0 01-2.194 1.784l-7.958-.82a2 2 0 01-1.784-2.194l1.025-9.948 1.23-11.936 1.025-9.948z" clip-rule="evenodd"/>
    </g>
    <g filter="url(#filter10_d_204_2065)">
      <path fill="url(#paint20_linear_204_2065)" fill-rule="evenodd" d="M116.349 125.184a2 2 0 011.849 2.14l-.584 7.979a2 2 0 01-2.14 1.849l-9.974-.73-11.968-.876-9.973-.73a2 2 0 01-1.849-2.14l.584-7.979a2.001 2.001 0 012.14-1.849l9.974.73 11.968.876 9.973.73z" clip-rule="evenodd"/>
    </g>
    <path fill="url(#paint21_radial_204_2065)" d="M97.454 86.5l-20-22-21 23.5 21 15.5 20-17z" opacity=".2"/>
    <g filter="url(#filter11_d_204_2065)">
      <path fill="url(#paint22_linear_204_2065)" fill-rule="evenodd" d="M66.228 64.022l-9.981.605a2 2 0 00-1.876 2.117l.605 9.982.605 9.982a2 2 0 002.117 1.875l9.982-.605 9.982-.605a2 2 0 001.875-2.117l-.605-9.982-.605-9.982a2 2 0 00-2.117-1.875l-9.982.605z" clip-rule="evenodd"/>
    </g>
    <g filter="url(#filter12_d_204_2065)">
      <path fill="url(#paint23_linear_204_2065)" fill-rule="evenodd" d="M225.679 38.124l-9.896-1.437a2 2 0 00-2.267 1.692l-1.437 9.897-1.437 9.896a2 2 0 001.692 2.266l9.896 1.437 9.896 1.438a2 2 0 002.267-1.692l1.437-9.897 1.437-9.896a2 2 0 00-1.692-2.266l-9.896-1.438z" clip-rule="evenodd"/>
    </g>
  </g>
  <defs>
    <linearGradient id="paint1_linear_204_2065" x1="184.216" x2="179.784" y1="47.398" y2="83.124" gradientUnits="userSpaceOnUse">
      <stop stop-color="#1A81FF"/>
      <stop offset="1" stop-color="#1A68FF"/>
    </linearGradient>
    <linearGradient id="paint3_linear_204_2065" x1="115.253" x2="115.253" y1="46.791" y2="114.791" gradientUnits="userSpaceOnUse">
      <stop stop-color="#1A81FF"/>
      <stop offset="1" stop-color="#1A68FF"/>
    </linearGradient>
    <linearGradient id="paint4_linear_204_2065" x1="162.723" x2="161.185" y1="16.025" y2="39.975" gradientUnits="userSpaceOnUse">
      <stop stop-color="#1A81FF"/>
      <stop offset="1" stop-color="#1A68FF"/>
    </linearGradient>
    <linearGradient id="paint5_linear_204_2065" x1="157.113" x2="154.795" y1="159.944" y2="136.056" gradientUnits="userSpaceOnUse">
      <stop stop-color="#1A81FF"/>
      <stop offset="1" stop-color="#1A68FF"/>
    </linearGradient>
    <linearGradient id="paint6_linear_204_2065" x1="85.567" x2="49.631" y1="14.945" y2="17.076" gradientUnits="userSpaceOnUse">
      <stop stop-color="#1A81FF"/>
      <stop offset="1" stop-color="#1A68FF"/>
    </linearGradient>
    <linearGradient id="paint7_linear_204_2065" x1="161.954" x2="161.954" y1="92" y2="104" gradientUnits="userSpaceOnUse">
      <stop stop-color="#1A81FF"/>
      <stop offset="1" stop-color="#1A68FF"/>
    </linearGradient>
    <linearGradient id="paint8_linear_204_2065" x1="113.405" x2="113.405" y1="19.605" y2="31.605" gradientUnits="userSpaceOnUse">
      <stop stop-color="#1A81FF"/>
      <stop offset="1" stop-color="#1A68FF"/>
    </linearGradient>
    <linearGradient id="paint9_linear_204_2065" x1="134.954" x2="134.954" y1="0" y2="12" gradientUnits="userSpaceOnUse">
      <stop stop-color="#1A81FF"/>
      <stop offset="1" stop-color="#1A68FF"/>
    </linearGradient>
    <linearGradient id="paint10_linear_204_2065" x1="102.839" x2="102.839" y1="151.377" y2="163.377" gradientUnits="userSpaceOnUse">
      <stop stop-color="#1A81FF"/>
      <stop offset="1" stop-color="#1A68FF"/>
    </linearGradient>
    <linearGradient id="paint11_linear_204_2065" x1="204.954" x2="204.954" y1="72" y2="84" gradientUnits="userSpaceOnUse">
      <stop stop-color="#1A81FF"/>
      <stop offset="1" stop-color="#1A68FF"/>
    </linearGradient>
    <linearGradient id="paint12_linear_204_2065" x1="195.954" x2="195.954" y1="130" y2="142" gradientUnits="userSpaceOnUse">
      <stop stop-color="#1A81FF"/>
      <stop offset="1" stop-color="#1A68FF"/>
    </linearGradient>
    <linearGradient id="paint13_linear_204_2065" x1="19.954" x2="19.954" y1="96" y2="108" gradientUnits="userSpaceOnUse">
      <stop stop-color="#1A81FF"/>
      <stop offset="1" stop-color="#1A68FF"/>
    </linearGradient>
    <linearGradient id="paint14_linear_204_2065" x1="62.954" x2="62.954" y1="139" y2="151" gradientUnits="userSpaceOnUse">
      <stop stop-color="#1A81FF"/>
      <stop offset="1" stop-color="#1A68FF"/>
    </linearGradient>
    <linearGradient id="paint15_linear_204_2065" x1="225.123" x2="225.123" y1="85.024" y2="97.024" gradientUnits="userSpaceOnUse">
      <stop stop-color="#1A81FF"/>
      <stop offset="1" stop-color="#1A68FF"/>
    </linearGradient>
    <linearGradient id="paint16_linear_204_2065" x1="187.954" x2="223.954" y1="111" y2="111" gradientUnits="userSpaceOnUse">
      <stop stop-color="#1A81FF"/>
      <stop offset="1" stop-color="#1A68FF"/>
    </linearGradient>
    <linearGradient id="paint17_linear_204_2065" x1="1.142" x2="36.484" y1="37.534" y2="30.685" gradientUnits="userSpaceOnUse">
      <stop stop-color="#1A81FF"/>
      <stop offset="1" stop-color="#1A68FF"/>
    </linearGradient>
    <linearGradient id="paint18_linear_204_2065" x1="52.775" x2="49.07" y1="132.287" y2="96.478" gradientUnits="userSpaceOnUse">
      <stop stop-color="#1A81FF"/>
      <stop offset="1" stop-color="#1A68FF"/>
    </linearGradient>
    <linearGradient id="paint19_linear_204_2065" x1="37.8" x2="34.109" y1="47.095" y2="82.905" gradientUnits="userSpaceOnUse">
      <stop stop-color="#1A81FF"/>
      <stop offset="1" stop-color="#1A68FF"/>
    </linearGradient>
    <linearGradient id="paint20_linear_204_2065" x1="117.906" x2="82.002" y1="131.314" y2="128.687" gradientUnits="userSpaceOnUse">
      <stop stop-color="#1A81FF"/>
      <stop offset="1" stop-color="#1A68FF"/>
    </linearGradient>
    <linearGradient id="paint22_linear_204_2065" x1="66.228" x2="67.68" y1="64.022" y2="87.978" gradientUnits="userSpaceOnUse">
      <stop stop-color="#1A81FF"/>
      <stop offset="1" stop-color="#1A68FF"/>
    </linearGradient>
    <linearGradient id="paint23_linear_204_2065" x1="225.679" x2="222.23" y1="38.124" y2="61.875" gradientUnits="userSpaceOnUse">
      <stop stop-color="#1A81FF"/>
      <stop offset="1" stop-color="#1A68FF"/>
    </linearGradient>
    <filter id="filter0_d_204_2065" width="42" height="42" x="140.954" y="77" color-interpolation-filters="sRGB" filterUnits="userSpaceOnUse">
      <feFlood flood-opacity="0" result="BackgroundImageFix"/>
      <feColorMatrix in="SourceAlpha" result="hardAlpha" values="0 0 0 0 0 0 0 0 0 0 0 0 0 0 0 0 0 0 127 0"/>
      <feOffset/>
      <feGaussianBlur stdDeviation="7.5"/>
      <feComposite in2="hardAlpha" operator="out"/>
      <feColorMatrix values="0 0 0 0 0 0 0 0 0 0 0 0 0 0 0 0 0 0 0.25 0"/>
      <feBlend in2="BackgroundImageFix" result="effect1_dropShadow_204_2065"/>
      <feBlend in="SourceGraphic" in2="effect1_dropShadow_204_2065" result="shape"/>
    </filter>
    <filter id="filter1_d_204_2065" width="42.732" height="42.732" x="92.588" y="3.634" color-interpolation-filters="sRGB" filterUnits="userSpaceOnUse">
      <feFlood flood-opacity="0" result="BackgroundImageFix"/>
      <feColorMatrix in="SourceAlpha" result="hardAlpha" values="0 0 0 0 0 0 0 0 0 0 0 0 0 0 0 0 0 0 127 0"/>
      <feOffset/>
      <feGaussianBlur stdDeviation="7.5"/>
      <feComposite in2="hardAlpha" operator="out"/>
      <feColorMatrix values="0 0 0 0 0 0 0 0 0 0 0 0 0 0 0 0 0 0 0.25 0"/>
      <feBlend in2="BackgroundImageFix" result="effect1_dropShadow_204_2065"/>
      <feBlend in="SourceGraphic" in2="effect1_dropShadow_204_2065" result="shape"/>
    </filter>
    <filter id="filter2_d_204_2065" width="42" height="42" x="113.954" y="-15" color-interpolation-filters="sRGB" filterUnits="userSpaceOnUse">
      <feFlood flood-opacity="0" result="BackgroundImageFix"/>
      <feColorMatrix in="SourceAlpha" result="hardAlpha" values="0 0 0 0 0 0 0 0 0 0 0 0 0 0 0 0 0 0 127 0"/>
      <feOffset/>
      <feGaussianBlur stdDeviation="7.5"/>
      <feComposite in2="hardAlpha" operator="out"/>
      <feColorMatrix values="0 0 0 0 0 0 0 0 0 0 0 0 0 0 0 0 0 0 0.25 0"/>
      <feBlend in2="BackgroundImageFix" result="effect1_dropShadow_204_2065"/>
      <feBlend in="SourceGraphic" in2="effect1_dropShadow_204_2065" result="shape"/>
    </filter>
    <filter id="filter3_d_204_2065" width="43.488" height="43.488" x="82.21" y="134.256" color-interpolation-filters="sRGB" filterUnits="userSpaceOnUse">
      <feFlood flood-opacity="0" result="BackgroundImageFix"/>
      <feColorMatrix in="SourceAlpha" result="hardAlpha" values="0 0 0 0 0 0 0 0 0 0 0 0 0 0 0 0 0 0 127 0"/>
      <feOffset/>
      <feGaussianBlur stdDeviation="7.5"/>
      <feComposite in2="hardAlpha" operator="out"/>
      <feColorMatrix values="0 0 0 0 0 0 0 0 0 0 0 0 0 0 0 0 0 0 0.25 0"/>
      <feBlend in2="BackgroundImageFix" result="effect1_dropShadow_204_2065"/>
      <feBlend in="SourceGraphic" in2="effect1_dropShadow_204_2065" result="shape"/>
    </filter>
    <filter id="filter4_d_204_2065" width="42" height="42" x="183.954" y="57" color-interpolation-filters="sRGB" filterUnits="userSpaceOnUse">
      <feFlood flood-opacity="0" result="BackgroundImageFix"/>
      <feColorMatrix in="SourceAlpha" result="hardAlpha" values="0 0 0 0 0 0 0 0 0 0 0 0 0 0 0 0 0 0 127 0"/>
      <feOffset/>
      <feGaussianBlur stdDeviation="7.5"/>
      <feComposite in2="hardAlpha" operator="out"/>
      <feColorMatrix values="0 0 0 0 0 0 0 0 0 0 0 0 0 0 0 0 0 0 0.25 0"/>
      <feBlend in2="BackgroundImageFix" result="effect1_dropShadow_204_2065"/>
      <feBlend in="SourceGraphic" in2="effect1_dropShadow_204_2065" result="shape"/>
    </filter>
    <filter id="filter5_d_204_2065" width="42" height="42" x="174.954" y="115" color-interpolation-filters="sRGB" filterUnits="userSpaceOnUse">
      <feFlood flood-opacity="0" result="BackgroundImageFix"/>
      <feColorMatrix in="SourceAlpha" result="hardAlpha" values="0 0 0 0 0 0 0 0 0 0 0 0 0 0 0 0 0 0 127 0"/>
      <feOffset/>
      <feGaussianBlur stdDeviation="7.5"/>
      <feComposite in2="hardAlpha" operator="out"/>
      <feColorMatrix values="0 0 0 0 0 0 0 0 0 0 0 0 0 0 0 0 0 0 0.25 0"/>
      <feBlend in2="BackgroundImageFix" result="effect1_dropShadow_204_2065"/>
      <feBlend in="SourceGraphic" in2="effect1_dropShadow_204_2065" result="shape"/>
    </filter>
    <filter id="filter6_d_204_2065" width="42" height="42" x="-1.046" y="81" color-interpolation-filters="sRGB" filterUnits="userSpaceOnUse">
      <feFlood flood-opacity="0" result="BackgroundImageFix"/>
      <feColorMatrix in="SourceAlpha" result="hardAlpha" values="0 0 0 0 0 0 0 0 0 0 0 0 0 0 0 0 0 0 127 0"/>
      <feOffset/>
      <feGaussianBlur stdDeviation="7.5"/>
      <feComposite in2="hardAlpha" operator="out"/>
      <feColorMatrix values="0 0 0 0 0 0 0 0 0 0 0 0 0 0 0 0 0 0 0.25 0"/>
      <feBlend in2="BackgroundImageFix" result="effect1_dropShadow_204_2065"/>
      <feBlend in="SourceGraphic" in2="effect1_dropShadow_204_2065" result="shape"/>
    </filter>
    <filter id="filter7_d_204_2065" width="42" height="42" x="41.954" y="124" color-interpolation-filters="sRGB" filterUnits="userSpaceOnUse">
      <feFlood flood-opacity="0" result="BackgroundImageFix"/>
      <feColorMatrix in="SourceAlpha" result="hardAlpha" values="0 0 0 0 0 0 0 0 0 0 0 0 0 0 0 0 0 0 127 0"/>
      <feOffset/>
      <feGaussianBlur stdDeviation="7.5"/>
      <feComposite in2="hardAlpha" operator="out"/>
      <feColorMatrix values="0 0 0 0 0 0 0 0 0 0 0 0 0 0 0 0 0 0 0.25 0"/>
      <feBlend in2="BackgroundImageFix" result="effect1_dropShadow_204_2065"/>
      <feBlend in="SourceGraphic" in2="effect1_dropShadow_204_2065" result="shape"/>
    </filter>
    <filter id="filter8_d_204_2065" width="43.302" height="43.302" x="202.303" y="70.349" color-interpolation-filters="sRGB" filterUnits="userSpaceOnUse">
      <feFlood flood-opacity="0" result="BackgroundImageFix"/>
      <feColorMatrix in="SourceAlpha" result="hardAlpha" values="0 0 0 0 0 0 0 0 0 0 0 0 0 0 0 0 0 0 127 0"/>
      <feOffset/>
      <feGaussianBlur stdDeviation="7.5"/>
      <feComposite in2="hardAlpha" operator="out"/>
      <feColorMatrix values="0 0 0 0 0 0 0 0 0 0 0 0 0 0 0 0 0 0 0.25 0"/>
      <feBlend in2="BackgroundImageFix" result="effect1_dropShadow_204_2065"/>
      <feBlend in="SourceGraphic" in2="effect1_dropShadow_204_2065" result="shape"/>
    </filter>
    <filter id="filter9_d_204_2065" width="45.239" height="66.652" x="13.335" y="31.674" color-interpolation-filters="sRGB" filterUnits="userSpaceOnUse">
      <feFlood flood-opacity="0" result="BackgroundImageFix"/>
      <feColorMatrix in="SourceAlpha" result="hardAlpha" values="0 0 0 0 0 0 0 0 0 0 0 0 0 0 0 0 0 0 127 0"/>
      <feOffset/>
      <feGaussianBlur stdDeviation="7.5"/>
      <feComposite in2="hardAlpha" operator="out"/>
      <feColorMatrix values="0 0 0 0 0 0 0 0 0 0 0 0 0 0 0 0 0 0 0.25 0"/>
      <feBlend in2="BackgroundImageFix" result="effect1_dropShadow_204_2065"/>
      <feBlend in="SourceGraphic" in2="effect1_dropShadow_204_2065" result="shape"/>
    </filter>
    <filter id="filter10_d_204_2065" width="66.499" height="44.314" x="66.705" y="107.843" color-interpolation-filters="sRGB" filterUnits="userSpaceOnUse">
      <feFlood flood-opacity="0" result="BackgroundImageFix"/>
      <feColorMatrix in="SourceAlpha" result="hardAlpha" values="0 0 0 0 0 0 0 0 0 0 0 0 0 0 0 0 0 0 127 0"/>
      <feOffset/>
      <feGaussianBlur stdDeviation="7.5"/>
      <feComposite in2="hardAlpha" operator="out"/>
      <feColorMatrix values="0 0 0 0 0 0 0 0 0 0 0 0 0 0 0 0 0 0 0.25 0"/>
      <feBlend in2="BackgroundImageFix" result="effect1_dropShadow_204_2065"/>
      <feBlend in="SourceGraphic" in2="effect1_dropShadow_204_2065" result="shape"/>
    </filter>
    <filter id="filter11_d_204_2065" width="55.174" height="55.173" x="39.367" y="48.413" color-interpolation-filters="sRGB" filterUnits="userSpaceOnUse">
      <feFlood flood-opacity="0" result="BackgroundImageFix"/>
      <feColorMatrix in="SourceAlpha" result="hardAlpha" values="0 0 0 0 0 0 0 0 0 0 0 0 0 0 0 0 0 0 127 0"/>
      <feOffset/>
      <feGaussianBlur stdDeviation="7.5"/>
      <feComposite in2="hardAlpha" operator="out"/>
      <feColorMatrix values="0 0 0 0 0 0 0 0 0 0 0 0 0 0 0 0 0 0 0.25 0"/>
      <feBlend in2="BackgroundImageFix" result="effect1_dropShadow_204_2065"/>
      <feBlend in="SourceGraphic" in2="effect1_dropShadow_204_2065" result="shape"/>
    </filter>
    <filter id="filter12_d_204_2065" width="56.667" height="56.667" x="195.621" y="21.666" color-interpolation-filters="sRGB" filterUnits="userSpaceOnUse">
      <feFlood flood-opacity="0" result="BackgroundImageFix"/>
      <feColorMatrix in="SourceAlpha" result="hardAlpha" values="0 0 0 0 0 0 0 0 0 0 0 0 0 0 0 0 0 0 127 0"/>
      <feOffset/>
      <feGaussianBlur stdDeviation="7.5"/>
      <feComposite in2="hardAlpha" operator="out"/>
      <feColorMatrix values="0 0 0 0 0 0 0 0 0 0 0 0 0 0 0 0 0 0 0.25 0"/>
      <feBlend in2="BackgroundImageFix" result="effect1_dropShadow_204_2065"/>
      <feBlend in="SourceGraphic" in2="effect1_dropShadow_204_2065" result="shape"/>
    </filter>
    <radialGradient id="paint0_radial_204_2065" cx="0" cy="0" r="1" gradientTransform="matrix(1.49995 54.49996 -47.61447 1.31045 147.954 79)" gradientUnits="userSpaceOnUse">
      <stop offset=".354" stop-color="#fff" stop-opacity="0"/>
      <stop offset="1" stop-color="#fff"/>
    </radialGradient>
    <radialGradient id="paint2_radial_204_2065" cx="0" cy="0" r="1" gradientTransform="matrix(0 119.386 -93.6166 0 116.954 28)" gradientUnits="userSpaceOnUse">
      <stop stop-color="#9BC5FF"/>
      <stop offset=".724" stop-color="#9BC5FF" stop-opacity="0"/>
    </radialGradient>
    <radialGradient id="paint21_radial_204_2065" cx="0" cy="0" r="1" gradientTransform="matrix(17.49998 16.49998 -48.35196 51.2824 88.954 96.5)" gradientUnits="userSpaceOnUse">
      <stop offset=".354" stop-color="#fff" stop-opacity="0"/>
      <stop offset="1" stop-color="#fff"/>
    </radialGradient>
    <clipPath id="clip0_204_2065">
      <path fill="#fff" d="M0 0h238v163H0z"/>
    </clipPath>
  </defs>
</svg>
