<svg width="200" height="163" viewBox="0 0 200 163" fill="none" xmlns="http://www.w3.org/2000/svg">
<g clip-path="url(#clip0_204_2065)">
<path opacity="0.2" d="M128.954 62.5L159.954 47L180.954 61L168.454 68.5L166.954 83L140.454 100.5L128.954 99V62.5Z" fill="url(#paint0_radial_204_2065)"/>
<path fill-rule="evenodd" clip-rule="evenodd" d="M171.17 48.1369L161.246 46.9059C160.15 46.7699 159.151 47.5483 159.015 48.6445L157.784 58.5684C157.784 58.5684 157.784 58.5684 157.784 58.5684C157.784 58.5684 157.784 58.5684 157.784 58.5684L156.307 70.4771L155.076 80.4011C154.94 81.4972 155.718 82.4961 156.814 82.632L164.754 83.6169C165.85 83.7529 166.849 82.9745 166.985 81.8783L168.216 71.9544L169.693 60.0457C169.693 60.0457 169.693 60.0457 169.693 60.0457L179.617 61.2767C180.713 61.4127 181.712 60.6343 181.848 59.5381L182.833 51.599C182.969 50.5028 182.19 49.504 181.094 49.368L171.17 48.1369L171.17 48.1369Z" fill="url(#paint1_linear_204_2065)"/>
<rect opacity="0.2" x="46.9543" y="28" width="102" height="102" rx="3" fill="#1A81FF"/>
<rect opacity="0.2" x="46.9543" y="28" width="102" height="102" rx="4.5122" fill="url(#paint2_radial_204_2065)"/>
<rect x="62.2529" y="46.7912" width="67.9999" height="67.9999" rx="3.29032" transform="rotate(-2.94413 62.2529 46.7912)" fill="url(#paint3_linear_204_2065)"/>
<path d="M106.641 79.2833L93.1464 79.9773C92.8703 79.9915 92.6958 80.185 92.71 80.461L92.8535 83.2519C92.8677 83.5279 93.0612 83.7024 93.3372 83.6882L97.9989 83.4485L98.8885 100.746C98.9027 101.022 99.0962 101.196 99.3722 101.182L102.654 101.013C102.93 100.999 103.104 100.806 103.09 100.53L102.201 83.2324L106.832 82.9942C107.108 82.98 107.282 82.7866 107.268 82.5105L107.124 79.7196C107.11 79.4436 106.917 79.2691 106.641 79.2833ZM113.039 84.8275C112.974 83.5701 113.939 82.598 115.656 82.5096C117.19 82.4308 118.292 82.9276 119.854 84.0157C120.109 84.1871 120.322 84.1454 120.494 83.8906L122.075 81.749C122.277 81.4926 122.267 81.3086 122.042 81.105C120.236 79.4758 118 78.4531 115.332 78.5903C111.805 78.7717 108.763 81.2037 108.955 84.9453C109.316 91.9685 119.438 90.2794 119.634 94.0824C119.713 95.6159 118.322 96.6714 116.512 96.7645C114.642 96.8607 113.159 96.1374 111.621 94.925C111.364 94.723 111.121 94.7662 110.948 94.9904L109.21 97.0785C109.037 97.3027 109.048 97.5174 109.212 97.7242C110.71 99.3384 113.494 100.856 116.622 100.695C120.364 100.502 123.957 98.0114 123.748 93.963C123.365 86.5105 113.233 88.5998 113.039 84.8275Z" fill="white"/>
<rect opacity="0.5" x="50.4543" y="31.5" width="95" height="95" rx="1.5" stroke="#1B7AFF" stroke-linecap="square" stroke-dasharray="2 5"/>
<path fill-rule="evenodd" clip-rule="evenodd" d="M137.607 17.6361C137.678 16.5338 138.629 15.6976 139.731 15.7684L147.715 16.281C148.817 16.3517 149.654 17.3027 149.583 18.405L149.07 26.3886C148.999 27.4909 149.836 28.4418 150.938 28.5126L158.921 29.0252C160.024 29.096 160.86 30.047 160.789 31.1493L160.277 39.1328C160.206 40.2351 159.255 41.0713 158.153 41.0006L148.173 40.3598L136.198 39.5909L126.218 38.9501C125.116 38.8793 124.28 37.9284 124.351 36.8261L124.863 28.8425C124.934 27.7402 125.885 26.904 126.987 26.9748L134.971 27.4874C136.073 27.5582 137.024 26.7219 137.095 25.6196L137.607 17.6361Z" fill="url(#paint4_linear_204_2065)"/>
<path fill-rule="evenodd" clip-rule="evenodd" d="M143.892 157.374C143.999 158.473 143.194 159.451 142.094 159.558L134.132 160.33C133.032 160.437 132.055 159.632 131.948 158.533L131.176 150.57C131.069 149.471 130.091 148.666 128.992 148.772L121.029 149.545C119.93 149.652 118.952 148.847 118.845 147.747L118.073 139.785C117.966 138.685 118.771 137.708 119.87 137.601L129.824 136.635L141.768 135.477L151.721 134.511C152.82 134.404 153.798 135.209 153.905 136.309L154.677 144.271C154.784 145.371 153.979 146.348 152.88 146.455L144.917 147.228C143.818 147.334 143.013 148.312 143.12 149.411L143.892 157.374Z" fill="url(#paint5_linear_204_2065)"/>
<path fill-rule="evenodd" clip-rule="evenodd" d="M66.9227 20.9341L66.3306 10.9518C66.2652 9.84912 65.3183 9.00828 64.2157 9.07369L54.2332 9.66581C54.2332 9.66581 54.2332 9.6658 54.2332 9.66578C54.2332 9.66577 54.2332 9.66575 54.2332 9.66575L42.2543 10.3763L32.2718 10.9684C31.1692 11.0338 30.3283 11.9807 30.3937 13.0833L30.8675 21.0693C30.9329 22.1719 31.8797 23.0128 32.9824 22.9474L42.9648 22.3553L54.9437 21.6447C54.9437 21.6447 54.9438 21.6447 54.9438 21.6448L55.5359 31.6272C55.6013 32.7298 56.5482 33.5706 57.6508 33.5052L65.6368 33.0315C66.7394 32.9661 67.5802 32.0192 67.5148 30.9166L66.9227 20.9342L66.9227 20.9341Z" fill="url(#paint6_linear_204_2065)"/>
<g filter="url(#filter0_d_204_2065)">
<rect x="136.954" y="92" width="12" height="12" rx="2" fill="url(#paint7_linear_204_2065)"/>
</g>
<g filter="url(#filter1_d_204_2065)">
<rect x="88.4053" y="19.6045" width="12" height="12" rx="2" transform="rotate(-5.51585 88.4053 19.6045)" fill="url(#paint8_linear_204_2065)"/>
</g>
<g opacity="0.6" filter="url(#filter2_d_204_2065)">
<rect x="109.954" width="12" height="12" rx="2" fill="url(#paint9_linear_204_2065)"/>
</g>
<g opacity="0.6" filter="url(#filter3_d_204_2065)">
<rect x="77.8389" y="151.377" width="12" height="12" rx="2" transform="rotate(-11.9898 77.8389 151.377)" fill="url(#paint10_linear_204_2065)"/>
</g>
<g opacity="0.6" filter="url(#filter4_d_204_2065)">
<rect x="179.954" y="72" width="12" height="12" rx="2" fill="url(#paint11_linear_204_2065)"/>
</g>
<g opacity="0.6" filter="url(#filter5_d_204_2065)">
<rect x="170.954" y="130" width="12" height="12" rx="2" fill="url(#paint12_linear_204_2065)"/>
</g>
<g opacity="0.6" filter="url(#filter6_d_204_2065)">
<rect x="-0.0456543" y="96" width="12" height="12" rx="2" fill="url(#paint13_linear_204_2065)"/>
</g>
<g filter="url(#filter7_d_204_2065)">
<rect x="37.9543" y="139" width="12" height="12" rx="2" fill="url(#paint14_linear_204_2065)"/>
</g>
<path fill-rule="evenodd" clip-rule="evenodd" d="M163.954 107L163.954 117C163.954 118.105 164.85 119 165.954 119L175.954 119C175.954 119 175.954 119 175.954 119C175.954 119 175.954 119 175.954 119L187.954 119L197.954 119C199.059 119 199.954 118.105 199.954 117L199.954 109C199.954 107.895 199.059 107 197.954 107L187.954 107L175.954 107C175.954 107 175.954 107 175.954 107L175.954 97C175.954 95.8954 175.059 95 173.954 95L165.954 95C164.85 95 163.954 95.8954 163.954 97L163.954 107L163.954 107Z" fill="url(#paint15_linear_204_2065)"/>
<path fill-rule="evenodd" clip-rule="evenodd" d="M27.8066 132.904L37.7535 131.875C38.8522 131.762 39.6507 130.779 39.5371 129.68L38.5081 119.733C38.5081 119.733 38.5081 119.733 38.5081 119.733C38.5081 119.733 38.5081 119.733 38.5081 119.733L37.2733 107.797L36.2444 97.8502C36.1307 96.7515 35.1479 95.9529 34.0492 96.0666L26.0916 96.8898C24.9929 97.0034 24.1944 97.9862 24.3081 99.0849L25.337 109.032L26.5718 120.968C26.5718 120.968 26.5718 120.968 26.5718 120.968L16.6249 121.997C15.5262 122.111 14.7277 123.094 14.8413 124.192L15.6645 132.15C15.7782 133.249 16.761 134.047 17.8597 133.933L27.8066 132.904L27.8066 132.904Z" fill="url(#paint16_linear_204_2065)"/>
<g filter="url(#filter8_d_204_2065)">
<path fill-rule="evenodd" clip-rule="evenodd" d="M12.6261 48.4692C12.7393 47.3705 13.7218 46.5715 14.8206 46.6848L22.7784 47.5049C23.8772 47.6181 24.6761 48.6006 24.5629 49.6993L23.5378 59.6466C23.5378 59.6466 23.5378 59.6467 23.5377 59.6467C23.5377 59.6467 23.5377 59.6467 23.5377 59.6467L22.3076 71.5834L21.2825 81.5308C21.1692 82.6295 20.1867 83.4284 19.088 83.3152L11.1301 82.4951C10.0314 82.3819 9.23245 81.3994 9.34568 80.3006L10.3708 70.3533L11.6009 58.4166C11.6009 58.4165 11.6009 58.4165 11.601 58.4165C11.601 58.4165 11.601 58.4165 11.601 58.4165L12.6261 48.4692Z" fill="url(#paint17_linear_204_2065)"/>
</g>
<g filter="url(#filter9_d_204_2065)">
<path fill-rule="evenodd" clip-rule="evenodd" d="M97.3496 125.184C98.4512 125.264 99.2789 126.223 99.1983 127.324L98.6145 135.303C98.5339 136.405 97.5755 137.232 96.4739 137.152L86.5006 136.422C86.5005 136.422 86.5005 136.422 86.5005 136.422C86.5005 136.422 86.5005 136.422 86.5005 136.422L74.5325 135.546L64.5592 134.816C63.4576 134.736 62.6299 133.777 62.7105 132.676L63.2943 124.697C63.3749 123.596 64.3333 122.768 65.4349 122.848L75.4082 123.578L87.3762 124.454C87.3762 124.454 87.3762 124.454 87.3762 124.454C87.3762 124.454 87.3762 124.454 87.3763 124.454L97.3496 125.184Z" fill="url(#paint18_linear_204_2065)"/>
</g>
<path opacity="0.2" d="M78.4543 86.5L58.4543 64.5L37.4543 88L58.4543 103.5L78.4543 86.5Z" fill="url(#paint19_radial_204_2065)"/>
<g filter="url(#filter10_d_204_2065)">
<path fill-rule="evenodd" clip-rule="evenodd" d="M47.2285 64.022L37.2469 64.6269C36.1443 64.6938 35.3047 65.6417 35.3715 66.7443L35.9765 76.7259C35.9765 76.7259 35.9765 76.7259 35.9764 76.7259C35.9764 76.7259 35.9764 76.726 35.9764 76.726L36.5814 86.7076C36.6482 87.8102 37.5962 88.6498 38.6987 88.583L48.6804 87.978L58.6621 87.3731C59.7646 87.3063 60.6042 86.3583 60.5374 85.2558L59.9325 75.2741C59.9325 75.2741 59.9325 75.2741 59.9325 75.2741C59.9325 75.2741 59.9325 75.2741 59.9325 75.274L59.3276 65.2924C59.2607 64.1898 58.3128 63.3502 57.2102 63.417L47.2285 64.022Z" fill="url(#paint20_linear_204_2065)"/>
</g>
</g>
<defs>
<filter id="filter0_d_204_2065" x="121.954" y="77" width="42" height="42" filterUnits="userSpaceOnUse" color-interpolation-filters="sRGB">
<feFlood flood-opacity="0" result="BackgroundImageFix"/>
<feColorMatrix in="SourceAlpha" type="matrix" values="0 0 0 0 0 0 0 0 0 0 0 0 0 0 0 0 0 0 127 0" result="hardAlpha"/>
<feOffset/>
<feGaussianBlur stdDeviation="7.5"/>
<feComposite in2="hardAlpha" operator="out"/>
<feColorMatrix type="matrix" values="0 0 0 0 0 0 0 0 0 0 0 0 0 0 0 0 0 0 0.25 0"/>
<feBlend mode="normal" in2="BackgroundImageFix" result="effect1_dropShadow_204_2065"/>
<feBlend mode="normal" in="SourceGraphic" in2="effect1_dropShadow_204_2065" result="shape"/>
</filter>
<filter id="filter1_d_204_2065" x="73.5881" y="3.63385" width="42.7322" height="42.7322" filterUnits="userSpaceOnUse" color-interpolation-filters="sRGB">
<feFlood flood-opacity="0" result="BackgroundImageFix"/>
<feColorMatrix in="SourceAlpha" type="matrix" values="0 0 0 0 0 0 0 0 0 0 0 0 0 0 0 0 0 0 127 0" result="hardAlpha"/>
<feOffset/>
<feGaussianBlur stdDeviation="7.5"/>
<feComposite in2="hardAlpha" operator="out"/>
<feColorMatrix type="matrix" values="0 0 0 0 0 0 0 0 0 0 0 0 0 0 0 0 0 0 0.25 0"/>
<feBlend mode="normal" in2="BackgroundImageFix" result="effect1_dropShadow_204_2065"/>
<feBlend mode="normal" in="SourceGraphic" in2="effect1_dropShadow_204_2065" result="shape"/>
</filter>
<filter id="filter2_d_204_2065" x="94.9543" y="-15" width="42" height="42" filterUnits="userSpaceOnUse" color-interpolation-filters="sRGB">
<feFlood flood-opacity="0" result="BackgroundImageFix"/>
<feColorMatrix in="SourceAlpha" type="matrix" values="0 0 0 0 0 0 0 0 0 0 0 0 0 0 0 0 0 0 127 0" result="hardAlpha"/>
<feOffset/>
<feGaussianBlur stdDeviation="7.5"/>
<feComposite in2="hardAlpha" operator="out"/>
<feColorMatrix type="matrix" values="0 0 0 0 0 0 0 0 0 0 0 0 0 0 0 0 0 0 0.25 0"/>
<feBlend mode="normal" in2="BackgroundImageFix" result="effect1_dropShadow_204_2065"/>
<feBlend mode="normal" in="SourceGraphic" in2="effect1_dropShadow_204_2065" result="shape"/>
</filter>
<filter id="filter3_d_204_2065" x="63.2102" y="134.256" width="43.4883" height="43.4882" filterUnits="userSpaceOnUse" color-interpolation-filters="sRGB">
<feFlood flood-opacity="0" result="BackgroundImageFix"/>
<feColorMatrix in="SourceAlpha" type="matrix" values="0 0 0 0 0 0 0 0 0 0 0 0 0 0 0 0 0 0 127 0" result="hardAlpha"/>
<feOffset/>
<feGaussianBlur stdDeviation="7.5"/>
<feComposite in2="hardAlpha" operator="out"/>
<feColorMatrix type="matrix" values="0 0 0 0 0 0 0 0 0 0 0 0 0 0 0 0 0 0 0.25 0"/>
<feBlend mode="normal" in2="BackgroundImageFix" result="effect1_dropShadow_204_2065"/>
<feBlend mode="normal" in="SourceGraphic" in2="effect1_dropShadow_204_2065" result="shape"/>
</filter>
<filter id="filter4_d_204_2065" x="164.954" y="57" width="42" height="42" filterUnits="userSpaceOnUse" color-interpolation-filters="sRGB">
<feFlood flood-opacity="0" result="BackgroundImageFix"/>
<feColorMatrix in="SourceAlpha" type="matrix" values="0 0 0 0 0 0 0 0 0 0 0 0 0 0 0 0 0 0 127 0" result="hardAlpha"/>
<feOffset/>
<feGaussianBlur stdDeviation="7.5"/>
<feComposite in2="hardAlpha" operator="out"/>
<feColorMatrix type="matrix" values="0 0 0 0 0 0 0 0 0 0 0 0 0 0 0 0 0 0 0.25 0"/>
<feBlend mode="normal" in2="BackgroundImageFix" result="effect1_dropShadow_204_2065"/>
<feBlend mode="normal" in="SourceGraphic" in2="effect1_dropShadow_204_2065" result="shape"/>
</filter>
<filter id="filter5_d_204_2065" x="155.954" y="115" width="42" height="42" filterUnits="userSpaceOnUse" color-interpolation-filters="sRGB">
<feFlood flood-opacity="0" result="BackgroundImageFix"/>
<feColorMatrix in="SourceAlpha" type="matrix" values="0 0 0 0 0 0 0 0 0 0 0 0 0 0 0 0 0 0 127 0" result="hardAlpha"/>
<feOffset/>
<feGaussianBlur stdDeviation="7.5"/>
<feComposite in2="hardAlpha" operator="out"/>
<feColorMatrix type="matrix" values="0 0 0 0 0 0 0 0 0 0 0 0 0 0 0 0 0 0 0.25 0"/>
<feBlend mode="normal" in2="BackgroundImageFix" result="effect1_dropShadow_204_2065"/>
<feBlend mode="normal" in="SourceGraphic" in2="effect1_dropShadow_204_2065" result="shape"/>
</filter>
<filter id="filter6_d_204_2065" x="-15.0457" y="81" width="42" height="42" filterUnits="userSpaceOnUse" color-interpolation-filters="sRGB">
<feFlood flood-opacity="0" result="BackgroundImageFix"/>
<feColorMatrix in="SourceAlpha" type="matrix" values="0 0 0 0 0 0 0 0 0 0 0 0 0 0 0 0 0 0 127 0" result="hardAlpha"/>
<feOffset/>
<feGaussianBlur stdDeviation="7.5"/>
<feComposite in2="hardAlpha" operator="out"/>
<feColorMatrix type="matrix" values="0 0 0 0 0 0 0 0 0 0 0 0 0 0 0 0 0 0 0.25 0"/>
<feBlend mode="normal" in2="BackgroundImageFix" result="effect1_dropShadow_204_2065"/>
<feBlend mode="normal" in="SourceGraphic" in2="effect1_dropShadow_204_2065" result="shape"/>
</filter>
<filter id="filter7_d_204_2065" x="22.9543" y="124" width="42" height="42" filterUnits="userSpaceOnUse" color-interpolation-filters="sRGB">
<feFlood flood-opacity="0" result="BackgroundImageFix"/>
<feColorMatrix in="SourceAlpha" type="matrix" values="0 0 0 0 0 0 0 0 0 0 0 0 0 0 0 0 0 0 127 0" result="hardAlpha"/>
<feOffset/>
<feGaussianBlur stdDeviation="7.5"/>
<feComposite in2="hardAlpha" operator="out"/>
<feColorMatrix type="matrix" values="0 0 0 0 0 0 0 0 0 0 0 0 0 0 0 0 0 0 0.25 0"/>
<feBlend mode="normal" in2="BackgroundImageFix" result="effect1_dropShadow_204_2065"/>
<feBlend mode="normal" in="SourceGraphic" in2="effect1_dropShadow_204_2065" result="shape"/>
</filter>
<filter id="filter8_d_204_2065" x="-5.66504" y="31.6741" width="45.2385" height="66.6518" filterUnits="userSpaceOnUse" color-interpolation-filters="sRGB">
<feFlood flood-opacity="0" result="BackgroundImageFix"/>
<feColorMatrix in="SourceAlpha" type="matrix" values="0 0 0 0 0 0 0 0 0 0 0 0 0 0 0 0 0 0 127 0" result="hardAlpha"/>
<feOffset/>
<feGaussianBlur stdDeviation="7.5"/>
<feComposite in2="hardAlpha" operator="out"/>
<feColorMatrix type="matrix" values="0 0 0 0 0 0 0 0 0 0 0 0 0 0 0 0 0 0 0.25 0"/>
<feBlend mode="normal" in2="BackgroundImageFix" result="effect1_dropShadow_204_2065"/>
<feBlend mode="normal" in="SourceGraphic" in2="effect1_dropShadow_204_2065" result="shape"/>
</filter>
<filter id="filter9_d_204_2065" x="47.7051" y="107.843" width="66.4985" height="44.3141" filterUnits="userSpaceOnUse" color-interpolation-filters="sRGB">
<feFlood flood-opacity="0" result="BackgroundImageFix"/>
<feColorMatrix in="SourceAlpha" type="matrix" values="0 0 0 0 0 0 0 0 0 0 0 0 0 0 0 0 0 0 127 0" result="hardAlpha"/>
<feOffset/>
<feGaussianBlur stdDeviation="7.5"/>
<feComposite in2="hardAlpha" operator="out"/>
<feColorMatrix type="matrix" values="0 0 0 0 0 0 0 0 0 0 0 0 0 0 0 0 0 0 0.25 0"/>
<feBlend mode="normal" in2="BackgroundImageFix" result="effect1_dropShadow_204_2065"/>
<feBlend mode="normal" in="SourceGraphic" in2="effect1_dropShadow_204_2065" result="shape"/>
</filter>
<filter id="filter10_d_204_2065" x="20.3677" y="48.4133" width="55.1736" height="55.1734" filterUnits="userSpaceOnUse" color-interpolation-filters="sRGB">
<feFlood flood-opacity="0" result="BackgroundImageFix"/>
<feColorMatrix in="SourceAlpha" type="matrix" values="0 0 0 0 0 0 0 0 0 0 0 0 0 0 0 0 0 0 127 0" result="hardAlpha"/>
<feOffset/>
<feGaussianBlur stdDeviation="7.5"/>
<feComposite in2="hardAlpha" operator="out"/>
<feColorMatrix type="matrix" values="0 0 0 0 0 0 0 0 0 0 0 0 0 0 0 0 0 0 0.25 0"/>
<feBlend mode="normal" in2="BackgroundImageFix" result="effect1_dropShadow_204_2065"/>
<feBlend mode="normal" in="SourceGraphic" in2="effect1_dropShadow_204_2065" result="shape"/>
</filter>
<radialGradient id="paint0_radial_204_2065" cx="0" cy="0" r="1" gradientUnits="userSpaceOnUse" gradientTransform="translate(128.954 79) rotate(88.4235) scale(54.5206 47.6325)">
<stop offset="0.354167" stop-color="white" stop-opacity="0"/>
<stop offset="1" stop-color="white"/>
</radialGradient>
<linearGradient id="paint1_linear_204_2065" x1="165.216" y1="47.3983" x2="160.784" y2="83.1245" gradientUnits="userSpaceOnUse">
<stop stop-color="#1A81FF"/>
<stop offset="1" stop-color="#1A68FF"/>
</linearGradient>
<radialGradient id="paint2_radial_204_2065" cx="0" cy="0" r="1" gradientUnits="userSpaceOnUse" gradientTransform="translate(97.9544 28) rotate(90) scale(119.386 93.6166)">
<stop stop-color="#9BC5FF"/>
<stop offset="0.723958" stop-color="#9BC5FF" stop-opacity="0"/>
</radialGradient>
<linearGradient id="paint3_linear_204_2065" x1="96.2529" y1="46.7912" x2="96.2529" y2="114.791" gradientUnits="userSpaceOnUse">
<stop stop-color="#1A81FF"/>
<stop offset="1" stop-color="#1A68FF"/>
</linearGradient>
<linearGradient id="paint4_linear_204_2065" x1="143.723" y1="16.0247" x2="142.185" y2="39.9753" gradientUnits="userSpaceOnUse">
<stop stop-color="#1A81FF"/>
<stop offset="1" stop-color="#1A68FF"/>
</linearGradient>
<linearGradient id="paint5_linear_204_2065" x1="138.113" y1="159.944" x2="135.796" y2="136.056" gradientUnits="userSpaceOnUse">
<stop stop-color="#1A81FF"/>
<stop offset="1" stop-color="#1A68FF"/>
</linearGradient>
<linearGradient id="paint6_linear_204_2065" x1="66.5674" y1="14.9447" x2="30.6306" y2="17.0764" gradientUnits="userSpaceOnUse">
<stop stop-color="#1A81FF"/>
<stop offset="1" stop-color="#1A68FF"/>
</linearGradient>
<linearGradient id="paint7_linear_204_2065" x1="142.954" y1="92" x2="142.954" y2="104" gradientUnits="userSpaceOnUse">
<stop stop-color="#1A81FF"/>
<stop offset="1" stop-color="#1A68FF"/>
</linearGradient>
<linearGradient id="paint8_linear_204_2065" x1="94.4053" y1="19.6045" x2="94.4053" y2="31.6045" gradientUnits="userSpaceOnUse">
<stop stop-color="#1A81FF"/>
<stop offset="1" stop-color="#1A68FF"/>
</linearGradient>
<linearGradient id="paint9_linear_204_2065" x1="115.954" y1="0" x2="115.954" y2="12" gradientUnits="userSpaceOnUse">
<stop stop-color="#1A81FF"/>
<stop offset="1" stop-color="#1A68FF"/>
</linearGradient>
<linearGradient id="paint10_linear_204_2065" x1="83.8389" y1="151.377" x2="83.8389" y2="163.377" gradientUnits="userSpaceOnUse">
<stop stop-color="#1A81FF"/>
<stop offset="1" stop-color="#1A68FF"/>
</linearGradient>
<linearGradient id="paint11_linear_204_2065" x1="185.954" y1="72" x2="185.954" y2="84" gradientUnits="userSpaceOnUse">
<stop stop-color="#1A81FF"/>
<stop offset="1" stop-color="#1A68FF"/>
</linearGradient>
<linearGradient id="paint12_linear_204_2065" x1="176.954" y1="130" x2="176.954" y2="142" gradientUnits="userSpaceOnUse">
<stop stop-color="#1A81FF"/>
<stop offset="1" stop-color="#1A68FF"/>
</linearGradient>
<linearGradient id="paint13_linear_204_2065" x1="5.95435" y1="96" x2="5.95435" y2="108" gradientUnits="userSpaceOnUse">
<stop stop-color="#1A81FF"/>
<stop offset="1" stop-color="#1A68FF"/>
</linearGradient>
<linearGradient id="paint14_linear_204_2065" x1="43.9543" y1="139" x2="43.9543" y2="151" gradientUnits="userSpaceOnUse">
<stop stop-color="#1A81FF"/>
<stop offset="1" stop-color="#1A68FF"/>
</linearGradient>
<linearGradient id="paint15_linear_204_2065" x1="163.954" y1="113" x2="199.954" y2="113" gradientUnits="userSpaceOnUse">
<stop stop-color="#1A81FF"/>
<stop offset="1" stop-color="#1A68FF"/>
</linearGradient>
<linearGradient id="paint16_linear_204_2065" x1="33.7747" y1="132.287" x2="30.0704" y2="96.4782" gradientUnits="userSpaceOnUse">
<stop stop-color="#1A81FF"/>
<stop offset="1" stop-color="#1A68FF"/>
</linearGradient>
<linearGradient id="paint17_linear_204_2065" x1="18.7995" y1="47.0948" x2="15.1091" y2="82.9052" gradientUnits="userSpaceOnUse">
<stop stop-color="#1A81FF"/>
<stop offset="1" stop-color="#1A68FF"/>
</linearGradient>
<linearGradient id="paint18_linear_204_2065" x1="98.9064" y1="131.314" x2="63.0024" y2="128.687" gradientUnits="userSpaceOnUse">
<stop stop-color="#1A81FF"/>
<stop offset="1" stop-color="#1A68FF"/>
</linearGradient>
<radialGradient id="paint19_radial_204_2065" cx="0" cy="0" r="1" gradientUnits="userSpaceOnUse" gradientTransform="translate(69.9543 96.5) rotate(43.3153) scale(24.052 70.4826)">
<stop offset="0.354167" stop-color="white" stop-opacity="0"/>
<stop offset="1" stop-color="white"/>
</radialGradient>
<linearGradient id="paint20_linear_204_2065" x1="47.2285" y1="64.022" x2="48.6804" y2="87.978" gradientUnits="userSpaceOnUse">
<stop stop-color="#1A81FF"/>
<stop offset="1" stop-color="#1A68FF"/>
</linearGradient>
<clipPath id="clip0_204_2065">
<rect width="200" height="163" fill="white"/>
</clipPath>
</defs>
</svg>
