<svg xmlns="http://www.w3.org/2000/svg" width="310" height="125" viewBox="0 0 310 125" aria-hidden="true" focusable="false">
  <path fill="#EAEAEA" d="M197.96,54.69 C201.439394,54.69 204.26,51.8693939 204.26,48.39 L204.26,21.3 C204.26,17.8206061 201.439394,15 197.96,15 L191.66,15 C188.180606,15 185.36,17.8206061 185.36,21.3 L185.36,48.39 C185.36,51.8693939 188.180606,54.69 191.66,54.69 L197.96,54.69 Z M175.28,54.69 C178.759394,54.69 181.58,51.8693939 181.58,48.39 L181.58,21.3 C181.58,17.8206061 178.759394,15 175.28,15 L124.88,15 C121.400606,15 118.58,17.8206061 118.58,21.3 L118.58,48.39 C118.58,51.8693939 121.400606,54.69 124.88,54.69 L175.28,54.69 Z M175.28,52.17 L124.88,52.17 C122.857602,52.17 121.206159,50.5817564 121.104919,48.5845183 L121.1,48.39 L121.1,21.3 C121.1,19.2776023 122.688244,17.6261587 124.685482,17.5249185 L124.88,17.52 L175.28,17.52 C177.302398,17.52 178.953841,19.1082436 179.055081,21.1054817 L179.06,21.3 L179.06,48.39 C179.06,50.4776364 177.367636,52.17 175.28,52.17 Z M197.96,52.17 L191.66,52.17 C189.637602,52.17 187.986159,50.5817564 187.884919,48.5845183 L187.88,48.39 L187.88,21.3 C187.88,19.2776023 189.468244,17.6261587 191.465482,17.5249185 L191.66,17.52 L197.96,17.52 C199.982398,17.52 201.633841,19.1082436 201.735081,21.1054817 L201.74,21.3 L201.74,48.39 C201.74,50.4776364 200.047636,52.17 197.96,52.17 Z M228.83,97.32 C232.309394,97.32 235.13,94.4993939 235.13,91.02 L235.13,42.72 C235.13,39.2406061 232.309394,36.42 228.83,36.42 L214.34,36.42 C210.860606,36.42 208.04,39.2406061 208.04,42.72 L208.04,91.02 C208.04,94.4993939 210.860606,97.32 214.34,97.32 L228.83,97.32 Z M72.59,76.11 C76.0693939,76.11 78.89,73.2893939 78.89,69.81 L78.89,43.35 C78.89,39.8706061 76.0693939,37.05 72.59,37.05 L55.58,37.05 C52.1006061,37.05 49.28,39.8706061 49.28,43.35 L49.28,69.81 C49.28,73.2893939 52.1006061,76.11 55.58,76.11 L72.59,76.11 Z M108.7,118.05 C112.179394,118.05 115,115.229394 115,111.75 L114.8,43.35 C114.8,39.8706061 111.979394,37.05 108.5,37.05 L88.97,37.05 C85.4906061,37.05 82.67,39.8706061 82.67,43.35 L82.87,111.75 C82.87,115.229394 85.6906061,118.05 89.17,118.05 L108.7,118.05 Z M228.83,94.8 L214.34,94.8 C212.317602,94.8 210.666159,93.2117564 210.564919,91.2145183 L210.56,91.02 L210.56,42.72 C210.56,40.6976023 212.148244,39.0461587 214.145482,38.9449185 L214.34,38.94 L228.83,38.94 C230.852398,38.94 232.503841,40.5282436 232.605081,42.5254817 L232.61,42.72 L232.61,91.02 C232.61,93.1076364 230.917636,94.8 228.83,94.8 Z M108.7,115.53 L89.17,115.53 C87.1476023,115.53 85.4961587,113.941756 85.3949185,111.944518 L85.39,111.75 L85.19,43.35 C85.19,41.3276023 86.7782436,39.6761587 88.7754817,39.5749185 L88.97,39.57 L108.5,39.57 C110.522398,39.57 112.173841,41.1582436 112.275081,43.1554817 L112.28,43.35 L112.48,111.75 C112.48,113.837636 110.787636,115.53 108.7,115.53 Z M72.59,73.59 L55.58,73.59 C53.5576023,73.59 51.9061587,72.0017564 51.8049185,70.0045183 L51.8,69.81 L51.8,43.35 C51.8,41.3276023 53.3882436,39.6761587 55.3854817,39.5749185 L55.58,39.57 L72.59,39.57 C74.6123977,39.57 76.2638413,41.1582436 76.3650815,43.1554817 L76.37,43.35 L76.37,69.81 C76.37,71.8976364 74.6776364,73.59 72.59,73.59 Z M145.67,98.16 C149.149394,98.16 151.97,95.3393939 151.97,91.86 L151.97,64.77 C151.97,61.2906061 149.149394,58.47 145.67,58.47 L124.88,58.47 C121.400606,58.47 118.58,61.2906061 118.58,64.77 L118.58,91.86 C118.58,95.3393939 121.400606,98.16 124.88,98.16 L145.67,98.16 Z M197.96,98.16 C201.439394,98.16 204.26,95.3393939 204.26,91.86 L204.26,64.77 C204.26,61.2906061 201.439394,58.47 197.96,58.47 L162.05,58.47 C158.570606,58.47 155.75,61.2906061 155.75,64.77 L155.75,91.86 C155.75,95.3393939 158.570606,98.16 162.05,98.16 L197.96,98.16 Z M197.96,95.64 L162.05,95.64 C160.027602,95.64 158.376159,94.0517564 158.274919,92.0545183 L158.27,91.86 L158.27,64.77 C158.27,62.7476023 159.858244,61.0961587 161.855482,60.9949185 L162.05,60.99 L197.96,60.99 C199.982398,60.99 201.633841,62.5782436 201.735081,64.5754817 L201.74,64.77 L201.74,91.86 C201.74,93.9476364 200.047636,95.64 197.96,95.64 Z M145.67,95.64 L124.88,95.64 C122.857602,95.64 121.206159,94.0517564 121.104919,92.0545183 L121.1,91.86 L121.1,64.77 C121.1,62.7476023 122.688244,61.0961587 124.685482,60.9949185 L124.88,60.99 L145.67,60.99 C147.692398,60.99 149.343841,62.5782436 149.445081,64.5754817 L149.45,64.77 L149.45,91.86 C149.45,93.9476364 147.757636,95.64 145.67,95.64 Z M286.16,118.32 C289.639394,118.32 292.46,115.499394 292.46,112.02 L292.46,71.07 C292.46,67.5906061 289.639394,64.77 286.16,64.77 L245.21,64.77 C241.730606,64.77 238.91,67.5906061 238.91,71.07 L238.91,112.02 C238.91,115.499394 241.730606,118.32 245.21,118.32 L286.16,118.32 Z M286.16,115.8 L245.21,115.8 C243.187602,115.8 241.536159,114.211756 241.434919,112.214518 L241.43,112.02 L241.43,71.07 C241.43,69.0476023 243.018244,67.3961587 245.015482,67.2949185 L245.21,67.29 L286.16,67.29 C288.182398,67.29 289.833841,68.8782436 289.935081,70.8754817 L289.94,71.07 L289.94,112.02 C289.94,114.107636 288.247636,115.8 286.16,115.8 Z M72.7,118.05 C76.1793939,118.05 79,115.229394 79,111.75 L78.89,86.19 C78.89,82.7106061 76.0693939,79.89 72.59,79.89 L22.19,79.89 C18.7106061,79.89 15.89,82.7106061 15.89,86.19 L16,111.75 C16,115.229394 18.8206061,118.05 22.3,118.05 L72.7,118.05 Z M72.7,115.53 L22.3,115.53 C20.2776023,115.53 18.6261587,113.941756 18.5249185,111.944518 L18.52,111.75 L18.41,86.19 C18.41,84.1676023 19.9982436,82.5161587 21.9954817,82.4149185 L22.19,82.41 L72.59,82.41 C74.6123977,82.41 76.2638413,83.9982436 76.3650815,85.9954817 L76.37,86.19 L76.48,111.75 C76.48,113.837636 74.7876364,115.53 72.7,115.53 Z M227.96,118.32 C231.439394,118.32 234.26,115.499394 234.26,112.02 L234.26,108.24 C234.26,104.760606 231.439394,101.94 227.96,101.94 L124.88,101.94 C121.400606,101.94 118.58,104.760606 118.58,108.24 L118.58,112.02 C118.58,115.499394 121.400606,118.32 124.88,118.32 L227.96,118.32 Z M227.96,115.8 L124.88,115.8 C122.857602,115.8 121.206159,114.211756 121.104919,112.214518 L121.1,112.02 L121.1,108.24 C121.1,106.217602 122.688244,104.566159 124.685482,104.464919 L124.88,104.46 L227.96,104.46 C229.982398,104.46 231.633841,106.048244 231.735081,108.045482 L231.74,108.24 L231.74,112.02 C231.74,114.107636 230.047636,115.8 227.96,115.8 Z"/>
</svg>
