<svg xmlns="http://www.w3.org/2000/svg" fill="none" viewBox="0 0 842 596">
  <g clip-path="url(#a)">
    <path fill="#fff" d="M0 0h841.89v595.28H0z"/>
    <path fill="#fff" stroke="#00A651" stroke-miterlimit="10" d="M10.5 11.5h821v572h-821v-572Z"/>
    <path stroke="#00A651" stroke-miterlimit="10" d="M784.22 672.05c24.102 0 43.64-19.538 43.64-43.64s-19.538-43.64-43.64-43.64-43.64 19.538-43.64 43.64 19.538 43.64 43.64 43.64Z"/>
    <path stroke="#00A651" stroke-miterlimit="10" d="M778.56 659.33c24.102 0 43.64-19.538 43.64-43.64s-19.538-43.64-43.64-43.64-43.64 19.538-43.64 43.64 19.538 43.64 43.64 43.64Z"/>
    <path stroke="#00A651" stroke-miterlimit="10" d="M775.659 645.71c24.102 0 43.64-19.538 43.64-43.64s-19.538-43.64-43.64-43.64c-24.101 0-43.639 19.538-43.639 43.64s19.538 43.64 43.639 43.64Z"/>
    <path stroke="#00A651" stroke-miterlimit="10" d="M775.659 631.79c24.102 0 43.64-19.538 43.64-43.64 0-24.101-19.538-43.64-43.64-43.64-24.101 0-43.639 19.539-43.639 43.64 0 24.102 19.538 43.64 43.639 43.64Z"/>
    <path stroke="#00A651" stroke-miterlimit="10" d="M778.56 618.18c24.102 0 43.64-19.538 43.64-43.64s-19.538-43.64-43.64-43.64-43.64 19.538-43.64 43.64 19.538 43.64 43.64 43.64Z"/>
    <path stroke="#00A651" stroke-miterlimit="10" d="M784.22 605.46c24.102 0 43.64-19.538 43.64-43.64s-19.538-43.64-43.64-43.64-43.64 19.538-43.64 43.64 19.538 43.64 43.64 43.64Z"/>
    <path stroke="#00A651" stroke-miterlimit="10" d="M792.4 594.2c24.101 0 43.64-19.538 43.64-43.64s-19.539-43.64-43.64-43.64c-24.102 0-43.64 19.538-43.64 43.64s19.538 43.64 43.64 43.64Z"/>
    <path stroke="#00A651" stroke-miterlimit="10" d="M802.749 584.88c24.102 0 43.64-19.538 43.64-43.64s-19.538-43.64-43.64-43.64c-24.101 0-43.64 19.538-43.64 43.64s19.539 43.64 43.64 43.64Z"/>
    <path stroke="#00A651" stroke-miterlimit="10" d="M814.8 577.92c24.102 0 43.64-19.538 43.64-43.64s-19.538-43.64-43.64-43.64-43.64 19.538-43.64 43.64 19.538 43.64 43.64 43.64Z"/>
    <path stroke="#00A651" stroke-miterlimit="10" d="M828.05 573.62c24.102 0 43.64-19.538 43.64-43.64s-19.538-43.64-43.64-43.64-43.64 19.538-43.64 43.64 19.538 43.64 43.64 43.64Z"/>
    <path stroke="#00A651" stroke-miterlimit="10" d="M841.89 572.16c24.102 0 43.64-19.538 43.64-43.64s-19.538-43.64-43.64-43.64-43.64 19.538-43.64 43.64 19.538 43.64 43.64 43.64Z"/>
    <path stroke="#00A651" stroke-miterlimit="10" d="M855.74 573.62c24.101 0 43.64-19.538 43.64-43.64s-19.539-43.64-43.64-43.64c-24.102 0-43.64 19.538-43.64 43.64s19.538 43.64 43.64 43.64Z"/>
    <path stroke="#00A651" stroke-miterlimit="10" d="M868.97 577.92c24.102 0 43.64-19.538 43.64-43.64s-19.538-43.64-43.64-43.64-43.64 19.538-43.64 43.64 19.538 43.64 43.64 43.64Z"/>
    <path stroke="#00A651" stroke-miterlimit="10" d="M881.03 584.88c24.101 0 43.64-19.538 43.64-43.64s-19.539-43.64-43.64-43.64c-24.102 0-43.64 19.538-43.64 43.64s19.538 43.64 43.64 43.64Zm-920.17 0c24.101 0 43.64-19.538 43.64-43.64s-19.54-43.64-43.64-43.64c-24.102 0-43.64 19.538-43.64 43.64s19.538 43.64 43.64 43.64Z"/>
    <path stroke="#00A651" stroke-miterlimit="10" d="M-27.09 577.92c24.101 0 43.64-19.538 43.64-43.64s-19.539-43.64-43.64-43.64c-24.102 0-43.64 19.538-43.64 43.64s19.538 43.64 43.64 43.64Z"/>
    <path stroke="#00A651" stroke-miterlimit="10" d="M-13.84 573.62c24.101 0 43.64-19.538 43.64-43.64s-19.539-43.64-43.64-43.64c-24.102 0-43.64 19.538-43.64 43.64s19.538 43.64 43.64 43.64Z"/>
    <path stroke="#00A651" stroke-miterlimit="10" d="M0 572.16c24.101 0 43.64-19.538 43.64-43.64S24.1 484.88 0 484.88c-24.102 0-43.64 19.538-43.64 43.64S-24.103 572.16 0 572.16Z"/>
    <path stroke="#00A651" stroke-miterlimit="10" d="M13.85 573.62c24.102 0 43.64-19.538 43.64-43.64s-19.538-43.64-43.64-43.64-43.64 19.538-43.64 43.64 19.538 43.64 43.64 43.64Z"/>
    <path stroke="#00A651" stroke-miterlimit="10" d="M27.08 577.92c24.101 0 43.64-19.538 43.64-43.64s-19.539-43.64-43.64-43.64c-24.102 0-43.64 19.538-43.64 43.64s19.538 43.64 43.64 43.64Z"/>
    <path stroke="#00A651" stroke-miterlimit="10" d="M39.14 584.88c24.102 0 43.64-19.538 43.64-43.64S63.242 497.6 39.14 497.6-4.5 517.138-4.5 541.24s19.538 43.64 43.64 43.64Z"/>
    <path stroke="#00A651" stroke-miterlimit="10" d="M49.49 594.2c24.101 0 43.64-19.538 43.64-43.64s-19.539-43.64-43.64-43.64c-24.102 0-43.64 19.538-43.64 43.64s19.538 43.64 43.64 43.64Z"/>
    <path stroke="#00A651" stroke-miterlimit="10" d="M57.67 605.46c24.101 0 43.639-19.538 43.639-43.64s-19.538-43.64-43.64-43.64c-24.101 0-43.64 19.538-43.64 43.64s19.539 43.64 43.64 43.64Z"/>
    <path stroke="#00A651" stroke-miterlimit="10" d="M63.33 618.18c24.101 0 43.639-19.538 43.639-43.64s-19.538-43.64-43.64-43.64c-24.101 0-43.64 19.538-43.64 43.64s19.539 43.64 43.64 43.64Z"/>
    <path stroke="#00A651" stroke-miterlimit="10" d="M66.22 631.79c24.102 0 43.64-19.538 43.64-43.64 0-24.101-19.538-43.64-43.64-43.64s-43.64 19.539-43.64 43.64c0 24.102 19.538 43.64 43.64 43.64Z"/>
    <path stroke="#00A651" stroke-miterlimit="10" d="M66.23 645.71c24.102 0 43.64-19.538 43.64-43.64s-19.538-43.64-43.64-43.64-43.64 19.538-43.64 43.64 19.538 43.64 43.64 43.64Z"/>
    <path stroke="#00A651" stroke-miterlimit="10" d="M63.33 659.33c24.101 0 43.639-19.538 43.639-43.64s-19.538-43.64-43.64-43.64c-24.101 0-43.64 19.538-43.64 43.64s19.539 43.64 43.64 43.64Z"/>
    <path stroke="#00A651" stroke-miterlimit="10" d="M57.67 672.05c24.101 0 43.639-19.538 43.639-43.64s-19.538-43.64-43.64-43.64c-24.101 0-43.64 19.538-43.64 43.64s19.539 43.64 43.64 43.64ZM0 110.23c24.101 0 43.64-19.538 43.64-43.64S24.1 22.95 0 22.95c-24.102 0-43.64 19.539-43.64 43.64 0 24.102 19.538 43.64 43.64 43.64Z"/>
    <path stroke="#00A651" stroke-miterlimit="10" d="M-13.84 108.78c24.101 0 43.64-19.538 43.64-43.64S10.26 21.5-13.84 21.5c-24.102 0-43.64 19.538-43.64 43.64s19.538 43.64 43.64 43.64Z"/>
    <path stroke="#00A651" stroke-miterlimit="10" d="M-27.08 104.47c24.101 0 43.64-19.538 43.64-43.64S-2.98 17.19-27.08 17.19c-24.102 0-43.64 19.538-43.64 43.64s19.538 43.64 43.64 43.64Z"/>
    <path stroke="#00A651" stroke-miterlimit="10" d="M-39.14 97.51c24.101 0 43.64-19.538 43.64-43.64s-19.54-43.64-43.64-43.64c-24.102 0-43.64 19.538-43.64 43.64s19.538 43.64 43.64 43.64Zm96.81-87.17c24.101 0 43.639-19.538 43.639-43.64s-19.538-43.64-43.64-43.64c-24.101 0-43.64 19.538-43.64 43.64s19.539 43.64 43.64 43.64Z"/>
    <path stroke="#00A651" stroke-miterlimit="10" d="M63.33 23.06c24.101 0 43.639-19.538 43.639-43.64 0-24.101-19.538-43.64-43.64-43.64-24.101 0-43.64 19.539-43.64 43.64 0 24.102 19.539 43.64 43.64 43.64Z"/>
    <path stroke="#00A651" stroke-miterlimit="10" d="M66.23 36.68c24.102 0 43.64-19.538 43.64-43.64S90.332-50.6 66.23-50.6 22.59-31.062 22.59-6.96s19.538 43.64 43.64 43.64Z"/>
    <path stroke="#00A651" stroke-miterlimit="10" d="M66.23 50.6c24.102 0 43.64-19.539 43.64-43.64 0-24.102-19.538-43.64-43.64-43.64S22.59-17.142 22.59 6.96c0 24.101 19.538 43.64 43.64 43.64Z"/>
    <path stroke="#00A651" stroke-miterlimit="10" d="M63.33 64.22c24.101 0 43.639-19.538 43.639-43.64s-19.538-43.64-43.64-43.64c-24.101 0-43.64 19.538-43.64 43.64s19.539 43.64 43.64 43.64Z"/>
    <path stroke="#00A651" stroke-miterlimit="10" d="M57.67 76.94c24.101 0 43.639-19.538 43.639-43.64s-19.538-43.64-43.64-43.64c-24.101 0-43.64 19.538-43.64 43.64s19.539 43.64 43.64 43.64Z"/>
    <path stroke="#00A651" stroke-miterlimit="10" d="M49.49 88.2c24.101 0 43.64-19.538 43.64-43.64S73.59.92 49.49.92C25.388.92 5.85 20.458 5.85 44.56S25.388 88.2 49.49 88.2Z"/>
    <path stroke="#00A651" stroke-miterlimit="10" d="M39.14 97.51c24.102 0 43.64-19.538 43.64-43.64S63.242 10.23 39.14 10.23-4.5 29.768-4.5 53.87s19.538 43.64 43.64 43.64Z"/>
    <path stroke="#00A651" stroke-miterlimit="10" d="M27.09 104.47c24.102 0 43.64-19.538 43.64-43.64S51.192 17.19 27.09 17.19s-43.64 19.538-43.64 43.64 19.538 43.64 43.64 43.64Z"/>
    <path stroke="#00A651" stroke-miterlimit="10" d="M13.84 108.78c24.102 0 43.64-19.538 43.64-43.64S37.942 21.5 13.84 21.5c-24.101 0-43.64 19.538-43.64 43.64s19.539 43.64 43.64 43.64Zm828.05 1.45c24.102 0 43.64-19.538 43.64-43.64s-19.538-43.64-43.64-43.64-43.64 19.539-43.64 43.64c0 24.102 19.538 43.64 43.64 43.64Z"/>
    <path stroke="#00A651" stroke-miterlimit="10" d="M828.039 108.78c24.102 0 43.64-19.538 43.64-43.64s-19.538-43.64-43.64-43.64c-24.101 0-43.64 19.538-43.64 43.64s19.539 43.64 43.64 43.64Z"/>
    <path stroke="#00A651" stroke-miterlimit="10" d="M814.81 104.47c24.102 0 43.64-19.538 43.64-43.64s-19.538-43.64-43.64-43.64-43.64 19.538-43.64 43.64 19.538 43.64 43.64 43.64Z"/>
    <path stroke="#00A651" stroke-miterlimit="10" d="M802.749 97.51c24.102 0 43.64-19.538 43.64-43.64s-19.538-43.64-43.64-43.64c-24.101 0-43.64 19.538-43.64 43.64s19.539 43.64 43.64 43.64Z"/>
    <path stroke="#00A651" stroke-miterlimit="10" d="M792.4 88.2c24.101 0 43.64-19.538 43.64-43.64S816.501.92 792.4.92c-24.102 0-43.64 19.538-43.64 43.64S768.298 88.2 792.4 88.2Z"/>
    <path stroke="#00A651" stroke-miterlimit="10" d="M784.22 76.93c24.102 0 43.64-19.538 43.64-43.64s-19.538-43.64-43.64-43.64-43.64 19.538-43.64 43.64 19.538 43.64 43.64 43.64Z"/>
    <path stroke="#00A651" stroke-miterlimit="10" d="M778.56 64.22c24.102 0 43.64-19.538 43.64-43.64s-19.538-43.64-43.64-43.64-43.64 19.538-43.64 43.64 19.538 43.64 43.64 43.64Z"/>
    <path stroke="#00A651" stroke-miterlimit="10" d="M775.659 50.6c24.102 0 43.64-19.539 43.64-43.64 0-24.102-19.538-43.64-43.64-43.64-24.101 0-43.639 19.538-43.639 43.64 0 24.101 19.538 43.64 43.639 43.64Z"/>
    <path stroke="#00A651" stroke-miterlimit="10" d="M775.659 36.68c24.102 0 43.64-19.538 43.64-43.64s-19.538-43.64-43.64-43.64c-24.101 0-43.639 19.538-43.639 43.64s19.538 43.64 43.639 43.64Z"/>
    <path stroke="#00A651" stroke-miterlimit="10" d="M778.56 23.06c24.102 0 43.64-19.538 43.64-43.64 0-24.101-19.538-43.64-43.64-43.64s-43.64 19.539-43.64 43.64c0 24.102 19.538 43.64 43.64 43.64Z"/>
    <path stroke="#00A651" stroke-miterlimit="10" d="M784.22 10.34c24.102 0 43.64-19.538 43.64-43.64s-19.538-43.64-43.64-43.64-43.64 19.538-43.64 43.64 19.538 43.64 43.64 43.64Zm96.81 87.17c24.101 0 43.64-19.538 43.64-43.64s-19.539-43.64-43.64-43.64c-24.102 0-43.64 19.538-43.64 43.64s19.538 43.64 43.64 43.64Z"/>
    <path stroke="#00A651" stroke-miterlimit="10" d="M868.97 104.47c24.102 0 43.64-19.538 43.64-43.64s-19.538-43.64-43.64-43.64-43.64 19.538-43.64 43.64 19.538 43.64 43.64 43.64Z"/>
    <path stroke="#00A651" stroke-miterlimit="10" d="M855.73 108.78c24.102 0 43.64-19.538 43.64-43.64S879.832 21.5 855.73 21.5s-43.64 19.538-43.64 43.64 19.538 43.64 43.64 43.64Z"/>
    <path fill="#fff" d="M0 0h842v11H0zm0 584h842v12H0z"/>
    <path fill="#231F20" d="M203.78 333.87c1.88 8-2.31 13.39-12.11 15.88-10 2.55-17.22-.69-19.54-9.09-1.2-4.4-2.404-8.793-3.61-13.18-2.31-8.39 2.47-15 13-17.68 10.27-2.6 16.68.37 18.55 8.34l.42 1.77a1.563 1.563 0 0 1-1.24 2l-6 1.46a1.488 1.488 0 0 1-1.94-1.17c-.16-.62-.31-1.25-.47-1.87-1-4.15-3.21-5.26-7.69-4.12-4.48 1.14-6 3.67-4.91 7.8 1.333 4.947 2.63 9.903 3.89 14.87 1.09 4.13 3.7 5.56 7.93 4.48 4.23-1.08 5.72-3.08 4.7-7.23-.2-.77-.39-1.55-.58-2.32-.068-.203-.092-.418-.068-.631a1.483 1.483 0 0 1 .638-1.063c.177-.12.378-.201.59-.236 2-.49 4-1 6-1.44a1.57 1.57 0 0 1 2 1.22c.09.73.27 1.47.44 2.21Zm3.49-7.01c-1.67-7.15 2.79-12.77 11.9-14.74 9.11-1.97 15.48 1.34 16.9 8.54l1.32 6.64c1.44 7.33-3 12.59-11.83 14.49-8.83 1.9-15.06-1.07-16.76-8.34l-1.53-6.59Zm11 5.44c.66 2.94 2.7 4.12 5.94 3.42 3.24-.7 4.64-2.5 4-5.56l-1.77-8.47c-.64-3.07-2.58-4.24-6-3.5-3.42.74-4.71 2.6-4 5.66l1.83 8.45Zm47.66-2.95c-1.27 3.28-3.95 5.35-8 6.08-7.08 1.26-12.24-2.08-13.6-9.07-.747-3.946-1.5-7.896-2.26-11.85l-2.39.46a1.461 1.461 0 0 1-1.77-1.05c-.22-1.12-.44-2.24-.65-3.35a1.432 1.432 0 0 1 1.24-1.7c3-.58 6-1.15 9.07-1.71 1.87-.34 2.9.34 3.24 2.19.92 5.107 1.847 10.224 2.78 15.35.54 3 2.37 4.31 5.17 3.81 2.8-.5 4.13-2.39 3.62-5.36-.667-4-1.333-7.983-2-11.95l-2.38.41a1.43 1.43 0 0 1-1.102-.172 1.44 1.44 0 0 1-.648-.908l-.6-3.37a1.442 1.442 0 0 1 1.28-1.67l9.09-1.53c1.88-.31 2.9.39 3.19 2.19.9 5.594 1.797 11.177 2.69 16.75l3.06 2.17a2.912 2.912 0 0 1 .81 4.42l-1.39 1.89a3.064 3.064 0 0 1-3.378 1.271 3.05 3.05 0 0 1-1.132-.591l-3.94-2.71Zm30.67-2.12a1.414 1.414 0 0 1-.294 1.096 1.408 1.408 0 0 1-1.006.524c-4.7.667-9.393 1.333-14.08 2a1.407 1.407 0 0 1-1.111-.215 1.392 1.392 0 0 1-.589-.965c-.18-1.13-.35-2.25-.52-3.38a1.433 1.433 0 0 1 .743-1.416c.166-.089.349-.145.537-.164l2.3-.34-2-13.29-3.07-2.18c-1.68-1.19-2-2.87-.8-4.43l1.46-1.89a3.181 3.181 0 0 1 4.65-.63c1.473 1.047 2.94 2.1 4.4 3.16a7.667 7.667 0 0 1 6.67-5.92l.71-.09c2.53-.34 4 .62 4.31 2.82l.21 1.58c.25 2-.95 3.28-3.11 3.56l-1.63.22c-2.87.39-4.42 2.5-4 5.43l1.44 10.32 2.64-.36c.186-.036.377-.035.563.003a1.44 1.44 0 0 1 1.117 1.147c.15 1.18.31 2.29.46 3.41ZM329.44 316c.6 6.18-3.6 9.88-12.11 10.83-8.68 1-13.18-1.05-13.87-6.48v-.34a1.14 1.14 0 0 1 .228-.916 1.118 1.118 0 0 1 .842-.424l5.77-.7c.75-.09 1.19.2 1.28.94v.22c.22 1.87 1.62 2.38 5.13 2 3.22-.36 4.62-1.42 4.42-3.24 0-.17 0-.34-.05-.51-.14-1.3-.72-1.75-2.3-1.81l-7.59-.17c-6.11-.13-8.7-1.91-9.35-7.06l-.09-.67c-.78-6.1 3.4-10 12.15-11s13.2 1.24 13.72 6.62v.22a1.16 1.16 0 0 1-.589 1.23 1.167 1.167 0 0 1-.461.14l-5.85.6c-.76.08-1.27-.26-1.34-.94v-.23c-.19-1.81-1.49-2.3-4.78-1.94-3.29.36-4.61 1.28-4.39 3.14l.06.46c.15 1.3.73 1.74 2.39 1.78 2.554.046 5.1.106 7.64.18 6.09.1 8.58 2.1 9.08 7.26.01.24.04.5.06.81Zm31.63-1.35c.33 5.29-4.07 8.51-12.37 9.15-9.1.72-14.63-2.79-15.3-9.82l-.72-7.66c-.7-7.3 4.29-12 13.36-12.74 9.07-.74 14.35 2.92 14.8 10.13.08 1.32.17 2.65.25 4 .11 1.76-.65 2.66-2.45 2.78-5.333.36-10.696.764-16.09 1.21.07.81.14 1.62.2 2.44.25 2.95 1.92 4.12 5.55 3.83 2.94-.23 4.26-1.18 4.13-3.05v-.34c0-.68.23-.93.92-1l6.6-.46a.996.996 0 0 1 1.034.588c.058.129.087.27.086.412v.53Zm-19.16-10.57c.07.75.13 1.51.19 2.27 3.287-.28 6.577-.54 9.87-.78-.05-.76-.11-1.51-.16-2.27-.22-2.95-1.85-4.21-5.32-3.94s-4.82 1.83-4.58 4.72Zm67.53 4.44c.08 8.2-5.15 12.56-15.18 12.84-10.26.31-16.52-4.44-16.95-13.15l-.63-13.64c-.43-8.69 5.63-14.09 16.38-14.41 10.51-.3 16.09 4 16.17 12.19v1.82a1.571 1.571 0 0 1-.447 1.205 1.565 1.565 0 0 1-1.193.475c-2 0-4.09.06-6.13.1a1.478 1.478 0 0 1-1.63-1.56v-1.93c-.09-4.27-2-5.83-6.57-5.7-4.57.13-6.6 2.27-6.44 6.53.18 5.12.363 10.244.55 15.37.16 4.26 2.37 6.23 6.71 6.1 4.34-.13 6.2-1.75 6.11-6 0-.8 0-1.6-.05-2.39a1.459 1.459 0 0 1 .392-1.171 1.462 1.462 0 0 1 1.148-.459l6.08-.11a1.57 1.57 0 0 1 1.194.444c.157.154.279.339.36.543.08.205.116.424.106.643l.02 2.26Zm32.45 4.42c-.13 5.3-4.79 8.13-13.11 8.06-9.12-.07-14.32-4-14.38-11.11l-.06-7.68c-.07-7.34 5.3-11.62 14.39-11.56 9.09.06 14 4.15 13.87 11.37l-.09 4c.048.358.011.723-.108 1.064a2.284 2.284 0 0 1-2.572 1.496 818.942 818.942 0 0 0-16.13-.18v2.45c0 3 1.56 4.27 5.2 4.3 2.94 0 4.34-.81 4.37-2.69v-.34c0-.69.3-.91 1-.9l6.62.11a.993.993 0 0 1 .749.331.997.997 0 0 1 .251.779v.5Zm-18.17-12.18V303c3.3 0 6.6 0 9.9.08v-2.28c0-3-1.48-4.35-5-4.38-3.52-.03-4.89 1.44-4.9 4.34Zm39.33 19.04a1.414 1.414 0 0 1-.484 1.018 1.391 1.391 0 0 1-1.076.332c-4.734-.2-9.464-.367-14.19-.5a1.407 1.407 0 0 1-1.37-.898 1.414 1.414 0 0 1-.09-.572l.09-3.41a1.434 1.434 0 0 1 1.54-1.33l2.31.07c.14-4.467.276-8.943.41-13.43-.87-.9-1.75-1.8-2.63-2.69-1.43-1.47-1.45-3.17 0-4.5l1.76-1.6a3.17 3.17 0 0 1 2.384-.928A3.183 3.183 0 0 1 454 292.49l3.76 3.9a7.648 7.648 0 0 1 7.6-4.64h.71c2.55.12 3.86 1.33 3.74 3.55 0 .53-.05 1.06-.08 1.59-.1 2-1.51 3.06-3.68 2.95l-1.65-.07c-2.88-.13-4.78 1.68-4.89 4.63l-.42 10.41 2.66.11a1.44 1.44 0 0 1 1.44 1.44l-.14 3.44Zm21.18 2.61c-6.83-.45-9.33-3-9-9.17l.81-14.15-3.11-.18a1.454 1.454 0 0 1-1.52-1.56c.06-1.08.12-2.16.17-3.24a1.495 1.495 0 0 1 .537-1.061 1.492 1.492 0 0 1 1.143-.329l3.14.17c.09-1.51.17-3 .26-4.55a3 3 0 0 1 3.47-3l3 .19a2.999 2.999 0 0 1 3 3.39c-.11 1.51-.21 3-.31 4.54l5.15.36a1.505 1.505 0 0 1 1.394 1.001c.069.192.098.396.086.599l-.24 3.23a1.455 1.455 0 0 1-.536 1.064 1.444 1.444 0 0 1-1.154.296l-5.06-.35c-.307 4.666-.624 9.333-.95 14-.12 1.76.48 2.48 2.15 2.6l2.66.19a1.423 1.423 0 0 1 1.085.466 1.427 1.427 0 0 1 .365 1.124c-.08 1-.15 2-.23 3a1.54 1.54 0 0 1-1.79 1.64l-4.52-.27Zm10.21.75a1.383 1.383 0 0 1-1.029-.459 1.386 1.386 0 0 1-.351-1.071c.09-1.14.17-2.27.26-3.41a1.412 1.412 0 0 1 .544-.959 1.406 1.406 0 0 1 1.066-.281l2.42.19 1.35-16.51-2.47-.2a1.446 1.446 0 0 1-1.324-.921 1.423 1.423 0 0 1-.096-.559c.08-1.14.17-2.27.26-3.41a1.407 1.407 0 0 1 1.65-1.29c3.07.24 6.15.49 9.22.77 1.89.16 2.7 1.1 2.53 2.91l-1.83 20 2.54.24a1.428 1.428 0 0 1 1.001.461 1.428 1.428 0 0 1 .369 1.039l-.33 3.4a1.4 1.4 0 0 1-1.62 1.28c-4.72-.44-9.44-.84-14.16-1.22Zm6.95-31.42c-1.89-.16-2.83-1.2-2.68-3 .06-.85.13-1.7.2-2.55.15-1.82 1.24-2.7 3.15-2.55l4.43.38c2 .18 2.9 1.24 2.73 3.05-.07.85-.15 1.7-.23 2.55-.16 1.76-1.32 2.63-3.21 2.46l-4.39-.34Zm27.47 11.86c-.62 5.48-1.243 10.967-1.87 16.46l2.59.3a1.441 1.441 0 0 1 .99.485 1.42 1.42 0 0 1 .35 1.045 391.1 391.1 0 0 0-.4 3.39 1.398 1.398 0 0 1-1.66 1.24c-4.74-.547-9.49-1.063-14.25-1.55a1.4 1.4 0 0 1-1.35-1.56c.12-1.13.23-2.27.34-3.4a1.427 1.427 0 0 1 1.069-1.187c.184-.045.374-.053.561-.023l2.43.25a6413.7 6413.7 0 0 1 1.7-16.48l-3.05-.31a1.458 1.458 0 0 1-1.074-.47 1.454 1.454 0 0 1-.376-1.11l.33-3.28a1.48 1.48 0 0 1 1.74-1.32l3.07.32.3-2.89c.57-5.61 3.44-7.67 9.59-7l4.23.48c2 .23 2.78 1.08 2.6 2.6-.08.62-.15 1.25-.23 1.87a2 2 0 0 1-2.55 1.7l-2.43-.28a1.472 1.472 0 0 0-.704-.039 1.47 1.47 0 0 0-1.077.846 1.487 1.487 0 0 0-.129.693c-.11 1-.22 2-.34 3l4.84.56a1.507 1.507 0 0 1 1.35 1.059c.06.194.081.399.06.601l-.39 3.28a1.548 1.548 0 0 1-1.75 1.22l-4.51-.5Zm7.14 23.77a1.399 1.399 0 0 1-1.31-1.59l.42-3.39a1.41 1.41 0 0 1 .581-.941 1.422 1.422 0 0 1 1.079-.239l2.41.31c.7-5.48 1.397-10.96 2.09-16.44l-2.46-.31a1.448 1.448 0 0 1-1.36-1.54l.42-3.39a1.403 1.403 0 0 1 .579-.988 1.409 1.409 0 0 1 1.121-.232c3.074.38 6.137.773 9.19 1.18 1.89.25 2.65 1.22 2.41 3l-2.73 19.91 2.53.35a1.438 1.438 0 0 1 .975.509 1.436 1.436 0 0 1 .325 1.051l-.48 3.38a1.39 1.39 0 0 1-1.68 1.2c-4.74-.627-9.443-1.237-14.11-1.83Zm8.36-31.08c-1.89-.24-2.77-1.32-2.55-3.08l.32-2.54c.22-1.8 1.36-2.64 3.26-2.39l4.41.57c2 .27 2.85 1.37 2.6 3.17-.11.85-.23 1.69-.34 2.54-.24 1.75-1.44 2.56-3.33 2.31l-4.37-.58Zm22.73 16.46c-.453 2.853-.897 5.703-1.33 8.55-.48 3.1.84 4.8 4 5.3s4.66-.45 5.07-2.92c.06-.39.13-.79.19-1.18a1.376 1.376 0 0 1 1.104-1.23c.194-.038.394-.035.586.01 1.94.32 3.877.653 5.81 1a1.473 1.473 0 0 1 1.045.607 1.472 1.472 0 0 1 .245 1.183c-.06.37-.13.74-.19 1.12-1.12 6.28-6.44 8.9-14.9 7.54-8.69-1.39-13.26-6.39-12.2-13.78.32-2.24.64-4.47 1-6.71 1-7.26 7.09-10.9 16-9.47 8.76 1.41 13 5.77 11.9 12l-.16 1a1.487 1.487 0 0 1-.642 1.022 1.505 1.505 0 0 1-1.188.218l-5.85-1a1.381 1.381 0 0 1-1.21-1.7c0-.32.11-.64.16-.95.42-2.53-.85-4-3.94-4.45-3.09-.45-5.02.75-5.5 3.84Zm39.52 22.5c-2.3 2.33-5.71 3.21-9.62 2.46-7.08-1.36-10.61-5.16-9.65-10.54l.12-.67c1-5.77 5.21-7.77 13.24-6.22a27.826 27.826 0 0 1 5.93 1.85l.81-4.07c.41-2.07-.68-3.27-3.53-3.83-2.85-.56-4.21 0-4.56 1.79 0 .19-.07.37-.1.56a.999.999 0 0 1-1.3.85l-6.26-1.16a1.115 1.115 0 0 1-1-1.45l.12-.62c1-5.32 6.05-7.43 14.25-5.84 8.49 1.66 12.71 6.24 11.45 12.19l-2.22 10.59 2 2.91a3 3 0 0 1-.83 4.43l-2 1.26a3.072 3.072 0 0 1-4.46-1l-2.39-3.49Zm-10.24-7c-.41 2.18.87 3.52 3.66 4.06 2.57.5 4.69-.64 5.14-2.87l.54-2.74a14.896 14.896 0 0 0-4.13-1.39c-3-.58-4.68.14-5.1 2.38-.04.2-.07.38-.11.57v-.01Zm34.56 15.94c-6.7-1.54-8.791-4.43-7.461-10.49 1.02-4.62 2.02-9.237 3-13.85l-3.069-.67a1.45 1.45 0 0 1-1.25-1.78c.23-1.06.46-2.12.68-3.18a1.497 1.497 0 0 1 1.283-1.155c.204-.024.41-.005.606.055l3.081.67c.33-1.48.66-3 1-4.45a2.999 2.999 0 0 1 3.919-2.39l3 .67a2.992 2.992 0 0 1 2.104 1.353 3.01 3.01 0 0 1 .347 2.477c-.34 1.48-.69 3-1 4.44l5.059 1.18a1.527 1.527 0 0 1 .994.647 1.523 1.523 0 0 1 .227 1.163l-.75 3.16a1.456 1.456 0 0 1-1.293 1.146 1.453 1.453 0 0 1-.607-.076l-5-1.16c-1.06 4.567-2.117 9.133-3.17 13.7-.39 1.72.079 2.53 1.719 2.92l2.611.61a1.438 1.438 0 0 1 1.004.629 1.423 1.423 0 0 1 .186 1.171c-.23 1-.47 2-.7 2.94a1.563 1.563 0 0 1-.685 1.14 1.554 1.554 0 0 1-1.315.19l-4.52-1.06Zm37.6 1.67c-1.4 5.11-6.65 6.72-14.77 4.62-8.9-2.29-13-7.41-11.37-14.29l1.8-7.47c1.71-7.13 8-10 16.86-7.7s12.74 7.46 10.82 14.42l-1 3.84c-.47 1.71-1.49 2.31-3.24 1.84a1260.617 1260.617 0 0 0-15.78-4.12l-.6 2.37c-.73 2.87.48 4.52 4 5.44 2.88.74 4.45.27 4.93-1.55 0-.11.06-.22.08-.33.18-.66.52-.8 1.2-.62 2.15.57 4.3 1.14 6.45 1.73a.994.994 0 0 1 .665.494.998.998 0 0 1 .065.826l-.11.5Zm-14.82-16.25c-.19.73-.37 1.47-.56 2.21 3.233.807 6.453 1.637 9.66 2.49.19-.74.39-1.47.58-2.21.76-2.86-.39-4.58-3.79-5.45-3.4-.87-5.18.14-5.89 2.96Z"/>
    <path stroke="#A7A9AC" stroke-miterlimit="10" d="M283.82 404.66h274.25"/>
    <path fill="#231F20" d="M436.61 540.1c.15 0 .29-.24.46-.39-1.15-1.17-2.46.28-3.7-.38a35.133 35.133 0 0 1 3.65-4.05c.33-.31 1-.86.5-1.42-.5-.56-1 .09-1.41.45a9.895 9.895 0 0 1-2.83 2.18c-.42.18-.84.52-1.19.09-.35-.43.06-.78.39-1.1.55-.51 1-1.08 1.6-1.6a.847.847 0 0 0 .22-1.18c-.36-.57-.82-.37-1.32-.16a3.513 3.513 0 0 0-1.44 1.47 4.301 4.301 0 0 1-2.91 2.2l-.49.28c-.27.51-.81.21-1.19.4a.937.937 0 0 1-1.23-.19c-.36-.51.13-.9.51-1.46.44.57.55 1.9 1.68.94l.47-.22c.71-1 2.08-2.06.93-3.26-1.15-1.2-2.11.28-3.08.85l-.75.43c-1-1.8-1.45 0-2 .41a31.856 31.856 0 0 0-3 2.54c-.5.45-1 .9-1.67.59-.67-.31-.18-1-.29-1.54-.11-.54.33-1.24-.43-1.48s-1 .49-1.34.87a10.145 10.145 0 0 1-3.13 2.65c0-.88.53-1.21.93-1.68s.73-.76.28-1.32a.998.998 0 0 0-1.36-.2 19.538 19.538 0 0 0-3 1.56 7.103 7.103 0 0 1-5 1.6c.28-.52.44-.85.63-1.17.7-1.19 2.37-2.36 1.25-3.77-1.12-1.41-2.67-.13-4 .31-.18.27-.53.56-.72.33-.19-.23.21-.52.42-.75.17-2.23-.5-2.72-2.61-2-.85.3-1.61 1-2.63.83.17-.43.28-.79.45-1.12a1.995 1.995 0 0 0 .05-2.15 1.86 1.86 0 0 0-2.3-.31c-1.1.42-2.35.47-3.28 1.3a27.487 27.487 0 0 0-5 2.92c-3.38 2.27-5.88 5.44-8.75 8.23v.76a2.498 2.498 0 0 0 1.39-.76 41.431 41.431 0 0 1 12.43-10.29 5.465 5.465 0 0 0 1.43-.48c.93-.62 2.37-1.22 2.9-.64.76.83-.42 1.9-.93 2.8-1.46 2.6-3.78 4.54-5.46 7-.39.56-1.12 1.25-.36 1.8.76.55 1.12-.39 1.5-.92 1.913-3 4.524-5.491 7.61-7.26A3.27 3.27 0 0 1 402 532a9.243 9.243 0 0 1-.56 1.1 24.432 24.432 0 0 1-3.12 4c-.29.27-1 .84-.26 1.42.57.45.92-.13 1.26-.4.34-.27.74-.87 1.16-1.26 1.68-1.56 3.47-2.94 6-3.13-.24 1.62-1.47 2.42-2.07 3.59-.34.64-1.36 1.21-.78 2 .58.79 1.54.26 2.33.11.79-.15 1.36-.69 1.86.12.66 1.06 1.3.53 2.09.2.6-.25 1.3-1.13 1.85-.59 1.57 1.54 2.43.09 3.56-.56.51-.3.84-1 1.59-.86.16 1.93.94 2.35 2.71 1.41a25.559 25.559 0 0 0 4.51-3.41c.4 2.61 1.27 3.18 3.69 2.32 1.64-.57 3.21-1.27 4.72.25a8.775 8.775 0 0 1-2.74 3.3c-5.64 3.21-8.48 8.45-10.64 14.2-.34.89-1 2.18.09 2.73 1.09.55 1.84-.74 2.47-1.52a75.964 75.964 0 0 0 5.22-8.3c2.31-3.89 4.12-8.35 9.67-8.62Zm-15.82 15.43a20.063 20.063 0 0 1 6.3-10.15c-1.99 3.47-3.64 7.14-6.3 10.15Zm22.85-.96c-.14 0-.38.13-.41.08-.03-.05 0-.28.18-.33v-.75c0-.83.16-1.92-.82-2.08-.81-.13-1.35.71-1.54 1.58a3.486 3.486 0 0 1-.35.88c-1.19 2.14-.7 4.68-1.66 6.87-.34.77.34.79.76 1 .42.21.87.16.89-.47a1.684 1.684 0 0 1 .69-1.27 34.533 34.533 0 0 0 3.7-4.05c.51-.65 1.08-1.35.47-2-.61-.65-1.34.03-1.91.54Z"/>
    <path fill="#231F20" d="M442.69 549.8c.6.216 1.249.254 1.87.11a3.074 3.074 0 0 0 2.93-.37 3.92 3.92 0 0 0-2.87-.43l-1.93-.06a76.477 76.477 0 0 0-12.66-.33c-.5.2-.5.39 0 .58l6.4.51c-.27 1.48-1.82 2-2.26 3.24a27.38 27.38 0 0 0-5.18 5.24l.4.39 5.27-5.06c.56.2.33.58.21.92-.72 2.08-1.47 4.14-2.14 6.24-.15.48-.94 1.23.12 1.55.87.27 1-.65 1.21-1.17.76-2.13 1.42-4.29 2.12-6.44.51-1.54.61-3.47 1.64-4.51 1.03-1.04 3.18-.16 4.87-.41Zm-4.16-1.8a3.285 3.285 0 0 0 2.65-2.77c0-1.06-.69-1.29-1.44-1.38-.75-.09-2.79 1.89-2.69 2.8a1.331 1.331 0 0 0 1.48 1.35Z"/>
    <path fill="#fff" d="M0 0h10v596H0zm832 0h10v596h-10z"/>
  </g>
  <defs>
    <clipPath id="a">
      <path fill="#fff" d="M0 0h841.89v595.28H0z"/>
    </clipPath>
  </defs>
</svg>
