<svg xmlns="http://www.w3.org/2000/svg" xmlns:xlink="http://www.w3.org/1999/xlink" width="360" height="156" viewBox="0 0 360 156" aria-hidden="true" focusable="false">
  <defs>
    <path id="designs-a" d="M8.72726951,8.27100468 C15.4476642,2.56124149 33.705241,-0.175855994 63.5,0.0597122302 C91.1167931,0.278060663 108.821468,2.65114656 116.614024,7.17896993 L116.614025,7.17896727 C117.828001,7.88434154 118.879835,8.83744769 119.701065,9.97625036 C124.368274,16.4482855 126.701878,26.8765857 126.701878,41.2611511 C126.701878,55.7743134 124.326363,66.260157 119.575332,72.7186818 L119.575333,72.7186827 C118.822231,73.7424455 117.880879,74.6132654 116.801678,75.2845172 C109.108012,80.069899 91.3407862,82.4625899 63.5,82.4625899 C33.6502179,82.4625899 15.3802696,79.7121261 8.69015512,74.2111985 L8.69015533,74.2111982 C8.53601654,74.084458 8.37811856,73.9623601 8.2166735,73.8450685 C2.93763921,70.0097905 0.298122066,59.1484847 0.298122066,41.2611511 C0.298122066,23.4197433 2.92410266,12.5683309 8.17606384,8.70691395 L8.17606547,8.70691617 C8.36485053,8.5681151 8.5486987,8.42272152 8.72726951,8.27100468 Z"/>
    <linearGradient id="designs-c" x1="50%" x2="50%" y1="0%" y2="100%">
      <stop offset="0%" stop-color="#5EC5F9"/>
      <stop offset="100%" stop-color="#3093F0"/>
    </linearGradient>
    <circle id="designs-d" cx="70.746" cy="70.899" r="70"/>
    <ellipse id="designs-e" cx="44.118" cy="159.301" rx="51.873" ry="51.95"/>
    <linearGradient id="designs-f" x1="70.743%" x2="50%" y1="-18.191%" y2="100%">
      <stop offset="0%" stop-color="#B300F4"/>
      <stop offset="100%" stop-color="#F0A"/>
    </linearGradient>
    <ellipse id="designs-g" cx="47.342" cy="47.232" rx="47.163" ry="47.232"/>
  </defs>
  <g fill="none" fill-rule="evenodd">
    <path fill="#CFD8E3" d="M269.6,98.2 C273.495298,98.2 276.668113,101.293319 276.795993,105.157506 L276.8,105.4 L276.799,141.245 L280.291949,141.336891 L281.69544,141.375236 C281.645384,141.070345 281.614481,140.759005 281.604007,140.442494 L281.6,140.2 L281.6,105.4 C281.6,101.504702 284.693319,98.331887 288.557506,98.2040068 L288.8,98.2 L308,98.2 C311.895298,98.2 315.068113,101.293319 315.195993,105.157506 L315.2,105.4 L315.2,140.2 C315.2,141.032463 315.058722,141.831929 314.798836,142.575729 L316.879435,142.674917 L321.221659,142.902712 L321.982417,142.945093 L321.988474,142.945416 L322.167,142.955074 L323.275884,143.018952 L324.187,143.073074 L324.838439,143.111583 L325.41,143.147074 L325.891893,143.176278 L327.326,143.267074 L327.527074,143.280642 L327.56,143.282074 L327.760676,143.295973 L330.126613,143.457759 L330.41,143.478074 L330.658093,143.495871 L331.433,143.554074 L332.347125,143.621961 L332.646,143.645074 L332.976764,143.671047 L334.073395,143.759597 L334.282,143.777074 L334.420372,143.788485 L335.18,143.854074 L335.639292,143.893586 L335.717,143.900074 L335.87756,143.914843 L336.494,143.971074 L337.109614,144.028931 L338.036333,144.119893 L338.423,144.160074 L338.893038,144.207786 L340.334908,144.363863 L341.635728,144.517991 L342.521642,144.634052 L343.332903,144.751871 L343.833262,144.831997 L344.301931,144.91381 L344.739503,144.997674 L345.146575,145.083949 L345.154,145.085074 L345.164205,145.087602 L345.266115,145.109839 L345.266115,145.109839 L345.653072,145.20068 L346.007497,145.294981 C347.417538,145.695906 348,146.201885 348,147 C348,147.549462 347.625893,147.992637 346.794509,148.367827 L346.544455,148.473207 L346.269085,148.575086 L345.967967,148.673662 L345.64067,148.769133 L345.286763,148.861699 L344.905814,148.951558 L344.497394,149.038908 L344.06107,149.123947 L343.596411,149.206875 L342.845353,149.327742 L342.307973,149.406259 L341.445811,149.52144 L340.515048,149.634103 L339.855708,149.708143 L338.807375,149.818098 L337.68656,149.927322 L335.221666,150.146256 L332.933273,150.33238 L330.31214,150.529012 L327.485024,150.722091 L325.691458,150.836165 L322.542649,151.023213 L319.197707,151.206276 L315.660421,151.385184 L312.694651,151.525208 L308.820694,151.696219 L303.932389,151.895316 L300.531364,152.024208 L294.312535,152.242086 L288.739048,152.420158 L281.786451,152.622427 L275.782192,152.781286 L268.337213,152.96005 L260.64435,153.125613 L254.054812,153.253306 L247.311726,153.371492 L240.423543,153.480015 L231.978096,153.597272 L223.350483,153.700124 L214.555308,153.788305 L204.101976,153.872283 L193.463641,153.935502 L187.310456,153.962144 L174.862885,153.994359 L167,154 L158.42052,153.993225 L149.988201,153.973013 L138.986108,153.925458 L126.956954,153.844274 L117.870335,153.761218 L109.031589,153.661037 L102.876106,153.579144 L94.4881083,153.450235 L88.6662382,153.348107 L80.7616076,153.191269 L74.2221993,153.044151 L67.9080055,152.885504 L60.8354174,152.686073 L55.0331674,152.503034 L52.702481,152.42228 C52.3558884,152.64638 51.8980174,152.635809 51.5605807,152.382468 L49.4782663,152.309007 L44.2495008,152.107045 L40.9400915,151.96808 L37.7562328,151.825125 L34.6995781,151.678277 L31.0601594,151.489392 L28.2957593,151.334145 L25.0268904,151.135071 L23.1663459,151.013026 L20.8046395,150.847352 L18.5804714,150.6784 L16.4954949,150.506266 L14.5513635,150.33105 L13.2569856,150.206136 L11.6536169,150.041546 L10.187067,149.877282 L9.17487781,149.753043 L8.5410538,149.669231 L7.93950446,149.584327 L7.36980087,149.498068 L6.83151414,149.410195 L6.32421538,149.320446 L5.84747569,149.22856 L5.40086617,149.134276 L4.98395791,149.037333 L4.59632204,148.93747 C4.40975072,148.886765 4.23399569,148.834867 4.06881572,148.781629 L3.75248437,148.673324 L3.46392425,148.561186 C2.4562602,148.142664 2,147.64157 2,147 C2,146.320356 2.47213576,145.811846 3.52908721,145.394452 L3.83193091,145.282817 C3.93776844,145.246318 4.04852381,145.210512 4.16428169,145.175339 L4.52664749,145.071657 L4.91953626,144.971412 L5.34345594,144.874242 L5.7989145,144.779786 L6.28641987,144.687684 L6.80648001,144.597576 L7.64872153,144.465361 L8.25239085,144.378658 L9.22242716,144.24986 L10.638936,144.078582 L12.176327,143.907707 L13.4651303,143.774326 L15.3069349,143.598966 L17.2884099,143.426531 L19.4080731,143.257118 L21.6644426,143.090824 L24.0560364,142.927748 L26.5813723,142.767985 L29.2389684,142.611634 L32.0273427,142.458792 L35.6944595,142.272822 L38,142.164 L38,125.8 C38,121.904702 41.0933189,118.731887 44.9575056,118.604007 L45.2,118.6 L101.6,118.6 C105.495298,118.6 108.668113,121.693319 108.795993,125.557506 L108.8,125.8 L108.8,140.342 L113.6,140.285 L113.6,125.8 C113.6,121.904702 116.693319,118.731887 120.557506,118.604007 L120.8,118.6 L198.8,118.6 C202.695298,118.6 205.868113,121.693319 205.995993,125.557506 L206,125.8 L206,140.142 L210.799,140.179 L210.8,105.4 C210.8,101.504702 213.893319,98.331887 217.757506,98.2040068 L218,98.2 L269.6,98.2 Z M198.8,121 L120.8,121 C118.220681,121 116.116531,123.034439 116.004677,125.586189 L116,125.8 L116,151.74 L119.178532,151.774288 L126.97761,151.844375 L133.61005,151.893032 L143.090753,151.946063 L152.789242,151.981244 L159.843921,151.995294 L167,152 L174.859483,151.994361 L187.301576,151.962163 L198.030379,151.911023 L203.6,151.873 L203.6,125.8 C203.6,123.220681 201.565561,121.116531 199.013811,121.004677 L198.8,121 Z M206.000952,142.141248 L206,151.857 L207.090643,151.850466 L210.799,151.819 L210.799,142.178 L207.289323,142.150903 C206.860299,142.147633 206.43084,142.144414 206.000952,142.141248 Z M269.6,100.6 L218,100.6 C215.420681,100.6 213.316531,102.634439 213.204677,105.186189 L213.2,105.4 L213.199,151.799 L214.533912,151.788417 L220.412435,151.731305 L229.09326,151.633369 L234.782857,151.560015 L243.160003,151.43809 L251.335468,151.302128 L260.59912,151.126122 L267.022926,150.989165 L273.276244,150.843018 L274.399,150.814 L274.4,105.4 C274.4,102.749033 272.250967,100.6 269.6,100.6 Z M113.6,142.285 L110.130523,142.325606 L108.935654,142.340372 L108.8,142.342 L108.8,151.656 L112.817258,151.706249 L113.6,151.714 L113.6,142.285 Z M101.6,121 L45.2,121 C42.620681,121 40.5165306,123.034439 40.4046768,125.586189 L40.4,125.8 L40.399,149.941 L42.6676971,150.040019 L46.8909911,150.210112 L49.353,150.301 L49.312436,150.262759 L49.2267093,150.170855 C48.9374006,149.819014 48.9235854,149.312604 49.1932811,148.945512 L49.2738697,148.849071 L49.3657734,148.763344 C49.7176149,148.474036 50.2240249,148.460221 50.5911164,148.729916 L50.6875573,148.810505 L52.1109967,150.157 L55.2634204,146.723646 L55.3539998,146.636521 C55.7329462,146.315067 56.3008436,146.318617 56.6763511,146.663424 C57.083151,147.036964 57.1101132,147.669555 56.736573,148.076354 C55.8717484,149.018182 55.1350211,149.820507 54.526391,150.483328 L57.970562,150.597051 L63.8889655,150.774373 L71.0927441,150.967044 L76.429598,151.095157 L83.0378391,151.238276 L91.0199092,151.390393 L96.8952006,151.489111 L105.355333,151.613193 L106.399,151.626 L106.4,125.8 C106.4,123.220681 104.365561,121.116531 101.813811,121.004677 L101.6,121 Z M276.799,143.246 L276.799,150.751 L281.728376,150.623269 L288.676332,150.421142 L294.245906,150.243196 L297.83458,150.120122 L303.848851,149.897051 L308.72781,149.698357 L311.835371,149.56221 L315.553162,149.388036 L320.440109,149.137051 L323.062504,148.990052 L326.162809,148.802808 L328.498512,148.650325 L331.234248,148.456504 L333.341574,148.293485 L334.970332,148.15739 L336.497129,148.020058 L337.921119,147.881566 L338.812913,147.788633 L339.658391,147.695242 L340.839215,147.554346 L341.914418,147.412549 L342.572125,147.317556 L343.182263,147.222218 L343.784946,147.119325 L344.41,146.999 L343.892,146.900074 L343.616,146.851074 L343.272,146.793074 L342.933,146.738074 L342.529,146.677074 L342.124143,146.61699 C342.106857,146.614529 342.089521,146.612068 342.072137,146.609607 L341.873,146.582074 L341.241,146.497074 L340.797,146.441074 L340.549,146.410074 L339.593,146.298074 L339.222,146.256074 L338.088,146.135074 L337.296,146.057074 L336.688,145.998074 L336.539,145.984074 L334.916,145.838074 L334.636,145.814074 L334.012,145.762074 L332.855,145.668074 L331.023,145.529074 L330.163,145.466074 L329.594,145.425074 L327.594,145.289074 L327.286,145.269074 L325.003,145.125074 L324.677,145.105074 L321.876237,144.942264 L321.873,144.942074 L321.793558,144.93762 L318.977556,144.784916 L315.26414,144.597946 L313.755379,144.526846 C312.486813,146.211562 310.495704,147.321426 308.242494,147.395993 L308,147.4 L288.8,147.4 C285.970872,147.4 283.522855,145.768269 282.345728,143.394587 L278.732556,143.295928 L276.799,143.246 Z M38,144.166 L36.5503212,144.2339 L33.5787913,144.380777 L29.3631338,144.607812 L26.0748921,144.80294 L23.5936081,144.962775 L21.2467101,145.125813 L19.0357367,145.291947 L17.4676327,145.418516 L15.4982292,145.589813 L13.668981,145.763914 L12.8073959,145.851983 L11.412094,146.00464 L10.4888311,146.113791 L9.62047452,146.223661 C9.48034151,146.24203 9.34250942,146.260426 9.20698484,146.278849 L8.42158008,146.389692 L7.69187139,146.501113 L7.01817464,146.613054 L6.40080573,146.725458 C6.30262245,146.744227 6.20679933,146.763014 6.11334294,146.781816 L5.46268509,146.921775 L5.139,146.999 L5.3964662,147.062781 L5.89418071,147.173139 L6.16487077,147.228488 C6.33884576,147.263153 6.52076602,147.297748 6.71059326,147.332269 L7.30375765,147.435602 L7.94413425,147.538453 L8.63149332,147.640788 L9.36560518,147.742575 L10.5539319,147.894152 L11.8461603,148.044306 L12.7649862,148.143562 L13.7294164,148.242102 L15.6882316,148.427381 L17.6925943,148.600135 L19.837338,148.769839 L21.5370048,148.895053 L23.9233512,149.059169 L25.8022803,149.180074 L29.1015639,149.377294 L31.8900521,149.531096 L35.5592181,149.71821 L38,149.832 L38,144.166 Z M141.2,125.8 C143.188225,125.8 144.8,127.411775 144.8,129.4 L144.8,146.2 C144.8,148.188225 143.188225,149.8 141.2,149.8 L124.4,149.8 C122.411775,149.8 120.8,148.188225 120.8,146.2 L120.8,129.4 C120.8,127.411775 122.411775,125.8 124.4,125.8 L141.2,125.8 Z M263,141.4 C265.319596,141.4 267.2,143.280404 267.2,145.6 C267.2,147.919596 265.319596,149.8 263,149.8 L224.6,149.8 C222.280404,149.8 220.4,147.919596 220.4,145.6 C220.4,143.280404 222.280404,141.4 224.6,141.4 L263,141.4 Z M170,125.8 C171.988225,125.8 173.6,127.411775 173.6,129.4 L173.6,146.2 C173.6,148.188225 171.988225,149.8 170,149.8 L153.2,149.8 C151.211775,149.8 149.6,148.188225 149.6,146.2 L149.6,129.4 C149.6,127.411775 151.211775,125.8 153.2,125.8 L170,125.8 Z M96.8,147.4 C97.4627417,147.4 98,147.937258 98,148.6 C98,149.262742 97.4627417,149.8 96.8,149.8 L62,149.8 C61.3372583,149.8 60.8,149.262742 60.8,148.6 C60.8,147.937258 61.3372583,147.4 62,147.4 L96.8,147.4 Z M263,143.8 L224.6,143.8 C223.605887,143.8 222.8,144.605887 222.8,145.6 C222.8,146.535635 223.513866,147.304538 224.426648,147.39176 L224.6,147.4 L263,147.4 C263.994113,147.4 264.8,146.594113 264.8,145.6 C264.8,144.664365 264.086134,143.895462 263.173352,143.80824 L263,143.8 Z M170,128.2 L153.2,128.2 C152.584597,128.2 152.077391,128.663248 152.008073,129.260055 L152,129.4 L152,146.2 C152,146.815403 152.463248,147.322609 153.060055,147.391927 L153.2,147.4 L170,147.4 C170.615403,147.4 171.122609,146.936752 171.191927,146.339945 L171.2,146.2 L171.2,129.4 C171.2,128.784597 170.736752,128.277391 170.139945,128.208073 L170,128.2 Z M192.8,143.8 C193.462742,143.8 194,144.337258 194,145 C194,145.662742 193.462742,146.2 192.8,146.2 L179.6,146.2 C178.937258,146.2 178.4,145.662742 178.4,145 C178.4,144.337258 178.937258,143.8 179.6,143.8 L192.8,143.8 Z M308,100.6 L288.8,100.6 C286.220681,100.6 284.116531,102.634439 284.004677,105.186189 L284,105.4 L284,140.2 C284,142.779319 286.034439,144.883469 288.586189,144.995323 L288.8,145 L308,145 C310.579319,145 312.683469,142.965561 312.795323,140.413811 L312.8,140.2 L312.8,105.4 C312.8,102.749033 310.650967,100.6 308,100.6 Z M56.6763511,137.063424 C57.0518587,137.40823 57.1037176,137.973766 56.8156744,138.37869 L56.736573,138.476354 L52.896573,142.658264 L52.8049845,142.746249 C52.4536715,143.043499 51.9411514,143.061411 51.5699436,142.789413 L51.472436,142.708036 L49.312436,140.662759 L49.2267093,140.570855 C48.9374006,140.219014 48.9235854,139.712604 49.1932811,139.345512 L49.2738697,139.249071 L49.3657734,139.163344 C49.7176149,138.874036 50.2240249,138.860221 50.5911164,139.129916 L50.6875573,139.210505 L52.1109967,140.557 L55.2634204,137.123646 L55.3539998,137.036521 C55.7329462,136.715067 56.3008436,136.718617 56.6763511,137.063424 Z M188,139 C188.662742,139 189.2,139.537258 189.2,140.2 C189.2,140.862742 188.662742,141.4 188,141.4 L179.6,141.4 C178.937258,141.4 178.4,140.862742 178.4,140.2 C178.4,139.537258 178.937258,139 179.6,139 L188,139 Z M96.8,137.8 C97.4627417,137.8 98,138.337258 98,139 C98,139.662742 97.4627417,140.2 96.8,140.2 L62,140.2 C61.3372583,140.2 60.8,139.662742 60.8,139 C60.8,138.337258 61.3372583,137.8 62,137.8 L96.8,137.8 Z M305.6,136 C306.594113,136 307.4,136.805887 307.4,137.8 C307.4,138.735635 306.686134,139.504538 305.773352,139.59176 L305.6,139.6 L291.2,139.6 C290.205887,139.6 289.4,138.794113 289.4,137.8 C289.4,136.864365 290.113866,136.095462 291.026648,136.00824 L291.2,136 L305.6,136 Z M263,129.4 C265.319596,129.4 267.2,131.280404 267.2,133.6 C267.2,135.919596 265.319596,137.8 263,137.8 L224.6,137.8 C222.280404,137.8 220.4,135.919596 220.4,133.6 C220.4,131.280404 222.280404,129.4 224.6,129.4 L263,129.4 Z M195.2,134.2 C195.862742,134.2 196.4,134.737258 196.4,135.4 C196.4,136.062742 195.862742,136.6 195.2,136.6 L179.6,136.6 C178.937258,136.6 178.4,136.062742 178.4,135.4 C178.4,134.737258 178.937258,134.2 179.6,134.2 L195.2,134.2 Z M263,131.8 L224.6,131.8 C223.605887,131.8 222.8,132.605887 222.8,133.6 C222.8,134.535635 223.513866,135.304538 224.426648,135.39176 L224.6,135.4 L263,135.4 C263.994113,135.4 264.8,134.594113 264.8,133.6 C264.8,132.664365 264.086134,131.895462 263.173352,131.80824 L263,131.8 Z M302.276923,130 C303.271036,130 304.076923,130.805887 304.076923,131.8 C304.076923,132.735635 303.363057,133.504538 302.450275,133.59176 L302.276923,133.6 L291.2,133.6 C290.205887,133.6 289.4,132.794113 289.4,131.8 C289.4,130.864365 290.113866,130.095462 291.026648,130.00824 L291.2,130 L302.276923,130 Z M56.6763511,127.463424 C57.0518587,127.80823 57.1037176,128.373766 56.8156744,128.77869 L56.736573,128.876354 L52.896573,133.058264 L52.8049845,133.146249 C52.4536715,133.443499 51.9411514,133.461411 51.5699436,133.189413 L51.472436,133.108036 L49.312436,131.062759 L49.2267093,130.970855 C48.9374006,130.619014 48.9235854,130.112604 49.1932811,129.745512 L49.2738697,129.649071 L49.3657734,129.563344 C49.7176149,129.274036 50.2240249,129.260221 50.5911164,129.529916 L50.6875573,129.610505 L52.1109967,130.957 L55.2634204,127.523646 L55.3539998,127.436521 C55.7329462,127.115067 56.3008436,127.118617 56.6763511,127.463424 Z M196.4,125.8 C197.725483,125.8 198.8,126.874517 198.8,128.2 C198.8,129.525483 197.725483,130.6 196.4,130.6 L180.8,130.6 C179.474517,130.6 178.4,129.525483 178.4,128.2 C178.4,126.874517 179.474517,125.8 180.8,125.8 L196.4,125.8 Z M96.8,128.2 C97.4627417,128.2 98,128.737258 98,129.4 C98,130.062742 97.4627417,130.6 96.8,130.6 L62,130.6 C61.3372583,130.6 60.8,130.062742 60.8,129.4 C60.8,128.737258 61.3372583,128.2 62,128.2 L96.8,128.2 Z M298.953846,124 C299.947959,124 300.753846,124.805887 300.753846,125.8 C300.753846,126.735635 300.03998,127.504538 299.127198,127.59176 L298.953846,127.6 L291.2,127.6 C290.205887,127.6 289.4,126.794113 289.4,125.8 C289.4,124.864365 290.113866,124.095462 291.026648,124.00824 L291.2,124 L298.953846,124 Z M295.630769,118 C296.624882,118 297.430769,118.805887 297.430769,119.8 C297.430769,120.735635 296.716904,121.504538 295.804121,121.59176 L295.630769,121.6 L291.2,121.6 C290.205887,121.6 289.4,120.794113 289.4,119.8 C289.4,118.864365 290.113866,118.095462 291.026648,118.00824 L291.2,118 L295.630769,118 Z M252.8,115 C254.125483,115 255.2,116.074517 255.2,117.4 C255.2,118.725483 254.125483,119.8 252.8,119.8 L236,119.8 C234.674517,119.8 233.6,118.725483 233.6,117.4 C233.6,116.074517 234.674517,115 236,115 L252.8,115 Z M292.307692,112 C293.301805,112 294.107692,112.805887 294.107692,113.8 C294.107692,114.735635 293.393827,115.504538 292.481044,115.59176 L292.307692,115.6 L291.2,115.6 C290.205887,115.6 289.4,114.794113 289.4,113.8 C289.4,112.864365 290.113866,112.095462 291.026648,112.00824 L291.2,112 L292.307692,112 Z M187,1.56319402e-12 C189.209139,1.56278821e-12 191,1.790861 191,4 L191,10 C191,12.209139 189.209139,14 187,14 L158.414,14 L149,23.414 L149.000937,25.0247216 C152.616751,25.3234924 155.474757,28.2940734 155.595993,31.9575056 L155.6,32.2 L155.6,106.6 C155.6,110.495298 152.506681,113.668113 148.642494,113.795993 L148.4,113.8 L45.2,113.8 C41.3047018,113.8 38.131887,110.706681 38.0040068,106.842494 L38,106.6 L38,81.414 L34,85.414 L34,94 C34,96.209139 32.209139,98 30,98 L4,98 C1.790861,98 0,96.209139 0,94 L0,88 C0,85.790861 1.790861,84 4,84 L32.584,84 L38,78.584 L38,32.2 C38,28.3047018 41.0933189,25.131887 44.9575056,25.0040068 L45.2,25 L147,25 L147,23 C147,22.7789863 147.073164,22.565516 147.206081,22.3919705 L147.292893,22.2928932 L157,12.584 L157,4 C157,1.790861 158.790861,1.56359983e-12 161,1.56319402e-12 L187,1.56319402e-12 Z M198.8,51.4 C202.695298,51.4 205.868113,54.4933189 205.995993,58.3575056 L206,58.6 L206,106.6 C206,110.495298 202.906681,113.668113 199.042494,113.795993 L198.8,113.8 L167.6,113.8 C163.704702,113.8 160.531887,110.706681 160.404007,106.842494 L160.4,106.6 L160.4,58.6 C160.4,54.7047018 163.493319,51.531887 167.357506,51.4040068 L167.6,51.4 L198.8,51.4 Z M249.2,110.2 C249.862742,110.2 250.4,110.737258 250.4,111.4 C250.4,112.062742 249.862742,112.6 249.2,112.6 L239.6,112.6 C238.937258,112.6 238.4,112.062742 238.4,111.4 C238.4,110.737258 238.937258,110.2 239.6,110.2 L249.2,110.2 Z M153.199,40.6 L40.399,40.6 L40.4,76.185 L45.2,71.385 L45.2,52.6 C45.2,49.2862915 47.8862915,46.6 51.2,46.6 L86,46.6 C89.3137085,46.6 92,49.2862915 92,52.6 L92,89.9737082 C92,91.8793595 90.4380403,93.4 88.514893,93.4 L48.6949162,93.4 C46.7742055,93.4 45.2,91.8793595 45.2,89.9737082 L45.2,74.214 L40.4,79.014 L40.4,106.6 C40.4,109.179319 42.434439,111.283469 44.9861892,111.395323 L45.2,111.4 L148.4,111.4 C150.979319,111.4 153.083469,109.365561 153.195323,106.813811 L153.2,106.6 L153.199,40.6 Z M198.8,53.8 L167.6,53.8 C165.020681,53.8 162.916531,55.834439 162.804677,58.3861892 L162.8,58.6 L162.8,106.6 C162.8,109.179319 164.834439,111.283469 167.386189,111.395323 L167.6,111.4 L198.8,111.4 C201.379319,111.4 203.483469,109.365561 203.595323,106.813811 L203.6,106.6 L203.6,58.6 C203.6,55.9490332 201.450967,53.8 198.8,53.8 Z M132.8,98.2 C134.788225,98.2 136.4,99.8117749 136.4,101.8 C136.4,103.788225 134.788225,105.4 132.8,105.4 L100.4,105.4 C98.4117749,105.4 96.8,103.788225 96.8,101.8 C96.8,99.8117749 98.4117749,98.2 100.4,98.2 L132.8,98.2 Z M88.4,98.2 C90.3882251,98.2 92,99.8117749 92,101.8 C92,103.788225 90.3882251,105.4 88.4,105.4 L48.8,105.4 C46.8117749,105.4 45.2,103.788225 45.2,101.8 C45.2,99.8117749 46.8117749,98.2 48.8,98.2 L88.4,98.2 Z M188,101.8 C188.662742,101.8 189.2,102.337258 189.2,103 C189.2,103.662742 188.662742,104.2 188,104.2 L178.4,104.2 C177.737258,104.2 177.2,103.662742 177.2,103 C177.2,102.337258 177.737258,101.8 178.4,101.8 L188,101.8 Z M191.6,94.6 C192.925483,94.6 194,95.6745166 194,97 C194,98.3254834 192.925483,99.4 191.6,99.4 L174.8,99.4 C173.474517,99.4 172.4,98.3254834 172.4,97 C172.4,95.6745166 173.474517,94.6 174.8,94.6 L191.6,94.6 Z M309.2,73 C313.095298,73 316.268113,76.0933189 316.395993,79.9575056 L316.4,80.2 L316.4,86.2 C316.4,90.0952982 313.306681,93.268113 309.442494,93.3959932 L309.2,93.4 L261.2,93.4 C257.304702,93.4 254.131887,90.3066811 254.004007,86.4424944 L254,86.2 L254,80.2 C254,76.3047018 257.093319,73.131887 260.957506,73.0040068 L261.2,73 L309.2,73 Z M242,73 C245.895298,73 249.068113,76.0933189 249.195993,79.9575056 L249.2,80.2 L249.2,86.2 C249.2,90.0952982 246.106681,93.268113 242.242494,93.3959932 L242,93.4 L218,93.4 C214.104702,93.4 210.931887,90.3066811 210.804007,86.4424944 L210.8,86.2 L210.8,80.2 C210.8,76.3047018 213.893319,73.131887 217.757506,73.0040068 L218,73 L242,73 Z M146.6,89.8 C147.594113,89.8 148.4,90.6058875 148.4,91.6 C148.4,92.5941125 147.594113,93.4 146.6,93.4 L98.6,93.4 C97.6058875,93.4 96.8,92.5941125 96.8,91.6 C96.8,90.6058875 97.6058875,89.8 98.6,89.8 L146.6,89.8 Z M242,75.4 L218,75.4 C215.420681,75.4 213.316531,77.434439 213.204677,79.9861892 L213.2,80.2 L213.2,86.2 C213.2,88.779319 215.234439,90.8834694 217.786189,90.9953232 L218,91 L242,91 C244.579319,91 246.683469,88.965561 246.795323,86.4138108 L246.8,86.2 L246.8,80.2 C246.8,77.5490332 244.650967,75.4 242,75.4 Z M309.2,75.4 L261.2,75.4 C258.620681,75.4 256.516531,77.434439 256.404677,79.9861892 L256.4,80.2 L256.4,86.2 C256.4,88.779319 258.434439,90.8834694 260.986189,90.9953232 L261.2,91 L309.2,91 C311.779319,91 313.883469,88.965561 313.995323,86.4138108 L314,86.2 L314,80.2 C314,77.5490332 311.850967,75.4 309.2,75.4 Z M195.2,58.6 C197.188225,58.6 198.8,60.2117749 198.8,62.2 L198.8,86.2 C198.8,88.1882251 197.188225,89.8 195.2,89.8 L171.2,89.8 C169.211775,89.8 167.6,88.1882251 167.6,86.2 L167.6,62.2 C167.6,60.2117749 169.211775,58.6 171.2,58.6 L195.2,58.6 Z M222.2,77.8 C225.182338,77.8 227.6,80.2176624 227.6,83.2 C227.6,86.1823376 225.182338,88.6 222.2,88.6 C219.217662,88.6 216.8,86.1823376 216.8,83.2 C216.8,80.2176624 219.217662,77.8 222.2,77.8 Z M195.2,61 L171.2,61 C170.584597,61 170.077391,61.4632482 170.008073,62.0600546 L170,62.2 L170,86.2 C170,86.815403 170.463248,87.3226086 171.060055,87.3919267 L171.2,87.4 L195.2,87.4 C195.815403,87.4 196.322609,86.9367518 196.391927,86.3399454 L196.4,86.2 L196.4,62.2 C196.4,61.584597 195.936752,61.0773914 195.339945,61.0080733 L195.2,61 Z M126.2,83.8 C127.194113,83.8 128,84.6058875 128,85.6 C128,86.5941125 127.194113,87.4 126.2,87.4 L98.6,87.4 C97.6058875,87.4 96.8,86.5941125 96.8,85.6 C96.8,84.6058875 97.6058875,83.8 98.6,83.8 L126.2,83.8 Z M291.8,80.2 C293.456854,80.2 294.8,81.5431458 294.8,83.2 C294.8,84.8568542 293.456854,86.2 291.8,86.2 L264.2,86.2 C262.543146,86.2 261.2,84.8568542 261.2,83.2 C261.2,81.5431458 262.543146,80.2 264.2,80.2 L291.8,80.2 Z M239,80.2 C240.656854,80.2 242,81.5431458 242,83.2 C242,84.8568542 240.656854,86.2 239,86.2 L234.2,86.2 C232.543146,86.2 231.2,84.8568542 231.2,83.2 C231.2,81.5431458 232.543146,80.2 234.2,80.2 L239,80.2 Z M308.812346,80.5514719 C309.249734,80.9888591 309.278893,81.6798867 308.899824,82.1510926 L308.812346,82.2485281 L305.248528,85.8123463 L305.135892,85.9118496 C304.702965,86.2487604 304.092034,86.2479548 303.659877,85.9085318 L303.555768,85.816621 L299.955768,82.2528029 L299.855372,82.1402597 C299.515308,81.7074337 299.514573,81.0940183 299.854986,80.6602572 L299.947197,80.5557682 L300.05974,80.4553722 C300.492566,80.1153081 301.105982,80.1145728 301.539743,80.4549856 L301.644232,80.5471971 L304.396218,83.2708 L307.11529,80.5514719 L307.228339,80.4516455 C307.699088,80.0856157 308.379766,80.1188911 308.812346,80.5514719 Z M137.909202,75.7270718 L137.954977,75.7681001 L142.212178,81.031349 C142.236439,81.0613436 142.251102,81.0979512 142.254255,81.1364004 C142.261478,81.2244702 142.208066,81.3035237 142.128902,81.3324445 L142.078592,81.3434521 L140.300768,81.4892608 L140.947055,83.9002243 C140.96993,83.9855759 140.931542,84.0729162 140.85884,84.1155514 L140.811317,84.1353944 L139.327461,84.5332008 L139.276381,84.539798 C139.208957,84.539358 139.146238,84.5031555 139.112135,84.4449913 L139.092297,84.3974659 L138.44601,81.9865024 L136.833328,82.7486216 C136.798472,82.7650937 136.759465,82.7706914 136.721384,82.764686 C136.634097,82.750921 136.569881,82.6803611 136.56046,82.5966077 L136.561636,82.5451212 L137.616041,75.8589372 C137.623444,75.8119891 137.647998,75.7694556 137.684951,75.7395659 C137.750907,75.6862171 137.841471,75.6837234 137.909202,75.7270718 Z M86,49 L51.2,49 C49.2827829,49 47.7156069,50.498704 47.6061112,52.3884727 L47.6,52.6 L47.6,68.985 L52,64.586 L52.0000889,57.8293257 C50.8348501,57.4175144 50,56.3062521 50,55 C50,53.3431458 51.3431458,52 53,52 C54.6568542,52 56,53.3431458 56,55 C56,56.3058822 55.1656226,57.4168852 54.0009007,57.8289758 L54,65 C54,65.2210137 53.9268355,65.434484 53.7939194,65.6080295 L53.7071068,65.7071068 L47.6,71.814 L47.6,84.03 L56.3873804,74.8834072 L66.1058939,82.7361138 L79.780539,70.6 L89.6,78.272 L89.6,52.6 C89.6,50.6827829 88.101296,49.1156069 86.2115273,49.0061112 L86,49 Z M71.6,67 C71.6,73.4 62,73.4 62,67 C62,60.6 71.6,60.6 71.6,67 Z M139.4,65.8 C140.394113,65.8 141.2,66.6058875 141.2,67.6 C141.2,68.5941125 140.394113,69.4 139.4,69.4 L98.6,69.4 C97.6058875,69.4 96.8,68.5941125 96.8,67.6 C96.8,66.6058875 97.6058875,65.8 98.6,65.8 L139.4,65.8 Z M356,17 C358.209139,17 360,18.790861 360,21 L360,27 C360,29.209139 358.209139,31 356,31 L327.414,31 L315.2,43.214 L315.2,61 C315.2,64.8952982 312.106681,68.068113 308.242494,68.1959932 L308,68.2 L218,68.2 C214.104702,68.2 210.931887,65.1066811 210.804007,61.2424944 L210.8,61 L210.8,32.2 C210.8,28.3047018 213.893319,25.131887 217.757506,25.0040068 L218,25 L308,25 C311.895298,25 315.068113,28.0933189 315.195993,31.9575056 L315.2,32.2 L315.2,40.384 L326,29.584 L326,21 C326,18.790861 327.790861,17 330,17 L356,17 Z M308,27.4 L218,27.4 C215.420681,27.4 213.316531,29.434439 213.204677,31.9861892 L213.2,32.2 L213.2,61 C213.2,63.579319 215.234439,65.6834694 217.786189,65.7953232 L218,65.8 L308,65.8 C310.579319,65.8 312.683469,63.765561 312.795323,61.2138108 L312.8,61 L312.8,45.614 L308,50.414 L308.000901,57.1710242 C309.165623,57.5831148 310,58.6941178 310,60 C310,61.6568542 308.656854,63 307,63 C305.343146,63 304,61.6568542 304,60 C304,58.6937479 304.83485,57.5824856 306.000089,57.1706743 L306,50 C306,49.7789863 306.073164,49.565516 306.206081,49.3919705 L306.292893,49.2928932 L312.8,42.784 L312.8,32.2 C312.8,29.5490332 310.650967,27.4 308,27.4 Z M144.8,52.6 C146.788225,52.6 148.4,54.2117749 148.4,56.2 C148.4,58.1882251 146.788225,59.8 144.8,59.8 L100.4,59.8 C98.4117749,59.8 96.8,58.1882251 96.8,56.2 C96.8,54.2117749 98.4117749,52.6 100.4,52.6 L144.8,52.6 Z M273.2,53.8 C274.525483,53.8 275.6,54.8745166 275.6,56.2 C275.6,57.5254834 274.525483,58.6 273.2,58.6 L252.8,58.6 C251.474517,58.6 250.4,57.5254834 250.4,56.2 C250.4,54.8745166 251.474517,53.8 252.8,53.8 L273.2,53.8 Z M296,43 C297.988225,43 299.6,44.6117749 299.6,46.6 C299.6,48.5882251 297.988225,50.2 296,50.2 L230,50.2 C228.011775,50.2 226.4,48.5882251 226.4,46.6 C226.4,44.6117749 228.011775,43 230,43 L296,43 Z M126.2,46.6 C127.194113,46.6 128,47.4058875 128,48.4 C128,49.3941125 127.194113,50.2 126.2,50.2 L98.6,50.2 C97.6058875,50.2 96.8,49.3941125 96.8,48.4 C96.8,47.4058875 97.6058875,46.6 98.6,46.6 L126.2,46.6 Z M198.8,25 C202.695298,25 205.868113,28.0933189 205.995993,31.9575056 L206,32.2 L206,39.4 C206,43.2952982 202.906681,46.468113 199.042494,46.5959932 L198.8,46.6 L167.6,46.6 C163.704702,46.6 160.531887,43.5066811 160.404007,39.6424944 L160.4,39.4 L160.4,32.2 C160.4,28.3047018 163.493319,25.131887 167.357506,25.0040068 L167.6,25 L198.8,25 Z M198.8,27.4 L167.6,27.4 C165.020681,27.4 162.916531,29.434439 162.804677,31.9861892 L162.8,32.2 L162.8,39.4 C162.8,41.979319 164.834439,44.0834694 167.386189,44.1953232 L167.6,44.2 L198.8,44.2 C201.379319,44.2 203.483469,42.165561 203.595323,39.6138108 L203.6,39.4 L203.6,32.2 C203.6,29.5490332 201.450967,27.4 198.8,27.4 Z M176,31.6 C176.662742,31.6 177.2,32.1372583 177.2,32.8 L177.2,38.8 C177.2,39.4627417 176.662742,40 176,40 C175.337258,40 174.8,39.4627417 174.8,38.8 L174.8,32.8 C174.8,32.1372583 175.337258,31.6 176,31.6 Z M282.8,34.6 C284.125483,34.6 285.2,35.6745166 285.2,37 C285.2,38.3254834 284.125483,39.4 282.8,39.4 L243.2,39.4 C241.874517,39.4 240.8,38.3254834 240.8,37 C240.8,35.6745166 241.874517,34.6 243.2,34.6 L282.8,34.6 Z M194,34 C194.662742,34 195.2,34.5372583 195.2,35.2 L195.2,37.6 C195.2,38.2627417 194.662742,38.8 194,38.8 C193.337258,38.8 192.8,38.2627417 192.8,37.6 L192.8,35.2 C192.8,34.5372583 193.337258,34 194,34 Z M168.8,34 C169.462742,34 170,34.5372583 170,35.2 L170,37.6 C170,38.2627417 169.462742,38.8 168.8,38.8 C168.137258,38.8 167.6,38.2627417 167.6,37.6 L167.6,35.2 C167.6,34.5372583 168.137258,34 168.8,34 Z M179.6,32.8 C180.262742,32.8 180.8,33.3372583 180.8,34 L180.8,37.6 C180.8,38.2627417 180.262742,38.8 179.6,38.8 C178.937258,38.8 178.4,38.2627417 178.4,37.6 L178.4,34 C178.4,33.3372583 178.937258,32.8 179.6,32.8 Z M186.8,34 C187.462742,34 188,34.5372583 188,35.2 L188,37.6 C188,38.2627417 187.462742,38.8 186.8,38.8 C186.137258,38.8 185.6,38.2627417 185.6,37.6 L185.6,35.2 C185.6,34.5372583 186.137258,34 186.8,34 Z M197.6,32.8 C198.262742,32.8 198.8,33.3372583 198.8,34 L198.8,37.6 C198.8,38.2627417 198.262742,38.8 197.6,38.8 C196.937258,38.8 196.4,38.2627417 196.4,37.6 L196.4,34 C196.4,33.3372583 196.937258,32.8 197.6,32.8 Z M147,27.4 L45.2,27.4 C42.620681,27.4 40.5165306,29.434439 40.4046768,31.9861892 L40.4,32.2 L40.399,38.2 L153.199,38.2 L153.2,32.2 C153.2,29.752574 151.368303,27.7329639 149.001,27.4372611 L149.000901,30.1710242 C150.165623,30.5831148 151,31.6941178 151,33 C151,34.6568542 149.656854,36 148,36 C146.343146,36 145,34.6568542 145,33 C145,31.6937479 145.83485,30.5824856 147.000089,30.1706743 L147,27.4 Z M172.4,34 C173.062742,34 173.6,34.5372583 173.6,35.2 L173.6,36.4 C173.6,37.0627417 173.062742,37.6 172.4,37.6 C171.737258,37.6 171.2,37.0627417 171.2,36.4 L171.2,35.2 C171.2,34.5372583 171.737258,34 172.4,34 Z M183.2,34 C183.862742,34 184.4,34.5372583 184.4,35.2 L184.4,36.4 C184.4,37.0627417 183.862742,37.6 183.2,37.6 C182.537258,37.6 182,37.0627417 182,36.4 L182,35.2 C182,34.5372583 182.537258,34 183.2,34 Z M190.4,34 C191.062742,34 191.6,34.5372583 191.6,35.2 L191.6,36.4 C191.6,37.0627417 191.062742,37.6 190.4,37.6 C189.737258,37.6 189.2,37.0627417 189.2,36.4 L189.2,35.2 C189.2,34.5372583 189.737258,34 190.4,34 Z M308.812346,31.3514719 C309.249734,31.7888591 309.278893,32.4798867 308.899824,32.9510926 L308.812346,33.0485281 L307.879,33.982 L308.812346,34.91529 C309.280975,35.3839192 309.280975,36.1437172 308.812346,36.6123463 C308.379766,37.0449271 307.699088,37.0782025 307.228339,36.7121726 L307.11529,36.6123463 L306.182,35.679 L305.248528,36.6123463 L305.135479,36.7121726 C304.66473,37.0782025 303.984053,37.0449271 303.551472,36.6123463 C303.114085,36.1749591 303.084926,35.4839315 303.463994,35.0127256 L303.551472,34.91529 L304.485,33.982 L303.551472,33.0485281 C303.082843,32.579899 303.082843,31.820101 303.551472,31.3514719 C303.984053,30.9188911 304.66473,30.8856157 305.135479,31.2516455 L305.248528,31.3514719 L306.182,32.285 L307.11529,31.3514719 L307.228339,31.2516455 C307.699088,30.8856157 308.379766,30.9188911 308.812346,31.3514719 Z M45.8,31 C46.7941125,31 47.6,31.8058875 47.6,32.8 C47.6,33.7941125 46.7941125,34.6 45.8,34.6 C44.8058875,34.6 44,33.7941125 44,32.8 C44,31.8058875 44.8058875,31 45.8,31 Z M50.6,31 C51.5941125,31 52.4,31.8058875 52.4,32.8 C52.4,33.7941125 51.5941125,34.6 50.6,34.6 C49.6058875,34.6 48.8,33.7941125 48.8,32.8 C48.8,31.8058875 49.6058875,31 50.6,31 Z M55.4,31 C56.3941125,31 57.2,31.8058875 57.2,32.8 C57.2,33.7941125 56.3941125,34.6 55.4,34.6 C54.4058875,34.6 53.6,33.7941125 53.6,32.8 C53.6,31.8058875 54.4058875,31 55.4,31 Z"/>
    <g transform="translate(117 45)">
      <mask id="designs-b" fill="#fff">
        <use xlink:href="#designs-a"/>
      </mask>
      <use fill="#FD9E01" xlink:href="#designs-a"/>
      <ellipse cx="87.754" cy="39.097" fill="#4D00E6" mask="url(#designs-b)" rx="59.624" ry="59.712"/>
      <g mask="url(#designs-b)">
        <g transform="translate(-31.397 -59.096)">
          <use fill="url(#designs-c)" xlink:href="#designs-d"/>
          <use fill="#FB9D02" xlink:href="#designs-e"/>
        </g>
      </g>
      <g mask="url(#designs-b)">
        <use fill="url(#designs-f)" transform="translate(61.538 -69.906)" xlink:href="#designs-g"/>
      </g>
    </g>
    <path fill="#FFF" fill-rule="nonzero" d="M165.38,91.6808 L165.38,89.9168 C165.38,89.7656 165.296,89.648 165.128,89.564 L161.7344,87.8672 C161.6672,87.8336 161.6672,87.7664 161.7344,87.7328 L165.128,86.036 C165.296,85.9352 165.38,85.8344 165.38,85.6832 L165.38,83.9192 C165.38,83.6504 165.1448,83.516 164.9936,83.6 L158.912,87.0104 C158.7608,87.0944 158.66,87.2288 158.66,87.548 L158.66,88.0352 C158.66,88.3544 158.7608,88.4888 158.912,88.5728 L164.9936,92 C165.1448,92.084 165.38,91.9496 165.38,91.6808 Z M170.8568,92.1848 C172.1,92.1848 172.2344,91.6136 172.7216,91.6136 C172.8896,91.6136 173.0408,91.7648 173.1416,91.8824 C173.2088,91.9496 173.276,92 173.3768,92 L174.2168,92 C174.4016,92 174.5528,91.8488 174.5528,91.664 L174.5528,80.408 C174.5528,80.2232 174.4016,80.072 174.2168,80.072 L172.7048,80.072 C172.52,80.072 172.3688,80.2232 172.3688,80.408 L172.3688,83.264 C172.3688,83.6336 172.1168,83.7176 171.8648,83.6168 C171.6296,83.516 171.3608,83.4152 170.8568,83.4152 C169.0928,83.4152 167.7992,84.776 167.6648,86.54 C167.6144,87.212 167.6144,88.388 167.6648,89.06 C167.7992,90.824 169.0928,92.1848 170.8568,92.1848 Z M171.1088,90.068 C170.3024,90.068 169.8824,89.6144 169.8488,89.06 C169.7984,88.388 169.7984,87.212 169.8488,86.54 C169.8824,85.9856 170.3024,85.532 171.1088,85.532 C171.932,85.532 172.3352,85.9016 172.3856,86.54 C172.436,87.212 172.436,88.388 172.3856,89.06 C172.3352,89.648 171.932,90.068 171.1088,90.068 Z M181.76,82.424 C181.9112,82.424 182.0288,82.3064 182.0288,82.1552 L182.0288,80.3408 C182.0288,80.2064 181.9112,80.072 181.76,80.072 L179.9456,80.072 C179.7944,80.072 179.6768,80.2064 179.6768,80.3408 L179.6768,82.1552 C179.6768,82.3064 179.7944,82.424 179.9456,82.424 L181.76,82.424 Z M183.944,92 C184.1288,92 184.28,91.8488 184.28,91.664 L184.28,90.152 C184.28,89.9672 184.1288,89.816 183.944,89.816 L182.096,89.816 C181.9952,89.816 181.928,89.7488 181.928,89.648 L181.928,83.8688 C181.928,83.7344 181.8104,83.6 181.6592,83.6 L177.896,83.6 C177.7112,83.6 177.56,83.7512 177.56,83.936 L177.56,85.3976 C177.56,85.5824 177.7112,85.7336 177.896,85.7336 L179.576,85.7336 C179.6768,85.7336 179.744,85.8008 179.744,85.9016 L179.744,89.648 C179.744,89.7488 179.6768,89.816 179.576,89.816 L177.728,89.816 C177.5432,89.816 177.392,89.9672 177.392,90.152 L177.392,91.664 C177.392,91.8488 177.5432,92 177.728,92 L183.944,92 Z M190.6472,92 C190.7984,92 190.8992,91.916 190.9664,91.748 L193.8224,83.9864 C193.8896,83.8184 193.772,83.6 193.5032,83.6 L191.8232,83.6 C191.672,83.6 191.5712,83.6672 191.504,83.852 L189.824,88.64 C189.7904,88.7576 189.656,88.7576 189.6224,88.64 L187.976,83.852 C187.9088,83.6672 187.808,83.6 187.6568,83.6 L185.9768,83.6 C185.708,83.6 185.5904,83.8184 185.6576,83.9864 L188.5472,91.748 C188.6144,91.916 188.7152,92 188.8664,92 L190.6472,92 Z M196.0064,92 L202.088,88.5728 C202.2392,88.4888 202.34,88.3544 202.34,88.0352 L202.34,87.548 C202.34,87.2288 202.2392,87.0944 202.088,87.0104 L196.0064,83.6 C195.8552,83.516 195.62,83.6504 195.62,83.9192 L195.62,85.6832 C195.62,85.8344 195.704,85.952 195.872,86.036 L199.2656,87.7328 C199.3328,87.7664 199.3328,87.8336 199.2656,87.8672 L195.872,89.564 C195.704,89.648 195.62,89.7656 195.62,89.9168 L195.62,91.6808 C195.62,91.9496 195.8552,92.084 196.0064,92 Z"/>
  </g>
</svg>
