{
  "accessors": [
    {
      "bufferView": 2,
      "componentType": 5126,
      "count": 2649,
      "max": [75.0, 75.0, 0.0],
      "min": [-75.32769012451172, -75.0, 0.0],
      "type": "VEC3"
    },
    {
      "bufferView": 2,
      "byteOffset": 31788,
      "componentType": 5126,
      "count": 2649,
      "max": [0.0, 0.0, 1.0],
      "min": [0.0, 0.0, -1.0],
      "type": "VEC3"
    },
    {
      "bufferView": 1,
      "componentType": 5126,
      "count": 2649,
      "max": [1.0, 1.0000001192092896],
      "min": [-4.6566128730773926e-9, 0.0],
      "type": "VEC2"
    },
    {
      "bufferView": 0,
      "componentType": 5125,
      "count": 11526,
      "type": "SCALAR"
    },
    {
      "bufferView": 2,
      "byteOffset": 63576,
      "componentType": 5126,
      "count": 40280,
      "max": [74.30000305175781, 74.30000305175781, 11.637500762939453],
      "min": [-75.32769012451172, -74.30000305175781, -11.063681602478027],
      "type": "VEC3"
    },
    {
      "bufferView": 2,
      "byteOffset": 546936,
      "componentType": 5126,
      "count": 40280,
      "max": [1.0, 1.0, 0.1943809539079666],
      "min": [-1.0, -1.0, -0.05456871911883354],
      "type": "VEC3"
    },
    {
      "bufferView": 1,
      "byteOffset": 21192,
      "componentType": 5126,
      "count": 40280,
      "max": [14.024948120117188, 29.98552131652832],
      "min": [-13.75074577331543, -28.824628829956055],
      "type": "VEC2"
    },
    {
      "bufferView": 0,
      "byteOffset": 46104,
      "componentType": 5125,
      "count": 60420,
      "type": "SCALAR"
    },
    {
      "bufferView": 2,
      "byteOffset": 1030296,
      "componentType": 5126,
      "count": 10070,
      "max": [74.26653289794922, 74.28445434570313, 11.637500762939453],
      "min": [-75.2707290649414, -74.2641372680664, -11.063681602478027],
      "type": "VEC3"
    },
    {
      "bufferView": 2,
      "byteOffset": 1151136,
      "componentType": 5126,
      "count": 10070,
      "max": [0.0, 0.0, 1.0],
      "min": [0.0, 0.0, -1.0],
      "type": "VEC3"
    },
    {
      "bufferView": 1,
      "byteOffset": 343432,
      "componentType": 5126,
      "count": 10070,
      "max": [6.770974636077881, 13.927558898925781],
      "min": [-5.700063705444336, -12.422813415527344],
      "type": "VEC2"
    },
    {
      "bufferView": 0,
      "byteOffset": 287784,
      "componentType": 5125,
      "count": 14994,
      "type": "SCALAR"
    },
    {
      "bufferView": 2,
      "byteOffset": 1271976,
      "componentType": 5126,
      "count": 126,
      "max": [70.1171875, 59.21036148071289, 6.572520305780927e-14],
      "min": [-81.89864349365234, -91.8856430053711, -6.261657858885883e-13],
      "type": "VEC3"
    },
    {
      "bufferView": 2,
      "byteOffset": 1273488,
      "componentType": 5126,
      "count": 126,
      "max": [2.7786995794587543e-13, 1.1711024673882048e-13, 1.0],
      "min": [-8.009681107387298e-14, -1.1020481402446158e-14, 1.0],
      "type": "VEC3"
    },
    {
      "bufferView": 1,
      "byteOffset": 423992,
      "componentType": 5126,
      "count": 126,
      "max": [1.0000001192092896, 1.0000001192092896],
      "min": [-1.1920928955078125e-7, -1.1920928955078125e-7],
      "type": "VEC2"
    },
    {
      "bufferView": 0,
      "byteOffset": 347760,
      "componentType": 5125,
      "count": 408,
      "type": "SCALAR"
    }
  ],
  "asset": {
    "extras": {
      "author": "kamira (https://sketchfab.com/kamira)",
      "license": "CC-BY-4.0 (http://creativecommons.org/licenses/by/4.0/)",
      "source": "https://sketchfab.com/3d-models/city-of-future-eb65cc45885d40adbd4d1eb95dda8981",
      "title": "City of Future"
    },
    "generator": "Sketchfab-12.66.0",
    "version": "2.0"
  },
  "bufferViews": [
    {
      "buffer": 0,
      "byteLength": 349392,
      "name": "floatBufferViews",
      "target": 34963
    },
    {
      "buffer": 0,
      "byteLength": 425000,
      "byteOffset": 349392,
      "byteStride": 8,
      "name": "floatBufferViews",
      "target": 34962
    },
    {
      "buffer": 0,
      "byteLength": 1275000,
      "byteOffset": 774392,
      "byteStride": 12,
      "name": "floatBufferViews",
      "target": 34962
    }
  ],
  "buffers": [
    {
      "byteLength": 2049392,
      "uri": "city.bin"
    }
  ],
  "materials": [
    {
      "doubleSided": true,
      "name": "02_-_Default_Slot_1",
      "pbrMetallicRoughness": {
        "baseColorFactor": [0.0, 0.0, 0.0, 1.0],
        "metallicFactor": 0.0,
        "roughnessFactor": 0.9577051494623774
      }
    },
    {
      "doubleSided": true,
      "name": "02_-_Default",
      "pbrMetallicRoughness": {
        "baseColorFactor": [0.243137, 0.243137, 0.243137, 1.0],
        "metallicFactor": 0.0,
        "roughnessFactor": 0.8929713596497552
      }
    },
    {
      "doubleSided": true,
      "name": "Material_11",
      "pbrMetallicRoughness": {
        "baseColorFactor": [0.588, 0.588, 0.588, 1.0],
        "metallicFactor": 0.0,
        "roughnessFactor": 0.8929713596497552
      }
    },
    {
      "doubleSided": true,
      "name": "02_-_Default_Slot_1_0",
      "pbrMetallicRoughness": {
        "baseColorFactor": [0.0, 0.0, 0.0, 1.0],
        "metallicFactor": 0.0,
        "roughnessFactor": 0.9577051494623774
      }
    }
  ],
  "meshes": [
    {
      "name": "Fild_02 - Default Slot #1_0",
      "primitives": [
        {
          "attributes": {
            "NORMAL": 1,
            "POSITION": 0,
            "TEXCOORD_0": 2
          },
          "indices": 3,
          "material": 0,
          "mode": 4
        }
      ]
    },
    {
      "name": "Fild_02 - Default_0",
      "primitives": [
        {
          "attributes": {
            "NORMAL": 5,
            "POSITION": 4,
            "TEXCOORD_0": 6
          },
          "indices": 7,
          "material": 1,
          "mode": 4
        }
      ]
    },
    {
      "name": "Fild_Material #11_0",
      "primitives": [
        {
          "attributes": {
            "NORMAL": 9,
            "POSITION": 8,
            "TEXCOORD_0": 10
          },
          "indices": 11,
          "material": 2,
          "mode": 4
        }
      ]
    },
    {
      "name": "Line006_02 - Default Slot #1_0",
      "primitives": [
        {
          "attributes": {
            "NORMAL": 13,
            "POSITION": 12,
            "TEXCOORD_0": 14
          },
          "indices": 15,
          "material": 3,
          "mode": 4
        }
      ]
    }
  ],
  "nodes": [
    {
      "children": [1],
      "matrix": [
        1.0, 0.0, 0.0, 0.0, 0.0, 2.220446049250313e-16, -1.0, 0.0, 0.0, 1.0,
        2.220446049250313e-16, 0.0, 0.0, 0.0, 0.0, 1.0
      ],
      "name": "Sketchfab_model"
    },
    {
      "children": [2],
      "matrix": [
        1.0, 0.0, 0.0, 0.0, 0.0, 0.0, 1.0, 0.0, 0.0, -1.0, 0.0, 0.0, 0.0, 0.0,
        0.0, 1.0
      ],
      "name": "7180c1c683a74c8b9d8a3ae2ca897717.fbx"
    },
    {
      "children": [3, 7],
      "name": "RootNode"
    },
    {
      "children": [4, 5, 6],
      "matrix": [
        1.0, 0.0, 0.0, 0.0, 0.0, 2.220446049250313e-16, -1.0, 0.0, 0.0, 1.0,
        2.220446049250313e-16, 0.0, 0.0, 0.0, 0.0, 1.0
      ],
      "name": "Fild"
    },
    {
      "mesh": 0,
      "name": "Fild_02 - Default Slot #1_0"
    },
    {
      "mesh": 1,
      "name": "Fild_02 - Default_0"
    },
    {
      "mesh": 2,
      "name": "Fild_Material #11_0"
    },
    {
      "children": [8],
      "matrix": [
        0.9994414640133391, 3.469446951953614e-18, -0.033417959406183445, 0.0,
        -0.033417959406183445, 0.0, -0.9994414640133392, 0.0,
        3.469446951953614e-18, 1.0, 0.0, 0.0, 4.514758110046387, 0.0,
        -16.684368133544922, 1.0
      ],
      "name": "Line006"
    },
    {
      "mesh": 3,
      "name": "Line006_02 - Default Slot #1_0"
    }
  ],
  "scene": 0,
  "scenes": [
    {
      "name": "Sketchfab_Scene",
      "nodes": [0]
    }
  ]
}
