<svg width="248" height="175" fill="none" xmlns="http://www.w3.org/2000/svg"><g clip-path="url(#a)"><path fill-rule="evenodd" clip-rule="evenodd" d="M.074975 37.926C10.851 92.116 62.318 133.306 124 133.306s113.149-41.19 123.925-95.38h-7.349c-10.72 50.197-58.914 88.186-116.576 88.186-57.662 0-105.856-37.989-116.57603-88.186H.073975h.001Z" fill="#511500"/><path fill-rule="evenodd" clip-rule="evenodd" d="M7.36902 37.926H241.012c-10.63 50.534-58.892 88.69-116.822 88.69S17.998 88.46 7.36902 37.926Z" fill="#fff"/><path fill-rule="evenodd" clip-rule="evenodd" d="M186.274 37.926h54.731c-2.298 10.93-6.357 21.28-11.895 30.79-10.09 17.34-36.55 11.82-39.12-8.08-.976-7.6107-2.215-15.1852-3.716-22.71Zm-179.21303 0H61.751c-1.5412 7.4611-2.8087 14.9762-3.8 22.53-2.62 19.87-29.07 25.38-39.12 8.03-5.471-9.448-9.48703-19.718-11.77003-30.56Z" fill="#F70"/><path d="m119.67 70.666 6.61-30.97c2.64-17.09-8.93-33.13001-25.98-36.02001C83.42.815991 67.32 11.916 64 28.716l-3.36 16.97s18.43 25.03 59.03 24.98Z" fill="#fff"/><path d="M98.82 90.596c-.8112-.0041-1.5912-.3134-2.1849-.8663-.5936-.5529-.9575-1.3089-1.0192-2.1178-.0618-.8089.1831-1.6114.686-2.248.5029-.6366 1.2269-1.0607 2.0281-1.1879 4.69-.72 8.87-2.79 12.42-6.13 3.96-3.73 6.62-8.73 7.71-14.44l4.64-24.45c2.32-15.24-8.13-29.71998-23.34-32.28998-15.27-2.58-29.59 7.28998-32.6 22.47998l-3.35 16.97c-.1667.8389-.6593 1.5775-1.3698 2.0536-.7105.4762-1.5809.6511-2.4202.4864a3.22352 3.22352 0 0 1-1.1645-.4791c-.3528-.2348-.6559-.5368-.8919-.8889-.2359-.352-.4001-.7472-.4831-1.1628-.083-.4156-.0831-.8435-.0005-1.2592l3.35-16.97C64.53 9.44602 82.09-2.67398 100.84.506017 119.52 3.66602 132.37 21.476 129.47 40.196c0 .04-.01.07-.02.11l-4.65 24.5c-1.34 7.06-4.67 13.26-9.62 17.94-4.51 4.26-9.85 6.89-15.86 7.81-.17.03-.33.04-.5.04Z" fill="#511500"/><path d="M102.964 42.351c.767-4.373-2.435-8.589-7.152-9.415-4.716-.827-9.161 2.049-9.928 6.422-.766 4.374 2.436 8.59 7.152 9.416 4.717.827 9.162-2.049 9.928-6.423Zm-20.638-9.922c1.5271-.0427 2.9747-.6903 4.0243-1.8003 1.0497-1.11 1.6154-2.5916 1.5727-4.1187-.0427-1.5271-.6903-2.9747-1.8003-4.0244-1.1101-1.0496-2.5916-1.6153-4.1187-1.5726-1.5271.0427-2.9747.6903-4.0244 1.8003-1.0496 1.1101-1.6153 2.5916-1.5726 4.1187.0427 1.5271.6903 2.9747 1.8003 4.0244 1.11 1.0496 2.5916 1.6153 4.1187 1.5726Zm16.637-4.143c.7609-.0139 1.512-.1785 2.208-.4842.697-.3058 1.327-.7466 1.852-1.297.526-.5504.937-1.1996 1.211-1.9099.273-.7103.403-1.4677.381-2.2284-.021-.7608-.193-1.5098-.505-2.2038-.312-.694-.759-1.3192-1.315-1.8395-.555-.5202-1.208-.9253-1.921-1.1917-.713-.2665-1.4715-.389-2.232-.3605-1.5171.0568-2.9503.7102-3.9882 1.8182-1.0378 1.1079-1.5963 2.5808-1.554 4.0983.0423 1.5175.682 2.957 1.7799 4.0053 1.098 1.0484 2.5654 1.621 4.0833 1.5932Zm11.659 11.57c1.527-.0428 2.975-.6906 4.025-1.8008 1.049-1.1102 1.615-2.5919 1.572-4.1192-.043-1.5272-.691-2.9749-1.801-4.0246-1.11-1.0496-2.592-1.6152-4.119-1.5724-.756.0212-1.501.1912-2.191.5001-.691.309-1.314.751-1.834 1.3007-1.049 1.1102-1.615 2.592-1.572 4.1192.043 1.5272.691 2.9749 1.801 4.0246 1.11 1.0496 2.592 1.6152 4.119 1.5724Z" fill="#FFA2BE"/><path d="m128.39 70.666-6.61-30.97c-2.64-17.09 8.93-33.13001 25.98-36.02001C164.64.815991 180.74 11.916 184.06 28.716l3.36 16.97s-18.43 25.03-59.03 24.98Z" fill="#fff"/><path d="M149.24 90.596c-.16 0-.33-.01-.5-.04-6.01-.93-11.35-3.56-15.86-7.81-4.95-4.67-8.28-10.87-9.62-17.94l-4.65-24.5s-.01-.07-.02-.11c-2.89-18.73 9.95-36.52998 28.63-39.689983C165.97-2.66398 183.53 9.45602 187.23 28.096l3.36 16.98c.35 1.75-.79 3.45-2.54 3.79-1.74.34-3.45-.79-3.79-2.54l-3.36-16.97c-3.01-15.19-17.33-25.05998-32.6-22.47998-15.21 2.57-25.66 17.04998-23.34 32.28998l4.64 24.45c1.08 5.72 3.75 10.71 7.7 14.44 3.55 3.34 7.72 5.41 12.42 6.13.801.1272 1.525.5513 2.028 1.1879.503.6366.748 1.4391.686 2.248-.062.8089-.425 1.5649-1.019 2.1178-.594.5529-1.374.8622-2.185.8663l.01-.01Z" fill="#511500"/><path d="M155.019 48.8c4.716-.827 7.919-5.043 7.152-9.416-.766-4.374-5.211-7.25-9.928-6.423-4.716.827-7.918 5.042-7.152 9.416.767 4.373 5.212 7.25 9.928 6.422v.001Zm16.58-22c.028-.7604-.094-1.5188-.361-2.2316-.266-.7127-.671-1.3656-1.191-1.9209-.521-.5553-1.146-1.0021-1.84-1.3144-.693-.3124-1.442-.4841-2.203-.5054-.761-.0213-1.518.1084-2.228.3815-.71.273-1.359.6841-1.91 1.2095-.55.5254-.991 1.1546-1.297 1.8514-.306.6967-.471 1.4471-.485 2.2079-.028 1.5181.544 2.986 1.592 4.0844 1.049 1.0983 2.488 1.7384 4.006 1.7808 1.518.0424 2.991-.5161 4.099-1.5542s1.761-2.4717 1.818-3.989Zm-16.623-4.162c.028-.7604-.094-1.5188-.361-2.2316-.266-.7127-.671-1.3656-1.191-1.9209-.521-.5553-1.146-1.0021-1.84-1.3144-.693-.3124-1.442-.4841-2.203-.5054-.761-.0213-1.518.1084-2.228.3815-.71.273-1.359.6841-1.91 1.2095-.55.5254-.991 1.1546-1.297 1.8514-.306.6967-.471 1.4471-.485 2.2079-.028 1.5181.544 2.986 1.592 4.0844 1.049 1.0983 2.488 1.7384 4.006 1.7808 1.518.0424 2.991-.5161 4.099-1.5542s1.761-2.4717 1.818-3.989Zm-11.67 11.578c.042-1.5271-.524-3.0085-1.573-4.1184-.52-.5495-1.143-.9913-1.834-1.3-.69-.3088-1.435-.4786-2.191-.4996-1.527-.0424-3.009.5235-4.118 1.5734-1.11 1.0498-1.758 2.4975-1.8 4.0246-.021.7562.107 1.5091.377 2.2157.27.7066.677 1.3532 1.196 1.9027 1.05 1.1099 2.498 1.7572 4.025 1.7996 1.527.0425 3.009-.5235 4.118-1.5733 1.11-1.0498 1.758-2.4976 1.8-4.0247Z" fill="#FFA2BE"/></g><defs><clipPath id="a"><path fill="#fff" d="M0 0h248v134H0z"/></clipPath></defs></svg>