<svg xmlns="http://www.w3.org/2000/svg" width="248" height="134" fill="none" viewBox="0 0 248 134">
  <path fill="#511500" fill-rule="evenodd" d="M.075 37.926c10.776 54.19 62.243 95.38 123.925 95.38 61.682 0 113.149-41.19 123.925-95.38h-7.349c-10.72 50.197-58.914 88.186-116.576 88.186-57.662 0-105.856-37.989-116.576-88.186H.074Z" clip-rule="evenodd"/>
  <path fill="#fff" fill-rule="evenodd" d="M7.369 37.926h233.643c-10.63 50.534-58.892 88.69-116.822 88.69S17.998 88.46 7.369 37.926Z" clip-rule="evenodd"/>
  <path fill="#F70" fill-rule="evenodd" d="M186.274 37.926h54.731c-2.298 10.93-6.357 21.28-11.895 30.79-10.09 17.34-36.55 11.82-39.12-8.08a331.793 331.793 0 0 0-3.716-22.71Zm-179.213 0h54.69a312.187 312.187 0 0 0-3.8 22.53c-2.62 19.87-29.07 25.38-39.12 8.03-5.471-9.448-9.487-19.718-11.77-30.56Z" clip-rule="evenodd"/>
  <path fill="#fff" d="m119.67 70.666 6.61-30.97c2.64-17.09-8.93-33.13-25.98-36.02-16.88-2.86-32.98 8.24-36.3 25.04l-3.36 16.97s18.43 25.03 59.03 24.98Z"/>
  <path fill="#511500" d="M98.82 90.596a3.23 3.23 0 0 1-.49-6.42c4.69-.72 8.87-2.79 12.42-6.13 3.96-3.73 6.62-8.73 7.71-14.44l4.64-24.45c2.32-15.24-8.13-29.72-23.34-32.29-15.27-2.58-29.59 7.29-32.6 22.48l-3.35 16.97a3.23 3.23 0 0 1-3.79 2.54 3.222 3.222 0 0 1-2.54-3.79l3.35-16.97c3.7-18.65 21.26-30.77 40.01-27.59 18.68 3.16 31.53 20.97 28.63 39.69 0 .04-.01.07-.02.11l-4.65 24.5c-1.34 7.06-4.67 13.26-9.62 17.94-4.51 4.26-9.85 6.89-15.86 7.81-.17.03-.33.04-.5.04Z"/>
  <path fill="#FFA2BE" d="M102.964 42.351c.767-4.373-2.435-8.589-7.152-9.415-4.716-.827-9.161 2.049-9.928 6.422-.766 4.374 2.436 8.59 7.152 9.416 4.717.827 9.162-2.049 9.928-6.423Zm-20.638-9.922a5.76 5.76 0 1 0-.322-11.516 5.76 5.76 0 0 0 .322 11.516Zm16.637-4.143a5.76 5.76 0 1 0-.321-11.515 5.76 5.76 0 0 0 .321 11.515Zm11.659 11.57a5.76 5.76 0 1 0-.323-11.517 5.76 5.76 0 0 0 .323 11.517Z"/>
  <path fill="#fff" d="m128.39 70.666-6.61-30.97c-2.64-17.09 8.93-33.13 25.98-36.02 16.88-2.86 32.98 8.24 36.3 25.04l3.36 16.97s-18.43 25.03-59.03 24.98Z"/>
  <path fill="#511500" d="M149.24 90.596c-.16 0-.33-.01-.5-.04-6.01-.93-11.35-3.56-15.86-7.81-4.95-4.67-8.28-10.87-9.62-17.94l-4.65-24.5s-.01-.07-.02-.11c-2.89-18.73 9.95-36.53 28.63-39.69 18.75-3.17 36.31 8.95 40.01 27.59l3.36 16.98c.35 1.75-.79 3.45-2.54 3.79-1.74.34-3.45-.79-3.79-2.54l-3.36-16.97c-3.01-15.19-17.33-25.06-32.6-22.48-15.21 2.57-25.66 17.05-23.34 32.29l4.64 24.45c1.08 5.72 3.75 10.71 7.7 14.44 3.55 3.34 7.72 5.41 12.42 6.13a3.23 3.23 0 0 1-.49 6.42l.01-.01Z"/>
  <path fill="#FFA2BE" d="M155.019 48.8c4.716-.827 7.919-5.043 7.152-9.416-.766-4.374-5.211-7.25-9.928-6.423-4.716.827-7.918 5.042-7.152 9.416.767 4.373 5.212 7.25 9.928 6.422Zm16.58-22a5.76 5.76 0 1 0-11.515-.322 5.76 5.76 0 0 0 11.515.322Zm-16.623-4.162a5.76 5.76 0 1 0-11.515-.322 5.76 5.76 0 0 0 11.515.322Zm-11.67 11.578a5.76 5.76 0 1 0-11.516-.32 5.76 5.76 0 0 0 11.516.32Z"/>
</svg>
