<svg width="248" height="175" fill="none" xmlns="http://www.w3.org/2000/svg"><g clip-path="url(#a)"><path d="M125.959 93.9437c17.719-1.1883 32.385 8.9073 32.385 8.9073l25.041 44.558c6.145 10.936 19.033 16.182 31.08 12.656 14.589-4.28 22.752-19.777 18.028-34.23l-9.072-27.7466c41.862-26.1721 8.83-77.6853 8.83-77.6853L10.7793 35.3199S-15.045 90.7942 29.947 111.121l-5.275 28.713c-2.7438 14.956 7.4198 29.225 22.4525 31.505 12.4049 1.884 24.4717-5.043 29.0994-16.704l18.8392-47.513s13.1879-11.9706 30.8959-13.1686" fill="#F70"/><path d="m29.9374 111.112-5.275 28.713c-2.7438 14.955 7.4197 29.225 22.4525 31.505 12.4049 1.883 24.4717-5.044 29.0994-16.705l18.8392-47.513s2.28-2.068 6.2025-4.56C51.1339 99.1898 17.8223 80.4278 3.40784 70.4768c.3478 15.1584 6.23145 31.4762 26.51986 40.6442l.0097-.009ZM223.421 98.0788l9.072 27.7472c4.724 14.453-3.43 29.949-18.028 34.229-12.038 3.536-24.926-1.71-31.08-12.656l-25.041-44.557s-2.532-1.739-6.754-3.6908c49.214-10.0476 79.715-33.1088 92.661-44.905 1.69 15.0617-1.952 32.0267-20.84 43.8326h.01Z" fill="#511500" opacity=".2"/><path d="m83.2379 136.917-7.0236 17.699s-5.961 21.486-31.8818 16.134c-25.9209-5.352-19.6701-30.935-19.6701-30.935l2.821-15.342s26.8773-8.908 55.7545 12.444Z" fill="#fff"/><path d="M78.0789 149.35s-27.515 18.424-53.5711-.743c0 0 .2126 17.419 22.6071 22.723 22.4042 5.304 30.9543-21.98 30.9543-21.98h.0097Z" fill="#DCDFE2"/><path d="m174.062 130.801 9.333 16.598s8.782 20.491 33.756 11.709 15.342-33.292 15.342-33.292l-4.85-14.83s-27.834-5.227-53.581 19.805v.01Z" fill="#fff"/><path d="M180.845 142.433s29.737 14.569 52.981-7.922c0 0 2.126 17.284-19.361 25.544-21.486 8.26-33.63-17.622-33.63-17.622h.01Z" fill="#DCDFE2"/><path d="m121.428 26.567-48.2377 3.2461S78.33 63.917 123.737 60.864c45.408-3.0625 45.93-37.5432 45.93-37.5432l-48.239 3.2462Z" fill="#fff"/><path d="M51.2595 175.02c-1.5361 0-3.0819-.116-4.647-.348-8.183-1.246-15.3322-5.642-20.1338-12.385-4.8016-6.744-6.6276-14.936-5.1301-23.081l4.8016-26.162C14.9626 107.392 7.26266 99.0448 3.23396 88.205-5.89583 63.6174 7.14673 35.088 7.70707 33.89c.78256-1.6907 2.80173-2.4249 4.49243-1.6424 1.6907.7922 2.4249 2.8018 1.6424 4.4925-.1256.2705-12.41459 27.2251-4.26058 49.1462C13.2429 95.7214 20.5564 103.17 31.3286 108.039c1.4202.638 2.2124 2.164 1.9322 3.691l-5.275 28.713c-1.1593 6.328.2512 12.695 3.9901 17.931 3.7292 5.236 9.294 8.656 15.651 9.622 10.9171 1.662 21.3802-4.347 25.4475-14.607l18.8393-47.514c.1932-.483.483-.908.8695-1.256.57-.521 14.2698-12.7814 32.9448-14.0373 1.874-.116 3.478 1.2849 3.603 3.1495.126 1.8646-1.285 3.478-3.149 3.6036-14.318.9661-25.689 9.6712-28.2978 11.8252l-18.53 46.731c-4.6567 11.738-15.8154 19.158-28.1043 19.158l.0096-.029Z" fill="#511500"/><path d="M83.2379 140.298c-.6473 0-1.2946-.184-1.8743-.57-31.7465-21.235-52.46-9.864-52.6629-9.748-1.6231.927-3.6905.357-4.618-1.256-.9275-1.623-.3575-3.691 1.2559-4.618.9855-.56 24.5973-13.545 59.7832 9.999 1.5555 1.044 1.9709 3.14.9275 4.695-.6473.976-1.7197 1.498-2.8114 1.498ZM58.8532 153.331c-.9082 3.719-.9178 7.922.2802 11.564.3768 1.276.9951 2.416 1.6134 3.546.8985 1.642.2995 3.7-1.3333 4.599-1.7293.966-3.9514.203-4.7339-1.604-1.4492-3.13-2.2124-6.57-2.2124-9.98-.0097-3.41.512-6.589 1.6907-9.806 1.2269-3.005 5.6421-1.411 4.6953 1.681ZM39.0189 151.147c-1.5651 4.271-1.8067 9.149-.686 13.565.4831 1.845-.6473 3.738-2.5119 4.164-1.8259.425-3.6422-.715-4.0673-2.541-.2415-1.594-.3381-3.208-.2898-4.802.1256-4.415 1.1496-8.685 3.2075-12.617 1.5747-2.734 5.6227-.648 4.3475 2.222v.009ZM206.794 164.547c-10.723 0-20.848-5.709-26.346-15.486l-24.635-43.823c-2.87-1.778-15.294-8.879-29.622-7.9225-1.883.1256-3.478-1.2849-3.603-3.1495-.126-1.8646 1.285-3.4781 3.149-3.6036 18.695-1.256 33.892 9.0525 34.529 9.4966.425.29.773.677 1.034 1.131l25.042 44.557c5.41 9.622 16.588 14.173 27.177 11.062 6.173-1.807 11.216-5.942 14.211-11.632 2.995-5.691 3.546-12.193 1.546-18.308l-9.072-27.7469c-.483-1.4781.106-3.0915 1.42-3.9224 10.029-6.2701 16.279-14.6366 18.579-24.8678 5.139-22.81-10.647-47.8807-10.811-48.1319-1.005-1.5747-.551-3.6615 1.024-4.6663 1.575-1.0047 3.662-.5507 4.666 1.0241.715 1.1207 17.468 27.6406 11.719 53.2329-2.531 11.2843-9.052 20.588-19.38 27.6889l8.27 25.2834c2.57 7.864 1.865 16.231-1.99 23.554-3.855 7.323-10.357 12.637-18.299 14.975-2.869.84-5.767 1.246-8.627 1.246l.019.009Z" fill="#511500"/><path d="M174.062 134.182c-.937 0-1.864-.386-2.531-1.14-1.236-1.4-1.101-3.536.29-4.772 31.708-28.047 56.846-18.347 57.899-17.922 1.73.706 2.57 2.676 1.865 4.406-.696 1.729-2.657 2.56-4.386 1.874-.957-.377-22.549-8.357-50.895 16.714-.648.57-1.44.85-2.242.85v-.01ZM204.853 141.496c1.603 3.034 2.54 6.115 2.985 9.487.464 3.382.154 6.889-.86 10.193-.512 1.797-2.386 2.84-4.193 2.328-1.981-.551-2.995-2.782-2.164-4.647.966-2.319 1.439-4.831 1.352-7.381-.057-2.618-.647-5.459-1.632-7.864-1.102-2.908 2.995-4.812 4.502-2.106l.01-.01ZM223.798 136.192c2.57 3.623 4.154 7.71 4.869 12.067.251 1.449.338 2.917.367 4.405.039 1.874-1.439 3.42-3.313 3.468-2.049.068-3.701-1.777-3.44-3.806.251-2.27.184-4.579-.261-6.84-.415-2.29-1.246-4.686-2.347-6.705-1.372-2.676 2.318-4.975 4.115-2.589h.01Z" fill="#511500"/></g><defs><clipPath id="a"><path fill="#fff" d="M0 0h248v175H0z"/></clipPath></defs></svg>