<svg xmlns="http://www.w3.org/2000/svg" width="792" height="275" fill="none" viewBox="0 0 792 275">
  <g clip-path="url(#a)">
    <path fill="#2BA4EA" d="M719.019 34.932c-.835-6.834-5.747-11.855-10.972-11.217-5.225.639-8.784 6.696-7.948 13.53.835 6.832 5.747 11.854 10.972 11.215 5.225-.638 8.784-6.695 7.948-13.528ZM737.065 53.5c.574-5.925-2.633-11.084-7.163-11.523-4.529-.439-8.666 4.01-9.24 9.935-.574 5.926 2.633 11.085 7.162 11.524 4.53.439 8.667-4.01 9.241-9.935Zm-42.593-15.074c-2.085-6.56-7.842-10.587-12.858-8.993-5.017 1.594-7.393 8.205-5.309 14.766 2.085 6.56 7.842 10.587 12.858 8.993 5.017-1.594 7.394-8.205 5.309-14.766ZM680.124 73.9c3.936-2.285 4.704-8.31 1.716-13.46-2.988-5.15-8.602-7.472-12.538-5.188-3.935 2.284-4.704 8.31-1.715 13.46 2.988 5.149 8.601 7.471 12.537 5.187Zm30.772-17.287-.159-.244c-2.176-3.442-6.247-5.214-10.222-4.376a7.01 7.01 0 0 0-.165.038l-.166.037c-3.969.899-6.933 4.203-7.478 8.233l-.038.294a28.271 28.271 0 0 1-7.048 15.168 11.303 11.303 0 0 0-.053 15.12 11.306 11.306 0 0 0 13.881 2.384 34.081 34.081 0 0 1 18.879-4.112 11.315 11.315 0 0 0 5.288-21.681 28.18 28.18 0 0 1-12.716-10.854l-.003-.007Zm30.334 174.765c1.35-5.246-.805-10.334-4.813-11.366-4.008-1.031-8.352 2.385-9.702 7.631-1.349 5.246.806 10.334 4.814 11.365 4.008 1.032 8.352-2.384 9.701-7.63Zm7.886 18.759c2.122-4.177 1.252-8.879-1.943-10.502-3.194-1.623-7.504.448-9.626 4.625s-1.252 8.879 1.943 10.502c3.194 1.622 7.504-.448 9.626-4.625Zm-26.879-23.262c.357-5.405-2.703-10.007-6.832-10.279-4.13-.272-7.767 3.889-8.123 9.293-.356 5.405 2.703 10.007 6.833 10.279 4.13.273 7.766-3.888 8.122-9.293Zm-20.694 21.879c3.541-.543 5.836-4.738 5.125-9.369-.711-4.631-4.159-7.944-7.7-7.4-3.542.544-5.837 4.739-5.126 9.369.711 4.631 4.159 7.944 7.701 7.4Zm27.504-3.853-.042-.226c-.603-3.144-3.076-5.608-6.236-6.136-.042 0-.084-.017-.126-.025a.606.606 0 0 0-.126-.017c-3.16-.486-6.287 1.09-7.837 3.889l-.109.201a22.222 22.222 0 0 1-9.514 9.087 8.902 8.902 0 0 0-4.384 11.056 8.908 8.908 0 0 0 9.48 5.734 26.863 26.863 0 0 1 15.013 2.406 8.907 8.907 0 0 0 10.797-2.481 8.903 8.903 0 0 0-.705-11.878 22.164 22.164 0 0 1-6.202-11.602l-.009-.008Zm46.365-106.716c3.189-6.101 1.994-13.023-2.671-15.462s-11.032.53-14.221 6.631c-3.19 6.1-1.994 13.023 2.671 15.461 4.664 2.439 11.032-.529 14.221-6.63Zm4.332 25.532c3.834-4.554 4.121-10.622.64-13.553-3.48-2.931-9.411-1.616-13.246 2.938-3.835 4.554-4.122 10.622-.641 13.553 3.481 2.931 9.412 1.616 13.247-2.938Zm-26.52-36.579c2.006-6.586-.449-13.167-5.485-14.701-5.035-1.534-10.743 2.561-12.749 9.146-2.006 6.586.45 13.168 5.485 14.701 5.035 1.534 10.744-2.561 12.749-9.146Zm-31.945 21.059c4.537.352 8.589-4.174 9.05-10.11.461-5.935-2.844-11.033-7.381-11.385-4.537-.353-8.589 4.173-9.05 10.109-.461 5.936 2.844 11.033 7.381 11.386Zm35.155 3.219.008-.29c.16-4.069-2.187-7.838-5.935-9.404-.047-.02-.103-.041-.158-.063l-.157-.062c-3.779-1.513-8.094-.474-10.83 2.536l-.198.22a28.266 28.266 0 0 1-14.409 8.491 11.304 11.304 0 0 0-8.623 12.42 11.306 11.306 0 0 0 10.077 9.839 34.086 34.086 0 0 1 17.879 7.326 11.315 11.315 0 0 0 16.656-14.852 28.181 28.181 0 0 1-4.312-16.152l.002-.009ZM80.075 39.104c-.713-6.847 2.954-12.84 8.19-13.384 5.235-.545 10.057 4.564 10.77 11.41.712 6.848-2.954 12.84-8.19 13.385-5.235.545-10.057-4.564-10.77-11.411Zm-13.44 22.131c-1.884-5.647.09-11.393 4.406-12.832 4.318-1.44 9.344 1.971 11.227 7.62 1.884 5.647-.09 11.392-4.406 12.832-4.317 1.44-9.344-1.972-11.227-7.62Zm38.148-24.209c.567-6.861 5.278-12.072 10.524-11.639 5.246.433 9.04 6.346 8.473 13.207-.566 6.86-5.277 12.071-10.523 11.638-5.246-.433-9.04-6.346-8.474-13.206Zm21.911 31.371c-4.347-1.348-6.442-7.05-4.68-12.736 1.762-5.687 6.715-9.205 11.062-7.858 4.347 1.347 6.442 7.05 4.679 12.736-1.762 5.687-6.714 9.205-11.061 7.858Zm-33.857-9.975.1-.273c1.353-3.841 4.925-6.478 8.987-6.55h.339c4.07-.011 7.697 2.547 9.129 6.355l.102.277a28.28 28.28 0 0 0 10.259 13.21 11.304 11.304 0 0 1 3.43 14.725 11.305 11.305 0 0 1-12.997 5.426 34.085 34.085 0 0 0-19.321.21 11.314 11.314 0 0 1-9.998-19.952 28.176 28.176 0 0 0 9.97-13.42v-.008ZM65.052 228.465c-.454-5.397 2.522-10.054 6.646-10.4 4.124-.347 7.836 3.748 8.29 9.145.453 5.397-2.522 10.054-6.647 10.401-4.124.346-7.835-3.748-8.289-9.146Zm-10.91 17.177c-1.394-4.473.25-8.963 3.67-10.029 3.422-1.066 7.325 1.696 8.718 6.169 1.394 4.473-.25 8.963-3.67 10.029-3.422 1.066-7.325-1.696-8.718-6.169Zm30.388-18.44c.553-5.389 4.339-9.414 8.456-8.992 4.117.422 7.007 5.132 6.454 10.52-.552 5.389-4.338 9.414-8.455 8.992-4.117-.422-7.007-5.132-6.454-10.52Zm16.746 25.031c-3.4-1.128-4.962-5.648-3.486-10.094 1.475-4.447 5.428-7.137 8.829-6.009 3.401 1.129 4.962 5.648 3.486 10.095-1.475 4.446-5.428 7.136-8.829 6.008Zm-26.473-8.398.08-.216c1.12-2.998 3.97-5.015 7.174-5.007.041.007.085-.002.128-.004.043-.001.085-.002.127.005 3.197.049 6.016 2.125 7.077 5.145l.074.217a22.221 22.221 0 0 0 7.86 10.549 8.902 8.902 0 0 1 2.474 11.634 8.907 8.907 0 0 1-10.306 4.067 26.875 26.875 0 0 0-15.204-.138 8.904 8.904 0 0 1-10.23-4.251 8.903 8.903 0 0 1 2.681-11.593 22.166 22.166 0 0 0 8.055-10.401l.01-.007ZM37.151 129.649c-.249-6.272 3.437-11.51 8.232-11.7 4.796-.19 8.885 4.739 9.133 11.011.25 6.271-3.436 11.51-8.232 11.7-4.795.19-8.884-4.74-9.133-11.011ZM23.623 149c-1.384-5.249.746-10.361 4.758-11.419 4.012-1.058 8.386 2.339 9.77 7.588 1.384 5.249-.746 10.361-4.758 11.419-4.012 1.058-8.386-2.339-9.77-7.588Zm36.121-19.801c.916-6.209 5.507-10.675 10.255-9.975 4.748.7 7.854 6.301 6.939 12.511-.916 6.209-5.507 10.675-10.255 9.975-4.748-.7-7.854-6.301-6.939-12.511Zm18.112 29.815c-3.876-1.479-5.45-6.789-3.514-11.861 1.935-5.071 6.646-7.983 10.523-6.503 3.876 1.479 5.45 6.789 3.514 11.86-1.935 5.072-6.646 7.984-10.523 6.504ZM47.63 147.955l.107-.243c1.455-3.415 4.858-5.606 8.558-5.434.047.002.1.006.155.01l.154.009c3.704.228 6.854 2.767 7.935 6.315l.077.259a25.773 25.773 0 0 0 8.563 12.617 10.306 10.306 0 0 1 2.261 13.598 10.307 10.307 0 0 1-12.142 4.178 31.076 31.076 0 0 0-17.591-.936 10.317 10.317 0 0 1-7.933-18.737 25.69 25.69 0 0 0 9.854-11.628l.002-.008Z"/>
    <path fill="#F70" d="M430.075-.9 359.389.857s-4.181-21.904-.421-34.815c0 0 12.684-4.43 27.158-3.097l1.319 8.117h14.153l1.318-8.117s14.439-1.733 27.159 3.097c0 0 3.356 22.354 0 33.058Z"/>
    <path fill="#38BDF8" d="M446.429 34.523c-9.403 6.674-16.685 10.023-16.685 10.023L371.635 63.57s-4.056-7.588-15.505-9.104l-4.123-4.023s1.909-5.662 11.182-13.93c0 0-3.95-12.602-6.115-33.717 0 0 7.7-9.494 38.222-9.494 30.522 0 38.222 8.053 38.222 8.053-.666 6.99-1.757 12.706-2.895 17.183l1.401.673c13.494 5.762 14.405 15.317 14.405 15.317v-.004Z"/>
    <path fill="#F70" d="M369.488 103.981c.763-2.892 2.629-5.611 5.254-8.143h.007a33.803 33.803 0 0 1-4.761-9.382c-5.982-18.63 6.537-37.203 27.206-43.837 20.668-6.633 41.657 1.182 47.639 19.812 1.088 3.382 1.599 6.89 1.592 10.4v-.006c3.612.53 6.71 1.656 9.015 3.561 15.882 13.135 17.391 33.242 17.391 33.242-22.156-.058-37.639-9.71-37.657-9.72a39.833 39.833 0 0 1-3.317 3.064s4.643 5.673.861 8.14c-3.785 2.47-14.28-.901-14.28-.901s6.433 7.92 1.401 9.994c-6.147 2.536-17.157-5.092-20.016-7.203l-.998.087c-2.316 4.664-9.652 17.618-24.13 28.041 0 0-10.476-17.23-5.207-37.153v.004Zm65.575-4.246.115.172.144-.345-.259.173Z"/>
    <path fill="#fff" d="m435.319 99.562-.259.172.115.177.144-.35Z"/>
    <path fill="#fff" d="m435.06 99.735.115.172.144-.345-.259.173ZM397.194 42.62c-18.861 6.053-30.933 22.051-28.354 38.96 7.793 1.16 17.006.547 22.483-.022a7.1 7.1 0 0 1 6.976 3.67c10.261 18.983 17.431 15.133 17.431 15.133s8.071-1.04 5.366-22.451a7.093 7.093 0 0 1 3.537-7.044c4.786-2.73 12.634-7.592 18.295-13.07-7.746-15.248-26.874-21.23-45.734-15.176Z"/>
    <path fill="#A81B46" d="m410.429 60.274-6.094 4.595-7.627-.19s-4.048-8.15 4.109-10.769c8.161-2.618 9.612 6.364 9.612 6.364Z"/>
    <path fill="#fff" d="M445.957 78.605s3.152 2.971 3.018 5.14c-.136 2.26-5.042 2.373-5.042 2.373s3.386 3.32 2.676 5.906c-.565 2.06-7.149 2.481-7.149 2.481s10.934 8.017 26.392 8.125c0 0-6.62-21.73-19.898-24.025h.003Zm-67.466 21.659s-.832 4.25.537 5.935c1.426 1.758 5.481-1.005 5.481-1.005s-.821 4.668 1.261 6.36c1.66 1.347 7.257-2.142 7.257-2.142s-4.225 12.886-16.732 21.968c0 0-7.268-21.525 2.193-31.116h.003Z"/>
    <path fill="#DCDFE2" d="M442.928 57.796c-7.746-15.248-26.874-21.23-45.734-15.176-18.861 6.053-30.933 22.051-28.354 38.96 0 0 1.242-24.151 30.129-33.425 28.887-9.274 43.956 9.641 43.956 9.641h.003Z"/>
    <path fill="#FFAA2A" d="M416.969 116.326c-3.868 2.309-17.146-3.317-17.146-3.317 2.863 2.107 13.872 9.739 20.016 7.203 5.035-2.078-1.401-9.994-1.401-9.994s2.399 3.803-1.469 6.112v-.004Zm1.473-6.111s10.495 3.367 14.28.9c3.781-2.467-.85-8.128-.861-8.139 0 0 1.088 3.158-1.736 5.395-2.823 2.236-11.679 1.847-11.679 1.847"/>
    <path fill="#FF4173" d="M400.821 53.91c2.928-.94 4.988-.382 6.432.716a6.475 6.475 0 0 1-4.452 5.453 6.462 6.462 0 0 1-6.792-1.84c.537-1.733 1.887-3.386 4.815-4.326l-.003-.003Z"/>
    <path fill="#F70" d="M454.91 22.098c-5.154 5.896-9.684 8.647-9.684 8.647l-5.662-7.055-8.942-5.157 1.628-7.678a139.183 139.183 0 0 0 3.281-4.347c12.547 4.044 17.478 11.204 19.376 15.594l.003-.004Z"/>
    <path fill="#fff" d="m456.747-2.615.274.184c5.524 3.774 7.033 11.258 3.504 16.941a58.558 58.558 0 0 1-5.615 7.592c-1.898-4.39-6.825-11.55-19.376-15.594a171.108 171.108 0 0 0 3.919-5.63c3.817-5.718 11.568-7.3 17.294-3.489v-.004Z"/>
    <path fill="#F75A00" d="m441.826 25.69-11.2-7.157 2.045-7.912s8.039 6.313 9.155 15.068Z"/>
    <path fill="#0095FF" d="m352.515 59.672 4.429-10.156s-4.17-.662-6.245 3.584c-2.074 4.246 1.816 6.572 1.816 6.572Z"/>
    <path fill="#fff" d="M409.388 30.587s-1.426-3.817-4.329-3.63c-2.902.187-5.557 3.929-10.642 2.377-5.085-1.552-6.126-5.431-5.852-7.805 0 0 1.314 2.928 4.127 3.343 2.456.363 5.175-3.814 11.402-2.197 5.888 1.527 5.291 7.916 5.291 7.916l.003-.004Zm-4.444-10.822s-1.426-3.818-4.329-3.63c-2.902.19-5.557 3.929-10.642 2.376-5.085-1.552-6.126-5.43-5.852-7.804 0 0 1.314 2.928 4.127 3.342 2.456.364 5.175-3.814 11.402-2.197 5.889 1.527 5.291 7.916 5.291 7.916l.003-.003Z"/>
    <path fill="#FFAA2A" d="M441.243 134.593c1.747 4.823.892 9.555-1.909 10.57-2.802 1.015-6.489-2.073-8.236-6.896-1.747-4.823-.892-9.555 1.91-10.57 2.801-1.015 6.488 2.073 8.235 6.896Zm-21.967-1.902c2.099.216 3.499 3.322 3.127 6.936-.372 3.615-2.376 6.37-4.475 6.154-2.1-.216-3.499-3.322-3.127-6.936.372-3.615 2.376-6.37 4.475-6.154Zm33.381-12.672c3.23 1.667 5.063 4.538 4.095 6.414-.968 1.875-4.37 2.044-7.6.377-3.229-1.666-5.062-4.538-4.094-6.413s4.37-2.044 7.599-.378Z"/>
    <path fill="#511500" d="M429.106 72.634a1.57 1.57 0 0 0-.497.08 1.62 1.62 0 0 0-1.048 2.037c.793 2.471-.039 5.042-1.818 5.615-.807.26-1.726.083-2.586-.493-.98-.66-1.747-1.729-2.161-3.011a1.62 1.62 0 1 0-3.087.99c.634 1.978 1.855 3.649 3.44 4.715 1.7 1.141 3.612 1.458 5.384.89 3.511-1.128 5.265-5.475 3.911-9.692a1.62 1.62 0 0 0-1.541-1.128l.003-.003Zm-29.175 9.367a1.59 1.59 0 0 0-.497.08 1.618 1.618 0 0 0-1.048 2.038c.792 2.47-.04 5.042-1.819 5.614-.806.26-1.725.083-2.586-.493-.979-.659-1.746-1.729-2.16-3.01a1.62 1.62 0 0 0-2.039-1.049 1.62 1.62 0 0 0-1.048 2.039c.634 1.977 1.855 3.648 3.44 4.714 1.703 1.142 3.612 1.459 5.384.89 3.511-1.128 5.265-5.475 3.914-9.692a1.62 1.62 0 0 0-1.541-1.127V82Zm65.928 19.905c-9.098-.292-18.177-3.227-25.653-8.416l-.667 2.276c2.424-.26 7.459-.652 8.291-3.425.623-2.766-1.257-5.23-3.015-7.12l-.853 2.16c7.804-.367 7.772-4.894 2.856-9.69-1.225-1.121-2.917.622-1.75 1.81a14.148 14.148 0 0 1 1.797 2.118c.381.598.976 1.524.814 2.157-.238.328-.659.487-1.153.66-.789.252-1.772.388-2.632.424-1.085.022-1.618 1.42-.843 2.161 1.015 1.074 2.107 2.471 2.37 3.93.068.385-.033.846-.047.76-.656.6-1.689.82-2.586 1.047-1.135.26-2.363.407-3.522.508-1.128.123-1.488 1.642-.555 2.262 2.028 1.361 4.149 2.442 6.36 3.436a51.63 51.63 0 0 0 13.675 3.936c2.352.324 4.729.479 7.098.458.4 0 .721-.332.717-.732a.718.718 0 0 0-.706-.716l.004-.004Z"/>
    <path fill="#511500" d="M446.429 71.564a1.26 1.26 0 0 0-.184 2.507c3.566.522 6.389 1.628 8.391 3.284 12.933 10.697 16.095 26.312 16.772 30.994-20.769-.454-35.42-9.418-35.567-9.511a1.26 1.26 0 0 0-1.333 2.139c.645.403 16.048 9.85 38.319 9.911.35 0 .685-.144.922-.403a1.27 1.27 0 0 0 .335-.955c-.065-.842-1.732-20.794-17.845-34.12-2.362-1.955-5.604-3.244-9.634-3.839a1.045 1.045 0 0 0-.183-.014l.007.007Z"/>
    <path fill="#511500" d="M411.725 39.025c-4.898 0-9.94.796-14.917 2.395a1.26 1.26 0 1 0 .771 2.399c20.647-6.63 40.448 1.537 46.055 18.994a32.515 32.515 0 0 1 1.534 10.008c0 .695.562 1.26 1.261 1.264.695 0 1.26-.562 1.26-1.257a35.007 35.007 0 0 0-1.656-10.783c-2.972-9.255-9.735-16.415-19.041-20.164-4.725-1.901-9.908-2.856-15.267-2.856Zm-35.002 92.939c7.783-5.499 13.985-13.293 17.503-22.16.407-1.051-.799-2.071-1.761-1.519-1.001.594-2.089 1.188-3.162 1.642-.861.335-1.829.76-2.712.652-1.195-.994-1.044-3.659-.839-5.165.202-1.062-1.059-1.873-1.941-1.268-1.005.631-2.291 1.355-3.439 1.376-.209-.021-.263-.014-.375-.137-.785-1.354-.479-3.396-.259-4.908.255-1.64-2.129-2.09-2.478-.454-.951 5.153.317 10.199 6.511 7.059.504-.256.951-.512 1.452-.84l-1.952-1.26c-.062.375-.094.681-.123 1.016-.342 3.475.692 8.247 5.237 6.911 1.934-.526 3.616-1.419 5.315-2.428l-1.865-1.462c-1.473 4.279-3.738 8.305-6.389 11.971a48.973 48.973 0 0 1-4.423 5.251 46.872 46.872 0 0 1-5.153 4.556c-.724.566.065 1.696.853 1.167Zm55.135-30.252a1.262 1.262 0 0 0-.976 2.06c.655.803 2.301 3.274 2.031 4.991-.086.548-.367.958-.886 1.297-2.388 1.556-9.367.187-13.206-1.044a1.26 1.26 0 0 0-1.365 1.995c1.393 1.721 3.435 5.125 2.978 6.929-.086.342-.288.778-1.08 1.106-5.266 2.171-15.832-4.718-19.459-7.556a1.259 1.259 0 1 0-1.552 1.984c.58.454 14.276 11.075 21.972 7.902 1.351-.559 2.237-1.531 2.564-2.817.505-1.988-.461-4.386-1.501-6.234 3.619.847 9.19 1.7 12.028-.155 1.113-.727 1.805-1.775 1.999-3.025.483-3.129-2.258-6.587-2.575-6.969a1.264 1.264 0 0 0-.976-.461l.004-.003Z"/>
    <path fill="#511500" d="M435.178 98.65c-.331 0-.659.13-.907.386a39.152 39.152 0 0 1-3.213 2.967 1.264 1.264 0 0 0-.173 1.776 1.266 1.266 0 0 0 1.776.173 41.683 41.683 0 0 0 3.421-3.159 1.26 1.26 0 0 0-.904-2.135v-.008Zm-60.436-4.073c-.317 0-.63.12-.875.353-2.931 2.827-4.815 5.763-5.6 8.727-5.345 20.211 4.912 37.408 5.352 38.128.183.299.482.511.824.58.346.068.703-.007.987-.213 15.418-11.099 22.902-25.102 24.832-29.132a1.263 1.263 0 0 0-.594-1.682 1.263 1.263 0 0 0-1.682.595c-1.812 3.788-8.723 16.725-22.876 27.327-2.172-4.202-8.687-18.767-4.405-34.962.666-2.514 2.316-5.057 4.912-7.556a1.261 1.261 0 0 0-.875-2.168v.003Zm38.157-24.185c1.044 2.663-.807 5.88-4.135 7.184-3.327 1.305-6.871.204-7.915-2.459-1.044-2.663.807-5.88 4.134-7.184 3.328-1.305 6.872-.204 7.916 2.46Z"/>
    <path fill="#7A2106" d="M408.739 73.493c.299.932-.578 2.047-1.958 2.49-1.381.443-2.742.047-3.042-.885-.299-.931.578-2.046 1.959-2.49 1.38-.443 2.742-.047 3.041.885Z"/>
    <path fill="#511500" d="M411.751 58.876c-.717 0-1.502.123-2.356.407-5.196 1.732-5.618 7.39-5.632 7.632a1.263 1.263 0 0 0 1.177 1.34 1.259 1.259 0 0 0 1.34-1.175c.015-.187.353-4.217 3.915-5.405 3.238-1.081 4.567 1.426 4.707 1.714.303.623 1.052.89 1.678.594a1.253 1.253 0 0 0 .605-1.664c-.63-1.358-2.463-3.44-5.431-3.44l-.003-.003Z"/>
    <path fill="#511500" d="M399.297 62.913a7.87 7.87 0 0 0-2.327.36c-4.397 1.358-4.908 5.172-4.563 6.998a1.261 1.261 0 0 0 2.482-.457c-.054-.324-.432-3.126 2.827-4.131 3.155-.972 5.586 1.314 6.183 1.952l.721 2.24a1.259 1.259 0 1 0 2.398-.77l-.799-2.493a1.234 1.234 0 0 0-.223-.414c-.13-.158-2.741-3.285-6.699-3.285Zm4.329-10.746c-1.001 0-2.067.18-3.195.54a1.26 1.26 0 0 0 .771 2.399c1.956-.63 3.605-.544 4.902.252 2.431 1.49 3.072 5.078 3.079 5.114a1.26 1.26 0 1 0 2.489-.4c-.033-.194-.804-4.747-4.25-6.86-1.135-.696-2.402-1.045-3.796-1.045Z"/>
    <path fill="#511500" d="M400.82 52.65c-.126 0-.255.017-.385.06-2.687.865-4.502 2.37-5.391 4.477-1.574 3.724.45 7.88.536 8.053a1.26 1.26 0 0 0 2.258-1.116c-.014-.033-1.599-3.317-.468-5.968.594-1.394 1.884-2.42 3.836-3.047a1.26 1.26 0 0 0-.386-2.46Zm-3.627-11.291a1.21 1.21 0 0 0-.385.061c-10.415 3.346-19.037 9.717-24.274 17.946-5.387 8.463-6.716 18.223-3.745 27.479a35.05 35.05 0 0 0 4.934 9.738 1.257 1.257 0 0 0 1.757.288 1.257 1.257 0 0 0 .288-1.757 32.634 32.634 0 0 1-4.581-9.04c-2.737-8.528-1.505-17.535 3.472-25.354 4.923-7.732 13.063-13.732 22.92-16.898a1.26 1.26 0 0 0-.386-2.46v-.003Zm-34.004-6.109a1.25 1.25 0 0 0-.839.321c-9.378 8.363-12.674 15.973-12.811 16.29-.27.64.029 1.379.667 1.653a1.262 1.262 0 0 0 1.653-.667c.029-.072 3.241-7.437 12.169-15.392a1.26 1.26 0 0 0-.839-2.2v-.004Zm67.93-17.664a1.262 1.262 0 0 0-.497 2.42c10.596 4.523 13.635 11.672 14.366 13.992-8.855 6.198-15.698 9.37-15.77 9.403a1.262 1.262 0 0 0-.62 1.67 1.258 1.258 0 0 0 1.671.62c.303-.14 7.499-3.475 16.891-10.138.4-.284.598-.774.512-1.257-.08-.432-2.1-10.645-16.059-16.606a1.262 1.262 0 0 0-.494-.1v-.004Z"/>
    <path fill="#511500" d="M395.296-7.963c-.695 0-1.261.566-1.261 1.26 0 .696.566 1.261 1.261 1.261 25.718 0 34.955 5.824 36.904 7.322-1.884 18.803-6.93 28.163-6.98 28.257a1.26 1.26 0 0 0 2.208 1.217c.223-.403 5.463-10.066 7.347-29.888a1.246 1.246 0 0 0-.346-.99c-.331-.346-8.424-8.442-39.133-8.442v.003Z"/>
    <path fill="#511500" d="M395.296-7.963c-30.771 0-38.871 9.551-39.202 9.958-.209.26-.31.59-.274.922 2.154 21 6.126 33.84 6.166 33.969a1.262 1.262 0 0 0 2.406-.757c-.04-.122-3.865-12.51-6.004-32.884 1.761-1.639 10.862-8.69 36.908-8.69a1.262 1.262 0 0 0 0-2.521v.003Z"/>
    <path fill="#511500" d="M380.713-59.996c-13.239 0-17.243 5.456-17.406 5.69-.054.08-.1.162-.136.252-10.938 26.885-5.222 54.893-5.165 55.174a1.262 1.262 0 0 0 2.467-.522c-.057-.27-5.582-27.436 4.967-53.536.543-.623 4.397-4.537 15.277-4.537 4.941 0 8.24 1.17 9.536 3.381 1.138 1.941.537 4.427-.324 5.964-1.844 3.292-4.246 4.25-4.35 4.29-.461.18-.785.616-.814 1.109-.018.299-.389 7.412 1.466 14.128.183.67.878 1.066 1.548.88a1.257 1.257 0 0 0 .879-1.55c-1.412-5.124-1.444-10.642-1.401-12.587 1.127-.623 3.22-2.092 4.869-5.038 1.243-2.222 1.977-5.611.299-8.47-1.801-3.069-5.741-4.628-11.712-4.628Zm27.613 0c-5.971 0-9.911 1.556-11.712 4.628-1.675 2.86-.943 6.248.299 8.47 1.649 2.943 3.742 4.412 4.869 5.035.04 1.948.007 7.477-1.401 12.587a1.26 1.26 0 0 0 2.428.67c1.854-6.72 1.48-13.83 1.465-14.129-.028-.5-.349-.94-.821-1.112-.093-.036-2.496-.995-4.34-4.286-.86-1.538-1.462-4.023-.324-5.964 1.297-2.212 4.596-3.382 9.537-3.382 10.847 0 14.708 3.89 15.277 4.541 8.975 22.214 6.339 45.065 5.312 51.555a1.26 1.26 0 1 0 2.489.393c1.052-6.667 3.767-30.198-5.535-53.067a1.31 1.31 0 0 0-.137-.253c-.166-.23-4.167-5.69-17.406-5.69v.004ZM449.883-5.95A13.786 13.786 0 0 0 438.405.178c-2.392 3.583-4.794 6.91-7.142 9.896a1.26 1.26 0 0 0 1.981 1.556 158.695 158.695 0 0 0 7.257-10.055c3.436-5.147 10.412-6.558 15.547-3.14.087.057.173.115.26.176 4.962 3.393 6.342 10.084 3.144 15.234-6.67 10.743-14.802 15.778-14.885 15.825a1.264 1.264 0 0 0-.422 1.732 1.26 1.26 0 0 0 1.729.425c.353-.213 8.708-5.363 15.717-16.65 3.911-6.302 2.215-14.492-3.864-18.644a13.634 13.634 0 0 0-7.852-2.481h.008Z"/>
    <path fill="#511500" d="M435.744 4.96c-.544 0-1.048.356-1.21.903a1.26 1.26 0 0 0 .853 1.563c7.297 2.143 11.935 6.087 14.539 9.022 2.835 3.19 3.955 5.917 3.965 5.946a1.261 1.261 0 0 0 2.341-.937c-.194-.486-4.937-11.982-20.135-16.447a1.222 1.222 0 0 0-.357-.05h.004Zm14.762-3.03c1.274-1.692 2.438-3.32 3.417-5.232.71-1.506-1.469-2.6-2.254-1.131-.746 1.757-1.819 3.525-2.878 5.143-.716 1.134.872 2.265 1.711 1.22h.004Zm6.208 4.625c1.56-1.43 3.011-2.85 4.344-4.517.997-1.332-.915-2.845-1.981-1.566-1.059 1.664-2.363 3.288-3.677 4.783-.753.886.443 2.056 1.314 1.3Z"/>
    <path fill="#F70" d="M349.129 90.216c-.67-8.92-.083-25.671 8.352-39.392 11.765-.325 14.157 12.741 14.157 12.741s-1.819 10.47 1.873 23.309c-4.661-.89-14.5-1.797-24.382 3.342Z"/>
    <path fill="#fff" d="M373.507 86.877a55.873 55.873 0 0 0 2.233 6.332c3.022 7.17-.893 15.399-8.37 17.56l-.378.108c-6.99 1.931-14.19-2.344-15.998-9.371a65.023 65.023 0 0 1-1.865-11.29c9.882-5.14 19.721-4.228 24.382-3.342l-.004.003Z"/>
    <path fill="#FFA2BE" d="M366.466 94.104c.542 1.878-.658 3.875-2.682 4.46-2.024.584-4.104-.465-4.647-2.344-.542-1.878.659-3.875 2.682-4.46 2.024-.584 4.104.465 4.647 2.344Zm6.392 3.782a2.536 2.536 0 1 1-4.96 1.058 2.536 2.536 0 0 1 4.96-1.058Zm-5.772 4.857a2.536 2.536 0 1 1-4.96 1.059 2.536 2.536 0 0 1 4.96-1.059Zm-6.85-2.321a2.535 2.535 0 1 1-4.958 1.057 2.535 2.535 0 0 1 4.958-1.057Z"/>
    <path fill="#F75A00" d="M371.411 65.384s-6.439-7.808-16.887-8.968c0 0 2.089-4.08 3.324-6.749 0 0 12.461 1.834 13.567 15.713l-.004.004Z"/>
    <path fill="#511500" d="M357.848 48.41c-.447 0-.879.238-1.106.656-9.662 17.68-11.938 34.941-6.961 52.779 2.157 7.729 10.03 12.324 17.546 10.246.133-.036.263-.072.396-.112a14.285 14.285 0 0 0 9.18-19.26c-6.335-15.029-4.048-28.797-4.023-28.934a1.262 1.262 0 0 0-2.485-.432c-.104.59-2.434 14.64 4.185 30.345a11.76 11.76 0 0 1-.227 9.634 11.743 11.743 0 0 1-7.329 6.227l-.363.105c-6.184 1.707-12.667-2.1-14.449-8.493-4.794-17.171-2.586-33.82 6.745-50.891a1.261 1.261 0 0 0-1.105-1.866l-.004-.004Z"/>
    <path fill="#511500" d="M366.906 85.03c-5.071 0-12.227.825-18.4 4.606a1.26 1.26 0 1 0 1.315 2.15c9.911-6.076 23.092-3.807 23.225-3.785a1.261 1.261 0 0 0 .443-2.481c-.245-.044-2.852-.494-6.587-.494l.004.004Zm-11.45-36.926a6.513 6.513 0 0 0-5.06 2.399 6.465 6.465 0 0 0-1.156 6.097c.577 1.79 1.524 3.256 2.809 4.358a1.26 1.26 0 0 0 1.636-1.916c-.93-.793-1.618-1.877-2.05-3.216a3.903 3.903 0 0 1 .706-3.728 4.018 4.018 0 0 1 3.58-1.448c5.467.623 12.418 3.415 14.474 13.178a1.262 1.262 0 0 0 2.467-.522c-2.492-11.824-11.506-14.575-16.656-15.162a6.666 6.666 0 0 0-.753-.043l.003.003Z"/>
    <path fill="#DCDFE2" d="M340.489 88.235c-.99 0-1.847.742-1.966 1.75-1.272 10.848 2.776 18.544 2.953 18.865a1.979 1.979 0 0 0 2.683.806 1.98 1.98 0 0 0 .81-2.679c-.054-.101-3.626-7.005-2.51-16.534a1.98 1.98 0 0 0-1.97-2.212v.004Zm-7.977 4.916a1.98 1.98 0 0 0-1.98 1.956 35.57 35.57 0 0 0 1.17 9.554 1.979 1.979 0 1 0 3.828-1.012 31.703 31.703 0 0 1-1.037-8.496 1.981 1.981 0 0 0-1.955-2.006h-.026v.004Z"/>
  </g>
  <defs>
    <clipPath id="a">
      <path fill="#fff" d="M0 0h792v275H0z"/>
    </clipPath>
  </defs>
</svg>
