<svg xmlns="http://www.w3.org/2000/svg" width="900" height="615" fill="none" viewBox="0 0 900 615">
  <path fill="#070B15" d="M0 0h900v615H0z"/>
  <path fill="#070B15" d="M0 0h140v35H0z" opacity=".1"/>
  <path stroke="#fff" d="m125 14 7 7m0-7-7 7"/>
  <rect width="48" height="9" x="63" y="13" fill="#D9D9D9" opacity=".1" rx="4.5"/>
  <rect width="24" height="9" x="36" y="13" fill="#D9D9D9" opacity=".1" rx="4.5"/>
  <path stroke="#1E9CEF" d="M9.5 11.5h12v12h-12z"/>
  <path fill="#1E9CEF" d="M12.078 17.059v.904h1.61V22h.967v-4.037h1.609v-.904h-4.186Zm6.192-.092c-.48 0-.86.134-1.143.41-.275.275-.417.628-.417 1.066 0 .79.46 1.2 1.42 1.51.627.205.875.396.875.727 0 .332-.248.558-.65.558-.494 0-.755-.247-.776-.748h-.982c.029.967.643 1.602 1.744 1.602.48 0 .875-.134 1.179-.395.31-.268.466-.636.466-1.101 0-.756-.389-1.186-1.426-1.532-.332-.12-.565-.22-.685-.31a.465.465 0 0 1-.183-.396c0-.339.211-.53.557-.53.346 0 .593.226.6.615h.981c-.035-.96-.62-1.476-1.56-1.476Z"/>
  <path fill="#fff" d="M27.894 67.73h1.61V63l-1.498.371v-1.299l1.509-.361h1.391v6.02h1.612V69h-4.624v-1.27Zm1.201 18h3.071V87h-4.629v-1.23l.781-.83a99.175 99.175 0 0 0 1.69-1.822c.244-.28.42-.527.527-.742.108-.218.161-.433.161-.645 0-.325-.099-.576-.298-.751-.195-.18-.473-.27-.834-.27a2.86 2.86 0 0 0-.87.157c-.319.101-.652.25-1 .444V79.97a6.8 6.8 0 0 1 1.02-.288 4.77 4.77 0 0 1 .962-.103c.771 0 1.377.18 1.816.542.443.358.664.848.664 1.47a2.2 2.2 0 0 1-.146.805 3.41 3.41 0 0 1-.493.836c-.173.22-.647.719-1.421 1.494-.42.42-.754.755-1.001 1.006Zm.561 16.008h-.771v-1.269h.771c.358 0 .635-.07.83-.21a.698.698 0 0 0 .298-.6c0-.271-.1-.48-.298-.63-.195-.154-.472-.23-.83-.23-.273 0-.566.034-.879.102a6.56 6.56 0 0 0-.971.298v-1.308a7.58 7.58 0 0 1 .99-.23 5.6 5.6 0 0 1 .938-.083c.769 0 1.368.168 1.797.503.43.335.645.798.645 1.387 0 .433-.124.788-.371 1.064-.248.274-.6.453-1.06.537.521.091.918.3 1.191.625.274.323.41.747.41 1.275 0 .706-.226 1.245-.678 1.616-.453.371-1.11.557-1.973.557-.367 0-.73-.031-1.089-.093a6.135 6.135 0 0 1-1.02-.269v-1.338c.306.153.636.271.991.352a5.2 5.2 0 0 0 1.118.117c.39 0 .7-.089.928-.268a.892.892 0 0 0 .342-.733c0-.374-.114-.662-.342-.864-.228-.205-.55-.308-.967-.308Zm.708 15.574-1.84 2.88h1.84v-2.88Zm-.127-1.602h1.51v4.482h.8v1.236h-.8V123h-1.383v-1.572h-2.89v-1.397l2.763-4.321Zm-2.319 18h3.96v1.269h-2.793v1.353c.117-.046.242-.078.376-.098a2.61 2.61 0 0 1 .425-.034c.722 0 1.308.228 1.758.684.449.456.673 1.048.673 1.777 0 .765-.244 1.371-.732 1.817-.485.442-1.148.664-1.987.664-.313 0-.629-.026-.948-.079a7.081 7.081 0 0 1-.976-.234v-1.299c.27.134.547.235.83.303.286.065.573.098.86.098.507 0 .893-.108 1.156-.323.264-.218.396-.533.396-.947 0-.381-.132-.685-.396-.913-.26-.231-.608-.347-1.044-.347a3.2 3.2 0 0 0-.777.098 3.916 3.916 0 0 0-.781.283v-4.072Zm2.197 21.638c-.312 0-.551.114-.717.341-.163.225-.245.552-.245.982 0 .426.082.753.245.981.166.225.405.337.717.337.313 0 .552-.112.718-.337.17-.228.254-.555.254-.981 0-.427-.085-.754-.254-.982-.166-.227-.405-.341-.718-.341Zm1.89-3.467v1.308a3.67 3.67 0 0 0-.742-.327 2.222 2.222 0 0 0-.679-.112c-.52 0-.918.176-1.191.527-.27.349-.412.865-.425 1.548.153-.211.348-.369.586-.473.237-.108.517-.162.84-.162.657 0 1.165.209 1.523.625.358.414.537 1.001.537 1.763 0 .817-.202 1.45-.605 1.9-.4.449-.965.673-1.695.673-.888 0-1.535-.297-1.938-.893-.4-.596-.6-1.558-.6-2.886 0-1.263.245-2.209.736-2.837.492-.631 1.23-.947 2.212-.947.228 0 .463.024.704.073.244.049.49.122.737.22Zm-4.37 17.829h4.61v1.02L29.772 177h-1.47l2.374-6.021h-3.042v-1.269Zm2.348 22.038c-.322 0-.582.103-.78.308-.2.201-.299.47-.299.805 0 .336.1.606.298.811.199.205.46.307.781.307.323 0 .583-.104.782-.312.201-.208.302-.477.302-.806 0-.335-.099-.604-.297-.805-.199-.205-.461-.308-.787-.308Zm-1.069-.61c-.368-.127-.648-.326-.84-.596-.192-.273-.288-.607-.288-1.001 0-.605.197-1.084.591-1.436.394-.351.93-.527 1.606-.527.68 0 1.218.176 1.612.527.394.352.59.831.59 1.436 0 .391-.094.723-.283.996-.189.27-.463.47-.825.601.404.123.72.345.947.664.228.319.342.701.342 1.147 0 .7-.206 1.24-.62 1.621-.413.381-1 .572-1.763.572-.758 0-1.344-.191-1.757-.572-.414-.381-.62-.921-.62-1.621 0-.449.115-.833.346-1.152.231-.319.552-.539.962-.659Zm.151-1.48c0 .287.082.515.245.684.166.166.39.249.673.249.287 0 .511-.083.674-.249.166-.169.25-.397.25-.684 0-.283-.084-.506-.25-.669-.163-.166-.387-.249-.674-.249-.28 0-.503.083-.669.249-.166.166-.249.389-.249.669Zm-1.098 23.244v-1.313c.257.15.503.26.737.332.238.072.466.107.684.107.517 0 .911-.172 1.181-.517.274-.349.419-.868.435-1.558a1.45 1.45 0 0 1-.586.479 2.1 2.1 0 0 1-.845.156c-.654 0-1.16-.207-1.518-.62-.358-.417-.537-1.006-.537-1.768 0-.814.2-1.443.6-1.889.4-.446.967-.669 1.7-.669.888 0 1.533.297 1.933.893.404.593.605 1.551.605 2.876 0 1.26-.245 2.206-.737 2.837-.491.628-1.229.942-2.212.942-.228 0-.464-.024-.708-.073a4.597 4.597 0 0 1-.732-.215Zm1.89-3.52c.309 0 .545-.112.707-.337.166-.228.25-.557.25-.986 0-.427-.084-.752-.25-.977-.162-.228-.398-.342-.708-.342-.312 0-.553.114-.722.342-.166.225-.25.55-.25.977 0 .426.084.753.25.981.17.228.41.342.722.342Zm-7.989 20.348h1.612v-4.731l-1.5.371v-1.299l1.51-.361h1.39v6.02h1.612V231h-4.624v-1.27Zm5.708-2.368c0-1.263.2-2.208.6-2.837.401-.631 1.003-.947 1.807-.947.808 0 1.412.314 1.812.943.4.628.6 1.575.6 2.841 0 1.263-.2 2.209-.6 2.837-.4.628-1.004.943-1.812.943-.804 0-1.406-.315-1.806-.943-.4-.631-.6-1.577-.6-2.837Zm1.68 1.949c.153.406.395.61.727.61.336 0 .58-.204.733-.61.153-.407.23-1.057.23-1.949 0-.338-.012-.641-.035-.908l-1.704 2.715c.016.052.033.099.049.142Zm.727-4.512c-.332 0-.574.203-.727.61-.153.407-.23 1.058-.23 1.953 0 .277.007.529.02.757l1.68-2.681-.01-.029c-.153-.407-.397-.61-.733-.61Zm-8.115 22.931h1.612v-4.731l-1.5.371v-1.299l1.51-.361h1.39v6.02h1.612V249h-4.624v-1.27Zm6.026 0h1.61v-4.731l-1.498.371v-1.299l1.509-.361h1.391v6.02h1.612V249h-4.624v-1.27Zm-6.026 18h1.612v-4.731l-1.5.371v-1.299l1.51-.361h1.39v6.02h1.612V267h-4.624v-1.27Zm7.227 0h3.071V267h-4.629v-1.23l.781-.831a97.483 97.483 0 0 0 1.69-1.821c.244-.28.42-.527.527-.742.108-.218.161-.433.161-.645 0-.325-.099-.576-.298-.752-.195-.179-.473-.268-.834-.268-.258 0-.547.052-.87.156a5.343 5.343 0 0 0-1 .445v-1.343a6.788 6.788 0 0 1 1.02-.288 4.77 4.77 0 0 1 .962-.103c.771 0 1.377.181 1.816.542.443.358.664.848.664 1.47 0 .286-.049.555-.146.806a3.39 3.39 0 0 1-.493.834c-.173.222-.647.72-1.421 1.495-.42.42-.754.755-1.001 1.005Zm-7.227 18h1.612v-4.731l-1.5.371v-1.299l1.51-.361h1.39v6.02h1.612V285h-4.624v-1.27Zm7.788-1.992h-.771v-1.269h.771c.358 0 .635-.07.83-.21a.699.699 0 0 0 .298-.601c0-.27-.1-.48-.298-.63-.195-.153-.472-.229-.83-.229-.273 0-.566.034-.879.102a6.672 6.672 0 0 0-.971.298v-1.308a7.59 7.59 0 0 1 .99-.23c.326-.055.639-.083.938-.083.769 0 1.368.168 1.797.503.43.335.645.798.645 1.387 0 .433-.124.788-.371 1.064-.248.274-.6.453-1.06.537.521.091.918.3 1.191.625.274.323.41.747.41 1.275 0 .706-.226 1.245-.678 1.616-.453.371-1.11.557-1.973.557-.367 0-.73-.031-1.089-.093a6.135 6.135 0 0 1-1.02-.269v-1.338c.306.153.636.271.991.352a5.2 5.2 0 0 0 1.118.117c.39 0 .7-.089.928-.268a.892.892 0 0 0 .342-.733c0-.374-.114-.662-.342-.864-.228-.205-.55-.308-.967-.308Zm-7.788 19.992h1.612v-4.731l-1.5.371v-1.299l1.51-.361h1.39v6.02h1.612V303h-4.624v-1.27Zm8.496-4.418-1.84 2.88h1.84v-2.88Zm-.127-1.602h1.51v4.482h.8v1.236h-.8V303h-1.383v-1.572h-2.89v-1.397l2.763-4.321Zm-8.369 24.02h1.612v-4.731l-1.5.371v-1.299l1.51-.361h1.39v6.02h1.612V321h-4.624v-1.27Zm6.05-6.02h3.96v1.269h-2.793v1.353c.117-.046.242-.078.376-.098a2.61 2.61 0 0 1 .425-.034c.722 0 1.308.228 1.758.684.449.456.673 1.048.673 1.777 0 .765-.244 1.371-.732 1.817-.485.442-1.148.664-1.987.664-.313 0-.629-.026-.948-.079a7.081 7.081 0 0 1-.976-.234v-1.299c.27.134.547.235.83.303.286.065.573.098.86.098.507 0 .893-.108 1.156-.323.264-.218.396-.533.396-.947 0-.381-.132-.685-.396-.913-.26-.231-.608-.347-1.044-.347a3.2 3.2 0 0 0-.777.098 3.916 3.916 0 0 0-.781.283v-4.072Zm-6.05 24.02h1.612v-4.731l-1.5.371v-1.299l1.51-.361h1.39v6.02h1.612V339h-4.624v-1.27Zm8.247-2.382c-.312 0-.551.114-.717.341-.163.225-.245.552-.245.982 0 .426.082.753.245.981.166.225.405.337.717.337.313 0 .552-.112.718-.337.17-.228.254-.555.254-.981 0-.427-.085-.754-.254-.982-.166-.227-.405-.341-.718-.341Zm1.89-3.467v1.308a3.67 3.67 0 0 0-.742-.327 2.222 2.222 0 0 0-.679-.112c-.52 0-.918.176-1.191.527-.27.349-.412.865-.425 1.548.153-.211.348-.369.586-.473.237-.108.517-.162.84-.162.657 0 1.165.209 1.523.625.358.414.537 1.001.537 1.763 0 .817-.202 1.45-.605 1.9-.4.449-.965.673-1.695.673-.888 0-1.535-.297-1.938-.893-.4-.596-.6-1.558-.6-2.886 0-1.263.245-2.209.736-2.837.492-.631 1.23-.947 2.212-.947.228 0 .463.024.704.073.244.049.49.122.737.22ZM21.868 355.73h1.612v-4.731l-1.5.371v-1.299l1.51-.361h1.39v6.02h1.612V357h-4.624v-1.27Zm5.767-6.02h4.61v1.02L29.772 357h-1.47l2.374-6.021h-3.042v-1.269Zm-5.767 24.02h1.612v-4.731l-1.5.371v-1.299l1.51-.361h1.39v6.02h1.612V375h-4.624v-1.27Zm8.115-1.982c-.322 0-.582.103-.78.308-.2.201-.299.47-.299.805 0 .336.1.606.298.811.199.205.46.307.781.307.323 0 .583-.104.782-.312.201-.208.302-.477.302-.806 0-.335-.099-.604-.297-.805-.199-.205-.461-.308-.787-.308Zm-1.069-.61c-.368-.127-.648-.326-.84-.596-.192-.273-.288-.607-.288-1.001 0-.605.197-1.084.591-1.436.394-.351.93-.527 1.606-.527.68 0 1.218.176 1.612.527.394.352.59.831.59 1.436 0 .391-.094.723-.283.996-.189.27-.463.47-.825.601.404.123.72.345.947.664.228.319.342.701.342 1.147 0 .7-.206 1.24-.62 1.621-.413.381-1 .572-1.763.572-.758 0-1.344-.191-1.757-.572-.414-.381-.62-.921-.62-1.621 0-.449.115-.833.346-1.152.231-.319.552-.539.962-.659Zm.151-1.48c0 .287.082.515.245.684.166.166.39.249.673.249.287 0 .511-.083.674-.249.166-.169.25-.397.25-.684 0-.283-.084-.506-.25-.669-.163-.166-.387-.249-.674-.249-.28 0-.503.083-.669.249-.166.166-.249.389-.249.669Zm-7.197 22.072h1.612v-4.731l-1.5.371v-1.299l1.51-.361h1.39v6.02h1.612V393h-4.624v-1.27Zm6.099 1.172v-1.313c.257.15.503.26.737.332.238.072.466.107.684.107.517 0 .911-.172 1.181-.517.274-.349.419-.868.435-1.558a1.45 1.45 0 0 1-.586.479 2.1 2.1 0 0 1-.845.156c-.654 0-1.16-.207-1.518-.62-.358-.417-.537-1.006-.537-1.768 0-.814.2-1.443.6-1.889.4-.446.967-.669 1.7-.669.888 0 1.533.297 1.933.893.404.593.605 1.551.605 2.876 0 1.26-.245 2.206-.737 2.837-.491.628-1.229.942-2.212.942-.228 0-.464-.024-.708-.073a4.597 4.597 0 0 1-.732-.215Zm1.89-3.52c.309 0 .545-.112.707-.337.166-.228.25-.557.25-.986 0-.427-.084-.752-.25-.977-.162-.228-.398-.342-.708-.342-.312 0-.553.114-.722.342-.166.225-.25.55-.25.977 0 .426.084.753.25.981.17.228.41.342.722.342ZM23.07 409.73h3.07V411h-4.628v-1.23l.781-.831a97.107 97.107 0 0 0 1.69-1.821c.244-.28.42-.527.527-.742.107-.218.16-.433.16-.645 0-.325-.098-.576-.297-.752-.195-.179-.474-.268-.835-.268-.257 0-.547.052-.87.156a5.343 5.343 0 0 0-1 .445v-1.343a6.788 6.788 0 0 1 1.02-.288c.336-.069.656-.103.962-.103.772 0 1.377.181 1.817.542.443.358.664.848.664 1.47 0 .286-.049.555-.147.806a3.39 3.39 0 0 1-.493.834c-.172.222-.646.72-1.42 1.495l-1.002 1.005Zm4.506-2.368c0-1.263.2-2.208.6-2.837.401-.631 1.003-.947 1.807-.947.808 0 1.412.314 1.812.943.4.628.6 1.575.6 2.841 0 1.263-.2 2.209-.6 2.837-.4.628-1.004.943-1.812.943-.804 0-1.406-.315-1.806-.943-.4-.631-.6-1.577-.6-2.837Zm1.68 1.949c.153.406.395.61.727.61.336 0 .58-.204.733-.61.153-.407.23-1.057.23-1.949 0-.338-.012-.641-.035-.908l-1.704 2.715c.016.052.033.099.049.142Zm.727-4.512c-.332 0-.574.203-.727.61-.153.407-.23 1.058-.23 1.953 0 .277.007.529.02.757l1.68-2.681-.01-.029c-.153-.407-.397-.61-.733-.61ZM23.07 427.73h3.07V429h-4.628v-1.23l.781-.831a97.107 97.107 0 0 0 1.69-1.821c.244-.28.42-.527.527-.742.107-.218.16-.433.16-.645 0-.325-.098-.576-.297-.752-.195-.179-.474-.268-.835-.268-.257 0-.547.052-.87.156a5.343 5.343 0 0 0-1 .445v-1.343a6.788 6.788 0 0 1 1.02-.288c.336-.069.656-.103.962-.103.772 0 1.377.181 1.817.542.443.358.664.848.664 1.47 0 .286-.049.555-.147.806a3.39 3.39 0 0 1-.493.834c-.172.222-.646.72-1.42 1.495l-1.002 1.005Zm4.824 0h1.61v-4.731l-1.498.371v-1.299l1.509-.361h1.391v6.02h1.612V429h-4.624v-1.27Zm-4.824 18h3.07V447h-4.628v-1.23l.781-.831a97.107 97.107 0 0 0 1.69-1.821c.244-.28.42-.527.527-.742.107-.218.16-.433.16-.645 0-.325-.098-.576-.297-.752-.195-.179-.474-.268-.835-.268-.257 0-.547.052-.87.156a5.343 5.343 0 0 0-1 .445v-1.343a6.788 6.788 0 0 1 1.02-.288c.336-.069.656-.103.962-.103.772 0 1.377.181 1.817.542.443.358.664.848.664 1.47 0 .286-.049.555-.147.806a3.39 3.39 0 0 1-.493.834c-.172.222-.646.72-1.42 1.495l-1.002 1.005Zm6.025 0h3.071V447h-4.629v-1.23l.781-.831a97.483 97.483 0 0 0 1.69-1.821c.244-.28.42-.527.527-.742.108-.218.161-.433.161-.645 0-.325-.099-.576-.298-.752-.195-.179-.473-.268-.834-.268-.258 0-.547.052-.87.156a5.343 5.343 0 0 0-1 .445v-1.343a6.788 6.788 0 0 1 1.02-.288 4.77 4.77 0 0 1 .962-.103c.771 0 1.377.181 1.816.542.443.358.664.848.664 1.47 0 .286-.049.555-.146.806a3.39 3.39 0 0 1-.493.834c-.173.222-.647.72-1.421 1.495-.42.42-.754.755-1.001 1.005Zm-6.025 18h3.07V465h-4.628v-1.23l.781-.831a97.107 97.107 0 0 0 1.69-1.821c.244-.28.42-.527.527-.742.107-.218.16-.433.16-.645 0-.325-.098-.576-.297-.752-.195-.179-.474-.268-.835-.268-.257 0-.547.052-.87.156a5.343 5.343 0 0 0-1 .445v-1.343a6.788 6.788 0 0 1 1.02-.288c.336-.069.656-.103.962-.103.772 0 1.377.181 1.817.542.443.358.664.848.664 1.47 0 .286-.049.555-.147.806a3.39 3.39 0 0 1-.493.834c-.172.222-.646.72-1.42 1.495l-1.002 1.005Zm6.586-1.992h-.771v-1.269h.771c.358 0 .635-.07.83-.21a.699.699 0 0 0 .298-.601c0-.27-.1-.48-.298-.63-.195-.153-.472-.229-.83-.229-.273 0-.566.034-.879.102a6.672 6.672 0 0 0-.971.298v-1.308a7.59 7.59 0 0 1 .99-.23c.326-.055.639-.083.938-.083.769 0 1.368.168 1.797.503.43.335.645.798.645 1.387 0 .433-.124.788-.371 1.064-.248.274-.6.453-1.06.537.521.091.918.3 1.191.625.274.323.41.747.41 1.275 0 .706-.226 1.245-.678 1.616-.453.371-1.11.557-1.973.557-.367 0-.73-.031-1.089-.093a6.135 6.135 0 0 1-1.02-.269v-1.338c.306.153.636.271.991.352a5.2 5.2 0 0 0 1.118.117c.39 0 .7-.089.928-.268a.892.892 0 0 0 .342-.733c0-.374-.114-.662-.342-.864-.228-.205-.55-.308-.967-.308ZM23.07 481.73h3.07V483h-4.628v-1.23l.781-.831a97.107 97.107 0 0 0 1.69-1.821c.244-.28.42-.527.527-.742.107-.218.16-.433.16-.645 0-.325-.098-.576-.297-.752-.195-.179-.474-.268-.835-.268-.257 0-.547.052-.87.156a5.343 5.343 0 0 0-1 .445v-1.343a6.788 6.788 0 0 1 1.02-.288c.336-.069.656-.103.962-.103.772 0 1.377.181 1.817.542.443.358.664.848.664 1.47 0 .286-.049.555-.147.806a3.39 3.39 0 0 1-.493.834c-.172.222-.646.72-1.42 1.495l-1.002 1.005Zm7.294-4.418-1.84 2.88h1.84v-2.88Zm-.127-1.602h1.51v4.482h.8v1.236h-.8V483h-1.383v-1.572h-2.89v-1.397l2.763-4.321Zm-7.167 24.02h3.07V501h-4.628v-1.23l.781-.831a97.107 97.107 0 0 0 1.69-1.821c.244-.28.42-.527.527-.742.107-.218.16-.433.16-.645 0-.325-.098-.576-.297-.752-.195-.179-.474-.268-.835-.268-.257 0-.547.052-.87.156a5.343 5.343 0 0 0-1 .445v-1.343a6.788 6.788 0 0 1 1.02-.288c.336-.069.656-.103.962-.103.772 0 1.377.181 1.817.542.443.358.664.848.664 1.47 0 .286-.049.555-.147.806a3.39 3.39 0 0 1-.493.834c-.172.222-.646.72-1.42 1.495l-1.002 1.005Zm4.848-6.02h3.96v1.269h-2.793v1.353c.117-.046.242-.078.376-.098a2.61 2.61 0 0 1 .425-.034c.722 0 1.308.228 1.758.684.449.456.673 1.048.673 1.777 0 .765-.244 1.371-.732 1.817-.485.442-1.148.664-1.987.664-.313 0-.629-.026-.948-.079a7.081 7.081 0 0 1-.976-.234v-1.299c.27.134.547.235.83.303.286.065.573.098.86.098.507 0 .893-.108 1.156-.323.264-.218.396-.533.396-.947 0-.381-.132-.685-.396-.913-.26-.231-.608-.347-1.044-.347a3.2 3.2 0 0 0-.777.098 3.916 3.916 0 0 0-.781.283v-4.072Zm-4.848 24.02h3.07V519h-4.628v-1.23l.781-.831a97.107 97.107 0 0 0 1.69-1.821c.244-.28.42-.527.527-.742.107-.218.16-.433.16-.645 0-.325-.098-.576-.297-.752-.195-.179-.474-.268-.835-.268-.257 0-.547.052-.87.156a5.343 5.343 0 0 0-1 .445v-1.343a6.788 6.788 0 0 1 1.02-.288c.336-.069.656-.103.962-.103.772 0 1.377.181 1.817.542.443.358.664.848.664 1.47 0 .286-.049.555-.147.806a3.39 3.39 0 0 1-.493.834c-.172.222-.646.72-1.42 1.495l-1.002 1.005Zm7.045-2.382c-.312 0-.551.114-.717.341-.163.225-.245.552-.245.982 0 .426.082.753.245.981.166.225.405.337.717.337.313 0 .552-.112.718-.337.17-.228.254-.555.254-.981 0-.427-.085-.754-.254-.982-.166-.227-.405-.341-.718-.341Zm1.89-3.467v1.308a3.67 3.67 0 0 0-.742-.327 2.222 2.222 0 0 0-.679-.112c-.52 0-.918.176-1.191.527-.27.349-.412.865-.425 1.548.153-.211.348-.369.586-.473.237-.108.517-.162.84-.162.657 0 1.165.209 1.523.625.358.414.537 1.001.537 1.763 0 .817-.202 1.45-.605 1.9-.4.449-.965.673-1.695.673-.888 0-1.535-.297-1.938-.893-.4-.596-.6-1.558-.6-2.886 0-1.263.245-2.209.736-2.837.492-.631 1.23-.947 2.212-.947.228 0 .463.024.704.073.244.049.49.122.737.22ZM23.07 535.73h3.07V537h-4.628v-1.23l.781-.831a97.107 97.107 0 0 0 1.69-1.821c.244-.28.42-.527.527-.742.107-.218.16-.433.16-.645 0-.325-.098-.576-.297-.752-.195-.179-.474-.268-.835-.268-.257 0-.547.052-.87.156a5.343 5.343 0 0 0-1 .445v-1.343a6.788 6.788 0 0 1 1.02-.288c.336-.069.656-.103.962-.103.772 0 1.377.181 1.817.542.443.358.664.848.664 1.47 0 .286-.049.555-.147.806a3.39 3.39 0 0 1-.493.834c-.172.222-.646.72-1.42 1.495l-1.002 1.005Zm4.565-6.02h4.61v1.02L29.772 537h-1.47l2.374-6.021h-3.042v-1.269Zm-4.565 24.02h3.07V555h-4.628v-1.23l.781-.831a97.107 97.107 0 0 0 1.69-1.821c.244-.28.42-.527.527-.742.107-.218.16-.433.16-.645 0-.325-.098-.576-.297-.752-.195-.179-.474-.268-.835-.268-.257 0-.547.052-.87.156a5.343 5.343 0 0 0-1 .445v-1.343a6.788 6.788 0 0 1 1.02-.288c.336-.069.656-.103.962-.103.772 0 1.377.181 1.817.542.443.358.664.848.664 1.47 0 .286-.049.555-.147.806a3.39 3.39 0 0 1-.493.834c-.172.222-.646.72-1.42 1.495l-1.002 1.005Zm6.913-1.982c-.322 0-.582.103-.78.308-.2.201-.299.47-.299.805 0 .336.1.606.298.811.199.205.46.307.781.307.323 0 .583-.104.782-.312.201-.208.302-.477.302-.806 0-.335-.099-.604-.297-.805-.199-.205-.461-.308-.787-.308Zm-1.069-.61c-.368-.127-.648-.326-.84-.596-.192-.273-.288-.607-.288-1.001 0-.605.197-1.084.591-1.436.394-.351.93-.527 1.606-.527.68 0 1.218.176 1.612.527.394.352.59.831.59 1.436 0 .391-.094.723-.283.996-.189.27-.463.47-.825.601.404.123.72.345.947.664.228.319.342.701.342 1.147 0 .7-.206 1.24-.62 1.621-.413.381-1 .572-1.763.572-.758 0-1.344-.191-1.757-.572-.414-.381-.62-.921-.62-1.621 0-.449.115-.833.346-1.152.231-.319.552-.539.962-.659Zm.151-1.48c0 .287.082.515.245.684.166.166.39.249.673.249.287 0 .511-.083.674-.249.166-.169.25-.397.25-.684 0-.283-.084-.506-.25-.669-.163-.166-.387-.249-.674-.249-.28 0-.503.083-.669.249-.166.166-.249.389-.249.669ZM23.07 571.73h3.07V573h-4.628v-1.23l.781-.831a97.107 97.107 0 0 0 1.69-1.821c.244-.28.42-.527.527-.742.107-.218.16-.433.16-.645 0-.325-.098-.576-.297-.752-.195-.179-.474-.268-.835-.268-.257 0-.547.052-.87.156a5.343 5.343 0 0 0-1 .445v-1.343a6.788 6.788 0 0 1 1.02-.288c.336-.069.656-.103.962-.103.772 0 1.377.181 1.817.542.443.358.664.848.664 1.47 0 .286-.049.555-.147.806a3.39 3.39 0 0 1-.493.834c-.172.222-.646.72-1.42 1.495l-1.002 1.005Zm4.897 1.172v-1.313c.257.15.503.26.737.332.238.072.466.107.684.107.517 0 .911-.172 1.181-.517.274-.349.419-.868.435-1.558a1.45 1.45 0 0 1-.586.479 2.1 2.1 0 0 1-.845.156c-.654 0-1.16-.207-1.518-.62-.358-.417-.537-1.006-.537-1.768 0-.814.2-1.443.6-1.889.4-.446.967-.669 1.7-.669.888 0 1.533.297 1.933.893.404.593.605 1.551.605 2.876 0 1.26-.245 2.206-.737 2.837-.491.628-1.229.942-2.212.942-.228 0-.464-.024-.708-.073a4.597 4.597 0 0 1-.732-.215Zm1.89-3.52c.309 0 .545-.112.707-.337.166-.228.25-.557.25-.986 0-.427-.084-.752-.25-.977-.162-.228-.398-.342-.708-.342-.312 0-.553.114-.722.342-.166.225-.25.55-.25.977 0 .426.084.753.25.981.17.228.41.342.722.342Zm-6.227 18.356h-.77v-1.269h.77c.359 0 .636-.07.83-.21a.699.699 0 0 0 .299-.601c0-.27-.1-.48-.298-.63-.195-.153-.472-.229-.83-.229-.274 0-.567.034-.879.102a6.673 6.673 0 0 0-.972.298v-1.308a7.59 7.59 0 0 1 .991-.23c.326-.055.639-.083.938-.083.768 0 1.367.168 1.797.503.43.335.644.798.644 1.387 0 .433-.123.788-.37 1.064-.248.274-.601.453-1.06.537.52.091.918.3 1.191.625.274.323.41.747.41 1.275 0 .706-.226 1.245-.678 1.616-.453.371-1.11.557-1.973.557a6.37 6.37 0 0 1-1.089-.093 6.133 6.133 0 0 1-1.02-.269v-1.338c.305.153.636.271.99.352.356.078.728.117 1.119.117.39 0 .7-.089.928-.268a.892.892 0 0 0 .341-.733c0-.374-.113-.662-.341-.864-.228-.205-.55-.308-.967-.308Zm3.946-.376c0-1.263.2-2.208.6-2.837.401-.631 1.003-.947 1.807-.947.808 0 1.412.314 1.812.943.4.628.6 1.575.6 2.841 0 1.263-.2 2.209-.6 2.837-.4.628-1.004.943-1.812.943-.804 0-1.406-.315-1.806-.943-.4-.631-.6-1.577-.6-2.837Zm1.68 1.949c.153.406.395.61.727.61.336 0 .58-.204.733-.61.153-.407.23-1.057.23-1.949 0-.338-.012-.641-.035-.908l-1.704 2.715c.016.052.033.099.049.142Zm.727-4.512c-.332 0-.574.203-.727.61-.153.407-.23 1.058-.23 1.953 0 .277.007.529.02.757l1.68-2.681-.01-.029c-.153-.407-.397-.61-.733-.61Z" opacity=".2"/>
  <path fill="#E0E0E1" d="M140 0h760v35H140z" opacity=".05"/>
  <g opacity=".3">
    <circle cx="888" cy="18" r="1" fill="#D9D9D9"/>
    <circle cx="884" cy="18" r="1" fill="#D9D9D9"/>
    <circle cx="880" cy="18" r="1" fill="#D9D9D9"/>
  </g>
  <rect width="57" height="9" x="302" y="205" fill="#D9D9D9" opacity=".1" rx="4.5"/>
  <rect width="210" height="9" x="367" y="205" fill="#D9D9D9" opacity=".1" rx="4.5"/>
  <rect width="39" height="9" x="274" y="241" fill="#D9D9D9" opacity=".1" rx="4.5"/>
  <rect width="60" height="9" x="186" y="223" fill="#D9D9D9" opacity=".1" rx="4.5"/>
  <rect width="45" height="9" x="155" y="187" fill="#D9D9D9" opacity=".1" rx="4.5"/>
  <rect width="236" height="9" x="211" y="187" fill="#D9D9D9" opacity=".1" rx="4.5"/>
  <rect width="52" height="9" x="234" y="133" fill="#D9D9D9" opacity=".1" rx="4.5"/>
  <rect width="221" height="9" x="44" y="61" fill="#D9D9D9" opacity=".1" rx="4.5"/>
  <rect width="587" height="9" x="125" y="114" fill="#D9D9D9" opacity=".1" rx="4.5"/>
  <rect width="72" height="9" x="44" y="114" fill="#D9D9D9" opacity=".1" rx="4.5"/>
  <rect width="184" height="9" x="44" y="133" fill="#D9D9D9" opacity=".1" rx="4.5"/>
  <rect width="252" height="9" x="44" y="205" fill="#D9D9D9" opacity=".1" rx="4.5"/>
  <rect width="102" height="9" x="44" y="187" fill="#D9D9D9" opacity=".1" rx="4.5"/>
  <rect width="136" height="9" x="44" y="223" fill="#D9D9D9" opacity=".1" rx="4.5"/>
  <rect width="224" height="9" x="44" y="241" fill="#D9D9D9" opacity=".1" rx="4.5"/>
  <rect width="297" height="9" x="96" y="168" fill="#D9D9D9" opacity=".1" rx="4.5"/>
  <rect width="42" height="9" x="44" y="168" fill="#D9D9D9" opacity=".1" rx="4.5"/>
  <rect width="67" height="9" x="44" y="79" fill="#D9D9D9" opacity=".1" rx="4.5"/>
  <rect width="146" height="9" fill="#D9D9D9" opacity=".1" rx="4.5" transform="matrix(1 0 0 -1 44 467)"/>
  <rect width="376" height="9" fill="#D9D9D9" opacity=".1" rx="4.5" transform="matrix(1 0 0 -1 125 414)"/>
  <rect width="72" height="9" fill="#D9D9D9" opacity=".1" rx="4.5" transform="matrix(1 0 0 -1 44 414)"/>
  <rect width="184" height="9" fill="#D9D9D9" opacity=".1" rx="4.5" transform="matrix(1 0 0 -1 44 395)"/>
  <rect width="178" height="9" fill="#D9D9D9" opacity=".1" rx="4.5" transform="matrix(1 0 0 -1 44 323)"/>
  <rect width="90" height="9" fill="#D9D9D9" opacity=".1" rx="4.5" transform="matrix(1 0 0 -1 228 323)"/>
  <rect width="102" height="9" fill="#D9D9D9" opacity=".1" rx="4.5" transform="matrix(1 0 0 -1 44 341)"/>
  <rect width="136" height="9" fill="#D9D9D9" opacity=".1" rx="4.5" transform="matrix(1 0 0 -1 44 305)"/>
  <rect width="32" height="9" fill="#D9D9D9" opacity=".1" rx="4.5" transform="matrix(1 0 0 -1 44 287)"/>
  <rect width="297" height="9" fill="#D9D9D9" opacity=".1" rx="4.5" transform="matrix(1 0 0 -1 96 360)"/>
  <rect width="42" height="9" fill="#D9D9D9" opacity=".1" rx="4.5" transform="matrix(1 0 0 -1 44 360)"/>
  <rect width="192" height="9" fill="#D9D9D9" opacity=".1" rx="4.5" transform="matrix(1 0 0 -1 44 449)"/>
</svg>
