<svg xmlns="http://www.w3.org/2000/svg" width="216" height="294" fill="none" viewBox="0 0 216 294">
  <path fill="#FF184B" d="m185.728 227.311-156.17-.84c-9.04 6.44-14.27 14.07-14.27 22.26 0 22.95 41.09 41.55 91.78 41.55s91.78-18.6 91.78-41.55c0-7.84-4.79-15.17-13.12-21.42Z"/>
  <path fill="#FF184B" d="M175.278 130.111H38.858c-.39 57.06 6.94 103.37 6.94 103.37 0 15.32 27.43 27.74 61.27 27.74s61.27-12.42 61.27-27.74c0 0 7.34-46.3 6.94-103.37Z"/>
  <path fill="#FF184B" d="m167.578 69.81-120.96-.03c-19.21 7.62-31.34 18.8-31.34 31.271 0 22.95 41.09 41.55 91.78 41.55s91.78-18.6 91.78-41.55c0-12.45-12.1-23.62-31.27-31.24h.01Zm-128.22 91.261c-13.76 3.4-24.08 17.6-24.08 34.6 0 19.28 13.28 34.96 29.78 35.36l-5.71-69.96h.01Z"/>
  <path fill="#FF184B" d="M15.888 186.861c-6.8.22-12.13 5.9-11.92 12.7.22 6.8 5.9 12.13 12.7 11.92l-.78-24.62Zm160.65-25.79-5.71 69.96c16.51-.4 29.78-16.08 29.78-35.36 0-17-10.32-31.2-24.08-34.6h.01Z"/>
  <path fill="#FF184B" d="m200.008 186.861-.78 24.62c6.8.22 12.48-5.12 12.7-11.92.22-6.8-5.12-12.48-11.92-12.7ZM125.188 19.11l-35.59-.16c-47.91 11.62-43.8 71.09-43.8 71.09 0 15.321 27.43 27.741 61.27 27.741s61.27-12.42 61.27-27.74c0 0 4.07-58.93-43.15-70.93Z"/>
  <path fill="#FF184B" d="M107.068 28.9c9.648 0 17.47-5.515 17.47-12.32 0-6.803-7.822-12.32-17.47-12.32-9.649 0-17.47 5.517-17.47 12.32 0 6.805 7.821 12.32 17.47 12.32Z"/>
  <path fill="#BF0034" d="M175.278 130.111s-21.89 12.49-68.21 12.49c-46.32 0-68.21-12.49-68.21-12.49v9.57s18.95 17.68 68.21 17.68c49.26 0 68.21-18.64 68.21-18.64v-8.61Z"/>
  <path fill="#BF0034" d="M134.068 261.881c-.22 0-.45-.02-.67-.07a3.5 3.5 0 0 1-2.77-4.1c7.28-37.39 8.3-117.09 8.3-117.89a3.502 3.502 0 0 1 3.5-3.46h.04c1.93.02 3.48 1.61 3.46 3.54-.04 3.29-1.04 81.13-8.43 119.14a3.504 3.504 0 0 1-3.43 2.83v.01Zm-54.01 0c-1.64 0-3.11-1.16-3.43-2.83-7.4-38.01-8.39-115.85-8.43-119.14a3.504 3.504 0 0 1 3.46-3.54h.04c1.91 0 3.48 1.54 3.5 3.46 0 .8 1.03 80.5 8.3 117.89.37 1.9-.87 3.73-2.77 4.1-.23.04-.45.07-.67.07v-.01Z"/>
  <path fill="#BF0034" d="M101.008 247.851c19.534 0 35.37-15.836 35.37-35.37 0-19.535-15.836-35.37-35.37-35.37-19.535 0-35.37 15.835-35.37 35.37 0 19.534 15.835 35.37 35.37 35.37Z"/>
  <path fill="#FF184B" d="M107.068 237.471c19.534 0 35.37-15.836 35.37-35.37 0-19.535-15.836-35.37-35.37-35.37-19.535 0-35.37 15.835-35.37 35.37 0 19.534 15.835 35.37 35.37 35.37Z"/>
  <path fill="#FF184B" d="M107.068 216.311c6.804 0 12.32-5.516 12.32-12.32s-5.516-12.32-12.32-12.32-12.32 5.516-12.32 12.32 5.516 12.32 12.32 12.32Z"/>
  <path fill="#BF0034" d="M39.358 161.071s-12.9 3.85-18.19 14.82c0 0 5.79 5.2 19.63 10.97l-1.44-25.79Z"/>
  <path fill="#FFA2BE" d="M133.448 51.71c-1.54 0-3.09-.59-4.26-1.78-.33-.33-.67-.66-1.01-.97a5.996 5.996 0 0 1-.38-8.48 5.996 5.996 0 0 1 8.48-.38c.5.45.98.92 1.44 1.39 2.33 2.35 2.31 6.15-.04 8.49a5.984 5.984 0 0 1-4.22 1.74l-.01-.01Zm10.74 34.54c-1.01-7.65-3.34-15.35-7.02-22.14-3.6-7.68 7.68-12.71 10.98-4.87 2.82 7.48 4.27 15.35 4.61 23.29.04 1.15.06 2.2.04 3.49-.04 2.38-2 4.27-4.38 4.24-2.27-.03-4.07-1.82-4.23-4.02v.01Z"/>
  <path fill="#BF0034" d="M46.198 93.21c8.92 22.161 51.39 24.151 51.39 24.151s-15.16-6.84-27.32-19.47c-8.24-8.56-14.53-26.12-21.16-23.96-6.63 2.17-2.92 19.28-2.92 19.28h.01Z"/>
  <path fill="#511500" d="M107.068 146.101c-53.43 0-95.29-19.79-95.29-45.05 0-13.49 12.23-26.07 33.55-34.53 1.8-.71 3.83.17 4.55 1.97.71 1.8-.17 3.83-1.97 4.55-18.51 7.34-29.13 17.55-29.13 28.01 0 20.62 40.43 38.05 88.28 38.05s88.28-17.42 88.28-38.05c0-10.45-10.59-20.65-29.06-27.98a3.495 3.495 0 0 1-1.96-4.55c.71-1.8 2.75-2.68 4.55-1.96 21.27 8.45 33.47 21.03 33.47 34.5 0 25.26-41.85 45.05-95.29 45.05l.02-.01Zm0 147.69c-53.43 0-95.29-19.79-95.29-45.05 0-9.1 5.44-17.78 15.74-25.12 1.57-1.12 3.76-.75 4.89.82 1.12 1.58.75 3.76-.82 4.89-5.84 4.16-12.8 10.9-12.8 19.41 0 20.62 40.43 38.05 88.28 38.05s88.28-17.42 88.28-38.05c0-8.11-6.38-14.61-11.72-18.62a3.508 3.508 0 0 1 4.21-5.61c9.5 7.13 14.52 15.51 14.52 24.22 0 25.26-41.85 45.05-95.29 45.05v.01Z"/>
  <path fill="#511500" d="M107.068 121.291c-36.24 0-64.64-13.66-64.77-31.12-.1-1.59-.82-16.18 4.08-32.33 6.87-22.61 21.53-37.23 42.39-42.29 1.88-.46 3.78.7 4.23 2.58.46 1.88-.7 3.77-2.58 4.23-18.52 4.49-31.06 17.05-37.28 37.33-4.76 15.53-3.86 29.98-3.85 30.12v.24c0 11.7 23.21 24.23 57.76 24.23s57.76-12.53 57.76-24.23v-.24c0-.14.91-14.45-3.78-29.9-6.12-20.17-18.48-32.75-36.73-37.39a3.497 3.497 0 0 1-2.53-4.26 3.497 3.497 0 0 1 4.26-2.53c20.56 5.23 35.01 19.87 41.77 42.35 4.83 16.06 4.11 30.52 4.01 32.09-.13 17.46-28.53 31.12-64.77 31.12h.03Zm0 143.43c-36.12 0-64.46-13.57-64.77-30.95-.59-3.86-7.32-49.19-6.94-103.68a3.5 3.5 0 0 1 3.5-3.48h.03c1.93.01 3.49 1.59 3.48 3.53-.39 56.09 6.83 102.33 6.9 102.79.03.18.04.36.04.55 0 11.7 23.21 24.23 57.76 24.23 1.93 0 3.5 1.57 3.5 3.5s-1.57 3.5-3.5 3.5v.01Z"/>
  <path fill="#511500" d="M107.068 264.721c-1.93 0-3.5-1.57-3.5-3.5s1.57-3.5 3.5-3.5c34.55 0 57.76-12.53 57.76-24.23 0-.18.01-.37.04-.55.07-.46 7.29-46.7 6.9-102.79a3.512 3.512 0 0 1 3.48-3.53h.03a3.5 3.5 0 0 1 3.5 3.48c.38 54.49-6.36 99.82-6.95 103.68-.31 17.38-28.65 30.95-64.77 30.95l.01-.01Z"/>
  <path fill="#511500" d="M107.068 240.971c-21.43 0-38.87-17.44-38.87-38.87 0-21.43 17.44-38.87 38.87-38.87 21.43 0 38.87 17.44 38.87 38.87 0 21.43-17.44 38.87-38.87 38.87Zm0-70.74c-17.57 0-31.87 14.29-31.87 31.87 0 17.58 14.29 31.87 31.87 31.87 17.58 0 31.87-14.29 31.87-31.87 0-17.58-14.29-31.87-31.87-31.87Zm-62 64.3h-.09c-18.31-.44-33.2-17.88-33.2-38.86 0-18.19 11.25-34.17 26.74-38a3.5 3.5 0 0 1 4.24 2.56 3.5 3.5 0 0 1-2.56 4.24c-12.41 3.06-21.41 16.18-21.41 31.2 0 17.22 11.83 31.51 26.36 31.86 1.93.05 3.46 1.65 3.42 3.59a3.5 3.5 0 0 1-3.5 3.42v-.01Z"/>
  <path fill="#511500" d="M107.068 219.811c-8.72 0-15.82-7.1-15.82-15.82s7.1-15.82 15.82-15.82 15.82 7.1 15.82 15.82-7.1 15.82-15.82 15.82Zm0-24.63c-4.86 0-8.81 3.95-8.81 8.81s3.95 8.81 8.81 8.81 8.81-3.95 8.81-8.81-3.95-8.81-8.81-8.81Zm0-162.781c-11.76 0-20.97-6.95-20.97-15.82 0-8.87 9.21-15.82 20.97-15.82 11.76 0 20.97 6.95 20.97 15.82 0 8.87-9.21 15.82-20.97 15.82Zm0-24.63c-7.57 0-13.97 4.04-13.97 8.81 0 4.77 6.4 8.81 13.97 8.81s13.97-4.04 13.97-8.81c0-4.77-6.4-8.81-13.97-8.81Zm-90.8 207.221c-8.49 0-15.53-6.77-15.8-15.32-.28-8.72 6.59-16.04 15.31-16.32a3.512 3.512 0 0 1 3.61 3.39 3.506 3.506 0 0 1-3.39 3.61c-4.86.15-8.68 4.23-8.53 9.09.15 4.86 4.2 8.71 9.09 8.53 1.92-.05 3.55 1.46 3.61 3.39a3.506 3.506 0 0 1-3.39 3.61h-.51v.02Zm154.56 19.54a3.507 3.507 0 0 1-.08-7.01c14.54-.35 26.36-14.64 26.36-31.86 0-15.01-9-28.13-21.41-31.2a3.493 3.493 0 0 1-2.56-4.24 3.5 3.5 0 0 1 4.24-2.56c15.49 3.82 26.74 19.8 26.74 38 0 20.99-14.89 38.42-33.2 38.86h-.09v.01Z"/>
  <path fill="#511500" d="M199.628 214.991h-.52a3.506 3.506 0 0 1-3.39-3.61c.06-1.94 1.7-3.44 3.61-3.39 2.37.09 4.59-.77 6.31-2.38a8.758 8.758 0 0 0 2.78-6.15c.16-4.86-3.67-8.93-8.53-9.09a3.506 3.506 0 0 1-3.39-3.61c.06-1.93 1.7-3.44 3.61-3.39 8.72.28 15.58 7.6 15.31 16.32-.13 4.22-1.91 8.14-4.99 11.03a15.731 15.731 0 0 1-10.81 4.28l.01-.01Z"/>
</svg>
