<svg xmlns="http://www.w3.org/2000/svg" width="242" height="116" fill="none" viewBox="0 0 242 116">
  <path fill="#511500" d="M237.988 22.31c-1.09 0-2.17-.51-2.85-1.47a188.62 188.62 0 0 0-4.09-5.51c-4.45-5.75-11.96-8.49-19.11-6.99-19.62 4.11-36.72 9.77-36.89 9.83a3.5 3.5 0 0 1-4.43-2.22c-.61-1.83.38-3.82 2.22-4.43.17-.06 17.64-5.84 37.67-10.04 9.76-2.04 20 1.7 26.08 9.55 1.4 1.81 2.84 3.74 4.26 5.73 1.12 1.57.76 3.76-.82 4.88-.62.44-1.33.65-2.03.65l-.01.02Z"/>
  <path fill="#38BBF6" d="M109.938 21.7c9.9-8.14 26.32-17.69 48.65-17.44 8.67.09 16.46 5.14 20.15 12.98 7.03 14.92 12.79 40.54-19.37 55.57-32.76 15.31-48.87-8.3-55.87-25.21-3.78-9.13-1.2-19.62 6.43-25.89l.01-.01Zm-50.81 16.89c-12.81.4-31.45 4.03-48.1 18.93-6.46 5.78-9 14.71-6.61 23.04 4.54 15.85 17.08 38.921 51.18 29.041 34.73-10.07 31.3-38.43 25.42-55.77-3.17-9.36-12.02-15.55-21.9-15.24h.01Z"/>
  <path fill="#84DDFD" d="M127.878 14.69s4.2 13.07 13.99 15.31c9.78 2.24 16.22-6.15 26.61 7.71 10.4 13.85 15.52 5.52 15.52 5.52s.85-32.48-20.61-38.67c-21.46-6.19-35.51 10.14-35.51 10.14v-.01Zm-98.65 35.84s4.2 13.07 13.99 15.31c9.78 2.24 16.22-6.15 26.61 7.71 10.4 13.85 14.59 6.15 14.59 6.15s2.71-33.45-18.75-39.64c-21.46-6.19-36.45 10.48-36.45 10.48l.01-.01Z"/>
  <path fill="#511500" d="M139.548 81.24c-4.43 0-8.65-.78-12.65-2.33-14-5.44-22.21-19.31-26.63-29.98-4.4-10.63-1.41-22.66 7.44-29.94 10.17-8.36 27.06-18.25 50.04-18.25h.87c10.06.11 18.97 5.85 23.28 14.99 4.31 9.14 8.44 22.8 3.69 35.95-3.67 10.15-11.99 18.32-24.75 24.28-7.52 3.51-14.64 5.27-21.31 5.27l.02.01Zm18.22-73.49c-20.92 0-36.32 9.03-45.6 16.65-6.46 5.3-8.63 14.09-5.42 21.85 3.89 9.41 10.99 21.59 22.69 26.13 8.17 3.17 17.74 2.25 28.46-2.76 11.01-5.14 18.12-11.98 21.13-20.32 3.93-10.89.3-22.64-3.44-30.59-3.15-6.69-9.67-10.89-17.02-10.97h-.79l-.01.01ZM40.258 115.481c-6.78 0-12.9-1.49-18.3-4.48-12.24-6.76-18.12-19.76-20.9-29.48-2.78-9.71.15-19.9 7.64-26.61 17.46-15.62 37-19.4 50.32-19.82 11.45-.36 21.63 6.72 25.32 17.62 3.71 10.94 6.67 26.78-.28 40.1-4.97 9.53-14.22 16.31-27.48 20.16-5.79 1.68-11.24 2.52-16.32 2.52v-.01Zm18.98-73.39c-12.16.38-29.98 3.82-45.87 18.04-5.48 4.9-7.61 12.36-5.58 19.47 2.42 8.44 7.43 19.68 17.56 25.28 7.76 4.29 17.61 4.75 29.28 1.37 11.36-3.29 19.17-8.9 23.23-16.67 5.81-11.13 3.13-24.96-.14-34.61-2.7-7.96-10.11-13.1-18.47-12.87l-.01-.01Z"/>
  <path fill="#511500" d="M78.498 52.17c-.59 0-1.19-.15-1.74-.47a3.485 3.485 0 0 1-1.3-4.75c2.84-5.02 12.01-13.51 26.35-9.74 1.87.49 2.98 2.41 2.49 4.28a3.497 3.497 0 0 1-4.28 2.49c-12.6-3.32-18.25 6.04-18.48 6.44a3.505 3.505 0 0 1-3.04 1.74v.01Z"/>
  <path fill="#fff" d="M168.135 21.304a6.82 6.82 0 1 0-13.502-1.929 6.82 6.82 0 1 0 13.502 1.93ZM25.132 74.115a6.82 6.82 0 1 0-13.503-1.929 6.82 6.82 0 0 0 13.503 1.93Z"/>
</svg>
