<svg xmlns="http://www.w3.org/2000/svg" width="399" height="583" fill="none" viewBox="0 0 399 583">
  <ellipse cx="178" cy="572" fill="#DADDE0" rx="103" ry="11"/>
  <path fill="#fff" d="m79.248 504.221 75.12 6.84-.28 15.56s21.19 12.87 16.8 27.59c-4.39 14.72-26.18 17.5-43.55 16.27-17.37-1.23-33.46-13.55-33.46-13.55l-14.63-52.72v.01Zm196.87 0-75.12 6.84.28 15.56s-21.19 12.87-16.8 27.59c4.39 14.72 26.18 17.5 43.55 16.27 17.37-1.23 33.46-13.55 33.46-13.55l14.63-52.72v.01Z"/>
  <path fill="#F70" d="m276.407 410.671-196.27-4.88s-11.61 60.82-1.17 96.67c0 0 35.221 12.3 75.411 8.6l3.66-22.54h39.3l3.66 22.54s40.089 4.81 75.409-8.6c0 0 9.32-62.07 0-91.79Z"/>
  <path fill="#fff" d="M179.838 420.781h-56.72s17.95 25.44 56.72 25.44c38.77 0 56.72-25.44 56.72-25.44h-56.72Z"/>
  <path fill="#38BDF8" d="M321.817 312.311c-26.11-18.53-46.33-27.83-46.33-27.83l-161.35-52.82s-11.26 21.07-43.05 25.28l-11.45 11.17s5.3 15.72 31.05 38.68c0 0-10.97 34.99-16.98 93.62 0 0 21.38 26.36 106.13 26.36s106.13-22.36 106.13-22.36c-1.85-19.41-4.88-35.28-8.04-47.71l3.89-1.87c37.47-16 40-42.53 40-42.53v.01Z"/>
  <path fill="#F70" d="M108.178 119.451c2.12 8.03 7.3 15.58 14.59 22.61h.02c-5.69 7.91-10.2 16.66-13.22 26.05-16.61 51.73 18.15 103.3 75.54 121.72 57.39 18.42 115.67-3.28 132.28-55.01 3.02-9.39 4.44-19.13 4.42-28.88v.02c10.03-1.47 18.63-4.6 25.03-9.89 44.1-36.47 48.29-92.3 48.29-92.3-61.52.16-104.51 26.96-104.56 26.99-2.89-2.99-5.96-5.83-9.21-8.51 0 0 12.89-15.75 2.39-22.6-10.51-6.86-39.65 2.5-39.65 2.5s17.86-21.99 3.89-27.75c-17.07-7.04-47.64 14.14-55.58 20l-2.77-.24c-6.43-12.95-26.8-48.92-67-77.86 0 0-29.09 47.84-14.46 103.16v-.01Zm182.08 11.79.32-.48.4.96-.72-.48Z"/>
  <path fill="#fff" d="m290.968 131.721-.72-.48.32-.49.4.97Z"/>
  <path fill="#fff" d="m290.248 131.241.32-.48.4.96-.72-.48Zm-105.14 158.59c-52.37-16.81-85.89-61.23-78.73-108.18 21.64-3.22 47.22-1.52 62.43.06 7.92.82 15.58-3.19 19.37-10.19 28.49-52.71 48.4-42.02 48.4-42.02s22.41 2.89 14.9 62.34c-1 7.9 2.9 15.62 9.82 19.56 13.29 7.58 35.08 21.08 50.8 36.29-21.51 42.34-74.62 58.95-126.99 42.14Z"/>
  <path fill="#A81B46" d="m221.858 240.811-16.92-12.76-21.18.53s-11.24 22.63 11.41 29.9c22.66 7.27 26.69-17.67 26.69-17.67Z"/>
  <path fill="#fff" d="M320.508 189.911s8.75-8.25 8.38-14.27c-.38-6.28-14-6.59-14-6.59s9.4-9.22 7.43-16.4c-1.57-5.72-19.85-6.89-19.85-6.89s30.36-22.26 73.28-22.56c0 0-18.38 60.34-55.25 66.71h.01Zm-187.33-60.14s-2.31-11.8 1.49-16.48c3.96-4.88 15.22 2.79 15.22 2.79s-2.28-12.96 3.5-17.66c4.61-3.74 20.15 5.95 20.15 5.95s-11.73-35.78-46.46-61c0 0-20.18 59.77 6.09 86.4h.01Z"/>
  <path fill="#DCDFE2" d="M312.098 247.691c-21.51 42.34-74.62 58.95-126.99 42.14-52.37-16.81-85.89-61.23-78.73-108.18 0 0 3.45 67.06 83.66 92.81s122.05-26.77 122.05-26.77h.01Z"/>
  <path fill="#FFAA2A" d="M240.017 85.17c-10.74-6.41-47.61 9.21-47.61 9.21 7.95-5.85 38.52-27.04 55.58-20 13.98 5.77-3.89 27.751-3.89 27.751s6.66-10.56-4.08-16.97v.01Zm4.091 16.971s29.14-9.35 39.65-2.5c10.5 6.85-2.36 22.57-2.39 22.6 0 0 3.02-8.77-4.82-14.98-7.84-6.21-32.43-5.13-32.43-5.13"/>
  <path fill="#FF4173" d="M195.178 258.481c8.13 2.61 13.85 1.06 17.86-1.99-.76-6.82-5.4-12.9-12.36-15.14-6.96-2.24-14.27 0-18.86 5.11 1.49 4.81 5.24 9.4 13.37 12.01l-.01.01Z"/>
  <path fill="#DADDE0" d="M263.717 552.521s-47.99 19.62-79.42-1.4c0 0-4.58 16.77 24.15 20.14 28.73 3.37 48.95-9.26 55.26-18.74h.01Zm-172.06 0s47.99 19.62 79.42-1.4c0 0 4.58 16.77-24.15 20.14-28.74 3.37-48.95-9.26-55.26-18.74h-.01Z"/>
  <path fill="#F75A00" d="m216.018 480.311-18.68 8.21 2.75 13s12.92-5.79 15.93-21.21Zm-76.67 0 18.68 8.21-2.75 13s-12.92-5.79-15.93-21.21Z"/>
  <path fill="#F70" d="M345.367 346.811c-14.31-16.37-26.89-24.01-26.89-24.01l-15.72 19.59-24.83 14.32 4.52 21.32c3.18 4.04 6.23 8.1 9.11 12.07 34.84-11.23 48.53-31.11 53.8-43.3l.01.01Z"/>
  <path fill="#fff" d="M350.467 415.431c.26-.17.51-.34.76-.51 15.34-10.48 19.53-31.26 9.73-47.04a162.586 162.586 0 0 0-15.59-21.08c-5.27 12.19-18.95 32.07-53.8 43.3 3.99 5.49 7.66 10.8 10.88 15.63 10.6 15.88 32.12 20.27 48.02 9.69v.01Z"/>
  <path fill="#F75A00" d="m309.037 336.841-31.099 19.87 5.679 21.97s22.32-17.53 25.42-41.84Z"/>
  <path fill="#0095FF" d="m61.047 242.481 12.3 28.2s-11.58 1.84-17.34-9.95 5.04-18.25 5.04-18.25Z"/>
  <path fill="#fff" d="M218.968 323.241s-3.96 10.6-12.02 10.08c-8.06-.52-15.43-10.91-29.55-6.6-14.12 4.31-17.01 15.08-16.25 21.67 0 0 3.65-8.13 11.46-9.28 6.82-1.01 14.37 10.59 31.66 6.1 16.35-4.24 14.69-21.98 14.69-21.98l.01.01Zm-12.34 30.05s-3.96 10.6-12.02 10.08c-8.06-.53-15.43-10.91-29.55-6.6-14.12 4.31-17.01 15.08-16.25 21.67 0 0 3.65-8.13 11.46-9.28 6.82-1.01 14.37 10.59 31.66 6.1 16.35-4.24 14.69-21.98 14.69-21.98l.01.01Z"/>
  <path fill="#FFAA2A" d="M307.417 34.451c4.851-13.392 2.477-26.532-5.302-29.35-7.779-2.817-18.017 5.755-22.867 19.148-4.851 13.392-2.477 26.532 5.302 29.35 7.779 2.817 18.017-5.756 22.867-19.148Zm-60.994 5.281c5.828-.6 9.716-9.224 8.682-19.261-1.034-10.037-6.597-17.687-12.426-17.087-5.829.6-9.716 9.224-8.682 19.26 1.033 10.038 6.597 17.688 12.426 17.088Zm92.689 35.184c8.966-4.628 14.056-12.6 11.368-17.808-2.687-5.207-12.135-5.676-21.101-1.048-8.966 4.627-14.056 12.6-11.369 17.807 2.688 5.207 12.135 5.677 21.102 1.05Z"/>
  <path fill="#511500" d="M273.718 206.491c-.46 0-.92-.07-1.38-.22a4.496 4.496 0 0 1-2.91-5.66c2.2-6.86-.11-14-5.05-15.59-2.24-.72-4.79-.23-7.18 1.37-2.72 1.83-4.85 4.8-6 8.36a4.496 4.496 0 0 1-5.66 2.91 4.496 4.496 0 0 1-2.91-5.66c1.76-5.49 5.15-10.13 9.55-13.09 4.72-3.17 10.03-4.05 14.95-2.47 9.75 3.13 14.62 15.2 10.86 26.91a4.5 4.5 0 0 1-4.28 3.13l.01.01Zm-81.01-26.01c-.46 0-.92-.07-1.38-.22a4.496 4.496 0 0 1-2.91-5.66c2.2-6.86-.11-14-5.05-15.59-2.24-.72-4.79-.23-7.18 1.37-2.72 1.83-4.85 4.8-6 8.36a4.496 4.496 0 0 1-5.66 2.91 4.496 4.496 0 0 1-2.91-5.66c1.76-5.49 5.15-10.13 9.55-13.09 4.73-3.17 10.03-4.05 14.95-2.47 9.75 3.13 14.62 15.2 10.87 26.91a4.5 4.5 0 0 1-4.28 3.13v.01Zm183.06-55.27c-25.26.81-50.47 8.96-71.23 23.37l-1.85-6.32c6.73.72 20.71 1.81 23.02 9.51 1.73 7.68-3.49 14.52-8.37 19.77l-2.37-6c21.67 1.02 21.58 13.59 7.93 26.91-3.4 3.11-8.1-1.73-4.86-5.03 1.76-1.71 3.6-3.82 4.99-5.88 1.06-1.66 2.71-4.23 2.26-5.99-.66-.91-1.83-1.35-3.2-1.83-2.19-.7-4.92-1.08-7.31-1.18-3.01-.06-4.49-3.94-2.34-6 2.82-2.98 5.85-6.86 6.58-10.91.19-1.07-.09-2.35-.13-2.11-1.82-1.67-4.69-2.28-7.18-2.91-3.15-.72-6.56-1.13-9.78-1.41-3.13-.34-4.13-4.56-1.54-6.28 5.63-3.78 11.52-6.78 17.66-9.54 12.09-5.36 24.89-9.08 37.97-10.93 6.53-.9 13.13-1.33 19.71-1.27 1.11 0 2 .92 1.99 2.03 0 1.09-.88 1.97-1.96 1.99l.01.01Z"/>
  <path fill="#511500" d="M321.818 209.461a3.499 3.499 0 0 1-.51-6.96c9.9-1.45 17.74-4.52 23.3-9.12 35.91-29.7 44.69-73.06 46.57-86.06-57.67 1.26-98.35 26.15-98.76 26.41a3.5 3.5 0 0 1-4.82-1.12 3.5 3.5 0 0 1 1.12-4.82c1.79-1.12 44.56-27.35 106.4-27.52.97 0 1.9.4 2.56 1.12.66.71 1 1.67.93 2.65-.18 2.34-4.81 57.74-49.55 94.74-6.56 5.43-15.56 9.01-26.75 10.66-.17.03-.34.04-.51.04l.02-.02Z"/>
  <path fill="#511500" d="M225.457 299.811c-13.6 0-27.6-2.21-41.42-6.65a3.497 3.497 0 1 1 2.14-6.66c57.33 18.41 112.31-4.27 127.88-52.74 2.84-8.86 4.28-18.21 4.26-27.79 0-1.93 1.56-3.5 3.5-3.51 1.93 0 3.5 1.56 3.5 3.49.02 10.31-1.53 20.38-4.6 29.94-8.25 25.7-27.03 45.58-52.87 55.99-13.12 5.28-27.51 7.93-42.39 7.93ZM128.268 41.75c21.61 15.27 38.83 36.91 48.6 61.531 1.13 2.92-2.22 5.75-4.89 4.22-2.78-1.65-5.8-3.3-8.78-4.56-2.39-.93-5.08-2.11-7.53-1.81-3.32 2.76-2.9 10.16-2.33 14.34.56 2.95-2.94 5.2-5.39 3.52-2.79-1.75-6.36-3.76-9.55-3.82-.58.06-.73.04-1.04.38-2.18 3.76-1.33 9.43-.72 13.63.71 4.55-5.91 5.8-6.88 1.26-2.64-14.31.88-28.32 18.08-19.6 1.4.71 2.64 1.42 4.03 2.33l-5.42 3.5c-.17-1.04-.26-1.89-.34-2.82-.95-9.65 1.92-22.9 14.54-19.19 5.37 1.46 10.04 3.94 14.76 6.74l-5.18 4.06c-4.09-11.88-10.38-23.06-17.74-33.24-3.74-5.14-7.85-10-12.28-14.58-4.45-4.55-9.23-8.79-14.31-12.65-2.01-1.57.18-4.71 2.37-3.24Zm153.09 84.001c-.78 0-1.57-.26-2.22-.79-1.5-1.22-1.71-3.43-.49-4.93 1.82-2.23 6.39-9.09 5.64-13.86-.24-1.52-1.02-2.66-2.46-3.6-6.63-4.32-26.01-.52-36.67 2.9a3.5 3.5 0 0 1-3.96-1.36c-.87-1.28-.8-2.98.17-4.18 3.87-4.78 9.54-14.23 8.27-19.24-.24-.95-.8-2.16-3-3.07-14.62-6.03-43.96 13.1-54.03 20.98a3.5 3.5 0 0 1-4.91-.6 3.5 3.5 0 0 1 .6-4.91c1.61-1.26 39.64-30.75 61.01-21.94 3.75 1.55 6.21 4.25 7.12 7.82 1.4 5.52-1.28 12.18-4.17 17.31 10.05-2.35 25.52-4.72 33.4.43 3.09 2.02 5.01 4.93 5.55 8.4 1.34 8.69-6.27 18.29-7.15 19.35-.69.84-1.7 1.28-2.71 1.28l.01.01Z"/>
  <path fill="#511500" d="M290.578 134.251a3.5 3.5 0 0 1-2.52-1.07c-2.81-2.9-5.81-5.68-8.92-8.24a3.505 3.505 0 0 1-.48-4.93 3.515 3.515 0 0 1 4.93-.48c3.31 2.73 6.51 5.68 9.5 8.77a3.504 3.504 0 0 1-.08 4.95c-.68.66-1.56.98-2.43.98v.02Zm-167.81 11.31c-.88 0-1.75-.33-2.43-.98-8.14-7.85-13.37-16-15.55-24.23-14.84-56.12 13.64-103.87 14.86-105.87.51-.83 1.34-1.42 2.29-1.61.96-.19 1.95.02 2.74.59 42.81 30.82 63.59 69.7 68.95 80.89.83 1.74.1 3.83-1.65 4.67-1.74.83-3.83.1-4.67-1.65-5.03-10.52-24.22-46.44-63.52-75.88-6.03 11.67-24.12 52.11-12.23 97.08 1.85 6.98 6.43 14.04 13.64 20.98a3.5 3.5 0 0 1-2.43 6.02v-.01Zm105.948 67.154c2.899-7.394-2.241-16.325-11.481-19.948-9.239-3.623-19.08-.566-21.979 6.828-2.899 7.394 2.241 16.325 11.481 19.948 9.239 3.623 19.08.566 21.979-6.828Z"/>
  <path fill="#7A2106" d="M217.165 204.105c.83-2.588-1.604-5.683-5.437-6.913-3.834-1.231-7.615-.132-8.445 2.455-.831 2.588 1.603 5.683 5.437 6.913 3.833 1.231 7.614.132 8.445-2.455Z"/>
  <path fill="#511500" d="M225.527 244.691c-1.99 0-4.17-.34-6.54-1.13-14.43-4.81-15.6-20.52-15.64-21.19a3.509 3.509 0 0 1 3.27-3.72 3.494 3.494 0 0 1 3.72 3.26c.04.52.98 11.71 10.87 15.01 8.99 3 12.68-3.96 13.07-4.76a3.52 3.52 0 0 1 4.661-1.65 3.48 3.48 0 0 1 1.679 4.62c-1.75 3.77-6.84 9.55-15.08 9.55l-.01.01Z"/>
  <path fill="#511500" d="M190.948 233.481c-2.03 0-4.19-.3-6.46-1-12.21-3.77-13.63-14.36-12.67-19.43a3.5 3.5 0 0 1 4.09-2.79c1.89.36 3.14 2.17 2.8 4.06-.15.9-1.2 8.68 7.85 11.47 8.76 2.7 15.51-3.65 17.17-5.42l2-6.22a3.497 3.497 0 1 1 6.66 2.14l-2.22 6.92c-.13.42-.34.81-.62 1.15-.36.44-7.61 9.12-18.6 9.12Zm12.02 29.84c-2.78 0-5.74-.5-8.87-1.5a3.497 3.497 0 1 1 2.14-6.66c5.43 1.75 10.01 1.51 13.61-.7 6.75-4.14 8.53-14.1 8.55-14.2.31-1.91 2.1-3.21 4.01-2.9 1.91.31 3.21 2.1 2.9 4.01-.09.54-2.23 13.18-11.8 19.05-3.15 1.93-6.67 2.9-10.54 2.9Z"/>
  <path fill="#511500" d="M195.178 261.981c-.35 0-.71-.05-1.07-.17-7.46-2.4-12.5-6.58-14.97-12.43-4.37-10.34 1.25-21.88 1.49-22.36a3.5 3.5 0 0 1 4.69-1.58c1.73.86 2.44 2.95 1.58 4.68-.04.09-4.44 9.21-1.3 16.57 1.65 3.87 5.23 6.72 10.65 8.46 1.84.59 2.85 2.56 2.26 4.4a3.508 3.508 0 0 1-3.33 2.43Zm-10.07 31.35c-.35 0-.71-.05-1.07-.17-28.92-9.29-52.86-26.98-67.4-49.83-14.96-23.5-18.65-50.6-10.4-76.3 3.07-9.56 7.68-18.66 13.7-27.04a3.493 3.493 0 0 1 4.88-.8 3.493 3.493 0 0 1 .8 4.88c-5.59 7.79-9.87 16.23-12.72 25.1-7.6 23.68-4.18 48.69 9.64 70.4 13.67 21.47 36.27 38.13 63.64 46.92 1.84.59 2.85 2.56 2.26 4.4a3.508 3.508 0 0 1-3.33 2.43v.01Zm-94.42 16.96c-.83 0-1.66-.29-2.33-.89-26.04-23.22-35.19-44.35-35.57-45.23-.75-1.78.08-3.83 1.85-4.59 1.78-.75 3.83.07 4.59 1.85.08.2 9 20.65 33.79 42.74 1.44 1.29 1.57 3.5.28 4.94a3.47 3.47 0 0 1-2.61 1.17v.01Zm188.62 49.05c-1.36 0-2.65-.8-3.22-2.13a3.5 3.5 0 0 1 1.84-4.59c29.42-12.56 37.86-32.41 39.89-38.85-24.59-17.21-43.59-26.02-43.79-26.11a3.504 3.504 0 0 1-1.72-4.64 3.493 3.493 0 0 1 4.64-1.72c.84.39 20.82 9.65 46.9 28.15a3.52 3.52 0 0 1 1.42 3.49c-.22 1.2-5.83 29.56-44.59 46.11-.45.19-.91.28-1.37.28v.01Z"/>
  <path fill="#511500" d="M179.838 430.281c-1.93 0-3.5-1.57-3.5-3.5s1.57-3.5 3.5-3.5c71.41 0 97.06-16.17 102.47-20.33-5.23-52.21-19.24-78.2-19.38-78.46a3.501 3.501 0 0 1 6.13-3.38c.62 1.12 15.17 27.95 20.4 82.99a3.46 3.46 0 0 1-.96 2.75c-.92.96-23.39 23.44-108.66 23.44v-.01Z"/>
  <path fill="#511500" d="M179.837 430.281c-85.44 0-107.93-26.52-108.85-27.65-.58-.72-.86-1.64-.76-2.56 5.98-58.31 17.01-93.96 17.12-94.32a3.503 3.503 0 0 1 4.39-2.29c1.84.58 2.87 2.54 2.29 4.39-.11.34-10.73 34.74-16.67 91.31 4.89 4.55 30.16 24.13 102.48 24.13 1.93 0 3.5 1.57 3.5 3.5s-1.57 3.5-3.5 3.5v-.01Z"/>
  <path fill="#511500" d="M139.348 574.761c-36.76 0-47.88-15.15-48.33-15.8a3.64 3.64 0 0 1-.38-.7c-30.37-74.65-14.5-152.42-14.34-153.2.4-1.89 2.26-3.1 4.15-2.7 1.89.4 3.1 2.25 2.7 4.15-.16.75-15.5 76.18 13.79 148.65 1.51 1.73 12.21 12.6 42.42 12.6 13.72 0 22.88-3.25 26.48-9.39 3.16-5.39 1.49-12.29-.9-16.56-5.12-9.14-11.79-11.8-12.08-11.91-1.28-.5-2.18-1.71-2.26-3.08-.05-.83-1.08-20.58 4.07-39.23a3.49 3.49 0 0 1 4.3-2.44 3.49 3.49 0 0 1 2.44 4.3c-3.92 14.23-4.01 29.55-3.89 34.95 3.13 1.73 8.94 5.81 13.52 13.99 3.45 6.17 5.49 15.58.83 23.52-5 8.52-15.94 12.85-32.52 12.85Z"/>
  <path fill="#511500" d="M177.688 492.021c-24.85 0-38.61-8.38-39.18-8.74a3.5 3.5 0 0 1 3.69-5.95c.16.1 12.83 7.69 35.5 7.69 1.93 0 3.5 1.57 3.5 3.5s-1.57 3.5-3.5 3.5h-.01Zm-42.271 57.64c3.74 6.25 5.89 13.18 7.39 20.25.81 4.55-5.76 5.95-6.86 1.44-.26-1.71-.5-3.42-.85-5.11-.96-4.71-2.34-9.53-4.52-13.81-1.59-3.18 2.89-5.74 4.84-2.78v.01Zm20.551-5.94c3.7 4.8 6.37 10.2 8.02 16.02.57 1.93.93 3.93 1.23 5.94.29 1.91-1.03 3.7-2.94 3.98-2.04.32-3.92-1.23-4.02-3.29-.5-6.79-2.91-13.56-6.68-19.23-2.14-2.95 2.05-6.21 4.39-3.43v.01Zm60.05 31.04c-16.58 0-27.52-4.32-32.52-12.85-4.65-7.94-2.62-17.35.83-23.52 4.58-8.17 10.39-12.25 13.52-13.98.11-5.41.02-20.76-3.89-34.95-.51-1.86.58-3.79 2.44-4.3 1.86-.51 3.79.58 4.3 2.44 5.15 18.66 4.11 38.4 4.07 39.23a3.5 3.5 0 0 1-2.28 3.09c-.26.1-6.93 2.76-12.05 11.9-2.39 4.27-4.06 11.17-.9 16.56 3.6 6.14 12.76 9.39 26.48 9.39 30.12 0 40.84-10.8 42.42-12.61 24.92-61.68 17.6-125.13 14.75-143.15-.3-1.91 1-3.7 2.91-4 1.91-.31 3.7 1 4 2.91 2.92 18.51 10.46 83.85-15.37 147.35-.1.25-.23.48-.38.7-.46.64-11.57 15.8-48.33 15.8v-.01Z"/>
  <path fill="#511500" d="M177.688 492.021c-1.93 0-3.5-1.57-3.5-3.5s1.57-3.5 3.5-3.5c22.87 0 35.36-7.6 35.49-7.68a3.5 3.5 0 0 1 4.82 1.12 3.5 3.5 0 0 1-1.121 4.82c-.57.36-14.33 8.74-39.18 8.74h-.009Zm47.03 60.57c-2.86 5.73-4.37 12.19-5.25 18.53-.78 4.56-7.44 3.64-6.94-.97 1.25-6.21 3.139-12.32 6.019-17.99.43-.83.82-1.57 1.41-2.5a2.801 2.801 0 0 1 3.851-.89c1.31.81 1.69 2.52.91 3.82Zm-20.92-5.44c-2.83 4.24-4.9 9.2-5.96 14.19-.39 1.72-.57 3.45-.73 5.17-.58 4.73-7.5 3.91-6.95-.83.81-5.98 2.87-11.72 5.88-16.92 1.05-1.8 2.05-3.35 3.38-5.04.96-1.2 2.71-1.4 3.91-.45 1.2.95 1.39 2.68.48 3.87l-.01.01Zm15.2-31.38c-6.05 0-12.26-.37-18.48-1.24a3.498 3.498 0 1 1 .97-6.93c36.15 5.09 73.34-8.29 73.72-8.42a3.51 3.51 0 0 1 4.49 2.08c.66 1.82-.27 3.82-2.08 4.49-1.32.48-27.81 10.03-58.62 10.03v-.01Zm-82.621 0c-30.81 0-57.29-9.54-58.62-10.03a3.498 3.498 0 0 1-2.08-4.49 3.498 3.498 0 0 1 4.49-2.08c.37.14 37.58 13.51 73.72 8.42a3.496 3.496 0 0 1 3.95 2.98 3.496 3.496 0 0 1-2.98 3.95c-6.22.88-12.44 1.24-18.48 1.24v.01Zm195.03-91.08c-12.35 0-24.5-5.98-31.87-17.01-6.64-9.95-13.31-19.19-19.83-27.48a3.498 3.498 0 0 1 5.5-4.32c6.63 8.43 13.42 17.82 20.15 27.92 9.54 14.29 28.91 18.21 43.17 8.72.24-.16.48-.32.72-.49 13.78-9.42 17.61-28 8.73-42.3-18.52-29.83-41.1-43.81-41.33-43.94a3.507 3.507 0 0 1-1.17-4.81c1-1.65 3.15-2.18 4.8-1.18.98.59 24.18 14.89 43.64 46.23 10.86 17.5 6.15 40.24-10.73 51.77-.26.18-.53.36-.8.54a37.861 37.861 0 0 1-21 6.35h.02Z"/>
  <path fill="#511500" d="M292.148 394.401c-1.51 0-2.91-.99-3.36-2.51-.54-1.85.52-3.8 2.37-4.34 20.26-5.95 33.14-16.9 40.37-25.05 7.87-8.86 10.98-16.43 11.01-16.51a3.5 3.5 0 0 1 6.5 2.6c-.54 1.35-13.71 33.27-55.91 45.67-.33.1-.66.14-.99.14h.01Zm40.99 8.41c3.54 4.7 6.77 9.22 9.49 14.53 1.97 4.18-4.08 7.22-6.26 3.14-2.07-4.88-5.05-9.79-7.99-14.28-1.99-3.15 2.42-6.29 4.75-3.39h.01Zm17.239-12.84c4.33 3.97 8.361 7.91 12.061 12.54 2.77 3.7-2.54 7.9-5.5 4.35-2.94-4.62-6.56-9.13-10.21-13.28-2.09-2.46 1.229-5.71 3.649-3.61Z"/>
  <path fill="#F70" d="M51.648 157.671c-1.86 24.77-.23 71.28 23.19 109.38 32.67.9 39.31-35.38 39.31-35.38s-5.05-29.07 5.2-64.72c-12.94 2.47-40.26 4.99-67.7-9.28Z"/>
  <path fill="#fff" d="M119.337 166.941c1.64-5.72 3.68-11.61 6.2-17.58 8.39-19.91-2.48-42.76-23.24-48.76l-1.05-.3c-19.41-5.36-39.4 6.51-44.42 26.02a180.52 180.52 0 0 0-5.18 31.35c27.44 14.27 54.76 11.74 67.7 9.28l-.01-.01Z"/>
  <path fill="#FFA2BE" d="M99.786 146.876c1.506-5.216-1.828-10.76-7.447-12.383-5.619-1.623-11.395 1.29-12.902 6.506-1.506 5.215 1.828 10.759 7.447 12.382 5.619 1.623 11.395-1.29 12.902-6.505Zm17.75-10.503a7.04 7.04 0 1 0-13.77-2.937 7.04 7.04 0 0 0 13.77 2.937Zm-16.027-13.487a7.04 7.04 0 1 0-13.77-2.937 7.04 7.04 0 0 0 13.77 2.937Zm-19.019 6.447a7.041 7.041 0 1 0-13.774-2.936 7.041 7.041 0 0 0 13.773 2.936Z"/>
  <path fill="#F75A00" d="M113.517 226.621s-17.88 21.68-46.89 24.9c0 0 5.8 11.33 9.23 18.74 0 0 34.6-5.09 37.67-43.63l-.01-.01Z"/>
  <path fill="#511500" d="M75.858 273.751c-1.24 0-2.44-.66-3.07-1.82-26.83-49.09-33.15-97.02-19.33-146.55 5.99-21.46 27.85-34.22 48.72-28.45.37.1.73.2 1.1.31 10.84 3.14 19.85 10.79 24.73 21a39.646 39.646 0 0 1 .76 32.48c-17.59 41.73-11.24 79.96-11.17 80.34.33 1.9-.95 3.72-2.85 4.05-1.91.33-3.72-.95-4.05-2.85-.29-1.64-6.76-40.65 11.62-84.26a32.663 32.663 0 0 0-.63-26.75 32.613 32.613 0 0 0-20.35-17.29c-.34-.1-.67-.19-1.01-.29-17.17-4.74-35.17 5.83-40.12 23.58-13.31 47.68-7.18 93.91 18.73 141.31a3.502 3.502 0 0 1-3.07 5.18l-.01.01Z"/>
  <path fill="#511500" d="M101.008 172.071c-14.08 0-33.95-2.29-51.09-12.79a3.498 3.498 0 0 1-1.16-4.81 3.498 3.498 0 0 1 4.81-1.16c27.52 16.87 64.12 10.57 64.49 10.51 1.9-.34 3.72.93 4.06 2.83.34 1.9-.93 3.72-2.83 4.06-.68.12-7.92 1.37-18.29 1.37l.01-.01Zm-31.79 102.53c-5.43 0-10.57-2.4-14.05-6.66a17.952 17.952 0 0 1-3.21-16.93c1.6-4.97 4.23-9.04 7.8-12.1a3.5 3.5 0 0 1 4.93.39 3.49 3.49 0 0 1-.39 4.93c-2.58 2.2-4.49 5.21-5.69 8.93-1.17 3.63-.45 7.4 1.96 10.35 2.42 2.95 6.14 4.46 9.94 4.02 15.18-1.73 34.48-9.48 40.19-36.59.4-1.89 2.26-3.1 4.15-2.7 1.89.4 3.1 2.26 2.7 4.15-6.92 32.83-31.95 40.47-46.25 42.1-.7.08-1.4.12-2.09.12l.01-.01Z"/>
  <path fill="#DCDFE2" d="M27.658 163.171c-2.75 0-5.13-2.06-5.46-4.86-3.53-30.12 7.71-51.49 8.2-52.38a5.495 5.495 0 0 1 7.45-2.24 5.502 5.502 0 0 1 2.25 7.44c-.15.28-10.07 19.45-6.97 45.91a5.5 5.5 0 0 1-4.82 6.1c-.22.03-.43.04-.65.04v-.01Zm-22.15-13.65c-3.01 0-5.46-2.42-5.5-5.43-.11-9.04.98-17.96 3.25-26.53.78-2.94 3.79-4.69 6.72-3.91 2.94.78 4.69 3.79 3.91 6.72-2.01 7.61-2.98 15.54-2.88 23.59.04 3.04-2.4 5.53-5.43 5.57h-.07v-.01Z"/>
</svg>
