<svg xmlns="http://www.w3.org/2000/svg" width="196" height="176" fill="none" viewBox="0 0 196 176">
  <path fill="#fff" d="M26.91 87.378c5.73-.91 11.28-.22 16.05 1.7 7.86 3.17 16.78 2.25 23.56-2.84l21.98-16.52.05.06 16.691-12.54c6.69-5.03 10.05-13.2 9.29-21.54-.46-5.04.43-10.46 2.85-15.61 6.38-13.57 20.95-20.15 32.54-14.7 11.59 5.45 15.81 20.87 9.43 34.43-.64 1.37-1.37 2.66-2.17 3.88 1.39-.43 2.84-.77 4.33-1.01 14.81-2.35 28.44 6 30.45 18.64 2.01 12.65-8.37 24.81-23.18 27.16-5.73.91-11.28.22-16.05-1.7-7.86-3.17-16.78-2.25-23.56 2.84l-21.98 16.52-.05-.06-16.69 12.54c-6.69 5.03-10.05 13.2-9.29 21.54.46 5.04-.43 10.46-2.85 15.61-6.38 13.57-20.95 20.15-32.54 14.7-11.59-5.45-15.81-20.87-9.43-34.43.64-1.37 1.37-2.66 2.17-3.88-1.39.43-2.84.77-4.33 1.01-14.81 2.35-28.44-6-30.45-18.64-2.01-12.65 8.37-24.81 23.18-27.16Z"/>
  <path fill="#DADDE0" d="M4.651 104.638s.78 12.46 20.54 15.65c19.76 3.19 23.03 4.64 24.64 11.59 1.61 6.95 12.94 22.55 29.12 17.81 0 0-5.73 25.72-26.61 22.62-20.88-3.1-20.3-28.59-15.34-38.57 0 0-36.89 2.09-32.34-29.09l-.01-.01Z"/>
  <path fill="#DCDFE2" d="M183.771 80.488c-1.13 0-5.14-.25-10.43-3.41a3.5 3.5 0 0 1 3.59-6.01c4 2.39 6.73 2.42 6.82 2.42 1.98-.1 3.54 1.39 3.64 3.32.1 1.93-1.42 3.58-3.35 3.67h-.28l.01.01Zm-10.67 10.53c-.46 0-.92-.09-1.36-.28-.37-.16-9.12-3.97-15.08-14.11a3.497 3.497 0 0 1 1.25-4.79c1.67-.98 3.81-.42 4.79 1.25 4.74 8.07 11.73 11.19 11.8 11.22 1.77.77 2.58 2.83 1.82 4.6a3.508 3.508 0 0 1-3.21 2.12l-.01-.01Z"/>
  <path fill="#511500" d="M54.44 175.918c-3.5 0-6.94-.75-10.14-2.26-6.55-3.08-11.29-8.91-13.34-16.41-1.79-6.52-1.35-13.64 1.21-20.29-15.7 1.33-29.69-8.08-31.88-21.86-2.31-14.54 9.39-28.52 26.08-31.17 6.17-.98 12.36-.32 17.9 1.91 6.92 2.79 14.45 1.89 20.15-2.39l21.98-16.52c.2-.15.42-.28.64-.38l16.091-12.09c5.62-4.22 8.57-11.11 7.9-18.42-.54-5.85.56-11.87 3.17-17.42 7.19-15.29 23.87-22.65 37.19-16.38 12.63 5.94 17.77 22.02 12.13 36.71 7.1-.61 14.06.95 19.83 4.48 6.64 4.07 10.92 10.24 12.05 17.38 1.13 7.14-1.02 14.34-6.08 20.26-4.92 5.76-12.02 9.63-20.01 10.9-6.17.98-12.36.32-17.9-1.92-6.91-2.79-14.45-1.89-20.14 2.39l-21.98 16.52c-.2.15-.42.28-.64.38l-16.09 12.09c-5.62 4.22-8.57 11.11-7.9 18.42.54 5.85-.56 11.87-3.17 17.42-3.44 7.32-9.14 13.06-16.04 16.18-3.62 1.64-7.35 2.46-11.01 2.46v.01Zm-15.92-47.24a3.504 3.504 0 0 1 2.93 5.42 28.1 28.1 0 0 0-1.93 3.46c-2.73 5.81-3.37 12.15-1.81 17.85 1.51 5.5 4.91 9.74 9.57 11.93 4.66 2.19 10.09 2.11 15.29-.24 5.39-2.43 9.86-6.97 12.59-12.78 2.08-4.42 2.96-9.2 2.54-13.81-.89-9.75 3.1-18.97 10.67-24.66l16.691-12.54c.2-.15.42-.28.64-.38l21.39-16.07c7.68-5.77 17.76-7 26.97-3.29 4.36 1.76 9.27 2.27 14.19 1.49 6.34-1.01 11.94-4.04 15.78-8.53 3.7-4.34 5.29-9.53 4.49-14.62-.81-5.09-3.93-9.53-8.79-12.51-5.04-3.09-11.31-4.23-17.65-3.22-1.29.2-2.59.51-3.86.9-1.41.43-2.94-.07-3.82-1.24a3.489 3.489 0 0 1-.13-4.02c.73-1.11 1.38-2.28 1.93-3.46 5.55-11.8 2.07-25.16-7.76-29.78-9.83-4.62-22.33 1.22-27.88 13.02-2.08 4.43-2.96 9.2-2.54 13.81.89 9.75-3.1 18.97-10.67 24.66l-16.69 12.54c-.2.15-.42.28-.64.38l-21.39 16.07c-7.68 5.77-17.76 7-26.97 3.29-4.37-1.76-9.27-2.27-14.19-1.49-12.88 2.04-21.97 12.43-20.27 23.15 1.7 10.72 13.57 17.78 26.44 15.74 1.28-.2 2.58-.5 3.86-.89.34-.1.68-.15 1.02-.15v-.03Z"/>
</svg>
